<svg width="21" height="20" viewBox="0 0 21 20" fill="none" xmlns="http://www.w3.org/2000/svg">
<mask id="mask0_19348_15856" style="mask-type:alpha" maskUnits="userSpaceOnUse" x="0" y="0" width="21" height="20">
<rect x="0.515625" width="20" height="20" fill="#D9D9D9"/>
</mask>
<g mask="url(#mask0_19348_15856)">
<path d="M9.82255 14.1663H6.35026C5.19748 14.1663 4.21484 13.7601 3.40234 12.9476C2.58984 12.1351 2.18359 11.1525 2.18359 9.99967C2.18359 8.8469 2.58984 7.86426 3.40234 7.05176C4.21484 6.23926 5.19748 5.83301 6.35026 5.83301H9.82255V7.22197H6.35026C5.57859 7.22197 4.92276 7.49169 4.38276 8.03113C3.84262 8.57058 3.57255 9.22565 3.57255 9.99634C3.57255 10.767 3.84262 11.4232 4.38276 11.9649C4.92276 12.5065 5.57859 12.7774 6.35026 12.7774H9.82255V14.1663ZM7.25297 10.694V9.3053H13.7809V10.694H7.25297ZM11.2113 14.1663V12.7774H14.6836C15.4553 12.7774 16.1111 12.5077 16.6511 11.9682C17.1912 11.4288 17.4613 10.7737 17.4613 10.003C17.4613 9.23231 17.1912 8.57613 16.6511 8.03447C16.1111 7.4928 15.4553 7.22197 14.6836 7.22197H11.2113V5.83301H14.6836C15.8364 5.83301 16.819 6.23926 17.6315 7.05176C18.444 7.86426 18.8503 8.8469 18.8503 9.99967C18.8503 11.1525 18.444 12.1351 17.6315 12.9476C16.819 13.7601 15.8364 14.1663 14.6836 14.1663H11.2113Z" fill="white"/>
</g>
</svg>
