<svg width="19" height="18" viewBox="0 0 19 18" fill="none" xmlns="http://www.w3.org/2000/svg">
<path d="M9.48047 17.2917C8.45269 17.2917 7.48394 17.0972 6.57422 16.7083C5.6645 16.3194 4.87283 15.7882 4.19922 15.1146C3.52561 14.441 2.99089 13.6493 2.59505 12.7396C2.19922 11.8299 2.0013 10.856 2.0013 9.81812C2.0013 8.78007 2.19922 7.80785 2.59505 6.90146C2.99089 5.99493 3.52561 5.20139 4.19922 4.52083C4.87283 3.84028 5.6645 3.30556 6.57422 2.91667C7.48394 2.52778 8.45269 2.33333 9.48047 2.33333C10.5082 2.33333 11.477 2.52778 12.3867 2.91667C13.2964 3.30556 14.0916 3.84028 14.7721 4.52083C15.4527 5.20139 15.9874 5.99493 16.3763 6.90146C16.7652 7.80785 16.9596 8.78007 16.9596 9.81812C16.9596 10.856 16.7652 11.8299 16.3763 12.7396C15.9874 13.6493 15.4527 14.441 14.7721 15.1146C14.0916 15.7882 13.2964 16.3194 12.3867 16.7083C11.477 17.0972 10.5082 17.2917 9.48047 17.2917ZM12.0013 13.2083L12.8763 12.3333L10.168 9.625V5.66667H8.91797V10.125L12.0013 13.2083ZM3.95964 0.9375L4.83464 1.8125L1.41797 5.10417L0.542969 4.22917L3.95964 0.9375ZM15.0013 0.9375L18.418 4.22917L17.543 5.10417L14.1263 1.8125L15.0013 0.9375ZM9.4813 16.0417C11.2169 16.0417 12.6888 15.4372 13.8971 14.2283C15.1055 13.0193 15.7096 11.5471 15.7096 9.81167C15.7096 8.07611 15.1052 6.60417 13.8963 5.39583C12.6873 4.1875 11.2151 3.58333 9.47964 3.58333C7.74408 3.58333 6.27214 4.18778 5.0638 5.39667C3.85547 6.60569 3.2513 8.07792 3.2513 9.81333C3.2513 11.5489 3.85575 13.0208 5.06464 14.2292C6.27366 15.4375 7.74589 16.0417 9.4813 16.0417Z" fill="#EFEFEF"/>
</svg>
