<svg width="48" height="48" viewBox="0 0 48 48" fill="none" xmlns="http://www.w3.org/2000/svg">
<mask id="mask0_21791_18677" style="mask-type:alpha" maskUnits="userSpaceOnUse" x="0" y="0" width="48" height="48">
<rect width="48" height="48" fill="#D9D9D9"/>
</mask>
<g mask="url(#mask0_21791_18677)">
<path d="M13.5 43.9996C12 43.9996 10.7083 43.4913 9.625 42.4746C8.54167 41.4579 8 40.1996 8 38.6996V10.7996C8 9.53294 8.39167 8.39961 9.175 7.39961C9.95833 6.39961 10.9833 5.76628 12.25 5.49961L32 1.59961V33.5996L13.05 37.3996C12.75 37.4663 12.5 37.6246 12.3 37.8746C12.1 38.1246 12 38.3996 12 38.6996C12 39.0663 12.15 39.3746 12.45 39.6246C12.75 39.8746 13.1 39.9996 13.5 39.9996H36V7.99961H40V43.9996H13.5ZM18 32.3496L28 30.3996V6.49961L18 8.44961V32.3496ZM14 33.1496V9.24961L13.25 9.39961C12.8833 9.46628 12.5833 9.62461 12.35 9.87461C12.1167 10.1246 12 10.4329 12 10.7996V33.6496C12.1667 33.5829 12.3417 33.5246 12.525 33.4746C12.7083 33.4246 12.8833 33.3829 13.05 33.3496L14 33.1496Z" fill="#01320E"/>
</g>
</svg>
