<svg width="274" height="247" viewBox="0 0 274 247" fill="none" xmlns="http://www.w3.org/2000/svg">
<rect x="0.125" width="273.75" height="247" rx="4" fill="#04222F"/>
<g clip-path="url(#clip0_16011_10316)">
<path d="M173.812 28.0039L182.911 20.4938L208.211 50.8929C210.184 53.2637 209.853 56.7837 207.473 58.7486L207.001 59.1383C204.62 61.1032 201.086 60.7738 199.113 58.4031L173.812 28.0039Z" fill="#010101"/>
<path d="M173.812 28.0039L182.911 20.4938L208.211 50.8929C210.184 53.2637 209.853 56.7837 207.473 58.7486L207.001 59.1383C204.62 61.1032 201.086 60.7738 199.113 58.4031L173.812 28.0039Z" fill="url(#paint0_linear_16011_10316)"/>
<path d="M169.594 13.7129L182.595 20.5271L173.904 27.7L169.594 13.7129Z" fill="#F7C400"/>
<path d="M169.885 14.0657L182.275 20.5595L173.993 27.3954L169.885 14.0657ZM169.297 13.3594L173.81 28.0038L182.909 20.4937L169.297 13.3594Z" fill="#010101"/>
<path d="M170.462 17.1329L172.807 15.1976L168.168 12L170.462 17.1329Z" fill="#010101"/>
<path d="M111.984 116.514L112.046 188.87H152.033L141.786 114.689C141.786 114.689 140.705 115.665 138.976 115.928C137.248 116.192 127.684 120.141 127.684 120.141L113.587 117.312L111.984 116.514Z" fill="white"/>
<path d="M131.22 88.1019C130.067 85.7656 130.546 84.1268 131.582 82.8653C133.226 80.8621 136.584 80.8868 139.082 82.9205C141.58 84.9541 142.272 88.2266 140.628 90.2298C140.381 90.5304 140.328 90.6184 140.013 90.8277" stroke="#010101" stroke-miterlimit="10"/>
<path d="M110.404 89.9782C111.808 86.3201 115.248 83.5318 119.118 82.838C122.989 82.1443 127.157 83.5393 129.872 86.372C130.514 87.0411 133.389 90.0459 134.259 90.39C135.301 90.8025 136.422 90.4384 137.54 90.5291C138.516 90.6083 139.573 90.4519 140.413 90.9531C141.653 91.6928 141.757 93.4539 141.418 94.8527C141.265 95.4844 141.059 96.1856 141.379 96.752C141.567 97.0841 141.903 97.3006 142.181 97.5621C143.292 98.6065 143.434 100.304 143.345 101.823C143.136 105.375 141.815 109.175 138.74 110.986C138.381 111.197 138.001 111.38 137.684 111.648C137.336 111.942 137.079 112.326 136.827 112.704C135.711 114.377 134.595 116.05 133.478 117.724C132.881 118.619 132.125 117.996 131.059 117.832C130.736 117.783 127.969 120.298 127.681 120.143C125.205 118.803 120.393 119.278 118.258 117.446C117.434 116.739 120.66 114.129 119.576 114.049C118.925 114.001 108.6 112.774 105.864 109.009C104.727 107.444 103.531 102.373 107.941 101.072C110.229 100.398 111.907 101.054 111.907 101.054C111.907 101.054 110.588 98.3766 110.318 97.5925C109.473 95.1468 109.474 92.4003 110.404 89.9782Z" fill="#F6B1B4"/>
<path d="M133.812 98.0167C135.457 96.0135 134.765 92.741 132.267 90.7074C129.769 88.6737 126.411 88.649 124.766 90.6522C123.122 92.6554 123.814 95.9279 126.312 97.9615C128.81 99.9952 132.168 100.02 133.812 98.0167Z" stroke="#010101" stroke-miterlimit="10"/>
<path d="M132.245 90.5466C132.236 90.246 132.196 90.0161 132.307 89.7363C132.572 89.0653 133.24 89.3532 133.574 89.6473" stroke="#010101" stroke-miterlimit="10" stroke-linecap="round"/>
<path d="M138.5 95.0356C138.694 95.0356 138.851 94.879 138.851 94.6858C138.851 94.4926 138.694 94.3359 138.5 94.3359C138.306 94.3359 138.148 94.4926 138.148 94.6858C138.148 94.879 138.306 95.0356 138.5 95.0356Z" fill="#010101"/>
<path d="M140.293 95.0356C140.487 95.0356 140.644 94.879 140.644 94.6858C140.644 94.4926 140.487 94.3359 140.293 94.3359C140.099 94.3359 139.941 94.4926 139.941 94.6858C139.941 94.879 140.099 95.0356 140.293 95.0356Z" fill="#010101"/>
<path d="M141.379 96.752H136.961" stroke="#010101" stroke-miterlimit="10" stroke-linecap="round"/>
<path d="M109.185 103.498C108.241 104.25 107.796 105.512 107.918 106.709C108.361 111.018 115.311 110.707 117.791 110.998" stroke="#010101" stroke-miterlimit="10" stroke-linecap="round"/>
<path d="M119.803 103.765C120.115 103.765 120.367 103.513 120.367 103.203C120.367 102.892 120.115 102.641 119.803 102.641C119.491 102.641 119.238 102.892 119.238 103.203C119.238 103.513 119.491 103.765 119.803 103.765Z" fill="#010101"/>
<path d="M117.945 100.392C118.364 100.392 118.703 100.054 118.703 99.6374C118.703 99.2207 118.364 98.8828 117.945 98.8828C117.527 98.8828 117.188 99.2207 117.188 99.6374C117.188 100.054 117.527 100.392 117.945 100.392Z" fill="#010101"/>
<path d="M116.981 102.938C117.096 102.938 117.189 102.845 117.189 102.731C117.189 102.616 117.096 102.523 116.981 102.523C116.867 102.523 116.773 102.616 116.773 102.731C116.773 102.845 116.867 102.938 116.981 102.938Z" fill="#010101"/>
<path d="M115.226 100.184C115.522 100.184 115.761 99.946 115.761 99.6518C115.761 99.3576 115.522 99.1191 115.226 99.1191C114.931 99.1191 114.691 99.3576 114.691 99.6518C114.691 99.946 114.931 100.184 115.226 100.184Z" fill="#010101"/>
<path d="M116.58 96.8417C116.687 96.8417 116.773 96.7556 116.773 96.6494C116.773 96.5431 116.687 96.457 116.58 96.457C116.473 96.457 116.387 96.5431 116.387 96.6494C116.387 96.7556 116.473 96.8417 116.58 96.8417Z" fill="#010101"/>
<path d="M112.272 97.4336C112.542 97.4336 112.762 97.215 112.762 96.9453C112.762 96.6756 112.542 96.457 112.272 96.457C112.001 96.457 111.781 96.6756 111.781 96.9453C111.781 97.215 112.001 97.4336 112.272 97.4336Z" fill="#010101"/>
<path d="M113.98 95.1239C114.111 95.1239 114.218 95.0179 114.218 94.8871C114.218 94.7564 114.111 94.6504 113.98 94.6504C113.849 94.6504 113.742 94.7564 113.742 94.8871C113.742 95.0179 113.849 95.1239 113.98 95.1239Z" fill="#010101"/>
<path d="M111.336 93.8526C111.583 93.8526 111.782 93.6539 111.782 93.4087C111.782 93.1636 111.583 92.9648 111.336 92.9648C111.09 92.9648 110.891 93.1636 110.891 93.4087C110.891 93.6539 111.09 93.8526 111.336 93.8526Z" fill="#010101"/>
<path d="M115.605 92.1218C115.815 92.1218 115.984 91.9529 115.984 91.7445C115.984 91.5361 115.815 91.3672 115.605 91.3672C115.396 91.3672 115.227 91.5361 115.227 91.7445C115.227 91.9529 115.396 92.1218 115.605 92.1218Z" fill="#010101"/>
<path d="M115.457 94.1472C115.539 94.1472 115.605 94.081 115.605 93.9994C115.605 93.9177 115.539 93.8516 115.457 93.8516C115.375 93.8516 115.309 93.9177 115.309 93.9994C115.309 94.081 115.375 94.1472 115.457 94.1472Z" fill="#010101"/>
<path d="M113.057 91.7751C113.32 91.7751 113.533 91.5631 113.533 91.3016C113.533 91.0401 113.32 90.8281 113.057 90.8281C112.795 90.8281 112.582 91.0401 112.582 91.3016C112.582 91.5631 112.795 91.7751 113.057 91.7751Z" fill="#010101"/>
<path d="M112.783 88.6593C112.893 88.6593 112.983 88.5698 112.983 88.4595C112.983 88.3492 112.893 88.2598 112.783 88.2598C112.672 88.2598 112.582 88.3492 112.582 88.4595C112.582 88.5698 112.672 88.6593 112.783 88.6593Z" fill="#010101"/>
<path d="M115.995 89.435C116.211 89.435 116.385 89.2611 116.385 89.0466C116.385 88.8321 116.211 88.6582 115.995 88.6582C115.78 88.6582 115.605 88.8321 115.605 89.0466C115.605 89.2611 115.78 89.435 115.995 89.435Z" fill="#010101"/>
<path d="M118.748 91.959C119.019 91.959 119.238 91.7404 119.238 91.4707C119.238 91.201 119.019 90.9824 118.748 90.9824C118.477 90.9824 118.258 91.201 118.258 91.4707C118.258 91.7404 118.477 91.959 118.748 91.959Z" fill="#010101"/>
<path d="M116.17 86.1732C116.396 86.1732 116.579 85.991 116.579 85.7663C116.579 85.5415 116.396 85.3594 116.17 85.3594C115.945 85.3594 115.762 85.5415 115.762 85.7663C115.762 85.991 115.945 86.1732 116.17 86.1732Z" fill="#010101"/>
<path d="M119.595 84.3528C119.792 84.3528 119.951 84.1938 119.951 83.9977C119.951 83.8016 119.792 83.6426 119.595 83.6426C119.398 83.6426 119.238 83.8016 119.238 83.9977C119.238 84.1938 119.398 84.3528 119.595 84.3528Z" fill="#010101"/>
<path d="M124.053 84.8268C124.234 84.8268 124.38 84.6811 124.38 84.5013C124.38 84.3215 124.234 84.1758 124.053 84.1758C123.873 84.1758 123.727 84.3215 123.727 84.5013C123.727 84.6811 123.873 84.8268 124.053 84.8268Z" fill="#010101"/>
<path d="M121.082 86.6534C121.329 86.6534 121.528 86.4546 121.528 86.2095C121.528 85.9644 121.329 85.7656 121.082 85.7656C120.836 85.7656 120.637 85.9644 120.637 86.2095C120.637 86.4546 120.836 86.6534 121.082 86.6534Z" fill="#010101"/>
<path d="M118.659 87.6964C118.798 87.6964 118.911 87.5838 118.911 87.4449C118.911 87.306 118.798 87.1934 118.659 87.1934C118.519 87.1934 118.406 87.306 118.406 87.4449C118.406 87.5838 118.519 87.6964 118.659 87.6964Z" fill="#010101"/>
<path d="M122.226 83.6439C122.316 83.6439 122.389 83.571 122.389 83.4811C122.389 83.3912 122.316 83.3184 122.226 83.3184C122.136 83.3184 122.062 83.3912 122.062 83.4811C122.062 83.571 122.136 83.6439 122.226 83.6439Z" fill="#010101"/>
<path d="M117.948 95.361C118.211 95.361 118.424 95.149 118.424 94.8875C118.424 94.626 118.211 94.4141 117.948 94.4141C117.686 94.4141 117.473 94.626 117.473 94.8875C117.473 95.149 117.686 95.361 117.948 95.361Z" fill="#010101"/>
<path d="M114.855 97.4632C115.027 97.4632 115.167 97.3241 115.167 97.1525C115.167 96.9809 115.027 96.8418 114.855 96.8418C114.683 96.8418 114.543 96.9809 114.543 97.1525C114.543 97.3241 114.683 97.4632 114.855 97.4632Z" fill="#010101"/>
<path d="M112.626 99.8293C112.823 99.8293 112.983 99.6704 112.983 99.4742C112.983 99.2781 112.823 99.1191 112.626 99.1191C112.429 99.1191 112.27 99.2781 112.27 99.4742C112.27 99.6704 112.429 99.8293 112.626 99.8293Z" fill="#010101"/>
<path d="M178.937 34.161C177.326 32.9689 175.881 32.2548 173.893 31.9797C172.975 31.8528 172.036 31.7365 171.129 31.9257C170.222 32.1149 169.34 32.6672 169.002 33.5257C168.553 34.6619 169.192 35.986 170.152 36.7462C171.111 37.5064 172.326 37.8465 173.487 38.2394C175.414 38.8917 177.416 39.8633 178.336 41.6712C179.188 43.3472 178.914 45.3471 178.62 47.2029C178.425 48.431 176.883 52.1627 176.688 53.3908C179.78 53.8561 184.066 51.6143 187.127 52.2536C187.827 52.3998 188.531 52.552 189.19 52.8282C190.32 53.3015 191.265 54.1144 192.229 54.8686C193.539 55.8944 194.919 56.8327 196.356 57.6752C197.545 58.3731 198.831 59.0587 199.543 60.2372C199.808 59.9399 199.993 59.5712 200.072 59.1808L178.937 34.161Z" fill="#F6B1B4"/>
<path d="M187.964 18.6476C188.883 18.0681 189.895 17.5307 190.983 17.5372C192.071 17.5436 193.226 18.2775 193.339 19.3553C194.924 18.4662 196.936 18.2456 198.582 19.0167C200.229 19.7877 201.378 21.6319 201.1 23.4227C202.683 23.0303 204.372 24.1604 204.969 25.6721C205.565 27.1837 205.247 28.9273 204.523 30.3824C205.486 29.8017 206.821 30.5281 207.247 31.5666C207.674 32.6051 207.44 33.7881 207.119 34.8633C206.544 36.7855 205.709 38.6189 204.877 40.4452C204.145 42.0512 203.75 43.245 202.601 44.5875C202.23 45.0211 201.581 45.5289 200.311 44.9598C199.412 44.557 198.621 43.4789 198.95 42.37C199.23 41.429 199.484 40.5462 199.715 39.5922C199.495 40.3175 199.206 41.0218 198.852 41.6923C198.619 42.1351 198.333 42.586 197.881 42.8058C197.139 43.1675 195.532 42.5712 195.099 41.8703C194.666 41.1694 194.667 40.0246 194.993 39.1383C195.35 38.1645 195.74 37.1932 195.74 37.1932C194.994 38.238 194.567 39.738 193.319 40.0534C192.471 40.2677 191.561 39.7675 191.079 39.0402C190.598 38.3129 190.47 37.4087 190.461 36.5375C190.444 35.0347 190.743 33.5292 191.334 32.1464C191.681 31.3357 192.136 30.5272 192.125 29.6462C192.123 29.4756 192.095 29.2895 191.97 29.1735C191.645 28.873 191.17 29.3184 190.961 29.7074C190.544 30.4822 190.127 31.2569 189.71 32.0316C189.237 32.9108 188.73 33.8273 187.89 34.3708C187.05 34.9144 186.027 34.6493 185.175 34.1255C184.124 33.4799 184.029 31.5581 184.135 30.7944C184.453 28.5091 184.771 26.2238 185.089 23.9385C185.111 23.7809 185.132 23.6193 185.098 23.4639C185.054 23.2643 185.69 24.1925 185.562 24.0328C184.786 23.0639 183.65 22.187 184.736 21.0593C185.199 20.5782 185.781 20.1736 186.316 19.7762C186.65 19.5284 187.551 18.6476 187.964 18.6476Z" fill="#F6B1B4"/>
<path d="M198.524 57.5014C198.426 57.4064 198.133 57.5104 198.029 57.4125C197.93 57.3187 197.915 57.1331 197.81 57.037C197.709 56.9444 197.53 56.9355 197.424 56.8411C197.322 56.7498 197.356 56.5013 197.249 56.4086C197.145 56.3187 196.895 56.397 196.787 56.306C196.681 56.2176 196.685 55.9968 196.575 55.9076C196.468 55.8206 196.355 55.7383 196.245 55.6508C196.136 55.5653 195.949 55.5804 195.836 55.4946C195.727 55.4107 195.734 55.1713 195.621 55.0873C195.51 55.0049 195.322 55.0244 195.208 54.9422C195.096 54.8615 194.946 54.8338 194.83 54.7533C194.717 54.6743 194.73 54.4098 194.613 54.3312C194.498 54.2538 194.339 54.2403 194.221 54.1635C194.105 54.0879 193.966 54.0452 193.847 53.9703C193.73 53.8965 193.545 53.9308 193.425 53.8578C193.307 53.7858 193.274 53.5719 193.153 53.5008C193.033 53.4308 192.905 53.374 192.783 53.3051C192.663 53.237 192.461 53.3156 192.338 53.2487C192.216 53.1825 192.21 52.9006 192.086 52.8356C191.963 52.7713 191.864 52.6561 191.739 52.5932C191.615 52.5308 191.458 52.5297 191.331 52.4688C191.206 52.4086 191.087 52.3313 190.96 52.2725C190.834 52.2143 190.671 52.2334 190.542 52.1768C190.415 52.1206 190.308 52.016 190.178 51.9615C190.05 51.9076 189.878 51.9571 189.748 51.9049C189.619 51.8531 189.54 51.6725 189.408 51.6225C189.278 51.573 189.095 51.6649 188.962 51.6172C188.831 51.5699 188.743 51.3999 188.61 51.3546C188.478 51.3096 188.282 51.4594 188.148 51.4164C188.015 51.3738 187.881 51.3429 187.746 51.3022C187.613 51.262 187.491 51.1896 187.356 51.1514C187.222 51.1136 187.154 50.8334 187.019 50.7977C186.884 50.7624 186.685 50.9775 186.549 50.9443C186.414 50.9114 186.298 50.7986 186.161 50.7678C186.025 50.7373 185.869 50.8047 185.732 50.7764C185.595 50.7483 185.497 50.5274 185.359 50.5016C185.222 50.476 185.091 50.4053 184.952 50.3821C184.814 50.359 184.639 50.5673 184.5 50.5465C184.362 50.526 184.249 50.3303 184.109 50.3121C183.971 50.2941 183.829 50.295 183.689 50.2794C183.551 50.264 183.416 50.1927 183.276 50.1797C183.137 50.1668 182.982 50.3379 182.842 50.3275C182.703 50.3171 182.578 50.0677 182.437 50.0597C182.298 50.0519 182.156 50.0254 182.016 50.02C181.876 50.0147 181.732 50.0563 181.591 50.0535C181.451 50.0506 181.308 50.1739 181.167 50.1736C181.025 50.1733 180.871 50.0315 180.731 50.0431C180.59 50.0548 180.461 50.2196 180.323 50.2431C180.183 50.2666 180.056 50.341 179.92 50.3761C179.783 50.4113 179.614 50.3473 179.481 50.3938C179.348 50.4404 179.204 50.4769 179.075 50.5344C178.946 50.5919 178.87 50.7606 178.747 50.8286C178.623 50.8966 178.431 50.8587 178.313 50.9368C178.196 51.0147 178.132 51.1733 178.021 51.2608C177.911 51.3481 177.827 51.4663 177.724 51.5627C177.621 51.6587 177.525 51.7592 177.431 51.8638C177.336 51.9678 177.363 52.1621 177.277 52.2742C177.192 52.3855 176.963 52.3903 176.887 52.5092C176.811 52.627 176.821 52.7929 176.755 52.9177C176.69 53.0394 176.422 53.0545 176.357 53.1769C176.292 53.2986 176.512 53.5701 176.447 53.6926C176.382 53.8144 176.027 53.7841 175.962 53.9066C175.898 54.0286 176.105 54.293 176.04 54.4156C175.976 54.5377 175.778 54.5907 175.714 54.7134C175.65 54.8355 175.471 54.8987 175.407 55.0215C175.343 55.1437 175.339 55.2976 175.275 55.4205C175.211 55.5428 175.239 55.7134 175.175 55.8363C175.111 55.9587 175.002 56.058 174.938 56.181C174.874 56.3034 174.947 56.497 174.883 56.6201C174.819 56.7426 174.592 56.7813 174.528 56.9044C174.465 57.027 174.574 57.2389 174.51 57.362C174.446 57.4847 174.174 57.5006 174.111 57.6237C174.047 57.7465 174.077 57.9175 174.013 58.0407C173.95 58.1635 174.004 58.3469 173.941 58.4702C173.877 58.5931 173.727 58.6721 173.664 58.7954C173.601 58.9184 173.492 59.0182 173.428 59.1416C173.365 59.2646 173.204 59.3379 173.14 59.4614C173.077 59.5844 173.035 59.7186 172.972 59.842C172.908 59.9652 172.895 60.1139 172.832 60.2374C172.769 60.3606 172.622 60.4416 172.559 60.5652C172.496 60.6884 172.514 60.8532 172.451 60.9768C172.388 61.1001 172.482 61.303 172.419 61.4267C172.356 61.55 172.02 61.5352 171.957 61.6589C171.894 61.7823 171.849 61.915 171.786 62.0387C171.723 62.1622 171.901 62.4075 171.838 62.5312C171.776 62.6547 171.629 62.7359 171.566 62.8596C171.503 62.9831 171.447 63.1104 171.385 63.2342C171.322 63.3578 171.181 63.4423 171.119 63.5662C171.056 63.6897 171.034 63.8342 170.972 63.9581C170.909 64.0817 170.887 64.2258 170.824 64.3496C170.761 64.4733 170.612 64.5533 170.549 64.6773C170.486 64.8007 170.399 64.9115 170.336 65.0352C170.274 65.1586 170.368 65.3608 170.305 65.4845C170.243 65.608 170.063 65.6725 170 65.7962C169.938 65.9198 169.965 66.0883 169.902 66.212C169.84 66.3356 169.686 66.4134 169.623 66.5372C169.561 66.6609 169.538 66.8042 169.475 66.928C169.413 67.0517 169.223 67.112 169.161 67.2358C169.099 67.3596 169.216 67.5731 169.153 67.697C169.091 67.8207 169.09 67.9752 169.028 68.0991C168.965 68.2229 168.922 68.3564 168.86 68.4804C168.798 68.6042 168.596 68.6586 168.534 68.7826C168.471 68.9065 168.369 69.0102 168.306 69.1342C168.244 69.2581 168.356 69.469 168.294 69.5931C168.231 69.717 167.982 69.7477 167.919 69.8718C167.857 69.9958 167.852 70.1483 167.79 70.2724C167.727 70.3964 167.769 70.5724 167.707 70.6965C167.645 70.8204 167.574 70.94 167.511 71.064C167.449 71.1879 167.415 71.3261 167.353 71.4501C167.291 71.5741 167.207 71.6875 167.145 71.8116C167.082 71.9356 167.02 72.0595 166.957 72.1836C166.895 72.3077 166.722 72.3768 166.66 72.501C166.598 72.6251 166.528 72.7457 166.466 72.8698C166.403 72.994 166.265 73.0803 166.202 73.2045C166.14 73.3287 166.239 73.5332 166.176 73.6574C166.114 73.7816 166.126 73.943 166.063 74.0672C166.001 74.1915 165.709 74.2012 165.646 74.3255C165.584 74.4498 165.57 74.5985 165.508 74.7228C165.445 74.8471 165.425 74.9925 165.362 75.1169C165.3 75.2412 165.272 75.3829 165.209 75.5073C165.147 75.6317 165.084 75.7559 165.021 75.8802C164.959 76.0045 164.896 76.1288 164.834 76.253C164.771 76.3773 164.762 76.5283 164.699 76.6525C164.637 76.7768 164.542 76.885 164.48 77.0093C164.417 77.1336 164.189 77.175 164.126 77.2992C164.063 77.4235 164.18 77.6373 164.117 77.7615C164.054 77.8858 163.831 77.9297 163.769 78.054C163.706 78.1783 163.816 78.3889 163.753 78.5131C163.69 78.6374 163.527 78.7113 163.464 78.8355C163.401 78.9598 163.346 79.0877 163.283 79.2119C163.22 79.3362 163.213 79.4881 163.15 79.6123C163.087 79.7366 162.822 79.7594 162.759 79.8836C162.696 80.0078 162.741 80.1861 162.678 80.3102C162.615 80.4345 162.508 80.5366 162.445 80.6607C162.382 80.785 162.326 80.9126 162.263 81.0367C162.2 81.161 162.262 81.3483 162.199 81.4724C162.136 81.5967 161.957 81.6625 161.894 81.7866C161.831 81.9108 161.95 82.1266 161.886 82.2506C161.823 82.3749 161.736 82.4869 161.673 82.6109C161.609 82.7351 161.403 82.7871 161.34 82.9111C161.277 83.0354 161.34 83.2235 161.277 83.3475C161.214 83.4717 161.152 83.5969 161.089 83.7209C161.026 83.8451 160.925 83.9501 160.861 84.074C160.798 84.1982 160.645 84.2769 160.581 84.4007C160.518 84.5249 160.365 84.6034 160.301 84.7273C160.238 84.8514 160.395 85.0879 160.332 85.2118C160.268 85.3359 160.074 85.3932 160.01 85.517C159.946 85.6411 160.028 85.8392 159.964 85.9629C159.9 86.087 159.74 86.1613 159.676 86.285C159.612 86.409 159.444 86.4798 159.38 86.6034C159.316 86.7274 159.388 86.9206 159.324 87.0442C159.26 87.1682 159.028 87.2058 158.964 87.3294C158.9 87.4533 158.965 87.6437 158.901 87.7672C158.837 87.8911 158.747 88.0017 158.683 88.1252C158.619 88.249 158.501 88.345 158.437 88.4685C158.372 88.5923 158.379 88.7528 158.315 88.8762C158.251 89 158.14 89.0999 158.076 89.2232C158.011 89.3469 157.989 89.4922 157.924 89.6155C157.86 89.7392 157.704 89.8155 157.64 89.9387C157.575 90.0623 157.611 90.2382 157.546 90.3614C157.481 90.4849 157.315 90.5555 157.251 90.6786C157.185 90.8021 157.084 90.9062 157.019 91.0292C156.954 91.1527 156.91 91.2869 156.845 91.4098C156.78 91.5332 156.915 91.7616 156.85 91.8845C156.784 92.0079 156.641 92.0899 156.576 92.2127C156.51 92.336 156.358 92.4132 156.293 92.536C156.227 92.6592 156.297 92.854 156.232 92.9766C156.166 93.0997 156.087 93.2157 156.021 93.3382C155.955 93.4613 155.984 93.6347 155.918 93.7572C155.852 93.8802 155.652 93.9311 155.586 94.0535C155.519 94.1764 155.509 94.3289 155.443 94.4512C155.377 94.574 155.376 94.7317 155.309 94.8539C155.243 94.9766 155.042 95.0268 154.975 95.1488C154.909 95.2715 154.756 95.3474 154.69 95.4694C154.623 95.592 154.699 95.7917 154.633 95.9136C154.566 96.0361 154.454 96.1339 154.387 96.2557C154.32 96.3781 154.184 96.4627 154.117 96.5843C154.05 96.7066 153.961 96.8165 153.894 96.938C153.826 97.0602 153.992 97.3101 153.924 97.4314C153.856 97.5535 153.699 97.6257 153.631 97.747C153.563 97.869 153.32 97.8932 153.252 98.0143C153.184 98.1362 153.365 98.3964 153.297 98.5173C153.229 98.6391 153.095 98.7239 153.027 98.8447C152.958 98.9663 152.765 99.0174 152.696 99.1381C152.628 99.2596 152.757 99.4923 152.689 99.6128C152.619 99.7342 152.268 99.6953 152.2 99.8157C152.13 99.9369 152.312 100.2 152.243 100.32C152.173 100.441 151.865 100.426 151.796 100.546C151.726 100.666 151.814 100.877 151.745 100.997C151.675 101.118 151.59 101.229 151.52 101.349C151.45 101.47 151.39 101.596 151.32 101.715C151.249 101.835 151.072 101.893 151.001 102.012C150.93 102.132 150.967 102.315 150.896 102.433C150.825 102.553 150.746 102.668 150.675 102.787C150.603 102.906 150.554 103.039 150.483 103.158C150.411 103.277 150.246 103.34 150.174 103.458C150.102 103.578 150.224 103.814 150.152 103.932C150.079 104.051 149.965 104.144 149.892 104.262C149.819 104.38 149.572 104.392 149.5 104.509C149.426 104.628 149.56 104.874 149.487 104.991C149.413 105.109 149.229 105.158 149.155 105.275C149.081 105.393 148.871 105.424 148.797 105.541C148.722 105.658 148.839 105.896 148.764 106.012C148.689 106.13 148.602 106.239 148.527 106.355C148.451 106.472 148.2 106.474 148.125 106.589C148.048 106.706 147.94 106.8 147.864 106.914C147.787 107.031 147.789 107.198 147.713 107.312C147.635 107.428 147.666 107.615 147.589 107.729C147.51 107.844 147.532 108.028 147.455 108.141C147.375 108.256 147.128 108.255 147.049 108.368C146.968 108.483 146.968 108.652 146.888 108.765C146.807 108.879 146.532 108.854 146.451 108.966C146.369 109.08 146.512 109.354 146.43 109.465C146.348 109.578 146.113 109.578 146.031 109.688C145.947 109.801 145.851 109.901 145.768 110.01C145.683 110.122 145.777 110.368 145.693 110.476C145.607 110.587 145.477 110.662 145.391 110.769C145.304 110.878 145.234 111.001 145.148 111.107C145.059 111.216 144.999 111.348 144.911 111.453C144.821 111.56 144.616 111.569 144.526 111.672C144.434 111.779 144.398 111.932 144.307 112.033C144.213 112.138 144.122 112.244 144.029 112.343C143.932 112.446 143.691 112.406 143.596 112.502C143.496 112.604 143.528 112.829 143.431 112.923C143.329 113.022 143.184 113.072 143.084 113.162C142.979 113.258 142.98 113.471 142.877 113.558C142.768 113.65 142.633 113.712 142.527 113.794C142.414 113.881 142.207 113.835 142.097 113.91C141.979 113.991 141.912 114.135 141.797 114.202C141.615 114.327 141.735 114.412 141.499 114.559C141.393 114.625 141.117 114.45 140.97 114.53C140.851 114.595 140.791 114.793 140.648 114.861C140.522 114.92 140.346 114.884 140.203 114.943C140.072 114.996 139.971 115.136 139.827 115.186C139.691 115.233 139.524 115.186 139.378 115.227C139.239 115.266 139.097 115.373 138.949 115.405C138.825 115.572 138.83 115.586 138.867 115.856C138.882 115.97 139.143 116.074 139.164 116.233C139.181 116.356 139.098 116.508 139.118 116.658C139.135 116.785 139.13 116.925 139.15 117.071C139.168 117.201 139.35 117.316 139.37 117.459C139.387 117.59 139.242 117.749 139.261 117.891C139.279 118.023 139.4 118.146 139.42 118.288C139.437 118.421 139.466 118.556 139.485 118.697C139.503 118.83 139.489 118.972 139.508 119.112C139.526 119.246 139.519 119.386 139.538 119.526C139.556 119.66 139.418 119.818 139.437 119.958C139.455 120.093 139.512 120.225 139.531 120.364C139.549 120.499 139.577 120.635 139.595 120.775C139.614 120.91 139.566 121.056 139.585 121.195C139.603 121.33 139.822 121.441 139.841 121.58C139.859 121.715 140 121.836 140.019 121.975C140.037 122.111 139.907 122.268 139.926 122.407C139.944 122.543 139.854 122.694 139.872 122.833C139.89 122.969 140.166 123.072 140.185 123.211C140.203 123.347 139.972 123.518 139.99 123.656C140.008 123.792 140.054 123.926 140.073 124.065C140.091 124.201 140.067 124.344 140.085 124.482C140.103 124.618 140.161 124.75 140.18 124.889C140.198 125.025 140.436 125.133 140.454 125.272C140.472 125.408 140.368 125.562 140.386 125.7C140.404 125.836 140.314 125.988 140.333 126.126C140.351 126.262 140.281 126.411 140.299 126.55C140.317 126.686 140.462 126.807 140.48 126.945C140.498 127.081 140.684 127.197 140.702 127.335C140.72 127.471 140.694 127.614 140.712 127.752C140.73 127.889 140.66 128.038 140.678 128.176C140.696 128.313 140.581 128.467 140.599 128.605C140.617 128.742 140.905 128.844 140.924 128.982C140.942 129.118 140.847 129.271 140.865 129.409C140.883 129.544 140.923 129.678 140.941 129.815C140.959 129.951 140.834 130.107 140.852 130.244C140.87 130.38 140.914 130.513 140.932 130.65C140.95 130.786 140.966 130.923 140.984 131.061C141.002 131.197 140.956 131.342 140.974 131.479C140.992 131.615 141.333 131.71 141.351 131.847C141.369 131.983 141.331 132.127 141.349 132.265C141.367 132.401 141.327 132.545 141.345 132.682C141.363 132.819 141.412 132.952 141.43 133.089C141.448 133.225 141.434 133.366 141.452 133.504C141.47 133.64 141.521 133.772 141.539 133.91C141.557 134.046 141.452 134.199 141.47 134.336C141.488 134.473 141.482 134.613 141.5 134.75C141.518 134.887 141.531 135.024 141.549 135.162C141.567 135.298 141.627 135.43 141.645 135.567C141.663 135.704 141.584 135.853 141.602 135.991C141.619 136.128 141.873 136.234 141.891 136.371C141.909 136.508 141.82 136.659 141.838 136.796C141.856 136.933 141.869 137.071 141.887 137.208C141.905 137.345 141.976 137.475 141.994 137.613C142.012 137.749 142.091 137.879 142.108 138.016C142.126 138.153 142.038 138.304 142.056 138.441C142.074 138.578 142.035 138.723 142.053 138.86C142.071 138.997 141.979 139.148 141.997 139.286C142.015 139.423 142.061 139.556 142.079 139.694C142.097 139.83 142.145 139.964 142.163 140.101C142.181 140.238 142.123 140.385 142.141 140.523C142.159 140.66 142.481 140.758 142.499 140.895C142.517 141.033 142.484 141.176 142.502 141.314C142.519 141.451 142.329 141.615 142.346 141.752C142.364 141.889 142.487 142.013 142.505 142.151C142.523 142.288 142.466 142.435 142.484 142.572C142.502 142.709 142.689 142.825 142.706 142.962C142.724 143.099 142.663 143.245 142.68 143.383C142.698 143.52 142.705 143.658 142.723 143.795C142.74 143.932 142.724 144.073 142.742 144.211C142.759 144.348 142.688 144.496 142.705 144.633C142.723 144.77 142.904 144.887 142.921 145.024C142.939 145.161 142.78 145.321 142.798 145.458C142.815 145.595 142.911 145.723 142.928 145.86C142.946 145.997 142.937 146.138 142.955 146.275C142.972 146.412 143.096 146.536 143.114 146.674C143.131 146.811 143.086 146.956 143.104 147.094C143.121 147.231 143.235 147.356 143.253 147.494C143.27 147.631 143.218 147.777 143.235 147.915C143.253 148.052 143.375 148.176 143.392 148.314C143.41 148.451 143.505 148.579 143.522 148.716C143.539 148.854 143.289 149.024 143.307 149.162C143.324 149.299 143.283 149.444 143.301 149.581C143.318 149.719 143.635 149.819 143.653 149.956C143.67 150.094 143.438 150.262 143.455 150.4C143.472 150.538 143.691 150.65 143.708 150.788C143.725 150.925 143.534 151.089 143.551 151.227C143.569 151.364 143.562 151.505 143.579 151.643C143.596 151.78 143.847 151.889 143.864 152.027C143.881 152.165 143.745 152.321 143.762 152.459C143.78 152.597 143.793 152.735 143.81 152.873C143.827 153.011 144.04 153.125 144.057 153.263C144.074 153.401 143.861 153.567 143.878 153.705C143.895 153.843 143.962 153.975 143.979 154.113C143.996 154.251 144.05 154.384 144.067 154.522C144.085 154.66 144.117 154.796 144.134 154.934C144.151 155.072 144.005 155.23 144.022 155.367C144.039 155.505 144.172 155.629 144.189 155.767C144.206 155.905 144.224 156.043 144.241 156.18C144.257 156.318 144.374 156.444 144.391 156.582C144.408 156.72 144.366 156.865 144.383 157.003C144.4 157.141 144.329 157.29 144.346 157.427C144.363 157.566 144.322 157.71 144.339 157.848C144.356 157.986 144.555 158.102 144.571 158.24C144.588 158.378 144.489 158.53 144.505 158.668C144.522 158.806 144.71 158.924 144.727 159.062C144.743 159.2 144.521 159.367 144.538 159.504C144.555 159.643 144.549 159.783 144.565 159.921C144.582 160.059 144.899 160.162 144.916 160.3C144.932 160.438 144.865 160.586 144.882 160.724C144.898 160.862 144.796 161.014 144.813 161.152C144.829 161.29 145.015 161.408 145.032 161.546C145.048 161.685 145.113 161.817 145.129 161.955C145.146 162.093 145.066 162.243 145.083 162.381C145.099 162.519 145.006 162.67 145.023 162.808C145.039 162.946 145.144 163.074 145.161 163.212C145.177 163.35 145.054 163.504 145.07 163.642C145.086 163.781 145.035 163.927 145.051 164.065C145.067 164.203 145.089 164.34 145.105 164.478C145.121 164.617 145.439 164.72 145.455 164.858C145.471 164.996 145.433 165.141 145.449 165.278C145.466 165.417 145.45 165.559 145.466 165.697C145.482 165.835 145.552 165.967 145.568 166.105C145.584 166.243 145.637 166.377 145.653 166.515C145.669 166.654 145.591 166.803 145.607 166.94C145.623 167.079 145.622 167.219 145.638 167.357C145.654 167.495 145.817 167.617 145.832 167.755C145.848 167.893 145.657 168.055 145.673 168.193C145.689 168.331 145.587 168.482 145.602 168.62C145.618 168.759 145.629 168.897 145.644 169.035C145.66 169.174 145.861 169.291 145.876 169.429C145.892 169.568 146.009 169.694 146.025 169.832C146.04 169.971 145.781 170.139 145.796 170.277C145.812 170.416 145.961 170.539 145.977 170.677C145.992 170.815 145.913 170.964 145.928 171.101C145.943 171.24 146.063 171.367 146.078 171.504C146.093 171.643 146.114 171.78 146.129 171.918C146.144 172.057 146.302 172.179 146.317 172.317C146.332 172.456 146.134 172.617 146.149 172.754C146.164 172.893 146.117 173.038 146.132 173.175C146.147 173.314 146.414 173.425 146.428 173.563C146.443 173.701 146.302 173.856 146.317 173.993C146.332 174.132 146.302 174.275 146.317 174.412C146.331 174.551 146.38 174.685 146.395 174.823C146.409 174.961 146.423 175.099 146.438 175.237C146.452 175.375 146.488 175.511 146.502 175.648C146.517 175.787 146.383 175.94 146.397 176.077C146.411 176.216 146.69 176.327 146.704 176.464C146.718 176.603 146.527 176.762 146.541 176.899C146.555 177.038 146.532 177.179 146.546 177.316C146.559 177.455 146.599 177.59 146.613 177.727C146.627 177.866 146.777 177.99 146.79 178.127C146.804 178.266 146.814 178.404 146.827 178.541C146.841 178.68 146.745 178.828 146.758 178.965C146.772 179.104 146.833 179.237 146.846 179.374C146.859 179.513 147.025 179.636 147.038 179.773C147.051 179.912 146.857 180.069 146.869 180.205C146.882 180.344 146.873 180.484 146.885 180.62C146.898 180.759 147.118 180.879 147.13 181.015C147.142 181.155 147.071 181.3 147.083 181.436C147.095 181.576 147.022 181.721 147.034 181.858C147.046 181.998 146.991 182.142 147.002 182.279C147.014 182.419 147.32 182.533 147.332 182.67C147.343 182.81 147.122 182.967 147.133 183.103C147.144 183.243 147.35 183.366 147.361 183.502C147.372 183.642 147.393 183.78 147.403 183.916C147.413 184.056 147.403 184.195 147.413 184.331C147.423 184.471 147.22 184.624 147.229 184.759C147.238 184.9 147.274 185.036 147.283 185.171C147.292 185.312 147.347 185.447 147.355 185.582C147.363 185.724 147.423 185.859 147.43 185.994C147.437 186.135 147.573 186.267 147.579 186.402C147.586 186.544 147.522 186.685 147.527 186.819C147.533 186.962 147.356 187.107 147.36 187.24C147.364 187.384 147.605 187.517 147.607 187.649C147.61 187.794 147.642 187.934 147.643 188.065C147.643 188.212 147.576 188.352 147.573 188.48C147.57 188.631 147.446 188.851 147.438 188.974C147.636 189.035 147.671 188.724 147.879 188.724C148.087 188.724 148.087 188.868 148.294 188.868C148.502 188.868 148.502 188.834 148.71 188.834C148.918 188.834 148.918 188.744 149.126 188.744C149.333 188.744 149.333 188.907 149.541 188.907C149.749 188.907 149.749 188.977 149.956 188.977C150.164 188.977 150.164 188.776 150.372 188.776C150.579 188.776 150.579 189.043 150.787 189.043C150.994 189.043 150.994 188.91 151.202 188.91C151.409 188.91 151.409 189.042 151.616 189.042C151.824 189.042 151.824 188.788 152.031 188.788C152.238 188.788 152.238 188.75 152.446 188.75C152.653 188.75 152.653 189.001 152.86 189.001C153.068 189.001 153.068 188.747 153.275 188.747C153.482 188.747 153.482 188.829 153.69 188.829C153.897 188.829 153.897 188.746 154.104 188.746C154.312 188.746 154.312 188.892 154.519 188.892C154.727 188.892 154.727 188.762 154.934 188.762C155.142 188.762 155.142 189.065 155.349 189.065C155.557 189.065 155.557 188.959 155.765 188.959C155.973 188.959 155.973 189.007 156.18 189.007C156.388 189.007 156.388 188.728 156.596 188.728C156.804 188.728 156.804 188.988 157.012 188.988C157.22 188.988 157.22 188.921 157.428 188.921C157.635 188.921 157.635 188.762 157.843 188.762C158.051 188.762 158.051 189.002 158.258 189.002C158.466 189.002 158.466 188.866 158.674 188.866C158.881 188.866 158.881 188.957 159.089 188.957C159.296 188.957 159.296 188.901 159.504 188.901C159.711 188.901 159.711 188.983 159.919 188.983C160.126 188.983 160.126 188.819 160.334 188.819C160.542 188.819 160.542 188.953 160.749 188.953C160.957 188.953 160.957 188.88 161.165 188.88C161.373 188.88 161.373 188.746 161.581 188.746C161.789 188.746 161.789 188.786 161.997 188.786C162.205 188.786 162.205 188.899 162.413 188.899C162.62 188.899 162.62 188.817 162.828 188.817C163.036 188.817 163.036 188.901 163.244 188.901C163.452 188.901 163.452 188.924 163.659 188.924C163.867 188.924 163.867 188.825 164.075 188.825C164.282 188.825 164.282 188.76 164.49 188.76C164.698 188.76 164.698 189.065 164.906 189.065C165.113 189.065 165.113 188.759 165.321 188.759C165.529 188.759 165.529 188.813 165.737 188.813C165.945 188.813 165.945 188.792 166.153 188.792C166.361 188.792 166.361 189.041 166.569 189.041C166.777 189.041 166.777 188.864 166.985 188.864C167.193 188.864 167.193 188.837 167.401 188.837C167.609 188.837 167.609 188.731 167.817 188.731C168.024 188.731 168.024 188.848 168.232 188.848C168.44 188.848 168.44 188.791 168.648 188.791C168.856 188.791 168.856 188.731 169.064 188.731C169.272 188.731 169.272 188.817 169.48 188.817C169.688 188.817 169.688 188.878 169.896 188.878C170.103 188.878 170.103 188.926 170.311 188.926C170.518 188.926 170.518 188.757 170.725 188.757C170.932 188.757 170.932 188.736 171.14 188.736C171.347 188.736 171.347 188.792 171.554 188.792C171.761 188.792 171.761 188.929 171.969 188.929C172.176 188.929 172.176 188.962 172.384 188.962C172.591 188.962 172.591 188.849 172.799 188.849C173.007 188.849 173.007 188.91 173.215 188.91C173.423 188.91 173.423 189.013 173.632 189.013C173.84 189.013 173.84 188.851 174.048 188.851C174.255 188.851 174.255 188.849 174.463 188.849C174.671 188.849 174.671 188.811 174.879 188.811C175.086 188.811 175.086 188.845 175.294 188.845C175.502 188.845 175.502 188.728 175.71 188.728C175.918 188.728 175.918 188.778 176.126 188.778C176.335 188.778 176.335 189.023 176.543 189.023C176.751 189.023 176.751 188.913 176.959 188.913C177.167 188.913 177.167 188.95 177.375 188.95C177.583 188.95 177.583 189.04 177.791 189.04C178 189.04 178 188.76 178.208 188.76C178.417 188.76 178.417 188.783 178.625 188.783C178.833 188.783 178.833 188.812 179.041 188.812C179.25 188.812 179.25 189.049 179.458 189.049C179.667 189.049 179.667 188.747 179.875 188.747C180.083 188.747 180.083 188.867 180.292 188.867C180.499 188.867 180.499 189.04 180.707 189.04C180.914 189.04 180.914 188.901 181.122 188.901C181.331 188.901 181.331 188.932 181.54 188.932C181.748 188.932 181.748 189.048 181.956 189.048C182.164 189.048 182.164 189.05 182.373 189.05C182.582 189.05 182.582 188.781 182.791 188.781C182.999 188.781 182.999 189.054 183.208 189.054C183.417 189.054 183.417 189.039 183.626 189.039C183.835 189.039 183.835 188.94 184.044 188.94C184.253 188.94 184.253 188.732 184.462 188.732C184.671 188.732 184.671 188.929 184.88 188.929C185.09 188.929 185.09 188.75 185.299 188.75C185.509 188.75 185.484 188.853 185.682 188.784C185.88 188.716 185.544 188.824 185.41 188.581C185.355 188.479 185.497 188.246 185.422 188.102C185.364 187.991 185.245 187.896 185.176 187.759C185.117 187.644 184.937 187.578 184.871 187.444C184.813 187.326 184.763 187.195 184.7 187.063C184.642 186.943 184.539 186.837 184.477 186.705C184.42 186.584 184.318 186.477 184.257 186.345C184.201 186.223 184.22 186.061 184.161 185.93C184.106 185.807 184.05 185.679 183.993 185.548C183.938 185.424 183.936 185.272 183.879 185.141C183.825 185.017 183.834 184.861 183.778 184.73C183.725 184.605 183.493 184.551 183.438 184.419C183.385 184.293 183.619 184.047 183.565 183.915C183.513 183.789 183.195 183.767 183.142 183.635C183.091 183.508 183.078 183.363 183.026 183.231C182.975 183.104 183.103 182.904 183.051 182.773C183.001 182.645 182.824 182.564 182.773 182.432C182.724 182.303 182.62 182.193 182.57 182.061C182.522 181.932 182.535 181.779 182.486 181.646C182.438 181.517 182.359 181.397 182.311 181.265C182.264 181.136 182.168 181.021 182.121 180.889C182.074 180.759 181.975 180.646 181.928 180.513C181.882 180.383 181.972 180.204 181.926 180.071C181.88 179.94 181.666 179.866 181.62 179.733C181.575 179.603 181.565 179.458 181.52 179.325C181.476 179.194 181.403 179.071 181.359 178.938C181.315 178.807 181.326 178.656 181.282 178.522C181.238 178.391 181.45 178.176 181.406 178.043C181.364 177.912 181.137 177.839 181.095 177.706C181.053 177.575 181.005 177.444 180.963 177.311C180.922 177.18 180.891 177.044 180.85 176.91C180.809 176.778 180.73 176.657 180.689 176.523C180.649 176.391 180.615 176.256 180.574 176.122C180.535 175.99 180.588 175.829 180.548 175.695C180.509 175.562 180.343 175.466 180.304 175.331C180.265 175.199 180.19 175.075 180.151 174.94C180.112 174.808 180.144 174.653 180.106 174.518C180.068 174.385 179.962 174.27 179.925 174.135C179.887 174.002 180.038 173.815 180 173.68C179.963 173.546 179.968 173.401 179.931 173.266C179.895 173.132 179.826 173.006 179.789 172.871C179.753 172.737 179.67 172.615 179.634 172.479C179.599 172.345 179.433 172.244 179.397 172.108C179.362 171.974 179.301 171.845 179.266 171.709C179.231 171.575 179.453 171.375 179.419 171.24C179.385 171.106 179.09 171.036 179.056 170.901C179.022 170.766 179.144 170.593 179.11 170.457C179.077 170.322 179.052 170.185 179.019 170.049C178.986 169.914 178.814 169.812 178.781 169.676C178.748 169.541 178.942 169.352 178.91 169.215C178.878 169.08 178.708 168.976 178.676 168.84C178.645 168.704 178.697 168.549 178.665 168.412C178.634 168.277 178.706 168.118 178.676 167.982C178.645 167.847 178.331 167.774 178.301 167.637C178.271 167.502 178.333 167.345 178.303 167.208C178.273 167.072 178.311 166.92 178.282 166.783C178.252 166.647 178.208 166.513 178.179 166.375C178.15 166.239 178.165 166.093 178.136 165.956C178.107 165.82 178.023 165.694 177.995 165.556C177.966 165.42 177.802 165.31 177.774 165.172C177.746 165.034 177.959 164.847 177.932 164.708C177.904 164.572 177.587 164.493 177.56 164.358C177.532 164.221 177.585 164.069 177.557 163.933C177.529 163.797 177.44 163.673 177.412 163.538C177.383 163.401 177.417 163.253 177.388 163.117C177.359 162.981 177.394 162.832 177.365 162.696C177.335 162.56 177.415 162.401 177.386 162.265C177.356 162.129 177.402 161.977 177.372 161.842C177.342 161.706 177.281 161.576 177.251 161.442C177.22 161.306 177.047 161.202 177.017 161.067C176.986 160.931 177.098 160.763 177.067 160.628C177.036 160.493 177.012 160.355 176.981 160.221C176.949 160.085 176.75 159.989 176.719 159.854C176.687 159.719 176.526 159.615 176.494 159.48C176.462 159.345 176.465 159.202 176.432 159.068C176.399 158.932 176.47 158.773 176.438 158.639C176.404 158.503 176.39 158.364 176.356 158.23C176.323 158.095 176.424 157.927 176.39 157.793C176.356 157.658 176.103 157.579 176.069 157.446C176.034 157.311 176.221 157.12 176.186 156.987C176.151 156.851 175.967 156.755 175.932 156.621C175.896 156.485 175.896 156.342 175.861 156.208C175.825 156.073 175.875 155.915 175.839 155.781C175.803 155.646 175.488 155.587 175.452 155.454C175.415 155.319 175.685 155.101 175.648 154.968C175.611 154.834 175.334 154.766 175.296 154.633C175.259 154.499 175.3 154.343 175.263 154.21C175.225 154.076 175.061 153.979 175.023 153.846C174.984 153.712 174.955 153.576 174.917 153.444C174.878 153.31 175.03 153.122 174.991 152.99C174.952 152.856 174.98 152.703 174.941 152.572C174.901 152.438 174.816 152.319 174.776 152.187C174.736 152.054 174.66 151.932 174.62 151.801C174.58 151.667 174.357 151.591 174.317 151.46C174.275 151.327 174.387 151.148 174.346 151.017C174.304 150.884 174.2 150.772 174.159 150.641C174.117 150.508 174.068 150.378 174.026 150.247C173.983 150.113 174.008 149.96 173.965 149.829C173.922 149.696 173.757 149.604 173.714 149.474C173.671 149.342 173.664 149.199 173.62 149.069C173.576 148.937 173.761 148.729 173.717 148.6C173.673 148.468 173.54 148.367 173.496 148.237C173.45 148.105 173.352 147.993 173.307 147.864C173.261 147.732 173.307 147.569 173.262 147.44C173.215 147.309 173.048 147.221 173.002 147.093C172.955 146.962 172.884 146.841 172.837 146.713C172.79 146.581 172.717 146.462 172.671 146.334C172.623 146.203 172.576 146.074 172.529 145.947C172.481 145.817 172.471 145.673 172.426 145.543C172.381 145.412 172.447 145.245 172.405 145.114C172.363 144.982 172.41 144.827 172.371 144.694C172.332 144.562 172.002 144.511 171.966 144.378C171.93 144.245 172.103 144.058 172.07 143.924C172.037 143.79 171.763 143.71 171.733 143.576C171.703 143.441 172.006 143.237 171.979 143.102C171.952 142.966 171.598 142.891 171.574 142.756C171.55 142.62 171.791 142.44 171.77 142.304C171.75 142.167 171.735 142.032 171.717 141.895C171.7 141.758 171.594 141.633 171.579 141.496C171.565 141.359 171.531 141.223 171.519 141.086C171.508 140.948 171.384 140.817 171.376 140.68C171.368 140.542 171.36 140.401 171.355 140.263C171.35 140.126 171.551 139.982 171.549 139.844C171.547 139.706 171.463 139.569 171.464 139.431C171.465 139.293 171.44 139.155 171.444 139.017C171.449 138.879 171.403 138.737 171.411 138.6C171.418 138.462 171.484 138.327 171.495 138.189C171.506 138.052 171.662 137.928 171.676 137.791C171.69 137.654 171.728 137.522 171.745 137.385C171.762 137.248 171.696 137.102 171.717 136.966C171.737 136.83 171.569 136.662 171.592 136.526C171.615 136.39 171.881 136.298 171.908 136.163C171.934 136.027 172.022 135.908 172.052 135.773C172.081 135.638 171.9 135.457 171.933 135.322C171.966 135.188 172.114 135.084 172.15 134.951C172.185 134.817 172.166 134.67 172.205 134.537C172.244 134.405 172.347 134.293 172.389 134.162C172.431 134.03 172.422 133.883 172.467 133.753C172.512 133.622 172.384 133.429 172.432 133.3C172.48 133.17 172.549 133.045 172.6 132.917C172.651 132.788 172.821 132.706 172.875 132.579C172.928 132.452 173.089 132.369 173.144 132.24C173.198 132.113 173.148 131.941 173.203 131.812C173.256 131.685 173.27 131.54 173.325 131.411C173.379 131.284 173.408 131.145 173.463 131.016C173.516 130.889 173.566 130.76 173.621 130.63C173.674 130.503 173.937 130.463 173.991 130.333C174.045 130.206 174.031 130.05 174.086 129.921C174.139 129.794 174.22 129.677 174.274 129.548C174.328 129.421 174.311 129.263 174.366 129.134C174.419 129.007 174.596 128.93 174.65 128.801C174.704 128.674 174.724 128.532 174.778 128.403C174.832 128.275 174.687 128.064 174.742 127.935C174.795 127.808 174.795 127.658 174.849 127.529C174.903 127.401 175.1 127.333 175.154 127.204C175.208 127.077 175.308 126.968 175.362 126.839C175.416 126.712 175.396 126.553 175.45 126.424C175.503 126.297 175.539 126.162 175.593 126.034C175.646 125.908 175.689 125.776 175.742 125.648C175.796 125.521 175.779 125.364 175.833 125.236C175.886 125.109 176.004 125.008 176.058 124.88C176.111 124.753 176.139 124.615 176.192 124.487C176.246 124.36 176.549 124.336 176.603 124.208C176.656 124.081 176.62 123.916 176.674 123.788C176.727 123.661 176.837 123.557 176.891 123.429C176.944 123.302 176.769 123.079 176.822 122.951C176.876 122.823 177.101 122.767 177.155 122.639C177.208 122.512 177.029 122.288 177.083 122.159C177.136 122.032 177.26 121.933 177.314 121.805C177.367 121.678 177.456 121.565 177.509 121.437C177.563 121.309 177.711 121.221 177.765 121.092C177.818 120.965 177.913 120.854 177.967 120.726C178.02 120.599 177.861 120.383 177.915 120.255C177.968 120.127 178.126 120.042 178.179 119.914C178.232 119.786 178.383 119.699 178.437 119.571C178.49 119.443 178.492 119.294 178.546 119.165C178.599 119.038 178.602 118.889 178.655 118.76C178.708 118.633 178.939 118.578 178.993 118.45C179.046 118.322 178.889 118.107 178.942 117.979C178.996 117.851 179.037 117.718 179.091 117.59C179.144 117.462 179.272 117.364 179.325 117.236C179.378 117.108 179.328 116.937 179.381 116.809C179.435 116.681 179.758 116.664 179.811 116.535C179.864 116.408 179.884 116.266 179.937 116.137C179.99 116.009 179.972 115.851 180.025 115.723C180.078 115.595 180.166 115.481 180.219 115.352C180.272 115.224 180.119 115.011 180.172 114.882C180.225 114.754 180.434 114.69 180.487 114.562C180.54 114.433 180.458 114.249 180.511 114.121C180.564 113.993 180.607 113.86 180.661 113.732C180.714 113.604 180.961 113.555 181.015 113.426C181.068 113.298 181.037 113.135 181.09 113.007C181.143 112.879 181.285 112.787 181.338 112.658C181.391 112.53 181.238 112.317 181.291 112.188C181.344 112.06 181.622 112.024 181.675 111.895C181.728 111.767 181.646 111.584 181.699 111.455C181.751 111.327 181.668 111.144 181.721 111.015C181.774 110.887 182.109 110.874 182.162 110.746C182.215 110.618 182.001 110.381 182.054 110.252C182.106 110.124 182.435 110.108 182.488 109.98C182.54 109.852 182.56 109.71 182.613 109.581C182.665 109.453 182.735 109.332 182.788 109.203C182.841 109.075 182.898 108.948 182.951 108.82C183.004 108.692 182.893 108.497 182.946 108.368C182.999 108.24 182.982 108.083 183.035 107.954C183.087 107.826 183.416 107.81 183.469 107.681C183.521 107.553 183.542 107.411 183.594 107.282C183.647 107.154 183.586 106.979 183.639 106.85C183.691 106.722 183.687 106.57 183.739 106.441C183.792 106.313 183.832 106.179 183.885 106.05C183.937 105.922 184.085 105.832 184.138 105.703C184.191 105.574 184.167 105.415 184.22 105.286C184.272 105.157 184.214 104.984 184.267 104.855C184.319 104.726 184.507 104.652 184.56 104.523C184.612 104.395 184.636 104.255 184.688 104.126C184.741 103.997 184.781 103.864 184.833 103.735C184.886 103.606 185.128 103.554 185.18 103.425C185.233 103.297 185.109 103.096 185.161 102.968C185.214 102.839 185.292 102.72 185.345 102.592C185.397 102.463 185.406 102.316 185.458 102.187C185.511 102.058 185.76 102.009 185.812 101.88C185.865 101.751 185.847 101.594 185.899 101.465C185.952 101.336 185.97 101.193 186.023 101.064C186.075 100.935 186.033 100.768 186.086 100.639C186.138 100.51 186.289 100.42 186.342 100.291C186.394 100.162 186.255 99.9558 186.307 99.8266C186.359 99.6974 186.563 99.6289 186.615 99.4997C186.667 99.3704 186.813 99.2784 186.865 99.1492C186.917 99.0199 186.786 98.817 186.838 98.6877C186.89 98.5584 186.971 98.4406 187.024 98.3112C187.076 98.1818 187.19 98.0772 187.242 97.9478C187.294 97.8184 187.454 97.732 187.506 97.6026C187.559 97.4731 187.456 97.2818 187.508 97.1523C187.56 97.0228 187.823 96.9773 187.875 96.8478C187.927 96.7183 187.789 96.5129 187.841 96.3834C187.893 96.2537 187.974 96.1357 188.026 96.0062C188.079 95.8765 188.288 95.8094 188.34 95.6799C188.392 95.5502 188.137 95.2986 188.189 95.169C188.241 95.0393 188.425 94.9619 188.477 94.8323C188.529 94.7025 188.76 94.6438 188.812 94.5141C188.863 94.3846 188.732 94.1824 188.784 94.053C188.836 93.9234 188.843 93.7766 188.895 93.6472C188.947 93.5176 188.915 93.355 188.967 93.2256C189.019 93.096 189.075 92.9685 189.127 92.839C189.178 92.7094 189.223 92.5771 189.274 92.4476C189.326 92.3179 189.475 92.2269 189.527 92.0975C189.578 91.9678 189.822 91.9138 189.873 91.7843C189.925 91.6545 189.889 91.4906 189.941 91.3611C189.992 91.2313 189.928 91.0561 189.979 90.9265C190.031 90.7968 190.142 90.6906 190.193 90.5611C190.245 90.4313 190.43 90.3543 190.481 90.2247C190.533 90.0949 190.596 89.9697 190.647 89.8402C190.698 89.7103 190.486 89.4771 190.537 89.3475C190.588 89.2176 190.597 89.0713 190.648 88.9417C190.699 88.8118 191.032 88.792 191.083 88.6624C191.134 88.5324 191.1 88.3696 191.151 88.24C191.203 88.11 191.067 87.9072 191.117 87.7776C191.169 87.6476 191.217 87.5167 191.268 87.3871C191.319 87.257 191.52 87.1856 191.571 87.056C191.621 86.9259 191.818 86.8528 191.869 86.7231C191.92 86.593 191.938 86.4501 191.988 86.3204C192.039 86.1903 191.963 86.0113 192.014 85.8816C192.065 85.7514 192.295 85.691 192.346 85.5613C192.396 85.4311 192.185 85.1999 192.236 85.0702C192.286 84.94 192.513 84.8778 192.563 84.7481C192.614 84.6178 192.488 84.4201 192.539 84.2904C192.589 84.1601 192.775 84.0823 192.826 83.9526C192.876 83.8223 192.737 83.6196 192.787 83.4898C192.838 83.3595 193.007 83.275 193.057 83.1452C193.107 83.0149 193.088 82.8582 193.138 82.7284C193.188 82.5981 193.185 82.4476 193.235 82.3178C193.285 82.1874 193.462 82.1057 193.512 81.9759C193.562 81.8454 193.744 81.7658 193.794 81.636C193.844 81.5055 193.73 81.313 193.78 81.1832C193.83 81.0527 193.931 80.9419 193.98 80.812C194.03 80.6815 194.129 80.5701 194.179 80.4403C194.229 80.3097 194.244 80.1667 194.294 80.0368C194.344 79.9062 194.487 79.8115 194.537 79.6817C194.586 79.551 194.606 79.4094 194.655 79.2795C194.704 79.1488 194.584 78.955 194.633 78.8251C194.683 78.6944 194.723 78.5609 194.772 78.431C194.821 78.3002 194.926 78.1909 194.975 78.061C195.024 77.9303 195.178 77.8388 195.226 77.7089C195.276 77.5781 195.435 77.4886 195.483 77.3587C195.532 77.2278 195.541 77.0826 195.59 76.9527C195.639 76.8211 195.467 76.6082 195.515 76.4776C195.564 76.346 195.801 76.2841 195.849 76.1535C195.898 76.0219 195.785 75.8314 195.833 75.7008C195.882 75.5692 195.906 75.4293 195.954 75.2988C196.003 75.1671 196.27 75.1159 196.318 74.9854C196.366 74.8537 196.137 74.6216 196.185 74.491C196.233 74.3593 196.388 74.2672 196.436 74.1367C196.484 74.0049 196.612 73.9028 196.659 73.7723C196.707 73.6406 196.657 73.4745 196.705 73.344C196.752 73.2122 196.93 73.1277 196.977 72.9973C197.024 72.8655 196.924 72.6818 196.971 72.5514C197.019 72.4196 197.218 72.3426 197.265 72.2123C197.312 72.0804 197.274 71.9195 197.321 71.7891C197.368 71.6572 197.417 71.5271 197.463 71.3968C197.51 71.2649 197.448 71.096 197.494 70.9657C197.541 70.8338 197.753 70.7606 197.799 70.6304C197.845 70.4984 197.699 70.3009 197.744 70.1707C197.79 70.0386 197.963 69.9515 198.008 69.8214C198.054 69.6893 197.985 69.5192 198.03 69.3891C198.075 69.257 198.298 69.1865 198.343 69.0565C198.388 68.9243 198.348 68.7645 198.392 68.6345C198.437 68.5021 198.504 68.3787 198.548 68.2486C198.593 68.116 198.718 68.0115 198.762 67.8813C198.806 67.7479 198.939 67.6447 198.982 67.5138C199.026 67.3804 199.054 67.2428 199.097 67.1121C199.14 66.9788 199.213 66.8558 199.255 66.7254C199.298 66.592 199.043 66.3652 199.084 66.2349C199.127 66.1015 199.393 66.0405 199.434 65.9103C199.477 65.7764 199.502 65.6389 199.542 65.5086C199.584 65.374 199.588 65.2295 199.628 65.0987C199.669 64.9644 199.617 64.8049 199.656 64.6748C199.697 64.54 199.828 64.4345 199.866 64.3042C199.906 64.1694 199.912 64.0275 199.949 63.8976C199.988 63.7623 200.113 63.6541 200.15 63.5243C200.188 63.3857 199.988 63.1929 200.016 63.0533C200.045 62.9125 200.13 62.7895 200.148 62.6481C200.166 62.5057 200.391 62.3808 200.399 62.2383C200.407 62.0951 200.13 61.9469 200.127 61.8042C200.125 61.6609 200.4 61.5042 200.388 61.3619C200.375 61.2192 200.313 61.0747 200.29 60.9336C200.268 60.7922 199.981 60.7053 199.949 60.566C199.916 60.4267 200.214 60.1985 200.171 60.0618C200.129 59.9252 199.778 59.8943 199.726 59.7609C199.675 59.6277 199.614 59.5097 199.553 59.3803C199.491 59.2511 199.53 59.0784 199.459 58.9535C199.389 58.8291 199.423 58.6394 199.343 58.5197C199.265 58.4007 199.072 58.3603 198.984 58.2465C198.897 58.1334 198.829 58.0074 198.733 57.9C198.638 57.7934 198.627 57.6018 198.524 57.5014Z" fill="white"/>
<path d="M113.609 117.297C113.469 117.141 113.503 117.155 113.263 117.028C113.159 116.973 113.036 116.899 112.891 116.827C112.777 116.77 112.672 116.657 112.534 116.592C112.415 116.536 112.212 116.636 112.076 116.575C111.954 116.521 111.789 116.549 111.654 116.492C111.53 116.439 111.466 116.227 111.332 116.174C111.205 116.123 111.091 116.025 110.956 115.974C110.828 115.926 110.71 115.832 110.574 115.784C110.444 115.738 110.246 115.878 110.11 115.833C109.979 115.789 109.906 115.554 109.769 115.512C109.637 115.471 109.436 115.649 109.299 115.61C109.166 115.572 109.076 115.367 108.938 115.331C108.804 115.295 108.651 115.318 108.512 115.285C108.377 115.253 108.201 115.395 108.062 115.365C107.926 115.336 107.783 115.352 107.643 115.325C107.506 115.299 107.372 115.276 107.232 115.252C107.094 115.229 106.962 115.186 106.822 115.167C106.684 115.147 106.549 115.123 106.408 115.107C106.269 115.09 106.159 114.785 106.018 114.772C105.879 114.76 105.723 114.921 105.582 114.912C105.443 114.903 105.306 114.796 105.165 114.791C105.025 114.786 104.881 114.962 104.739 114.961C104.599 114.96 104.457 114.801 104.316 114.804C104.176 114.808 104.039 114.909 103.897 114.916C103.758 114.924 103.609 114.829 103.469 114.841C103.329 114.853 103.211 115.075 103.071 115.091C102.932 115.108 102.771 114.955 102.631 114.976C102.492 114.997 102.358 115.051 102.219 115.077C102.081 115.102 101.934 115.093 101.796 115.123C101.66 115.154 101.559 115.333 101.422 115.368C101.287 115.404 101.096 115.243 100.96 115.283C100.826 115.323 100.682 115.348 100.548 115.393C100.415 115.438 100.27 115.462 100.137 115.512C100.007 115.562 99.8647 115.601 99.7342 115.656C99.6054 115.71 99.5784 115.999 99.45 116.058C99.3233 116.117 99.1004 115.983 98.9742 116.047C98.8498 116.111 98.8693 116.443 98.7455 116.512C98.6234 116.579 98.3303 116.356 98.209 116.429C98.0895 116.501 98.1131 116.804 97.9944 116.881C97.8777 116.957 97.7727 117.046 97.6568 117.127C97.5429 117.208 97.4442 117.303 97.3312 117.389C97.2201 117.473 97.0298 117.455 96.9197 117.545C96.8114 117.632 96.6361 117.645 96.5289 117.738C96.4237 117.83 96.4122 118.028 96.3081 118.124C96.2057 118.219 96.0388 118.249 95.9376 118.348C95.8383 118.446 95.6934 118.505 95.5952 118.608C95.501 118.706 95.4044 118.808 95.3101 118.911C95.2181 119.012 95.2768 119.249 95.1846 119.354C95.0945 119.457 94.8563 119.435 94.7661 119.541C94.6779 119.645 94.7622 119.894 94.6738 120.001C94.5873 120.107 94.4158 120.146 94.3292 120.255C94.2442 120.362 94.1771 120.484 94.0921 120.594C94.0086 120.703 93.8951 120.79 93.8116 120.901C93.7295 121.01 93.7551 121.199 93.673 121.312C93.5922 121.422 93.5423 121.554 93.4615 121.667C93.382 121.779 93.0919 121.744 93.0124 121.858C92.9341 121.971 92.9845 122.172 92.9062 122.287C92.829 122.4 92.6272 122.432 92.55 122.547C92.4738 122.661 92.4215 122.793 92.3454 122.909C92.2703 123.024 92.1121 123.087 92.037 123.204C91.9628 123.319 92.1152 123.579 92.041 123.697C91.9677 123.813 91.6593 123.784 91.586 123.902C91.5136 124.018 91.5298 124.191 91.4574 124.31C91.3857 124.427 91.2621 124.514 91.1905 124.633C91.1197 124.751 91.011 124.848 90.9402 124.967C90.8701 125.086 90.874 125.249 90.804 125.368C90.7346 125.487 90.6458 125.596 90.5765 125.716C90.5077 125.835 90.4688 125.972 90.4001 126.093C90.3321 126.213 90.2967 126.351 90.2287 126.472C90.1612 126.592 90.1486 126.743 90.0812 126.864C90.0144 126.985 90.0083 127.138 89.9415 127.26C89.8752 127.381 89.6924 127.438 89.6261 127.56C89.5604 127.681 89.5443 127.829 89.4786 127.951C89.4134 128.073 89.2618 128.149 89.1966 128.271C89.1319 128.393 89.0256 128.493 88.9609 128.616C88.897 128.737 89.0791 128.987 89.0152 129.109C88.9517 129.231 88.8433 129.329 88.7799 129.452C88.7168 129.574 88.4177 129.576 88.3547 129.699C88.2921 129.821 88.3891 130.025 88.3265 130.148C88.2643 130.27 88.1906 130.387 88.1284 130.511C88.0666 130.633 87.941 130.725 87.8793 130.849C87.8178 130.972 87.7582 131.096 87.6968 131.22C87.6357 131.343 87.7204 131.538 87.6594 131.662C87.5987 131.785 87.2936 131.79 87.2329 131.915C87.1725 132.038 87.2303 132.22 87.17 132.344C87.1099 132.468 87.0349 132.585 86.9748 132.71C86.9151 132.834 86.9134 132.986 86.8537 133.11C86.7943 133.235 86.6745 133.331 86.6151 133.456C86.5559 133.58 86.6443 133.774 86.5852 133.899C86.5263 134.024 86.499 134.163 86.4401 134.288C86.3815 134.413 86.0668 134.419 86.0083 134.544C85.9499 134.669 85.9652 134.829 85.907 134.954C85.8489 135.079 85.873 135.243 85.815 135.368C85.7571 135.493 85.7587 135.646 85.701 135.772C85.6434 135.897 85.6181 136.037 85.5606 136.163C85.5033 136.288 85.4548 136.418 85.3975 136.544C85.3405 136.669 85.1259 136.724 85.069 136.85C85.0122 136.975 84.8363 137.048 84.7796 137.174C84.723 137.299 84.9581 137.555 84.9016 137.681C84.8452 137.807 84.7537 137.917 84.6974 138.043C84.6412 138.169 84.4712 138.245 84.415 138.371C84.359 138.497 84.1687 138.565 84.1128 138.691C84.0569 138.817 84.0764 138.977 84.0207 139.104C83.965 139.23 83.9414 139.37 83.8858 139.497C83.8302 139.624 83.7949 139.759 83.7395 139.886C83.6841 140.012 83.619 140.135 83.5638 140.262C83.5085 140.388 83.3292 140.462 83.2741 140.589C83.219 140.715 83.2085 140.861 83.1536 140.988C83.0987 141.115 83.0508 141.245 82.996 141.372C82.9412 141.499 83.0156 141.681 82.9609 141.809C82.9062 141.936 82.9558 142.107 82.9012 142.234C82.8466 142.362 82.5895 142.403 82.5351 142.53C82.4806 142.657 82.5961 142.857 82.5418 142.984C82.4874 143.112 82.3756 143.215 82.3214 143.342C82.2671 143.47 82.234 143.606 82.1799 143.734C82.1257 143.861 81.9677 143.945 81.9137 144.073C81.8596 144.201 81.9622 144.394 81.9083 144.522C81.8543 144.65 81.7425 144.753 81.6887 144.881C81.6348 145.009 81.5942 145.142 81.5404 145.27C81.4865 145.398 81.3709 145.5 81.3172 145.628C81.2634 145.756 81.0918 145.835 81.0382 145.963C80.9845 146.091 81.0458 146.267 80.9923 146.395C80.9386 146.523 80.7381 146.59 80.6847 146.718C80.6311 146.846 80.7456 147.044 80.6922 147.172C80.6387 147.3 80.4397 147.368 80.3864 147.497C80.3329 147.625 80.2415 147.737 80.1882 147.865C80.1348 147.994 80.3049 148.214 80.2516 148.342C80.1983 148.471 80.2028 148.623 80.1495 148.751C80.0962 148.879 80.0595 149.014 80.0063 149.142C79.953 149.271 79.8276 149.369 79.7745 149.498C79.7212 149.626 79.4684 149.672 79.4153 149.8C79.362 149.929 79.2721 150.042 79.219 150.17C79.1658 150.298 79.2763 150.494 79.2232 150.622C79.17 150.75 79.0455 150.849 78.9924 150.977C78.9392 151.106 78.9913 151.277 78.9383 151.405C78.8851 151.534 78.7738 151.638 78.7207 151.766C78.6675 151.894 78.7219 152.067 78.6689 152.195C78.6157 152.323 78.3988 152.384 78.3458 152.512C78.2926 152.64 78.1839 152.745 78.1308 152.873C78.0776 153.001 78.2856 153.237 78.2326 153.365C78.1794 153.493 78.1564 153.633 78.1034 153.761C78.0501 153.889 77.9173 153.984 77.8642 154.112C77.8109 154.24 77.5881 154.298 77.535 154.426C77.4816 154.554 77.393 154.667 77.3398 154.794C77.2865 154.922 77.4054 155.121 77.3522 155.249C77.2988 155.377 77.1432 155.462 77.09 155.589C77.0365 155.717 77.1369 155.908 77.0837 156.035C77.0301 156.163 76.9683 156.287 76.9149 156.414C76.8613 156.542 76.7833 156.659 76.7299 156.786C76.6762 156.914 76.4417 156.965 76.3882 157.092C76.3344 157.219 76.3836 157.39 76.33 157.516C76.2759 157.644 76.2432 157.781 76.1893 157.908C76.1351 158.036 76.1555 158.194 76.1015 158.321C76.0472 158.449 75.8003 158.494 75.7462 158.621C75.6918 158.748 75.6985 158.901 75.6444 159.027C75.5899 159.154 75.6516 159.33 75.5974 159.456C75.5428 159.583 75.5555 159.738 75.5012 159.863C75.4462 159.991 75.3082 160.082 75.2535 160.208C75.1985 160.334 75.2333 160.499 75.1786 160.624C75.1233 160.751 75.001 160.848 74.946 160.974C74.891 161.099 74.866 161.237 74.8114 161.361C74.7547 161.489 74.4478 161.508 74.3915 161.636C74.3348 161.764 74.4565 161.97 74.4002 162.098C74.3436 162.226 74.3151 162.367 74.2588 162.494C74.2023 162.623 74.1645 162.759 74.1083 162.887C74.0518 163.015 74.0487 163.167 73.9925 163.294C73.936 163.423 73.648 163.45 73.5918 163.578C73.5354 163.706 73.4879 163.838 73.4319 163.966C73.3755 164.095 73.2864 164.208 73.2304 164.336C73.174 164.465 73.2209 164.638 73.165 164.765C73.1087 164.894 72.9713 164.987 72.9154 165.115C72.8592 165.243 72.7985 165.369 72.7427 165.497C72.6865 165.626 72.7299 165.797 72.6742 165.925C72.6181 166.053 72.4628 166.138 72.4071 166.266C72.3511 166.395 72.4271 166.58 72.3714 166.708C72.3155 166.836 72.0837 166.889 72.0282 167.016C71.9723 167.145 71.9485 167.287 71.8931 167.415C71.8373 167.544 71.8052 167.682 71.7498 167.81C71.6941 167.938 71.644 168.069 71.5887 168.197C71.5331 168.325 71.6555 168.53 71.6003 168.658C71.5448 168.786 71.4203 168.885 71.3653 169.013C71.3099 169.142 71.3054 169.292 71.2505 169.419C71.1952 169.548 71.1457 169.679 71.0909 169.807C71.0358 169.935 71.0615 170.098 71.0069 170.226C70.9518 170.355 70.8508 170.463 70.7963 170.591C70.7414 170.72 70.4293 170.74 70.3749 170.868C70.3201 170.997 70.4428 171.2 70.3886 171.328C70.3339 171.457 70.414 171.642 70.3599 171.77C70.3054 171.899 69.9692 171.909 69.9153 172.037C69.861 172.166 69.8294 172.304 69.7756 172.432C69.7214 172.561 69.8248 172.755 69.7713 172.883C69.7172 173.013 69.7505 173.177 69.6972 173.305C69.6433 173.434 69.4617 173.51 69.4086 173.638C69.3549 173.767 69.4284 173.948 69.3754 174.076C69.322 174.206 69.2393 174.322 69.1866 174.45C69.1333 174.58 68.871 174.623 68.8185 174.751C68.7655 174.881 68.7417 175.022 68.6895 175.15C68.6367 175.28 68.586 175.409 68.534 175.538C68.4815 175.667 68.5349 175.839 68.4832 175.967C68.4309 176.097 68.3209 176.203 68.2695 176.331C68.2175 176.461 68.1949 176.601 68.1438 176.73C68.0921 176.86 68.1422 177.029 68.0914 177.157C68.04 177.287 67.9879 177.416 67.9375 177.544C67.8864 177.675 67.7673 177.777 67.7172 177.906C67.6665 178.036 67.7074 178.2 67.6577 178.329C67.6074 178.459 67.3761 178.52 67.3269 178.649C67.2769 178.779 67.1901 178.895 67.1413 179.024C67.0918 179.154 67.0107 179.273 66.9624 179.402C66.9133 179.532 66.8298 179.65 66.782 179.779C66.7334 179.91 66.7947 180.081 66.7474 180.21C66.6989 180.342 66.7893 180.523 66.7421 180.653C66.6942 180.786 66.5506 180.882 66.5042 181.013C66.4569 181.145 66.2508 181.221 66.205 181.351C66.1583 181.484 66.1671 181.635 66.1221 181.766C66.0761 181.898 66.209 182.091 66.1647 182.221C66.1195 182.354 66.0427 182.475 65.9993 182.605C65.9549 182.738 65.7534 182.819 65.7109 182.949C65.6675 183.083 65.8193 183.277 65.7778 183.408C65.7353 183.541 65.5009 183.614 65.4605 183.744C65.4191 183.878 65.4498 184.033 65.4106 184.164C65.3702 184.298 65.2092 184.396 65.1712 184.527C65.1321 184.662 65.1064 184.801 65.0697 184.932C65.0319 185.068 65.0908 185.229 65.0557 185.36C65.0195 185.497 64.9364 185.619 64.9031 185.751C64.8685 185.888 64.8161 186.02 64.7847 186.153C64.7522 186.29 64.9105 186.468 64.8815 186.6C64.8513 186.738 64.6044 186.83 64.578 186.962C64.5503 187.101 64.6844 187.269 64.661 187.402C64.6365 187.542 64.5219 187.664 64.5021 187.797C64.4812 187.938 64.6216 188.097 64.6061 188.23C64.5897 188.371 64.578 188.506 64.5678 188.639C64.5569 188.781 64.577 188.816 64.5733 188.948C64.7117 188.948 64.7545 189.054 64.895 189.054C65.0335 189.054 65.1729 188.975 65.3134 188.975C65.4511 188.975 65.5897 189.128 65.7292 189.128C65.867 189.128 66.0057 189.063 66.1452 189.063C66.2831 189.063 66.4218 189.068 66.5613 189.068C66.6993 189.068 66.838 189.017 66.9776 189.017C67.1156 189.017 67.2544 188.985 67.3939 188.985C67.532 188.985 67.6708 189.009 67.8104 189.009C67.9485 189.009 68.0874 189.026 68.2269 189.026C68.3652 189.026 68.5041 189.137 68.6436 189.137C68.7819 189.137 68.9209 188.871 69.0604 188.871C69.1988 188.871 69.3377 188.994 69.4773 188.994C69.6157 188.994 69.7547 189.007 69.8943 189.007C70.0327 189.007 70.1718 189.164 70.3113 189.164C70.4499 189.164 70.5889 188.946 70.7285 188.946C70.8671 188.946 71.0062 189.139 71.1457 189.139C71.2844 189.139 71.4235 188.92 71.5631 188.92C71.7018 188.92 71.8409 189.2 71.9805 189.2C72.1192 189.2 72.2584 189.192 72.398 189.192C72.5368 189.192 72.676 189.136 72.8155 189.136C72.9544 189.136 73.0936 188.995 73.2332 188.995C73.3721 188.995 73.5113 189.1 73.6509 189.1C73.7898 189.1 73.9291 189.091 74.0687 189.091C74.2076 189.091 74.3469 189.192 74.4865 189.192C74.6255 189.192 74.7648 188.902 74.9045 188.902C75.0435 188.902 75.1828 188.946 75.3224 188.946C75.4615 188.946 75.6009 188.873 75.7405 188.873C75.8796 188.873 76.019 188.87 76.1586 188.87C76.2977 188.87 76.4371 189.04 76.5767 189.04C76.7155 189.04 76.8545 189.206 76.9937 189.206C77.1325 189.206 77.2716 189.107 77.4108 189.107C77.5497 189.107 77.6888 189.109 77.8281 189.109C77.967 189.109 78.1062 188.947 78.2455 188.947C78.3845 188.947 78.5237 189.051 78.663 189.051C78.8021 189.051 78.9413 189.113 79.0807 189.113C79.2199 189.113 79.3591 189.111 79.4986 189.111C79.6377 189.111 79.7771 189.18 79.9165 189.18C80.0557 189.18 80.1951 188.911 80.3346 188.911C80.4739 188.911 80.6133 189.066 80.7528 189.066C80.8921 189.066 81.0315 189.025 81.1711 189.025C81.3103 189.025 81.4496 189.139 81.5889 189.139C81.7282 189.139 81.8676 189.055 82.0071 189.055C82.1464 189.055 82.2859 188.877 82.4254 188.877C82.5649 188.877 82.7044 189.077 82.844 189.077C82.9836 189.077 83.1232 188.967 83.2628 188.967C83.4025 188.967 83.5421 189.218 83.6818 189.218C83.8216 189.218 83.9613 189.071 84.1011 189.071C84.2409 189.071 84.3807 189.004 84.5205 189.004C84.6604 189.004 84.8003 189.044 84.9401 189.044C85.0801 189.044 85.22 189.164 85.3599 189.164C85.5 189.164 85.64 189.203 85.7799 189.203C85.9198 189.203 86.0596 189.015 86.1993 189.015C86.3392 189.015 86.4791 189.206 86.6188 189.206C86.7587 189.206 86.8986 189.208 87.0383 189.208C87.1783 189.208 87.3182 189.05 87.4579 189.05C87.5979 189.05 87.7378 189.105 87.8776 189.105C88.0176 189.105 88.1575 188.985 88.2973 188.985C88.4374 188.985 88.5773 189.197 88.7171 189.197C88.8572 189.197 88.9971 189.171 89.1369 189.171C89.277 189.171 89.417 188.993 89.5568 188.993C89.6969 188.993 89.8369 188.876 89.9767 188.876C90.1168 188.876 90.2568 189.183 90.3966 189.183C90.5368 189.183 90.6768 189.016 90.8166 189.016C90.9568 189.016 91.0968 189.029 91.2366 189.029C91.3768 189.029 91.5168 188.976 91.6566 188.976C91.7969 188.976 91.9369 188.889 92.0767 188.889C92.217 188.889 92.357 189.056 92.4968 189.056C92.6371 189.056 92.7771 189.065 92.9169 189.065C93.0572 189.065 93.1973 188.902 93.337 188.902C93.4774 188.902 93.6174 189.192 93.7572 189.192C93.8975 189.192 94.0376 189.118 94.1773 189.118C94.3177 189.118 94.4578 189.148 94.5975 189.148C94.7379 189.148 94.8779 189.199 95.0176 189.199C95.158 189.199 95.2981 189.212 95.4378 189.212C95.5782 189.212 95.7182 189.037 95.8579 189.037C95.9983 189.037 96.1384 189.041 96.278 189.041C96.4185 189.041 96.5585 188.987 96.6981 188.987C96.8386 188.987 96.9786 188.916 97.1182 188.916C97.2587 188.916 97.3987 189.116 97.5383 189.116C97.6788 189.116 97.8188 189.015 97.9583 189.015C98.0988 189.015 98.2388 189.206 98.3783 189.206C98.5188 189.206 98.6588 189.069 98.7982 189.069C98.9388 189.069 99.0788 189.087 99.2182 189.087C99.3587 189.087 99.4987 188.913 99.638 188.913C99.7786 188.913 99.9185 189.178 100.058 189.178C100.198 189.178 100.338 188.927 100.478 188.927C100.618 188.927 100.758 189.05 100.897 189.05C101.038 189.05 101.178 189.001 101.317 189.001C101.457 189.001 101.597 189.012 101.736 189.012C101.877 189.012 102.017 188.997 102.156 188.997C102.296 188.997 102.436 188.999 102.575 188.999C102.716 188.999 102.855 188.885 102.994 188.885C103.135 188.885 103.274 189.083 103.413 189.083C103.554 189.083 103.694 189.073 103.832 189.073C103.973 189.073 104.112 188.972 104.251 188.972C104.392 188.972 104.531 189.076 104.67 189.076C104.81 189.076 104.95 188.91 105.088 188.91C105.229 188.91 105.368 189.177 105.506 189.177C105.647 189.177 105.787 188.902 105.925 188.902C106.065 188.902 106.205 189.014 106.343 189.014C106.483 189.014 106.622 188.987 106.76 188.987C106.901 188.987 107.04 188.943 107.178 188.943C107.319 188.943 107.458 189.177 107.595 189.177C107.736 189.177 107.876 188.949 108.013 188.949C108.154 188.949 108.294 189.074 108.431 189.074C108.572 189.074 108.712 189.173 108.849 189.173C108.991 189.173 109.13 189.192 109.267 189.192C109.409 189.192 109.548 189.146 109.685 189.146C109.827 189.146 109.967 188.99 110.103 188.99C110.245 188.99 110.385 188.99 110.521 188.99C110.663 188.99 110.802 189.147 110.938 189.147C111.081 189.147 111.22 189.22 111.355 189.22C111.499 189.22 111.639 188.928 111.774 188.928C111.919 188.928 112.059 189.03 112.192 189.03C112.339 189.03 112.478 189.198 112.61 189.198C112.758 189.198 112.897 189.174 113.027 189.174C113.178 189.174 113.317 188.977 113.442 188.977C113.603 188.977 113.742 189.139 113.858 189.139C114.13 189.139 114.323 189.062 114.323 189.062C114.387 188.866 114.243 188.891 114.315 188.631C114.346 188.521 114.534 188.429 114.573 188.275C114.603 188.155 114.435 187.973 114.47 187.827C114.5 187.703 114.747 187.618 114.779 187.475C114.807 187.348 114.589 187.162 114.619 187.02C114.646 186.891 114.85 186.793 114.877 186.653C114.903 186.523 114.973 186.396 114.998 186.256C115.023 186.125 115.122 186.002 115.146 185.863C115.169 185.731 114.947 185.555 114.969 185.416C114.991 185.283 115.147 185.169 115.169 185.03C115.189 184.897 115.23 184.764 115.25 184.626C115.269 184.492 115.256 184.351 115.275 184.213C115.292 184.079 115.451 183.96 115.468 183.821C115.484 183.687 115.454 183.544 115.47 183.405C115.486 183.27 115.423 183.125 115.437 182.986C115.452 182.852 115.253 182.694 115.267 182.556C115.28 182.421 115.461 182.3 115.473 182.162C115.485 182.027 115.644 181.902 115.655 181.763C115.666 181.628 115.598 181.484 115.608 181.346C115.618 181.211 115.47 181.064 115.479 180.926C115.487 180.791 115.655 180.663 115.662 180.525C115.67 180.39 115.497 180.244 115.503 180.105C115.51 179.969 115.773 179.843 115.778 179.704C115.783 179.568 115.773 179.429 115.777 179.29C115.781 179.154 115.563 179.01 115.566 178.871C115.569 178.736 115.614 178.6 115.616 178.462C115.618 178.326 115.684 178.189 115.685 178.051C115.686 177.914 115.584 177.777 115.584 177.638C115.584 177.501 115.527 177.364 115.525 177.225C115.524 177.089 115.674 176.95 115.672 176.812C115.669 176.674 115.655 176.536 115.652 176.397C115.649 176.26 115.753 176.119 115.749 175.98C115.745 175.839 115.685 175.701 115.68 175.562C115.675 175.422 115.558 175.286 115.553 175.147C115.548 175.007 115.651 174.864 115.646 174.725C115.64 174.584 115.641 174.445 115.636 174.306C115.631 174.166 115.696 174.023 115.691 173.884C115.685 173.745 115.502 173.612 115.496 173.473C115.49 173.334 115.418 173.197 115.412 173.058C115.406 172.919 115.605 172.77 115.598 172.632C115.592 172.492 115.474 172.358 115.467 172.219C115.461 172.079 115.404 171.941 115.398 171.802C115.392 171.662 115.57 171.514 115.564 171.374C115.557 171.234 115.437 171.1 115.431 170.961C115.424 170.821 115.394 170.683 115.388 170.544C115.381 170.404 115.554 170.256 115.548 170.117C115.541 169.978 115.549 169.838 115.542 169.699C115.536 169.559 115.511 169.421 115.505 169.282C115.498 169.143 115.275 169.013 115.269 168.874C115.263 168.734 115.407 168.588 115.401 168.449C115.395 168.31 115.364 168.172 115.358 168.033C115.352 167.894 115.363 167.755 115.357 167.616C115.351 167.477 115.416 167.335 115.411 167.197C115.406 167.058 115.379 166.92 115.374 166.781C115.369 166.643 115.196 166.51 115.191 166.371C115.186 166.233 115.346 166.089 115.342 165.95C115.338 165.812 115.128 165.679 115.124 165.541C115.12 165.402 115.162 165.263 115.158 165.124C115.155 164.986 115.228 164.845 115.225 164.707C115.222 164.568 115.113 164.431 115.111 164.292C115.108 164.153 115.263 164.011 115.261 163.872C115.259 163.733 115.315 163.594 115.313 163.455C115.311 163.316 115.093 163.179 115.092 163.04C115.091 162.901 115.226 162.762 115.225 162.622C115.225 162.483 115.212 162.345 115.212 162.205C115.212 162.067 115.262 161.928 115.263 161.788C115.263 161.65 115.296 161.513 115.298 161.374C115.299 161.236 115.309 161.098 115.311 160.959C115.313 160.821 115.111 160.679 115.113 160.54C115.116 160.402 115.166 160.265 115.169 160.125C115.173 159.987 115.046 159.845 115.05 159.706C115.054 159.568 115.051 159.428 115.056 159.289C115.06 159.15 115.142 159.014 115.147 158.874C115.152 158.736 115.158 158.597 115.164 158.457C115.169 158.319 115.226 158.182 115.232 158.042C115.239 157.904 115.344 157.77 115.351 157.63C115.358 157.492 115.259 157.347 115.266 157.207C115.274 157.069 115.496 156.942 115.505 156.802C115.513 156.664 115.271 156.509 115.28 156.369C115.289 156.231 115.262 156.089 115.272 155.949C115.281 155.811 115.336 155.675 115.346 155.536C115.356 155.397 115.4 155.261 115.41 155.121C115.421 154.983 115.52 154.851 115.531 154.711C115.543 154.573 115.62 154.439 115.632 154.299C115.644 154.161 115.541 154.013 115.554 153.873C115.566 153.735 115.516 153.59 115.53 153.45C115.543 153.311 115.574 153.174 115.588 153.034C115.602 152.894 115.603 152.752 115.617 152.611C115.631 152.476 115.527 152.328 115.541 152.189C115.554 152.054 115.771 151.936 115.783 151.797C115.796 151.661 115.614 151.508 115.626 151.369C115.638 151.233 115.652 151.097 115.663 150.958C115.674 150.822 115.719 150.688 115.73 150.55C115.74 150.414 116.005 150.295 116.015 150.157C116.025 150.02 115.827 149.868 115.836 149.73C115.845 149.594 116.035 149.468 116.044 149.329C116.052 149.193 115.924 149.047 115.933 148.908C115.941 148.772 115.897 148.632 115.905 148.493C115.913 148.356 116.047 148.226 116.055 148.087C116.062 147.951 116.111 147.815 116.118 147.677C116.125 147.54 116.159 147.403 116.165 147.265C116.171 147.128 116.054 146.985 116.06 146.846C116.066 146.709 116.183 146.576 116.189 146.438C116.195 146.301 116.279 146.167 116.284 146.029C116.29 145.893 116.222 145.753 116.227 145.615C116.232 145.479 116.061 145.336 116.065 145.198C116.07 145.061 116.087 144.925 116.091 144.787C116.095 144.65 116.131 144.514 116.134 144.376C116.138 144.239 116.002 144.099 116.005 143.961C116.008 143.824 116.206 143.691 116.209 143.553C116.212 143.416 116.319 143.28 116.321 143.142C116.324 143.005 116.134 142.864 116.136 142.726C116.138 142.589 116.094 142.451 116.095 142.313C116.097 142.176 116.369 142.041 116.37 141.903C116.372 141.766 116.158 141.626 116.159 141.488C116.16 141.351 116.254 141.214 116.254 141.076C116.255 140.938 116.103 140.8 116.103 140.662C116.103 140.525 116.345 140.388 116.345 140.25C116.345 140.113 116.381 139.975 116.38 139.837C116.38 139.7 116.047 139.564 116.046 139.426C116.045 139.288 116.249 139.15 116.248 139.012C116.246 138.874 116.054 138.738 116.053 138.6C116.051 138.463 116.073 138.325 116.071 138.187C116.069 138.049 116.359 137.907 116.357 137.769C116.355 137.632 116.092 137.498 116.089 137.36C116.086 137.222 116.015 137.086 116.012 136.948C116.009 136.81 116.311 136.665 116.308 136.527C116.305 136.389 116.198 136.253 116.195 136.115C116.191 135.977 116.019 135.844 116.015 135.706C116.011 135.568 116.172 135.425 116.168 135.286C116.164 135.148 116.096 135.012 116.091 134.874C116.086 134.736 116.224 134.592 116.218 134.454C116.213 134.316 116 134.186 115.994 134.048C115.988 133.91 115.946 133.773 115.94 133.635C115.934 133.497 116.18 133.347 116.173 133.209C116.167 133.071 116.067 132.937 116.06 132.799C116.053 132.66 115.845 132.533 115.837 132.395C115.83 132.256 116.06 132.105 116.052 131.967C116.044 131.829 115.841 131.702 115.833 131.564C115.824 131.426 115.857 131.285 115.849 131.148C115.84 131.009 116.071 130.855 116.061 130.717C116.052 130.579 115.815 130.456 115.805 130.319C115.795 130.18 115.761 130.044 115.75 129.906C115.74 129.768 115.891 129.618 115.88 129.48C115.869 129.342 115.827 129.206 115.815 129.069C115.804 128.93 115.933 128.78 115.921 128.643C115.909 128.504 115.591 128.393 115.579 128.256C115.566 128.118 115.618 127.975 115.604 127.837C115.591 127.699 115.821 127.537 115.807 127.4C115.793 127.262 115.67 127.135 115.655 126.998C115.641 126.86 115.481 126.738 115.466 126.601C115.451 126.463 115.434 126.327 115.418 126.19C115.402 126.052 115.641 125.884 115.625 125.748C115.608 125.61 115.379 125.499 115.362 125.362C115.344 125.225 115.455 125.071 115.436 124.935C115.418 124.797 115.389 124.661 115.37 124.526C115.351 124.388 115.17 124.275 115.15 124.139C115.13 124.002 115.018 123.88 114.997 123.745C114.976 123.607 115.195 123.434 115.173 123.299C115.151 123.162 114.997 123.048 114.974 122.913C114.951 122.776 115.122 122.607 115.098 122.472C115.073 122.336 114.795 122.246 114.77 122.112C114.744 121.975 114.828 121.82 114.802 121.686C114.775 121.549 114.608 121.443 114.58 121.31C114.552 121.173 114.802 120.979 114.772 120.845C114.742 120.709 114.492 120.624 114.461 120.491C114.429 120.355 114.329 120.239 114.296 120.107C114.263 119.972 114.424 119.791 114.389 119.659C114.354 119.524 114.409 119.365 114.372 119.235C114.335 119.1 114.106 119.022 114.067 118.892C114.027 118.758 113.901 118.656 113.859 118.527C113.816 118.394 113.771 118.268 113.727 118.14C113.681 118.008 113.663 117.872 113.616 117.746C113.566 117.615 113.66 117.421 113.609 117.297Z" fill="white"/>
<path d="M127.866 119.395L126.701 131.798L114.192 120.272C111.985 118.239 112.706 114.517 115.565 113.594C116.062 113.433 116.591 113.349 117.149 113.376C120.694 113.546 127.866 119.395 127.866 119.395Z" fill="white" stroke="#003649" stroke-linecap="round" stroke-linejoin="round"/>
<path d="M127.863 119.395L129.028 131.798L141.538 120.272C143.744 118.239 143.023 114.517 140.164 113.594C139.667 113.433 139.138 113.349 138.58 113.376C135.035 113.546 127.863 119.395 127.863 119.395Z" fill="white" stroke="#003649" stroke-linecap="round" stroke-linejoin="round"/>
<path d="M172.855 60.2383L197.827 70.7497" stroke="#003649" stroke-miterlimit="10"/>
<path d="M127.866 136.384C128.407 136.384 128.845 135.947 128.845 135.409C128.845 134.87 128.407 134.434 127.866 134.434C127.325 134.434 126.887 134.87 126.887 135.409C126.887 135.947 127.325 136.384 127.866 136.384Z" fill="#00384A"/>
<path d="M127.866 139.772C128.407 139.772 128.845 139.336 128.845 138.797C128.845 138.259 128.407 137.822 127.866 137.822C127.325 137.822 126.887 138.259 126.887 138.797C126.887 139.336 127.325 139.772 127.866 139.772Z" fill="#00384A"/>
<path d="M127.866 143.161C128.407 143.161 128.845 142.725 128.845 142.186C128.845 141.647 128.407 141.211 127.866 141.211C127.325 141.211 126.887 141.647 126.887 142.186C126.887 142.725 127.325 143.161 127.866 143.161Z" fill="#00384A"/>
<path d="M95.6016 189.825L100.969 148.992" stroke="#003649" stroke-linecap="round" stroke-linejoin="round"/>
<path d="M169.262 35.8182C170.051 34.3107 171.917 33.7255 173.431 34.5112C174.945 35.2968 175.532 37.1558 174.743 38.6633" stroke="#010101" stroke-miterlimit="10"/>
<path d="M187.151 33.4842C188.225 33.4842 189.096 32.6172 189.096 31.5478C189.096 30.4783 188.225 29.6113 187.151 29.6113C186.078 29.6113 185.207 30.4783 185.207 31.5478C185.207 32.6172 186.078 33.4842 187.151 33.4842Z" stroke="#010101" stroke-miterlimit="10"/>
<path d="M193.847 38.3494C194.921 38.3494 195.791 37.4824 195.791 36.413C195.791 35.3435 194.921 34.4766 193.847 34.4766C192.773 34.4766 191.902 35.3435 191.902 36.413C191.902 37.4824 192.773 38.3494 193.847 38.3494Z" stroke="#010101" stroke-miterlimit="10"/>
<path d="M197.851 41.5967C198.768 41.5967 199.511 40.8567 199.511 39.9439C199.511 39.031 198.768 38.291 197.851 38.291C196.934 38.291 196.191 39.031 196.191 39.9439C196.191 40.8567 196.934 41.5967 197.851 41.5967Z" stroke="#010101" stroke-miterlimit="10"/>
<path d="M201.972 44.0244C202.889 44.0244 203.632 43.2844 203.632 42.3716C203.632 41.4588 202.889 40.7188 201.972 40.7188C201.056 40.7188 200.312 41.4588 200.312 42.3716C200.312 43.2844 201.056 44.0244 201.972 44.0244Z" stroke="#010101" stroke-miterlimit="10"/>
<path d="M195.742 36.8822L200.745 24.541" stroke="#010101" stroke-miterlimit="10" stroke-linecap="round"/>
<path d="M199.469 40.3315L204.472 27.9902" stroke="#010101" stroke-miterlimit="10" stroke-linecap="round"/>
<path d="M193.096 20.6816L191.672 29.081" stroke="#010101" stroke-miterlimit="10" stroke-linecap="round"/>
</g>
<path d="M71.8766 219V205H79.0366C80.8766 205 82.2499 205.34 83.1566 206.02C84.0632 206.687 84.5166 207.567 84.5166 208.66C84.5166 209.38 84.3232 210.013 83.9366 210.56C83.5632 211.093 83.0299 211.52 82.3366 211.84C81.6566 212.147 80.8432 212.3 79.8966 212.3L80.2966 211.34C81.2832 211.34 82.1432 211.493 82.8766 211.8C83.6099 212.093 84.1766 212.527 84.5766 213.1C84.9899 213.66 85.1966 214.347 85.1966 215.16C85.1966 216.373 84.7032 217.32 83.7166 218C82.7432 218.667 81.3166 219 79.4366 219H71.8766ZM75.7966 216.14H79.1166C79.7966 216.14 80.3099 216.027 80.6566 215.8C81.0166 215.56 81.1966 215.2 81.1966 214.72C81.1966 214.24 81.0166 213.887 80.6566 213.66C80.3099 213.42 79.7966 213.3 79.1166 213.3H75.5166V210.56H78.5166C79.1832 210.56 79.6832 210.447 80.0166 210.22C80.3499 209.993 80.5166 209.653 80.5166 209.2C80.5166 208.747 80.3499 208.413 80.0166 208.2C79.6832 207.973 79.1832 207.86 78.5166 207.86H75.7966V216.14ZM91.6277 219.18C90.7477 219.18 89.9543 219.007 89.2477 218.66C88.5543 218.313 88.0077 217.773 87.6077 217.04C87.221 216.293 87.0277 215.353 87.0277 214.22V208.16H90.8277V213.6C90.8277 214.44 90.981 215.04 91.2877 215.4C91.6077 215.76 92.0543 215.94 92.6277 215.94C93.001 215.94 93.341 215.853 93.6477 215.68C93.9543 215.507 94.201 215.233 94.3877 214.86C94.5743 214.473 94.6677 213.98 94.6677 213.38V208.16H98.4677V219H94.8477V215.94L95.5477 216.8C95.1743 217.6 94.6343 218.2 93.9277 218.6C93.221 218.987 92.4543 219.18 91.6277 219.18ZM106.215 223.06C105.175 223.06 104.182 222.94 103.235 222.7C102.302 222.46 101.502 222.107 100.835 221.64L102.215 218.98C102.669 219.34 103.229 219.62 103.895 219.82C104.575 220.033 105.235 220.14 105.875 220.14C106.902 220.14 107.642 219.913 108.095 219.46C108.549 219.02 108.775 218.373 108.775 217.52V216.24L108.975 213.2L108.955 210.14V208.16H112.575V217.02C112.575 219.073 112.022 220.593 110.915 221.58C109.809 222.567 108.242 223.06 106.215 223.06ZM105.555 218.44C104.595 218.44 103.709 218.227 102.895 217.8C102.095 217.36 101.449 216.753 100.955 215.98C100.475 215.193 100.235 214.267 100.235 213.2C100.235 212.133 100.475 211.213 100.955 210.44C101.449 209.653 102.095 209.047 102.895 208.62C103.709 208.193 104.595 207.98 105.555 207.98C106.475 207.98 107.262 208.167 107.915 208.54C108.569 208.9 109.062 209.467 109.395 210.24C109.742 211.013 109.915 212 109.915 213.2C109.915 214.4 109.742 215.387 109.395 216.16C109.062 216.933 108.569 217.507 107.915 217.88C107.262 218.253 106.475 218.44 105.555 218.44ZM106.455 215.42C106.909 215.42 107.309 215.327 107.655 215.14C108.015 214.953 108.295 214.693 108.495 214.36C108.709 214.027 108.815 213.64 108.815 213.2C108.815 212.76 108.709 212.373 108.495 212.04C108.295 211.707 108.015 211.453 107.655 211.28C107.309 211.093 106.909 211 106.455 211C106.002 211 105.595 211.093 105.235 211.28C104.875 211.453 104.589 211.707 104.375 212.04C104.175 212.373 104.075 212.76 104.075 213.2C104.075 213.64 104.175 214.027 104.375 214.36C104.589 214.693 104.875 214.953 105.235 215.14C105.595 215.327 106.002 215.42 106.455 215.42ZM121.017 219V205H127.417C128.697 205 129.797 205.207 130.717 205.62C131.651 206.033 132.371 206.633 132.877 207.42C133.384 208.193 133.637 209.113 133.637 210.18C133.637 211.233 133.384 212.147 132.877 212.92C132.371 213.68 131.651 214.267 130.717 214.68C129.797 215.08 128.697 215.28 127.417 215.28H123.217L124.977 213.62V219H121.017ZM129.677 219L126.197 213.9H130.417L133.917 219H129.677ZM124.977 214.04L123.217 212.22H127.177C128.004 212.22 128.617 212.04 129.017 211.68C129.431 211.32 129.637 210.82 129.637 210.18C129.637 209.527 129.431 209.02 129.017 208.66C128.617 208.3 128.004 208.12 127.177 208.12H123.217L124.977 206.3V214.04ZM141.322 219.18C140.042 219.18 138.922 218.94 137.962 218.46C137.015 217.967 136.275 217.3 135.742 216.46C135.222 215.607 134.962 214.64 134.962 213.56C134.962 212.48 135.215 211.52 135.722 210.68C136.242 209.827 136.955 209.167 137.862 208.7C138.769 208.22 139.789 207.98 140.922 207.98C141.989 207.98 142.962 208.2 143.842 208.64C144.722 209.067 145.422 209.7 145.942 210.54C146.462 211.38 146.722 212.4 146.722 213.6C146.722 213.733 146.715 213.887 146.702 214.06C146.689 214.233 146.675 214.393 146.662 214.54H138.082V212.54H144.642L143.202 213.1C143.215 212.607 143.122 212.18 142.922 211.82C142.735 211.46 142.469 211.18 142.122 210.98C141.789 210.78 141.395 210.68 140.942 210.68C140.489 210.68 140.089 210.78 139.742 210.98C139.409 211.18 139.149 211.467 138.962 211.84C138.775 212.2 138.682 212.627 138.682 213.12V213.7C138.682 214.233 138.789 214.693 139.002 215.08C139.229 215.467 139.549 215.767 139.962 215.98C140.375 216.18 140.869 216.28 141.442 216.28C141.975 216.28 142.429 216.207 142.802 216.06C143.189 215.9 143.569 215.66 143.942 215.34L145.942 217.42C145.422 217.993 144.782 218.433 144.022 218.74C143.262 219.033 142.362 219.18 141.322 219.18ZM155.294 219.18C154.374 219.18 153.587 218.98 152.934 218.58C152.281 218.167 151.781 217.553 151.434 216.74C151.101 215.913 150.934 214.86 150.934 213.58C150.934 212.287 151.094 211.233 151.414 210.42C151.734 209.593 152.214 208.98 152.854 208.58C153.507 208.18 154.321 207.98 155.294 207.98C156.281 207.98 157.174 208.213 157.974 208.68C158.787 209.133 159.427 209.78 159.894 210.62C160.374 211.447 160.614 212.433 160.614 213.58C160.614 214.727 160.374 215.72 159.894 216.56C159.427 217.4 158.787 218.047 157.974 218.5C157.174 218.953 156.281 219.18 155.294 219.18ZM148.474 222.88V208.16H152.094V210L152.074 213.58L152.274 217.18V222.88H148.474ZM154.494 216.16C154.921 216.16 155.301 216.06 155.634 215.86C155.981 215.66 156.254 215.367 156.454 214.98C156.667 214.593 156.774 214.127 156.774 213.58C156.774 213.033 156.667 212.567 156.454 212.18C156.254 211.793 155.981 211.5 155.634 211.3C155.301 211.1 154.921 211 154.494 211C154.067 211 153.681 211.1 153.334 211.3C153.001 211.5 152.727 211.793 152.514 212.18C152.314 212.567 152.214 213.033 152.214 213.58C152.214 214.127 152.314 214.593 152.514 214.98C152.727 215.367 153.001 215.66 153.334 215.86C153.681 216.06 154.067 216.16 154.494 216.16ZM167.82 219.18C166.633 219.18 165.58 218.94 164.66 218.46C163.74 217.98 163.013 217.32 162.48 216.48C161.96 215.627 161.7 214.653 161.7 213.56C161.7 212.467 161.96 211.5 162.48 210.66C163.013 209.82 163.74 209.167 164.66 208.7C165.58 208.22 166.633 207.98 167.82 207.98C169.007 207.98 170.06 208.22 170.98 208.7C171.913 209.167 172.64 209.82 173.16 210.66C173.68 211.5 173.94 212.467 173.94 213.56C173.94 214.653 173.68 215.627 173.16 216.48C172.64 217.32 171.913 217.98 170.98 218.46C170.06 218.94 169.007 219.18 167.82 219.18ZM167.82 216.16C168.26 216.16 168.647 216.06 168.98 215.86C169.327 215.66 169.6 215.367 169.8 214.98C170 214.58 170.1 214.107 170.1 213.56C170.1 213.013 170 212.553 169.8 212.18C169.6 211.793 169.327 211.5 168.98 211.3C168.647 211.1 168.26 211 167.82 211C167.393 211 167.007 211.1 166.66 211.3C166.327 211.5 166.053 211.793 165.84 212.18C165.64 212.553 165.54 213.013 165.54 213.56C165.54 214.107 165.64 214.58 165.84 214.98C166.053 215.367 166.327 215.66 166.66 215.86C167.007 216.06 167.393 216.16 167.82 216.16ZM175.7 219V208.16H179.32V211.32L178.78 210.42C179.1 209.607 179.62 209 180.34 208.6C181.06 208.187 181.934 207.98 182.96 207.98V211.4C182.787 211.373 182.634 211.36 182.5 211.36C182.38 211.347 182.247 211.34 182.1 211.34C181.327 211.34 180.7 211.553 180.22 211.98C179.74 212.393 179.5 213.073 179.5 214.02V219H175.7ZM189.701 219.18C188.314 219.18 187.234 218.84 186.461 218.16C185.687 217.467 185.301 216.427 185.301 215.04V205.74H189.101V215C189.101 215.387 189.207 215.693 189.421 215.92C189.634 216.133 189.907 216.24 190.241 216.24C190.694 216.24 191.081 216.127 191.401 215.9L192.341 218.56C192.021 218.773 191.627 218.927 191.161 219.02C190.694 219.127 190.207 219.18 189.701 219.18ZM183.721 211.4V208.56H191.581V211.4H183.721ZM197.746 219.18C196.826 219.18 195.926 219.073 195.046 218.86C194.179 218.647 193.479 218.38 192.946 218.06L194.086 215.46C194.593 215.767 195.186 216.013 195.866 216.2C196.546 216.373 197.213 216.46 197.866 216.46C198.506 216.46 198.946 216.393 199.186 216.26C199.439 216.127 199.566 215.947 199.566 215.72C199.566 215.507 199.446 215.353 199.206 215.26C198.979 215.153 198.673 215.073 198.286 215.02C197.913 214.967 197.499 214.907 197.046 214.84C196.593 214.773 196.133 214.687 195.666 214.58C195.213 214.46 194.793 214.287 194.406 214.06C194.033 213.82 193.733 213.5 193.506 213.1C193.279 212.7 193.166 212.193 193.166 211.58C193.166 210.887 193.366 210.273 193.766 209.74C194.179 209.193 194.779 208.767 195.566 208.46C196.353 208.14 197.313 207.98 198.446 207.98C199.206 207.98 199.973 208.06 200.746 208.22C201.533 208.367 202.193 208.593 202.726 208.9L201.586 211.48C201.053 211.173 200.519 210.967 199.986 210.86C199.453 210.74 198.946 210.68 198.466 210.68C197.826 210.68 197.373 210.753 197.106 210.9C196.853 211.047 196.726 211.227 196.726 211.44C196.726 211.653 196.839 211.82 197.066 211.94C197.293 212.047 197.593 212.133 197.966 212.2C198.353 212.253 198.773 212.313 199.226 212.38C199.679 212.433 200.133 212.52 200.586 212.64C201.053 212.76 201.473 212.94 201.846 213.18C202.233 213.407 202.539 213.72 202.766 214.12C202.993 214.507 203.106 215.007 203.106 215.62C203.106 216.287 202.899 216.887 202.486 217.42C202.086 217.953 201.486 218.38 200.686 218.7C199.899 219.02 198.919 219.18 197.746 219.18Z" fill="#EFEFEF"/>
<defs>
<linearGradient id="paint0_linear_16011_10316" x1="178.247" y1="24.2984" x2="216.466" y2="70.0344" gradientUnits="userSpaceOnUse">
<stop offset="0.33" stop-color="#0176BC" stop-opacity="0"/>
<stop offset="1" stop-color="#0071B9"/>
</linearGradient>
<clipPath id="clip0_16011_10316">
<rect width="145" height="178" fill="white" transform="translate(64.5 12)"/>
</clipPath>
</defs>
</svg>
