<svg width="280" height="337" viewBox="0 0 280 337" fill="none" xmlns="http://www.w3.org/2000/svg">
<path d="M207.66 30.3292L224.903 16.0966L272.85 73.7068C276.589 78.1996 275.962 84.8705 271.451 88.5944L270.556 89.3328C266.045 93.0566 259.346 92.4323 255.607 87.9394L207.66 30.3292Z" fill="#010101"/>
<path d="M207.66 30.3292L224.903 16.0966L272.85 73.7068C276.589 78.1996 275.962 84.8705 271.451 88.5944L270.556 89.3328C266.045 93.0566 259.346 92.4323 255.607 87.9394L207.66 30.3292Z" fill="url(#paint0_linear_16781_24356)"/>
<path d="M199.664 3.24609L224.302 16.1598L207.833 29.7534L199.664 3.24609Z" fill="#F7C400"/>
<path d="M200.216 3.91473L223.696 16.2213L208.002 29.1762L200.216 3.91473ZM199.102 2.57617L207.655 30.3292L224.898 16.0965L199.102 2.57617Z" fill="#010101"/>
<path d="M201.313 9.7274L205.756 6.05994L196.965 0L201.313 9.7274Z" fill="#010101"/>
<path d="M90.4883 198.066L90.6051 335.191H166.385L146.965 194.609C146.965 194.609 144.917 196.457 141.641 196.958C138.366 197.458 120.24 204.942 120.24 204.942L93.5259 199.58L90.4883 198.066Z" fill="white"/>
<path d="M126.945 144.223C124.759 139.795 125.667 136.689 127.63 134.299C130.746 130.502 137.11 130.549 141.844 134.403C146.577 138.257 147.889 144.459 144.773 148.255C144.305 148.825 144.205 148.992 143.607 149.388" stroke="#010101" stroke-miterlimit="10"/>
<path d="M87.4941 147.779C90.1547 140.846 96.6749 135.562 104.009 134.247C111.344 132.932 119.244 135.576 124.39 140.944C125.605 142.212 131.054 147.907 132.702 148.559C134.678 149.341 136.802 148.651 138.921 148.823C140.77 148.973 142.774 148.676 144.366 149.626C146.715 151.028 146.913 154.365 146.27 157.016C145.98 158.213 145.591 159.542 146.197 160.616C146.552 161.245 147.188 161.655 147.716 162.151C149.822 164.13 150.091 167.348 149.921 170.226C149.526 176.958 147.023 184.159 141.194 187.59C140.515 187.991 139.795 188.337 139.193 188.846C138.534 189.403 138.047 190.129 137.569 190.846C135.454 194.017 133.339 197.189 131.223 200.36C130.092 202.055 128.658 200.875 126.638 200.565C126.026 200.471 120.782 205.238 120.238 204.944C115.545 202.405 106.425 203.306 102.379 199.834C100.818 198.494 106.932 193.548 104.877 193.395C103.644 193.304 84.0764 190.979 78.8905 183.843C76.7352 180.878 74.4687 171.267 82.8275 168.803C87.1629 167.525 90.343 168.769 90.343 168.769C90.343 168.769 87.8438 163.694 87.3307 162.209C85.7301 157.574 85.7325 152.369 87.4941 147.779Z" fill="#F6B1B4"/>
<path d="M131.856 163.012C134.972 159.216 133.661 153.014 128.927 149.16C124.193 145.306 117.829 145.26 114.713 149.056C111.597 152.852 112.908 159.054 117.642 162.908C122.376 166.762 128.74 166.809 131.856 163.012Z" stroke="#010101" stroke-miterlimit="10"/>
<path d="M128.887 148.856C128.869 148.286 128.794 147.85 129.004 147.32C129.507 146.048 130.773 146.594 131.406 147.151" stroke="#010101" stroke-miterlimit="10" stroke-linecap="round"/>
<path d="M140.74 157.363C141.108 157.363 141.406 157.066 141.406 156.7C141.406 156.334 141.108 156.037 140.74 156.037C140.372 156.037 140.074 156.334 140.074 156.7C140.074 157.066 140.372 157.363 140.74 157.363Z" fill="#010101"/>
<path d="M144.138 157.363C144.506 157.363 144.804 157.066 144.804 156.7C144.804 156.334 144.506 156.037 144.138 156.037C143.771 156.037 143.473 156.334 143.473 156.7C143.473 157.066 143.771 157.363 144.138 157.363Z" fill="#010101"/>
<path d="M146.197 160.616H137.824" stroke="#010101" stroke-miterlimit="10" stroke-linecap="round"/>
<path d="M85.1846 173.4C83.3962 174.826 82.551 177.216 82.784 179.486C83.6223 187.651 96.7942 187.063 101.494 187.614" stroke="#010101" stroke-miterlimit="10" stroke-linecap="round"/>
<path d="M105.304 173.906C105.895 173.906 106.374 173.429 106.374 172.841C106.374 172.252 105.895 171.775 105.304 171.775C104.713 171.775 104.234 172.252 104.234 172.841C104.234 173.429 104.713 173.906 105.304 173.906Z" fill="#010101"/>
<path d="M101.784 167.514C102.577 167.514 103.22 166.874 103.22 166.084C103.22 165.294 102.577 164.654 101.784 164.654C100.991 164.654 100.348 165.294 100.348 166.084C100.348 166.874 100.991 167.514 101.784 167.514Z" fill="#010101"/>
<path d="M99.9606 172.338C100.178 172.338 100.355 172.163 100.355 171.946C100.355 171.729 100.178 171.553 99.9606 171.553C99.7429 171.553 99.5664 171.729 99.5664 171.946C99.5664 172.163 99.7429 172.338 99.9606 172.338Z" fill="#010101"/>
<path d="M96.6308 167.121C97.1906 167.121 97.6444 166.669 97.6444 166.111C97.6444 165.554 97.1906 165.102 96.6308 165.102C96.071 165.102 95.6172 165.554 95.6172 166.111C95.6172 166.669 96.071 167.121 96.6308 167.121Z" fill="#010101"/>
<path d="M99.1981 160.786C99.4002 160.786 99.5641 160.622 99.5641 160.421C99.5641 160.22 99.4002 160.057 99.1981 160.057C98.9959 160.057 98.832 160.22 98.832 160.421C98.832 160.622 98.9959 160.786 99.1981 160.786Z" fill="#010101"/>
<path d="M91.0346 161.907C91.5478 161.907 91.9638 161.493 91.9638 160.982C91.9638 160.471 91.5478 160.057 91.0346 160.057C90.5215 160.057 90.1055 160.471 90.1055 160.982C90.1055 161.493 90.5215 161.907 91.0346 161.907Z" fill="#010101"/>
<path d="M94.2708 157.53C94.5196 157.53 94.7213 157.329 94.7213 157.082C94.7213 156.834 94.5196 156.633 94.2708 156.633C94.022 156.633 93.8203 156.834 93.8203 157.082C93.8203 157.329 94.022 157.53 94.2708 157.53Z" fill="#010101"/>
<path d="M89.2627 155.121C89.7292 155.121 90.1073 154.744 90.1073 154.28C90.1073 153.815 89.7292 153.439 89.2627 153.439C88.7962 153.439 88.418 153.815 88.418 154.28C88.418 154.744 88.7962 155.121 89.2627 155.121Z" fill="#010101"/>
<path d="M97.3508 151.841C97.7473 151.841 98.0688 151.521 98.0688 151.126C98.0688 150.731 97.7473 150.411 97.3508 150.411C96.9543 150.411 96.6328 150.731 96.6328 151.126C96.6328 151.521 96.9543 151.841 97.3508 151.841Z" fill="#010101"/>
<path d="M97.0704 155.679C97.2257 155.679 97.3517 155.554 97.3517 155.399C97.3517 155.244 97.2257 155.119 97.0704 155.119C96.915 155.119 96.7891 155.244 96.7891 155.399C96.7891 155.554 96.915 155.679 97.0704 155.679Z" fill="#010101"/>
<path d="M92.5221 151.184C93.0197 151.184 93.4231 150.782 93.4231 150.286C93.4231 149.791 93.0197 149.389 92.5221 149.389C92.0245 149.389 91.6211 149.791 91.6211 150.286C91.6211 150.782 92.0245 151.184 92.5221 151.184Z" fill="#010101"/>
<path d="M92.0012 145.279C92.2111 145.279 92.3813 145.109 92.3813 144.9C92.3813 144.691 92.2111 144.522 92.0012 144.522C91.7913 144.522 91.6211 144.691 91.6211 144.9C91.6211 145.109 91.7913 145.279 92.0012 145.279Z" fill="#010101"/>
<path d="M98.0907 146.749C98.4988 146.749 98.8298 146.419 98.8298 146.013C98.8298 145.606 98.4988 145.277 98.0907 145.277C97.6825 145.277 97.3516 145.606 97.3516 146.013C97.3516 146.419 97.6825 146.749 98.0907 146.749Z" fill="#010101"/>
<path d="M103.308 151.532C103.821 151.532 104.237 151.118 104.237 150.607C104.237 150.096 103.821 149.682 103.308 149.682C102.795 149.682 102.379 150.096 102.379 150.607C102.379 151.118 102.795 151.532 103.308 151.532Z" fill="#010101"/>
<path d="M98.4227 140.567C98.8504 140.567 99.197 140.222 99.197 139.796C99.197 139.37 98.8504 139.025 98.4227 139.025C97.9951 139.025 97.6484 139.37 97.6484 139.796C97.6484 140.222 97.9951 140.567 98.4227 140.567Z" fill="#010101"/>
<path d="M104.91 137.118C105.283 137.118 105.586 136.816 105.586 136.445C105.586 136.073 105.283 135.772 104.91 135.772C104.537 135.772 104.234 136.073 104.234 136.445C104.234 136.816 104.537 137.118 104.91 137.118Z" fill="#010101"/>
<path d="M113.362 138.016C113.704 138.016 113.981 137.74 113.981 137.399C113.981 137.058 113.704 136.782 113.362 136.782C113.02 136.782 112.742 137.058 112.742 137.399C112.742 137.74 113.02 138.016 113.362 138.016Z" fill="#010101"/>
<path d="M107.731 141.478C108.198 141.478 108.576 141.101 108.576 140.636C108.576 140.172 108.198 139.795 107.731 139.795C107.265 139.795 106.887 140.172 106.887 140.636C106.887 141.101 107.265 141.478 107.731 141.478Z" fill="#010101"/>
<path d="M103.139 143.454C103.403 143.454 103.617 143.241 103.617 142.978C103.617 142.714 103.403 142.501 103.139 142.501C102.874 142.501 102.66 142.714 102.66 142.978C102.66 143.241 102.874 143.454 103.139 143.454Z" fill="#010101"/>
<path d="M109.9 135.774C110.071 135.774 110.209 135.636 110.209 135.466C110.209 135.295 110.071 135.157 109.9 135.157C109.729 135.157 109.59 135.295 109.59 135.466C109.59 135.636 109.729 135.774 109.9 135.774Z" fill="#010101"/>
<path d="M101.792 157.98C102.289 157.98 102.693 157.578 102.693 157.082C102.693 156.587 102.289 156.185 101.792 156.185C101.294 156.185 100.891 156.587 100.891 157.082C100.891 157.578 101.294 157.98 101.792 157.98Z" fill="#010101"/>
<path d="M95.9272 161.964C96.2538 161.964 96.5185 161.7 96.5185 161.375C96.5185 161.05 96.2538 160.786 95.9272 160.786C95.6007 160.786 95.3359 161.05 95.3359 161.375C95.3359 161.7 95.6007 161.964 95.9272 161.964Z" fill="#010101"/>
<path d="M91.7031 166.448C92.0763 166.448 92.3788 166.146 92.3788 165.775C92.3788 165.403 92.0763 165.102 91.7031 165.102C91.3299 165.102 91.0273 165.403 91.0273 165.775C91.0273 166.146 91.3299 166.448 91.7031 166.448Z" fill="#010101"/>
<path d="M217.372 41.998C214.319 39.7387 211.579 38.3854 207.812 37.8641C206.073 37.6236 204.292 37.4032 202.574 37.7617C200.856 38.1202 199.184 39.1669 198.543 40.794C197.693 42.9472 198.904 45.4564 200.722 46.8971C202.539 48.3378 204.844 48.9824 207.043 49.727C210.694 50.9633 214.489 52.8045 216.232 56.2307C217.847 59.4069 217.328 63.1971 216.77 66.714C216.401 69.0413 213.478 76.1135 213.109 78.4408C218.969 79.3226 227.092 75.0741 232.892 76.2856C234.219 76.5627 235.553 76.8511 236.802 77.3746C238.943 78.2716 240.735 79.8121 242.561 81.2415C245.045 83.1855 247.66 84.9637 250.382 86.5603C252.637 87.8829 255.073 89.1821 256.421 91.4157C256.925 90.8521 257.275 90.1534 257.424 89.4135L217.372 41.998Z" fill="#F6B1B4"/>
<path d="M234.48 12.598C236.223 11.4998 238.14 10.4814 240.202 10.4936C242.264 10.5058 244.452 11.8966 244.666 13.9392C247.671 12.2543 251.482 11.8361 254.603 13.2975C257.723 14.7588 259.901 18.2537 259.374 21.6475C262.374 20.9038 265.575 23.0454 266.706 25.9103C267.837 28.7751 267.234 32.0794 265.861 34.837C267.687 33.7365 270.217 35.1131 271.025 37.0812C271.832 39.0492 271.39 41.2912 270.781 43.3289C269.691 46.9717 268.109 50.4461 266.531 53.9072C265.144 56.9508 264.396 59.2133 262.219 61.7573C261.515 62.5791 260.285 63.5414 257.879 62.4629C256.176 61.6997 254.675 59.6565 255.3 57.555C255.83 55.7717 256.311 54.0986 256.75 52.2908C256.334 53.6652 255.785 54.9999 255.114 56.2707C254.672 57.1097 254.13 57.9643 253.275 58.3809C251.868 59.0664 248.823 57.9363 248.002 56.608C247.181 55.2798 247.183 53.1101 247.8 51.4306C248.478 49.585 249.217 47.7442 249.217 47.7442C247.803 49.7243 246.993 52.567 244.628 53.1647C243.021 53.5709 241.297 52.6229 240.384 51.2446C239.471 49.8663 239.23 48.1527 239.211 46.5017C239.179 43.6537 239.747 40.8005 240.867 38.1799C241.524 36.6436 242.386 35.1113 242.365 33.4417C242.361 33.1185 242.309 32.7659 242.071 32.5459C241.456 31.9765 240.556 32.8205 240.159 33.5578C239.369 35.026 238.579 36.4942 237.788 37.9624C236.892 39.6287 235.931 41.3655 234.34 42.3956C232.748 43.4256 230.809 42.9234 229.194 41.9306C227.203 40.7071 227.022 37.0651 227.224 35.6177C227.826 31.2867 228.428 26.9558 229.031 22.6249C229.072 22.3262 229.114 22.02 229.048 21.7256C228.964 21.3473 230.171 23.1064 229.929 22.8036C228.456 20.9675 226.304 19.3057 228.362 17.1684C229.24 16.2567 230.343 15.49 231.357 14.737C231.99 14.2673 233.698 12.598 234.48 12.598Z" fill="#F6B1B4"/>
<path d="M254.492 86.2308C254.307 86.0508 253.75 86.2479 253.554 86.0624C253.366 85.8846 253.337 85.5329 253.139 85.3507C252.947 85.1753 252.609 85.1583 252.408 84.9795C252.213 84.8065 252.279 84.3355 252.076 84.1599C251.878 83.9896 251.405 84.1378 251.2 83.9655C251 83.7978 251.007 83.3795 250.799 83.2104C250.596 83.0456 250.383 82.8896 250.172 82.7238C249.967 82.5618 249.611 82.5903 249.399 82.4278C249.191 82.2687 249.205 81.815 248.991 81.6557C248.78 81.4997 248.425 81.5367 248.208 81.3808C247.995 81.2278 247.711 81.1754 247.492 81.0229C247.277 80.8731 247.302 80.3719 247.081 80.2229C246.863 80.0763 246.56 80.0507 246.337 79.9051C246.117 79.7618 245.854 79.681 245.629 79.539C245.407 79.399 245.057 79.4642 244.829 79.3257C244.605 79.1892 244.543 78.7839 244.313 78.6492C244.087 78.5166 243.844 78.4089 243.613 78.2783C243.385 78.1492 243.002 78.2983 242.769 78.1714C242.538 78.0459 242.527 77.5117 242.292 77.3886C242.059 77.2668 241.871 77.0484 241.633 76.9291C241.398 76.811 241.101 76.8089 240.861 76.6935C240.624 76.5793 240.398 76.4329 240.157 76.3215C239.918 76.2112 239.609 76.2473 239.366 76.14C239.125 76.0336 238.921 75.8353 238.676 75.7321C238.434 75.6298 238.108 75.7238 237.861 75.6248C237.616 75.5267 237.466 75.1844 237.217 75.0896C236.971 74.9958 236.622 75.1699 236.372 75.0795C236.124 74.99 235.956 74.6678 235.704 74.5818C235.455 74.4966 235.081 74.7805 234.828 74.699C234.577 74.6182 234.322 74.5596 234.067 74.4827C233.814 74.4064 233.583 74.2691 233.327 74.1968C233.073 74.1252 232.945 73.5941 232.688 73.5266C232.433 73.4596 232.056 73.8673 231.797 73.8044C231.541 73.7419 231.322 73.5281 231.063 73.4699C230.806 73.4121 230.51 73.5397 230.249 73.4861C229.991 73.433 229.804 73.0142 229.543 72.9653C229.283 72.9169 229.034 72.7829 228.771 72.7389C228.511 72.6951 228.179 73.0898 227.915 73.0505C227.654 73.0116 227.439 72.6407 227.174 72.6063C226.912 72.5722 226.643 72.5738 226.378 72.5443C226.116 72.515 225.861 72.38 225.596 72.3553C225.333 72.3308 225.039 72.6552 224.773 72.6353C224.509 72.6156 224.272 72.143 224.006 72.1279C223.742 72.1131 223.474 72.0628 223.207 72.0527C222.943 72.0425 222.669 72.1215 222.401 72.1161C222.137 72.1107 221.866 72.3443 221.598 72.3437C221.329 72.3431 221.038 72.0745 220.772 72.0964C220.504 72.1185 220.261 72.431 219.998 72.4754C219.734 72.5201 219.493 72.6609 219.235 72.7274C218.975 72.7943 218.656 72.6729 218.404 72.761C218.152 72.8493 217.878 72.9186 217.634 73.0274C217.39 73.1365 217.245 73.4562 217.011 73.5851C216.777 73.714 216.413 73.6421 216.191 73.79C215.968 73.9377 215.846 74.2383 215.636 74.4041C215.427 74.5695 215.269 74.7936 215.074 74.9762C214.879 75.1581 214.697 75.3487 214.517 75.547C214.339 75.744 214.389 76.1122 214.226 76.3246C214.064 76.5355 213.632 76.5446 213.487 76.7699C213.343 76.9932 213.363 77.3076 213.237 77.5442C213.114 77.7747 212.606 77.8034 212.483 78.0353C212.361 78.266 212.776 78.7805 212.653 79.0126C212.531 79.2435 211.857 79.186 211.734 79.4183C211.612 79.6494 212.004 80.1505 211.882 80.3829C211.76 80.6142 211.387 80.7147 211.264 80.9472C211.142 81.1786 210.805 81.2984 210.683 81.5311C210.561 81.7627 210.554 82.0544 210.432 82.2872C210.31 82.519 210.364 82.8424 210.243 83.0753C210.121 83.3073 209.914 83.4955 209.793 83.7285C209.672 83.9606 209.811 84.3274 209.689 84.5606C209.569 84.7928 209.139 84.8662 209.017 85.0994C208.897 85.3318 209.104 85.7334 208.983 85.9667C208.862 86.1992 208.347 86.2292 208.226 86.4627C208.105 86.6953 208.162 87.0193 208.041 87.2529C207.921 87.4857 208.024 87.8333 207.903 88.0669C207.783 88.2998 207.5 88.4494 207.379 88.6831C207.259 88.9161 207.053 89.1054 206.932 89.3392C206.812 89.5723 206.507 89.7113 206.387 89.9452C206.267 90.1784 206.187 90.4326 206.067 90.6666C205.947 90.9 205.922 91.1818 205.802 91.4159C205.683 91.6493 205.405 91.8029 205.285 92.0371C205.166 92.2706 205.201 92.5829 205.081 92.8171C204.961 93.0508 205.14 93.4354 205.02 93.6698C204.901 93.9035 204.263 93.8755 204.144 94.1098C204.025 94.3436 203.94 94.5952 203.82 94.8297C203.701 95.0636 204.039 95.5285 203.92 95.763C203.801 95.9969 203.522 96.1508 203.403 96.3854C203.284 96.6194 203.179 96.8606 203.06 97.0952C202.941 97.3294 202.674 97.4896 202.555 97.7243C202.437 97.9585 202.396 98.2323 202.277 98.467C202.158 98.7013 202.116 98.9743 201.997 99.2091C201.878 99.4435 201.595 99.5952 201.476 99.83C201.357 100.064 201.191 100.274 201.072 100.508C200.954 100.742 201.133 101.125 201.014 101.36C200.896 101.594 200.554 101.716 200.436 101.951C200.317 102.185 200.369 102.504 200.25 102.739C200.132 102.973 199.84 103.12 199.722 103.355C199.604 103.589 199.56 103.861 199.441 104.095C199.323 104.33 198.964 104.444 198.846 104.679C198.728 104.913 198.95 105.318 198.831 105.553C198.713 105.787 198.711 106.08 198.593 106.315C198.475 106.549 198.393 106.802 198.275 107.037C198.157 107.272 197.775 107.375 197.657 107.61C197.539 107.845 197.344 108.041 197.226 108.277C197.108 108.511 197.32 108.911 197.202 109.146C197.084 109.381 196.611 109.439 196.493 109.674C196.375 109.909 196.365 110.198 196.247 110.434C196.129 110.669 196.208 111.002 196.09 111.237C195.972 111.472 195.838 111.699 195.72 111.934C195.601 112.169 195.537 112.43 195.419 112.665C195.301 112.9 195.143 113.115 195.024 113.35C194.906 113.585 194.788 113.82 194.669 114.055C194.551 114.291 194.224 114.422 194.106 114.657C193.988 114.892 193.856 115.121 193.738 115.356C193.619 115.591 193.357 115.755 193.239 115.99C193.121 116.226 193.307 116.613 193.189 116.848C193.071 117.084 193.093 117.39 192.975 117.625C192.857 117.861 192.303 117.879 192.184 118.115C192.066 118.35 192.04 118.632 191.922 118.868C191.803 119.103 191.765 119.379 191.646 119.614C191.528 119.85 191.475 120.119 191.357 120.354C191.238 120.59 191.119 120.825 191 121.061C190.882 121.297 190.763 121.532 190.645 121.768C190.526 122.003 190.509 122.289 190.39 122.525C190.272 122.76 190.092 122.965 189.974 123.201C189.855 123.436 189.422 123.515 189.304 123.75C189.185 123.986 189.405 124.391 189.287 124.626C189.168 124.862 188.745 124.945 188.626 125.181C188.507 125.416 188.716 125.815 188.597 126.051C188.478 126.286 188.168 126.426 188.049 126.662C187.93 126.897 187.825 127.14 187.706 127.375C187.587 127.611 187.573 127.898 187.454 128.134C187.334 128.369 186.832 128.413 186.713 128.648C186.594 128.883 186.679 129.221 186.559 129.456C186.44 129.692 186.238 129.885 186.118 130.121C185.999 130.356 185.892 130.598 185.773 130.833C185.654 131.069 185.772 131.424 185.652 131.659C185.533 131.894 185.194 132.019 185.074 132.254C184.955 132.49 185.179 132.899 185.059 133.134C184.94 133.369 184.774 133.581 184.654 133.817C184.535 134.052 184.144 134.15 184.024 134.385C183.904 134.621 184.024 134.977 183.904 135.212C183.784 135.448 183.668 135.685 183.548 135.92C183.428 136.155 183.237 136.354 183.117 136.589C182.996 136.825 182.707 136.974 182.586 137.208C182.466 137.444 182.176 137.593 182.056 137.827C181.935 138.062 182.234 138.511 182.113 138.745C181.993 138.981 181.624 139.089 181.504 139.324C181.383 139.559 181.537 139.935 181.417 140.169C181.296 140.404 180.991 140.545 180.87 140.779C180.749 141.014 180.431 141.148 180.31 141.383C180.189 141.618 180.324 141.984 180.203 142.218C180.081 142.453 179.642 142.524 179.521 142.759C179.399 142.993 179.523 143.354 179.402 143.588C179.28 143.823 179.11 144.033 178.989 144.267C178.867 144.501 178.644 144.683 178.522 144.917C178.4 145.152 178.413 145.456 178.291 145.69C178.169 145.925 177.96 146.114 177.838 146.348C177.716 146.582 177.673 146.857 177.551 147.091C177.428 147.325 177.134 147.47 177.012 147.704C176.889 147.938 176.957 148.271 176.834 148.505C176.711 148.739 176.397 148.872 176.274 149.106C176.15 149.34 175.959 149.537 175.835 149.77C175.712 150.004 175.629 150.259 175.505 150.492C175.382 150.725 175.638 151.158 175.514 151.391C175.39 151.625 175.118 151.78 174.995 152.013C174.87 152.247 174.582 152.393 174.458 152.626C174.334 152.859 174.467 153.228 174.343 153.461C174.218 153.694 174.068 153.914 173.944 154.146C173.819 154.379 173.874 154.708 173.749 154.94C173.624 155.173 173.244 155.27 173.119 155.502C172.993 155.735 172.973 156.024 172.848 156.255C172.722 156.488 172.72 156.787 172.595 157.018C172.469 157.251 172.088 157.346 171.962 157.577C171.836 157.81 171.547 157.954 171.421 158.185C171.294 158.417 171.439 158.796 171.312 159.027C171.185 159.259 170.974 159.444 170.847 159.675C170.72 159.907 170.463 160.067 170.336 160.298C170.208 160.53 170.039 160.738 169.912 160.968C169.784 161.2 170.098 161.673 169.97 161.903C169.841 162.135 169.543 162.271 169.415 162.501C169.286 162.732 168.824 162.778 168.696 163.008C168.567 163.239 168.911 163.732 168.782 163.961C168.652 164.192 168.399 164.353 168.269 164.582C168.139 164.812 167.773 164.909 167.643 165.138C167.513 165.368 167.758 165.809 167.628 166.037C167.497 166.267 166.832 166.194 166.702 166.422C166.57 166.651 166.914 167.15 166.784 167.378C166.652 167.607 166.068 167.577 165.937 167.805C165.805 168.034 165.972 168.433 165.84 168.66C165.707 168.889 165.546 169.101 165.414 169.327C165.281 169.556 165.167 169.795 165.034 170.021C164.9 170.249 164.564 170.358 164.431 170.583C164.296 170.811 164.366 171.157 164.232 171.383C164.097 171.61 163.946 171.827 163.812 172.052C163.676 172.279 163.583 172.53 163.448 172.755C163.312 172.982 162.999 173.101 162.863 173.325C162.726 173.551 162.958 173.998 162.821 174.222C162.684 174.448 162.466 174.624 162.329 174.847C162.19 175.072 161.723 175.094 161.585 175.317C161.445 175.541 161.699 176.007 161.56 176.229C161.42 176.453 161.071 176.546 160.932 176.767C160.791 176.991 160.393 177.051 160.253 177.271C160.111 177.494 160.332 177.946 160.191 178.165C160.048 178.388 159.883 178.595 159.741 178.814C159.597 179.036 159.122 179.041 158.979 179.259C158.834 179.48 158.629 179.657 158.485 179.875C158.339 180.095 158.344 180.411 158.198 180.628C158.051 180.847 158.11 181.203 157.963 181.418C157.814 181.637 157.857 181.985 157.709 182.199C157.559 182.418 157.089 182.415 156.94 182.628C156.788 182.847 156.787 183.168 156.636 183.381C156.482 183.599 155.96 183.551 155.807 183.763C155.652 183.979 155.922 184.498 155.768 184.708C155.611 184.922 155.167 184.923 155.012 185.132C154.853 185.345 154.671 185.535 154.513 185.742C154.352 185.953 154.531 186.42 154.371 186.625C154.208 186.834 153.961 186.976 153.799 187.179C153.634 187.387 153.501 187.619 153.338 187.82C153.169 188.026 153.056 188.277 152.89 188.475C152.718 188.679 152.329 188.696 152.16 188.891C151.985 189.093 151.917 189.384 151.744 189.575C151.565 189.774 151.393 189.975 151.217 190.163C151.034 190.358 150.576 190.281 150.396 190.465C150.208 190.656 150.268 191.084 150.084 191.263C149.89 191.45 149.617 191.543 149.427 191.716C149.228 191.897 149.23 192.301 149.035 192.465C148.828 192.64 148.572 192.757 148.37 192.913C148.156 193.077 147.765 192.99 147.557 193.133C147.333 193.286 147.205 193.559 146.988 193.686C146.643 193.923 146.869 194.083 146.423 194.362C146.222 194.487 145.699 194.155 145.42 194.307C145.195 194.43 145.08 194.805 144.809 194.934C144.57 195.047 144.238 194.978 143.967 195.089C143.719 195.191 143.527 195.456 143.254 195.55C142.997 195.639 142.68 195.551 142.403 195.628C142.14 195.702 141.87 195.906 141.59 195.965C141.355 196.282 141.364 196.308 141.434 196.82C141.464 197.036 141.957 197.233 141.998 197.534C142.03 197.769 141.872 198.055 141.91 198.339C141.943 198.581 141.933 198.847 141.971 199.123C142.004 199.369 142.35 199.586 142.387 199.859C142.421 200.107 142.145 200.408 142.182 200.678C142.216 200.928 142.445 201.161 142.482 201.429C142.516 201.68 142.57 201.937 142.606 202.204C142.64 202.457 142.613 202.724 142.649 202.991C142.683 203.244 142.67 203.51 142.706 203.776C142.74 204.03 142.479 204.329 142.515 204.594C142.549 204.849 142.657 205.099 142.693 205.364C142.728 205.619 142.779 205.877 142.815 206.141C142.85 206.397 142.76 206.674 142.796 206.938C142.83 207.194 143.245 207.404 143.28 207.667C143.315 207.924 143.582 208.153 143.617 208.417C143.652 208.674 143.407 208.971 143.442 209.235C143.476 209.492 143.304 209.78 143.34 210.043C143.374 210.301 143.897 210.496 143.933 210.759C143.967 211.017 143.528 211.34 143.563 211.603C143.598 211.861 143.685 212.114 143.72 212.377C143.755 212.634 143.708 212.906 143.743 213.168C143.778 213.426 143.888 213.676 143.923 213.939C143.957 214.197 144.407 214.402 144.443 214.664C144.477 214.922 144.278 215.213 144.313 215.476C144.348 215.734 144.178 216.021 144.212 216.283C144.247 216.542 144.114 216.824 144.149 217.086C144.183 217.344 144.457 217.573 144.492 217.835C144.526 218.093 144.878 218.312 144.913 218.574C144.947 218.832 144.897 219.104 144.932 219.365C144.966 219.624 144.832 219.906 144.867 220.168C144.901 220.427 144.683 220.72 144.717 220.982C144.752 221.241 145.298 221.434 145.332 221.695C145.367 221.954 145.187 222.242 145.222 222.504C145.256 222.761 145.331 223.015 145.365 223.275C145.399 223.533 145.162 223.827 145.197 224.087C145.231 224.345 145.314 224.597 145.349 224.857C145.383 225.115 145.412 225.375 145.446 225.635C145.48 225.893 145.394 226.167 145.428 226.428C145.462 226.686 146.108 226.865 146.142 227.125C146.176 227.383 146.104 227.656 146.138 227.916C146.172 228.175 146.097 228.448 146.131 228.708C146.165 228.967 146.257 229.218 146.291 229.479C146.325 229.737 146.299 230.004 146.333 230.264C146.367 230.523 146.465 230.774 146.499 231.034C146.533 231.293 146.334 231.583 146.368 231.843C146.402 232.102 146.391 232.367 146.425 232.627C146.459 232.886 146.483 233.147 146.517 233.407C146.551 233.666 146.665 233.915 146.699 234.175C146.733 234.434 146.583 234.718 146.617 234.978C146.651 235.237 147.132 235.439 147.166 235.699C147.2 235.958 147.031 236.244 147.065 236.505C147.098 236.764 147.124 237.025 147.158 237.285C147.192 237.544 147.327 237.791 147.36 238.052C147.394 238.311 147.544 238.556 147.578 238.816C147.611 239.076 147.445 239.361 147.479 239.622C147.512 239.881 147.439 240.155 147.473 240.416C147.506 240.675 147.333 240.962 147.366 241.222C147.4 241.482 147.488 241.735 147.522 241.995C147.556 242.255 147.647 242.507 147.681 242.768C147.714 243.028 147.606 243.306 147.64 243.566C147.673 243.826 148.284 244.012 148.318 244.273C148.351 244.533 148.289 244.805 148.323 245.066C148.356 245.326 147.995 245.636 148.028 245.897C148.062 246.157 148.296 246.391 148.329 246.652C148.362 246.912 148.256 247.19 148.289 247.451C148.323 247.71 148.677 247.929 148.71 248.189C148.744 248.448 148.628 248.727 148.662 248.987C148.695 249.246 148.708 249.508 148.742 249.768C148.775 250.028 148.745 250.296 148.778 250.556C148.811 250.815 148.675 251.097 148.709 251.357C148.742 251.617 149.085 251.837 149.118 252.098C149.151 252.357 148.851 252.66 148.884 252.92C148.917 253.18 149.099 253.421 149.132 253.681C149.165 253.941 149.148 254.208 149.182 254.468C149.215 254.728 149.45 254.963 149.483 255.223C149.516 255.483 149.431 255.759 149.464 256.019C149.497 256.279 149.713 256.517 149.746 256.777C149.779 257.037 149.68 257.314 149.713 257.575C149.746 257.835 149.978 258.071 150.011 258.332C150.044 258.592 150.224 258.834 150.257 259.095C150.29 259.355 149.815 259.679 149.848 259.939C149.881 260.199 149.804 260.473 149.837 260.734C149.869 260.994 150.471 261.184 150.504 261.445C150.537 261.705 150.097 262.025 150.13 262.285C150.163 262.546 150.576 262.759 150.609 263.02C150.641 263.281 150.28 263.591 150.312 263.852C150.345 264.113 150.332 264.379 150.365 264.64C150.398 264.901 150.872 265.108 150.904 265.369C150.937 265.63 150.68 265.927 150.712 266.188C150.745 266.449 150.769 266.711 150.802 266.973C150.834 267.234 151.239 267.449 151.271 267.711C151.303 267.972 150.899 268.287 150.931 268.549C150.964 268.81 151.09 269.06 151.122 269.322C151.155 269.583 151.258 269.836 151.29 270.098C151.323 270.359 151.385 270.617 151.417 270.878C151.449 271.139 151.171 271.438 151.203 271.699C151.236 271.961 151.488 272.195 151.52 272.456C151.552 272.718 151.586 272.979 151.618 273.24C151.65 273.502 151.871 273.74 151.903 274.001C151.935 274.263 151.857 274.538 151.889 274.799C151.921 275.06 151.786 275.342 151.818 275.603C151.85 275.865 151.773 276.14 151.805 276.401C151.836 276.663 152.213 276.882 152.245 277.144C152.277 277.405 152.089 277.693 152.12 277.955C152.152 278.217 152.508 278.439 152.54 278.701C152.571 278.962 152.15 279.278 152.182 279.539C152.213 279.801 152.202 280.068 152.234 280.329C152.265 280.591 152.867 280.785 152.898 281.046C152.929 281.308 152.802 281.589 152.833 281.85C152.865 282.112 152.672 282.4 152.703 282.662C152.734 282.924 153.086 283.147 153.118 283.409C153.149 283.671 153.271 283.922 153.302 284.183C153.333 284.445 153.183 284.729 153.214 284.99C153.245 285.252 153.069 285.538 153.1 285.799C153.131 286.062 153.331 286.304 153.362 286.565C153.393 286.827 153.16 287.12 153.191 287.381C153.221 287.643 153.123 287.92 153.154 288.181C153.184 288.444 153.225 288.704 153.256 288.966C153.287 289.228 153.889 289.423 153.92 289.685C153.95 289.947 153.879 290.221 153.909 290.482C153.94 290.744 153.911 291.013 153.941 291.274C153.972 291.537 154.104 291.787 154.134 292.048C154.164 292.311 154.265 292.564 154.295 292.826C154.326 293.088 154.178 293.37 154.208 293.632C154.238 293.894 154.236 294.159 154.266 294.421C154.296 294.683 154.605 294.913 154.635 295.175C154.665 295.437 154.303 295.743 154.333 296.004C154.363 296.267 154.169 296.554 154.199 296.815C154.229 297.078 154.249 297.34 154.278 297.601C154.308 297.864 154.689 298.087 154.718 298.348C154.748 298.61 154.97 298.851 154.999 299.112C155.029 299.374 154.537 299.694 154.566 299.955C154.595 300.217 154.879 300.451 154.908 300.712C154.937 300.975 154.787 301.256 154.816 301.517C154.845 301.78 155.071 302.02 155.1 302.281C155.129 302.543 155.168 302.804 155.197 303.065C155.226 303.328 155.525 303.56 155.553 303.821C155.582 304.084 155.207 304.389 155.235 304.65C155.263 304.912 155.175 305.186 155.203 305.447C155.231 305.71 155.737 305.921 155.765 306.181C155.793 306.444 155.525 306.737 155.553 306.998C155.581 307.26 155.525 307.531 155.553 307.791C155.581 308.054 155.673 308.309 155.701 308.569C155.728 308.832 155.755 309.094 155.782 309.354C155.81 309.617 155.878 309.874 155.905 310.134C155.932 310.397 155.678 310.687 155.704 310.947C155.732 311.21 156.261 311.421 156.287 311.681C156.314 311.943 155.952 312.244 155.978 312.504C156.005 312.767 155.96 313.035 155.986 313.295C156.013 313.558 156.089 313.814 156.114 314.074C156.14 314.337 156.425 314.573 156.45 314.832C156.476 315.095 156.495 315.357 156.52 315.617C156.546 315.88 156.365 316.161 156.39 316.42C156.415 316.683 156.531 316.935 156.555 317.195C156.58 317.458 156.895 317.692 156.919 317.951C156.944 318.214 156.576 318.511 156.6 318.77C156.625 319.033 156.607 319.298 156.631 319.557C156.655 319.82 157.071 320.046 157.094 320.305C157.118 320.569 156.982 320.845 157.004 321.103C157.028 321.367 156.89 321.643 156.912 321.901C156.935 322.167 156.83 322.44 156.852 322.699C156.875 322.965 157.455 323.181 157.476 323.44C157.498 323.706 157.08 324.003 157.1 324.262C157.121 324.527 157.512 324.76 157.531 325.019C157.552 325.284 157.592 325.544 157.611 325.802C157.631 326.067 157.612 326.332 157.63 326.589C157.649 326.855 157.264 327.144 157.281 327.4C157.299 327.667 157.367 327.924 157.383 328.181C157.4 328.448 157.504 328.704 157.52 328.96C157.535 329.228 157.648 329.484 157.662 329.74C157.677 330.008 157.934 330.259 157.946 330.513C157.958 330.782 157.837 331.051 157.847 331.304C157.858 331.576 157.522 331.85 157.53 332.103C157.538 332.375 157.994 332.627 157.998 332.877C158.003 333.152 158.065 333.417 158.066 333.665C158.066 333.944 157.939 334.209 157.934 334.452C157.927 334.737 157.692 335.155 157.677 335.389C158.054 335.503 158.12 334.915 158.513 334.915C158.907 334.915 158.907 335.188 159.3 335.188C159.694 335.188 159.694 335.122 160.088 335.122C160.482 335.122 160.482 334.952 160.876 334.952C161.27 334.952 161.27 335.261 161.663 335.261C162.057 335.261 162.057 335.393 162.451 335.393C162.844 335.393 162.844 335.012 163.237 335.012C163.631 335.012 163.631 335.518 164.024 335.518C164.417 335.518 164.417 335.267 164.81 335.267C165.203 335.267 165.203 335.517 165.596 335.517C165.989 335.517 165.989 335.035 166.382 335.035C166.775 335.035 166.775 334.963 167.168 334.963C167.561 334.963 167.561 335.44 167.954 335.44C168.346 335.44 168.346 334.958 168.739 334.958C169.132 334.958 169.132 335.114 169.525 335.114C169.918 335.114 169.918 334.955 170.311 334.955C170.704 334.955 170.704 335.233 171.097 335.233C171.491 335.233 171.491 334.987 171.884 334.987C172.277 334.987 172.277 335.56 172.671 335.56C173.064 335.56 173.064 335.359 173.458 335.359C173.852 335.359 173.852 335.45 174.246 335.45C174.64 335.45 174.64 334.922 175.034 334.922C175.428 334.922 175.428 335.414 175.822 335.414C176.216 335.414 176.216 335.288 176.61 335.288C177.003 335.288 177.003 334.987 177.397 334.987C177.79 334.987 177.79 335.44 178.184 335.44C178.577 335.44 178.577 335.183 178.971 335.183C179.364 335.183 179.364 335.355 179.757 335.355C180.151 335.355 180.151 335.25 180.544 335.25C180.937 335.25 180.937 335.405 181.33 335.405C181.724 335.405 181.724 335.094 182.117 335.094C182.511 335.094 182.511 335.349 182.904 335.349C183.298 335.349 183.298 335.21 183.692 335.21C184.086 335.21 184.086 334.956 184.48 334.956C184.874 334.956 184.874 335.031 185.268 335.031C185.662 335.031 185.662 335.246 186.057 335.246C186.45 335.246 186.45 335.091 186.844 335.091C187.238 335.091 187.238 335.249 187.632 335.249C188.026 335.249 188.026 335.292 188.419 335.292C188.813 335.292 188.813 335.105 189.206 335.105C189.6 335.105 189.6 334.982 189.994 334.982C190.387 334.982 190.387 335.56 190.781 335.56C191.175 335.56 191.175 334.981 191.569 334.981C191.963 334.981 191.963 335.082 192.357 335.082C192.751 335.082 192.751 335.043 193.146 335.043C193.54 335.043 193.54 335.514 193.934 335.514C194.328 335.514 194.328 335.18 194.722 335.18C195.116 335.18 195.116 335.128 195.51 335.128C195.904 335.128 195.904 334.927 196.298 334.927C196.692 334.927 196.692 335.15 197.085 335.15C197.48 335.15 197.48 335.041 197.874 335.041C198.268 335.041 198.268 334.927 198.662 334.927C199.056 334.927 199.056 335.09 199.45 335.09C199.844 335.09 199.844 335.205 200.238 335.205C200.631 335.205 200.631 335.296 201.024 335.296C201.417 335.296 201.417 334.976 201.81 334.976C202.203 334.976 202.203 334.937 202.595 334.937C202.988 334.937 202.988 335.043 203.381 335.043C203.774 335.043 203.774 335.302 204.166 335.302C204.56 335.302 204.56 335.365 204.953 335.365C205.346 335.365 205.346 335.151 205.74 335.151C206.134 335.151 206.134 335.266 206.528 335.266C206.923 335.266 206.923 335.461 207.318 335.461C207.712 335.461 207.712 335.156 208.106 335.156C208.5 335.156 208.5 335.151 208.894 335.151C209.288 335.151 209.288 335.08 209.681 335.08C210.075 335.08 210.075 335.144 210.468 335.144C210.862 335.144 210.862 334.922 211.256 334.922C211.651 334.922 211.651 335.016 212.045 335.016C212.44 335.016 212.44 335.481 212.835 335.481C213.23 335.481 213.23 335.272 213.624 335.272C214.018 335.272 214.018 335.343 214.412 335.343C214.807 335.343 214.807 335.513 215.201 335.513C215.596 335.513 215.596 334.982 215.991 334.982C216.386 334.982 216.386 335.027 216.781 335.027C217.175 335.027 217.175 335.08 217.57 335.08C217.965 335.08 217.965 335.53 218.36 335.53C218.755 335.53 218.755 334.957 219.15 334.957C219.545 334.957 219.545 335.184 219.94 335.184C220.333 335.184 220.333 335.513 220.726 335.513C221.12 335.513 221.12 335.249 221.514 335.249C221.909 335.249 221.909 335.308 222.305 335.308C222.699 335.308 222.699 335.529 223.094 335.529C223.489 335.529 223.489 335.532 223.884 335.532C224.28 335.532 224.28 335.023 224.676 335.023C225.071 335.023 225.071 335.54 225.466 335.54C225.862 335.54 225.862 335.512 226.258 335.512C226.654 335.512 226.654 335.324 227.051 335.324C227.446 335.324 227.446 334.93 227.842 334.93C228.238 334.93 228.238 335.303 228.635 335.303C229.032 335.303 229.032 334.964 229.43 334.964C229.827 334.964 229.78 335.159 230.155 335.029C230.531 334.898 229.893 335.104 229.64 334.642C229.535 334.45 229.805 334.008 229.662 333.735C229.552 333.524 229.327 333.345 229.196 333.086C229.085 332.868 228.743 332.742 228.618 332.489C228.508 332.266 228.414 332.017 228.293 331.766C228.184 331.539 227.989 331.338 227.872 331.088C227.764 330.859 227.57 330.655 227.455 330.406C227.349 330.175 227.385 329.868 227.273 329.619C227.168 329.386 227.063 329.143 226.953 328.895C226.849 328.66 226.846 328.373 226.738 328.125C226.636 327.888 226.653 327.594 226.548 327.345C226.446 327.108 226.006 327.005 225.902 326.756C225.803 326.517 226.246 326.05 226.144 325.801C226.045 325.561 225.443 325.52 225.342 325.27C225.245 325.029 225.22 324.754 225.121 324.504C225.025 324.263 225.267 323.885 225.169 323.635C225.075 323.393 224.738 323.24 224.642 322.989C224.549 322.746 224.352 322.538 224.258 322.287C224.165 322.043 224.191 321.752 224.098 321.501C224.007 321.256 223.858 321.029 223.766 320.778C223.677 320.533 223.496 320.317 223.406 320.065C223.317 319.82 223.13 319.605 223.041 319.353C222.954 319.107 223.125 318.767 223.037 318.515C222.95 318.268 222.544 318.128 222.457 317.876C222.372 317.628 222.353 317.355 222.267 317.102C222.184 316.854 222.046 316.621 221.962 316.368C221.879 316.12 221.899 315.834 221.816 315.581C221.734 315.332 222.134 314.925 222.052 314.672C221.972 314.424 221.542 314.286 221.461 314.033C221.382 313.785 221.292 313.538 221.213 313.285C221.134 313.036 221.076 312.778 220.997 312.525C220.92 312.276 220.771 312.046 220.693 311.792C220.617 311.542 220.552 311.286 220.476 311.032C220.4 310.781 220.502 310.476 220.426 310.222C220.352 309.971 220.037 309.788 219.962 309.533C219.889 309.282 219.746 309.048 219.672 308.792C219.6 308.541 219.66 308.248 219.588 307.993C219.516 307.741 219.316 307.522 219.244 307.266C219.173 307.013 219.459 306.66 219.388 306.404C219.318 306.151 219.326 305.875 219.256 305.618C219.187 305.365 219.056 305.127 218.987 304.87C218.919 304.616 218.762 304.385 218.694 304.128C218.626 303.873 218.312 303.682 218.244 303.424C218.178 303.17 218.062 302.926 217.996 302.668C217.93 302.414 218.351 302.036 218.286 301.779C218.221 301.525 217.661 301.394 217.597 301.137C217.533 300.882 217.764 300.553 217.701 300.296C217.638 300.041 217.591 299.781 217.528 299.523C217.466 299.267 217.138 299.074 217.076 298.816C217.015 298.56 217.383 298.201 217.321 297.942C217.261 297.686 216.938 297.49 216.878 297.231C216.818 296.974 216.917 296.68 216.857 296.42C216.799 296.165 216.935 295.864 216.877 295.606C216.819 295.349 216.225 295.211 216.167 294.952C216.11 294.695 216.228 294.397 216.171 294.138C216.115 293.88 216.187 293.593 216.13 293.333C216.074 293.075 215.991 292.821 215.935 292.56C215.88 292.303 215.909 292.026 215.855 291.766C215.8 291.507 215.641 291.269 215.587 291.008C215.533 290.749 215.221 290.542 215.168 290.281C215.114 290.019 215.52 289.665 215.467 289.402C215.415 289.142 214.815 288.994 214.762 288.737C214.709 288.478 214.81 288.189 214.757 287.932C214.704 287.673 214.536 287.44 214.482 287.183C214.428 286.924 214.491 286.643 214.436 286.386C214.382 286.128 214.448 285.845 214.392 285.588C214.337 285.33 214.489 285.028 214.433 284.772C214.376 284.514 214.463 284.225 214.406 283.969C214.349 283.711 214.234 283.466 214.177 283.21C214.119 282.953 213.791 282.756 213.733 282.501C213.675 282.243 213.888 281.925 213.829 281.67C213.77 281.412 213.725 281.152 213.665 280.897C213.605 280.64 213.229 280.457 213.168 280.203C213.108 279.946 212.804 279.748 212.743 279.494C212.681 279.237 212.687 278.966 212.625 278.712C212.563 278.455 212.698 278.153 212.636 277.899C212.572 277.642 212.545 277.379 212.482 277.125C212.418 276.869 212.61 276.55 212.546 276.297C212.482 276.041 212.001 275.891 211.937 275.638C211.871 275.382 212.225 275.021 212.159 274.768C212.093 274.511 211.743 274.329 211.677 274.075C211.609 273.818 211.61 273.545 211.542 273.292C211.474 273.036 211.57 272.737 211.502 272.484C211.433 272.228 210.836 272.115 210.768 271.863C210.698 271.607 211.21 271.195 211.14 270.943C211.07 270.687 210.543 270.559 210.473 270.307C210.402 270.053 210.48 269.758 210.409 269.506C210.337 269.252 210.026 269.067 209.954 268.816C209.881 268.562 209.826 268.305 209.754 268.054C209.68 267.801 209.968 267.444 209.895 267.194C209.82 266.94 209.873 266.651 209.799 266.401C209.724 266.148 209.563 265.921 209.488 265.672C209.411 265.419 209.267 265.188 209.191 264.939C209.114 264.687 208.693 264.542 208.616 264.294C208.538 264.042 208.749 263.703 208.672 263.455C208.593 263.203 208.396 262.99 208.317 262.743C208.237 262.49 208.145 262.243 208.065 261.995C207.984 261.742 208.031 261.451 207.951 261.203C207.869 260.952 207.556 260.778 207.475 260.531C207.392 260.28 207.378 260.009 207.296 259.763C207.213 259.512 207.563 259.12 207.48 258.874C207.396 258.624 207.144 258.432 207.06 258.187C206.974 257.937 206.787 257.724 206.703 257.479C206.616 257.229 206.703 256.921 206.617 256.676C206.529 256.427 206.211 256.261 206.125 256.018C206.036 255.769 205.9 255.54 205.813 255.297C205.723 255.049 205.585 254.822 205.497 254.58C205.406 254.332 205.317 254.087 205.228 253.846C205.137 253.6 205.118 253.327 205.033 253.08C204.948 252.832 205.073 252.517 204.993 252.268C204.913 252.018 205.003 251.723 204.929 251.472C204.855 251.221 204.229 251.126 204.161 250.874C204.093 250.621 204.421 250.266 204.358 250.012C204.295 249.758 203.777 249.608 203.72 249.353C203.664 249.097 204.237 248.71 204.186 248.454C204.135 248.197 203.464 248.056 203.419 247.798C203.374 247.54 203.83 247.2 203.791 246.942C203.751 246.683 203.724 246.427 203.69 246.168C203.657 245.909 203.456 245.671 203.429 245.411C203.401 245.151 203.337 244.895 203.315 244.634C203.294 244.373 203.059 244.125 203.044 243.864C203.028 243.603 203.013 243.337 203.003 243.075C202.994 242.814 203.375 242.542 203.371 242.281C203.368 242.019 203.208 241.76 203.21 241.498C203.213 241.237 203.164 240.974 203.173 240.712C203.181 240.451 203.095 240.183 203.109 239.922C203.123 239.661 203.249 239.405 203.269 239.144C203.29 238.884 203.586 238.65 203.612 238.39C203.639 238.129 203.71 237.88 203.743 237.621C203.775 237.361 203.65 237.085 203.689 236.826C203.727 236.568 203.408 236.251 203.452 235.993C203.497 235.735 204 235.561 204.051 235.304C204.101 235.047 204.268 234.821 204.324 234.565C204.38 234.31 204.037 233.966 204.099 233.712C204.161 233.458 204.442 233.26 204.509 233.007C204.577 232.755 204.541 232.475 204.614 232.224C204.688 231.973 204.883 231.761 204.963 231.512C205.042 231.263 205.026 230.984 205.111 230.737C205.196 230.49 204.954 230.124 205.045 229.878C205.136 229.633 205.267 229.396 205.364 229.152C205.46 228.909 205.781 228.754 205.883 228.512C205.985 228.272 206.29 228.114 206.394 227.869C206.496 227.629 206.401 227.304 206.505 227.058C206.607 226.818 206.634 226.544 206.737 226.298C206.839 226.058 206.894 225.796 206.998 225.551C207.099 225.31 207.194 225.064 207.297 224.819C207.399 224.579 207.896 224.501 208 224.257C208.101 224.016 208.075 223.719 208.178 223.475C208.28 223.234 208.432 223.012 208.536 222.768C208.637 222.527 208.606 222.228 208.709 221.984C208.81 221.743 209.145 221.597 209.248 221.353C209.35 221.111 209.388 220.842 209.491 220.598C209.593 220.357 209.319 219.956 209.421 219.712C209.523 219.471 209.523 219.185 209.626 218.941C209.727 218.7 210.101 218.571 210.204 218.326C210.305 218.085 210.495 217.878 210.597 217.634C210.699 217.393 210.661 217.092 210.764 216.848C210.865 216.607 210.933 216.352 211.035 216.109C211.136 215.869 211.216 215.619 211.318 215.376C211.419 215.136 211.387 214.839 211.489 214.596C211.59 214.356 211.814 214.165 211.916 213.922C212.017 213.682 212.069 213.42 212.171 213.177C212.272 212.936 212.848 212.892 212.949 212.649C213.05 212.408 212.982 212.095 213.083 211.853C213.184 211.612 213.393 211.415 213.495 211.172C213.596 210.931 213.263 210.508 213.365 210.265C213.466 210.024 213.894 209.918 213.995 209.675C214.096 209.434 213.757 209.009 213.859 208.766C213.96 208.524 214.194 208.338 214.296 208.095C214.397 207.853 214.565 207.639 214.667 207.396C214.768 207.155 215.049 206.987 215.151 206.744C215.252 206.502 215.432 206.293 215.533 206.049C215.634 205.808 215.334 205.399 215.435 205.156C215.536 204.914 215.835 204.754 215.936 204.51C216.037 204.269 216.323 204.103 216.425 203.86C216.526 203.618 216.53 203.335 216.631 203.092C216.732 202.85 216.737 202.568 216.838 202.324C216.939 202.082 217.376 201.979 217.478 201.735C217.579 201.493 217.281 201.086 217.382 200.843C217.483 200.6 217.563 200.349 217.664 200.105C217.765 199.863 218.007 199.679 218.108 199.435C218.209 199.193 218.114 198.869 218.215 198.626C218.315 198.383 218.927 198.351 219.029 198.108C219.129 197.865 219.167 197.596 219.268 197.353C219.369 197.11 219.333 196.811 219.434 196.567C219.535 196.325 219.701 196.109 219.802 195.865C219.903 195.623 219.612 195.219 219.713 194.975C219.814 194.732 220.209 194.61 220.31 194.367C220.411 194.124 220.254 193.775 220.355 193.531C220.456 193.289 220.538 193.038 220.639 192.794C220.74 192.552 221.209 192.46 221.31 192.216C221.41 191.973 221.352 191.664 221.453 191.421C221.553 191.178 221.822 191.003 221.923 190.76C222.023 190.517 221.733 190.113 221.834 189.869C221.934 189.626 222.461 189.557 222.561 189.313C222.661 189.071 222.506 188.723 222.606 188.48C222.706 188.238 222.549 187.889 222.649 187.646C222.749 187.404 223.383 187.379 223.484 187.136C223.584 186.893 223.179 186.444 223.279 186.2C223.379 185.958 224.001 185.928 224.101 185.684C224.201 185.442 224.238 185.172 224.338 184.929C224.438 184.686 224.57 184.456 224.67 184.212C224.77 183.969 224.879 183.729 224.979 183.486C225.079 183.243 224.869 182.873 224.97 182.629C225.069 182.386 225.038 182.089 225.138 181.846C225.238 181.602 225.861 181.572 225.961 181.328C226.06 181.085 226.099 180.816 226.199 180.572C226.298 180.329 226.182 179.997 226.282 179.753C226.382 179.51 226.374 179.222 226.473 178.978C226.573 178.734 226.649 178.481 226.749 178.237C226.849 177.993 227.129 177.823 227.229 177.579C227.329 177.335 227.284 177.033 227.384 176.789C227.483 176.545 227.373 176.216 227.473 175.971C227.572 175.728 227.929 175.588 228.028 175.343C228.128 175.1 228.172 174.834 228.272 174.59C228.371 174.346 228.447 174.093 228.547 173.849C228.646 173.605 229.105 173.506 229.204 173.262C229.304 173.018 229.069 172.639 229.168 172.395C229.268 172.151 229.416 171.927 229.516 171.682C229.615 171.438 229.631 171.16 229.731 170.916C229.83 170.672 230.303 170.578 230.402 170.334C230.501 170.089 230.467 169.791 230.567 169.546C230.666 169.302 230.702 169.032 230.801 168.787C230.9 168.543 230.821 168.226 230.92 167.981C231.019 167.737 231.306 167.568 231.405 167.323C231.505 167.078 231.24 166.687 231.339 166.442C231.438 166.198 231.824 166.068 231.923 165.823C232.022 165.578 232.297 165.404 232.397 165.159C232.496 164.914 232.247 164.529 232.346 164.284C232.445 164.039 232.599 163.816 232.697 163.571C232.797 163.325 233.012 163.127 233.111 162.882C233.21 162.637 233.513 162.473 233.612 162.228C233.711 161.982 233.517 161.62 233.615 161.374C233.714 161.129 234.212 161.043 234.311 160.797C234.41 160.552 234.148 160.162 234.247 159.917C234.346 159.671 234.499 159.448 234.598 159.202C234.697 158.957 235.093 158.829 235.191 158.584C235.29 158.338 234.808 157.861 234.907 157.616C235.005 157.37 235.353 157.223 235.452 156.978C235.55 156.732 235.988 156.62 236.086 156.375C236.184 156.129 235.935 155.746 236.033 155.501C236.131 155.255 236.146 154.977 236.244 154.732C236.342 154.486 236.282 154.178 236.38 153.933C236.478 153.687 236.585 153.445 236.683 153.2C236.781 152.954 236.865 152.704 236.963 152.458C237.061 152.213 237.344 152.04 237.441 151.795C237.539 151.549 238 151.447 238.098 151.201C238.195 150.955 238.128 150.645 238.226 150.399C238.323 150.153 238.201 149.821 238.298 149.576C238.396 149.33 238.607 149.129 238.704 148.883C238.802 148.637 239.153 148.491 239.25 148.246C239.348 148 239.467 147.762 239.564 147.517C239.662 147.271 239.259 146.829 239.355 146.583C239.453 146.337 239.469 146.06 239.566 145.814C239.663 145.568 240.293 145.53 240.39 145.285C240.487 145.039 240.424 144.73 240.52 144.484C240.617 144.238 240.359 143.854 240.456 143.608C240.553 143.362 240.644 143.114 240.74 142.868C240.837 142.622 241.218 142.486 241.314 142.24C241.411 141.994 241.784 141.855 241.88 141.61C241.977 141.363 242.01 141.092 242.106 140.846C242.203 140.6 242.059 140.261 242.155 140.015C242.251 139.768 242.688 139.654 242.783 139.408C242.88 139.161 242.479 138.723 242.575 138.477C242.671 138.23 243.1 138.113 243.195 137.867C243.291 137.62 243.054 137.245 243.149 136.999C243.245 136.752 243.598 136.605 243.693 136.359C243.789 136.112 243.525 135.728 243.62 135.482C243.716 135.235 244.036 135.075 244.131 134.829C244.227 134.582 244.19 134.285 244.285 134.039C244.38 133.792 244.374 133.507 244.469 133.261C244.564 133.014 244.899 132.859 244.993 132.613C245.088 132.366 245.434 132.215 245.529 131.969C245.623 131.722 245.407 131.357 245.501 131.111C245.596 130.864 245.787 130.653 245.881 130.407C245.975 130.16 246.164 129.949 246.258 129.703C246.352 129.455 246.382 129.184 246.476 128.938C246.57 128.691 246.842 128.511 246.936 128.265C247.03 128.018 247.066 127.749 247.159 127.503C247.253 127.255 247.026 126.888 247.119 126.642C247.212 126.394 247.289 126.141 247.382 125.895C247.475 125.647 247.674 125.44 247.767 125.194C247.86 124.946 248.151 124.773 248.243 124.527C248.336 124.279 248.638 124.109 248.73 123.863C248.823 123.615 248.839 123.34 248.931 123.093C249.024 122.844 248.698 122.441 248.79 122.193C248.883 121.944 249.331 121.826 249.423 121.579C249.515 121.33 249.301 120.968 249.393 120.721C249.485 120.472 249.531 120.207 249.622 119.959C249.714 119.71 250.22 119.613 250.311 119.365C250.403 119.116 249.969 118.676 250.059 118.428C250.151 118.179 250.444 118.004 250.534 117.757C250.626 117.507 250.868 117.314 250.958 117.066C251.049 116.817 250.955 116.502 251.044 116.255C251.135 116.005 251.471 115.845 251.56 115.598C251.65 115.348 251.461 115 251.55 114.752C251.639 114.503 252.017 114.357 252.105 114.11C252.195 113.86 252.124 113.555 252.212 113.308C252.301 113.058 252.395 112.811 252.482 112.564C252.571 112.314 252.454 111.994 252.541 111.747C252.629 111.497 253.031 111.359 253.117 111.112C253.205 110.862 252.929 110.487 253.015 110.241C253.102 109.99 253.429 109.825 253.514 109.579C253.601 109.328 253.471 109.006 253.555 108.76C253.642 108.509 254.064 108.376 254.148 108.129C254.234 107.879 254.158 107.576 254.241 107.329C254.327 107.078 254.455 106.845 254.538 106.598C254.623 106.347 254.86 106.149 254.942 105.902C255.027 105.649 255.278 105.454 255.36 105.206C255.444 104.953 255.497 104.692 255.578 104.444C255.66 104.192 255.798 103.959 255.878 103.711C255.959 103.459 255.475 103.029 255.554 102.782C255.635 102.529 256.14 102.413 256.218 102.167C256.298 101.913 256.346 101.652 256.422 101.405C256.502 101.15 256.508 100.876 256.584 100.629C256.661 100.374 256.564 100.072 256.638 99.8253C256.715 99.5699 256.963 99.37 257.036 99.123C257.111 98.8675 257.122 98.5987 257.192 98.3524C257.266 98.0961 257.504 97.891 257.573 97.6449C257.646 97.3824 257.267 97.017 257.32 96.7524C257.374 96.4855 257.535 96.2524 257.569 95.9845C257.604 95.7146 258.03 95.4778 258.045 95.2079C258.061 94.9365 257.535 94.6556 257.531 94.3851C257.527 94.1135 258.048 93.8166 258.024 93.547C258.001 93.2765 257.882 93.0027 257.839 92.7352C257.797 92.4673 257.253 92.3026 257.192 92.0386C257.13 91.7746 257.695 91.3421 257.614 91.0831C257.534 90.8242 256.87 90.7657 256.771 90.5128C256.673 90.2604 256.558 90.0369 256.441 89.7915C256.325 89.5468 256.398 89.2194 256.265 88.9828C256.132 88.747 256.195 88.3875 256.045 88.1607C255.896 87.9352 255.531 87.8585 255.364 87.6429C255.199 87.4286 255.07 87.1897 254.888 86.9862C254.708 86.7843 254.688 86.4212 254.492 86.2308Z" fill="white"/>
<path d="M93.568 199.552C93.3024 199.255 93.366 199.283 92.9129 199.041C92.7155 198.936 92.4812 198.797 92.2074 198.66C91.9905 198.552 91.7918 198.338 91.5302 198.214C91.3043 198.108 90.92 198.298 90.6627 198.183C90.4308 198.08 90.1195 198.133 89.8636 198.025C89.6277 197.925 89.507 197.524 89.2517 197.422C89.0119 197.327 88.7954 197.14 88.5395 197.044C88.2965 196.953 88.0729 196.774 87.8162 196.684C87.5703 196.597 87.1949 196.861 86.9372 196.776C86.6889 196.694 86.55 196.247 86.2912 196.167C86.0406 196.09 85.6593 196.428 85.3995 196.354C85.1468 196.282 84.9763 195.893 84.7154 195.824C84.4607 195.758 84.1711 195.801 83.9091 195.739C83.6526 195.677 83.3191 195.946 83.056 195.89C82.7979 195.834 82.5259 195.865 82.2619 195.814C82.0023 195.765 81.7471 195.72 81.4821 195.676C81.2212 195.632 80.9713 195.551 80.7056 195.514C80.4434 195.477 80.1873 195.431 79.9208 195.4C79.6577 195.369 79.4492 194.79 79.1821 194.766C78.918 194.743 78.6235 195.048 78.356 195.031C78.0913 195.015 77.8325 194.811 77.5647 194.801C77.2995 194.792 77.0262 195.125 76.7582 195.124C76.4928 195.122 76.2243 194.821 75.9565 194.827C75.691 194.833 75.4305 195.025 75.1631 195.039C74.8981 195.054 74.6169 194.874 74.3502 194.897C74.0857 194.92 73.8624 195.34 73.5965 195.371C73.3328 195.402 73.0275 195.113 72.7627 195.153C72.5002 195.193 72.2454 195.295 71.982 195.344C71.7209 195.392 71.4429 195.374 71.1813 195.432C70.9221 195.489 70.7319 195.829 70.4725 195.896C70.2156 195.963 69.8534 195.658 69.5965 195.734C69.3423 195.81 69.0695 195.857 68.8154 195.943C68.5642 196.027 68.2879 196.074 68.0371 196.169C67.7893 196.262 67.5205 196.337 67.2733 196.441C67.0291 196.544 66.978 197.09 66.7347 197.203C66.4945 197.314 66.0722 197.061 65.833 197.183C65.5971 197.303 65.6342 197.932 65.3995 198.063C65.1681 198.191 64.6127 197.768 64.3827 197.907C64.1563 198.043 64.201 198.616 63.9761 198.763C63.7549 198.907 63.5559 199.075 63.3363 199.23C63.1204 199.382 62.9334 199.563 62.7192 199.725C62.5087 199.885 62.1481 199.851 61.9394 200.02C61.7342 200.187 61.402 200.211 61.1987 200.388C60.9994 200.561 60.9776 200.936 60.7803 201.119C60.5864 201.298 60.2701 201.355 60.0782 201.544C59.89 201.729 59.6154 201.84 59.4293 202.035C59.2508 202.222 59.0678 202.415 58.8891 202.61C58.7146 202.801 58.8259 203.251 58.6512 203.449C58.4805 203.644 58.0291 203.602 57.8581 203.804C57.6909 204.001 57.8506 204.472 57.6832 204.676C57.5192 204.877 57.1943 204.949 57.0301 205.156C56.8691 205.359 56.7418 205.591 56.5807 205.8C56.4226 206.005 56.2074 206.17 56.0491 206.381C55.8936 206.588 55.942 206.947 55.7864 207.16C55.6334 207.369 55.5387 207.619 55.3857 207.834C55.2351 208.045 54.6852 207.979 54.5346 208.195C54.3862 208.408 54.4817 208.791 54.3332 209.008C54.187 209.223 53.8046 209.282 53.6582 209.501C53.5139 209.717 53.4148 209.966 53.2705 210.187C53.1281 210.404 52.8284 210.524 52.686 210.746C52.5454 210.964 52.8342 211.457 52.6936 211.679C52.5547 211.899 51.9703 211.845 51.8314 212.068C51.6941 212.289 51.7248 212.616 51.5876 212.841C51.4519 213.063 51.2176 213.229 51.0819 213.454C50.9476 213.677 50.7416 213.861 50.6074 214.087C50.4746 214.311 50.4821 214.621 50.3493 214.848C50.2178 215.072 50.0496 215.279 49.9182 215.506C49.7879 215.732 49.7141 215.992 49.584 216.221C49.455 216.447 49.388 216.71 49.2591 216.939C49.1313 217.167 49.1074 217.453 48.9796 217.682C48.853 217.91 48.8414 218.202 48.7148 218.432C48.5892 218.661 48.2427 218.77 48.1171 219.001C47.9926 219.23 47.962 219.511 47.8375 219.742C47.714 219.972 47.4267 220.116 47.3032 220.348C47.1806 220.579 46.9791 220.769 46.8566 221.002C46.7354 221.232 47.0804 221.705 46.9593 221.937C46.839 222.168 46.6336 222.354 46.5134 222.587C46.394 222.818 45.8271 222.821 45.7077 223.054C45.589 223.286 45.7728 223.672 45.6543 223.905C45.5363 224.137 45.3966 224.359 45.2788 224.593C45.1616 224.825 44.9237 224.999 44.8067 225.233C44.6902 225.466 44.5771 225.702 44.4608 225.937C44.345 226.17 44.5056 226.54 44.39 226.774C44.2748 227.008 43.6967 227.018 43.5817 227.253C43.4673 227.488 43.5769 227.831 43.4625 228.067C43.3487 228.302 43.2064 228.524 43.0927 228.76C42.9794 228.995 42.9762 229.283 42.8631 229.519C42.7505 229.755 42.5234 229.937 42.4109 230.174C42.2987 230.409 42.4662 230.777 42.3542 231.014C42.2426 231.25 42.1908 231.514 42.0793 231.752C41.9683 231.988 41.3718 232 41.2608 232.237C41.1503 232.474 41.1793 232.776 41.0689 233.014C40.9589 233.251 41.0045 233.56 40.8945 233.798C40.785 234.035 40.788 234.324 40.6785 234.563C40.5694 234.8 40.5215 235.066 40.4125 235.304C40.3038 235.542 40.2119 235.788 40.1034 236.026C39.9954 236.264 39.5887 236.367 39.4808 236.606C39.3732 236.844 39.0398 236.981 38.9324 237.22C38.8251 237.458 39.2706 237.943 39.1635 238.182C39.0567 238.42 38.8834 238.629 38.7767 238.868C38.6701 239.107 38.3478 239.25 38.2415 239.49C38.1353 239.729 37.7747 239.856 37.6687 240.096C37.5628 240.335 37.5998 240.637 37.4941 240.877C37.3886 241.117 37.3438 241.383 37.2385 241.623C37.1333 241.863 37.0663 242.119 36.9612 242.359C36.8563 242.599 36.733 242.831 36.6282 243.072C36.5236 243.312 36.1837 243.451 36.0792 243.691C35.9749 243.932 35.955 244.208 35.8509 244.449C35.7469 244.689 35.6561 244.936 35.5522 245.177C35.4483 245.417 35.5894 245.763 35.4857 246.004C35.3821 246.244 35.476 246.569 35.3726 246.81C35.2692 247.052 34.7819 247.13 34.6787 247.371C34.5755 247.612 34.7944 247.99 34.6914 248.231C34.5884 248.473 34.3765 248.668 34.2737 248.91C34.1709 249.152 34.1082 249.41 34.0056 249.652C33.9029 249.894 33.6036 250.053 33.5011 250.295C33.3987 250.537 33.5931 250.903 33.4908 251.145C33.3885 251.388 33.1768 251.584 33.0747 251.826C32.9725 252.068 32.8956 252.321 32.7937 252.563C32.6916 252.806 32.4724 252.999 32.3706 253.242C32.2687 253.484 31.9435 253.634 31.8419 253.876C31.7401 254.119 31.8564 254.453 31.7549 254.695C31.6533 254.938 31.2733 255.065 31.172 255.308C31.0704 255.551 31.2875 255.926 31.1862 256.168C31.0848 256.411 30.7078 256.54 30.6067 256.783C30.5053 257.026 30.3321 257.239 30.2311 257.482C30.1299 257.725 30.4523 258.143 30.3513 258.386C30.2502 258.629 30.2587 258.917 30.1579 259.16C30.0568 259.404 29.9872 259.659 29.8864 259.902C29.7854 260.146 29.5477 260.332 29.447 260.575C29.346 260.818 28.867 260.906 28.7663 261.149C28.6654 261.392 28.495 261.607 28.3944 261.849C28.2935 262.093 28.5029 262.463 28.4023 262.706C28.3015 262.95 28.0655 263.137 27.965 263.38C27.8641 263.623 27.9628 263.948 27.8623 264.191C27.7615 264.434 27.5506 264.632 27.4501 264.874C27.3493 265.117 27.4523 265.444 27.3518 265.686C27.251 265.93 26.8399 266.045 26.7395 266.287C26.6386 266.531 26.4326 266.73 26.3322 266.972C26.2313 267.215 26.6255 267.662 26.525 267.904C26.4241 268.147 26.3806 268.413 26.2801 268.655C26.1792 268.898 25.9274 269.078 25.8268 269.32C25.7258 269.563 25.3035 269.673 25.2029 269.914C25.1018 270.157 24.9338 270.372 24.8331 270.613C24.732 270.856 24.9574 271.233 24.8566 271.474C24.7553 271.717 24.4605 271.878 24.3597 272.119C24.2583 272.362 24.4486 272.724 24.3476 272.965C24.2462 273.207 24.1289 273.442 24.0279 273.683C23.9262 273.925 23.7784 274.147 23.6772 274.388C23.5754 274.63 23.1309 274.727 23.0296 274.967C22.9276 275.209 23.0209 275.531 22.9194 275.771C22.8168 276.014 22.7549 276.273 22.6527 276.514C22.5499 276.756 22.5886 277.057 22.4864 277.297C22.3834 277.539 21.9154 277.625 21.813 277.865C21.7099 278.106 21.7226 278.395 21.62 278.634C21.5168 278.875 21.6337 279.209 21.531 279.447C21.4276 279.688 21.4516 279.982 21.3487 280.22C21.2445 280.461 20.9829 280.633 20.8793 280.872C20.7751 281.112 20.8409 281.424 20.7373 281.662C20.6325 281.902 20.4007 282.086 20.2965 282.324C20.1923 282.561 20.1449 282.823 20.0413 283.058C19.934 283.301 19.3523 283.336 19.2456 283.578C19.1383 283.822 19.3688 284.212 19.2621 284.454C19.1549 284.698 19.1008 284.964 18.9942 285.206C18.887 285.449 18.8155 285.708 18.709 285.95C18.6018 286.193 18.596 286.48 18.4895 286.722C18.3825 286.966 17.8365 287.017 17.7302 287.259C17.6232 287.503 17.5333 287.753 17.427 287.995C17.3202 288.238 17.1513 288.454 17.0452 288.696C16.9384 288.94 17.0273 289.268 16.9212 289.51C16.8146 289.753 16.5542 289.929 16.4483 290.171C16.3417 290.415 16.2267 290.654 16.1209 290.896C16.0145 291.14 16.0968 291.464 15.9911 291.707C15.8848 291.95 15.5905 292.112 15.4849 292.354C15.3787 292.598 15.5228 292.948 15.4174 293.191C15.3113 293.434 14.872 293.533 14.7668 293.776C14.6609 294.019 14.6159 294.289 14.5108 294.531C14.4051 294.775 14.3442 295.037 14.2393 295.279C14.1337 295.523 14.0387 295.77 13.934 296.013C13.8286 296.256 14.0605 296.644 13.956 296.886C13.8508 297.13 13.6149 297.317 13.5106 297.559C13.4056 297.803 13.3971 298.087 13.2931 298.33C13.1883 298.574 13.0945 298.821 12.9907 299.063C12.8861 299.308 12.9349 299.615 12.8313 299.858C12.727 300.102 12.5357 300.308 12.4323 300.55C12.3282 300.795 11.7367 300.832 11.6337 301.075C11.5298 301.319 11.7624 301.704 11.6597 301.946C11.556 302.191 11.7077 302.541 11.6052 302.783C11.5019 303.028 10.8649 303.048 10.7627 303.29C10.6597 303.535 10.5998 303.797 10.498 304.039C10.3952 304.284 10.5912 304.652 10.4897 304.894C10.3873 305.139 10.4504 305.451 10.3493 305.693C10.2473 305.938 9.90311 306.082 9.80237 306.325C9.70068 306.57 9.83989 306.912 9.73955 307.155C9.63825 307.4 9.48157 307.621 9.38166 307.864C9.28076 308.109 8.78357 308.191 8.68411 308.434C8.58363 308.68 8.53859 308.947 8.4396 309.19C8.33957 309.435 8.24347 309.681 8.14498 309.924C8.04543 310.17 8.14658 310.495 8.04862 310.738C7.94956 310.984 7.74106 311.184 7.64364 311.428C7.54511 311.674 7.50229 311.94 7.40547 312.184C7.30749 312.43 7.40242 312.75 7.30621 312.994C7.20883 313.24 7.11005 313.484 7.0145 313.727C6.91774 313.974 6.69189 314.169 6.59703 314.412C6.50093 314.659 6.57842 314.971 6.4843 315.214C6.3889 315.462 5.95059 315.576 5.85725 315.82C5.7626 316.067 5.59808 316.287 5.50557 316.531C5.41171 316.779 5.25811 317.003 5.16648 317.247C5.07347 317.495 4.91535 317.718 4.82466 317.962C4.7325 318.211 4.84875 318.534 4.75901 318.779C4.66714 319.029 4.83844 319.373 4.74915 319.619C4.65836 319.87 4.38623 320.053 4.29814 320.3C4.20852 320.551 3.81789 320.695 3.7311 320.942C3.64272 321.193 3.65944 321.48 3.57403 321.727C3.487 321.979 3.73869 322.343 3.65477 322.59C3.56918 322.842 3.42362 323.071 3.34131 323.318C3.25728 323.57 2.8754 323.723 2.79483 323.97C2.71249 324.223 3.00032 324.591 2.92164 324.839C2.84114 325.092 2.39688 325.229 2.32026 325.477C2.24175 325.731 2.30002 326.024 2.22564 326.272C2.14919 326.526 1.84409 326.713 1.77206 326.961C1.69788 327.217 1.64911 327.479 1.57969 327.728C1.50809 327.985 1.61958 328.29 1.5531 328.54C1.48443 328.798 1.32705 329.031 1.26392 329.281C1.19845 329.54 1.09896 329.79 1.03954 330.041C0.97802 330.301 1.27802 330.639 1.22308 330.889C1.16572 331.151 0.697845 331.324 0.647761 331.576C0.595354 331.839 0.849477 332.157 0.80516 332.409C0.758703 332.673 0.541458 332.906 0.504033 333.158C0.464417 333.425 0.730423 333.725 0.701093 333.978C0.670057 334.246 0.647896 334.501 0.628574 334.753C0.607901 335.022 0.645985 335.088 0.63896 335.339C0.901248 335.339 0.982342 335.54 1.24857 335.54C1.51098 335.54 1.77528 335.389 2.04142 335.389C2.30236 335.389 2.56508 335.68 2.82952 335.68C3.09064 335.68 3.35343 335.557 3.61787 335.557C3.87914 335.557 4.14202 335.565 4.40645 335.565C4.66788 335.565 4.93083 335.469 5.19527 335.469C5.45684 335.469 5.71987 335.408 5.98431 335.408C6.24602 335.408 6.50911 335.455 6.77356 335.455C7.0354 335.455 7.29857 335.487 7.56302 335.487C7.82499 335.487 8.08822 335.698 8.35268 335.698C8.61477 335.698 8.87807 335.193 9.14253 335.193C9.40474 335.193 9.6681 335.425 9.93257 335.425C10.1949 335.425 10.4583 335.451 10.7228 335.451C10.9852 335.451 11.2487 335.748 11.5132 335.748C11.7757 335.748 12.0393 335.334 12.3038 335.334C12.5664 335.334 12.83 335.701 13.0945 335.701C13.3572 335.701 13.6209 335.285 13.8854 335.285C14.1482 335.285 14.4119 335.817 14.6765 335.817C14.9394 335.817 15.2031 335.8 15.4677 335.8C15.7307 335.8 15.9945 335.695 16.259 335.695C16.5221 335.695 16.7859 335.428 17.0505 335.428C17.3137 335.428 17.5775 335.627 17.8421 335.627C18.1054 335.627 18.3693 335.61 18.6339 335.61C18.8972 335.61 19.1612 335.8 19.4258 335.8C19.6892 335.8 19.9532 335.251 20.2178 335.251C20.4812 335.251 20.7453 335.336 21.0099 335.336C21.2734 335.336 21.5375 335.197 21.8021 335.197C22.0657 335.197 22.3299 335.192 22.5945 335.192C22.8582 335.192 23.1223 335.513 23.387 335.513C23.6499 335.513 23.9133 335.828 24.1771 335.828C24.4402 335.828 24.7037 335.641 24.9676 335.641C25.2308 335.641 25.4944 335.645 25.7584 335.645C26.0217 335.645 26.2854 335.337 26.5494 335.337C26.8129 335.337 27.0766 335.535 27.3408 335.535C27.6043 335.535 27.8682 335.651 28.1323 335.651C28.396 335.651 28.6599 335.647 28.9241 335.647C29.1879 335.647 29.4519 335.778 29.7162 335.778C29.9801 335.778 30.2442 335.268 30.5085 335.268C30.7725 335.268 31.0366 335.562 31.301 335.562C31.5651 335.562 31.8293 335.484 32.0938 335.484C32.3576 335.484 32.6216 335.7 32.8857 335.7C33.1497 335.7 33.4138 335.541 33.6781 335.541C33.9422 335.541 34.2065 335.204 34.4709 335.204C34.7352 335.204 34.9997 335.584 35.2642 335.584C35.5287 335.584 35.7932 335.376 36.0579 335.376C36.3225 335.376 36.5872 335.85 36.852 335.85C37.1168 335.85 37.3816 335.572 37.6465 335.572C37.9114 335.572 38.1764 335.446 38.4414 335.446C38.7065 335.446 38.9716 335.52 39.2366 335.52C39.5019 335.52 39.7671 335.748 40.0322 335.748C40.2976 335.748 40.5629 335.823 40.8282 335.823C41.0932 335.823 41.3581 335.466 41.623 335.466C41.8881 335.466 42.1531 335.827 42.4179 335.827C42.6831 335.827 42.9481 335.831 43.213 335.831C43.4782 335.831 43.7433 335.533 44.0082 335.533C44.2735 335.533 44.5386 335.637 44.8035 335.637C45.0688 335.637 45.334 335.409 45.5989 335.409C45.8643 335.409 46.1295 335.81 46.3944 335.81C46.6599 335.81 46.9251 335.761 47.19 335.761C47.4555 335.761 47.7208 335.424 47.9857 335.424C48.2513 335.424 48.5165 335.203 48.7815 335.203C49.0471 335.203 49.3124 335.785 49.5773 335.785C49.843 335.785 50.1083 335.467 50.3732 335.467C50.6389 335.467 50.9043 335.493 51.1692 335.493C51.435 335.493 51.7003 335.392 51.9652 335.392C52.231 335.392 52.4964 335.226 52.7613 335.226C53.0272 335.226 53.2926 335.544 53.5575 335.544C53.8233 335.544 54.0887 335.561 54.3536 335.561C54.6195 335.561 54.885 335.251 55.1498 335.251C55.4158 335.251 55.6812 335.801 55.946 335.801C56.212 335.801 56.4774 335.66 56.7422 335.66C57.0083 335.66 57.2737 335.718 57.5385 335.718C57.8046 335.718 58.07 335.815 58.3347 335.815C58.6008 335.815 58.8662 335.838 59.1309 335.838C59.3971 335.838 59.6625 335.507 59.9272 335.507C60.1933 335.507 60.4587 335.515 60.7233 335.515C60.9895 335.515 61.2549 335.413 61.5195 335.413C61.7857 335.413 62.0511 335.279 62.3156 335.279C62.5819 335.279 62.8472 335.658 63.1117 335.658C63.3779 335.658 63.6433 335.465 63.9077 335.465C64.174 335.465 64.4393 335.828 64.7036 335.828C64.9699 335.828 65.2352 335.569 65.4995 335.569C65.7658 335.569 66.0311 335.601 66.2953 335.601C66.5616 335.601 66.8269 335.272 67.0909 335.272C67.3573 335.272 67.6225 335.775 67.8865 335.775C68.1529 335.775 68.418 335.298 68.6819 335.298C68.9483 335.298 69.2135 335.532 69.4773 335.532C69.7437 335.532 70.0087 335.439 70.2724 335.439C70.5388 335.439 70.8039 335.459 71.0674 335.459C71.3339 335.459 71.5988 335.432 71.8623 335.432C72.1287 335.432 72.3936 335.436 72.6569 335.436C72.9233 335.436 73.1882 335.22 73.4513 335.22C73.7178 335.22 73.9825 335.594 74.2455 335.594C74.512 335.594 74.7767 335.575 75.0395 335.575C75.306 335.575 75.5706 335.384 75.8332 335.384C76.0997 335.384 76.3642 335.582 76.6266 335.582C76.8931 335.582 77.1575 335.267 77.4197 335.267C77.6862 335.267 77.9505 335.774 78.2125 335.774C78.479 335.774 78.7432 335.252 79.0049 335.252C79.2715 335.252 79.5355 335.464 79.7969 335.464C80.0635 335.464 80.3274 335.412 80.5885 335.412C80.8551 335.412 81.1189 335.33 81.3796 335.33C81.6465 335.33 81.9103 335.772 82.1709 335.772C82.4382 335.772 82.7022 335.34 82.9626 335.34C83.2304 335.34 83.4944 335.577 83.7547 335.577C84.0228 335.577 84.287 335.766 84.547 335.766C84.8155 335.766 85.0797 335.802 85.3394 335.802C85.6083 335.802 85.8724 335.714 86.1317 335.714C86.401 335.714 86.665 335.419 86.9236 335.419C87.1934 335.419 87.4572 335.419 87.715 335.419C87.9852 335.419 88.2488 335.716 88.5055 335.716C88.7768 335.716 89.0405 335.853 89.2963 335.853C89.5698 335.853 89.8343 335.301 90.0896 335.301C90.3649 335.301 90.6294 335.495 90.8829 335.495C91.16 335.495 91.4238 335.812 91.6739 335.812C91.9547 335.812 92.2182 335.767 92.4638 335.767C92.7511 335.767 93.0139 335.394 93.2513 335.394C93.557 335.394 93.8204 335.7 94.0397 335.7C94.5551 335.7 94.9211 335.554 94.9211 335.554C95.0417 335.184 94.7701 335.231 94.9065 334.738C94.9641 334.529 95.3198 334.355 95.3942 334.063C95.4521 333.835 95.1337 333.491 95.1994 333.214C95.2555 332.978 95.7243 332.819 95.7847 332.548C95.8383 332.307 95.4258 331.953 95.4819 331.685C95.5329 331.441 95.9189 331.255 95.9712 330.989C96.0196 330.743 96.1518 330.502 96.2008 330.237C96.2466 329.989 96.4348 329.756 96.4807 329.492C96.5241 329.243 96.1026 328.908 96.1456 328.645C96.1865 328.394 96.4831 328.178 96.5234 327.914C96.5618 327.662 96.6397 327.41 96.6773 327.147C96.7134 326.894 96.6891 326.628 96.7242 326.365C96.7579 326.111 97.058 325.885 97.0906 325.622C97.122 325.368 97.0648 325.097 97.095 324.834C97.1241 324.579 97.0051 324.303 97.0328 324.04C97.0597 323.785 96.6835 323.487 96.7089 323.224C96.7336 322.969 97.077 322.741 97.1001 322.478C97.1226 322.222 97.4239 321.985 97.4448 321.722C97.4652 321.466 97.3379 321.194 97.3566 320.932C97.3748 320.676 97.0948 320.398 97.1112 320.136C97.1273 319.88 97.4448 319.638 97.4591 319.376C97.4732 319.119 97.1454 318.843 97.1576 318.58C97.1696 318.323 97.6683 318.083 97.6784 317.82C97.6883 317.562 97.6681 317.298 97.6762 317.035C97.6841 316.777 97.2708 316.505 97.2768 316.242C97.2826 315.985 97.3673 315.728 97.3712 315.466C97.3751 315.208 97.4995 314.95 97.5013 314.688C97.5032 314.429 97.3112 314.168 97.3111 313.905C97.3109 313.645 97.2018 313.386 97.1997 313.123C97.1975 312.864 97.4807 312.601 97.4766 312.339C97.4725 312.079 97.4457 311.817 97.4395 311.554C97.4334 311.294 97.6317 311.026 97.6235 310.762C97.6153 310.496 97.5013 310.234 97.4926 309.971C97.4838 309.705 97.2605 309.448 97.2512 309.184C97.2419 308.919 97.437 308.647 97.4272 308.384C97.4174 308.118 97.4192 307.853 97.409 307.59C97.3987 307.324 97.5237 307.055 97.5131 306.791C97.5023 306.526 97.1554 306.276 97.1444 306.013C97.1333 305.747 96.9966 305.489 96.9853 305.226C96.9738 304.961 97.3496 304.68 97.3379 304.417C97.3262 304.152 97.1014 303.898 97.0895 303.635C97.0776 303.369 96.9703 303.109 96.9582 302.845C96.946 302.579 97.2848 302.298 97.2726 302.035C97.2603 301.769 97.032 301.515 97.0197 301.251C97.0074 300.986 96.9511 300.724 96.9389 300.46C96.9265 300.195 97.2543 299.916 97.2421 299.652C97.2298 299.388 97.2434 299.123 97.2313 298.859C97.2191 298.595 97.1721 298.333 97.1601 298.069C97.1481 297.805 96.7255 297.559 96.7137 297.295C96.702 297.031 96.9759 296.755 96.9645 296.491C96.9531 296.227 96.8933 295.966 96.8822 295.703C96.8712 295.439 96.8911 295.175 96.8805 294.911C96.8699 294.648 96.9931 294.38 96.983 294.117C96.973 293.854 96.9224 293.593 96.9129 293.33C96.9034 293.068 96.5745 292.816 96.5657 292.553C96.5568 292.291 96.8603 292.018 96.8521 291.755C96.8439 291.493 96.4455 291.242 96.438 290.979C96.4306 290.717 96.5108 290.452 96.5041 290.189C96.4975 289.927 96.6362 289.661 96.6304 289.398C96.6246 289.135 96.4184 288.876 96.4134 288.612C96.4085 288.349 96.7026 288.081 96.6986 287.817C96.6946 287.554 96.7999 287.29 96.7969 287.026C96.7939 286.763 96.3801 286.504 96.3781 286.24C96.3762 285.977 96.6313 285.712 96.6304 285.448C96.6295 285.185 96.6055 284.922 96.6057 284.658C96.6059 284.395 96.7003 284.132 96.7016 283.868C96.7028 283.606 96.7657 283.345 96.7682 283.082C96.7706 282.821 96.7892 282.56 96.7928 282.296C96.7964 282.035 96.4138 281.766 96.4185 281.503C96.4233 281.241 96.519 280.98 96.5249 280.716C96.5309 280.454 96.2916 280.185 96.2988 279.921C96.3059 279.659 96.3007 279.395 96.3091 279.131C96.3174 278.869 96.4722 278.609 96.4818 278.345C96.4914 278.083 96.5028 277.819 96.5137 277.555C96.5244 277.293 96.6322 277.033 96.6443 276.769C96.6563 276.506 96.8549 276.252 96.8682 275.987C96.8814 275.725 96.6943 275.451 96.7088 275.186C96.7232 274.924 97.1444 274.683 97.1602 274.418C97.1758 274.156 96.7173 273.863 96.7342 273.598C96.7511 273.335 96.7008 273.066 96.719 272.801C96.7369 272.539 96.8397 272.282 96.859 272.018C96.8781 271.756 96.9609 271.497 96.9814 271.233C97.0018 270.971 97.1888 270.72 97.2105 270.455C97.232 270.193 97.3781 269.94 97.4009 269.675C97.4235 269.413 97.2296 269.132 97.2535 268.868C97.2773 268.605 97.1826 268.33 97.2077 268.065C97.2325 267.803 97.292 267.542 97.3181 267.277C97.3443 267.013 97.3458 266.743 97.3734 266.475C97.3997 266.219 97.2035 265.939 97.229 265.676C97.2539 265.419 97.6642 265.196 97.6883 264.933C97.7117 264.676 97.3677 264.384 97.3903 264.122C97.4125 263.864 97.439 263.606 97.4604 263.343C97.4813 263.086 97.5663 262.832 97.5865 262.569C97.6063 262.311 98.1082 262.087 98.1272 261.824C98.1459 261.566 97.7706 261.278 97.7885 261.015C97.8061 260.757 98.1646 260.519 98.1815 260.256C98.1981 259.998 97.9559 259.721 97.9718 259.459C97.9875 259.2 97.9036 258.934 97.9185 258.671C97.9333 258.413 98.1884 258.165 98.2025 257.903C98.2164 257.644 98.3095 257.387 98.3227 257.124C98.3357 256.865 98.3994 256.606 98.4117 256.344C98.4239 256.084 98.2009 255.813 98.2124 255.55C98.2238 255.291 98.4465 255.039 98.4572 254.776C98.4677 254.518 98.6283 254.263 98.6381 254.003C98.6479 253.744 98.5204 253.479 98.5295 253.218C98.5385 252.959 98.2143 252.688 98.2226 252.427C98.2309 252.168 98.2643 251.909 98.2719 251.648C98.2795 251.389 98.3467 251.13 98.3536 250.869C98.3605 250.61 98.1018 250.343 98.108 250.082C98.1142 249.823 98.4899 249.571 98.4954 249.309C98.5008 249.05 98.7027 248.793 98.7075 248.531C98.7123 248.271 98.3529 248.004 98.357 247.743C98.3611 247.483 98.2765 247.221 98.2799 246.96C98.2833 246.7 98.7984 246.445 98.8011 246.183C98.8038 245.923 98.3988 245.658 98.4008 245.397C98.4029 245.136 98.5797 244.876 98.581 244.615C98.5824 244.354 98.2935 244.092 98.2942 243.831C98.2949 243.571 98.7528 243.311 98.7528 243.05C98.7529 242.79 98.8204 242.529 98.8197 242.268C98.819 242.007 98.1874 241.749 98.1861 241.488C98.1847 241.227 98.5701 240.964 98.5681 240.703C98.566 240.442 98.2017 240.185 98.199 239.924C98.1963 239.663 98.2368 239.402 98.2334 239.141C98.23 238.879 98.7797 238.61 98.7756 238.349C98.7714 238.088 98.2725 237.834 98.2677 237.573C98.2629 237.312 98.1273 237.053 98.1218 236.792C98.1163 236.53 98.6892 236.256 98.6829 235.994C98.6767 235.733 98.4746 235.476 98.4676 235.214C98.4607 234.952 98.1344 234.7 98.1267 234.438C98.119 234.176 98.4258 233.905 98.4173 233.643C98.4088 233.381 98.2812 233.124 98.272 232.862C98.2627 232.6 98.5227 232.328 98.5127 232.066C98.5027 231.804 98.0982 231.558 98.0874 231.296C98.0766 231.034 97.9975 230.776 97.9859 230.514C97.9743 230.252 98.4397 229.968 98.4273 229.706C98.4149 229.444 98.2252 229.19 98.212 228.929C98.1987 228.667 97.8049 228.425 97.7908 228.163C97.7767 227.901 98.2118 227.615 98.1969 227.353C98.1819 227.091 97.7976 226.851 97.7818 226.589C97.7659 226.327 97.8287 226.061 97.8119 225.8C97.7951 225.537 98.2331 225.245 98.2154 224.984C98.1976 224.722 97.7484 224.49 97.7298 224.229C97.7111 223.966 97.6456 223.709 97.626 223.448C97.6063 223.185 97.8918 222.9 97.8712 222.64C97.8504 222.377 97.7703 222.12 97.7486 221.86C97.7268 221.598 97.9716 221.313 97.9489 221.052C97.926 220.79 97.3241 220.58 97.3002 220.32C97.2762 220.058 97.3743 219.786 97.3493 219.526C97.3241 219.264 97.7591 218.958 97.7329 218.698C97.7064 218.436 97.4729 218.196 97.4454 217.936C97.4177 217.674 97.1154 217.443 97.0867 217.184C97.0577 216.923 97.0269 216.663 96.9968 216.404C96.9664 216.143 97.4191 215.825 97.3876 215.567C97.3558 215.305 96.9229 215.094 96.89 214.836C96.8567 214.575 97.0655 214.284 97.031 214.026C96.9961 213.765 96.942 213.508 96.9059 213.25C96.8693 212.99 96.5253 212.775 96.4875 212.518C96.4493 212.257 96.2376 212.026 96.1981 211.77C96.158 211.51 96.5734 211.181 96.532 210.925C96.49 210.666 96.1985 210.449 96.1551 210.194C96.1111 209.935 96.4342 209.614 96.3887 209.359C96.3424 209.1 95.8152 208.93 95.7674 208.676C95.7187 208.417 95.8786 208.122 95.8284 207.868C95.7772 207.61 95.4611 207.409 95.4082 207.156C95.3541 206.897 95.8279 206.528 95.7721 206.275C95.7151 206.017 95.2412 205.856 95.1824 205.604C95.1223 205.347 94.9325 205.127 94.8705 204.877C94.807 204.621 95.1116 204.277 95.0461 204.028C94.9787 203.772 95.0841 203.471 95.0145 203.223C94.9428 202.968 94.5098 202.82 94.4358 202.574C94.3596 202.321 94.1205 202.126 94.0417 201.882C93.9601 201.63 93.8751 201.39 93.7908 201.149C93.7035 200.898 93.6706 200.641 93.5804 200.403C93.4864 200.154 93.6653 199.787 93.568 199.552Z" fill="white"/>
<path d="M120.588 203.528L118.38 227.033L94.6735 205.189C90.4921 201.336 91.8575 194.283 97.2762 192.533C98.2175 192.229 99.2214 192.07 100.278 192.12C106.996 192.443 120.588 203.528 120.588 203.528Z" fill="white" stroke="#003649" stroke-linecap="round" stroke-linejoin="round"/>
<path d="M120.582 203.528L122.79 227.033L146.496 205.189C150.678 201.336 149.312 194.283 143.894 192.533C142.952 192.229 141.948 192.07 140.891 192.12C134.174 192.443 120.582 203.528 120.582 203.528Z" fill="white" stroke="#003649" stroke-linecap="round" stroke-linejoin="round"/>
<path d="M205.848 91.4176L253.173 111.338" stroke="#003649" stroke-miterlimit="10"/>
<path d="M120.586 235.723C121.611 235.723 122.442 234.895 122.442 233.875C122.442 232.854 121.611 232.027 120.586 232.027C119.561 232.027 118.73 232.854 118.73 233.875C118.73 234.895 119.561 235.723 120.586 235.723Z" fill="#00384A"/>
<path d="M120.586 242.145C121.611 242.145 122.442 241.317 122.442 240.297C122.442 239.276 121.611 238.449 120.586 238.449C119.561 238.449 118.73 239.276 118.73 240.297C118.73 241.317 119.561 242.145 120.586 242.145Z" fill="#00384A"/>
<path d="M120.586 248.567C121.611 248.567 122.442 247.739 122.442 246.719C122.442 245.698 121.611 244.871 120.586 244.871C119.561 244.871 118.73 245.698 118.73 246.719C118.73 247.739 119.561 248.567 120.586 248.567Z" fill="#00384A"/>
<path d="M59.4414 337L69.6135 259.617" stroke="#003649" stroke-linecap="round" stroke-linejoin="round"/>
<path d="M199.035 45.1386C200.53 42.2816 204.068 41.1726 206.936 42.6615C209.805 44.1505 210.919 47.6734 209.424 50.5304" stroke="#010101" stroke-miterlimit="10"/>
<path d="M232.939 40.7153C234.974 40.7153 236.624 39.0723 236.624 37.0455C236.624 35.0187 234.974 33.3757 232.939 33.3757C230.904 33.3757 229.254 35.0187 229.254 37.0455C229.254 39.0723 230.904 40.7153 232.939 40.7153Z" stroke="#010101" stroke-miterlimit="10"/>
<path d="M245.63 49.9355C247.665 49.9355 249.315 48.2925 249.315 46.2657C249.315 44.239 247.665 42.5959 245.63 42.5959C243.595 42.5959 241.945 44.239 241.945 46.2657C241.945 48.2925 243.595 49.9355 245.63 49.9355Z" stroke="#010101" stroke-miterlimit="10"/>
<path d="M253.216 56.0895C254.953 56.0895 256.361 54.6871 256.361 52.9572C256.361 51.2272 254.953 49.8248 253.216 49.8248C251.478 49.8248 250.07 51.2272 250.07 52.9572C250.07 54.6871 251.478 56.0895 253.216 56.0895Z" stroke="#010101" stroke-miterlimit="10"/>
<path d="M261.028 60.6903C262.765 60.6903 264.173 59.288 264.173 57.558C264.173 55.8281 262.765 54.4257 261.028 54.4257C259.291 54.4257 257.883 55.8281 257.883 57.558C257.883 59.288 259.291 60.6903 261.028 60.6903Z" stroke="#010101" stroke-miterlimit="10"/>
<path d="M249.219 47.155L258.7 23.7668" stroke="#010101" stroke-miterlimit="10" stroke-linecap="round"/>
<path d="M256.281 53.6916L265.762 30.3035" stroke="#010101" stroke-miterlimit="10" stroke-linecap="round"/>
<path d="M244.207 16.4525L241.508 32.3703" stroke="#010101" stroke-miterlimit="10" stroke-linecap="round"/>
<defs>
<linearGradient id="paint0_linear_16781_24356" x1="216.064" y1="23.3068" x2="288.494" y2="109.982" gradientUnits="userSpaceOnUse">
<stop offset="0.33" stop-color="#0176BC" stop-opacity="0"/>
<stop offset="1" stop-color="#0071B9"/>
</linearGradient>
</defs>
</svg>
