<svg width="12" height="20" viewBox="0 0 12 20" fill="none" xmlns="http://www.w3.org/2000/svg">
<mask id="mask0_16011_10387" style="mask-type:alpha" maskUnits="userSpaceOnUse" x="0" y="0" width="12" height="20">
<rect width="12" height="20" fill="#D9D9D9"/>
</mask>
<g mask="url(#mask0_16011_10387)">
<path d="M5.66667 16.25C6.51667 16.25 7.24271 15.8993 7.84479 15.1979C8.44687 14.4965 8.74792 13.6458 8.74792 12.6458V9.16667C8.74792 8.16667 8.44687 7.31597 7.84479 6.61458C7.24271 5.91319 6.51667 5.5625 5.66667 5.5625C4.81667 5.5625 4.09062 5.91319 3.48854 6.61458C2.88646 7.31597 2.58542 8.16667 2.58542 9.16667V12.6458C2.58542 13.6458 2.88646 14.4965 3.48854 15.1979C4.09062 15.8993 4.81667 16.25 5.66667 16.25ZM4.25 13.3333H7.08333V12.0833H4.25V13.3333ZM4.25 9.72917H7.08333V8.47917H4.25V9.72917ZM5.66667 17.5C4.89931 17.5 4.18507 17.2847 3.52396 16.8542C2.86285 16.4236 2.37292 15.8056 2.05417 15H0V13.75H1.62917C1.54653 13.3889 1.50521 13.0243 1.50521 12.6562V11.5417H0V10.2917H1.50521C1.50521 9.88889 1.50816 9.48958 1.51406 9.09375C1.51997 8.69792 1.57014 8.30556 1.66458 7.91667H0V6.66667H2.125C2.29028 6.27778 2.50868 5.9375 2.78021 5.64583C3.05174 5.35417 3.35278 5.11111 3.68333 4.91667L2.31979 3.33333L3.02813 2.5L4.69271 4.45833C5.02326 4.31944 5.35677 4.25 5.69323 4.25C6.02969 4.25 6.36319 4.31944 6.69375 4.45833L8.35833 2.5L9.06667 3.33333L7.72083 4.91667C8.05139 5.11111 8.34358 5.35764 8.5974 5.65625C8.85121 5.95486 9.07257 6.29167 9.26146 6.66667H11.3333V7.91667H9.66875C9.775 8.30556 9.82517 8.69792 9.81927 9.09375C9.81337 9.48958 9.81042 9.88889 9.81042 10.2917H11.3333V11.5417H9.81042C9.81042 11.9167 9.81337 12.2882 9.81927 12.6562C9.82517 13.0243 9.78681 13.3889 9.70417 13.75H11.3333V15H9.29688C8.98993 15.8194 8.50295 16.441 7.83594 16.8646C7.16892 17.2882 6.44583 17.5 5.66667 17.5Z" fill="#053749"/>
</g>
</svg>
