<svg width="13" height="20" viewBox="0 0 13 20" fill="none" xmlns="http://www.w3.org/2000/svg">
<mask id="mask0_16070_14471" style="mask-type:alpha" maskUnits="userSpaceOnUse" x="0" y="0" width="13" height="20">
<rect x="0.5" width="12" height="20" fill="#D9D9D9"/>
</mask>
<g mask="url(#mask0_16070_14471)">
<path d="M6.16667 16.25C7.01667 16.25 7.74271 15.8993 8.34479 15.1979C8.94687 14.4965 9.24792 13.6458 9.24792 12.6458V9.16667C9.24792 8.16667 8.94687 7.31597 8.34479 6.61458C7.74271 5.91319 7.01667 5.5625 6.16667 5.5625C5.31667 5.5625 4.59062 5.91319 3.98854 6.61458C3.38646 7.31597 3.08542 8.16667 3.08542 9.16667V12.6458C3.08542 13.6458 3.38646 14.4965 3.98854 15.1979C4.59062 15.8993 5.31667 16.25 6.16667 16.25ZM4.75 13.3333H7.58333V12.0833H4.75V13.3333ZM4.75 9.72917H7.58333V8.47917H4.75V9.72917ZM6.16667 17.5C5.39931 17.5 4.68507 17.2847 4.02396 16.8542C3.36285 16.4236 2.87292 15.8056 2.55417 15H0.5V13.75H2.12917C2.04653 13.3889 2.00521 13.0243 2.00521 12.6562V11.5417H0.5V10.2917H2.00521C2.00521 9.88889 2.00816 9.48958 2.01406 9.09375C2.01997 8.69792 2.07014 8.30556 2.16458 7.91667H0.5V6.66667H2.625C2.79028 6.27778 3.00868 5.9375 3.28021 5.64583C3.55174 5.35417 3.85278 5.11111 4.18333 4.91667L2.81979 3.33333L3.52813 2.5L5.19271 4.45833C5.52326 4.31944 5.85677 4.25 6.19323 4.25C6.52969 4.25 6.86319 4.31944 7.19375 4.45833L8.85833 2.5L9.56667 3.33333L8.22083 4.91667C8.55139 5.11111 8.84358 5.35764 9.0974 5.65625C9.35121 5.95486 9.57257 6.29167 9.76146 6.66667H11.8333V7.91667H10.1687C10.275 8.30556 10.3252 8.69792 10.3193 9.09375C10.3134 9.48958 10.3104 9.88889 10.3104 10.2917H11.8333V11.5417H10.3104C10.3104 11.9167 10.3134 12.2882 10.3193 12.6562C10.3252 13.0243 10.2868 13.3889 10.2042 13.75H11.8333V15H9.79688C9.48993 15.8194 9.00295 16.441 8.33594 16.8646C7.66892 17.2882 6.94583 17.5 6.16667 17.5Z" fill="white"/>
</g>
</svg>
