<svg width="1179" height="399" viewBox="0 0 1179 399" fill="none" xmlns="http://www.w3.org/2000/svg">
<path d="M0 4.00001C0 1.79087 1.79086 0 4 0H1175C1177.21 0 1179 1.79086 1179 4V395C1179 397.209 1177.21 399 1175 399H3.99999C1.79085 399 0 397.209 0 395V4.00001Z" fill="#04222F"/>
<g clip-path="url(#clip0_16781_23789)">
<path d="M432.66 51.3292L449.903 37.0966L497.85 94.7068C501.589 99.1996 500.962 105.871 496.451 109.594L495.556 110.333C491.045 114.057 484.346 113.432 480.607 108.939L432.66 51.3292Z" fill="#010101"/>
<path d="M432.66 51.3292L449.903 37.0966L497.85 94.7068C501.589 99.1996 500.962 105.871 496.451 109.594L495.556 110.333C491.045 114.057 484.346 113.432 480.607 108.939L432.66 51.3292Z" fill="url(#paint0_linear_16781_23789)"/>
<path d="M424.664 24.2461L449.302 37.1598L432.833 50.7534L424.664 24.2461Z" fill="#F7C400"/>
<path d="M425.216 24.9147L448.696 37.2213L433.002 50.1762L425.216 24.9147ZM424.102 23.5762L432.655 51.3292L449.898 37.0965L424.102 23.5762Z" fill="#010101"/>
<path d="M426.313 30.7274L430.756 27.0599L421.965 21L426.313 30.7274Z" fill="#010101"/>
<path d="M315.488 219.066L315.605 356.191H391.385L371.965 215.609C371.965 215.609 369.917 217.457 366.641 217.958C363.366 218.458 345.24 225.942 345.24 225.942L318.526 220.58L315.488 219.066Z" fill="white"/>
<path d="M351.945 165.223C349.759 160.795 350.667 157.689 352.63 155.299C355.746 151.502 362.11 151.549 366.844 155.403C371.577 159.257 372.889 165.459 369.773 169.255C369.305 169.825 369.205 169.992 368.607 170.388" stroke="#010101" stroke-miterlimit="10"/>
<path d="M312.494 168.779C315.155 161.846 321.675 156.562 329.009 155.247C336.344 153.932 344.244 156.576 349.39 161.944C350.605 163.212 356.054 168.907 357.702 169.559C359.678 170.341 361.802 169.651 363.921 169.823C365.77 169.973 367.774 169.676 369.366 170.626C371.715 172.028 371.913 175.365 371.27 178.016C370.98 179.213 370.591 180.542 371.197 181.616C371.552 182.245 372.188 182.655 372.716 183.151C374.822 185.13 375.091 188.348 374.921 191.226C374.526 197.958 372.023 205.159 366.194 208.59C365.515 208.991 364.795 209.337 364.193 209.846C363.534 210.403 363.047 211.129 362.569 211.846C360.454 215.017 358.339 218.189 356.223 221.36C355.092 223.055 353.658 221.875 351.638 221.565C351.026 221.471 345.782 226.238 345.238 225.944C340.545 223.405 331.425 224.306 327.379 220.834C325.818 219.494 331.932 214.548 329.877 214.395C328.644 214.304 309.076 211.979 303.891 204.843C301.735 201.878 299.469 192.267 307.827 189.803C312.163 188.525 315.343 189.769 315.343 189.769C315.343 189.769 312.844 184.694 312.331 183.209C310.73 178.574 310.733 173.369 312.494 168.779Z" fill="#F6B1B4"/>
<path d="M356.856 184.012C359.972 180.216 358.661 174.014 353.927 170.16C349.193 166.306 342.829 166.26 339.713 170.056C336.597 173.852 337.908 180.054 342.642 183.908C347.376 187.762 353.74 187.809 356.856 184.012Z" stroke="#010101" stroke-miterlimit="10"/>
<path d="M353.887 169.856C353.869 169.286 353.794 168.85 354.004 168.32C354.507 167.048 355.773 167.594 356.406 168.151" stroke="#010101" stroke-miterlimit="10" stroke-linecap="round"/>
<path d="M365.74 178.363C366.108 178.363 366.406 178.066 366.406 177.7C366.406 177.334 366.108 177.037 365.74 177.037C365.372 177.037 365.074 177.334 365.074 177.7C365.074 178.066 365.372 178.363 365.74 178.363Z" fill="#010101"/>
<path d="M369.138 178.363C369.506 178.363 369.804 178.066 369.804 177.7C369.804 177.334 369.506 177.037 369.138 177.037C368.771 177.037 368.473 177.334 368.473 177.7C368.473 178.066 368.771 178.363 369.138 178.363Z" fill="#010101"/>
<path d="M371.197 181.616H362.824" stroke="#010101" stroke-miterlimit="10" stroke-linecap="round"/>
<path d="M310.185 194.4C308.396 195.826 307.551 198.216 307.784 200.486C308.622 208.651 321.794 208.063 326.494 208.614" stroke="#010101" stroke-miterlimit="10" stroke-linecap="round"/>
<path d="M330.304 194.906C330.895 194.906 331.374 194.429 331.374 193.841C331.374 193.252 330.895 192.775 330.304 192.775C329.713 192.775 329.234 193.252 329.234 193.841C329.234 194.429 329.713 194.906 330.304 194.906Z" fill="#010101"/>
<path d="M326.784 188.514C327.577 188.514 328.22 187.874 328.22 187.084C328.22 186.294 327.577 185.654 326.784 185.654C325.991 185.654 325.348 186.294 325.348 187.084C325.348 187.874 325.991 188.514 326.784 188.514Z" fill="#010101"/>
<path d="M324.961 193.338C325.178 193.338 325.355 193.163 325.355 192.946C325.355 192.729 325.178 192.553 324.961 192.553C324.743 192.553 324.566 192.729 324.566 192.946C324.566 193.163 324.743 193.338 324.961 193.338Z" fill="#010101"/>
<path d="M321.631 188.121C322.191 188.121 322.644 187.669 322.644 187.111C322.644 186.554 322.191 186.102 321.631 186.102C321.071 186.102 320.617 186.554 320.617 187.111C320.617 187.669 321.071 188.121 321.631 188.121Z" fill="#010101"/>
<path d="M324.198 181.786C324.4 181.786 324.564 181.622 324.564 181.421C324.564 181.22 324.4 181.057 324.198 181.057C323.996 181.057 323.832 181.22 323.832 181.421C323.832 181.622 323.996 181.786 324.198 181.786Z" fill="#010101"/>
<path d="M316.035 182.907C316.548 182.907 316.964 182.493 316.964 181.982C316.964 181.471 316.548 181.057 316.035 181.057C315.521 181.057 315.105 181.471 315.105 181.982C315.105 182.493 315.521 182.907 316.035 182.907Z" fill="#010101"/>
<path d="M319.271 178.53C319.52 178.53 319.721 178.329 319.721 178.082C319.721 177.834 319.52 177.633 319.271 177.633C319.022 177.633 318.82 177.834 318.82 178.082C318.82 178.329 319.022 178.53 319.271 178.53Z" fill="#010101"/>
<path d="M314.263 176.121C314.729 176.121 315.107 175.744 315.107 175.28C315.107 174.815 314.729 174.439 314.263 174.439C313.796 174.439 313.418 174.815 313.418 175.28C313.418 175.744 313.796 176.121 314.263 176.121Z" fill="#010101"/>
<path d="M322.351 172.841C322.747 172.841 323.069 172.521 323.069 172.126C323.069 171.731 322.747 171.411 322.351 171.411C321.954 171.411 321.633 171.731 321.633 172.126C321.633 172.521 321.954 172.841 322.351 172.841Z" fill="#010101"/>
<path d="M322.07 176.679C322.226 176.679 322.352 176.554 322.352 176.399C322.352 176.244 322.226 176.119 322.07 176.119C321.915 176.119 321.789 176.244 321.789 176.399C321.789 176.554 321.915 176.679 322.07 176.679Z" fill="#010101"/>
<path d="M317.522 172.184C318.02 172.184 318.423 171.782 318.423 171.286C318.423 170.791 318.02 170.389 317.522 170.389C317.024 170.389 316.621 170.791 316.621 171.286C316.621 171.782 317.024 172.184 317.522 172.184Z" fill="#010101"/>
<path d="M317.001 166.279C317.211 166.279 317.381 166.109 317.381 165.9C317.381 165.691 317.211 165.522 317.001 165.522C316.791 165.522 316.621 165.691 316.621 165.9C316.621 166.109 316.791 166.279 317.001 166.279Z" fill="#010101"/>
<path d="M323.091 167.749C323.499 167.749 323.83 167.419 323.83 167.013C323.83 166.606 323.499 166.277 323.091 166.277C322.682 166.277 322.352 166.606 322.352 167.013C322.352 167.419 322.682 167.749 323.091 167.749Z" fill="#010101"/>
<path d="M328.308 172.532C328.821 172.532 329.237 172.118 329.237 171.607C329.237 171.096 328.821 170.682 328.308 170.682C327.795 170.682 327.379 171.096 327.379 171.607C327.379 172.118 327.795 172.532 328.308 172.532Z" fill="#010101"/>
<path d="M323.423 161.567C323.85 161.567 324.197 161.222 324.197 160.796C324.197 160.37 323.85 160.025 323.423 160.025C322.995 160.025 322.648 160.37 322.648 160.796C322.648 161.222 322.995 161.567 323.423 161.567Z" fill="#010101"/>
<path d="M329.91 158.118C330.283 158.118 330.586 157.816 330.586 157.445C330.586 157.073 330.283 156.772 329.91 156.772C329.537 156.772 329.234 157.073 329.234 157.445C329.234 157.816 329.537 158.118 329.91 158.118Z" fill="#010101"/>
<path d="M338.362 159.016C338.704 159.016 338.981 158.74 338.981 158.399C338.981 158.058 338.704 157.782 338.362 157.782C338.02 157.782 337.742 158.058 337.742 158.399C337.742 158.74 338.02 159.016 338.362 159.016Z" fill="#010101"/>
<path d="M332.731 162.478C333.198 162.478 333.576 162.101 333.576 161.636C333.576 161.172 333.198 160.795 332.731 160.795C332.265 160.795 331.887 161.172 331.887 161.636C331.887 162.101 332.265 162.478 332.731 162.478Z" fill="#010101"/>
<path d="M328.139 164.454C328.403 164.454 328.617 164.241 328.617 163.978C328.617 163.714 328.403 163.501 328.139 163.501C327.874 163.501 327.66 163.714 327.66 163.978C327.66 164.241 327.874 164.454 328.139 164.454Z" fill="#010101"/>
<path d="M334.9 156.774C335.071 156.774 335.209 156.636 335.209 156.466C335.209 156.295 335.071 156.157 334.9 156.157C334.729 156.157 334.59 156.295 334.59 156.466C334.59 156.636 334.729 156.774 334.9 156.774Z" fill="#010101"/>
<path d="M326.792 178.98C327.289 178.98 327.693 178.578 327.693 178.082C327.693 177.587 327.289 177.185 326.792 177.185C326.294 177.185 325.891 177.587 325.891 178.082C325.891 178.578 326.294 178.98 326.792 178.98Z" fill="#010101"/>
<path d="M320.927 182.964C321.254 182.964 321.518 182.7 321.518 182.375C321.518 182.05 321.254 181.786 320.927 181.786C320.601 181.786 320.336 182.05 320.336 182.375C320.336 182.7 320.601 182.964 320.927 182.964Z" fill="#010101"/>
<path d="M316.703 187.448C317.076 187.448 317.379 187.146 317.379 186.775C317.379 186.403 317.076 186.102 316.703 186.102C316.33 186.102 316.027 186.403 316.027 186.775C316.027 187.146 316.33 187.448 316.703 187.448Z" fill="#010101"/>
<path d="M442.372 62.998C439.319 60.7387 436.579 59.3854 432.812 58.8641C431.073 58.6236 429.292 58.4032 427.574 58.7617C425.856 59.1202 424.184 60.1669 423.543 61.794C422.693 63.9472 423.904 66.4564 425.722 67.8971C427.539 69.3378 429.844 69.9824 432.043 70.727C435.694 71.9633 439.489 73.8045 441.232 77.2307C442.847 80.4069 442.328 84.1971 441.77 87.714C441.401 90.0413 438.478 97.1135 438.109 99.4408C443.969 100.323 452.092 96.0741 457.892 97.2856C459.219 97.5627 460.553 97.8511 461.802 98.3746C463.943 99.2716 465.735 100.812 467.561 102.242C470.045 104.185 472.66 105.964 475.382 107.56C477.637 108.883 480.073 110.182 481.421 112.416C481.925 111.852 482.275 111.153 482.424 110.414L442.372 62.998Z" fill="#F6B1B4"/>
<path d="M459.48 33.598C461.223 32.4998 463.14 31.4814 465.202 31.4936C467.264 31.5058 469.452 32.8966 469.666 34.9392C472.671 33.2543 476.482 32.8361 479.603 34.2975C482.723 35.7588 484.901 39.2537 484.374 42.6475C487.374 41.9038 490.575 44.0454 491.706 46.9103C492.837 49.7751 492.234 53.0794 490.861 55.837C492.687 54.7365 495.217 56.1131 496.025 58.0812C496.832 60.0492 496.39 62.2912 495.781 64.3289C494.691 67.9717 493.109 71.4461 491.531 74.9072C490.144 77.9508 489.396 80.2133 487.219 82.7573C486.515 83.5791 485.285 84.5414 482.879 83.4629C481.176 82.6997 479.675 80.6565 480.3 78.555C480.83 76.7717 481.311 75.0986 481.75 73.2908C481.334 74.6652 480.785 75.9999 480.114 77.2707C479.672 78.1097 479.13 78.9643 478.275 79.3809C476.868 80.0664 473.823 78.9363 473.002 77.608C472.181 76.2798 472.183 74.1101 472.8 72.4306C473.478 70.585 474.217 68.7442 474.217 68.7442C472.803 70.7243 471.993 73.567 469.628 74.1647C468.021 74.5709 466.297 73.6229 465.384 72.2446C464.471 70.8663 464.23 69.1527 464.211 67.5017C464.179 64.6537 464.747 61.8005 465.867 59.1799C466.524 57.6436 467.386 56.1113 467.365 54.4417C467.361 54.1185 467.309 53.7659 467.071 53.5459C466.456 52.9765 465.556 53.8205 465.159 54.5578C464.369 56.026 463.579 57.4942 462.788 58.9624C461.892 60.6287 460.931 62.3655 459.34 63.3956C457.748 64.4256 455.809 63.9234 454.194 62.9306C452.203 61.7071 452.022 58.0651 452.224 56.6177C452.826 52.2867 453.428 47.9558 454.031 43.6249C454.072 43.3262 454.114 43.02 454.048 42.7256C453.964 42.3473 455.171 44.1064 454.929 43.8036C453.456 41.9675 451.304 40.3057 453.362 38.1684C454.24 37.2567 455.343 36.49 456.357 35.737C456.99 35.2673 458.698 33.598 459.48 33.598Z" fill="#F6B1B4"/>
<path d="M479.492 107.231C479.307 107.051 478.75 107.248 478.554 107.062C478.366 106.885 478.337 106.533 478.139 106.351C477.947 106.175 477.609 106.158 477.408 105.979C477.213 105.807 477.279 105.335 477.076 105.16C476.878 104.99 476.405 105.138 476.2 104.965C476 104.798 476.007 104.38 475.799 104.21C475.596 104.046 475.383 103.89 475.172 103.724C474.967 103.562 474.611 103.59 474.399 103.428C474.191 103.269 474.205 102.815 473.991 102.656C473.78 102.5 473.425 102.537 473.208 102.381C472.995 102.228 472.711 102.175 472.492 102.023C472.277 101.873 472.302 101.372 472.081 101.223C471.863 101.076 471.56 101.051 471.337 100.905C471.117 100.762 470.854 100.681 470.629 100.539C470.407 100.399 470.057 100.464 469.829 100.326C469.605 100.189 469.543 99.7839 469.313 99.6492C469.087 99.5166 468.844 99.4089 468.613 99.2783C468.385 99.1492 468.002 99.2983 467.769 99.1714C467.538 99.0459 467.527 98.5117 467.292 98.3886C467.059 98.2668 466.871 98.0484 466.633 97.9291C466.398 97.811 466.101 97.8089 465.861 97.6935C465.624 97.5793 465.398 97.4329 465.157 97.3215C464.918 97.2112 464.609 97.2473 464.366 97.14C464.125 97.0336 463.921 96.8353 463.676 96.7321C463.434 96.6298 463.108 96.7238 462.861 96.6248C462.616 96.5267 462.466 96.1844 462.217 96.0896C461.971 95.9958 461.622 96.1699 461.372 96.0795C461.124 95.99 460.956 95.6678 460.704 95.5818C460.455 95.4966 460.081 95.7805 459.828 95.699C459.577 95.6182 459.322 95.5596 459.067 95.4827C458.814 95.4064 458.583 95.2691 458.327 95.1968C458.073 95.1252 457.945 94.5941 457.688 94.5266C457.433 94.4596 457.056 94.8673 456.797 94.8044C456.541 94.7419 456.322 94.5281 456.063 94.4699C455.806 94.4121 455.51 94.5397 455.249 94.4861C454.991 94.433 454.804 94.0142 454.543 93.9653C454.283 93.9169 454.034 93.7829 453.771 93.7389C453.511 93.6951 453.179 94.0898 452.915 94.0505C452.654 94.0116 452.439 93.6407 452.174 93.6063C451.912 93.5722 451.643 93.5738 451.378 93.5443C451.116 93.515 450.861 93.38 450.596 93.3553C450.333 93.3308 450.039 93.6552 449.773 93.6353C449.509 93.6156 449.272 93.143 449.006 93.1279C448.742 93.1131 448.474 93.0628 448.207 93.0527C447.943 93.0425 447.669 93.1215 447.401 93.1161C447.137 93.1107 446.866 93.3443 446.598 93.3437C446.329 93.3431 446.038 93.0745 445.772 93.0964C445.504 93.1185 445.261 93.431 444.998 93.4754C444.734 93.5201 444.493 93.6609 444.235 93.7274C443.975 93.7943 443.656 93.6729 443.404 93.761C443.152 93.8493 442.878 93.9186 442.634 94.0274C442.39 94.1365 442.245 94.4562 442.011 94.5851C441.777 94.714 441.413 94.6421 441.191 94.79C440.968 94.9377 440.846 95.2383 440.636 95.4041C440.427 95.5695 440.269 95.7936 440.074 95.9762C439.879 96.1581 439.697 96.3487 439.517 96.547C439.339 96.744 439.389 97.1122 439.226 97.3246C439.064 97.5355 438.632 97.5446 438.487 97.7699C438.343 97.9932 438.363 98.3076 438.237 98.5442C438.114 98.7747 437.606 98.8034 437.483 99.0353C437.361 99.266 437.776 99.7805 437.653 100.013C437.531 100.244 436.857 100.186 436.734 100.418C436.612 100.649 437.004 101.15 436.882 101.383C436.76 101.614 436.387 101.715 436.264 101.947C436.142 102.179 435.805 102.298 435.683 102.531C435.561 102.763 435.554 103.054 435.432 103.287C435.31 103.519 435.364 103.842 435.243 104.075C435.121 104.307 434.914 104.495 434.793 104.728C434.672 104.961 434.811 105.327 434.689 105.561C434.569 105.793 434.139 105.866 434.017 106.099C433.897 106.332 434.104 106.733 433.983 106.967C433.862 107.199 433.347 107.229 433.226 107.463C433.105 107.695 433.162 108.019 433.041 108.253C432.921 108.486 433.024 108.833 432.903 109.067C432.783 109.3 432.5 109.449 432.379 109.683C432.259 109.916 432.053 110.105 431.932 110.339C431.812 110.572 431.507 110.711 431.387 110.945C431.267 111.178 431.187 111.433 431.067 111.667C430.947 111.9 430.922 112.182 430.802 112.416C430.683 112.649 430.405 112.803 430.285 113.037C430.166 113.271 430.201 113.583 430.081 113.817C429.961 114.051 430.14 114.435 430.02 114.67C429.901 114.903 429.263 114.875 429.144 115.11C429.025 115.344 428.94 115.595 428.82 115.83C428.701 116.064 429.039 116.528 428.92 116.763C428.801 116.997 428.522 117.151 428.403 117.385C428.284 117.619 428.179 117.861 428.06 118.095C427.941 118.329 427.674 118.49 427.555 118.724C427.437 118.959 427.396 119.232 427.277 119.467C427.158 119.701 427.116 119.974 426.997 120.209C426.878 120.443 426.595 120.595 426.476 120.83C426.357 121.064 426.191 121.274 426.072 121.508C425.954 121.742 426.133 122.125 426.014 122.36C425.896 122.594 425.554 122.716 425.436 122.951C425.317 123.185 425.369 123.504 425.25 123.739C425.132 123.973 424.84 124.12 424.722 124.355C424.604 124.589 424.56 124.861 424.441 125.095C424.323 125.33 423.964 125.444 423.846 125.679C423.728 125.913 423.95 126.318 423.831 126.553C423.713 126.787 423.711 127.08 423.593 127.315C423.475 127.549 423.393 127.802 423.275 128.037C423.157 128.272 422.775 128.375 422.657 128.61C422.539 128.845 422.344 129.041 422.226 129.277C422.108 129.511 422.32 129.911 422.202 130.146C422.084 130.381 421.611 130.439 421.493 130.674C421.375 130.909 421.365 131.198 421.247 131.434C421.129 131.669 421.208 132.002 421.09 132.237C420.972 132.472 420.838 132.699 420.72 132.934C420.601 133.169 420.537 133.43 420.419 133.665C420.301 133.9 420.143 134.115 420.024 134.35C419.906 134.585 419.788 134.82 419.669 135.055C419.551 135.291 419.224 135.422 419.106 135.657C418.988 135.892 418.856 136.121 418.738 136.356C418.619 136.591 418.357 136.755 418.239 136.99C418.121 137.226 418.307 137.613 418.189 137.848C418.071 138.084 418.093 138.39 417.975 138.625C417.857 138.861 417.303 138.879 417.184 139.115C417.066 139.35 417.04 139.632 416.922 139.868C416.803 140.103 416.765 140.379 416.646 140.614C416.528 140.85 416.475 141.119 416.357 141.354C416.238 141.59 416.119 141.825 416 142.061C415.882 142.297 415.763 142.532 415.645 142.768C415.526 143.003 415.509 143.289 415.39 143.525C415.272 143.76 415.092 143.965 414.974 144.201C414.855 144.436 414.422 144.515 414.304 144.75C414.185 144.986 414.405 145.391 414.287 145.626C414.168 145.862 413.745 145.945 413.626 146.181C413.507 146.416 413.716 146.815 413.597 147.051C413.478 147.286 413.168 147.426 413.049 147.662C412.93 147.897 412.825 148.14 412.706 148.375C412.587 148.611 412.573 148.898 412.454 149.134C412.334 149.369 411.832 149.413 411.713 149.648C411.594 149.883 411.679 150.221 411.559 150.456C411.44 150.692 411.238 150.885 411.118 151.121C410.999 151.356 410.892 151.598 410.773 151.833C410.654 152.069 410.772 152.424 410.652 152.659C410.533 152.894 410.194 153.019 410.074 153.254C409.955 153.49 410.179 153.899 410.059 154.134C409.94 154.369 409.774 154.581 409.654 154.817C409.535 155.052 409.144 155.15 409.024 155.385C408.904 155.621 409.024 155.977 408.904 156.212C408.784 156.448 408.668 156.685 408.548 156.92C408.428 157.155 408.237 157.354 408.117 157.589C407.996 157.825 407.707 157.974 407.586 158.208C407.466 158.444 407.176 158.593 407.056 158.827C406.935 159.062 407.234 159.511 407.113 159.745C406.993 159.981 406.624 160.089 406.504 160.324C406.383 160.559 406.537 160.935 406.417 161.169C406.296 161.404 405.991 161.545 405.87 161.779C405.749 162.014 405.431 162.148 405.31 162.383C405.189 162.618 405.324 162.984 405.203 163.218C405.081 163.453 404.642 163.524 404.521 163.759C404.399 163.993 404.523 164.354 404.402 164.588C404.28 164.823 404.11 165.033 403.989 165.267C403.867 165.501 403.644 165.683 403.522 165.917C403.4 166.152 403.413 166.456 403.291 166.69C403.169 166.925 402.96 167.114 402.838 167.348C402.716 167.582 402.673 167.857 402.551 168.091C402.428 168.325 402.134 168.47 402.012 168.704C401.889 168.938 401.957 169.271 401.834 169.505C401.711 169.739 401.397 169.872 401.274 170.106C401.15 170.34 400.959 170.537 400.835 170.77C400.712 171.004 400.629 171.259 400.505 171.492C400.382 171.725 400.638 172.158 400.514 172.391C400.39 172.625 400.118 172.78 399.995 173.013C399.87 173.247 399.582 173.393 399.458 173.626C399.334 173.859 399.467 174.228 399.343 174.461C399.218 174.694 399.068 174.914 398.944 175.146C398.819 175.379 398.874 175.708 398.749 175.94C398.624 176.173 398.244 176.27 398.119 176.502C397.993 176.735 397.973 177.024 397.848 177.255C397.722 177.488 397.72 177.787 397.595 178.018C397.469 178.251 397.088 178.346 396.962 178.577C396.836 178.81 396.547 178.954 396.421 179.185C396.294 179.417 396.439 179.796 396.312 180.027C396.185 180.259 395.974 180.444 395.847 180.675C395.72 180.907 395.463 181.067 395.336 181.298C395.208 181.53 395.039 181.738 394.912 181.968C394.784 182.2 395.098 182.673 394.97 182.903C394.841 183.135 394.543 183.271 394.415 183.501C394.286 183.732 393.824 183.778 393.696 184.008C393.567 184.239 393.911 184.732 393.782 184.961C393.652 185.192 393.399 185.353 393.269 185.582C393.139 185.812 392.773 185.909 392.643 186.138C392.513 186.368 392.758 186.809 392.628 187.037C392.497 187.267 391.832 187.194 391.702 187.422C391.57 187.651 391.914 188.15 391.784 188.378C391.652 188.607 391.068 188.577 390.937 188.805C390.805 189.034 390.972 189.433 390.84 189.66C390.707 189.889 390.546 190.101 390.414 190.327C390.281 190.556 390.167 190.795 390.034 191.021C389.9 191.249 389.564 191.358 389.431 191.583C389.296 191.811 389.366 192.157 389.232 192.383C389.097 192.61 388.946 192.827 388.812 193.052C388.676 193.279 388.583 193.53 388.448 193.755C388.312 193.982 387.999 194.101 387.863 194.325C387.726 194.551 387.958 194.998 387.821 195.222C387.684 195.448 387.466 195.624 387.329 195.847C387.19 196.072 386.723 196.094 386.585 196.317C386.445 196.541 386.699 197.007 386.56 197.229C386.42 197.453 386.071 197.546 385.932 197.767C385.791 197.991 385.393 198.051 385.253 198.271C385.111 198.494 385.332 198.946 385.191 199.165C385.048 199.388 384.883 199.595 384.741 199.814C384.597 200.036 384.122 200.041 383.979 200.259C383.834 200.48 383.629 200.657 383.485 200.875C383.339 201.095 383.344 201.411 383.198 201.628C383.051 201.847 383.11 202.203 382.963 202.418C382.814 202.637 382.857 202.985 382.709 203.199C382.559 203.418 382.089 203.415 381.94 203.628C381.788 203.847 381.787 204.168 381.636 204.381C381.482 204.599 380.96 204.551 380.807 204.763C380.652 204.979 380.922 205.498 380.768 205.708C380.611 205.922 380.167 205.923 380.012 206.132C379.853 206.345 379.671 206.535 379.513 206.742C379.352 206.953 379.531 207.42 379.371 207.625C379.208 207.834 378.961 207.976 378.799 208.179C378.634 208.387 378.501 208.619 378.338 208.82C378.169 209.026 378.056 209.277 377.89 209.475C377.718 209.679 377.329 209.696 377.16 209.891C376.985 210.093 376.917 210.384 376.744 210.575C376.565 210.774 376.393 210.975 376.217 211.163C376.034 211.358 375.576 211.281 375.396 211.465C375.208 211.656 375.268 212.084 375.084 212.263C374.89 212.45 374.617 212.543 374.427 212.716C374.228 212.897 374.23 213.301 374.035 213.465C373.828 213.64 373.572 213.757 373.37 213.913C373.156 214.077 372.765 213.99 372.557 214.133C372.333 214.286 372.205 214.559 371.988 214.686C371.643 214.923 371.869 215.083 371.423 215.362C371.222 215.487 370.699 215.155 370.42 215.307C370.195 215.43 370.08 215.805 369.809 215.934C369.57 216.047 369.238 215.978 368.967 216.089C368.719 216.191 368.527 216.456 368.254 216.55C367.997 216.639 367.68 216.551 367.403 216.628C367.14 216.702 366.87 216.906 366.59 216.965C366.355 217.282 366.364 217.308 366.434 217.82C366.464 218.036 366.957 218.233 366.998 218.534C367.03 218.769 366.872 219.055 366.91 219.339C366.943 219.581 366.933 219.847 366.971 220.123C367.004 220.369 367.35 220.586 367.387 220.859C367.421 221.107 367.145 221.408 367.182 221.678C367.216 221.928 367.445 222.161 367.482 222.429C367.516 222.68 367.57 222.937 367.606 223.204C367.64 223.457 367.613 223.724 367.649 223.991C367.683 224.244 367.67 224.51 367.706 224.776C367.74 225.03 367.479 225.329 367.515 225.594C367.549 225.849 367.657 226.099 367.693 226.364C367.728 226.619 367.779 226.877 367.815 227.141C367.85 227.397 367.76 227.674 367.796 227.938C367.83 228.194 368.245 228.404 368.28 228.667C368.315 228.924 368.582 229.153 368.617 229.417C368.652 229.674 368.407 229.971 368.442 230.235C368.476 230.492 368.304 230.78 368.34 231.043C368.374 231.301 368.897 231.496 368.933 231.759C368.967 232.017 368.528 232.34 368.563 232.603C368.598 232.861 368.685 233.114 368.72 233.377C368.755 233.634 368.708 233.906 368.743 234.168C368.778 234.426 368.888 234.676 368.923 234.939C368.957 235.197 369.407 235.402 369.443 235.664C369.477 235.922 369.278 236.213 369.313 236.476C369.348 236.734 369.178 237.021 369.212 237.283C369.247 237.542 369.114 237.824 369.149 238.086C369.183 238.344 369.457 238.573 369.492 238.835C369.526 239.093 369.878 239.312 369.913 239.574C369.947 239.832 369.897 240.104 369.932 240.365C369.966 240.624 369.832 240.906 369.867 241.168C369.901 241.427 369.683 241.72 369.717 241.982C369.752 242.241 370.298 242.434 370.332 242.695C370.367 242.954 370.187 243.242 370.222 243.504C370.256 243.761 370.331 244.015 370.365 244.275C370.399 244.533 370.162 244.827 370.197 245.087C370.231 245.345 370.314 245.597 370.349 245.857C370.383 246.115 370.412 246.375 370.446 246.635C370.48 246.893 370.394 247.167 370.428 247.428C370.462 247.686 371.108 247.865 371.142 248.125C371.176 248.383 371.104 248.656 371.138 248.916C371.172 249.175 371.097 249.448 371.131 249.708C371.165 249.967 371.257 250.218 371.291 250.479C371.325 250.737 371.299 251.004 371.333 251.264C371.367 251.523 371.465 251.774 371.499 252.034C371.533 252.293 371.334 252.583 371.368 252.843C371.402 253.102 371.391 253.367 371.425 253.627C371.459 253.886 371.483 254.147 371.517 254.407C371.551 254.666 371.665 254.915 371.699 255.175C371.733 255.434 371.583 255.718 371.617 255.978C371.651 256.237 372.132 256.439 372.166 256.699C372.2 256.958 372.031 257.244 372.065 257.505C372.098 257.764 372.124 258.025 372.158 258.285C372.192 258.544 372.327 258.791 372.36 259.052C372.394 259.311 372.544 259.556 372.578 259.816C372.611 260.076 372.445 260.361 372.479 260.622C372.512 260.881 372.439 261.155 372.473 261.416C372.506 261.675 372.333 261.962 372.366 262.222C372.4 262.482 372.488 262.735 372.522 262.995C372.556 263.255 372.647 263.507 372.681 263.768C372.714 264.028 372.606 264.306 372.64 264.566C372.673 264.826 373.284 265.012 373.318 265.273C373.351 265.533 373.289 265.805 373.323 266.066C373.356 266.326 372.995 266.636 373.028 266.897C373.062 267.157 373.296 267.391 373.329 267.652C373.362 267.912 373.256 268.19 373.289 268.451C373.323 268.71 373.677 268.929 373.71 269.189C373.744 269.448 373.628 269.727 373.662 269.987C373.695 270.246 373.708 270.508 373.742 270.768C373.775 271.028 373.745 271.296 373.778 271.556C373.811 271.815 373.675 272.097 373.709 272.357C373.742 272.617 374.085 272.837 374.118 273.098C374.151 273.357 373.851 273.66 373.884 273.92C373.917 274.18 374.099 274.421 374.132 274.681C374.165 274.941 374.148 275.208 374.182 275.468C374.215 275.728 374.45 275.963 374.483 276.223C374.516 276.483 374.431 276.759 374.464 277.019C374.497 277.279 374.713 277.517 374.746 277.777C374.779 278.037 374.68 278.314 374.713 278.575C374.746 278.835 374.978 279.071 375.011 279.332C375.044 279.592 375.224 279.834 375.257 280.095C375.29 280.355 374.815 280.679 374.848 280.939C374.881 281.199 374.804 281.473 374.837 281.734C374.869 281.994 375.471 282.184 375.504 282.445C375.537 282.705 375.097 283.025 375.13 283.285C375.163 283.546 375.576 283.759 375.609 284.02C375.641 284.281 375.28 284.591 375.312 284.852C375.345 285.113 375.332 285.379 375.365 285.64C375.398 285.901 375.872 286.108 375.904 286.369C375.937 286.63 375.68 286.927 375.712 287.188C375.745 287.449 375.769 287.711 375.802 287.973C375.834 288.234 376.239 288.449 376.271 288.711C376.303 288.972 375.899 289.287 375.931 289.549C375.964 289.81 376.09 290.06 376.122 290.322C376.155 290.583 376.258 290.836 376.29 291.098C376.323 291.359 376.385 291.617 376.417 291.878C376.449 292.139 376.171 292.438 376.203 292.699C376.236 292.961 376.488 293.195 376.52 293.456C376.552 293.718 376.586 293.979 376.618 294.24C376.65 294.502 376.871 294.74 376.903 295.001C376.935 295.263 376.857 295.538 376.889 295.799C376.921 296.06 376.786 296.342 376.818 296.603C376.85 296.865 376.773 297.14 376.805 297.401C376.836 297.663 377.213 297.882 377.245 298.144C377.277 298.405 377.089 298.693 377.12 298.955C377.152 299.217 377.508 299.439 377.54 299.701C377.571 299.962 377.15 300.278 377.182 300.539C377.213 300.801 377.202 301.068 377.234 301.329C377.265 301.591 377.867 301.785 377.898 302.046C377.929 302.308 377.802 302.589 377.833 302.85C377.865 303.112 377.672 303.4 377.703 303.662C377.734 303.924 378.086 304.147 378.118 304.409C378.149 304.671 378.271 304.922 378.302 305.183C378.333 305.445 378.183 305.729 378.214 305.99C378.245 306.252 378.069 306.538 378.1 306.799C378.131 307.062 378.331 307.304 378.362 307.565C378.393 307.827 378.16 308.12 378.191 308.381C378.221 308.643 378.123 308.92 378.154 309.181C378.184 309.444 378.225 309.704 378.256 309.966C378.287 310.228 378.889 310.423 378.92 310.685C378.95 310.947 378.879 311.221 378.909 311.482C378.94 311.744 378.911 312.013 378.941 312.274C378.972 312.537 379.104 312.787 379.134 313.048C379.164 313.311 379.265 313.564 379.295 313.826C379.326 314.088 379.178 314.37 379.208 314.632C379.238 314.894 379.236 315.159 379.266 315.421C379.296 315.683 379.605 315.913 379.635 316.175C379.665 316.437 379.303 316.743 379.333 317.004C379.363 317.267 379.169 317.554 379.199 317.815C379.229 318.078 379.249 318.34 379.278 318.601C379.308 318.864 379.689 319.087 379.718 319.348C379.748 319.61 379.97 319.851 379.999 320.112C380.029 320.374 379.537 320.694 379.566 320.955C379.595 321.217 379.879 321.451 379.908 321.712C379.937 321.975 379.787 322.256 379.816 322.517C379.845 322.78 380.071 323.02 380.1 323.281C380.129 323.543 380.168 323.804 380.197 324.065C380.226 324.328 380.525 324.56 380.553 324.821C380.582 325.084 380.207 325.389 380.235 325.65C380.263 325.912 380.175 326.186 380.203 326.447C380.231 326.71 380.737 326.921 380.765 327.181C380.793 327.444 380.525 327.737 380.553 327.998C380.581 328.26 380.525 328.531 380.553 328.791C380.581 329.054 380.673 329.309 380.701 329.569C380.728 329.832 380.755 330.094 380.782 330.354C380.81 330.617 380.878 330.874 380.905 331.134C380.932 331.397 380.678 331.687 380.704 331.947C380.732 332.21 381.261 332.421 381.287 332.681C381.314 332.943 380.952 333.244 380.978 333.504C381.005 333.767 380.96 334.035 380.986 334.295C381.013 334.558 381.089 334.814 381.114 335.074C381.14 335.337 381.425 335.573 381.45 335.832C381.476 336.095 381.495 336.357 381.52 336.617C381.546 336.88 381.365 337.161 381.39 337.42C381.415 337.683 381.531 337.935 381.555 338.195C381.58 338.458 381.895 338.692 381.919 338.951C381.944 339.214 381.576 339.511 381.6 339.77C381.625 340.033 381.607 340.298 381.631 340.557C381.655 340.82 382.071 341.046 382.094 341.305C382.118 341.569 381.982 341.845 382.004 342.103C382.028 342.367 381.89 342.643 381.912 342.901C381.935 343.167 381.83 343.44 381.852 343.699C381.875 343.965 382.455 344.181 382.476 344.44C382.498 344.706 382.08 345.003 382.1 345.262C382.121 345.527 382.512 345.76 382.531 346.019C382.552 346.284 382.592 346.544 382.611 346.802C382.631 347.067 382.612 347.332 382.63 347.589C382.649 347.855 382.264 348.144 382.281 348.4C382.299 348.667 382.367 348.924 382.383 349.181C382.4 349.448 382.504 349.704 382.52 349.96C382.535 350.228 382.648 350.484 382.662 350.74C382.677 351.008 382.934 351.259 382.946 351.513C382.958 351.782 382.837 352.051 382.847 352.304C382.858 352.576 382.522 352.85 382.53 353.103C382.538 353.375 382.994 353.627 382.998 353.877C383.003 354.152 383.065 354.417 383.066 354.665C383.066 354.944 382.939 355.209 382.934 355.452C382.927 355.737 382.692 356.155 382.677 356.389C383.054 356.503 383.12 355.915 383.513 355.915C383.907 355.915 383.907 356.188 384.3 356.188C384.694 356.188 384.694 356.122 385.088 356.122C385.482 356.122 385.482 355.952 385.876 355.952C386.27 355.952 386.27 356.261 386.663 356.261C387.057 356.261 387.057 356.393 387.451 356.393C387.844 356.393 387.844 356.012 388.237 356.012C388.631 356.012 388.631 356.518 389.024 356.518C389.417 356.518 389.417 356.267 389.81 356.267C390.203 356.267 390.203 356.517 390.596 356.517C390.989 356.517 390.989 356.035 391.382 356.035C391.775 356.035 391.775 355.963 392.168 355.963C392.561 355.963 392.561 356.44 392.954 356.44C393.346 356.44 393.346 355.958 393.739 355.958C394.132 355.958 394.132 356.114 394.525 356.114C394.918 356.114 394.918 355.955 395.311 355.955C395.704 355.955 395.704 356.233 396.097 356.233C396.491 356.233 396.491 355.987 396.884 355.987C397.277 355.987 397.277 356.56 397.671 356.56C398.064 356.56 398.064 356.359 398.458 356.359C398.852 356.359 398.852 356.45 399.246 356.45C399.64 356.45 399.64 355.922 400.034 355.922C400.428 355.922 400.428 356.414 400.822 356.414C401.216 356.414 401.216 356.288 401.61 356.288C402.003 356.288 402.003 355.987 402.397 355.987C402.79 355.987 402.79 356.44 403.184 356.44C403.577 356.44 403.577 356.183 403.971 356.183C404.364 356.183 404.364 356.355 404.757 356.355C405.151 356.355 405.151 356.25 405.544 356.25C405.937 356.25 405.937 356.405 406.33 356.405C406.724 356.405 406.724 356.094 407.117 356.094C407.511 356.094 407.511 356.349 407.904 356.349C408.298 356.349 408.298 356.21 408.692 356.21C409.086 356.21 409.086 355.956 409.48 355.956C409.874 355.956 409.874 356.031 410.268 356.031C410.662 356.031 410.662 356.246 411.057 356.246C411.45 356.246 411.45 356.091 411.844 356.091C412.238 356.091 412.238 356.249 412.632 356.249C413.026 356.249 413.026 356.292 413.419 356.292C413.813 356.292 413.813 356.105 414.206 356.105C414.6 356.105 414.6 355.982 414.994 355.982C415.387 355.982 415.387 356.56 415.781 356.56C416.175 356.56 416.175 355.981 416.569 355.981C416.963 355.981 416.963 356.082 417.357 356.082C417.751 356.082 417.751 356.043 418.146 356.043C418.54 356.043 418.54 356.514 418.934 356.514C419.328 356.514 419.328 356.18 419.722 356.18C420.116 356.18 420.116 356.128 420.51 356.128C420.904 356.128 420.904 355.927 421.298 355.927C421.692 355.927 421.692 356.15 422.085 356.15C422.48 356.15 422.48 356.041 422.874 356.041C423.268 356.041 423.268 355.927 423.662 355.927C424.056 355.927 424.056 356.09 424.45 356.09C424.844 356.09 424.844 356.205 425.238 356.205C425.631 356.205 425.631 356.296 426.024 356.296C426.417 356.296 426.417 355.976 426.81 355.976C427.203 355.976 427.203 355.937 427.595 355.937C427.988 355.937 427.988 356.043 428.381 356.043C428.774 356.043 428.774 356.302 429.166 356.302C429.56 356.302 429.56 356.365 429.953 356.365C430.346 356.365 430.346 356.151 430.74 356.151C431.134 356.151 431.134 356.266 431.528 356.266C431.923 356.266 431.923 356.461 432.318 356.461C432.712 356.461 432.712 356.156 433.106 356.156C433.5 356.156 433.5 356.151 433.894 356.151C434.288 356.151 434.288 356.08 434.681 356.08C435.075 356.08 435.075 356.144 435.468 356.144C435.862 356.144 435.862 355.922 436.256 355.922C436.651 355.922 436.651 356.016 437.045 356.016C437.44 356.016 437.44 356.481 437.835 356.481C438.23 356.481 438.23 356.272 438.624 356.272C439.018 356.272 439.018 356.343 439.412 356.343C439.807 356.343 439.807 356.513 440.201 356.513C440.596 356.513 440.596 355.982 440.991 355.982C441.386 355.982 441.386 356.027 441.781 356.027C442.175 356.027 442.175 356.08 442.57 356.08C442.965 356.08 442.965 356.53 443.36 356.53C443.755 356.53 443.755 355.957 444.15 355.957C444.545 355.957 444.545 356.184 444.94 356.184C445.333 356.184 445.333 356.513 445.726 356.513C446.12 356.513 446.12 356.249 446.514 356.249C446.909 356.249 446.909 356.308 447.305 356.308C447.699 356.308 447.699 356.529 448.094 356.529C448.489 356.529 448.489 356.532 448.884 356.532C449.28 356.532 449.28 356.023 449.676 356.023C450.071 356.023 450.071 356.54 450.466 356.54C450.862 356.54 450.862 356.512 451.258 356.512C451.654 356.512 451.654 356.324 452.051 356.324C452.446 356.324 452.446 355.93 452.842 355.93C453.238 355.93 453.238 356.303 453.635 356.303C454.032 356.303 454.032 355.964 454.43 355.964C454.827 355.964 454.78 356.159 455.155 356.029C455.531 355.898 454.893 356.104 454.64 355.642C454.535 355.45 454.805 355.008 454.662 354.735C454.552 354.524 454.327 354.345 454.196 354.086C454.085 353.868 453.743 353.742 453.618 353.489C453.508 353.266 453.414 353.017 453.293 352.766C453.184 352.539 452.989 352.338 452.872 352.088C452.764 351.859 452.57 351.655 452.455 351.406C452.349 351.175 452.385 350.868 452.273 350.619C452.168 350.386 452.063 350.143 451.953 349.895C451.849 349.66 451.846 349.373 451.738 349.125C451.636 348.888 451.653 348.594 451.548 348.345C451.446 348.108 451.006 348.005 450.902 347.756C450.803 347.517 451.246 347.05 451.144 346.801C451.045 346.561 450.443 346.52 450.342 346.27C450.245 346.029 450.22 345.754 450.121 345.504C450.025 345.263 450.267 344.885 450.169 344.635C450.075 344.393 449.738 344.24 449.642 343.989C449.549 343.746 449.352 343.538 449.258 343.287C449.165 343.043 449.191 342.752 449.098 342.501C449.007 342.256 448.858 342.029 448.766 341.778C448.677 341.533 448.496 341.317 448.406 341.065C448.317 340.82 448.13 340.605 448.041 340.353C447.954 340.107 448.125 339.767 448.037 339.515C447.95 339.268 447.544 339.128 447.457 338.876C447.372 338.628 447.353 338.355 447.267 338.102C447.184 337.854 447.046 337.621 446.962 337.368C446.879 337.12 446.899 336.834 446.816 336.581C446.734 336.332 447.134 335.925 447.052 335.672C446.972 335.424 446.542 335.286 446.461 335.033C446.382 334.785 446.292 334.538 446.213 334.285C446.134 334.036 446.076 333.778 445.997 333.525C445.92 333.276 445.771 333.046 445.693 332.792C445.617 332.542 445.552 332.286 445.476 332.032C445.4 331.781 445.502 331.476 445.426 331.222C445.352 330.971 445.037 330.788 444.962 330.533C444.889 330.282 444.746 330.048 444.672 329.792C444.6 329.541 444.66 329.248 444.588 328.993C444.516 328.741 444.316 328.522 444.244 328.266C444.173 328.013 444.459 327.66 444.388 327.404C444.318 327.151 444.326 326.875 444.256 326.618C444.187 326.365 444.056 326.127 443.987 325.87C443.919 325.616 443.762 325.385 443.694 325.128C443.626 324.873 443.312 324.682 443.244 324.424C443.178 324.17 443.062 323.926 442.996 323.668C442.93 323.414 443.351 323.036 443.286 322.779C443.221 322.525 442.661 322.394 442.597 322.137C442.533 321.882 442.764 321.553 442.701 321.296C442.638 321.041 442.591 320.781 442.528 320.523C442.466 320.267 442.138 320.074 442.076 319.816C442.015 319.56 442.383 319.201 442.321 318.942C442.261 318.686 441.938 318.49 441.878 318.231C441.818 317.974 441.917 317.68 441.857 317.42C441.799 317.165 441.935 316.864 441.877 316.606C441.819 316.349 441.225 316.211 441.167 315.952C441.11 315.695 441.228 315.397 441.171 315.138C441.115 314.88 441.187 314.593 441.13 314.333C441.074 314.075 440.991 313.821 440.935 313.56C440.88 313.303 440.909 313.026 440.855 312.766C440.8 312.507 440.641 312.269 440.587 312.008C440.533 311.749 440.221 311.542 440.168 311.281C440.114 311.019 440.52 310.665 440.467 310.402C440.415 310.142 439.815 309.994 439.762 309.737C439.709 309.478 439.81 309.189 439.757 308.932C439.704 308.673 439.536 308.44 439.482 308.183C439.428 307.924 439.491 307.643 439.436 307.386C439.382 307.128 439.448 306.845 439.392 306.588C439.337 306.33 439.489 306.028 439.433 305.772C439.376 305.514 439.463 305.225 439.406 304.969C439.349 304.711 439.234 304.466 439.177 304.21C439.119 303.953 438.791 303.756 438.733 303.501C438.675 303.243 438.888 302.925 438.829 302.67C438.77 302.412 438.725 302.152 438.665 301.897C438.605 301.64 438.229 301.457 438.168 301.203C438.108 300.946 437.804 300.748 437.743 300.494C437.681 300.237 437.687 299.966 437.625 299.712C437.563 299.455 437.698 299.153 437.636 298.899C437.572 298.642 437.545 298.379 437.482 298.125C437.418 297.869 437.61 297.55 437.546 297.297C437.482 297.041 437.001 296.891 436.937 296.638C436.871 296.382 437.225 296.021 437.159 295.768C437.093 295.511 436.743 295.329 436.677 295.075C436.609 294.818 436.61 294.545 436.542 294.292C436.474 294.036 436.57 293.737 436.502 293.484C436.433 293.228 435.836 293.115 435.768 292.863C435.698 292.607 436.21 292.195 436.14 291.943C436.07 291.687 435.543 291.559 435.473 291.307C435.402 291.053 435.48 290.758 435.409 290.506C435.337 290.252 435.026 290.067 434.954 289.816C434.881 289.562 434.826 289.305 434.754 289.054C434.68 288.801 434.968 288.444 434.895 288.194C434.82 287.94 434.873 287.651 434.799 287.401C434.724 287.148 434.563 286.921 434.488 286.672C434.411 286.419 434.267 286.188 434.191 285.939C434.114 285.687 433.693 285.542 433.616 285.294C433.538 285.042 433.749 284.703 433.672 284.455C433.593 284.203 433.396 283.99 433.317 283.743C433.237 283.49 433.145 283.243 433.065 282.995C432.984 282.742 433.031 282.451 432.951 282.203C432.869 281.952 432.556 281.778 432.475 281.531C432.392 281.28 432.378 281.009 432.296 280.763C432.213 280.512 432.563 280.12 432.48 279.874C432.396 279.624 432.144 279.432 432.06 279.187C431.974 278.937 431.787 278.724 431.703 278.479C431.616 278.229 431.703 277.921 431.617 277.676C431.529 277.427 431.211 277.261 431.125 277.018C431.036 276.769 430.9 276.54 430.813 276.297C430.723 276.049 430.585 275.822 430.497 275.58C430.406 275.332 430.317 275.087 430.228 274.846C430.137 274.6 430.118 274.327 430.033 274.08C429.948 273.832 430.073 273.517 429.993 273.268C429.913 273.018 430.003 272.723 429.929 272.472C429.855 272.221 429.229 272.126 429.161 271.874C429.093 271.621 429.421 271.266 429.358 271.012C429.295 270.758 428.777 270.608 428.72 270.353C428.664 270.097 429.237 269.71 429.186 269.454C429.135 269.197 428.464 269.056 428.419 268.798C428.374 268.54 428.83 268.2 428.791 267.942C428.751 267.683 428.724 267.427 428.69 267.168C428.657 266.909 428.456 266.671 428.429 266.411C428.401 266.151 428.337 265.895 428.315 265.634C428.294 265.373 428.059 265.125 428.044 264.864C428.028 264.603 428.013 264.337 428.003 264.075C427.994 263.814 428.375 263.542 428.371 263.281C428.368 263.019 428.208 262.76 428.21 262.498C428.213 262.237 428.164 261.974 428.173 261.712C428.181 261.451 428.095 261.183 428.109 260.922C428.123 260.661 428.249 260.405 428.269 260.144C428.29 259.884 428.586 259.65 428.612 259.39C428.639 259.129 428.71 258.88 428.743 258.621C428.775 258.361 428.65 258.085 428.689 257.826C428.727 257.568 428.408 257.251 428.452 256.993C428.497 256.735 429 256.561 429.051 256.304C429.101 256.047 429.268 255.821 429.324 255.565C429.38 255.31 429.037 254.966 429.099 254.712C429.161 254.458 429.442 254.26 429.509 254.007C429.577 253.755 429.541 253.475 429.614 253.224C429.688 252.973 429.883 252.761 429.963 252.512C430.042 252.263 430.026 251.984 430.111 251.737C430.196 251.49 429.954 251.124 430.045 250.878C430.136 250.633 430.267 250.396 430.364 250.152C430.46 249.909 430.781 249.754 430.883 249.512C430.985 249.272 431.29 249.114 431.394 248.869C431.496 248.629 431.401 248.304 431.505 248.058C431.607 247.818 431.634 247.544 431.737 247.298C431.839 247.058 431.894 246.796 431.998 246.551C432.099 246.31 432.194 246.064 432.297 245.819C432.399 245.579 432.896 245.501 433 245.257C433.101 245.016 433.075 244.719 433.178 244.475C433.28 244.234 433.432 244.012 433.536 243.768C433.637 243.527 433.606 243.228 433.709 242.984C433.81 242.743 434.145 242.597 434.248 242.353C434.35 242.111 434.388 241.842 434.491 241.598C434.593 241.357 434.319 240.956 434.421 240.712C434.523 240.471 434.523 240.185 434.626 239.941C434.727 239.7 435.101 239.571 435.204 239.326C435.305 239.085 435.495 238.878 435.597 238.634C435.699 238.393 435.661 238.092 435.764 237.848C435.865 237.607 435.933 237.352 436.035 237.109C436.136 236.869 436.216 236.619 436.318 236.376C436.419 236.136 436.387 235.839 436.489 235.596C436.59 235.356 436.814 235.165 436.916 234.922C437.017 234.682 437.069 234.42 437.171 234.177C437.272 233.936 437.848 233.892 437.949 233.649C438.05 233.408 437.982 233.095 438.083 232.853C438.184 232.612 438.393 232.415 438.495 232.172C438.596 231.931 438.263 231.508 438.365 231.265C438.466 231.024 438.894 230.918 438.995 230.675C439.096 230.434 438.757 230.009 438.859 229.766C438.96 229.524 439.194 229.338 439.296 229.095C439.397 228.853 439.565 228.639 439.667 228.396C439.768 228.155 440.049 227.987 440.151 227.744C440.252 227.502 440.432 227.293 440.533 227.049C440.634 226.808 440.334 226.399 440.435 226.156C440.536 225.914 440.835 225.754 440.936 225.51C441.037 225.269 441.323 225.103 441.425 224.86C441.526 224.618 441.53 224.335 441.631 224.092C441.732 223.85 441.737 223.568 441.838 223.324C441.939 223.082 442.376 222.979 442.478 222.735C442.579 222.493 442.281 222.086 442.382 221.843C442.483 221.6 442.563 221.349 442.664 221.105C442.765 220.863 443.007 220.679 443.108 220.435C443.209 220.193 443.114 219.869 443.215 219.626C443.315 219.383 443.927 219.351 444.029 219.108C444.129 218.865 444.167 218.596 444.268 218.353C444.369 218.11 444.333 217.811 444.434 217.567C444.535 217.325 444.701 217.109 444.802 216.865C444.903 216.623 444.612 216.219 444.713 215.975C444.814 215.732 445.209 215.61 445.31 215.367C445.411 215.124 445.254 214.775 445.355 214.531C445.456 214.289 445.538 214.038 445.639 213.794C445.74 213.552 446.209 213.46 446.31 213.216C446.41 212.973 446.352 212.664 446.453 212.421C446.553 212.178 446.822 212.003 446.923 211.76C447.023 211.517 446.733 211.113 446.834 210.869C446.934 210.626 447.461 210.557 447.561 210.313C447.661 210.071 447.506 209.723 447.606 209.48C447.706 209.238 447.549 208.889 447.649 208.646C447.749 208.404 448.383 208.379 448.484 208.136C448.584 207.893 448.179 207.444 448.279 207.2C448.379 206.958 449.001 206.928 449.101 206.684C449.201 206.442 449.238 206.172 449.338 205.929C449.438 205.686 449.57 205.456 449.67 205.212C449.77 204.969 449.879 204.729 449.979 204.486C450.079 204.243 449.869 203.873 449.97 203.629C450.069 203.386 450.038 203.089 450.138 202.846C450.238 202.602 450.861 202.572 450.961 202.328C451.06 202.085 451.099 201.816 451.199 201.572C451.298 201.329 451.182 200.997 451.282 200.753C451.382 200.51 451.374 200.222 451.473 199.978C451.573 199.734 451.649 199.481 451.749 199.237C451.849 198.993 452.129 198.823 452.229 198.579C452.329 198.335 452.284 198.033 452.384 197.789C452.483 197.545 452.373 197.216 452.473 196.971C452.572 196.728 452.929 196.588 453.028 196.343C453.128 196.1 453.172 195.834 453.272 195.59C453.371 195.346 453.447 195.093 453.547 194.849C453.646 194.605 454.105 194.506 454.204 194.262C454.304 194.018 454.069 193.639 454.168 193.395C454.268 193.151 454.416 192.927 454.516 192.682C454.615 192.438 454.631 192.16 454.731 191.916C454.83 191.672 455.303 191.578 455.402 191.334C455.501 191.089 455.467 190.791 455.567 190.546C455.666 190.302 455.702 190.032 455.801 189.787C455.9 189.543 455.821 189.226 455.92 188.981C456.019 188.737 456.306 188.568 456.405 188.323C456.505 188.078 456.24 187.687 456.339 187.442C456.438 187.198 456.824 187.068 456.923 186.823C457.022 186.578 457.297 186.404 457.397 186.159C457.496 185.914 457.247 185.529 457.346 185.284C457.445 185.039 457.599 184.816 457.697 184.571C457.797 184.325 458.012 184.127 458.111 183.882C458.21 183.637 458.513 183.473 458.612 183.228C458.711 182.982 458.517 182.62 458.615 182.374C458.714 182.129 459.212 182.043 459.311 181.797C459.41 181.552 459.148 181.162 459.247 180.917C459.346 180.671 459.499 180.448 459.598 180.202C459.697 179.957 460.093 179.829 460.191 179.584C460.29 179.338 459.808 178.861 459.907 178.616C460.005 178.37 460.353 178.223 460.452 177.978C460.55 177.732 460.988 177.62 461.086 177.375C461.184 177.129 460.935 176.746 461.033 176.501C461.131 176.255 461.146 175.977 461.244 175.732C461.342 175.486 461.282 175.178 461.38 174.933C461.478 174.687 461.585 174.445 461.683 174.2C461.781 173.954 461.865 173.704 461.963 173.458C462.061 173.213 462.344 173.04 462.441 172.795C462.539 172.549 463 172.447 463.098 172.201C463.195 171.955 463.128 171.645 463.226 171.399C463.323 171.153 463.201 170.821 463.298 170.576C463.396 170.33 463.607 170.129 463.704 169.883C463.802 169.637 464.153 169.491 464.25 169.246C464.348 169 464.467 168.762 464.564 168.517C464.662 168.271 464.259 167.829 464.355 167.583C464.453 167.337 464.469 167.06 464.566 166.814C464.663 166.568 465.293 166.53 465.39 166.285C465.487 166.039 465.424 165.73 465.52 165.484C465.617 165.238 465.359 164.854 465.456 164.608C465.553 164.362 465.644 164.114 465.74 163.868C465.837 163.622 466.218 163.486 466.314 163.24C466.411 162.994 466.784 162.855 466.88 162.61C466.977 162.363 467.01 162.092 467.106 161.846C467.203 161.6 467.059 161.261 467.155 161.015C467.251 160.768 467.688 160.654 467.783 160.408C467.88 160.161 467.479 159.723 467.575 159.477C467.671 159.23 468.1 159.113 468.195 158.867C468.291 158.62 468.054 158.245 468.149 157.999C468.245 157.752 468.598 157.605 468.693 157.359C468.789 157.112 468.525 156.728 468.62 156.482C468.716 156.235 469.036 156.075 469.131 155.829C469.227 155.582 469.19 155.285 469.285 155.039C469.38 154.792 469.374 154.507 469.469 154.261C469.564 154.014 469.899 153.859 469.993 153.613C470.088 153.366 470.434 153.215 470.529 152.969C470.623 152.722 470.407 152.357 470.501 152.111C470.596 151.864 470.787 151.653 470.881 151.407C470.975 151.16 471.164 150.949 471.258 150.703C471.352 150.455 471.382 150.184 471.476 149.938C471.57 149.691 471.842 149.511 471.936 149.265C472.03 149.018 472.066 148.749 472.159 148.503C472.253 148.255 472.026 147.888 472.119 147.642C472.212 147.394 472.289 147.141 472.382 146.895C472.475 146.647 472.674 146.44 472.767 146.194C472.86 145.946 473.151 145.773 473.243 145.527C473.336 145.279 473.638 145.109 473.73 144.863C473.823 144.615 473.839 144.34 473.931 144.093C474.024 143.844 473.698 143.441 473.79 143.193C473.883 142.944 474.331 142.826 474.423 142.579C474.515 142.33 474.301 141.968 474.393 141.721C474.485 141.472 474.531 141.207 474.622 140.959C474.714 140.71 475.22 140.613 475.311 140.365C475.403 140.116 474.969 139.676 475.059 139.428C475.151 139.179 475.444 139.004 475.534 138.757C475.626 138.507 475.868 138.314 475.958 138.066C476.049 137.817 475.955 137.502 476.044 137.255C476.135 137.005 476.471 136.845 476.56 136.598C476.65 136.348 476.461 136 476.55 135.752C476.639 135.503 477.017 135.357 477.105 135.11C477.195 134.86 477.124 134.555 477.212 134.308C477.301 134.058 477.395 133.811 477.482 133.564C477.571 133.314 477.454 132.994 477.541 132.747C477.629 132.497 478.031 132.359 478.117 132.112C478.205 131.862 477.929 131.487 478.015 131.241C478.102 130.99 478.429 130.825 478.514 130.579C478.601 130.328 478.471 130.006 478.555 129.76C478.642 129.509 479.064 129.376 479.148 129.129C479.234 128.879 479.158 128.576 479.241 128.329C479.327 128.078 479.455 127.845 479.538 127.598C479.623 127.347 479.86 127.149 479.942 126.902C480.027 126.649 480.278 126.454 480.36 126.206C480.444 125.953 480.497 125.692 480.578 125.444C480.66 125.192 480.798 124.959 480.878 124.711C480.959 124.459 480.475 124.029 480.554 123.782C480.635 123.529 481.14 123.413 481.218 123.167C481.298 122.913 481.346 122.652 481.422 122.405C481.502 122.15 481.508 121.876 481.584 121.629C481.661 121.374 481.564 121.072 481.638 120.825C481.715 120.57 481.963 120.37 482.036 120.123C482.111 119.867 482.122 119.599 482.192 119.352C482.266 119.096 482.504 118.891 482.573 118.645C482.646 118.382 482.267 118.017 482.32 117.752C482.374 117.486 482.535 117.252 482.569 116.984C482.604 116.715 483.03 116.478 483.045 116.208C483.061 115.936 482.535 115.656 482.531 115.385C482.527 115.114 483.048 114.817 483.024 114.547C483.001 114.277 482.882 114.003 482.839 113.735C482.797 113.467 482.253 113.303 482.192 113.039C482.13 112.775 482.695 112.342 482.614 112.083C482.534 111.824 481.87 111.766 481.771 111.513C481.673 111.26 481.558 111.037 481.441 110.792C481.325 110.547 481.398 110.219 481.265 109.983C481.132 109.747 481.195 109.387 481.045 109.161C480.896 108.935 480.531 108.859 480.364 108.643C480.199 108.429 480.07 108.19 479.888 107.986C479.708 107.784 479.688 107.421 479.492 107.231Z" fill="white"/>
<path d="M318.568 220.552C318.302 220.255 318.366 220.283 317.913 220.041C317.716 219.936 317.481 219.797 317.207 219.66C316.991 219.552 316.792 219.338 316.53 219.214C316.304 219.108 315.92 219.298 315.663 219.183C315.431 219.08 315.12 219.133 314.864 219.025C314.628 218.925 314.507 218.524 314.252 218.422C314.012 218.327 313.795 218.14 313.54 218.044C313.297 217.953 313.073 217.774 312.816 217.684C312.57 217.597 312.195 217.861 311.937 217.776C311.689 217.694 311.55 217.247 311.291 217.167C311.041 217.09 310.659 217.428 310.399 217.354C310.147 217.282 309.976 216.893 309.715 216.824C309.461 216.758 309.171 216.801 308.909 216.739C308.653 216.677 308.319 216.946 308.056 216.89C307.798 216.834 307.526 216.865 307.262 216.814C307.002 216.765 306.747 216.72 306.482 216.676C306.221 216.632 305.971 216.551 305.706 216.514C305.443 216.477 305.187 216.431 304.921 216.4C304.658 216.369 304.449 215.79 304.182 215.766C303.918 215.743 303.624 216.048 303.356 216.031C303.091 216.015 302.833 215.811 302.565 215.801C302.3 215.792 302.026 216.125 301.758 216.124C301.493 216.122 301.224 215.821 300.956 215.827C300.691 215.833 300.431 216.025 300.163 216.039C299.898 216.054 299.617 215.874 299.35 215.897C299.086 215.92 298.862 216.34 298.597 216.371C298.333 216.402 298.028 216.113 297.763 216.153C297.5 216.193 297.245 216.295 296.982 216.344C296.721 216.392 296.443 216.374 296.181 216.432C295.922 216.489 295.732 216.829 295.472 216.896C295.216 216.963 294.853 216.658 294.597 216.734C294.342 216.81 294.069 216.857 293.815 216.943C293.564 217.027 293.288 217.074 293.037 217.169C292.789 217.262 292.521 217.337 292.273 217.441C292.029 217.544 291.978 218.09 291.735 218.203C291.495 218.314 291.072 218.061 290.833 218.183C290.597 218.303 290.634 218.932 290.399 219.063C290.168 219.191 289.613 218.768 289.383 218.907C289.156 219.043 289.201 219.616 288.976 219.763C288.755 219.907 288.556 220.075 288.336 220.23C288.12 220.382 287.933 220.563 287.719 220.725C287.509 220.885 287.148 220.851 286.939 221.02C286.734 221.187 286.402 221.211 286.199 221.388C285.999 221.561 285.978 221.936 285.78 222.119C285.586 222.298 285.27 222.355 285.078 222.544C284.89 222.729 284.615 222.84 284.429 223.035C284.251 223.222 284.068 223.415 283.889 223.61C283.715 223.801 283.826 224.251 283.651 224.449C283.481 224.644 283.029 224.602 282.858 224.804C282.691 225.001 282.851 225.472 282.683 225.676C282.519 225.877 282.194 225.949 282.03 226.156C281.869 226.359 281.742 226.591 281.581 226.8C281.423 227.005 281.207 227.17 281.049 227.381C280.894 227.588 280.942 227.947 280.786 228.16C280.633 228.369 280.539 228.619 280.386 228.834C280.235 229.045 279.685 228.979 279.535 229.195C279.386 229.408 279.482 229.791 279.333 230.008C279.187 230.223 278.805 230.282 278.658 230.501C278.514 230.717 278.415 230.966 278.271 231.187C278.128 231.404 277.828 231.524 277.686 231.746C277.545 231.964 277.834 232.457 277.694 232.679C277.555 232.899 276.97 232.845 276.831 233.068C276.694 233.289 276.725 233.616 276.588 233.841C276.452 234.063 276.218 234.229 276.082 234.454C275.948 234.677 275.742 234.861 275.607 235.087C275.475 235.311 275.482 235.621 275.349 235.848C275.218 236.072 275.05 236.279 274.918 236.506C274.788 236.732 274.714 236.992 274.584 237.221C274.455 237.447 274.388 237.71 274.259 237.939C274.131 238.167 274.107 238.453 273.98 238.682C273.853 238.91 273.841 239.202 273.715 239.432C273.589 239.661 273.243 239.77 273.117 240.001C272.993 240.23 272.962 240.511 272.838 240.742C272.714 240.972 272.427 241.116 272.303 241.348C272.181 241.579 271.979 241.769 271.857 242.002C271.735 242.232 272.08 242.705 271.959 242.937C271.839 243.168 271.634 243.354 271.513 243.587C271.394 243.818 270.827 243.821 270.708 244.054C270.589 244.286 270.773 244.672 270.654 244.905C270.536 245.137 270.397 245.359 270.279 245.593C270.162 245.825 269.924 245.999 269.807 246.233C269.69 246.466 269.577 246.702 269.461 246.937C269.345 247.17 269.506 247.54 269.39 247.774C269.275 248.008 268.697 248.018 268.582 248.253C268.467 248.488 268.577 248.831 268.463 249.067C268.349 249.302 268.206 249.524 268.093 249.76C267.979 249.995 267.976 250.283 267.863 250.519C267.75 250.755 267.523 250.937 267.411 251.174C267.299 251.409 267.466 251.777 267.354 252.014C267.243 252.25 267.191 252.514 267.079 252.752C266.968 252.988 266.372 253 266.261 253.237C266.15 253.474 266.179 253.776 266.069 254.014C265.959 254.251 266.004 254.56 265.895 254.798C265.785 255.035 265.788 255.324 265.679 255.563C265.569 255.8 265.521 256.066 265.412 256.304C265.304 256.542 265.212 256.788 265.103 257.026C264.995 257.264 264.589 257.367 264.481 257.606C264.373 257.844 264.04 257.981 263.932 258.22C263.825 258.458 264.271 258.943 264.164 259.182C264.057 259.42 263.883 259.629 263.777 259.868C263.67 260.107 263.348 260.25 263.242 260.49C263.135 260.729 262.775 260.856 262.669 261.096C262.563 261.335 262.6 261.637 262.494 261.877C262.389 262.117 262.344 262.383 262.238 262.623C262.133 262.863 262.066 263.119 261.961 263.359C261.856 263.599 261.733 263.831 261.628 264.072C261.524 264.312 261.184 264.451 261.079 264.691C260.975 264.932 260.955 265.208 260.851 265.449C260.747 265.689 260.656 265.936 260.552 266.177C260.448 266.417 260.589 266.763 260.486 267.004C260.382 267.244 260.476 267.569 260.373 267.81C260.269 268.052 259.782 268.13 259.679 268.371C259.575 268.612 259.794 268.99 259.691 269.231C259.588 269.473 259.377 269.668 259.274 269.91C259.171 270.152 259.108 270.41 259.006 270.652C258.903 270.894 258.604 271.053 258.501 271.295C258.399 271.537 258.593 271.903 258.491 272.145C258.389 272.388 258.177 272.584 258.075 272.826C257.973 273.068 257.896 273.321 257.794 273.563C257.692 273.806 257.472 273.999 257.371 274.242C257.269 274.484 256.944 274.634 256.842 274.876C256.74 275.119 256.856 275.453 256.755 275.695C256.653 275.938 256.273 276.065 256.172 276.308C256.07 276.551 256.287 276.926 256.186 277.168C256.085 277.411 255.708 277.54 255.607 277.783C255.505 278.026 255.332 278.239 255.231 278.482C255.13 278.725 255.452 279.143 255.351 279.386C255.25 279.629 255.259 279.917 255.158 280.16C255.057 280.404 254.987 280.659 254.886 280.902C254.785 281.146 254.548 281.332 254.447 281.575C254.346 281.818 253.867 281.906 253.766 282.149C253.665 282.392 253.495 282.607 253.394 282.849C253.294 283.093 253.503 283.463 253.402 283.706C253.301 283.95 253.065 284.137 252.965 284.38C252.864 284.623 252.963 284.948 252.862 285.191C252.762 285.434 252.551 285.632 252.45 285.874C252.349 286.117 252.452 286.444 252.352 286.686C252.251 286.93 251.84 287.045 251.739 287.287C251.639 287.531 251.433 287.73 251.332 287.972C251.231 288.215 251.626 288.662 251.525 288.904C251.424 289.147 251.381 289.413 251.28 289.655C251.179 289.898 250.927 290.078 250.827 290.32C250.726 290.563 250.304 290.673 250.203 290.914C250.102 291.157 249.934 291.372 249.833 291.613C249.732 291.856 249.957 292.233 249.857 292.474C249.755 292.717 249.461 292.878 249.36 293.119C249.258 293.362 249.449 293.724 249.348 293.965C249.246 294.207 249.129 294.442 249.028 294.683C248.926 294.925 248.778 295.147 248.677 295.388C248.575 295.63 248.131 295.727 248.03 295.967C247.928 296.209 248.021 296.531 247.919 296.771C247.817 297.014 247.755 297.273 247.653 297.514C247.55 297.756 247.589 298.057 247.486 298.297C247.383 298.539 246.915 298.625 246.813 298.865C246.71 299.106 246.723 299.395 246.62 299.634C246.517 299.875 246.634 300.209 246.531 300.447C246.428 300.688 246.452 300.982 246.349 301.22C246.245 301.461 245.983 301.633 245.879 301.872C245.775 302.112 245.841 302.424 245.737 302.662C245.632 302.902 245.401 303.086 245.296 303.324C245.192 303.561 245.145 303.823 245.041 304.058C244.934 304.301 244.352 304.336 244.246 304.578C244.138 304.822 244.369 305.212 244.262 305.454C244.155 305.698 244.101 305.964 243.994 306.206C243.887 306.449 243.816 306.708 243.709 306.95C243.602 307.193 243.596 307.48 243.49 307.722C243.382 307.966 242.837 308.017 242.73 308.259C242.623 308.503 242.533 308.753 242.427 308.995C242.32 309.238 242.151 309.454 242.045 309.696C241.938 309.94 242.027 310.268 241.921 310.51C241.815 310.753 241.554 310.929 241.448 311.171C241.342 311.415 241.227 311.654 241.121 311.896C241.014 312.14 241.097 312.464 240.991 312.707C240.885 312.95 240.59 313.112 240.485 313.354C240.379 313.598 240.523 313.948 240.417 314.191C240.311 314.434 239.872 314.533 239.767 314.776C239.661 315.019 239.616 315.289 239.511 315.531C239.405 315.775 239.344 316.037 239.239 316.279C239.134 316.523 239.039 316.77 238.934 317.013C238.829 317.256 239.061 317.644 238.956 317.886C238.851 318.13 238.615 318.317 238.511 318.559C238.406 318.803 238.397 319.087 238.293 319.33C238.188 319.574 238.094 319.821 237.991 320.063C237.886 320.308 237.935 320.615 237.831 320.858C237.727 321.102 237.536 321.308 237.432 321.55C237.328 321.795 236.737 321.832 236.634 322.075C236.53 322.319 236.762 322.704 236.66 322.946C236.556 323.191 236.708 323.541 236.605 323.783C236.502 324.028 235.865 324.048 235.763 324.29C235.66 324.535 235.6 324.797 235.498 325.039C235.395 325.284 235.591 325.652 235.49 325.894C235.387 326.139 235.45 326.451 235.349 326.693C235.247 326.938 234.903 327.082 234.802 327.325C234.701 327.57 234.84 327.912 234.74 328.155C234.638 328.4 234.482 328.621 234.382 328.864C234.281 329.109 233.784 329.191 233.684 329.434C233.584 329.68 233.539 329.947 233.44 330.19C233.34 330.435 233.243 330.681 233.145 330.924C233.045 331.17 233.147 331.495 233.049 331.738C232.95 331.984 232.741 332.184 232.644 332.428C232.545 332.674 232.502 332.94 232.405 333.184C232.307 333.43 232.402 333.75 232.306 333.994C232.209 334.24 232.11 334.484 232.014 334.727C231.918 334.974 231.692 335.169 231.597 335.412C231.501 335.659 231.578 335.971 231.484 336.214C231.389 336.462 230.951 336.576 230.857 336.82C230.763 337.067 230.598 337.287 230.506 337.531C230.412 337.779 230.258 338.003 230.166 338.247C230.073 338.495 229.915 338.718 229.825 338.962C229.732 339.211 229.849 339.534 229.759 339.779C229.667 340.029 229.838 340.373 229.749 340.619C229.658 340.87 229.386 341.053 229.298 341.3C229.209 341.551 228.818 341.695 228.731 341.942C228.643 342.193 228.659 342.48 228.574 342.727C228.487 342.979 228.739 343.343 228.655 343.59C228.569 343.842 228.424 344.071 228.341 344.318C228.257 344.57 227.875 344.723 227.795 344.97C227.712 345.223 228 345.591 227.922 345.839C227.841 346.092 227.397 346.229 227.32 346.477C227.242 346.731 227.3 347.024 227.226 347.272C227.149 347.526 226.844 347.713 226.772 347.961C226.698 348.217 226.649 348.479 226.58 348.728C226.508 348.985 226.62 349.29 226.553 349.54C226.484 349.798 226.327 350.031 226.264 350.281C226.198 350.54 226.099 350.79 226.04 351.041C225.978 351.301 226.278 351.639 226.223 351.889C226.166 352.151 225.698 352.324 225.648 352.576C225.595 352.839 225.849 353.157 225.805 353.409C225.759 353.673 225.541 353.906 225.504 354.158C225.464 354.425 225.73 354.725 225.701 354.978C225.67 355.246 225.648 355.501 225.629 355.753C225.608 356.022 225.646 356.088 225.639 356.339C225.901 356.339 225.982 356.54 226.249 356.54C226.511 356.54 226.775 356.389 227.041 356.389C227.302 356.389 227.565 356.68 227.83 356.68C228.091 356.68 228.353 356.557 228.618 356.557C228.879 356.557 229.142 356.565 229.406 356.565C229.668 356.565 229.931 356.469 230.195 356.469C230.457 356.469 230.72 356.408 230.984 356.408C231.246 356.408 231.509 356.455 231.774 356.455C232.035 356.455 232.299 356.487 232.563 356.487C232.825 356.487 233.088 356.698 233.353 356.698C233.615 356.698 233.878 356.193 234.143 356.193C234.405 356.193 234.668 356.425 234.933 356.425C235.195 356.425 235.458 356.451 235.723 356.451C235.985 356.451 236.249 356.748 236.513 356.748C236.776 356.748 237.039 356.334 237.304 356.334C237.566 356.334 237.83 356.701 238.095 356.701C238.357 356.701 238.621 356.285 238.885 356.285C239.148 356.285 239.412 356.817 239.676 356.817C239.939 356.817 240.203 356.8 240.468 356.8C240.731 356.8 240.994 356.695 241.259 356.695C241.522 356.695 241.786 356.428 242.05 356.428C242.314 356.428 242.578 356.627 242.842 356.627C243.105 356.627 243.369 356.61 243.634 356.61C243.897 356.61 244.161 356.8 244.426 356.8C244.689 356.8 244.953 356.251 245.218 356.251C245.481 356.251 245.745 356.336 246.01 356.336C246.273 356.336 246.538 356.197 246.802 356.197C247.066 356.197 247.33 356.192 247.594 356.192C247.858 356.192 248.122 356.513 248.387 356.513C248.65 356.513 248.913 356.828 249.177 356.828C249.44 356.828 249.704 356.641 249.968 356.641C250.231 356.641 250.494 356.645 250.758 356.645C251.022 356.645 251.285 356.337 251.549 356.337C251.813 356.337 252.077 356.535 252.341 356.535C252.604 356.535 252.868 356.651 253.132 356.651C253.396 356.651 253.66 356.647 253.924 356.647C254.188 356.647 254.452 356.778 254.716 356.778C254.98 356.778 255.244 356.268 255.509 356.268C255.772 356.268 256.037 356.562 256.301 356.562C256.565 356.562 256.829 356.484 257.094 356.484C257.358 356.484 257.622 356.7 257.886 356.7C258.15 356.7 258.414 356.541 258.678 356.541C258.942 356.541 259.207 356.204 259.471 356.204C259.735 356.204 260 356.584 260.264 356.584C260.529 356.584 260.793 356.376 261.058 356.376C261.323 356.376 261.587 356.85 261.852 356.85C262.117 356.85 262.382 356.572 262.646 356.572C262.911 356.572 263.176 356.446 263.441 356.446C263.706 356.446 263.972 356.52 264.237 356.52C264.502 356.52 264.767 356.748 265.032 356.748C265.298 356.748 265.563 356.823 265.828 356.823C266.093 356.823 266.358 356.466 266.623 356.466C266.888 356.466 267.153 356.827 267.418 356.827C267.683 356.827 267.948 356.831 268.213 356.831C268.478 356.831 268.743 356.533 269.008 356.533C269.273 356.533 269.539 356.637 269.803 356.637C270.069 356.637 270.334 356.409 270.599 356.409C270.864 356.409 271.129 356.81 271.394 356.81C271.66 356.81 271.925 356.761 272.19 356.761C272.456 356.761 272.721 356.424 272.986 356.424C273.251 356.424 273.517 356.203 273.781 356.203C274.047 356.203 274.312 356.785 274.577 356.785C274.843 356.785 275.108 356.467 275.373 356.467C275.639 356.467 275.904 356.493 276.169 356.493C276.435 356.493 276.7 356.392 276.965 356.392C277.231 356.392 277.496 356.226 277.761 356.226C278.027 356.226 278.293 356.544 278.557 356.544C278.823 356.544 279.089 356.561 279.354 356.561C279.62 356.561 279.885 356.251 280.15 356.251C280.416 356.251 280.681 356.801 280.946 356.801C281.212 356.801 281.477 356.66 281.742 356.66C282.008 356.66 282.274 356.718 282.538 356.718C282.805 356.718 283.07 356.815 283.335 356.815C283.601 356.815 283.866 356.838 284.131 356.838C284.397 356.838 284.662 356.507 284.927 356.507C285.193 356.507 285.459 356.515 285.723 356.515C285.99 356.515 286.255 356.413 286.52 356.413C286.786 356.413 287.051 356.279 287.316 356.279C287.582 356.279 287.847 356.658 288.112 356.658C288.378 356.658 288.643 356.465 288.908 356.465C289.174 356.465 289.439 356.828 289.704 356.828C289.97 356.828 290.235 356.569 290.499 356.569C290.766 356.569 291.031 356.601 291.295 356.601C291.562 356.601 291.827 356.272 292.091 356.272C292.357 356.272 292.623 356.775 292.887 356.775C293.153 356.775 293.418 356.298 293.682 356.298C293.948 356.298 294.213 356.532 294.477 356.532C294.744 356.532 295.009 356.439 295.272 356.439C295.539 356.439 295.804 356.459 296.067 356.459C296.334 356.459 296.599 356.432 296.862 356.432C297.129 356.432 297.394 356.436 297.657 356.436C297.923 356.436 298.188 356.22 298.451 356.22C298.718 356.22 298.983 356.594 299.246 356.594C299.512 356.594 299.777 356.575 300.039 356.575C300.306 356.575 300.571 356.384 300.833 356.384C301.1 356.384 301.364 356.582 301.627 356.582C301.893 356.582 302.158 356.267 302.42 356.267C302.686 356.267 302.951 356.774 303.212 356.774C303.479 356.774 303.743 356.252 304.005 356.252C304.271 356.252 304.535 356.464 304.797 356.464C305.064 356.464 305.327 356.412 305.588 356.412C305.855 356.412 306.119 356.33 306.38 356.33C306.647 356.33 306.91 356.772 307.171 356.772C307.438 356.772 307.702 356.34 307.963 356.34C308.23 356.34 308.494 356.577 308.755 356.577C309.023 356.577 309.287 356.766 309.547 356.766C309.816 356.766 310.08 356.802 310.339 356.802C310.608 356.802 310.872 356.714 311.132 356.714C311.401 356.714 311.665 356.419 311.924 356.419C312.193 356.419 312.457 356.419 312.715 356.419C312.985 356.419 313.249 356.716 313.505 356.716C313.777 356.716 314.04 356.853 314.296 356.853C314.57 356.853 314.834 356.301 315.09 356.301C315.365 356.301 315.629 356.495 315.883 356.495C316.16 356.495 316.424 356.812 316.674 356.812C316.955 356.812 317.218 356.767 317.464 356.767C317.751 356.767 318.014 356.394 318.251 356.394C318.557 356.394 318.82 356.7 319.04 356.7C319.555 356.7 319.921 356.554 319.921 356.554C320.042 356.184 319.77 356.231 319.907 355.738C319.964 355.529 320.32 355.355 320.394 355.063C320.452 354.835 320.134 354.491 320.199 354.214C320.256 353.978 320.724 353.819 320.785 353.548C320.838 353.307 320.426 352.953 320.482 352.685C320.533 352.441 320.919 352.255 320.971 351.989C321.02 351.743 321.152 351.502 321.201 351.237C321.247 350.989 321.435 350.756 321.481 350.492C321.524 350.243 321.103 349.908 321.146 349.645C321.186 349.394 321.483 349.178 321.523 348.914C321.562 348.662 321.64 348.41 321.677 348.147C321.713 347.894 321.689 347.628 321.724 347.365C321.758 347.111 322.058 346.885 322.091 346.622C322.122 346.368 322.065 346.097 322.095 345.834C322.124 345.579 322.005 345.303 322.033 345.04C322.06 344.785 321.684 344.487 321.709 344.224C321.734 343.969 322.077 343.741 322.1 343.478C322.123 343.222 322.424 342.985 322.445 342.722C322.465 342.466 322.338 342.194 322.357 341.932C322.375 341.676 322.095 341.398 322.111 341.136C322.127 340.88 322.445 340.638 322.459 340.376C322.473 340.119 322.145 339.843 322.158 339.58C322.17 339.323 322.668 339.083 322.678 338.82C322.688 338.562 322.668 338.298 322.676 338.035C322.684 337.777 322.271 337.505 322.277 337.242C322.283 336.985 322.367 336.728 322.371 336.466C322.375 336.208 322.499 335.95 322.501 335.688C322.503 335.429 322.311 335.168 322.311 334.905C322.311 334.645 322.202 334.386 322.2 334.123C322.198 333.864 322.481 333.601 322.477 333.339C322.473 333.079 322.446 332.817 322.44 332.554C322.433 332.294 322.632 332.026 322.624 331.762C322.615 331.496 322.501 331.234 322.493 330.971C322.484 330.705 322.26 330.448 322.251 330.184C322.242 329.919 322.437 329.647 322.427 329.384C322.417 329.118 322.419 328.853 322.409 328.59C322.399 328.324 322.524 328.055 322.513 327.791C322.502 327.526 322.155 327.276 322.144 327.013C322.133 326.747 321.997 326.489 321.985 326.226C321.974 325.961 322.35 325.68 322.338 325.417C322.326 325.152 322.101 324.898 322.09 324.635C322.078 324.369 321.97 324.109 321.958 323.845C321.946 323.579 322.285 323.298 322.273 323.035C322.26 322.769 322.032 322.515 322.02 322.251C322.007 321.986 321.951 321.724 321.939 321.46C321.927 321.195 322.254 320.916 322.242 320.652C322.23 320.388 322.243 320.123 322.231 319.859C322.219 319.595 322.172 319.333 322.16 319.069C322.148 318.805 321.725 318.559 321.714 318.295C321.702 318.031 321.976 317.755 321.964 317.491C321.953 317.227 321.893 316.966 321.882 316.703C321.871 316.439 321.891 316.175 321.88 315.911C321.87 315.648 321.993 315.38 321.983 315.117C321.973 314.854 321.922 314.593 321.913 314.33C321.903 314.068 321.575 313.816 321.566 313.553C321.557 313.291 321.86 313.018 321.852 312.755C321.844 312.493 321.446 312.242 321.438 311.979C321.431 311.717 321.511 311.452 321.504 311.189C321.497 310.927 321.636 310.661 321.63 310.398C321.625 310.135 321.418 309.876 321.413 309.612C321.409 309.349 321.703 309.081 321.699 308.817C321.695 308.554 321.8 308.29 321.797 308.026C321.794 307.763 321.38 307.504 321.378 307.24C321.376 306.977 321.631 306.712 321.63 306.448C321.629 306.185 321.606 305.922 321.606 305.658C321.606 305.395 321.7 305.132 321.702 304.868C321.703 304.606 321.766 304.345 321.768 304.082C321.771 303.821 321.789 303.56 321.793 303.296C321.796 303.035 321.414 302.766 321.419 302.503C321.423 302.241 321.519 301.98 321.525 301.716C321.531 301.454 321.292 301.185 321.299 300.921C321.306 300.659 321.301 300.395 321.309 300.131C321.317 299.869 321.472 299.609 321.482 299.345C321.491 299.083 321.503 298.819 321.514 298.555C321.524 298.293 321.632 298.033 321.644 297.769C321.656 297.506 321.855 297.252 321.868 296.987C321.881 296.725 321.694 296.451 321.709 296.186C321.723 295.924 322.144 295.683 322.16 295.418C322.176 295.156 321.717 294.863 321.734 294.598C321.751 294.335 321.701 294.066 321.719 293.801C321.737 293.539 321.84 293.282 321.859 293.018C321.878 292.756 321.961 292.497 321.981 292.233C322.002 291.971 322.189 291.72 322.21 291.455C322.232 291.193 322.378 290.94 322.401 290.675C322.423 290.413 322.23 290.132 322.254 289.868C322.277 289.605 322.183 289.33 322.208 289.065C322.232 288.803 322.292 288.542 322.318 288.277C322.344 288.013 322.346 287.743 322.373 287.475C322.4 287.219 322.203 286.939 322.229 286.676C322.254 286.419 322.664 286.196 322.688 285.933C322.712 285.676 322.368 285.384 322.39 285.122C322.412 284.864 322.439 284.606 322.46 284.343C322.481 284.086 322.566 283.832 322.586 283.569C322.606 283.311 323.108 283.087 323.127 282.824C323.146 282.566 322.771 282.278 322.788 282.015C322.806 281.757 323.165 281.519 323.181 281.256C323.198 280.998 322.956 280.721 322.972 280.459C322.987 280.2 322.904 279.934 322.919 279.671C322.933 279.413 323.188 279.165 323.202 278.903C323.216 278.644 323.309 278.387 323.323 278.124C323.336 277.865 323.399 277.606 323.412 277.344C323.424 277.084 323.201 276.813 323.212 276.55C323.224 276.291 323.446 276.039 323.457 275.776C323.468 275.518 323.628 275.263 323.638 275.003C323.648 274.744 323.52 274.479 323.529 274.218C323.539 273.959 323.214 273.688 323.223 273.427C323.231 273.168 323.264 272.909 323.272 272.648C323.279 272.389 323.347 272.13 323.354 271.869C323.36 271.61 323.102 271.343 323.108 271.082C323.114 270.823 323.49 270.571 323.495 270.309C323.501 270.05 323.703 269.793 323.708 269.531C323.712 269.271 323.353 269.004 323.357 268.743C323.361 268.483 323.276 268.221 323.28 267.96C323.283 267.7 323.798 267.445 323.801 267.183C323.804 266.923 323.399 266.658 323.401 266.397C323.403 266.136 323.58 265.876 323.581 265.615C323.582 265.354 323.294 265.092 323.294 264.831C323.295 264.571 323.753 264.311 323.753 264.05C323.753 263.79 323.82 263.529 323.82 263.268C323.819 263.007 323.187 262.749 323.186 262.488C323.185 262.227 323.57 261.964 323.568 261.703C323.566 261.442 323.202 261.185 323.199 260.924C323.196 260.663 323.237 260.402 323.233 260.141C323.23 259.879 323.78 259.61 323.776 259.349C323.771 259.088 323.273 258.834 323.268 258.573C323.263 258.312 323.127 258.053 323.122 257.792C323.116 257.53 323.689 257.256 323.683 256.994C323.677 256.733 323.475 256.476 323.468 256.214C323.461 255.952 323.134 255.7 323.127 255.438C323.119 255.176 323.426 254.905 323.417 254.643C323.409 254.381 323.281 254.124 323.272 253.862C323.263 253.6 323.523 253.328 323.513 253.066C323.503 252.804 323.098 252.558 323.087 252.296C323.077 252.034 322.998 251.776 322.986 251.514C322.974 251.252 323.44 250.968 323.427 250.706C323.415 250.444 323.225 250.19 323.212 249.929C323.199 249.667 322.805 249.425 322.791 249.163C322.777 248.901 323.212 248.615 323.197 248.353C323.182 248.091 322.798 247.851 322.782 247.589C322.766 247.327 322.829 247.061 322.812 246.8C322.795 246.537 323.233 246.245 323.215 245.984C323.198 245.722 322.748 245.49 322.73 245.229C322.711 244.966 322.646 244.709 322.626 244.448C322.606 244.185 322.892 243.9 322.871 243.64C322.85 243.377 322.77 243.12 322.749 242.86C322.727 242.598 322.972 242.313 322.949 242.052C322.926 241.79 322.324 241.58 322.3 241.32C322.276 241.058 322.374 240.786 322.349 240.526C322.324 240.264 322.759 239.958 322.733 239.698C322.706 239.436 322.473 239.196 322.445 238.936C322.418 238.674 322.115 238.443 322.087 238.184C322.058 237.923 322.027 237.663 321.997 237.404C321.966 237.143 322.419 236.825 322.388 236.567C322.356 236.305 321.923 236.094 321.89 235.836C321.857 235.575 322.065 235.284 322.031 235.026C321.996 234.765 321.942 234.508 321.906 234.25C321.869 233.99 321.525 233.775 321.488 233.518C321.449 233.257 321.238 233.026 321.198 232.77C321.158 232.51 321.573 232.181 321.532 231.925C321.49 231.666 321.199 231.449 321.155 231.194C321.111 230.935 321.434 230.614 321.389 230.359C321.342 230.1 320.815 229.93 320.767 229.676C320.719 229.417 320.879 229.122 320.828 228.868C320.777 228.61 320.461 228.409 320.408 228.156C320.354 227.897 320.828 227.528 320.772 227.275C320.715 227.017 320.241 226.856 320.182 226.604C320.122 226.347 319.933 226.127 319.871 225.877C319.807 225.621 320.112 225.277 320.046 225.028C319.979 224.772 320.084 224.471 320.014 224.223C319.943 223.968 319.51 223.82 319.436 223.574C319.36 223.321 319.12 223.126 319.042 222.882C318.96 222.63 318.875 222.39 318.791 222.149C318.704 221.898 318.671 221.641 318.58 221.403C318.486 221.154 318.665 220.787 318.568 220.552Z" fill="white"/>
<path d="M345.588 224.528L343.38 248.033L319.673 226.189C315.492 222.336 316.858 215.283 322.276 213.533C323.218 213.229 324.221 213.07 325.278 213.12C331.996 213.443 345.588 224.528 345.588 224.528Z" fill="white" stroke="#003649" stroke-linecap="round" stroke-linejoin="round"/>
<path d="M345.582 224.528L347.79 248.033L371.496 226.189C375.678 222.336 374.312 215.283 368.894 213.533C367.952 213.229 366.948 213.07 365.891 213.12C359.174 213.443 345.582 224.528 345.582 224.528Z" fill="white" stroke="#003649" stroke-linecap="round" stroke-linejoin="round"/>
<path d="M430.848 112.418L478.173 132.338" stroke="#003649" stroke-miterlimit="10"/>
<path d="M345.586 256.723C346.611 256.723 347.442 255.895 347.442 254.875C347.442 253.854 346.611 253.027 345.586 253.027C344.561 253.027 343.73 253.854 343.73 254.875C343.73 255.895 344.561 256.723 345.586 256.723Z" fill="#00384A"/>
<path d="M345.586 263.145C346.611 263.145 347.442 262.317 347.442 261.297C347.442 260.276 346.611 259.449 345.586 259.449C344.561 259.449 343.73 260.276 343.73 261.297C343.73 262.317 344.561 263.145 345.586 263.145Z" fill="#00384A"/>
<path d="M345.586 269.567C346.611 269.567 347.442 268.739 347.442 267.719C347.442 266.698 346.611 265.871 345.586 265.871C344.561 265.871 343.73 266.698 343.73 267.719C343.73 268.739 344.561 269.567 345.586 269.567Z" fill="#00384A"/>
<path d="M284.441 358L294.614 280.617" stroke="#003649" stroke-linecap="round" stroke-linejoin="round"/>
<path d="M424.035 66.1386C425.53 63.2816 429.068 62.1726 431.936 63.6615C434.805 65.1505 435.919 68.6734 434.424 71.5304" stroke="#010101" stroke-miterlimit="10"/>
<path d="M457.939 61.7153C459.974 61.7153 461.624 60.0723 461.624 58.0455C461.624 56.0187 459.974 54.3757 457.939 54.3757C455.904 54.3757 454.254 56.0187 454.254 58.0455C454.254 60.0723 455.904 61.7153 457.939 61.7153Z" stroke="#010101" stroke-miterlimit="10"/>
<path d="M470.63 70.9355C472.665 70.9355 474.315 69.2925 474.315 67.2657C474.315 65.239 472.665 63.5959 470.63 63.5959C468.595 63.5959 466.945 65.239 466.945 67.2657C466.945 69.2925 468.595 70.9355 470.63 70.9355Z" stroke="#010101" stroke-miterlimit="10"/>
<path d="M478.216 77.0895C479.953 77.0895 481.361 75.6871 481.361 73.9572C481.361 72.2272 479.953 70.8248 478.216 70.8248C476.478 70.8248 475.07 72.2272 475.07 73.9572C475.07 75.6871 476.478 77.0895 478.216 77.0895Z" stroke="#010101" stroke-miterlimit="10"/>
<path d="M486.028 81.6903C487.765 81.6903 489.173 80.288 489.173 78.558C489.173 76.8281 487.765 75.4257 486.028 75.4257C484.291 75.4257 482.883 76.8281 482.883 78.558C482.883 80.288 484.291 81.6903 486.028 81.6903Z" stroke="#010101" stroke-miterlimit="10"/>
<path d="M474.219 68.155L483.7 44.7668" stroke="#010101" stroke-miterlimit="10" stroke-linecap="round"/>
<path d="M481.281 74.6916L490.762 51.3035" stroke="#010101" stroke-miterlimit="10" stroke-linecap="round"/>
<path d="M469.207 37.4525L466.508 53.3703" stroke="#010101" stroke-miterlimit="10" stroke-linecap="round"/>
</g>
<path d="M664.36 207V173.4H681.544C685.96 173.4 689.256 174.216 691.432 175.848C693.608 177.448 694.696 179.56 694.696 182.184C694.696 183.912 694.232 185.432 693.304 186.744C692.408 188.024 691.128 189.048 689.464 189.816C687.832 190.552 685.88 190.92 683.608 190.92L684.568 188.616C686.936 188.616 689 188.984 690.76 189.72C692.52 190.424 693.88 191.464 694.84 192.84C695.832 194.184 696.328 195.832 696.328 197.784C696.328 200.696 695.144 202.968 692.776 204.6C690.44 206.2 687.016 207 682.504 207H664.36ZM673.768 200.136H681.736C683.368 200.136 684.6 199.864 685.432 199.32C686.296 198.744 686.728 197.88 686.728 196.728C686.728 195.576 686.296 194.728 685.432 194.184C684.6 193.608 683.368 193.32 681.736 193.32H673.096V186.744H680.296C681.896 186.744 683.096 186.472 683.896 185.928C684.696 185.384 685.096 184.568 685.096 183.48C685.096 182.392 684.696 181.592 683.896 181.08C683.096 180.536 681.896 180.264 680.296 180.264H673.768V200.136ZM711.763 207.432C709.651 207.432 707.747 207.016 706.051 206.184C704.387 205.352 703.075 204.056 702.115 202.296C701.187 200.504 700.723 198.248 700.723 195.528V180.984H709.843V194.04C709.843 196.056 710.211 197.496 710.947 198.36C711.715 199.224 712.787 199.656 714.163 199.656C715.059 199.656 715.875 199.448 716.611 199.032C717.347 198.616 717.939 197.96 718.387 197.064C718.835 196.136 719.059 194.952 719.059 193.512V180.984H728.179V207H719.491V199.656L721.171 201.72C720.275 203.64 718.979 205.08 717.283 206.04C715.587 206.968 713.747 207.432 711.763 207.432ZM746.773 216.744C744.277 216.744 741.893 216.456 739.621 215.88C737.381 215.304 735.461 214.456 733.861 213.336L737.173 206.952C738.261 207.816 739.605 208.488 741.205 208.968C742.837 209.48 744.421 209.736 745.957 209.736C748.421 209.736 750.197 209.192 751.285 208.104C752.373 207.048 752.917 205.496 752.917 203.448V200.376L753.397 193.08L753.349 185.736V180.984H762.037V202.248C762.037 207.176 760.709 210.824 758.053 213.192C755.397 215.56 751.637 216.744 746.773 216.744ZM745.189 205.656C742.885 205.656 740.757 205.144 738.805 204.12C736.885 203.064 735.333 201.608 734.149 199.752C732.997 197.864 732.421 195.64 732.421 193.08C732.421 190.52 732.997 188.312 734.149 186.456C735.333 184.568 736.885 183.112 738.805 182.088C740.757 181.064 742.885 180.552 745.189 180.552C747.397 180.552 749.285 181 750.853 181.896C752.421 182.76 753.605 184.12 754.405 185.976C755.237 187.832 755.653 190.2 755.653 193.08C755.653 195.96 755.237 198.328 754.405 200.184C753.605 202.04 752.421 203.416 750.853 204.312C749.285 205.208 747.397 205.656 745.189 205.656ZM747.349 198.408C748.437 198.408 749.397 198.184 750.229 197.736C751.093 197.288 751.765 196.664 752.245 195.864C752.757 195.064 753.013 194.136 753.013 193.08C753.013 192.024 752.757 191.096 752.245 190.296C751.765 189.496 751.093 188.888 750.229 188.472C749.397 188.024 748.437 187.8 747.349 187.8C746.261 187.8 745.285 188.024 744.421 188.472C743.557 188.888 742.869 189.496 742.357 190.296C741.877 191.096 741.637 192.024 741.637 193.08C741.637 194.136 741.877 195.064 742.357 195.864C742.869 196.664 743.557 197.288 744.421 197.736C745.285 198.184 746.261 198.408 747.349 198.408ZM781.866 207V180.984H790.554V188.568L789.258 186.408C790.026 184.456 791.274 183 793.002 182.04C794.73 181.048 796.826 180.552 799.29 180.552V188.76C798.874 188.696 798.506 188.664 798.186 188.664C797.898 188.632 797.578 188.616 797.226 188.616C795.37 188.616 793.866 189.128 792.714 190.152C791.562 191.144 790.986 192.776 790.986 195.048V207H781.866ZM816.451 207.432C813.379 207.432 810.691 206.856 808.387 205.704C806.115 204.52 804.339 202.92 803.059 200.904C801.811 198.856 801.187 196.536 801.187 193.944C801.187 191.352 801.795 189.048 803.011 187.032C804.259 184.984 805.971 183.4 808.147 182.28C810.323 181.128 812.771 180.552 815.491 180.552C818.051 180.552 820.387 181.08 822.499 182.136C824.611 183.16 826.291 184.68 827.539 186.696C828.787 188.712 829.411 191.16 829.411 194.04C829.411 194.36 829.395 194.728 829.363 195.144C829.331 195.56 829.299 195.944 829.267 196.296H808.675V191.496H824.419L820.963 192.84C820.995 191.656 820.771 190.632 820.291 189.768C819.843 188.904 819.203 188.232 818.371 187.752C817.571 187.272 816.627 187.032 815.539 187.032C814.451 187.032 813.491 187.272 812.659 187.752C811.859 188.232 811.235 188.92 810.787 189.816C810.339 190.68 810.115 191.704 810.115 192.888V194.28C810.115 195.56 810.371 196.664 810.883 197.592C811.427 198.52 812.195 199.24 813.187 199.752C814.179 200.232 815.363 200.472 816.739 200.472C818.019 200.472 819.107 200.296 820.003 199.944C820.931 199.56 821.843 198.984 822.739 198.216L827.539 203.208C826.291 204.584 824.755 205.64 822.931 206.376C821.107 207.08 818.947 207.432 816.451 207.432ZM849.984 207.432C847.776 207.432 845.888 206.952 844.32 205.992C842.752 205 841.552 203.528 840.72 201.576C839.92 199.592 839.52 197.064 839.52 193.992C839.52 190.888 839.904 188.36 840.672 186.408C841.44 184.424 842.592 182.952 844.128 181.992C845.696 181.032 847.648 180.552 849.984 180.552C852.352 180.552 854.496 181.112 856.416 182.232C858.368 183.32 859.904 184.872 861.024 186.888C862.176 188.872 862.752 191.24 862.752 193.992C862.752 196.744 862.176 199.128 861.024 201.144C859.904 203.16 858.368 204.712 856.416 205.8C854.496 206.888 852.352 207.432 849.984 207.432ZM833.616 216.312V180.984H842.304V185.4L842.256 193.992L842.736 202.632V216.312H833.616ZM848.064 200.184C849.088 200.184 850 199.944 850.8 199.464C851.632 198.984 852.288 198.28 852.768 197.352C853.28 196.424 853.536 195.304 853.536 193.992C853.536 192.68 853.28 191.56 852.768 190.632C852.288 189.704 851.632 189 850.8 188.52C850 188.04 849.088 187.8 848.064 187.8C847.04 187.8 846.112 188.04 845.28 188.52C844.48 189 843.824 189.704 843.312 190.632C842.832 191.56 842.592 192.68 842.592 193.992C842.592 195.304 842.832 196.424 843.312 197.352C843.824 198.28 844.48 198.984 845.28 199.464C846.112 199.944 847.04 200.184 848.064 200.184ZM880.047 207.432C877.199 207.432 874.671 206.856 872.463 205.704C870.255 204.552 868.511 202.968 867.23 200.952C865.983 198.904 865.359 196.568 865.359 193.944C865.359 191.32 865.983 189 867.23 186.984C868.511 184.968 870.255 183.4 872.463 182.28C874.671 181.128 877.199 180.552 880.047 180.552C882.895 180.552 885.423 181.128 887.631 182.28C889.871 183.4 891.615 184.968 892.863 186.984C894.111 189 894.735 191.32 894.735 193.944C894.735 196.568 894.111 198.904 892.863 200.952C891.615 202.968 889.871 204.552 887.631 205.704C885.423 206.856 882.895 207.432 880.047 207.432ZM880.047 200.184C881.103 200.184 882.031 199.944 882.831 199.464C883.663 198.984 884.319 198.28 884.799 197.352C885.279 196.392 885.519 195.256 885.519 193.944C885.519 192.632 885.279 191.528 884.799 190.632C884.319 189.704 883.663 189 882.831 188.52C882.031 188.04 881.103 187.8 880.047 187.8C879.023 187.8 878.095 188.04 877.263 188.52C876.463 189 875.807 189.704 875.295 190.632C874.815 191.528 874.575 192.632 874.575 193.944C874.575 195.256 874.815 196.392 875.295 197.352C875.807 198.28 876.463 198.984 877.263 199.464C878.095 199.944 879.023 200.184 880.047 200.184ZM898.959 207V180.984H907.647V188.568L906.351 186.408C907.119 184.456 908.367 183 910.095 182.04C911.823 181.048 913.919 180.552 916.383 180.552V188.76C915.967 188.696 915.599 188.664 915.279 188.664C914.991 188.632 914.671 188.616 914.319 188.616C912.463 188.616 910.959 189.128 909.807 190.152C908.655 191.144 908.079 192.776 908.079 195.048V207H898.959ZM932.56 207.432C929.232 207.432 926.64 206.616 924.784 204.984C922.928 203.32 922 200.824 922 197.496V175.176H931.12V197.4C931.12 198.328 931.376 199.064 931.888 199.608C932.4 200.12 933.056 200.376 933.856 200.376C934.944 200.376 935.872 200.104 936.64 199.56L938.896 205.944C938.128 206.456 937.184 206.824 936.064 207.048C934.944 207.304 933.776 207.432 932.56 207.432ZM918.208 188.76V181.944H937.072V188.76H918.208ZM951.868 207.432C949.66 207.432 947.5 207.176 945.388 206.664C943.308 206.152 941.628 205.512 940.348 204.744L943.084 198.504C944.3 199.24 945.724 199.832 947.356 200.28C948.988 200.696 950.588 200.904 952.156 200.904C953.692 200.904 954.748 200.744 955.324 200.424C955.932 200.104 956.236 199.672 956.236 199.128C956.236 198.616 955.948 198.248 955.372 198.024C954.828 197.768 954.092 197.576 953.164 197.448C952.268 197.32 951.276 197.176 950.188 197.016C949.1 196.856 947.996 196.648 946.876 196.392C945.788 196.104 944.78 195.688 943.852 195.144C942.956 194.568 942.236 193.8 941.692 192.84C941.148 191.88 940.876 190.664 940.876 189.192C940.876 187.528 941.356 186.056 942.316 184.776C943.308 183.464 944.748 182.44 946.636 181.704C948.524 180.936 950.828 180.552 953.548 180.552C955.372 180.552 957.212 180.744 959.068 181.128C960.956 181.48 962.54 182.024 963.82 182.76L961.084 188.952C959.804 188.216 958.524 187.72 957.244 187.464C955.964 187.176 954.748 187.032 953.596 187.032C952.06 187.032 950.972 187.208 950.332 187.56C949.724 187.912 949.42 188.344 949.42 188.856C949.42 189.368 949.692 189.768 950.236 190.056C950.78 190.312 951.5 190.52 952.396 190.68C953.324 190.808 954.332 190.952 955.42 191.112C956.508 191.24 957.596 191.448 958.684 191.736C959.804 192.024 960.812 192.456 961.708 193.032C962.636 193.576 963.372 194.328 963.916 195.288C964.46 196.216 964.732 197.416 964.732 198.888C964.732 200.488 964.236 201.928 963.244 203.208C962.284 204.488 960.844 205.512 958.924 206.28C957.036 207.048 954.684 207.432 951.868 207.432Z" fill="white"/>
<defs>
<linearGradient id="paint0_linear_16781_23789" x1="441.064" y1="44.3068" x2="513.494" y2="130.982" gradientUnits="userSpaceOnUse">
<stop offset="0.33" stop-color="#0176BC" stop-opacity="0"/>
<stop offset="1" stop-color="#0071B9"/>
</linearGradient>
<clipPath id="clip0_16781_23789">
<rect width="279.126" height="337" fill="white" transform="translate(225.5 21)"/>
</clipPath>
</defs>
</svg>
