<svg width="274" height="247" viewBox="0 0 274 247" fill="none" xmlns="http://www.w3.org/2000/svg">
<rect width="273.75" height="247" rx="4" fill="#04222F"/>
<g clip-path="url(#clip0_1730_3)">
<path d="M173.687 28.0037L182.786 20.4936L208.086 50.8928C210.059 53.2635 209.728 56.7835 207.348 58.7485L206.876 59.1381C204.495 61.1031 200.961 60.7736 198.987 58.4029L173.687 28.0037Z" fill="#010101"/>
<path d="M173.687 28.0037L182.786 20.4936L208.086 50.8928C210.059 53.2635 209.728 56.7835 207.348 58.7485L206.876 59.1381C204.495 61.1031 200.961 60.7736 198.987 58.4029L173.687 28.0037Z" fill="url(#paint0_linear_1730_3)"/>
<path d="M169.469 13.7129L182.47 20.5271L173.779 27.7L169.469 13.7129Z" fill="#F7C400"/>
<path d="M169.76 14.0657L182.15 20.5595L173.868 27.3954L169.76 14.0657ZM169.172 13.3594L173.685 28.0038L182.784 20.4937L169.172 13.3594Z" fill="#010101"/>
<path d="M170.337 17.1329L172.682 15.1976L168.043 12L170.337 17.1329Z" fill="#010101"/>
<path d="M111.859 116.514L111.921 188.87H151.908L141.661 114.689C141.661 114.689 140.58 115.665 138.851 115.928C137.123 116.192 127.559 120.141 127.559 120.141L113.462 117.312L111.859 116.514Z" fill="white"/>
<path d="M131.095 88.1019C129.942 85.7656 130.421 84.1268 131.457 82.8653C133.101 80.8621 136.459 80.8868 138.957 82.9205C141.455 84.9541 142.147 88.2266 140.503 90.2298C140.256 90.5304 140.203 90.6184 139.888 90.8277" stroke="#010101" stroke-miterlimit="10"/>
<path d="M110.279 89.9782C111.683 86.3201 115.123 83.5318 118.993 82.838C122.864 82.1443 127.032 83.5393 129.747 86.372C130.389 87.0411 133.264 90.0459 134.134 90.39C135.176 90.8025 136.297 90.4384 137.415 90.5291C138.391 90.6083 139.448 90.4519 140.288 90.9531C141.528 91.6928 141.632 93.4539 141.293 94.8527C141.14 95.4844 140.934 96.1856 141.254 96.752C141.442 97.0841 141.778 97.3006 142.056 97.5621C143.167 98.6065 143.309 100.304 143.22 101.823C143.011 105.375 141.69 109.175 138.615 110.986C138.256 111.197 137.876 111.38 137.559 111.648C137.211 111.942 136.954 112.326 136.702 112.704C135.586 114.377 134.47 116.05 133.353 117.724C132.756 118.619 132 117.996 130.934 117.832C130.611 117.783 127.844 120.298 127.556 120.143C125.08 118.803 120.268 119.278 118.133 117.446C117.309 116.739 120.535 114.129 119.451 114.049C118.8 114.001 108.475 112.774 105.739 109.009C104.602 107.444 103.406 102.373 107.816 101.072C110.104 100.398 111.782 101.054 111.782 101.054C111.782 101.054 110.463 98.3766 110.193 97.5925C109.348 95.1468 109.349 92.4003 110.279 89.9782Z" fill="#F6B1B4"/>
<path d="M133.687 98.0167C135.332 96.0135 134.64 92.741 132.142 90.7074C129.644 88.6737 126.286 88.649 124.641 90.6522C122.997 92.6554 123.689 95.9279 126.187 97.9615C128.685 99.9952 132.043 100.02 133.687 98.0167Z" stroke="#010101" stroke-miterlimit="10"/>
<path d="M132.12 90.5466C132.111 90.246 132.071 90.0161 132.182 89.7363C132.447 89.0653 133.115 89.3532 133.449 89.6473" stroke="#010101" stroke-miterlimit="10" stroke-linecap="round"/>
<path d="M138.375 95.0356C138.569 95.0356 138.726 94.879 138.726 94.6858C138.726 94.4926 138.569 94.3359 138.375 94.3359C138.181 94.3359 138.023 94.4926 138.023 94.6858C138.023 94.879 138.181 95.0356 138.375 95.0356Z" fill="#010101"/>
<path d="M140.168 95.0356C140.362 95.0356 140.519 94.879 140.519 94.6858C140.519 94.4926 140.362 94.3359 140.168 94.3359C139.974 94.3359 139.816 94.4926 139.816 94.6858C139.816 94.879 139.974 95.0356 140.168 95.0356Z" fill="#010101"/>
<path d="M141.254 96.752H136.836" stroke="#010101" stroke-miterlimit="10" stroke-linecap="round"/>
<path d="M109.06 103.498C108.116 104.25 107.671 105.512 107.793 106.709C108.236 111.018 115.186 110.707 117.666 110.998" stroke="#010101" stroke-miterlimit="10" stroke-linecap="round"/>
<path d="M119.678 103.765C119.99 103.765 120.242 103.513 120.242 103.203C120.242 102.892 119.99 102.641 119.678 102.641C119.366 102.641 119.113 102.892 119.113 103.203C119.113 103.513 119.366 103.765 119.678 103.765Z" fill="#010101"/>
<path d="M117.82 100.392C118.239 100.392 118.578 100.054 118.578 99.6374C118.578 99.2207 118.239 98.8828 117.82 98.8828C117.402 98.8828 117.062 99.2207 117.062 99.6374C117.062 100.054 117.402 100.392 117.82 100.392Z" fill="#010101"/>
<path d="M116.856 102.938C116.971 102.938 117.064 102.845 117.064 102.731C117.064 102.616 116.971 102.523 116.856 102.523C116.742 102.523 116.648 102.616 116.648 102.731C116.648 102.845 116.742 102.938 116.856 102.938Z" fill="#010101"/>
<path d="M115.101 100.184C115.397 100.184 115.636 99.946 115.636 99.6518C115.636 99.3576 115.397 99.1191 115.101 99.1191C114.806 99.1191 114.566 99.3576 114.566 99.6518C114.566 99.946 114.806 100.184 115.101 100.184Z" fill="#010101"/>
<path d="M116.455 96.8417C116.562 96.8417 116.648 96.7556 116.648 96.6494C116.648 96.5431 116.562 96.457 116.455 96.457C116.348 96.457 116.262 96.5431 116.262 96.6494C116.262 96.7556 116.348 96.8417 116.455 96.8417Z" fill="#010101"/>
<path d="M112.147 97.4336C112.417 97.4336 112.637 97.215 112.637 96.9453C112.637 96.6756 112.417 96.457 112.147 96.457C111.876 96.457 111.656 96.6756 111.656 96.9453C111.656 97.215 111.876 97.4336 112.147 97.4336Z" fill="#010101"/>
<path d="M113.855 95.1239C113.986 95.1239 114.093 95.0179 114.093 94.8871C114.093 94.7564 113.986 94.6504 113.855 94.6504C113.724 94.6504 113.617 94.7564 113.617 94.8871C113.617 95.0179 113.724 95.1239 113.855 95.1239Z" fill="#010101"/>
<path d="M111.211 93.8526C111.458 93.8526 111.657 93.6539 111.657 93.4087C111.657 93.1636 111.458 92.9648 111.211 92.9648C110.965 92.9648 110.766 93.1636 110.766 93.4087C110.766 93.6539 110.965 93.8526 111.211 93.8526Z" fill="#010101"/>
<path d="M115.48 92.1218C115.69 92.1218 115.859 91.9529 115.859 91.7445C115.859 91.5361 115.69 91.3672 115.48 91.3672C115.271 91.3672 115.102 91.5361 115.102 91.7445C115.102 91.9529 115.271 92.1218 115.48 92.1218Z" fill="#010101"/>
<path d="M115.332 94.1472C115.414 94.1472 115.48 94.081 115.48 93.9994C115.48 93.9177 115.414 93.8516 115.332 93.8516C115.25 93.8516 115.184 93.9177 115.184 93.9994C115.184 94.081 115.25 94.1472 115.332 94.1472Z" fill="#010101"/>
<path d="M112.932 91.7751C113.195 91.7751 113.408 91.5631 113.408 91.3016C113.408 91.0401 113.195 90.8281 112.932 90.8281C112.67 90.8281 112.457 91.0401 112.457 91.3016C112.457 91.5631 112.67 91.7751 112.932 91.7751Z" fill="#010101"/>
<path d="M112.658 88.6593C112.768 88.6593 112.858 88.5698 112.858 88.4595C112.858 88.3492 112.768 88.2598 112.658 88.2598C112.547 88.2598 112.457 88.3492 112.457 88.4595C112.457 88.5698 112.547 88.6593 112.658 88.6593Z" fill="#010101"/>
<path d="M115.87 89.435C116.086 89.435 116.26 89.2611 116.26 89.0466C116.26 88.8321 116.086 88.6582 115.87 88.6582C115.655 88.6582 115.48 88.8321 115.48 89.0466C115.48 89.2611 115.655 89.435 115.87 89.435Z" fill="#010101"/>
<path d="M118.623 91.959C118.894 91.959 119.113 91.7404 119.113 91.4707C119.113 91.201 118.894 90.9824 118.623 90.9824C118.352 90.9824 118.133 91.201 118.133 91.4707C118.133 91.7404 118.352 91.959 118.623 91.959Z" fill="#010101"/>
<path d="M116.045 86.1732C116.271 86.1732 116.454 85.991 116.454 85.7663C116.454 85.5415 116.271 85.3594 116.045 85.3594C115.82 85.3594 115.637 85.5415 115.637 85.7663C115.637 85.991 115.82 86.1732 116.045 86.1732Z" fill="#010101"/>
<path d="M119.47 84.3528C119.667 84.3528 119.826 84.1938 119.826 83.9977C119.826 83.8016 119.667 83.6426 119.47 83.6426C119.273 83.6426 119.113 83.8016 119.113 83.9977C119.113 84.1938 119.273 84.3528 119.47 84.3528Z" fill="#010101"/>
<path d="M123.928 84.8268C124.109 84.8268 124.255 84.6811 124.255 84.5013C124.255 84.3215 124.109 84.1758 123.928 84.1758C123.748 84.1758 123.602 84.3215 123.602 84.5013C123.602 84.6811 123.748 84.8268 123.928 84.8268Z" fill="#010101"/>
<path d="M120.957 86.6534C121.204 86.6534 121.403 86.4546 121.403 86.2095C121.403 85.9644 121.204 85.7656 120.957 85.7656C120.711 85.7656 120.512 85.9644 120.512 86.2095C120.512 86.4546 120.711 86.6534 120.957 86.6534Z" fill="#010101"/>
<path d="M118.534 87.6964C118.673 87.6964 118.786 87.5838 118.786 87.4449C118.786 87.306 118.673 87.1934 118.534 87.1934C118.394 87.1934 118.281 87.306 118.281 87.4449C118.281 87.5838 118.394 87.6964 118.534 87.6964Z" fill="#010101"/>
<path d="M122.101 83.6439C122.191 83.6439 122.264 83.571 122.264 83.4811C122.264 83.3912 122.191 83.3184 122.101 83.3184C122.011 83.3184 121.938 83.3912 121.938 83.4811C121.938 83.571 122.011 83.6439 122.101 83.6439Z" fill="#010101"/>
<path d="M117.823 95.361C118.086 95.361 118.299 95.149 118.299 94.8875C118.299 94.626 118.086 94.4141 117.823 94.4141C117.561 94.4141 117.348 94.626 117.348 94.8875C117.348 95.149 117.561 95.361 117.823 95.361Z" fill="#010101"/>
<path d="M114.73 97.4632C114.902 97.4632 115.042 97.3241 115.042 97.1525C115.042 96.9809 114.902 96.8418 114.73 96.8418C114.558 96.8418 114.418 96.9809 114.418 97.1525C114.418 97.3241 114.558 97.4632 114.73 97.4632Z" fill="#010101"/>
<path d="M112.501 99.8293C112.698 99.8293 112.858 99.6704 112.858 99.4742C112.858 99.2781 112.698 99.1191 112.501 99.1191C112.304 99.1191 112.145 99.2781 112.145 99.4742C112.145 99.6704 112.304 99.8293 112.501 99.8293Z" fill="#010101"/>
<path d="M178.812 34.161C177.201 32.9689 175.756 32.2548 173.768 31.9797C172.85 31.8528 171.911 31.7365 171.004 31.9257C170.097 32.1149 169.215 32.6672 168.877 33.5257C168.428 34.6619 169.067 35.986 170.027 36.7462C170.986 37.5064 172.201 37.8465 173.362 38.2394C175.289 38.8917 177.291 39.8633 178.211 41.6712C179.063 43.3472 178.789 45.3471 178.495 47.2029C178.3 48.431 176.758 52.1627 176.563 53.3908C179.655 53.8561 183.941 51.6143 187.002 52.2536C187.702 52.3998 188.406 52.552 189.065 52.8282C190.195 53.3015 191.14 54.1144 192.104 54.8686C193.414 55.8944 194.794 56.8327 196.231 57.6752C197.42 58.3731 198.706 59.0587 199.418 60.2372C199.683 59.9399 199.868 59.5712 199.947 59.1808L178.812 34.161Z" fill="#F6B1B4"/>
<path d="M187.839 18.6476C188.758 18.0681 189.77 17.5307 190.858 17.5372C191.946 17.5436 193.101 18.2775 193.214 19.3553C194.799 18.4662 196.811 18.2456 198.457 19.0167C200.104 19.7877 201.253 21.6319 200.975 23.4227C202.558 23.0303 204.247 24.1604 204.844 25.6721C205.44 27.1837 205.122 28.9273 204.398 30.3824C205.361 29.8017 206.696 30.5281 207.122 31.5666C207.549 32.6051 207.315 33.7881 206.994 34.8633C206.419 36.7855 205.584 38.6189 204.752 40.4452C204.02 42.0512 203.625 43.245 202.476 44.5875C202.105 45.0211 201.456 45.5289 200.186 44.9598C199.287 44.557 198.496 43.4789 198.825 42.37C199.105 41.429 199.359 40.5462 199.59 39.5922C199.37 40.3175 199.081 41.0218 198.727 41.6923C198.494 42.1351 198.208 42.586 197.756 42.8058C197.014 43.1675 195.407 42.5712 194.974 41.8703C194.541 41.1694 194.542 40.0246 194.868 39.1383C195.225 38.1645 195.615 37.1932 195.615 37.1932C194.869 38.238 194.442 39.738 193.194 40.0534C192.346 40.2677 191.436 39.7675 190.954 39.0402C190.473 38.3129 190.345 37.4087 190.336 36.5375C190.319 35.0347 190.618 33.5292 191.209 32.1464C191.556 31.3357 192.011 30.5272 192 29.6462C191.998 29.4756 191.97 29.2895 191.845 29.1735C191.52 28.873 191.045 29.3184 190.836 29.7074C190.419 30.4822 190.002 31.2569 189.585 32.0316C189.112 32.9108 188.605 33.8273 187.765 34.3708C186.925 34.9144 185.902 34.6493 185.05 34.1255C183.999 33.4799 183.904 31.5581 184.01 30.7944C184.328 28.5091 184.646 26.2238 184.964 23.9385C184.986 23.7809 185.007 23.6193 184.973 23.4639C184.929 23.2643 185.565 24.1925 185.437 24.0328C184.661 23.0639 183.525 22.187 184.611 21.0593C185.074 20.5782 185.656 20.1736 186.191 19.7762C186.525 19.5284 187.426 18.6476 187.839 18.6476Z" fill="#F6B1B4"/>
<path d="M198.399 57.5014C198.301 57.4064 198.008 57.5104 197.904 57.4125C197.805 57.3187 197.79 57.1331 197.685 57.037C197.584 56.9444 197.405 56.9355 197.299 56.8411C197.197 56.7498 197.231 56.5013 197.124 56.4086C197.02 56.3187 196.77 56.397 196.662 56.306C196.556 56.2176 196.56 55.9968 196.45 55.9076C196.343 55.8206 196.23 55.7383 196.12 55.6508C196.011 55.5653 195.824 55.5804 195.711 55.4946C195.602 55.4107 195.609 55.1713 195.496 55.0873C195.385 55.0049 195.197 55.0244 195.083 54.9422C194.971 54.8615 194.821 54.8338 194.705 54.7533C194.592 54.6743 194.605 54.4098 194.488 54.3312C194.373 54.2538 194.214 54.2403 194.096 54.1635C193.98 54.0879 193.841 54.0452 193.722 53.9703C193.605 53.8965 193.42 53.9308 193.3 53.8578C193.182 53.7858 193.149 53.5719 193.028 53.5008C192.908 53.4308 192.78 53.374 192.658 53.3051C192.538 53.237 192.336 53.3156 192.213 53.2487C192.091 53.1825 192.085 52.9006 191.961 52.8356C191.838 52.7713 191.739 52.6561 191.614 52.5932C191.49 52.5308 191.333 52.5297 191.206 52.4688C191.081 52.4086 190.962 52.3313 190.835 52.2725C190.709 52.2143 190.546 52.2334 190.417 52.1768C190.29 52.1206 190.183 52.016 190.053 51.9615C189.925 51.9076 189.753 51.9571 189.623 51.9049C189.494 51.8531 189.415 51.6725 189.283 51.6225C189.153 51.573 188.97 51.6649 188.837 51.6172C188.706 51.5699 188.618 51.3999 188.485 51.3546C188.353 51.3096 188.157 51.4594 188.023 51.4164C187.89 51.3738 187.756 51.3429 187.621 51.3022C187.488 51.262 187.366 51.1896 187.231 51.1514C187.097 51.1136 187.029 50.8334 186.894 50.7977C186.759 50.7624 186.56 50.9775 186.424 50.9443C186.289 50.9114 186.173 50.7986 186.036 50.7678C185.9 50.7373 185.744 50.8047 185.607 50.7764C185.47 50.7483 185.372 50.5274 185.234 50.5016C185.097 50.476 184.966 50.4053 184.827 50.3821C184.689 50.359 184.514 50.5673 184.375 50.5465C184.237 50.526 184.124 50.3303 183.984 50.3121C183.846 50.2941 183.704 50.295 183.564 50.2794C183.426 50.264 183.291 50.1927 183.151 50.1797C183.012 50.1668 182.857 50.3379 182.717 50.3275C182.578 50.3171 182.453 50.0677 182.312 50.0597C182.173 50.0519 182.031 50.0254 181.891 50.02C181.751 50.0147 181.607 50.0563 181.466 50.0535C181.326 50.0506 181.183 50.1739 181.042 50.1736C180.9 50.1733 180.746 50.0315 180.606 50.0431C180.465 50.0548 180.336 50.2196 180.198 50.2431C180.058 50.2666 179.931 50.341 179.795 50.3761C179.658 50.4113 179.489 50.3473 179.356 50.3938C179.223 50.4404 179.079 50.4769 178.95 50.5344C178.821 50.5919 178.745 50.7606 178.622 50.8286C178.498 50.8966 178.306 50.8587 178.188 50.9368C178.071 51.0147 178.007 51.1733 177.896 51.2608C177.786 51.3481 177.702 51.4663 177.599 51.5627C177.496 51.6587 177.4 51.7592 177.306 51.8638C177.211 51.9678 177.238 52.1621 177.152 52.2742C177.067 52.3855 176.838 52.3903 176.762 52.5092C176.686 52.627 176.696 52.7929 176.63 52.9177C176.565 53.0394 176.297 53.0545 176.232 53.1769C176.167 53.2986 176.387 53.5701 176.322 53.6926C176.257 53.8144 175.902 53.7841 175.837 53.9066C175.773 54.0286 175.98 54.293 175.915 54.4156C175.851 54.5377 175.653 54.5907 175.589 54.7134C175.525 54.8355 175.346 54.8987 175.282 55.0215C175.218 55.1437 175.214 55.2976 175.15 55.4205C175.086 55.5428 175.114 55.7134 175.05 55.8363C174.986 55.9587 174.877 56.058 174.813 56.181C174.749 56.3034 174.822 56.497 174.758 56.6201C174.694 56.7426 174.467 56.7813 174.403 56.9044C174.34 57.027 174.449 57.2389 174.385 57.362C174.321 57.4847 174.049 57.5006 173.986 57.6237C173.922 57.7465 173.952 57.9175 173.888 58.0407C173.825 58.1635 173.879 58.3469 173.816 58.4702C173.752 58.5931 173.602 58.6721 173.539 58.7954C173.476 58.9184 173.367 59.0182 173.303 59.1416C173.24 59.2646 173.079 59.3379 173.015 59.4614C172.952 59.5844 172.91 59.7186 172.847 59.842C172.783 59.9652 172.77 60.1139 172.707 60.2374C172.644 60.3606 172.497 60.4416 172.434 60.5652C172.371 60.6884 172.389 60.8532 172.326 60.9768C172.263 61.1001 172.357 61.303 172.294 61.4267C172.231 61.55 171.895 61.5352 171.832 61.6589C171.769 61.7823 171.724 61.915 171.661 62.0387C171.598 62.1622 171.776 62.4075 171.713 62.5312C171.651 62.6547 171.504 62.7359 171.441 62.8596C171.378 62.9831 171.322 63.1104 171.26 63.2342C171.197 63.3578 171.056 63.4423 170.994 63.5662C170.931 63.6897 170.909 63.8342 170.847 63.9581C170.784 64.0817 170.762 64.2258 170.699 64.3496C170.636 64.4733 170.487 64.5533 170.424 64.6773C170.361 64.8007 170.274 64.9115 170.211 65.0352C170.149 65.1586 170.243 65.3608 170.18 65.4845C170.118 65.608 169.938 65.6725 169.875 65.7962C169.813 65.9198 169.84 66.0883 169.777 66.212C169.715 66.3356 169.561 66.4134 169.498 66.5372C169.436 66.6609 169.413 66.8042 169.35 66.928C169.288 67.0517 169.098 67.112 169.036 67.2358C168.974 67.3596 169.091 67.5731 169.028 67.697C168.966 67.8207 168.965 67.9752 168.903 68.0991C168.84 68.2229 168.797 68.3564 168.735 68.4804C168.673 68.6042 168.471 68.6586 168.409 68.7826C168.346 68.9065 168.244 69.0102 168.181 69.1342C168.119 69.2581 168.231 69.469 168.169 69.5931C168.106 69.717 167.857 69.7477 167.794 69.8718C167.732 69.9958 167.727 70.1483 167.665 70.2724C167.602 70.3964 167.644 70.5724 167.582 70.6965C167.52 70.8204 167.449 70.94 167.386 71.064C167.324 71.1879 167.29 71.3261 167.228 71.4501C167.166 71.5741 167.082 71.6875 167.02 71.8116C166.957 71.9356 166.895 72.0595 166.832 72.1836C166.77 72.3077 166.597 72.3768 166.535 72.501C166.473 72.6251 166.403 72.7457 166.341 72.8698C166.278 72.994 166.14 73.0803 166.077 73.2045C166.015 73.3287 166.114 73.5332 166.051 73.6574C165.989 73.7816 166.001 73.943 165.938 74.0672C165.876 74.1915 165.584 74.2012 165.521 74.3255C165.459 74.4498 165.445 74.5985 165.383 74.7228C165.32 74.8471 165.3 74.9925 165.237 75.1169C165.175 75.2412 165.147 75.3829 165.084 75.5073C165.022 75.6317 164.959 75.7559 164.896 75.8802C164.834 76.0045 164.771 76.1288 164.709 76.253C164.646 76.3773 164.637 76.5283 164.574 76.6525C164.512 76.7768 164.417 76.885 164.355 77.0093C164.292 77.1336 164.064 77.175 164.001 77.2992C163.938 77.4235 164.055 77.6373 163.992 77.7615C163.929 77.8858 163.706 77.9297 163.644 78.054C163.581 78.1783 163.691 78.3889 163.628 78.5131C163.565 78.6374 163.402 78.7113 163.339 78.8355C163.276 78.9598 163.221 79.0877 163.158 79.2119C163.095 79.3362 163.088 79.4881 163.025 79.6123C162.962 79.7366 162.697 79.7594 162.634 79.8836C162.571 80.0078 162.616 80.1861 162.553 80.3102C162.49 80.4345 162.383 80.5366 162.32 80.6607C162.257 80.785 162.201 80.9126 162.138 81.0367C162.075 81.161 162.137 81.3483 162.074 81.4724C162.011 81.5967 161.832 81.6625 161.769 81.7866C161.706 81.9108 161.825 82.1266 161.761 82.2506C161.698 82.3749 161.611 82.4869 161.548 82.6109C161.484 82.7351 161.278 82.7871 161.215 82.9111C161.152 83.0354 161.215 83.2235 161.152 83.3475C161.089 83.4717 161.027 83.5969 160.964 83.7209C160.901 83.8451 160.8 83.9501 160.736 84.074C160.673 84.1982 160.52 84.2769 160.456 84.4007C160.393 84.5249 160.24 84.6034 160.176 84.7273C160.113 84.8514 160.27 85.0879 160.207 85.2118C160.143 85.3359 159.949 85.3932 159.885 85.517C159.821 85.6411 159.903 85.8392 159.839 85.9629C159.775 86.087 159.615 86.1613 159.551 86.285C159.487 86.409 159.319 86.4798 159.255 86.6034C159.191 86.7274 159.263 86.9206 159.199 87.0442C159.135 87.1682 158.903 87.2058 158.839 87.3294C158.775 87.4533 158.84 87.6437 158.776 87.7672C158.712 87.8911 158.622 88.0017 158.558 88.1252C158.494 88.249 158.376 88.345 158.312 88.4685C158.247 88.5923 158.254 88.7528 158.19 88.8762C158.126 89 158.015 89.0999 157.951 89.2232C157.886 89.3469 157.864 89.4922 157.799 89.6155C157.735 89.7392 157.579 89.8155 157.515 89.9387C157.45 90.0623 157.486 90.2382 157.421 90.3614C157.356 90.4849 157.19 90.5555 157.126 90.6786C157.06 90.8021 156.959 90.9062 156.894 91.0292C156.829 91.1527 156.785 91.2869 156.72 91.4098C156.655 91.5332 156.79 91.7616 156.725 91.8845C156.659 92.0079 156.516 92.0899 156.451 92.2127C156.385 92.336 156.233 92.4132 156.168 92.536C156.102 92.6592 156.172 92.854 156.107 92.9766C156.041 93.0997 155.962 93.2157 155.896 93.3382C155.83 93.4613 155.859 93.6347 155.793 93.7572C155.727 93.8802 155.527 93.9311 155.461 94.0535C155.394 94.1764 155.384 94.3289 155.318 94.4512C155.252 94.574 155.251 94.7317 155.184 94.8539C155.118 94.9766 154.917 95.0268 154.85 95.1488C154.784 95.2715 154.631 95.3474 154.565 95.4694C154.498 95.592 154.574 95.7917 154.508 95.9136C154.441 96.0361 154.329 96.1339 154.262 96.2557C154.195 96.3781 154.059 96.4627 153.992 96.5843C153.925 96.7066 153.836 96.8165 153.769 96.938C153.701 97.0602 153.867 97.3101 153.799 97.4314C153.731 97.5535 153.574 97.6257 153.506 97.747C153.438 97.869 153.195 97.8932 153.127 98.0143C153.059 98.1362 153.24 98.3964 153.172 98.5173C153.104 98.6391 152.97 98.7239 152.902 98.8447C152.833 98.9663 152.64 99.0174 152.571 99.1381C152.503 99.2596 152.632 99.4923 152.564 99.6128C152.494 99.7342 152.143 99.6953 152.075 99.8157C152.005 99.9369 152.187 100.2 152.118 100.32C152.048 100.441 151.74 100.426 151.671 100.546C151.601 100.666 151.689 100.877 151.62 100.997C151.55 101.118 151.465 101.229 151.395 101.349C151.325 101.47 151.265 101.596 151.195 101.715C151.124 101.835 150.947 101.893 150.876 102.012C150.805 102.132 150.842 102.315 150.771 102.433C150.7 102.553 150.621 102.668 150.55 102.787C150.478 102.906 150.429 103.039 150.358 103.158C150.286 103.277 150.121 103.34 150.049 103.458C149.977 103.578 150.099 103.814 150.027 103.932C149.954 104.051 149.84 104.144 149.767 104.262C149.694 104.38 149.447 104.392 149.375 104.509C149.301 104.628 149.435 104.874 149.362 104.991C149.288 105.109 149.104 105.158 149.03 105.275C148.956 105.393 148.746 105.424 148.672 105.541C148.597 105.658 148.714 105.896 148.639 106.012C148.564 106.13 148.477 106.239 148.402 106.355C148.326 106.472 148.075 106.474 148 106.589C147.923 106.706 147.815 106.8 147.739 106.914C147.662 107.031 147.664 107.198 147.588 107.312C147.51 107.428 147.541 107.615 147.464 107.729C147.385 107.844 147.407 108.028 147.33 108.141C147.25 108.256 147.003 108.255 146.924 108.368C146.843 108.483 146.843 108.652 146.763 108.765C146.682 108.879 146.407 108.854 146.326 108.966C146.244 109.08 146.387 109.354 146.305 109.465C146.223 109.578 145.988 109.578 145.906 109.688C145.822 109.801 145.726 109.901 145.643 110.01C145.558 110.122 145.652 110.368 145.568 110.476C145.482 110.587 145.352 110.662 145.266 110.769C145.179 110.878 145.109 111.001 145.023 111.107C144.934 111.216 144.874 111.348 144.786 111.453C144.696 111.56 144.491 111.569 144.401 111.672C144.309 111.779 144.273 111.932 144.182 112.033C144.088 112.138 143.997 112.244 143.904 112.343C143.807 112.446 143.566 112.406 143.471 112.502C143.371 112.604 143.403 112.829 143.306 112.923C143.204 113.022 143.059 113.072 142.959 113.162C142.854 113.258 142.855 113.471 142.752 113.558C142.643 113.65 142.508 113.712 142.402 113.794C142.289 113.881 142.082 113.835 141.972 113.91C141.854 113.991 141.787 114.135 141.672 114.202C141.49 114.327 141.61 114.412 141.374 114.559C141.268 114.625 140.992 114.45 140.845 114.53C140.726 114.595 140.666 114.793 140.523 114.861C140.397 114.92 140.221 114.884 140.078 114.943C139.947 114.996 139.846 115.136 139.702 115.186C139.566 115.233 139.399 115.186 139.253 115.227C139.114 115.266 138.972 115.373 138.824 115.405C138.7 115.572 138.705 115.586 138.742 115.856C138.757 115.97 139.018 116.074 139.039 116.233C139.056 116.356 138.973 116.508 138.993 116.658C139.01 116.785 139.005 116.925 139.025 117.071C139.043 117.201 139.225 117.316 139.245 117.459C139.262 117.59 139.117 117.749 139.136 117.891C139.154 118.023 139.275 118.146 139.295 118.288C139.312 118.421 139.341 118.556 139.36 118.697C139.378 118.83 139.364 118.972 139.383 119.112C139.401 119.246 139.394 119.386 139.413 119.526C139.431 119.66 139.293 119.818 139.312 119.958C139.33 120.093 139.387 120.225 139.406 120.364C139.424 120.499 139.452 120.635 139.47 120.775C139.489 120.91 139.441 121.056 139.46 121.195C139.478 121.33 139.697 121.441 139.716 121.58C139.734 121.715 139.875 121.836 139.894 121.975C139.912 122.111 139.782 122.268 139.801 122.407C139.819 122.543 139.729 122.694 139.747 122.833C139.765 122.969 140.041 123.072 140.06 123.211C140.078 123.347 139.847 123.518 139.865 123.656C139.883 123.792 139.929 123.926 139.948 124.065C139.966 124.201 139.942 124.344 139.96 124.482C139.978 124.618 140.036 124.75 140.055 124.889C140.073 125.025 140.311 125.133 140.329 125.272C140.347 125.408 140.243 125.562 140.261 125.7C140.279 125.836 140.189 125.988 140.208 126.126C140.226 126.262 140.156 126.411 140.174 126.55C140.192 126.686 140.337 126.807 140.355 126.945C140.373 127.081 140.559 127.197 140.577 127.335C140.595 127.471 140.569 127.614 140.587 127.752C140.605 127.889 140.535 128.038 140.553 128.176C140.571 128.313 140.456 128.467 140.474 128.605C140.492 128.742 140.78 128.844 140.799 128.982C140.817 129.118 140.722 129.271 140.74 129.409C140.758 129.544 140.798 129.678 140.816 129.815C140.834 129.951 140.709 130.107 140.727 130.244C140.745 130.38 140.789 130.513 140.807 130.65C140.825 130.786 140.841 130.923 140.859 131.061C140.877 131.197 140.831 131.342 140.849 131.479C140.867 131.615 141.208 131.71 141.226 131.847C141.244 131.983 141.206 132.127 141.224 132.265C141.242 132.401 141.202 132.545 141.22 132.682C141.238 132.819 141.287 132.952 141.305 133.089C141.323 133.225 141.309 133.366 141.327 133.504C141.345 133.64 141.396 133.772 141.414 133.91C141.432 134.046 141.327 134.199 141.345 134.336C141.363 134.473 141.357 134.613 141.375 134.75C141.393 134.887 141.406 135.024 141.424 135.162C141.442 135.298 141.502 135.43 141.52 135.567C141.538 135.704 141.459 135.853 141.477 135.991C141.494 136.128 141.748 136.234 141.766 136.371C141.784 136.508 141.695 136.659 141.713 136.796C141.731 136.933 141.744 137.071 141.762 137.208C141.78 137.345 141.851 137.475 141.869 137.613C141.887 137.749 141.966 137.879 141.983 138.016C142.001 138.153 141.913 138.304 141.931 138.441C141.949 138.578 141.91 138.723 141.928 138.86C141.946 138.997 141.854 139.148 141.872 139.286C141.89 139.423 141.936 139.556 141.954 139.694C141.972 139.83 142.02 139.964 142.038 140.101C142.056 140.238 141.998 140.385 142.016 140.523C142.034 140.66 142.356 140.758 142.374 140.895C142.392 141.033 142.359 141.176 142.377 141.314C142.394 141.451 142.204 141.615 142.221 141.752C142.239 141.889 142.362 142.013 142.38 142.151C142.398 142.288 142.341 142.435 142.359 142.572C142.377 142.709 142.564 142.825 142.581 142.962C142.599 143.099 142.538 143.245 142.555 143.383C142.573 143.52 142.58 143.658 142.598 143.795C142.615 143.932 142.599 144.073 142.617 144.211C142.634 144.348 142.563 144.496 142.58 144.633C142.598 144.77 142.779 144.887 142.796 145.024C142.814 145.161 142.655 145.321 142.673 145.458C142.69 145.595 142.786 145.723 142.803 145.86C142.821 145.997 142.812 146.138 142.83 146.275C142.847 146.412 142.971 146.536 142.989 146.674C143.006 146.811 142.961 146.956 142.979 147.094C142.996 147.231 143.11 147.356 143.128 147.494C143.145 147.631 143.093 147.777 143.11 147.915C143.128 148.052 143.25 148.176 143.267 148.314C143.285 148.451 143.38 148.579 143.397 148.716C143.414 148.854 143.164 149.024 143.182 149.162C143.199 149.299 143.158 149.444 143.176 149.581C143.193 149.719 143.51 149.819 143.528 149.956C143.545 150.094 143.313 150.262 143.33 150.4C143.347 150.538 143.566 150.65 143.583 150.788C143.6 150.925 143.409 151.089 143.426 151.227C143.444 151.364 143.437 151.505 143.454 151.643C143.471 151.78 143.722 151.889 143.739 152.027C143.756 152.165 143.62 152.321 143.637 152.459C143.655 152.597 143.668 152.735 143.685 152.873C143.702 153.011 143.915 153.125 143.932 153.263C143.949 153.401 143.736 153.567 143.753 153.705C143.77 153.843 143.837 153.975 143.854 154.113C143.871 154.251 143.925 154.384 143.942 154.522C143.96 154.66 143.992 154.796 144.009 154.934C144.026 155.072 143.88 155.23 143.897 155.367C143.914 155.505 144.047 155.629 144.064 155.767C144.081 155.905 144.099 156.043 144.116 156.18C144.132 156.318 144.249 156.444 144.266 156.582C144.283 156.72 144.241 156.865 144.258 157.003C144.275 157.141 144.204 157.29 144.221 157.427C144.238 157.566 144.197 157.71 144.214 157.848C144.231 157.986 144.43 158.102 144.446 158.24C144.463 158.378 144.364 158.53 144.38 158.668C144.397 158.806 144.585 158.924 144.602 159.062C144.618 159.2 144.396 159.367 144.413 159.504C144.43 159.643 144.424 159.783 144.44 159.921C144.457 160.059 144.774 160.162 144.791 160.3C144.807 160.438 144.74 160.586 144.757 160.724C144.773 160.862 144.671 161.014 144.688 161.152C144.704 161.29 144.89 161.408 144.907 161.546C144.923 161.685 144.988 161.817 145.004 161.955C145.021 162.093 144.941 162.243 144.958 162.381C144.974 162.519 144.881 162.67 144.898 162.808C144.914 162.946 145.019 163.074 145.036 163.212C145.052 163.35 144.929 163.504 144.945 163.642C144.961 163.781 144.91 163.927 144.926 164.065C144.942 164.203 144.964 164.34 144.98 164.478C144.996 164.617 145.314 164.72 145.33 164.858C145.346 164.996 145.308 165.141 145.324 165.278C145.341 165.417 145.325 165.559 145.341 165.697C145.357 165.835 145.427 165.967 145.443 166.105C145.459 166.243 145.512 166.377 145.528 166.515C145.544 166.654 145.466 166.803 145.482 166.94C145.498 167.079 145.497 167.219 145.513 167.357C145.529 167.495 145.692 167.617 145.707 167.755C145.723 167.893 145.532 168.055 145.548 168.193C145.564 168.331 145.462 168.482 145.477 168.62C145.493 168.759 145.504 168.897 145.519 169.035C145.535 169.174 145.736 169.291 145.751 169.429C145.767 169.568 145.884 169.694 145.9 169.832C145.915 169.971 145.656 170.139 145.671 170.277C145.687 170.416 145.836 170.539 145.852 170.677C145.867 170.815 145.788 170.964 145.803 171.101C145.818 171.24 145.938 171.367 145.953 171.504C145.968 171.643 145.989 171.78 146.004 171.918C146.019 172.057 146.177 172.179 146.192 172.317C146.207 172.456 146.009 172.617 146.024 172.754C146.039 172.893 145.992 173.038 146.007 173.175C146.022 173.314 146.289 173.425 146.303 173.563C146.318 173.701 146.177 173.856 146.192 173.993C146.207 174.132 146.177 174.275 146.192 174.412C146.206 174.551 146.255 174.685 146.27 174.823C146.284 174.961 146.298 175.099 146.313 175.237C146.327 175.375 146.363 175.511 146.377 175.648C146.392 175.787 146.258 175.94 146.272 176.077C146.286 176.216 146.565 176.327 146.579 176.464C146.593 176.603 146.402 176.762 146.416 176.899C146.43 177.038 146.407 177.179 146.421 177.316C146.434 177.455 146.474 177.59 146.488 177.727C146.502 177.866 146.652 177.99 146.665 178.127C146.679 178.266 146.689 178.404 146.702 178.541C146.716 178.68 146.62 178.828 146.633 178.965C146.647 179.104 146.708 179.237 146.721 179.374C146.734 179.513 146.9 179.636 146.913 179.773C146.926 179.912 146.732 180.069 146.744 180.205C146.757 180.344 146.748 180.484 146.76 180.62C146.773 180.759 146.993 180.879 147.005 181.015C147.017 181.155 146.946 181.3 146.958 181.436C146.97 181.576 146.897 181.721 146.909 181.858C146.921 181.998 146.866 182.142 146.877 182.279C146.889 182.419 147.195 182.533 147.207 182.67C147.218 182.81 146.997 182.967 147.008 183.103C147.019 183.243 147.225 183.366 147.236 183.502C147.247 183.642 147.268 183.78 147.278 183.916C147.288 184.056 147.278 184.195 147.288 184.331C147.298 184.471 147.095 184.624 147.104 184.759C147.113 184.9 147.149 185.036 147.158 185.171C147.167 185.312 147.222 185.447 147.23 185.582C147.238 185.724 147.298 185.859 147.305 185.994C147.312 186.135 147.448 186.267 147.454 186.402C147.461 186.544 147.397 186.685 147.402 186.819C147.408 186.962 147.231 187.107 147.235 187.24C147.239 187.384 147.48 187.517 147.482 187.649C147.485 187.794 147.517 187.934 147.518 188.065C147.518 188.212 147.451 188.352 147.448 188.48C147.445 188.631 147.321 188.851 147.313 188.974C147.511 189.035 147.546 188.724 147.754 188.724C147.962 188.724 147.962 188.868 148.169 188.868C148.377 188.868 148.377 188.834 148.585 188.834C148.793 188.834 148.793 188.744 149.001 188.744C149.208 188.744 149.208 188.907 149.416 188.907C149.624 188.907 149.624 188.977 149.831 188.977C150.039 188.977 150.039 188.776 150.247 188.776C150.454 188.776 150.454 189.043 150.662 189.043C150.869 189.043 150.869 188.91 151.077 188.91C151.284 188.91 151.284 189.042 151.491 189.042C151.699 189.042 151.699 188.788 151.906 188.788C152.113 188.788 152.113 188.75 152.321 188.75C152.528 188.75 152.528 189.001 152.735 189.001C152.943 189.001 152.943 188.747 153.15 188.747C153.357 188.747 153.357 188.829 153.565 188.829C153.772 188.829 153.772 188.746 153.979 188.746C154.187 188.746 154.187 188.892 154.394 188.892C154.602 188.892 154.602 188.762 154.809 188.762C155.017 188.762 155.017 189.065 155.224 189.065C155.432 189.065 155.432 188.959 155.64 188.959C155.848 188.959 155.848 189.007 156.055 189.007C156.263 189.007 156.263 188.728 156.471 188.728C156.679 188.728 156.679 188.988 156.887 188.988C157.095 188.988 157.095 188.921 157.303 188.921C157.51 188.921 157.51 188.762 157.718 188.762C157.926 188.762 157.926 189.002 158.133 189.002C158.341 189.002 158.341 188.866 158.549 188.866C158.756 188.866 158.756 188.957 158.964 188.957C159.171 188.957 159.171 188.901 159.379 188.901C159.586 188.901 159.586 188.983 159.794 188.983C160.001 188.983 160.001 188.819 160.209 188.819C160.417 188.819 160.417 188.953 160.624 188.953C160.832 188.953 160.832 188.88 161.04 188.88C161.248 188.88 161.248 188.746 161.456 188.746C161.664 188.746 161.664 188.786 161.872 188.786C162.08 188.786 162.08 188.899 162.288 188.899C162.495 188.899 162.495 188.817 162.703 188.817C162.911 188.817 162.911 188.901 163.119 188.901C163.327 188.901 163.327 188.924 163.534 188.924C163.742 188.924 163.742 188.825 163.95 188.825C164.157 188.825 164.157 188.76 164.365 188.76C164.573 188.76 164.573 189.065 164.781 189.065C164.988 189.065 164.988 188.759 165.196 188.759C165.404 188.759 165.404 188.813 165.612 188.813C165.82 188.813 165.82 188.792 166.028 188.792C166.236 188.792 166.236 189.041 166.444 189.041C166.652 189.041 166.652 188.864 166.86 188.864C167.068 188.864 167.068 188.837 167.276 188.837C167.484 188.837 167.484 188.731 167.692 188.731C167.899 188.731 167.899 188.848 168.107 188.848C168.315 188.848 168.315 188.791 168.523 188.791C168.731 188.791 168.731 188.731 168.939 188.731C169.147 188.731 169.147 188.817 169.355 188.817C169.563 188.817 169.563 188.878 169.771 188.878C169.978 188.878 169.978 188.926 170.186 188.926C170.393 188.926 170.393 188.757 170.6 188.757C170.807 188.757 170.807 188.736 171.015 188.736C171.222 188.736 171.222 188.792 171.429 188.792C171.636 188.792 171.636 188.929 171.844 188.929C172.051 188.929 172.051 188.962 172.259 188.962C172.466 188.962 172.466 188.849 172.674 188.849C172.882 188.849 172.882 188.91 173.09 188.91C173.298 188.91 173.298 189.013 173.507 189.013C173.715 189.013 173.715 188.851 173.923 188.851C174.13 188.851 174.13 188.849 174.338 188.849C174.546 188.849 174.546 188.811 174.754 188.811C174.961 188.811 174.961 188.845 175.169 188.845C175.377 188.845 175.377 188.728 175.585 188.728C175.793 188.728 175.793 188.778 176.001 188.778C176.21 188.778 176.21 189.023 176.418 189.023C176.626 189.023 176.626 188.913 176.834 188.913C177.042 188.913 177.042 188.95 177.25 188.95C177.458 188.95 177.458 189.04 177.666 189.04C177.875 189.04 177.875 188.76 178.083 188.76C178.292 188.76 178.292 188.783 178.5 188.783C178.708 188.783 178.708 188.812 178.916 188.812C179.125 188.812 179.125 189.049 179.333 189.049C179.542 189.049 179.542 188.747 179.75 188.747C179.958 188.747 179.958 188.867 180.167 188.867C180.374 188.867 180.374 189.04 180.582 189.04C180.789 189.04 180.789 188.901 180.997 188.901C181.206 188.901 181.206 188.932 181.415 188.932C181.623 188.932 181.623 189.048 181.831 189.048C182.039 189.048 182.039 189.05 182.248 189.05C182.457 189.05 182.457 188.781 182.666 188.781C182.874 188.781 182.874 189.054 183.083 189.054C183.292 189.054 183.292 189.039 183.501 189.039C183.71 189.039 183.71 188.94 183.919 188.94C184.128 188.94 184.128 188.732 184.337 188.732C184.546 188.732 184.546 188.929 184.755 188.929C184.965 188.929 184.965 188.75 185.174 188.75C185.384 188.75 185.359 188.853 185.557 188.784C185.755 188.716 185.419 188.824 185.285 188.581C185.23 188.479 185.372 188.246 185.297 188.102C185.239 187.991 185.12 187.896 185.051 187.759C184.992 187.644 184.812 187.578 184.746 187.444C184.688 187.326 184.638 187.195 184.575 187.063C184.517 186.943 184.414 186.837 184.352 186.705C184.295 186.584 184.193 186.477 184.132 186.345C184.076 186.223 184.095 186.061 184.036 185.93C183.981 185.807 183.925 185.679 183.868 185.548C183.813 185.424 183.811 185.272 183.754 185.141C183.7 185.017 183.709 184.861 183.653 184.73C183.6 184.605 183.368 184.551 183.313 184.419C183.26 184.293 183.494 184.047 183.44 183.915C183.388 183.789 183.07 183.767 183.017 183.635C182.966 183.508 182.953 183.363 182.901 183.231C182.85 183.104 182.978 182.904 182.926 182.773C182.876 182.645 182.699 182.564 182.648 182.432C182.599 182.303 182.495 182.193 182.445 182.061C182.397 181.932 182.41 181.779 182.361 181.646C182.313 181.517 182.234 181.397 182.186 181.265C182.139 181.136 182.043 181.021 181.996 180.889C181.949 180.759 181.85 180.646 181.803 180.513C181.757 180.383 181.847 180.204 181.801 180.071C181.755 179.94 181.541 179.866 181.495 179.733C181.45 179.603 181.44 179.458 181.395 179.325C181.351 179.194 181.278 179.071 181.234 178.938C181.19 178.807 181.201 178.656 181.157 178.522C181.113 178.391 181.325 178.176 181.281 178.043C181.239 177.912 181.012 177.839 180.97 177.706C180.928 177.575 180.88 177.444 180.838 177.311C180.797 177.18 180.766 177.044 180.725 176.91C180.684 176.778 180.605 176.657 180.564 176.523C180.524 176.391 180.49 176.256 180.449 176.122C180.41 175.99 180.463 175.829 180.423 175.695C180.384 175.562 180.218 175.466 180.179 175.331C180.14 175.199 180.065 175.075 180.026 174.94C179.987 174.808 180.019 174.653 179.981 174.518C179.943 174.385 179.837 174.27 179.8 174.135C179.762 174.002 179.913 173.815 179.875 173.68C179.838 173.546 179.843 173.401 179.806 173.266C179.77 173.132 179.701 173.006 179.664 172.871C179.628 172.737 179.545 172.615 179.509 172.479C179.474 172.345 179.308 172.244 179.272 172.108C179.237 171.974 179.176 171.845 179.141 171.709C179.106 171.575 179.328 171.375 179.294 171.24C179.26 171.106 178.965 171.036 178.931 170.901C178.897 170.766 179.019 170.593 178.985 170.457C178.952 170.322 178.927 170.185 178.894 170.049C178.861 169.914 178.689 169.812 178.656 169.676C178.623 169.541 178.817 169.352 178.785 169.215C178.753 169.08 178.583 168.976 178.551 168.84C178.52 168.704 178.572 168.549 178.54 168.412C178.509 168.277 178.581 168.118 178.551 167.982C178.52 167.847 178.206 167.774 178.176 167.637C178.146 167.502 178.208 167.345 178.178 167.208C178.148 167.072 178.186 166.92 178.157 166.783C178.127 166.647 178.083 166.513 178.054 166.375C178.025 166.239 178.04 166.093 178.011 165.956C177.982 165.82 177.898 165.694 177.87 165.556C177.841 165.42 177.677 165.31 177.649 165.172C177.621 165.034 177.834 164.847 177.807 164.708C177.779 164.572 177.462 164.493 177.435 164.358C177.407 164.221 177.46 164.069 177.432 163.933C177.404 163.797 177.315 163.673 177.287 163.538C177.258 163.401 177.292 163.253 177.263 163.117C177.234 162.981 177.269 162.832 177.24 162.696C177.21 162.56 177.29 162.401 177.261 162.265C177.231 162.129 177.277 161.977 177.247 161.842C177.217 161.706 177.156 161.576 177.126 161.442C177.095 161.306 176.922 161.202 176.892 161.067C176.861 160.931 176.973 160.763 176.942 160.628C176.911 160.493 176.887 160.355 176.856 160.221C176.824 160.085 176.625 159.989 176.594 159.854C176.562 159.719 176.401 159.615 176.369 159.48C176.337 159.345 176.34 159.202 176.307 159.068C176.274 158.932 176.345 158.773 176.313 158.639C176.279 158.503 176.265 158.364 176.231 158.23C176.198 158.095 176.299 157.927 176.265 157.793C176.231 157.658 175.978 157.579 175.944 157.446C175.909 157.311 176.096 157.12 176.061 156.987C176.026 156.851 175.842 156.755 175.807 156.621C175.771 156.485 175.771 156.342 175.736 156.208C175.7 156.073 175.75 155.915 175.714 155.781C175.678 155.646 175.363 155.587 175.327 155.454C175.29 155.319 175.56 155.101 175.523 154.968C175.486 154.834 175.209 154.766 175.171 154.633C175.134 154.499 175.175 154.343 175.138 154.21C175.1 154.076 174.936 153.979 174.898 153.846C174.859 153.712 174.83 153.576 174.792 153.444C174.753 153.31 174.905 153.122 174.866 152.99C174.827 152.856 174.855 152.703 174.816 152.572C174.776 152.438 174.691 152.319 174.651 152.187C174.611 152.054 174.535 151.932 174.495 151.801C174.455 151.667 174.232 151.591 174.192 151.46C174.15 151.327 174.262 151.148 174.221 151.017C174.179 150.884 174.075 150.772 174.034 150.641C173.992 150.508 173.943 150.378 173.901 150.247C173.858 150.113 173.883 149.96 173.84 149.829C173.797 149.696 173.632 149.604 173.589 149.474C173.546 149.342 173.539 149.199 173.495 149.069C173.451 148.937 173.636 148.729 173.592 148.6C173.548 148.468 173.415 148.367 173.371 148.237C173.325 148.105 173.227 147.993 173.182 147.864C173.136 147.732 173.182 147.569 173.137 147.44C173.09 147.309 172.923 147.221 172.877 147.093C172.83 146.962 172.759 146.841 172.712 146.713C172.665 146.581 172.592 146.462 172.546 146.334C172.498 146.203 172.451 146.074 172.404 145.947C172.356 145.817 172.346 145.673 172.301 145.543C172.256 145.412 172.322 145.245 172.28 145.114C172.238 144.982 172.285 144.827 172.246 144.694C172.207 144.562 171.877 144.511 171.841 144.378C171.805 144.245 171.978 144.058 171.945 143.924C171.912 143.79 171.638 143.71 171.608 143.576C171.578 143.441 171.881 143.237 171.854 143.102C171.827 142.966 171.473 142.891 171.449 142.756C171.425 142.62 171.666 142.44 171.645 142.304C171.625 142.167 171.61 142.032 171.592 141.895C171.575 141.758 171.469 141.633 171.454 141.496C171.44 141.359 171.406 141.223 171.394 141.086C171.383 140.948 171.259 140.817 171.251 140.68C171.243 140.542 171.235 140.401 171.23 140.263C171.225 140.126 171.426 139.982 171.424 139.844C171.422 139.706 171.338 139.569 171.339 139.431C171.34 139.293 171.315 139.155 171.319 139.017C171.324 138.879 171.278 138.737 171.286 138.6C171.293 138.462 171.359 138.327 171.37 138.189C171.381 138.052 171.537 137.928 171.551 137.791C171.565 137.654 171.603 137.522 171.62 137.385C171.637 137.248 171.571 137.102 171.592 136.966C171.612 136.83 171.444 136.662 171.467 136.526C171.49 136.39 171.756 136.298 171.783 136.163C171.809 136.027 171.897 135.908 171.927 135.773C171.956 135.638 171.775 135.457 171.808 135.322C171.841 135.188 171.989 135.084 172.025 134.951C172.06 134.817 172.041 134.67 172.08 134.537C172.119 134.405 172.222 134.293 172.264 134.162C172.306 134.03 172.297 133.883 172.342 133.753C172.387 133.622 172.259 133.429 172.307 133.3C172.355 133.17 172.424 133.045 172.475 132.917C172.526 132.788 172.696 132.706 172.75 132.579C172.803 132.452 172.964 132.369 173.019 132.24C173.073 132.113 173.023 131.941 173.078 131.812C173.131 131.685 173.145 131.54 173.2 131.411C173.254 131.284 173.283 131.145 173.338 131.016C173.391 130.889 173.441 130.76 173.496 130.63C173.549 130.503 173.812 130.463 173.866 130.333C173.92 130.206 173.906 130.05 173.961 129.921C174.014 129.794 174.095 129.677 174.149 129.548C174.203 129.421 174.186 129.263 174.241 129.134C174.294 129.007 174.471 128.93 174.525 128.801C174.579 128.674 174.599 128.532 174.653 128.403C174.707 128.275 174.562 128.064 174.617 127.935C174.67 127.808 174.67 127.658 174.724 127.529C174.778 127.401 174.975 127.333 175.029 127.204C175.083 127.077 175.183 126.968 175.237 126.839C175.291 126.712 175.271 126.553 175.325 126.424C175.378 126.297 175.414 126.162 175.468 126.034C175.521 125.908 175.564 125.776 175.617 125.648C175.671 125.521 175.654 125.364 175.708 125.236C175.761 125.109 175.879 125.008 175.933 124.88C175.986 124.753 176.014 124.615 176.067 124.487C176.121 124.36 176.424 124.336 176.478 124.208C176.531 124.081 176.495 123.916 176.549 123.788C176.602 123.661 176.712 123.557 176.766 123.429C176.819 123.302 176.644 123.079 176.697 122.951C176.751 122.823 176.976 122.767 177.03 122.639C177.083 122.512 176.904 122.288 176.958 122.159C177.011 122.032 177.135 121.933 177.189 121.805C177.242 121.678 177.331 121.565 177.384 121.437C177.438 121.309 177.586 121.221 177.64 121.092C177.693 120.965 177.788 120.854 177.842 120.726C177.895 120.599 177.736 120.383 177.79 120.255C177.843 120.127 178.001 120.042 178.054 119.914C178.107 119.786 178.258 119.699 178.312 119.571C178.365 119.443 178.367 119.294 178.421 119.165C178.474 119.038 178.477 118.889 178.53 118.76C178.583 118.633 178.814 118.578 178.868 118.45C178.921 118.322 178.764 118.107 178.817 117.979C178.871 117.851 178.912 117.718 178.966 117.59C179.019 117.462 179.147 117.364 179.2 117.236C179.253 117.108 179.203 116.937 179.256 116.809C179.31 116.681 179.633 116.664 179.686 116.535C179.739 116.408 179.759 116.266 179.812 116.137C179.865 116.009 179.847 115.851 179.9 115.723C179.953 115.595 180.041 115.481 180.094 115.352C180.147 115.224 179.994 115.011 180.047 114.882C180.1 114.754 180.309 114.69 180.362 114.562C180.415 114.433 180.333 114.249 180.386 114.121C180.439 113.993 180.482 113.86 180.536 113.732C180.589 113.604 180.836 113.555 180.89 113.426C180.943 113.298 180.912 113.135 180.965 113.007C181.018 112.879 181.16 112.787 181.213 112.658C181.266 112.53 181.113 112.317 181.166 112.188C181.219 112.06 181.497 112.024 181.55 111.895C181.603 111.767 181.521 111.584 181.574 111.455C181.626 111.327 181.543 111.144 181.596 111.015C181.649 110.887 181.984 110.874 182.037 110.746C182.09 110.618 181.876 110.381 181.929 110.252C181.981 110.124 182.31 110.108 182.363 109.98C182.415 109.852 182.435 109.71 182.488 109.581C182.54 109.453 182.61 109.332 182.663 109.203C182.716 109.075 182.773 108.948 182.826 108.82C182.879 108.692 182.768 108.497 182.821 108.368C182.874 108.24 182.857 108.083 182.91 107.954C182.962 107.826 183.291 107.81 183.344 107.681C183.396 107.553 183.417 107.411 183.469 107.282C183.522 107.154 183.461 106.979 183.514 106.85C183.566 106.722 183.562 106.57 183.614 106.441C183.667 106.313 183.707 106.179 183.76 106.05C183.812 105.922 183.96 105.832 184.013 105.703C184.066 105.574 184.042 105.415 184.095 105.286C184.147 105.157 184.089 104.984 184.142 104.855C184.194 104.726 184.382 104.652 184.435 104.523C184.487 104.395 184.511 104.255 184.563 104.126C184.616 103.997 184.656 103.864 184.708 103.735C184.761 103.606 185.003 103.554 185.055 103.425C185.108 103.297 184.984 103.096 185.036 102.968C185.089 102.839 185.167 102.72 185.22 102.592C185.272 102.463 185.281 102.316 185.333 102.187C185.386 102.058 185.635 102.009 185.687 101.88C185.74 101.751 185.722 101.594 185.774 101.465C185.827 101.336 185.845 101.193 185.898 101.064C185.95 100.935 185.908 100.768 185.961 100.639C186.013 100.51 186.164 100.42 186.217 100.291C186.269 100.162 186.13 99.9558 186.182 99.8266C186.234 99.6974 186.438 99.6289 186.49 99.4997C186.542 99.3704 186.688 99.2784 186.74 99.1492C186.792 99.0199 186.661 98.817 186.713 98.6877C186.765 98.5584 186.846 98.4406 186.899 98.3112C186.951 98.1818 187.065 98.0772 187.117 97.9478C187.169 97.8184 187.329 97.732 187.381 97.6026C187.434 97.4731 187.331 97.2818 187.383 97.1523C187.435 97.0228 187.698 96.9773 187.75 96.8478C187.802 96.7183 187.664 96.5129 187.716 96.3834C187.768 96.2537 187.849 96.1357 187.901 96.0062C187.954 95.8765 188.163 95.8094 188.215 95.6799C188.267 95.5502 188.012 95.2986 188.064 95.169C188.116 95.0393 188.3 94.9619 188.352 94.8323C188.404 94.7025 188.635 94.6438 188.687 94.5141C188.738 94.3846 188.607 94.1824 188.659 94.053C188.711 93.9234 188.718 93.7766 188.77 93.6472C188.822 93.5176 188.79 93.355 188.842 93.2256C188.894 93.096 188.95 92.9685 189.002 92.839C189.053 92.7094 189.098 92.5771 189.149 92.4476C189.201 92.3179 189.35 92.2269 189.402 92.0975C189.453 91.9678 189.697 91.9138 189.748 91.7843C189.8 91.6545 189.764 91.4906 189.816 91.3611C189.867 91.2313 189.803 91.0561 189.854 90.9265C189.906 90.7968 190.017 90.6906 190.068 90.5611C190.12 90.4313 190.305 90.3543 190.356 90.2247C190.408 90.0949 190.471 89.9697 190.522 89.8402C190.573 89.7103 190.361 89.4771 190.412 89.3475C190.463 89.2176 190.472 89.0713 190.523 88.9417C190.574 88.8118 190.907 88.792 190.958 88.6624C191.009 88.5324 190.975 88.3696 191.026 88.24C191.078 88.11 190.942 87.9072 190.992 87.7776C191.044 87.6476 191.092 87.5167 191.143 87.3871C191.194 87.257 191.395 87.1856 191.446 87.056C191.496 86.9259 191.693 86.8528 191.744 86.7231C191.795 86.593 191.813 86.4501 191.863 86.3204C191.914 86.1903 191.838 86.0113 191.889 85.8816C191.94 85.7514 192.17 85.691 192.221 85.5613C192.271 85.4311 192.06 85.1999 192.111 85.0702C192.161 84.94 192.388 84.8778 192.438 84.7481C192.489 84.6178 192.363 84.4201 192.414 84.2904C192.464 84.1601 192.65 84.0823 192.701 83.9526C192.751 83.8223 192.612 83.6196 192.662 83.4898C192.713 83.3595 192.882 83.275 192.932 83.1452C192.982 83.0149 192.963 82.8582 193.013 82.7284C193.063 82.5981 193.06 82.4476 193.11 82.3178C193.16 82.1874 193.337 82.1057 193.387 81.9759C193.437 81.8454 193.619 81.7658 193.669 81.636C193.719 81.5055 193.605 81.313 193.655 81.1832C193.705 81.0527 193.806 80.9419 193.855 80.812C193.905 80.6815 194.004 80.5701 194.054 80.4403C194.104 80.3097 194.119 80.1667 194.169 80.0368C194.219 79.9062 194.362 79.8115 194.412 79.6817C194.461 79.551 194.481 79.4094 194.53 79.2795C194.579 79.1488 194.459 78.955 194.508 78.8251C194.558 78.6944 194.598 78.5609 194.647 78.431C194.696 78.3002 194.801 78.1909 194.85 78.061C194.899 77.9303 195.053 77.8388 195.101 77.7089C195.151 77.5781 195.31 77.4886 195.358 77.3587C195.407 77.2278 195.416 77.0826 195.465 76.9527C195.514 76.8211 195.342 76.6082 195.39 76.4776C195.439 76.346 195.676 76.2841 195.724 76.1535C195.773 76.0219 195.66 75.8314 195.708 75.7008C195.757 75.5692 195.781 75.4293 195.829 75.2988C195.878 75.1671 196.145 75.1159 196.193 74.9854C196.241 74.8537 196.012 74.6216 196.06 74.491C196.108 74.3593 196.263 74.2672 196.311 74.1367C196.359 74.0049 196.487 73.9028 196.534 73.7723C196.582 73.6406 196.532 73.4745 196.58 73.344C196.627 73.2122 196.805 73.1277 196.852 72.9973C196.899 72.8655 196.799 72.6818 196.846 72.5514C196.894 72.4196 197.093 72.3426 197.14 72.2123C197.187 72.0804 197.149 71.9195 197.196 71.7891C197.243 71.6572 197.292 71.5271 197.338 71.3968C197.385 71.2649 197.323 71.096 197.369 70.9657C197.416 70.8338 197.628 70.7606 197.674 70.6304C197.72 70.4984 197.574 70.3009 197.619 70.1707C197.665 70.0386 197.838 69.9515 197.883 69.8214C197.929 69.6893 197.86 69.5192 197.905 69.3891C197.95 69.257 198.173 69.1865 198.218 69.0565C198.263 68.9243 198.223 68.7645 198.267 68.6345C198.312 68.5021 198.379 68.3787 198.423 68.2486C198.468 68.116 198.593 68.0115 198.637 67.8813C198.681 67.7479 198.814 67.6447 198.857 67.5138C198.901 67.3804 198.929 67.2428 198.972 67.1121C199.015 66.9788 199.088 66.8558 199.13 66.7254C199.173 66.592 198.918 66.3652 198.959 66.2349C199.002 66.1015 199.268 66.0405 199.309 65.9103C199.352 65.7764 199.377 65.6389 199.417 65.5086C199.459 65.374 199.463 65.2295 199.503 65.0987C199.544 64.9644 199.492 64.8049 199.531 64.6748C199.572 64.54 199.703 64.4345 199.741 64.3042C199.781 64.1694 199.787 64.0275 199.824 63.8976C199.863 63.7623 199.988 63.6541 200.025 63.5243C200.063 63.3857 199.863 63.1929 199.891 63.0533C199.92 62.9125 200.005 62.7895 200.023 62.6481C200.041 62.5057 200.266 62.3808 200.274 62.2383C200.282 62.0951 200.005 61.9469 200.002 61.8042C200 61.6609 200.275 61.5042 200.263 61.3619C200.25 61.2192 200.188 61.0747 200.165 60.9336C200.143 60.7922 199.856 60.7053 199.824 60.566C199.791 60.4267 200.089 60.1985 200.046 60.0618C200.004 59.9252 199.653 59.8943 199.601 59.7609C199.55 59.6277 199.489 59.5097 199.428 59.3803C199.366 59.2511 199.405 59.0784 199.334 58.9535C199.264 58.8291 199.298 58.6394 199.218 58.5197C199.14 58.4007 198.947 58.3603 198.859 58.2465C198.772 58.1334 198.704 58.0074 198.608 57.9C198.513 57.7934 198.502 57.6018 198.399 57.5014Z" fill="white"/>
<path d="M113.484 117.297C113.344 117.141 113.378 117.155 113.138 117.028C113.034 116.973 112.911 116.899 112.766 116.827C112.652 116.77 112.547 116.657 112.409 116.592C112.29 116.536 112.087 116.636 111.951 116.575C111.829 116.521 111.664 116.549 111.529 116.492C111.405 116.439 111.341 116.227 111.207 116.174C111.08 116.123 110.966 116.025 110.831 115.974C110.703 115.926 110.585 115.832 110.449 115.784C110.319 115.738 110.121 115.878 109.985 115.833C109.854 115.789 109.781 115.554 109.644 115.512C109.512 115.471 109.311 115.649 109.174 115.61C109.041 115.572 108.951 115.367 108.813 115.331C108.679 115.295 108.526 115.318 108.387 115.285C108.252 115.253 108.076 115.395 107.937 115.365C107.801 115.336 107.658 115.352 107.518 115.325C107.381 115.299 107.247 115.276 107.107 115.252C106.969 115.229 106.837 115.186 106.697 115.167C106.559 115.147 106.424 115.123 106.283 115.107C106.144 115.09 106.034 114.785 105.893 114.772C105.754 114.76 105.598 114.921 105.457 114.912C105.318 114.903 105.181 114.796 105.04 114.791C104.9 114.786 104.756 114.962 104.614 114.961C104.474 114.96 104.332 114.801 104.191 114.804C104.051 114.808 103.914 114.909 103.772 114.916C103.633 114.924 103.484 114.829 103.344 114.841C103.204 114.853 103.086 115.075 102.946 115.091C102.807 115.108 102.646 114.955 102.506 114.976C102.367 114.997 102.233 115.051 102.094 115.077C101.956 115.102 101.809 115.093 101.671 115.123C101.535 115.154 101.434 115.333 101.297 115.368C101.162 115.404 100.971 115.243 100.835 115.283C100.701 115.323 100.557 115.348 100.423 115.393C100.29 115.438 100.145 115.462 100.012 115.512C99.8815 115.562 99.7397 115.601 99.6092 115.656C99.4804 115.71 99.4534 115.999 99.325 116.058C99.1983 116.117 98.9754 115.983 98.8492 116.047C98.7248 116.111 98.7443 116.443 98.6205 116.512C98.4984 116.579 98.2053 116.356 98.084 116.429C97.9645 116.501 97.9881 116.804 97.8694 116.881C97.7527 116.957 97.6477 117.046 97.5318 117.127C97.4179 117.208 97.3192 117.303 97.2062 117.389C97.0951 117.473 96.9048 117.455 96.7947 117.545C96.6864 117.632 96.5111 117.645 96.4039 117.738C96.2987 117.83 96.2872 118.028 96.1831 118.124C96.0807 118.219 95.9138 118.249 95.8126 118.348C95.7133 118.446 95.5684 118.505 95.4702 118.608C95.376 118.706 95.2794 118.808 95.1851 118.911C95.0931 119.012 95.1518 119.249 95.0596 119.354C94.9695 119.457 94.7313 119.435 94.6411 119.541C94.5529 119.645 94.6372 119.894 94.5488 120.001C94.4623 120.107 94.2908 120.146 94.2042 120.255C94.1192 120.362 94.0521 120.484 93.9671 120.594C93.8836 120.703 93.7701 120.79 93.6866 120.901C93.6045 121.01 93.6301 121.199 93.548 121.312C93.4672 121.422 93.4173 121.554 93.3365 121.667C93.257 121.779 92.9669 121.744 92.8874 121.858C92.8091 121.971 92.8595 122.172 92.7812 122.287C92.704 122.4 92.5022 122.432 92.425 122.547C92.3488 122.661 92.2965 122.793 92.2204 122.909C92.1453 123.024 91.9871 123.087 91.912 123.204C91.8378 123.319 91.9902 123.579 91.916 123.697C91.8427 123.813 91.5343 123.784 91.461 123.902C91.3886 124.018 91.4048 124.191 91.3324 124.31C91.2607 124.427 91.1371 124.514 91.0655 124.633C90.9947 124.751 90.886 124.848 90.8152 124.967C90.7451 125.086 90.749 125.249 90.679 125.368C90.6096 125.487 90.5208 125.596 90.4515 125.716C90.3827 125.835 90.3438 125.972 90.2751 126.093C90.2071 126.213 90.1717 126.351 90.1037 126.472C90.0362 126.592 90.0236 126.743 89.9562 126.864C89.8894 126.985 89.8833 127.138 89.8165 127.26C89.7502 127.381 89.5674 127.438 89.5011 127.56C89.4354 127.681 89.4193 127.829 89.3536 127.951C89.2884 128.073 89.1368 128.149 89.0716 128.271C89.0069 128.393 88.9006 128.493 88.8359 128.616C88.772 128.737 88.9541 128.987 88.8902 129.109C88.8267 129.231 88.7183 129.329 88.6549 129.452C88.5918 129.574 88.2927 129.576 88.2297 129.699C88.1671 129.821 88.2641 130.025 88.2015 130.148C88.1393 130.27 88.0656 130.387 88.0034 130.511C87.9416 130.633 87.816 130.725 87.7543 130.849C87.6928 130.972 87.6332 131.096 87.5718 131.22C87.5107 131.343 87.5954 131.538 87.5344 131.662C87.4737 131.785 87.1686 131.79 87.1079 131.915C87.0475 132.038 87.1053 132.22 87.045 132.344C86.9849 132.468 86.9099 132.585 86.8498 132.71C86.7901 132.834 86.7884 132.986 86.7287 133.11C86.6693 133.235 86.5495 133.331 86.4901 133.456C86.4309 133.58 86.5193 133.774 86.4602 133.899C86.4013 134.024 86.374 134.163 86.3151 134.288C86.2565 134.413 85.9418 134.419 85.8833 134.544C85.8249 134.669 85.8402 134.829 85.782 134.954C85.7239 135.079 85.748 135.243 85.69 135.368C85.6321 135.493 85.6337 135.646 85.576 135.772C85.5184 135.897 85.4931 136.037 85.4356 136.163C85.3783 136.288 85.3298 136.418 85.2725 136.544C85.2155 136.669 85.0009 136.724 84.944 136.85C84.8872 136.975 84.7113 137.048 84.6546 137.174C84.598 137.299 84.8331 137.555 84.7766 137.681C84.7202 137.807 84.6287 137.917 84.5724 138.043C84.5162 138.169 84.3462 138.245 84.29 138.371C84.234 138.497 84.0437 138.565 83.9878 138.691C83.9319 138.817 83.9514 138.977 83.8957 139.104C83.84 139.23 83.8164 139.37 83.7608 139.497C83.7052 139.624 83.6699 139.759 83.6145 139.886C83.5591 140.012 83.494 140.135 83.4388 140.262C83.3835 140.388 83.2042 140.462 83.1491 140.589C83.094 140.715 83.0835 140.861 83.0286 140.988C82.9737 141.115 82.9258 141.245 82.871 141.372C82.8162 141.499 82.8906 141.681 82.8359 141.809C82.7812 141.936 82.8308 142.107 82.7762 142.234C82.7216 142.362 82.4645 142.403 82.4101 142.53C82.3556 142.657 82.4711 142.857 82.4168 142.984C82.3624 143.112 82.2506 143.215 82.1964 143.342C82.1421 143.47 82.109 143.606 82.0549 143.734C82.0007 143.861 81.8427 143.945 81.7887 144.073C81.7346 144.201 81.8372 144.394 81.7833 144.522C81.7293 144.65 81.6175 144.753 81.5637 144.881C81.5098 145.009 81.4692 145.142 81.4154 145.27C81.3615 145.398 81.2459 145.5 81.1922 145.628C81.1384 145.756 80.9668 145.835 80.9132 145.963C80.8595 146.091 80.9208 146.267 80.8673 146.395C80.8136 146.523 80.6131 146.59 80.5597 146.718C80.5061 146.846 80.6206 147.044 80.5672 147.172C80.5137 147.3 80.3147 147.368 80.2614 147.497C80.2079 147.625 80.1165 147.737 80.0632 147.865C80.0098 147.994 80.1799 148.214 80.1266 148.342C80.0733 148.471 80.0778 148.623 80.0245 148.751C79.9712 148.879 79.9345 149.014 79.8813 149.142C79.828 149.271 79.7026 149.369 79.6495 149.498C79.5962 149.626 79.3434 149.672 79.2903 149.8C79.237 149.929 79.1471 150.042 79.094 150.17C79.0408 150.298 79.1513 150.494 79.0982 150.622C79.045 150.75 78.9205 150.849 78.8674 150.977C78.8142 151.106 78.8663 151.277 78.8133 151.405C78.7601 151.534 78.6488 151.638 78.5957 151.766C78.5425 151.894 78.5969 152.067 78.5439 152.195C78.4907 152.323 78.2738 152.384 78.2208 152.512C78.1676 152.64 78.0589 152.745 78.0058 152.873C77.9526 153.001 78.1606 153.237 78.1076 153.365C78.0544 153.493 78.0314 153.633 77.9784 153.761C77.9251 153.889 77.7923 153.984 77.7392 154.112C77.6859 154.24 77.4631 154.298 77.41 154.426C77.3566 154.554 77.268 154.667 77.2148 154.794C77.1615 154.922 77.2804 155.121 77.2272 155.249C77.1738 155.377 77.0182 155.462 76.965 155.589C76.9115 155.717 77.0119 155.908 76.9587 156.035C76.9051 156.163 76.8433 156.287 76.7899 156.414C76.7363 156.542 76.6583 156.659 76.6049 156.786C76.5512 156.914 76.3167 156.965 76.2632 157.092C76.2094 157.219 76.2586 157.39 76.205 157.516C76.1509 157.644 76.1182 157.781 76.0643 157.908C76.0101 158.036 76.0305 158.194 75.9765 158.321C75.9222 158.449 75.6753 158.494 75.6212 158.621C75.5668 158.748 75.5735 158.901 75.5194 159.027C75.4649 159.154 75.5266 159.33 75.4724 159.456C75.4178 159.583 75.4305 159.738 75.3762 159.863C75.3212 159.991 75.1832 160.082 75.1285 160.208C75.0735 160.334 75.1083 160.499 75.0536 160.624C74.9983 160.751 74.876 160.848 74.821 160.974C74.766 161.099 74.741 161.237 74.6864 161.361C74.6297 161.489 74.3228 161.508 74.2665 161.636C74.2098 161.764 74.3315 161.97 74.2752 162.098C74.2186 162.226 74.1901 162.367 74.1338 162.494C74.0773 162.623 74.0395 162.759 73.9833 162.887C73.9268 163.015 73.9237 163.167 73.8675 163.294C73.811 163.423 73.523 163.45 73.4668 163.578C73.4104 163.706 73.3629 163.838 73.3069 163.966C73.2505 164.095 73.1614 164.208 73.1054 164.336C73.049 164.465 73.0959 164.638 73.04 164.765C72.9837 164.894 72.8463 164.987 72.7904 165.115C72.7342 165.243 72.6735 165.369 72.6177 165.497C72.5615 165.626 72.6049 165.797 72.5492 165.925C72.4931 166.053 72.3378 166.138 72.2821 166.266C72.2261 166.395 72.3021 166.58 72.2464 166.708C72.1905 166.836 71.9587 166.889 71.9032 167.016C71.8473 167.145 71.8235 167.287 71.7681 167.415C71.7123 167.544 71.6802 167.682 71.6248 167.81C71.5691 167.938 71.519 168.069 71.4637 168.197C71.4081 168.325 71.5305 168.53 71.4753 168.658C71.4198 168.786 71.2953 168.885 71.2403 169.013C71.1849 169.142 71.1804 169.292 71.1255 169.419C71.0702 169.548 71.0207 169.679 70.9659 169.807C70.9108 169.935 70.9365 170.098 70.8819 170.226C70.8268 170.355 70.7258 170.463 70.6713 170.591C70.6164 170.72 70.3043 170.74 70.2499 170.868C70.1951 170.997 70.3178 171.2 70.2636 171.328C70.2089 171.457 70.289 171.642 70.2349 171.77C70.1804 171.899 69.8442 171.909 69.7903 172.037C69.736 172.166 69.7044 172.304 69.6506 172.432C69.5964 172.561 69.6998 172.755 69.6463 172.883C69.5922 173.013 69.6255 173.177 69.5722 173.305C69.5183 173.434 69.3367 173.51 69.2836 173.638C69.2299 173.767 69.3034 173.948 69.2504 174.076C69.197 174.206 69.1143 174.322 69.0616 174.45C69.0083 174.58 68.746 174.623 68.6935 174.751C68.6405 174.881 68.6167 175.022 68.5645 175.15C68.5117 175.28 68.461 175.409 68.409 175.538C68.3565 175.667 68.4099 175.839 68.3582 175.967C68.3059 176.097 68.1959 176.203 68.1445 176.331C68.0925 176.461 68.0699 176.601 68.0188 176.73C67.9671 176.86 68.0172 177.029 67.9664 177.157C67.915 177.287 67.8629 177.416 67.8125 177.544C67.7614 177.675 67.6423 177.777 67.5922 177.906C67.5415 178.036 67.5824 178.2 67.5327 178.329C67.4824 178.459 67.2511 178.52 67.2019 178.649C67.1519 178.779 67.0651 178.895 67.0163 179.024C66.9668 179.154 66.8857 179.273 66.8374 179.402C66.7883 179.532 66.7048 179.65 66.657 179.779C66.6084 179.91 66.6697 180.081 66.6224 180.21C66.5739 180.342 66.6643 180.523 66.6171 180.653C66.5692 180.786 66.4256 180.882 66.3792 181.013C66.3319 181.145 66.1258 181.221 66.08 181.351C66.0333 181.484 66.0421 181.635 65.9971 181.766C65.9511 181.898 66.084 182.091 66.0397 182.221C65.9945 182.354 65.9177 182.475 65.8743 182.605C65.8299 182.738 65.6284 182.819 65.5859 182.949C65.5425 183.083 65.6943 183.277 65.6528 183.408C65.6103 183.541 65.3759 183.614 65.3355 183.744C65.2941 183.878 65.3248 184.033 65.2856 184.164C65.2452 184.298 65.0842 184.396 65.0462 184.527C65.0071 184.662 64.9814 184.801 64.9447 184.932C64.9069 185.068 64.9658 185.229 64.9307 185.36C64.8945 185.497 64.8114 185.619 64.7781 185.751C64.7435 185.888 64.6911 186.02 64.6597 186.153C64.6272 186.29 64.7855 186.468 64.7565 186.6C64.7263 186.738 64.4794 186.83 64.453 186.962C64.4253 187.101 64.5594 187.269 64.536 187.402C64.5115 187.542 64.3969 187.664 64.3771 187.797C64.3562 187.938 64.4966 188.097 64.4811 188.23C64.4647 188.371 64.453 188.506 64.4428 188.639C64.4319 188.781 64.452 188.816 64.4483 188.948C64.5867 188.948 64.6295 189.054 64.77 189.054C64.9085 189.054 65.0479 188.975 65.1884 188.975C65.3261 188.975 65.4647 189.128 65.6042 189.128C65.742 189.128 65.8807 189.063 66.0202 189.063C66.1581 189.063 66.2968 189.068 66.4363 189.068C66.5743 189.068 66.713 189.017 66.8526 189.017C66.9906 189.017 67.1294 188.985 67.2689 188.985C67.407 188.985 67.5458 189.009 67.6854 189.009C67.8235 189.009 67.9624 189.026 68.1019 189.026C68.2402 189.026 68.3791 189.137 68.5186 189.137C68.6569 189.137 68.7959 188.871 68.9354 188.871C69.0738 188.871 69.2127 188.994 69.3523 188.994C69.4907 188.994 69.6297 189.007 69.7693 189.007C69.9077 189.007 70.0468 189.164 70.1863 189.164C70.3249 189.164 70.4639 188.946 70.6035 188.946C70.7421 188.946 70.8812 189.139 71.0207 189.139C71.1594 189.139 71.2985 188.92 71.4381 188.92C71.5768 188.92 71.7159 189.2 71.8555 189.2C71.9942 189.2 72.1334 189.192 72.273 189.192C72.4118 189.192 72.551 189.136 72.6905 189.136C72.8294 189.136 72.9686 188.995 73.1082 188.995C73.2471 188.995 73.3863 189.1 73.5259 189.1C73.6648 189.1 73.8041 189.091 73.9437 189.091C74.0826 189.091 74.2219 189.192 74.3615 189.192C74.5005 189.192 74.6398 188.902 74.7795 188.902C74.9185 188.902 75.0578 188.946 75.1974 188.946C75.3365 188.946 75.4759 188.873 75.6155 188.873C75.7546 188.873 75.894 188.87 76.0336 188.87C76.1727 188.87 76.3121 189.04 76.4517 189.04C76.5905 189.04 76.7295 189.206 76.8687 189.206C77.0075 189.206 77.1466 189.107 77.2858 189.107C77.4247 189.107 77.5638 189.109 77.7031 189.109C77.842 189.109 77.9812 188.947 78.1205 188.947C78.2595 188.947 78.3987 189.051 78.538 189.051C78.6771 189.051 78.8163 189.113 78.9557 189.113C79.0949 189.113 79.2341 189.111 79.3736 189.111C79.5127 189.111 79.6521 189.18 79.7915 189.18C79.9307 189.18 80.0701 188.911 80.2096 188.911C80.3489 188.911 80.4883 189.066 80.6278 189.066C80.7671 189.066 80.9065 189.025 81.0461 189.025C81.1853 189.025 81.3246 189.139 81.4639 189.139C81.6032 189.139 81.7426 189.055 81.8821 189.055C82.0214 189.055 82.1609 188.877 82.3004 188.877C82.4399 188.877 82.5794 189.077 82.719 189.077C82.8586 189.077 82.9982 188.967 83.1378 188.967C83.2775 188.967 83.4171 189.218 83.5568 189.218C83.6966 189.218 83.8363 189.071 83.9761 189.071C84.1159 189.071 84.2557 189.004 84.3955 189.004C84.5354 189.004 84.6753 189.044 84.8151 189.044C84.9551 189.044 85.095 189.164 85.2349 189.164C85.375 189.164 85.515 189.203 85.6549 189.203C85.7948 189.203 85.9346 189.015 86.0743 189.015C86.2142 189.015 86.3541 189.206 86.4938 189.206C86.6337 189.206 86.7736 189.208 86.9133 189.208C87.0533 189.208 87.1932 189.05 87.3329 189.05C87.4729 189.05 87.6128 189.105 87.7526 189.105C87.8926 189.105 88.0325 188.985 88.1723 188.985C88.3124 188.985 88.4523 189.197 88.5921 189.197C88.7322 189.197 88.8721 189.171 89.0119 189.171C89.152 189.171 89.292 188.993 89.4318 188.993C89.5719 188.993 89.7119 188.876 89.8517 188.876C89.9918 188.876 90.1318 189.183 90.2716 189.183C90.4118 189.183 90.5518 189.016 90.6916 189.016C90.8318 189.016 90.9718 189.029 91.1116 189.029C91.2518 189.029 91.3918 188.976 91.5316 188.976C91.6719 188.976 91.8119 188.889 91.9517 188.889C92.092 188.889 92.232 189.056 92.3718 189.056C92.5121 189.056 92.6521 189.065 92.7919 189.065C92.9322 189.065 93.0723 188.902 93.212 188.902C93.3524 188.902 93.4924 189.192 93.6322 189.192C93.7725 189.192 93.9126 189.118 94.0523 189.118C94.1927 189.118 94.3328 189.148 94.4725 189.148C94.6129 189.148 94.7529 189.199 94.8926 189.199C95.033 189.199 95.1731 189.212 95.3128 189.212C95.4532 189.212 95.5932 189.037 95.7329 189.037C95.8733 189.037 96.0134 189.041 96.153 189.041C96.2935 189.041 96.4335 188.987 96.5731 188.987C96.7136 188.987 96.8536 188.916 96.9932 188.916C97.1337 188.916 97.2737 189.116 97.4133 189.116C97.5538 189.116 97.6938 189.015 97.8333 189.015C97.9738 189.015 98.1138 189.206 98.2533 189.206C98.3938 189.206 98.5338 189.069 98.6732 189.069C98.8138 189.069 98.9538 189.087 99.0932 189.087C99.2337 189.087 99.3737 188.913 99.513 188.913C99.6536 188.913 99.7935 189.178 99.9328 189.178C100.073 189.178 100.213 188.927 100.353 188.927C100.493 188.927 100.633 189.05 100.772 189.05C100.913 189.05 101.053 189.001 101.192 189.001C101.332 189.001 101.472 189.012 101.611 189.012C101.752 189.012 101.892 188.997 102.031 188.997C102.171 188.997 102.311 188.999 102.45 188.999C102.591 188.999 102.73 188.885 102.869 188.885C103.01 188.885 103.149 189.083 103.288 189.083C103.429 189.083 103.569 189.073 103.707 189.073C103.848 189.073 103.987 188.972 104.126 188.972C104.267 188.972 104.406 189.076 104.545 189.076C104.685 189.076 104.825 188.91 104.963 188.91C105.104 188.91 105.243 189.177 105.381 189.177C105.522 189.177 105.662 188.902 105.8 188.902C105.94 188.902 106.08 189.014 106.218 189.014C106.358 189.014 106.497 188.987 106.635 188.987C106.776 188.987 106.915 188.943 107.053 188.943C107.194 188.943 107.333 189.177 107.47 189.177C107.611 189.177 107.751 188.949 107.888 188.949C108.029 188.949 108.169 189.074 108.306 189.074C108.447 189.074 108.587 189.173 108.724 189.173C108.866 189.173 109.005 189.192 109.142 189.192C109.284 189.192 109.423 189.146 109.56 189.146C109.702 189.146 109.842 188.99 109.978 188.99C110.12 188.99 110.26 188.99 110.396 188.99C110.538 188.99 110.677 189.147 110.813 189.147C110.956 189.147 111.095 189.22 111.23 189.22C111.374 189.22 111.514 188.928 111.649 188.928C111.794 188.928 111.934 189.03 112.067 189.03C112.214 189.03 112.353 189.198 112.485 189.198C112.633 189.198 112.772 189.174 112.902 189.174C113.053 189.174 113.192 188.977 113.317 188.977C113.478 188.977 113.617 189.139 113.733 189.139C114.005 189.139 114.198 189.062 114.198 189.062C114.262 188.866 114.118 188.891 114.19 188.631C114.221 188.521 114.409 188.429 114.448 188.275C114.478 188.155 114.31 187.973 114.345 187.827C114.375 187.703 114.622 187.618 114.654 187.475C114.682 187.348 114.464 187.162 114.494 187.02C114.521 186.891 114.725 186.793 114.752 186.653C114.778 186.523 114.848 186.396 114.873 186.256C114.898 186.125 114.997 186.002 115.021 185.863C115.044 185.731 114.822 185.555 114.844 185.416C114.866 185.283 115.022 185.169 115.044 185.03C115.064 184.897 115.105 184.764 115.125 184.626C115.144 184.492 115.131 184.351 115.15 184.213C115.167 184.079 115.326 183.96 115.343 183.821C115.359 183.687 115.329 183.544 115.345 183.405C115.361 183.27 115.298 183.125 115.312 182.986C115.327 182.852 115.128 182.694 115.142 182.556C115.155 182.421 115.336 182.3 115.348 182.162C115.36 182.027 115.519 181.902 115.53 181.763C115.541 181.628 115.473 181.484 115.483 181.346C115.493 181.211 115.345 181.064 115.354 180.926C115.362 180.791 115.53 180.663 115.537 180.525C115.545 180.39 115.372 180.244 115.378 180.105C115.385 179.969 115.648 179.843 115.653 179.704C115.658 179.568 115.648 179.429 115.652 179.29C115.656 179.154 115.438 179.01 115.441 178.871C115.444 178.736 115.489 178.6 115.491 178.462C115.493 178.326 115.559 178.189 115.56 178.051C115.561 177.914 115.459 177.777 115.459 177.638C115.459 177.501 115.402 177.364 115.4 177.225C115.399 177.089 115.549 176.95 115.547 176.812C115.544 176.674 115.53 176.536 115.527 176.397C115.524 176.26 115.628 176.119 115.624 175.98C115.62 175.839 115.56 175.701 115.555 175.562C115.55 175.422 115.433 175.286 115.428 175.147C115.423 175.007 115.526 174.864 115.521 174.725C115.515 174.584 115.516 174.445 115.511 174.306C115.506 174.166 115.571 174.023 115.566 173.884C115.56 173.745 115.377 173.612 115.371 173.473C115.365 173.334 115.293 173.197 115.287 173.058C115.281 172.919 115.48 172.77 115.473 172.632C115.467 172.492 115.349 172.358 115.342 172.219C115.336 172.079 115.279 171.941 115.273 171.802C115.267 171.662 115.445 171.514 115.439 171.374C115.432 171.234 115.312 171.1 115.306 170.961C115.299 170.821 115.269 170.683 115.263 170.544C115.256 170.404 115.429 170.256 115.423 170.117C115.416 169.978 115.424 169.838 115.417 169.699C115.411 169.559 115.386 169.421 115.38 169.282C115.373 169.143 115.15 169.013 115.144 168.874C115.138 168.734 115.282 168.588 115.276 168.449C115.27 168.31 115.239 168.172 115.233 168.033C115.227 167.894 115.238 167.755 115.232 167.616C115.226 167.477 115.291 167.335 115.286 167.197C115.281 167.058 115.254 166.92 115.249 166.781C115.244 166.643 115.071 166.51 115.066 166.371C115.061 166.233 115.221 166.089 115.217 165.95C115.213 165.812 115.003 165.679 114.999 165.541C114.995 165.402 115.037 165.263 115.033 165.124C115.03 164.986 115.103 164.845 115.1 164.707C115.097 164.568 114.988 164.431 114.986 164.292C114.983 164.153 115.138 164.011 115.136 163.872C115.134 163.733 115.19 163.594 115.188 163.455C115.186 163.316 114.968 163.179 114.967 163.04C114.966 162.901 115.101 162.762 115.1 162.622C115.1 162.483 115.087 162.345 115.087 162.205C115.087 162.067 115.137 161.928 115.138 161.788C115.138 161.65 115.171 161.513 115.173 161.374C115.174 161.236 115.184 161.098 115.186 160.959C115.188 160.821 114.986 160.679 114.988 160.54C114.991 160.402 115.041 160.265 115.044 160.125C115.048 159.987 114.921 159.845 114.925 159.706C114.929 159.568 114.926 159.428 114.931 159.289C114.935 159.15 115.017 159.014 115.022 158.874C115.027 158.736 115.033 158.597 115.039 158.457C115.044 158.319 115.101 158.182 115.107 158.042C115.114 157.904 115.219 157.77 115.226 157.63C115.233 157.492 115.134 157.347 115.141 157.207C115.149 157.069 115.371 156.942 115.38 156.802C115.388 156.664 115.146 156.509 115.155 156.369C115.164 156.231 115.137 156.089 115.147 155.949C115.156 155.811 115.211 155.675 115.221 155.536C115.231 155.397 115.275 155.261 115.285 155.121C115.296 154.983 115.395 154.851 115.406 154.711C115.418 154.573 115.495 154.439 115.507 154.299C115.519 154.161 115.416 154.013 115.429 153.873C115.441 153.735 115.391 153.59 115.405 153.45C115.418 153.311 115.449 153.174 115.463 153.034C115.477 152.894 115.478 152.752 115.492 152.611C115.506 152.476 115.402 152.328 115.416 152.189C115.429 152.054 115.646 151.936 115.658 151.797C115.671 151.661 115.489 151.508 115.501 151.369C115.513 151.233 115.527 151.097 115.538 150.958C115.549 150.822 115.594 150.688 115.605 150.55C115.615 150.414 115.88 150.295 115.89 150.157C115.9 150.02 115.702 149.868 115.711 149.73C115.72 149.594 115.91 149.468 115.919 149.329C115.927 149.193 115.799 149.047 115.808 148.908C115.816 148.772 115.772 148.632 115.78 148.493C115.788 148.356 115.922 148.226 115.93 148.087C115.937 147.951 115.986 147.815 115.993 147.677C116 147.54 116.034 147.403 116.04 147.265C116.046 147.128 115.929 146.985 115.935 146.846C115.941 146.709 116.058 146.576 116.064 146.438C116.07 146.301 116.154 146.167 116.159 146.029C116.165 145.893 116.097 145.753 116.102 145.615C116.107 145.479 115.936 145.336 115.94 145.198C115.945 145.061 115.962 144.925 115.966 144.787C115.97 144.65 116.006 144.514 116.009 144.376C116.013 144.239 115.877 144.099 115.88 143.961C115.883 143.824 116.081 143.691 116.084 143.553C116.087 143.416 116.194 143.28 116.196 143.142C116.199 143.005 116.009 142.864 116.011 142.726C116.013 142.589 115.969 142.451 115.97 142.313C115.972 142.176 116.244 142.041 116.245 141.903C116.247 141.766 116.033 141.626 116.034 141.488C116.035 141.351 116.129 141.214 116.129 141.076C116.13 140.938 115.978 140.8 115.978 140.662C115.978 140.525 116.22 140.388 116.22 140.25C116.22 140.113 116.256 139.975 116.255 139.837C116.255 139.7 115.922 139.564 115.921 139.426C115.92 139.288 116.124 139.15 116.123 139.012C116.121 138.874 115.929 138.738 115.928 138.6C115.926 138.463 115.948 138.325 115.946 138.187C115.944 138.049 116.234 137.907 116.232 137.769C116.23 137.632 115.967 137.498 115.964 137.36C115.961 137.222 115.89 137.086 115.887 136.948C115.884 136.81 116.186 136.665 116.183 136.527C116.18 136.389 116.073 136.253 116.07 136.115C116.066 135.977 115.894 135.844 115.89 135.706C115.886 135.568 116.047 135.425 116.043 135.286C116.039 135.148 115.971 135.012 115.966 134.874C115.961 134.736 116.099 134.592 116.093 134.454C116.088 134.316 115.875 134.186 115.869 134.048C115.863 133.91 115.821 133.773 115.815 133.635C115.809 133.497 116.055 133.347 116.048 133.209C116.042 133.071 115.942 132.937 115.935 132.799C115.928 132.66 115.72 132.533 115.712 132.395C115.705 132.256 115.935 132.105 115.927 131.967C115.919 131.829 115.716 131.702 115.708 131.564C115.699 131.426 115.732 131.285 115.724 131.148C115.715 131.009 115.946 130.855 115.936 130.717C115.927 130.579 115.69 130.456 115.68 130.319C115.67 130.18 115.636 130.044 115.625 129.906C115.615 129.768 115.766 129.618 115.755 129.48C115.744 129.342 115.702 129.206 115.69 129.069C115.679 128.93 115.808 128.78 115.796 128.643C115.784 128.504 115.466 128.393 115.454 128.256C115.441 128.118 115.493 127.975 115.479 127.837C115.466 127.699 115.696 127.537 115.682 127.4C115.668 127.262 115.545 127.135 115.53 126.998C115.516 126.86 115.356 126.738 115.341 126.601C115.326 126.463 115.309 126.327 115.293 126.19C115.277 126.052 115.516 125.884 115.5 125.748C115.483 125.61 115.254 125.499 115.237 125.362C115.219 125.225 115.33 125.071 115.311 124.935C115.293 124.797 115.264 124.661 115.245 124.526C115.226 124.388 115.045 124.275 115.025 124.139C115.005 124.002 114.893 123.88 114.872 123.745C114.851 123.607 115.07 123.434 115.048 123.299C115.026 123.162 114.872 123.048 114.849 122.913C114.826 122.776 114.997 122.607 114.973 122.472C114.948 122.336 114.67 122.246 114.645 122.112C114.619 121.975 114.703 121.82 114.677 121.686C114.65 121.549 114.483 121.443 114.455 121.31C114.427 121.173 114.677 120.979 114.647 120.845C114.617 120.709 114.367 120.624 114.336 120.491C114.304 120.355 114.204 120.239 114.171 120.107C114.138 119.972 114.299 119.791 114.264 119.659C114.229 119.524 114.284 119.365 114.247 119.235C114.21 119.1 113.981 119.022 113.942 118.892C113.902 118.758 113.776 118.656 113.734 118.527C113.691 118.394 113.646 118.268 113.602 118.14C113.556 118.008 113.538 117.872 113.491 117.746C113.441 117.615 113.535 117.421 113.484 117.297Z" fill="white"/>
<path d="M127.741 119.395L126.576 131.798L114.067 120.272C111.86 118.239 112.581 114.517 115.44 113.594C115.937 113.433 116.466 113.349 117.024 113.376C120.569 113.546 127.741 119.395 127.741 119.395Z" fill="white" stroke="#003649" stroke-linecap="round" stroke-linejoin="round"/>
<path d="M127.738 119.395L128.903 131.798L141.413 120.272C143.619 118.239 142.898 114.517 140.039 113.594C139.542 113.433 139.013 113.349 138.455 113.376C134.91 113.546 127.738 119.395 127.738 119.395Z" fill="white" stroke="#003649" stroke-linecap="round" stroke-linejoin="round"/>
<path d="M172.73 60.2383L197.702 70.7497" stroke="#003649" stroke-miterlimit="10"/>
<path d="M127.741 136.384C128.282 136.384 128.72 135.947 128.72 135.409C128.72 134.87 128.282 134.434 127.741 134.434C127.2 134.434 126.762 134.87 126.762 135.409C126.762 135.947 127.2 136.384 127.741 136.384Z" fill="#00384A"/>
<path d="M127.741 139.772C128.282 139.772 128.72 139.336 128.72 138.797C128.72 138.259 128.282 137.822 127.741 137.822C127.2 137.822 126.762 138.259 126.762 138.797C126.762 139.336 127.2 139.772 127.741 139.772Z" fill="#00384A"/>
<path d="M127.741 143.161C128.282 143.161 128.72 142.725 128.72 142.186C128.72 141.647 128.282 141.211 127.741 141.211C127.2 141.211 126.762 141.647 126.762 142.186C126.762 142.725 127.2 143.161 127.741 143.161Z" fill="#00384A"/>
<path d="M95.4766 189.825L100.844 148.992" stroke="#003649" stroke-linecap="round" stroke-linejoin="round"/>
<path d="M169.137 35.8182C169.926 34.3107 171.792 33.7255 173.306 34.5112C174.82 35.2968 175.407 37.1558 174.618 38.6633" stroke="#010101" stroke-miterlimit="10"/>
<path d="M187.026 33.4842C188.1 33.4842 188.971 32.6172 188.971 31.5478C188.971 30.4783 188.1 29.6113 187.026 29.6113C185.953 29.6113 185.082 30.4783 185.082 31.5478C185.082 32.6172 185.953 33.4842 187.026 33.4842Z" stroke="#010101" stroke-miterlimit="10"/>
<path d="M193.722 38.3494C194.796 38.3494 195.666 37.4824 195.666 36.413C195.666 35.3435 194.796 34.4766 193.722 34.4766C192.648 34.4766 191.777 35.3435 191.777 36.413C191.777 37.4824 192.648 38.3494 193.722 38.3494Z" stroke="#010101" stroke-miterlimit="10"/>
<path d="M197.726 41.5967C198.643 41.5967 199.386 40.8567 199.386 39.9439C199.386 39.031 198.643 38.291 197.726 38.291C196.809 38.291 196.066 39.031 196.066 39.9439C196.066 40.8567 196.809 41.5967 197.726 41.5967Z" stroke="#010101" stroke-miterlimit="10"/>
<path d="M201.847 44.0244C202.764 44.0244 203.507 43.2844 203.507 42.3716C203.507 41.4588 202.764 40.7188 201.847 40.7188C200.931 40.7188 200.188 41.4588 200.188 42.3716C200.188 43.2844 200.931 44.0244 201.847 44.0244Z" stroke="#010101" stroke-miterlimit="10"/>
<path d="M195.617 36.8822L200.62 24.541" stroke="#010101" stroke-miterlimit="10" stroke-linecap="round"/>
<path d="M199.344 40.3315L204.347 27.9902" stroke="#010101" stroke-miterlimit="10" stroke-linecap="round"/>
<path d="M192.971 20.6815L191.547 29.0808" stroke="#010101" stroke-miterlimit="10" stroke-linecap="round"/>
</g>
<defs>
<linearGradient id="paint0_linear_1730_3" x1="178.122" y1="24.2982" x2="216.341" y2="70.0343" gradientUnits="userSpaceOnUse">
<stop offset="0.33" stop-color="#0176BC" stop-opacity="0"/>
<stop offset="1" stop-color="#0071B9"/>
</linearGradient>
<clipPath id="clip0_1730_3">
<rect width="145" height="178" fill="white" transform="translate(64.375 12)"/>
</clipPath>
</defs>
</svg>
