<svg width="21" height="20" viewBox="0 0 21 20" fill="none" xmlns="http://www.w3.org/2000/svg">
<mask id="mask0_16070_14710" style="mask-type:alpha" maskUnits="userSpaceOnUse" x="0" y="0" width="21" height="20">
<rect x="0.5" width="20" height="20" fill="#D9D9D9"/>
</mask>
<g mask="url(#mask0_16070_14710)">
<path d="M4.25 18.3327C3.91667 18.3327 3.625 18.2077 3.375 17.9577C3.125 17.7077 3 17.416 3 17.0827V4.16602C3 3.83268 3.125 3.54102 3.375 3.29102C3.625 3.04102 3.91667 2.91602 4.25 2.91602H5.60417V1.66602H6.95833V2.91602H14.0417V1.66602H15.3958V2.91602H16.75C17.0833 2.91602 17.375 3.04102 17.625 3.29102C17.875 3.54102 18 3.83268 18 4.16602V17.0827C18 17.416 17.875 17.7077 17.625 17.9577C17.375 18.2077 17.0833 18.3327 16.75 18.3327H4.25ZM4.25 17.0827H16.75V8.12435H4.25V17.0827ZM4.25 6.87435H16.75V4.16602H4.25V6.87435ZM10.5 11.666C10.2639 11.666 10.066 11.5862 9.90625 11.4264C9.74653 11.2667 9.66667 11.0688 9.66667 10.8327C9.66667 10.5966 9.74653 10.3987 9.90625 10.2389C10.066 10.0792 10.2639 9.99935 10.5 9.99935C10.7361 9.99935 10.934 10.0792 11.0938 10.2389C11.2535 10.3987 11.3333 10.5966 11.3333 10.8327C11.3333 11.0688 11.2535 11.2667 11.0938 11.4264C10.934 11.5862 10.7361 11.666 10.5 11.666ZM7.16667 11.666C6.93056 11.666 6.73264 11.5862 6.57292 11.4264C6.41319 11.2667 6.33333 11.0688 6.33333 10.8327C6.33333 10.5966 6.41319 10.3987 6.57292 10.2389C6.73264 10.0792 6.93056 9.99935 7.16667 9.99935C7.40278 9.99935 7.60069 10.0792 7.76042 10.2389C7.92014 10.3987 8 10.5966 8 10.8327C8 11.0688 7.92014 11.2667 7.76042 11.4264C7.60069 11.5862 7.40278 11.666 7.16667 11.666ZM13.8333 11.666C13.5972 11.666 13.3993 11.5862 13.2396 11.4264C13.0799 11.2667 13 11.0688 13 10.8327C13 10.5966 13.0799 10.3987 13.2396 10.2389C13.3993 10.0792 13.5972 9.99935 13.8333 9.99935C14.0694 9.99935 14.2674 10.0792 14.4271 10.2389C14.5868 10.3987 14.6667 10.5966 14.6667 10.8327C14.6667 11.0688 14.5868 11.2667 14.4271 11.4264C14.2674 11.5862 14.0694 11.666 13.8333 11.666ZM10.5 14.9993C10.2639 14.9993 10.066 14.9195 9.90625 14.7598C9.74653 14.6 9.66667 14.4021 9.66667 14.166C9.66667 13.9299 9.74653 13.732 9.90625 13.5723C10.066 13.4125 10.2639 13.3327 10.5 13.3327C10.7361 13.3327 10.934 13.4125 11.0938 13.5723C11.2535 13.732 11.3333 13.9299 11.3333 14.166C11.3333 14.4021 11.2535 14.6 11.0938 14.7598C10.934 14.9195 10.7361 14.9993 10.5 14.9993ZM7.16667 14.9993C6.93056 14.9993 6.73264 14.9195 6.57292 14.7598C6.41319 14.6 6.33333 14.4021 6.33333 14.166C6.33333 13.9299 6.41319 13.732 6.57292 13.5723C6.73264 13.4125 6.93056 13.3327 7.16667 13.3327C7.40278 13.3327 7.60069 13.4125 7.76042 13.5723C7.92014 13.732 8 13.9299 8 14.166C8 14.4021 7.92014 14.6 7.76042 14.7598C7.60069 14.9195 7.40278 14.9993 7.16667 14.9993ZM13.8333 14.9993C13.5972 14.9993 13.3993 14.9195 13.2396 14.7598C13.0799 14.6 13 14.4021 13 14.166C13 13.9299 13.0799 13.732 13.2396 13.5723C13.3993 13.4125 13.5972 13.3327 13.8333 13.3327C14.0694 13.3327 14.2674 13.4125 14.4271 13.5723C14.5868 13.732 14.6667 13.9299 14.6667 14.166C14.6667 14.4021 14.5868 14.6 14.4271 14.7598C14.2674 14.9195 14.0694 14.9993 13.8333 14.9993Z" fill="#EFEFEF"/>
</g>
</svg>
