<svg width="133" height="124" viewBox="0 0 133 124" fill="none" xmlns="http://www.w3.org/2000/svg">
<g clip-path="url(#clip0_16011_10957)">
<path d="M116.07 87.75H51.7969V118.147H116.07V87.75Z" fill="#F7C400"/>
<path d="M59.9492 95.8535V115.713" stroke="#003649" stroke-linecap="round" stroke-linejoin="round"/>
<path d="M63.8672 95.8535V115.713" stroke="#003649" stroke-linecap="round" stroke-linejoin="round"/>
<path d="M67.7852 95.8535V115.713" stroke="#003649" stroke-linecap="round" stroke-linejoin="round"/>
<path d="M71.6641 95.8535V115.713" stroke="#003649" stroke-linecap="round" stroke-linejoin="round"/>
<path d="M75.582 95.8535V115.713" stroke="#003649" stroke-linecap="round" stroke-linejoin="round"/>
<path d="M79.5 95.8535V115.713" stroke="#003649" stroke-linecap="round" stroke-linejoin="round"/>
<path d="M83.418 95.8535V115.713" stroke="#003649" stroke-linecap="round" stroke-linejoin="round"/>
<path d="M87.25 95.8535V115.713" stroke="#003649" stroke-linecap="round" stroke-linejoin="round"/>
<path d="M91.168 95.8535V115.713" stroke="#003649" stroke-linecap="round" stroke-linejoin="round"/>
<path d="M95.0859 95.8535V115.713" stroke="#003649" stroke-linecap="round" stroke-linejoin="round"/>
<path d="M99.0039 95.8535V115.713" stroke="#003649" stroke-linecap="round" stroke-linejoin="round"/>
<path d="M102.922 95.8535V115.713" stroke="#003649" stroke-linecap="round" stroke-linejoin="round"/>
<path d="M106.84 95.8535V115.713" stroke="#003649" stroke-linecap="round" stroke-linejoin="round"/>
<path d="M110.757 115.713V95.8535H56.0273V115.713" stroke="#003649" stroke-linecap="round" stroke-linejoin="round"/>
<path d="M110.757 98.7148H56.0273" stroke="#003649" stroke-linecap="round" stroke-linejoin="round"/>
<path d="M110.784 101.641H56.0547" stroke="#003649" stroke-linecap="round" stroke-linejoin="round"/>
<path d="M110.816 107.49H56.0859" stroke="#003649" stroke-linecap="round" stroke-linejoin="round"/>
<path d="M110.562 110.416H56.2148" stroke="#003649" stroke-linecap="round" stroke-linejoin="round"/>
<path d="M88.8428 89.041H77.5491C76.4627 89.041 75.582 89.9197 75.582 91.0036V93.0014C75.582 94.0853 76.4627 94.964 77.5491 94.964H88.8428C89.9292 94.964 90.8098 94.0853 90.8098 93.0014V91.0036C90.8098 89.9197 89.9292 89.041 88.8428 89.041Z" stroke="#003649" stroke-linecap="round" stroke-linejoin="round"/>
<path d="M51.7959 124.001L45.0137 109.14C44.0371 107 45.605 104.568 47.9618 104.568H115.136C117.109 104.568 118.623 106.313 118.342 108.261L116.069 124.001H51.7959Z" fill="#E40524"/>
<path d="M57.3516 71.5566L38.2812 76.4829C38.2812 76.4829 39.1975 83.7312 48.9194 89.3889C58.6413 95.0467 61.9119 96.9973 64.9751 101.307C68.0383 105.617 70.9899 104.793 71.6386 103.67C73.1845 103.726 74.0971 102.703 74.1607 101.63C74.1607 101.63 75.9721 101.737 76.0592 100.268C76.1462 98.8 76.8534 101.914 79.0304 103.397C81.4555 105.049 83.5399 103.489 81.5145 99.4748C80.673 97.8072 77.3646 93.8954 75.9988 91.7286C75.6743 91.2138 76.1706 90.5699 76.7497 90.7595C78.1899 91.231 80.1753 91.6584 81.4364 91.0075C83.6045 89.8885 81.4969 88.765 78.687 87.5581C76.2413 86.5075 64.2712 83.6827 57.3516 71.5566Z" fill="#F39353"/>
<path d="M57.8562 1.32577C57.8562 1.32577 49.9707 20.1742 48.8774 34.9637C48.5101 39.9328 46.978 44.7336 44.374 48.9852C38.545 58.5022 35.7438 71.0721 37.1247 76.7791L57.3491 71.5546L78.2924 53.7877L94.1006 56.3421L101.09 66.3213L132.018 55.5072C132.018 55.5072 128.787 48.0219 121.639 43.9475C117.82 41.7701 115.678 37.5278 116.37 33.1931C118.116 22.2506 123.867 10.1367 123.867 10.1367C123.867 10.1367 85.5628 -3.76461 57.8562 1.32577Z" fill="#F7C400"/>
<path d="M123.899 10.2135C124.153 10.1093 123.962 9.97237 124.122 9.65085C124.19 9.5138 124.377 9.39991 124.469 9.2085C124.542 9.0592 124.447 8.81082 124.532 8.62975C124.605 8.47513 124.587 8.26576 124.669 8.08876C124.742 7.93156 125.01 7.85394 125.09 7.67963C125.162 7.52021 125.117 7.30023 125.194 7.1269C125.266 6.96577 125.282 6.77392 125.357 6.60108C125.428 6.43856 125.697 6.35579 125.771 6.18319C125.842 6.01951 125.901 5.84568 125.974 5.67316C126.044 5.50848 125.96 5.27544 126.032 5.1029C126.101 4.93733 126.428 4.87402 126.499 4.70139C126.567 4.53503 126.617 4.35703 126.687 4.18427C126.754 4.0172 126.813 3.84256 126.881 3.66964C126.948 3.50191 126.765 3.2338 126.832 3.06068C126.898 2.89234 127.005 2.73804 127.071 2.56474C127.136 2.39582 127.131 2.19879 127.196 2.02526C127.26 1.8558 127.389 1.70904 127.453 1.53528C127.516 1.36531 127.584 1.19563 127.647 1.02164C127.709 0.851181 127.809 0.692978 127.872 0.518745C127.933 0.347816 128.106 0.214752 128.168 0.0402679C128.228 -0.131111 128.112 -0.365158 128.172 -0.539886C128.231 -0.7117 128.443 -0.832985 128.502 -1.00797C128.56 -1.18021 128.461 -1.40619 128.52 -1.58143C128.577 -1.75408 128.719 -1.89989 128.776 -2.07538C128.833 -2.24843 128.76 -2.46363 128.816 -2.63938C128.872 -2.81283 129.112 -2.92879 129.167 -3.1048C129.221 -3.27794 129.118 -3.50039 129.172 -3.67595C129.225 -3.84952 129.296 -4.01823 129.349 -4.19411C129.401 -4.3681 129.408 -4.55554 129.46 -4.73174C129.511 -4.90614 129.697 -5.04195 129.748 -5.21847C129.798 -5.39327 129.964 -5.53633 130.014 -5.71315C130.063 -5.88835 130.119 -6.06326 130.167 -6.24039C130.216 -6.41597 130.267 -6.59222 130.314 -6.76965C130.361 -6.94561 130.148 -7.19096 130.194 -7.36869C130.24 -7.54501 130.339 -7.7075 130.385 -7.88552C130.43 -8.0622 130.6 -8.20782 130.645 -8.38612C130.689 -8.56316 130.694 -8.75016 130.737 -8.92875C130.78 -9.10614 130.923 -9.26059 130.965 -9.43946C131.007 -9.61719 131.16 -9.77075 131.201 -9.94989C131.241 -10.1279 131.088 -10.3505 131.128 -10.5299C131.167 -10.7083 131.326 -10.8617 131.365 -11.0414C131.403 -11.22 131.414 -11.4056 131.451 -11.5855C131.488 -11.7645 131.53 -11.9436 131.566 -12.1238C131.602 -12.3031 131.579 -12.4948 131.614 -12.6752C131.649 -12.8548 131.577 -13.0546 131.611 -13.2353C131.644 -13.4152 131.75 -13.5821 131.782 -13.763C131.814 -13.9431 131.693 -14.1495 131.724 -14.3307C131.755 -14.5111 132.114 -14.6376 132.143 -14.819C132.173 -14.9996 132.014 -15.211 132.042 -15.3926C132.07 -15.5735 131.963 -15.7745 131.99 -15.9563C132.017 -16.1374 132.082 -16.3124 132.108 -16.4943C132.133 -16.6757 132.428 -16.8213 132.452 -17.0035C132.476 -17.1851 132.316 -17.3909 132.338 -17.5733C132.361 -17.7551 132.297 -17.9469 132.318 -18.1294C132.339 -18.3114 132.456 -18.4827 132.475 -18.6654C132.495 -18.8476 132.365 -19.0446 132.383 -19.2274C132.401 -19.4095 132.529 -19.5808 132.545 -19.7635C132.561 -19.9459 132.677 -20.1201 132.692 -20.303C132.706 -20.4855 132.783 -20.6642 132.797 -20.8472C132.81 -21.0299 132.857 -21.2117 132.869 -21.3948C132.88 -21.5777 132.775 -21.7684 132.785 -21.9517C132.795 -22.1346 132.941 -22.3119 132.95 -22.4953C132.958 -22.6784 132.816 -22.8686 132.823 -23.0521C132.829 -23.2353 132.867 -23.418 132.872 -23.6015C132.877 -23.7848 132.757 -23.9708 132.76 -24.1544C132.764 -24.3377 132.981 -24.5189 132.982 -24.7025C132.984 -24.8859 132.729 -25.0702 132.728 -25.2538C132.728 -25.4372 132.785 -25.6203 132.782 -25.8039C132.78 -25.9873 133.003 -26.1754 132.999 -26.359C132.995 -26.5424 132.853 -26.7231 132.846 -26.9067C132.84 -27.09 132.881 -27.2759 132.873 -27.4594C132.865 -27.6426 132.811 -27.8244 132.801 -28.0078C132.791 -28.191 132.737 -28.3718 132.725 -28.5551C132.713 -28.7382 132.774 -28.9269 132.76 -29.11C132.746 -29.293 132.818 -29.4843 132.801 -29.6673C132.785 -29.8501 132.617 -30.0197 132.599 -30.2024C132.581 -30.385 132.437 -30.5539 132.417 -30.7364C132.396 -30.9188 132.305 -31.0911 132.283 -31.2734C132.26 -31.4555 132.511 -31.6722 132.486 -31.8542C132.462 -32.036 132.275 -32.195 132.248 -32.3766C132.221 -32.5582 132.125 -32.7278 132.096 -32.9091C132.067 -33.0903 132.056 -33.2729 132.025 -33.4538C131.994 -33.6346 132.157 -33.8503 132.124 -34.0309C132.09 -34.2113 131.944 -34.3702 131.907 -34.5503C131.871 -34.7302 131.928 -34.9297 131.89 -35.1093C131.851 -35.2887 131.888 -35.4861 131.847 -35.6651C131.807 -35.844 131.612 -35.9878 131.569 -36.1663C131.525 -36.3446 131.477 -36.5214 131.431 -36.6993C131.385 -36.8771 131.338 -37.0541 131.289 -37.2314C131.241 -37.4084 131.256 -37.6033 131.205 -37.7798C131.154 -37.9562 131.108 -38.1347 131.054 -38.3106C131.001 -38.4862 130.865 -38.6363 130.809 -38.8114C130.752 -38.9882 130.579 -39.1259 130.522 -39.3007C130.464 -39.4771 130.555 -39.7008 130.497 -39.8752C130.438 -40.0512 130.212 -40.1694 130.153 -40.3434C130.093 -40.519 130.378 -40.8122 130.318 -40.9858C130.257 -41.1609 129.843 -41.2112 129.781 -41.3843C129.719 -41.5589 129.703 -41.7484 129.64 -41.921C129.577 -42.0952 129.592 -42.2968 129.528 -42.4689C129.463 -42.6426 129.48 -42.846 129.415 -43.0176C129.349 -43.1908 129.3 -43.3701 129.233 -43.5411C129.166 -43.7138 129.076 -43.8769 129.008 -44.0474C128.939 -44.2195 128.8 -44.3622 128.73 -44.5321C128.66 -44.7037 128.796 -44.9596 128.725 -45.1289C128.653 -45.2998 128.418 -45.4014 128.345 -45.57C128.273 -45.7404 128.168 -45.8959 128.094 -46.0639C128.02 -46.2337 128.098 -46.47 128.023 -46.6373C127.947 -46.8063 127.894 -46.986 127.818 -47.1526C127.74 -47.321 127.457 -47.3932 127.379 -47.5591C127.3 -47.7267 127.345 -47.952 127.265 -48.1171C127.185 -48.284 126.893 -48.3465 126.812 -48.5108C126.73 -48.6769 126.658 -48.8452 126.576 -49.0087C126.492 -49.1739 126.633 -49.4522 126.549 -49.6148C126.464 -49.7792 126.148 -49.8215 126.062 -49.9831C125.975 -50.1466 125.999 -50.3671 125.911 -50.5278C125.823 -50.6904 125.705 -50.8348 125.615 -50.9946C125.525 -51.1562 125.583 -51.4004 125.492 -51.5591C125.4 -51.7197 125.287 -51.868 125.194 -52.0257C125.1 -52.1852 124.968 -52.3213 124.873 -52.4778C124.778 -52.6362 124.602 -52.7443 124.506 -52.8997C124.408 -53.0569 124.297 -53.2036 124.199 -53.3578C124.1 -53.5138 123.957 -53.6395 123.857 -53.7924C123.756 -53.9471 123.656 -54.0998 123.554 -54.2514C123.451 -54.4048 123.509 -54.6662 123.405 -54.8164C123.3 -54.9684 123.105 -55.0566 122.999 -55.2054C122.891 -55.3561 122.715 -55.4541 122.606 -55.6015C122.497 -55.7506 122.638 -56.0844 122.527 -56.2302C122.416 -56.3779 122.091 -56.3622 121.979 -56.5064C121.865 -56.6524 121.719 -56.77 121.605 -56.9126C121.489 -57.0569 121.418 -57.2348 121.302 -57.3756C121.184 -57.5182 121.239 -57.8057 121.12 -57.9447C121 -58.0854 120.808 -58.1649 120.687 -58.3019C120.564 -58.4407 120.248 -58.4032 120.124 -58.5382C119.999 -58.6749 120.001 -58.9245 119.875 -59.0574C119.748 -59.192 119.742 -59.4428 119.614 -59.5735C119.485 -59.7058 119.23 -59.7141 119.1 -59.8425C118.968 -59.9726 118.773 -60.0349 118.64 -60.1611C118.506 -60.2887 118.57 -60.6276 118.435 -60.7511C118.298 -60.8763 117.99 -60.8102 117.852 -60.9311C117.713 -61.0536 117.626 -61.233 117.486 -61.3511C117.345 -61.4707 117.233 -61.6249 117.091 -61.7402C116.947 -61.8569 116.837 -62.0162 116.693 -62.1285C116.547 -62.2422 116.424 -62.3885 116.277 -62.4977C116.128 -62.6082 115.859 -62.5528 115.71 -62.6588C115.559 -62.766 115.447 -62.9253 115.295 -63.0279C115.142 -63.1318 114.918 -63.1253 114.765 -63.2245C114.609 -63.325 114.481 -63.4618 114.325 -63.5575C114.167 -63.6543 114.028 -63.7772 113.87 -63.8693C113.71 -63.9624 113.635 -64.2058 113.475 -64.2941C113.313 -64.3833 113.029 -64.2442 112.866 -64.3286C112.702 -64.4138 112.551 -64.5157 112.386 -64.596C112.22 -64.6771 112.124 -64.9038 111.958 -64.98C111.789 -65.0569 111.617 -65.1256 111.448 -65.1975C111.278 -65.27 111.118 -65.3687 110.948 -65.4363C110.776 -65.5044 110.553 -65.4402 110.381 -65.5032C110.208 -65.5668 110.014 -65.5648 109.84 -65.6232C109.665 -65.6822 109.529 -65.8536 109.354 -65.9074C109.177 -65.9616 108.985 -65.956 108.808 -66.0051C108.63 -66.0545 108.433 -66.0167 108.255 -66.061C108.075 -66.1055 107.894 -66.1174 107.714 -66.1568C107.534 -66.1964 107.412 -66.5128 107.232 -66.5472C107.051 -66.5819 106.86 -66.5763 106.679 -66.6057C106.497 -66.6353 106.306 -66.6124 106.124 -66.6369C105.941 -66.6615 105.76 -66.7029 105.578 -66.7223C105.394 -66.7418 105.212 -66.7847 105.029 -66.799C104.845 -66.8134 104.651 -66.6672 104.468 -66.6765C104.284 -66.6858 104.101 -66.612 103.917 -66.6162C103.733 -66.6204 103.552 -66.9432 103.369 -66.9423C103.184 -66.9415 103 -66.8197 102.816 -66.8138C102.632 -66.808 102.458 -66.6293 102.274 -66.6184C102.091 -66.6075 101.903 -66.6826 101.72 -66.6667C101.537 -66.6509 101.35 -66.6761 101.168 -66.6554C100.985 -66.6346 100.821 -66.4798 100.645 -66.459C100.461 -66.4375 100.254 -66.6525 100.077 -66.6311C99.8941 -66.6087 99.7123 -66.6009 99.5365 -66.5787C99.353 -66.5555 99.2104 -66.2486 99.035 -66.2255C98.8513 -66.2014 98.6655 -66.2313 98.4905 -66.2073C98.3067 -66.1821 98.1058 -66.3138 97.9313 -66.2888C97.7474 -66.2625 97.5608 -66.2859 97.3869 -66.2598C97.203 -66.2322 97.0173 -66.2458 96.8443 -66.2185C96.6602 -66.1894 96.5274 -65.8844 96.3553 -65.8557C96.1706 -65.8249 95.9372 -66.1148 95.7658 -66.0845C95.5806 -66.0517 95.4247 -65.8938 95.2544 -65.8616C95.0687 -65.8265 94.9177 -65.661 94.749 -65.6266C94.5626 -65.5887 94.3462 -65.7382 94.1795 -65.7013C93.9918 -65.6598 93.8429 -65.5 93.6787 -65.4599C93.4891 -65.4136 93.311 -65.3827 93.1505 -65.3385C92.9589 -65.2857 92.742 -65.3731 92.588 -65.3235C92.3908 -65.2601 92.2666 -65.0624 92.1234 -65.0049C91.9106 -64.9194 91.7278 -64.8804 91.6111 -64.81C91.2061 -64.5655 91.1728 -64.2583 91.1728 -64.2583C91.0047 -64.4751 91.2721 -64.591 91.0325 -64.8517C90.9287 -64.9647 90.7126 -65.0142 90.5636 -65.1635C90.446 -65.2812 90.2554 -65.3446 90.1096 -65.4805C89.9843 -65.5975 89.8699 -65.7389 89.7237 -65.8667C89.5925 -65.9813 89.5885 -66.2599 89.4405 -66.3814C89.3044 -66.4931 89.0623 -66.4858 88.9121 -66.6019C88.7718 -66.7103 88.602 -66.7867 88.4493 -66.8978C88.3052 -67.0027 88.2013 -67.171 88.0461 -67.2773C87.8985 -67.3784 87.6791 -67.3769 87.5215 -67.4785C87.3707 -67.5757 87.2312 -67.6924 87.0712 -67.7893C86.9175 -67.8825 86.8026 -68.0453 86.6404 -68.1375C86.4838 -68.2266 86.3378 -68.3412 86.1734 -68.4289C86.0142 -68.5137 85.853 -68.602 85.6865 -68.685C85.5248 -68.7656 85.4282 -68.993 85.2596 -69.0714C85.0957 -69.1476 84.8267 -69.0008 84.6562 -69.0746C84.4902 -69.1464 84.3144 -69.196 84.142 -69.265C83.974 -69.3324 83.787 -69.3489 83.613 -69.4132C83.4431 -69.476 83.2698 -69.5244 83.0942 -69.584C82.9226 -69.6423 82.7565 -69.7121 82.5794 -69.767C82.4063 -69.8207 82.2548 -69.9456 82.0764 -69.9958C81.9018 -70.0449 81.7237 -70.0825 81.5441 -70.1279C81.3683 -70.1724 81.2324 -70.3942 81.0517 -70.4349C80.8747 -70.4749 80.7006 -70.5547 80.5189 -70.5908C80.3409 -70.6261 80.1491 -70.6166 79.9666 -70.648C79.7877 -70.6788 79.6142 -70.779 79.431 -70.8058C79.2514 -70.832 79.0454 -70.6957 78.8617 -70.7179C78.6814 -70.7397 78.4862 -70.6324 78.302 -70.6501C78.1212 -70.6675 77.9402 -70.6713 77.7556 -70.6845C77.5744 -70.6975 77.3933 -70.6921 77.2084 -70.7009C77.027 -70.7095 76.8505 -70.8672 76.6654 -70.8716C76.4838 -70.876 76.3 -70.9715 76.115 -70.9717C75.9332 -70.9719 75.7457 -71.039 75.5607 -71.035C75.3793 -71.0311 75.1956 -70.949 75.0111 -70.941C74.8298 -70.933 74.6595 -70.6961 74.4751 -70.684C74.2939 -70.6721 74.1039 -70.7707 73.9197 -70.7547C73.7387 -70.7389 73.5616 -70.6735 73.3777 -70.6536C73.1969 -70.6341 73.0251 -70.542 72.8416 -70.5184C72.6611 -70.4952 72.4365 -70.7741 72.2534 -70.7468C72.0734 -70.72 71.9503 -70.327 71.7677 -70.2962C71.5882 -70.2659 71.3631 -70.4871 71.181 -70.4528C71.0021 -70.4191 70.8685 -70.1537 70.6872 -70.116C70.5089 -70.079 70.3104 -70.1375 70.1298 -70.0965C69.9523 -70.0563 69.7929 -69.941 69.6131 -69.8969C69.4363 -69.8536 69.2179 -69.971 69.039 -69.9239C68.8629 -69.8775 68.6602 -69.9185 68.4821 -69.8683C68.3069 -69.819 68.1795 -69.5983 68.0023 -69.5453C67.8282 -69.4932 67.6475 -69.4602 67.4714 -69.4045C67.298 -69.3496 67.0976 -69.3723 66.9223 -69.3138C66.7495 -69.2562 66.5855 -69.1671 66.4109 -69.106C66.2388 -69.0457 66.1081 -68.8682 65.9343 -68.8045C65.7631 -68.7416 65.5755 -68.7218 65.4025 -68.6555C65.2323 -68.5903 65.0897 -68.4545 64.9178 -68.3859C64.7489 -68.3185 64.4616 -68.5361 64.2911 -68.4653C64.1227 -68.3954 64.0527 -68.0887 63.8827 -68.0155C63.7149 -67.9432 63.5736 -67.8111 63.4043 -67.7356C63.2379 -67.6614 62.9903 -67.7641 62.8225 -67.6868C62.6562 -67.6102 62.5002 -67.5076 62.3325 -67.4278C62.1671 -67.3491 62.0196 -67.2308 61.8528 -67.149C61.6886 -67.0685 61.499 -67.0388 61.3355 -66.957C61.1719 -66.8752 61.0417 -66.7276 60.8788 -66.6446C60.7158 -66.5615 60.4719 -66.6345 60.3096 -66.5503C60.1472 -66.466 59.9803 -66.3882 59.8186 -66.3028C59.6569 -66.2174 59.5003 -66.1201 59.3393 -66.0335C59.1782 -65.9469 59.1226 -65.666 58.9622 -65.5784C58.8017 -65.4906 58.5898 -65.4962 58.43 -65.4075C58.27 -65.3186 58.0605 -65.3169 57.9014 -65.227C57.742 -65.1371 57.5598 -65.0853 57.4013 -64.9943C57.2426 -64.9033 57.1689 -64.6648 57.011 -64.5728C56.8528 -64.4807 56.7861 -64.235 56.6288 -64.1419C56.4713 -64.0487 56.265 -64.0389 56.1083 -63.9448C55.9514 -63.8506 55.8353 -63.6909 55.6792 -63.5959C55.5229 -63.5007 55.2033 -63.6707 55.0478 -63.5747C54.8921 -63.4785 54.8544 -63.1932 54.6996 -63.0962C54.5444 -62.999 54.3343 -62.989 54.18 -62.8911C54.0255 -62.7929 53.9758 -62.5325 53.8222 -62.4336C53.6682 -62.3345 53.4095 -62.3973 53.2565 -62.2975C53.1031 -62.1975 52.8913 -62.1855 52.7389 -62.0848C52.5861 -61.9839 52.5008 -61.7813 52.349 -61.6797C52.1968 -61.5779 52.146 -61.3272 51.9948 -61.2247C51.8432 -61.122 51.5007 -61.2985 51.35 -61.1952C51.199 -61.0916 51.2339 -60.72 51.0838 -60.6159C50.9333 -60.5114 50.8 -60.3846 50.6505 -60.2797C50.5006 -60.1744 50.2678 -60.1874 50.119 -60.0817C49.9697 -59.9756 49.8114 -59.8827 49.6631 -59.7761C49.5144 -59.6692 49.3957 -59.5217 49.248 -59.4144C49.0998 -59.3067 49.0264 -59.0989 48.8793 -58.9908C48.7317 -58.8823 48.3866 -59.0406 48.2401 -58.9317C48.0931 -58.8225 47.9507 -58.7062 47.8048 -58.5967C47.6583 -58.4867 47.536 -58.3444 47.3906 -58.2341C47.2447 -58.1233 47.1565 -57.9374 47.0117 -57.8264C46.8663 -57.7148 46.6324 -57.7177 46.4882 -57.606C46.3433 -57.4937 46.3028 -57.2484 46.1592 -57.136C46.0149 -57.023 45.8889 -56.8879 45.7458 -56.7748C45.6021 -56.6611 45.3359 -56.7011 45.1934 -56.5874C45.0497 -56.4726 45.104 -56.1131 44.9617 -55.9983C44.8185 -55.8828 44.6944 -55.7462 44.5526 -55.6307C44.41 -55.5146 44.153 -55.5392 44.0118 -55.423C43.8698 -55.3062 43.6738 -55.255 43.5332 -55.1382C43.3916 -55.0207 43.2468 -54.9076 43.1068 -54.7902C42.9658 -54.672 42.8177 -54.5626 42.6782 -54.4447C42.5377 -54.3259 42.5163 -54.0686 42.3774 -53.9501C42.2374 -53.8306 42.0713 -53.7432 41.9329 -53.624C41.7935 -53.5039 41.6289 -53.4141 41.4911 -53.2943C41.3523 -53.1736 41.2471 -53.0159 41.1099 -52.8956C40.9716 -52.7742 40.7446 -52.7542 40.608 -52.6333C40.4702 -52.5114 40.4041 -52.3102 40.2681 -52.1887C40.1308 -52.0662 40.0967 -51.8311 39.9612 -51.7091C39.8245 -51.586 39.6643 -51.491 39.5294 -51.3685C39.3932 -51.2448 39.0743 -51.3218 38.94 -51.1987C38.8044 -51.0744 38.8817 -50.7213 38.748 -50.5977C38.6129 -50.4728 38.2889 -50.5522 38.1559 -50.4281C38.0212 -50.3026 37.9949 -50.0635 37.8624 -49.939C37.7283 -49.8129 37.4863 -49.8021 37.3545 -49.677C37.2209 -49.5504 37.0897 -49.4224 36.9585 -49.2969C36.8254 -49.1697 36.7883 -48.9448 36.6577 -48.8188C36.5252 -48.691 36.4908 -48.465 36.3608 -48.3385C36.2288 -48.2102 35.9577 -48.2262 35.8283 -48.0993C35.6969 -47.9705 35.5692 -47.8398 35.4404 -47.7125C35.3095 -47.5831 35.1256 -47.5087 34.9975 -47.381C34.8671 -47.251 34.9182 -46.943 34.7907 -46.8148C34.6608 -46.6843 34.4712 -46.6158 34.3444 -46.4872C34.2151 -46.3561 34.0597 -46.2534 33.9335 -46.1245C33.8047 -45.9929 33.7546 -45.7882 33.6292 -45.659C33.5008 -45.5267 33.1395 -45.6212 33.0147 -45.4915C32.8866 -45.3585 32.8964 -45.0967 32.7722 -44.9665C32.6446 -44.8328 32.6546 -44.5728 32.531 -44.4422C32.4038 -44.3077 32.0326 -44.4058 31.9097 -44.2748C31.7829 -44.1396 31.8966 -43.7849 31.7744 -43.6536C31.648 -43.5176 31.2967 -43.5934 31.1754 -43.4617C31.0494 -43.325 30.9617 -43.1575 30.8413 -43.0256C30.7157 -42.8881 30.6253 -42.7238 30.5059 -42.5918C30.3807 -42.4534 30.3063 -42.2755 30.188 -42.1435C30.0628 -42.0038 30.0215 -41.7973 29.9041 -41.6651C29.7788 -41.5239 29.6113 -41.4287 29.495 -41.2963C29.3696 -41.1535 29.2532 -41.0132 29.1385 -40.8812C29.013 -40.7369 28.9817 -40.5246 28.8692 -40.3937C28.7429 -40.2467 28.364 -40.3302 28.2543 -40.2009C28.126 -40.0498 28.0503 -39.8754 27.9451 -39.7497C27.8098 -39.588 27.8263 -39.3384 27.7302 -39.2215C27.5045 -38.947 27.0568 -39.0175 27.1705 -38.7713C27.2861 -38.521 27.5955 -38.7121 27.7815 -38.5085C27.9676 -38.3049 27.9697 -38.3067 28.1558 -38.1031C28.3419 -37.8994 28.1373 -37.7134 28.3234 -37.5097C28.5096 -37.306 28.6219 -37.4081 28.8081 -37.2044C28.9944 -37.0006 29.0788 -37.0774 29.2651 -36.8736C29.4515 -36.6697 29.5134 -36.726 29.6998 -36.5221C29.8863 -36.318 29.6383 -36.0924 29.8248 -35.8883C30.0113 -35.6842 30.0287 -35.7001 30.2152 -35.496C30.4016 -35.2921 30.6053 -35.4774 30.7916 -35.2734C30.9779 -35.0696 30.8683 -34.9698 31.0546 -34.766C31.2408 -34.5622 31.2612 -34.5807 31.4474 -34.3769C31.6336 -34.1732 31.5602 -34.1064 31.7464 -33.9026C31.9326 -33.6988 31.8796 -33.6505 32.0658 -33.4468C32.2521 -33.2429 32.3952 -33.3732 32.5815 -33.1693C32.7678 -32.9654 32.8622 -33.0513 33.0485 -32.8474C33.235 -32.6434 32.9689 -32.4013 33.1553 -32.1973C33.3419 -31.9931 33.4863 -32.1244 33.6729 -31.9202C33.8593 -31.7162 33.7809 -31.6448 33.9674 -31.4407C34.1538 -31.2368 34.0927 -31.1812 34.279 -30.9772C34.4645 -30.7742 34.6978 -30.9864 34.8833 -30.7835C35.069 -30.5803 34.8347 -30.3672 35.0204 -30.164C35.2063 -29.9606 35.3678 -30.1075 35.5537 -29.9041C35.7399 -29.7004 35.8093 -29.7635 35.9955 -29.5598C36.182 -29.3557 36.1465 -29.3235 36.333 -29.1194C36.5195 -28.9152 36.4658 -28.8663 36.6524 -28.6622C36.8387 -28.4583 36.8851 -28.5006 37.0714 -28.2967C37.2575 -28.0931 37.0833 -27.9346 37.2694 -27.731C37.4554 -27.5275 37.514 -27.5808 37.6999 -27.3774C37.8858 -27.174 37.9214 -27.2064 38.1072 -27.003C38.2931 -26.7997 38.4197 -26.9149 38.6056 -26.7115C38.7915 -26.5081 38.8202 -26.5343 39.0061 -26.3308C39.1921 -26.1273 39.1227 -26.0641 39.3087 -25.8606C39.495 -25.6568 39.5582 -25.7143 39.7444 -25.5105C39.931 -25.3064 39.7373 -25.1301 39.9238 -24.926C40.1107 -24.7215 40.1927 -24.7961 40.3796 -24.5916C40.5661 -24.3875 40.6174 -24.4342 40.804 -24.23C40.9904 -24.0261 40.9562 -23.995 41.1426 -23.7911C41.3288 -23.5873 41.3807 -23.6345 41.567 -23.4307C41.7532 -23.2268 41.7059 -23.1837 41.8922 -22.9799C42.0786 -22.7759 42.1016 -22.7969 42.2881 -22.5929C42.4748 -22.3885 42.5428 -22.4504 42.7295 -22.2461C42.9164 -22.0415 42.7478 -21.8881 42.9347 -21.6836C43.1213 -21.4793 43.0425 -21.4076 43.2291 -21.2034C43.4156 -20.9993 43.401 -20.986 43.5875 -20.7819C43.7741 -20.5777 44.0084 -20.7908 44.195 -20.5866C44.3819 -20.3821 44.3495 -20.3526 44.5364 -20.148C44.7233 -19.9435 44.7698 -19.9858 44.9567 -19.7813C45.1434 -19.577 44.9435 -19.3952 45.1303 -19.1909C45.3171 -18.9864 45.5211 -19.1721 45.708 -18.9676C45.895 -18.7629 45.6979 -18.5836 45.885 -18.3789C46.0713 -18.175 46.2305 -18.3199 46.4168 -18.116C46.6029 -17.9124 46.4017 -17.7294 46.5878 -17.5257C46.7742 -17.3218 46.9987 -17.5261 47.1851 -17.3221C47.3723 -17.1172 47.1652 -16.9288 47.3524 -16.7239C47.5392 -16.5195 47.6041 -16.5785 47.7909 -16.3741C47.9777 -16.1697 48.0645 -16.2486 48.2513 -16.0442C48.4388 -15.8391 48.4053 -15.8087 48.5928 -15.6035C48.7799 -15.3988 48.7318 -15.355 48.9189 -15.1502C49.1063 -14.9452 49.0278 -14.8738 49.2151 -14.6687C49.4017 -14.4645 49.6096 -14.6537 49.7962 -14.4495C49.9838 -14.2442 49.915 -14.1816 50.1026 -13.9764C50.2904 -13.7708 50.2051 -13.6932 50.3929 -13.4876C50.5813 -13.2814 50.7722 -13.4551 50.9606 -13.249C51.149 -13.0429 50.9283 -12.6815 51.2078 -12.6787C51.4812 -12.6761 51.485 -12.8375 51.6681 -13.04C51.8515 -13.2426 51.6979 -13.3809 51.8813 -13.5835C52.0649 -13.7865 52.068 -13.7837 52.2516 -13.9867C52.4354 -14.1898 52.3666 -14.2518 52.5504 -14.455C52.7339 -14.6579 52.9918 -14.4256 53.1753 -14.6285C53.3587 -14.8313 53.1467 -15.0222 53.3302 -15.2249C53.5137 -15.4278 53.7203 -15.2417 53.9038 -15.4445C54.0876 -15.6477 53.8536 -15.8584 54.0374 -16.0616C54.2212 -16.2648 54.4244 -16.0818 54.6082 -16.2849C54.7918 -16.4879 54.7841 -16.4948 54.9677 -16.6977C55.1515 -16.9008 55.0394 -17.0018 55.2231 -17.2049C55.4071 -17.4082 55.3045 -17.5006 55.4884 -17.704C55.6716 -17.9065 55.8692 -17.7285 56.0524 -17.931C56.2354 -18.1333 56.171 -18.1913 56.354 -18.3936C56.5373 -18.5962 56.5291 -18.6035 56.7124 -18.8061C56.8965 -19.0096 56.7982 -19.0982 56.9823 -19.3017C57.166 -19.5048 57.2816 -19.4006 57.4653 -19.6037C57.649 -19.8068 57.7297 -19.7342 57.9134 -19.9373C58.0977 -20.141 58.0776 -20.1591 58.2619 -20.3629C58.4459 -20.5663 58.4716 -20.5432 58.6556 -20.7466C58.8399 -20.9503 58.7664 -21.0164 58.9506 -21.2201C59.1341 -21.423 59.2048 -21.3593 59.3883 -21.5621C59.5727 -21.766 59.3477 -21.9687 59.5322 -22.1726C59.7169 -22.3768 59.702 -22.3902 59.8868 -22.5944C60.072 -22.7992 60.305 -22.5894 60.4902 -22.7942C60.6755 -22.999 60.4902 -23.2321 60.7666 -23.2257C61.0378 -23.2193 61.0709 -23.1802 61.2382 -22.9671C61.4055 -22.7541 61.1477 -22.5526 61.315 -22.3396C61.4828 -22.1258 61.4581 -22.1066 61.626 -21.8928C61.7935 -21.6794 62.0261 -21.8612 62.1936 -21.6478C62.3614 -21.4342 62.1695 -21.2842 62.3373 -21.0705C62.5052 -20.8566 62.5284 -20.8747 62.6964 -20.6608C62.8641 -20.4472 62.9553 -20.5185 63.1231 -20.3049C63.291 -20.091 63.2479 -20.0573 63.4159 -19.8433C63.5844 -19.6288 63.5627 -19.6119 63.7312 -19.3973C63.8996 -19.1828 64.1675 -19.2975 64.2172 -19.0295C64.267 -18.7615 63.9801 -18.7715 63.8998 -18.511C63.8196 -18.2506 63.8664 -18.2362 63.7862 -17.9758C63.7061 -17.7162 63.7454 -17.7041 63.6654 -17.4445C63.5854 -17.1849 63.6086 -17.1778 63.5287 -16.9182C63.4487 -16.6587 63.4405 -16.6612 63.3606 -16.4017C63.2806 -16.1421 63.0977 -16.1982 63.0177 -15.9386C62.9377 -15.6788 63.1623 -15.6099 63.0823 -15.3501C63.0021 -15.09 62.7924 -15.1544 62.7122 -14.8943C62.6319 -14.6338 62.8515 -14.5665 62.7712 -14.306C62.6908 -14.045 62.7257 -14.0343 62.6452 -13.7733C62.565 -13.5128 62.5864 -13.5062 62.5061 -13.2457C62.4259 -12.9854 62.4577 -12.9757 62.3775 -12.7154C62.2973 -12.4553 62.1028 -12.515 62.0226 -12.2549C61.9425 -11.9948 61.8781 -12.0145 61.7979 -11.7544C61.7177 -11.494 61.644 -11.5166 61.5638 -11.2563C61.4834 -10.9955 61.7502 -10.9137 61.6699 -10.653C61.5894 -10.3919 61.4591 -10.4319 61.3786 -10.1709C61.2983 -9.91025 61.2731 -9.918 61.1928 -9.65737C61.1125 -9.39689 61.3075 -9.33708 61.2272 -9.0766C61.1469 -8.816 61.1744 -8.80758 61.094 -8.54697C61.0136 -8.28595 60.7455 -8.36821 60.665 -8.10718C60.5846 -7.84621 60.5389 -7.86022 60.4585 -7.59925C60.3781 -7.3385 60.565 -7.28117 60.4847 -7.02042C60.4043 -6.7595 60.4307 -6.75141 60.3503 -6.49049C60.2698 -6.22926 60.0524 -6.29594 59.9719 -6.03472C59.8915 -5.77379 59.8625 -5.78268 59.7821 -5.52174C59.7016 -5.26051 59.788 -5.23399 59.7075 -4.97276C59.6271 -4.71167 59.5285 -4.74191 59.448 -4.48081C59.3676 -4.21962 59.5804 -4.15432 59.4999 -3.89313C59.4196 -3.63251 59.352 -3.65325 59.2717 -3.39264C59.1914 -3.13202 59.3876 -3.07183 59.3073 -2.81121C59.2267 -2.54973 59.2213 -2.55138 59.1407 -2.2899C59.0603 -2.02885 59.0058 -2.04555 58.9254 -1.78449C58.8448 -1.52309 58.8179 -1.53136 58.7373 -1.26995C58.6567 -1.00826 58.6105 -1.02241 58.5299 -0.760712C58.4494 -0.49939 58.4323 -0.504616 58.3518 -0.243286C58.2711 0.0186462 58.3874 0.0543289 58.3067 0.316261C58.2258 0.578621 57.9395 0.490799 57.8587 0.753159C57.7778 1.01551 57.9734 1.04639 57.987 1.32054C58.0005 1.59347 58.0368 1.19491 58.3963 1.173C58.5483 1.16374 58.733 1.17303 58.9454 1.16161C59.1102 1.15276 59.3039 1.36011 59.5039 1.3505C59.6742 1.34233 59.8522 1.23461 60.0474 1.22622C60.2205 1.21878 60.4067 1.30235 60.5989 1.29496C60.7738 1.28824 60.9487 1.06601 61.139 1.05949C61.3152 1.05347 61.5 1.09947 61.6892 1.09375C61.8663 1.08839 62.0482 1.04023 62.2365 1.03525C62.4142 1.03055 62.5958 0.963326 62.7833 0.959053C62.9617 0.954979 63.1457 0.988708 63.3328 0.9851C63.5117 0.981651 63.6945 0.943634 63.8812 0.940674C64.0606 0.937828 64.2445 0.962601 64.4309 0.960258C64.6107 0.958008 64.7952 1.06537 64.9815 1.06364C65.1615 1.06197 65.3457 1.22136 65.5317 1.22023C65.712 1.21913 65.8945 1.20241 66.0803 1.20186C66.2607 1.20132 66.4434 0.912292 66.6289 0.912323C66.8095 0.912346 66.9924 1.09294 67.1777 1.09353C67.3585 1.0941 67.5411 1.1366 67.7263 1.13774C67.9071 1.13885 68.0891 1.22669 68.2741 1.22839C68.4551 1.23003 68.6387 1.14119 68.8236 1.14342C69.0047 1.14561 69.1865 1.21258 69.3712 1.21535C69.5524 1.21807 69.7368 1.11836 69.9215 1.12167C70.1027 1.12491 70.2883 0.998657 70.4728 1.00249C70.6541 1.00626 70.8384 0.965843 71.0229 0.9702C71.2043 0.97448 71.3826 1.16934 71.5669 1.17422C71.7484 1.17902 71.9346 1.06931 72.1189 1.0747C72.3004 1.08001 72.4849 1.04253 72.6691 1.04845C72.8506 1.05427 73.0337 1.06578 73.2178 1.0722C73.3994 1.07854 73.5829 1.07781 73.767 1.08475C73.9486 1.09159 74.1191 1.41197 74.3031 1.41942C74.4848 1.42677 74.6828 1.07292 74.8668 1.08087C75.0485 1.08873 75.2169 1.41859 75.4008 1.42705C75.5826 1.43541 75.7684 1.37348 75.9523 1.38245C76.134 1.39131 76.3256 1.22639 76.5094 1.23586C76.6912 1.24522 76.8649 1.42584 77.0487 1.43581C77.2304 1.44569 77.4243 1.2589 77.608 1.26938C77.7898 1.27975 77.9726 1.29434 78.1562 1.30533C78.338 1.3162 78.5205 1.33681 78.7041 1.3483C78.8859 1.35967 79.0551 1.58167 79.2386 1.59365C79.4195 1.60547 79.6076 1.52083 79.7902 1.53326C79.9712 1.54558 80.1531 1.55557 80.3357 1.5685C80.5167 1.58132 80.6945 1.64819 80.8771 1.66163C81.0581 1.67496 81.2366 1.73022 81.4191 1.74416C81.6002 1.75799 81.7917 1.64691 81.9742 1.66135C82.1553 1.67568 82.3273 1.81132 82.5098 1.82626C82.6909 1.84109 82.8863 1.69363 83.0688 1.70908C83.25 1.72442 83.436 1.69428 83.6185 1.71024C83.7996 1.72609 83.9665 1.91083 84.1489 1.9273C84.3301 1.94365 84.5081 1.99908 84.6906 2.01605C84.8717 2.03291 85.0503 2.08083 85.2327 2.09831C85.4139 2.11568 85.6079 2.00671 85.7903 2.0247C85.9714 2.04259 86.1605 1.98957 86.3428 2.00808C86.524 2.02648 86.7134 1.97456 86.8957 1.99358C87.0768 2.01249 87.2547 2.07178 87.4369 2.09132C87.6181 2.11075 87.7888 2.23277 87.971 2.25283C88.1522 2.27277 88.3273 2.35078 88.5095 2.37135C88.6906 2.39182 88.8705 2.42686 89.0526 2.44797C89.2337 2.46896 89.4238 2.4176 89.6059 2.43922C89.787 2.46073 89.9702 2.46967 90.1522 2.49181C90.3333 2.51385 90.5021 2.63805 90.6841 2.66073C90.8652 2.68329 91.0543 2.64452 91.2363 2.66772C91.4173 2.69082 91.6141 2.59645 91.796 2.62019C91.977 2.64381 92.1502 2.73105 92.332 2.75532C92.513 2.77947 92.6893 2.84168 92.871 2.86649C93.0519 2.89117 93.2146 3.04896 93.3963 3.0743C93.5772 3.09952 93.764 3.08372 93.9456 3.1096C94.1258 3.13527 94.3141 3.10628 94.495 3.1326C94.6752 3.15881 94.8885 2.96493 95.0694 2.9918C95.2496 3.01855 95.4173 3.13374 95.5981 3.16115C95.7783 3.18846 95.9396 3.34163 96.1204 3.36959C96.3005 3.39745 96.5146 3.21271 96.6954 3.24123C96.8755 3.26964 97.0161 3.54781 97.1969 3.57688C97.3769 3.60585 97.5834 3.47523 97.7641 3.50486C97.9441 3.53439 98.1385 3.48212 98.3192 3.51231C98.4992 3.5424 98.639 3.81245 98.8195 3.8432C98.9995 3.87385 99.1769 3.91988 99.3574 3.9512C99.5373 3.98242 99.7218 3.98782 99.9023 4.01971C100.082 4.05149 100.262 4.08419 100.442 4.11665C100.622 4.149 100.798 4.20325 100.978 4.23628C101.158 4.26922 101.338 4.30302 101.518 4.33663C101.698 4.37014 101.873 4.4253 102.053 4.45949C102.233 4.49358 102.406 4.56121 102.586 4.59598C102.766 4.63065 102.943 4.67413 103.123 4.70949C103.303 4.74475 103.54 4.4883 103.72 4.52425C103.9 4.5601 104.078 4.60465 104.258 4.64119C104.437 4.67764 104.607 4.7653 104.786 4.80244C104.966 4.83948 105.119 5.00307 105.298 5.04081C105.477 5.07845 105.639 5.19705 105.819 5.23538C105.998 5.27363 106.235 5.04273 106.415 5.08167C106.594 5.12051 106.745 5.28539 106.925 5.32494C107.103 5.3644 107.317 5.25083 107.496 5.29099C107.675 5.33105 107.793 5.64226 107.972 5.68304C108.15 5.72372 108.386 5.51921 108.565 5.5606C108.743 5.60191 108.864 5.89017 109.043 5.93218C109.221 5.9741 109.435 5.87029 109.613 5.91293C109.791 5.95547 109.973 5.98732 110.151 6.03059C110.329 6.07369 110.536 6.00262 110.714 6.04644C110.891 6.09018 111.048 6.22163 111.226 6.26609C111.404 6.31048 111.514 6.62253 111.691 6.66763C111.869 6.71266 112.055 6.72346 112.233 6.76922C112.41 6.8149 112.632 6.68972 112.809 6.73613C112.987 6.78246 113.113 7.01949 113.291 7.06656C113.468 7.11354 113.702 6.94893 113.879 6.99665C114.056 7.04429 114.169 7.3287 114.346 7.37708C114.523 7.42538 114.797 7.12125 114.974 7.1703C115.151 7.21928 115.282 7.43195 115.459 7.48167C115.636 7.53132 115.804 7.61076 115.981 7.66115C116.157 7.71146 116.325 7.7907 116.502 7.84176C116.678 7.89275 116.891 7.81977 117.067 7.87152C117.243 7.92319 117.349 8.21178 117.525 8.26421C117.701 8.31651 117.955 8.10791 118.131 8.16098C118.307 8.21398 118.487 8.25268 118.663 8.30644C118.838 8.36015 118.991 8.48774 119.167 8.54221C119.342 8.59662 119.537 8.59196 119.712 8.64714C119.887 8.70226 119.999 8.95481 120.175 9.0107C120.35 9.06654 120.593 8.91065 120.768 8.96726C120.943 9.02377 121.09 9.16624 121.264 9.22353C121.439 9.28076 121.548 9.5349 121.722 9.59292C121.896 9.6509 122.093 9.64209 122.267 9.70086C122.441 9.75954 122.597 9.87126 122.771 9.93073C122.945 9.9902 123.182 9.86603 123.356 9.92629C123.53 9.98656 123.725 10.1525 123.899 10.2135Z" fill="#0072BA"/>
<path d="M96.6693 57.2539C95.8689 56.5044 93.7245 56.9746 93.1667 57.1968C89.8292 54.2947 83.8913 52.5237 77.211 52.8364C70.4447 53.1531 64.6391 55.5274 61.6199 58.7926L61.6217 58.785C61.5256 58.6209 59.4445 57.7195 58.448 58.453C57.699 59.0045 58.907 63.1701 59.5528 65.2044C59.6379 65.578 59.7602 65.9433 59.9129 66.3008C59.9155 66.3081 59.9182 66.3158 59.9182 66.3158L59.9187 66.3137C61.7935 70.6761 68.5619 73.7594 76.6871 73.7569L77.5884 75.1585C78.1905 76.0946 79.5825 76.0295 80.094 75.0412L80.9008 73.4824C88.7161 72.4493 94.7679 68.6487 95.8342 64.1309L95.8368 64.1372C95.8368 64.1372 97.5721 58.0995 96.6693 57.2539Z" fill="#F39353"/>
<path d="M76.8834 46.7143C76.7075 46.6587 76.5389 46.7673 76.3607 46.7222C76.182 46.677 75.9999 46.6693 75.8193 46.6344C75.6384 46.5995 75.4503 46.6573 75.2678 46.6325C75.0854 46.6076 74.9434 46.2121 74.7599 46.1971C74.5764 46.182 74.3781 46.3219 74.1939 46.3164C74.01 46.3109 73.8265 46.4405 73.6422 46.4443C73.4583 46.448 73.2671 46.2885 73.0833 46.3012C72.8997 46.3139 72.7097 46.3058 72.5266 46.3272C72.3438 46.3485 72.1926 46.5929 72.0107 46.6226C71.8291 46.6523 71.6548 46.6924 71.4744 46.7302C71.2943 46.7679 71.0925 46.7002 70.914 46.7458C70.7356 46.7913 70.5443 46.7924 70.3679 46.8455C70.1916 46.8986 70.0345 47.012 69.8606 47.0724C69.6866 47.1328 69.4506 47.0342 69.2794 47.1017C69.108 47.1693 68.9219 47.2191 68.7537 47.2935C68.5851 47.368 68.5208 47.6698 68.3558 47.7509C68.1903 47.8322 68.0426 47.9405 67.8806 48.0278C67.7184 48.1152 67.4937 48.0895 67.335 48.1826C67.1761 48.2758 66.9376 48.2462 66.7821 48.3448C66.6266 48.4435 66.624 48.776 66.4718 48.8798C66.3198 48.9836 66.0868 48.9721 65.9381 49.0808C65.7895 49.1893 65.6207 49.2747 65.4754 49.3879C65.3302 49.5009 65.1813 49.6135 65.0394 49.7309C64.8976 49.8482 64.8637 50.092 64.7251 50.2134C64.5868 50.3346 64.48 50.4872 64.3447 50.6122C64.2097 50.7371 64.076 50.8594 63.9441 50.9878C63.8122 51.1161 63.4791 51.0446 63.3503 51.1762C63.2216 51.3077 63.1977 51.5422 63.072 51.6767C62.9464 51.8112 62.9726 52.0817 62.8499 52.2189C62.7273 52.3562 62.3463 52.2683 62.2266 52.4081C62.1068 52.5479 62.2186 52.8817 62.1017 53.0237C61.9848 53.1659 61.7237 53.1914 61.6096 53.3355C61.5002 53.4738 61.4219 53.6378 61.3154 53.7792C61.209 53.9203 61.0838 54.0493 60.9822 54.1939C60.8805 54.3386 60.9244 54.5784 60.8294 54.7271C60.7341 54.8763 60.6658 55.0326 60.5792 55.1863C60.4923 55.3404 60.264 55.4163 60.1877 55.5754C60.1114 55.7347 60.2351 55.9729 60.1714 56.1377C60.1079 56.3021 59.988 56.4337 59.9392 56.604C59.9 56.7402 59.8292 56.8793 59.8055 57.0489C59.7838 57.204 59.7843 57.3698 59.7601 57.5241C59.7338 57.6925 59.5162 57.9116 59.4688 58.0448C59.6437 58.0762 59.9048 58.0743 60.0779 58.1145C60.251 58.1548 60.4693 58.0322 60.6401 58.0812C60.8109 58.1302 60.9256 58.3643 61.0936 58.4219C61.2617 58.4795 61.5305 58.4346 61.6954 58.5008C61.6971 58.6803 61.5125 58.9227 61.5219 59.102C61.5313 59.2813 61.5656 59.4628 61.5826 59.6415C61.5996 59.8203 61.777 59.9807 61.8014 60.1586C61.8259 60.3364 61.9396 60.4953 61.9715 60.6719C62.0034 60.8486 62.0593 61.0132 62.0987 61.1884C62.138 61.3636 61.9086 61.603 61.9552 61.7763C62.0019 61.9497 61.986 62.1472 62.0399 62.3184C62.0938 62.4897 62.1417 62.6708 62.2028 62.8397C62.2639 63.0085 62.3263 63.1853 62.3945 63.3514C62.4593 63.509 62.6852 63.6066 62.7644 63.7624C62.843 63.9171 63.0679 63.9795 63.1633 64.1228C63.2606 64.269 63.3198 64.4177 63.4372 64.5418C63.5577 64.6693 63.5962 64.8823 63.7408 64.9754C63.8851 65.0682 64.0791 65.0484 64.2501 65.0958C64.4155 65.1417 64.566 65.2529 64.7325 65.2489C64.8993 65.2448 65.0154 65.0052 65.1795 64.9608C65.3395 64.9174 65.6227 65.1996 65.7765 65.1271C65.9276 65.0558 66.0856 64.9471 66.2273 64.8563C66.37 64.7648 66.514 64.6489 66.6438 64.5463C66.7907 64.4301 66.7855 64.1317 66.9237 64.0055C67.062 63.8792 67.1727 63.7341 67.3018 63.5985C67.4308 63.463 67.6056 63.374 67.7249 63.2298C67.8442 63.0856 67.9647 62.9447 68.0737 62.7927C68.1827 62.6406 68.2687 62.4759 68.3668 62.3166C68.465 62.1574 68.6841 62.0641 68.7708 61.8984C68.8575 61.7327 68.862 61.6713 68.9368 61.4999C69.0312 61.6582 69.04 61.72 69.1512 61.8675C69.2622 62.0147 69.479 62.08 69.605 62.2151C69.7309 62.35 69.7626 62.5907 69.9016 62.7123C70.0407 62.8338 70.1824 62.9759 70.333 63.0828C70.4837 63.1898 70.7792 63.0762 70.9396 63.1673C71.1006 63.2586 71.198 63.4702 71.367 63.5442C71.5366 63.6184 71.7793 63.48 71.9552 63.5354C72.1318 63.591 72.262 63.7877 72.4431 63.823C72.6247 63.8584 72.7946 64.0445 72.9789 64.0581C73.163 64.0717 73.3588 63.9188 73.5438 63.9093C73.7276 63.8998 73.9172 63.9144 74.1 63.8807C74.2814 63.8473 74.4807 63.8485 74.6549 63.7896C74.8292 63.7307 74.9876 63.6111 75.1525 63.529C75.317 63.447 75.4113 63.2501 75.5641 63.1474C75.7168 63.0449 75.9736 63.0761 76.1124 62.9553C76.2512 62.8345 76.3973 62.7032 76.52 62.5665C76.643 62.4293 76.634 62.1844 76.7384 62.0336C76.8434 61.8821 76.9991 61.7639 77.083 61.601C77.1675 61.4372 77.3301 61.2975 77.3908 61.1246C77.4519 60.951 77.48 60.7534 77.5146 60.5732C77.5493 60.393 77.6104 60.1985 77.6162 60.0144C77.6221 59.8321 77.4371 59.5136 77.4124 59.3299C77.4284 59.5172 77.5491 59.8264 77.5872 60.0106C77.6253 60.1947 77.5328 60.4183 77.5917 60.5969C77.6507 60.7755 77.6611 60.9911 77.7398 61.1619C77.8187 61.3328 78.1646 61.367 78.2621 61.5278C78.3598 61.6888 78.2475 61.9972 78.3628 62.1457C78.4784 62.2944 78.8346 62.2339 78.9667 62.3678C79.099 62.5018 79.0722 62.808 79.22 62.9247C79.3675 63.0412 79.6208 63.0084 79.7827 63.1054C79.9443 63.2022 80.0535 63.3975 80.2264 63.472C80.3992 63.5465 80.6049 63.5338 80.786 63.5858C80.967 63.6377 81.1709 63.5245 81.357 63.5535C81.5432 63.5825 81.7066 63.6316 81.8947 63.6373C82.0832 63.6431 82.2599 63.7188 82.4472 63.7009C82.6349 63.6829 82.7946 63.5811 82.978 63.539C83.1616 63.4968 83.3452 63.5077 83.5213 63.441C83.6971 63.3744 83.8817 63.345 84.0469 63.2537C84.2117 63.1625 84.3277 63.0137 84.477 62.8995C84.6263 62.7852 84.9185 62.8271 85.0503 62.6929C85.182 62.5588 85.2787 62.3747 85.391 62.2239C85.5032 62.0731 85.5959 61.8968 85.6866 61.7324C85.7775 61.5677 85.9358 61.4176 86.0031 61.2424C86.0705 61.0669 85.8578 60.8049 85.8995 60.622C85.9413 60.4388 86.2616 60.2945 86.2755 60.1072C86.2893 59.9203 86.1365 59.8476 86.1205 59.6599C86.079 59.8511 86.0868 59.9128 86.106 60.1014C86.1252 60.2906 86.1963 60.4612 86.2652 60.6424C86.3323 60.8189 86.2829 61.0649 86.3867 61.2288C86.4886 61.3897 86.6782 61.5017 86.8054 61.6456C86.9335 61.7905 87.0624 61.9413 87.2061 62.0641C87.336 62.1752 87.5509 62.1743 87.6917 62.2725C87.8322 62.3705 87.989 62.4228 88.1386 62.5065C88.2884 62.5903 88.4433 62.6302 88.6005 62.6981C88.7582 62.7661 88.8378 63.0284 89.0013 63.0789C89.1654 63.1296 89.344 63.1416 89.5123 63.1731C89.681 63.2047 89.8534 63.2373 90.0246 63.248C90.1954 63.2587 90.3602 63.0917 90.5318 63.0802C90.7025 63.0686 90.916 63.3397 91.0838 63.3041C91.2513 63.2686 91.445 63.2332 91.6061 63.175C91.7673 63.1168 91.8932 62.9339 92.0445 62.8542C92.1964 62.7743 92.4177 62.7711 92.556 62.6709C92.695 62.5703 92.7046 62.298 92.8263 62.1781C92.9483 62.0579 93.168 62.0107 93.269 61.8725C93.3695 61.7348 93.3563 61.5164 93.4322 61.3622C93.5099 61.2046 93.6293 61.0621 93.6794 60.8977C93.73 60.7316 93.5567 60.5234 93.5828 60.3519C93.6086 60.1814 93.8182 60.0343 93.8233 59.86C93.8284 59.688 93.7951 59.5136 93.7833 59.3395C93.7717 59.1676 93.6737 59.0061 93.6489 58.8335C93.6244 58.6625 93.5862 58.4975 93.5519 58.3272C93.5176 58.1571 93.4503 57.9982 93.4095 57.8302C93.3683 57.6606 93.5076 57.5121 93.4629 57.3461C93.6609 57.2882 93.7732 57.1268 93.9712 57.0689C94.1692 57.0109 94.279 56.9075 94.4771 56.8496C94.5119 56.6692 94.7014 56.597 94.7252 56.4151C94.749 56.2331 94.902 56.0565 94.9149 55.8735C94.9278 55.6904 94.7781 55.4939 94.7803 55.3104C94.7825 55.1269 94.9339 54.9344 94.9256 54.751C94.9172 54.5677 94.8595 54.3784 94.8407 54.1958C94.8219 54.0133 94.666 53.8441 94.637 53.6628C94.608 53.4816 94.6004 53.2948 94.5614 53.1154C94.5224 52.936 94.3044 52.8033 94.2556 52.6264C94.2067 52.4494 94.1375 52.2871 94.079 52.1131C94.0204 51.9391 94.1846 51.6858 94.1166 51.5153C94.0485 51.3447 93.8916 51.21 93.8142 51.0435C93.7368 50.877 93.6154 50.7342 93.5288 50.5723C93.4421 50.4104 93.4553 50.191 93.3596 50.0343C93.2639 49.8775 93.2083 49.6882 93.1037 49.5372C92.9992 49.3862 92.8673 49.247 92.7541 49.1023C92.6409 48.9577 92.5847 48.7545 92.4631 48.6168C92.3415 48.4792 92.0651 48.4788 91.9353 48.3487C91.8168 48.23 91.6183 48.2001 91.4943 48.0875C91.3702 47.9749 91.2114 47.9124 91.0826 47.8051C90.9538 47.698 90.9158 47.4847 90.7831 47.3823C90.6503 47.28 90.4633 47.2547 90.3274 47.1565C90.1915 47.0584 90.2221 46.7239 90.0838 46.6293C89.9292 46.5237 89.7417 46.4604 89.5839 46.3588C89.4264 46.2573 89.1463 46.3516 88.9857 46.2547C88.8252 46.1578 88.7734 45.8758 88.6099 45.784C88.4464 45.692 88.2191 45.7156 88.0527 45.6292C87.8861 45.5427 87.7071 45.4852 87.5379 45.4047C87.3684 45.3241 87.2283 45.1814 87.0561 45.1073C86.8837 45.0331 86.6383 45.1473 86.4633 45.0801C86.288 45.0129 86.1262 44.9311 85.9485 44.8714C85.7705 44.8117 85.5994 44.7552 85.4192 44.7036C85.2388 44.652 85.0993 44.461 84.9167 44.4181C84.7342 44.3751 84.5477 44.3562 84.3632 44.3224C84.1787 44.2887 84.0047 44.1863 83.8185 44.1623C83.6327 44.1384 83.4488 44.0525 83.2613 44.0388C83.0776 44.0253 82.8869 44.018 82.7049 44.0179C82.5208 44.0178 82.3264 43.9757 82.1446 43.9889C81.9613 44.0022 81.7657 44.0086 81.5852 44.0351C81.4036 44.0618 81.2231 44.1508 81.0449 44.1905C80.866 44.2304 80.7264 44.4301 80.5514 44.4828C80.3761 44.5356 80.1356 44.4111 79.9648 44.4765C79.794 44.5418 79.7096 44.8183 79.5438 44.8959C79.3783 44.9732 79.2234 45.0609 79.0635 45.1501C78.9041 45.2391 78.6758 45.2148 78.5224 45.3152C78.3698 45.415 78.225 45.534 78.0789 45.6448C77.9338 45.755 77.7139 45.7865 77.5757 45.9072C77.4385 46.027 77.4111 46.2733 77.2813 46.4032C77.1526 46.5319 77.0043 46.576 76.8834 46.7143Z" fill="#00384A"/>
<path d="M76.8866 74.4574C76.9932 72.658 74.6089 71.0534 71.5611 70.8736C68.5132 70.6938 65.956 72.0068 65.8494 73.8062C65.7427 75.6057 68.127 77.2102 71.1749 77.39C74.2227 77.5699 76.7799 76.2569 76.8866 74.4574Z" stroke="#E30518" stroke-miterlimit="10" stroke-linecap="round"/>
<path d="M91.9178 74.684C92.0244 72.8845 89.6402 71.28 86.5923 71.1002C83.5445 70.9204 80.9873 72.2333 80.8806 74.0328C80.774 75.8323 83.1583 77.4368 86.2061 77.6166C89.2539 77.7964 91.8112 76.4835 91.9178 74.684Z" stroke="#E30518" stroke-miterlimit="10" stroke-linecap="round"/>
<path d="M76.6875 73.7566L80.899 73.6738" stroke="#E30518" stroke-miterlimit="10" stroke-linecap="round"/>
<path d="M104.459 64.72C105.314 70.2581 107.377 72.1132 102.756 77.1579C101.624 78.7513 98.8209 79.4511 97.9733 79.4925C97.1257 79.5339 88.587 79.7757 88.418 82.268C88.8824 84.1159 96.2763 82.9125 93.9708 85.4347C91.6111 88.1416 91.9612 93.8117 93.9225 96.8466C96.0925 97.9568 97.2997 95.0138 97.1105 93.2097C97.0123 96.1691 101.299 97.1544 102.509 94.4522C103.896 97.2138 107.707 95.6217 108.56 93.1708C109.436 92.0354 108.468 89.6995 107.112 90.974C108.486 86.5093 118.974 85.0703 123.111 81.71C131.818 76.882 133.508 64.6085 127.976 56.7207L104.459 64.72Z" fill="#F39353"/>
<path d="M80.3254 103.01C81.1049 103.01 81.7367 102.379 81.7367 101.602C81.7367 100.824 81.1049 100.193 80.3254 100.193C79.5459 100.193 78.9141 100.824 78.9141 101.602C78.9141 102.379 79.5459 103.01 80.3254 103.01Z" stroke="#E30518" stroke-miterlimit="10" stroke-linecap="round"/>
<path d="M74.1613 101.628L72.5117 98.7148" stroke="#E30518" stroke-miterlimit="10" stroke-linecap="round"/>
<path d="M71.6651 103.408L69.2812 100.451" stroke="#E30518" stroke-miterlimit="10" stroke-linecap="round"/>
<path d="M82.0947 89.5176C81.6195 90.2764 80.6178 90.5072 79.8573 90.0331C79.0968 89.559 78.8655 88.5596 79.3407 87.8008" stroke="#E30518" stroke-miterlimit="10" stroke-linecap="round"/>
<path d="M92.4405 80.3008C92.6569 81.1691 92.1269 82.048 91.2566 82.2639C90.3864 82.4798 89.5055 81.9509 89.2891 81.0827" stroke="#E30518" stroke-miterlimit="10" stroke-linecap="round"/>
<path d="M97.1094 93.2096L97.4034 88.248" stroke="#E30518" stroke-miterlimit="10" stroke-linecap="round"/>
<path d="M102.508 94.4515L102.789 89.7148" stroke="#E30518" stroke-miterlimit="10" stroke-linecap="round"/>
<path d="M94.4955 95.8539C95.2524 95.8539 95.866 95.2417 95.866 94.4865C95.866 93.7313 95.2524 93.1191 94.4955 93.1191C93.7386 93.1191 93.125 93.7313 93.125 94.4865C93.125 95.2417 93.7386 95.8539 94.4955 95.8539Z" stroke="#E30518" stroke-miterlimit="10" stroke-linecap="round"/>
<path d="M107.762 94.0952C107.223 93.7908 107.019 93.1343 107.306 92.6288C107.593 92.1233 108.262 91.9602 108.801 92.2646" stroke="#E30518" stroke-miterlimit="10" stroke-linecap="round"/>
<path d="M107.112 90.9727L106.133 92.8502" stroke="#E30518" stroke-miterlimit="10" stroke-linecap="round"/>
</g>
<defs>
<clipPath id="clip0_16011_10957">
<rect width="133" height="124" fill="white"/>
</clipPath>
</defs>
</svg>
