<svg width="114" height="178" viewBox="0 0 114 178" fill="none" xmlns="http://www.w3.org/2000/svg">
<g clip-path="url(#clip0_16011_10683)">
<path d="M113.295 178H0.121094L47.1575 94.4322L63.5994 87.9531C91.0455 87.9531 113.202 91.5999 113.202 119.046L113.295 178Z" fill="#E40524"/>
<path d="M38.7272 9.9248C38.7272 9.9248 30.3905 18.2615 31.641 31.1833C32.8915 44.1052 32.7425 46.4984 26.49 48.9994C21.1164 51.1489 18.8658 59.3517 27.4084 63.6587C30.2529 65.0928 32.0399 67.9771 32.1511 71.1607C32.4233 78.9467 35.7419 92.4092 54.5669 97.0431C81.6611 103.712 91.2483 76.6182 93.7493 70.3657C96.2503 64.1132 113.34 36.1853 100.002 26.1813C86.6631 16.1773 73.7412 32.4338 69.9897 34.1012C66.2382 35.7685 38.7272 9.9248 38.7272 9.9248Z" fill="#C25528"/>
<path d="M99.7705 178H47.1562L63.9896 107.835C67.194 93.7688 80.8079 84.8758 94.3971 87.9715C107.986 91.0673 116.405 104.98 113.201 119.045L99.7705 178Z" fill="#C25528"/>
<path d="M81.8047 34.9183C81.8047 34.9183 89.8185 28.908 94.7158 34.9183C99.6132 40.9287 92.935 54.0625 89.3733 60.0728" stroke="#010101" stroke-width="3.25182" stroke-miterlimit="10" stroke-linecap="round"/>
<path d="M29.0278 60.9834C29.6667 60.9834 30.1845 60.4655 30.1845 59.8266C30.1845 59.1878 29.6667 58.6699 29.0278 58.6699C28.389 58.6699 27.8711 59.1878 27.8711 59.8266C27.8711 60.4655 28.389 60.9834 29.0278 60.9834Z" fill="#010101"/>
<path d="M31.8677 60.9834C32.5065 60.9834 33.0244 60.4655 33.0244 59.8266C33.0244 59.1878 32.5065 58.6699 31.8677 58.6699C31.2288 58.6699 30.7109 59.1878 30.7109 59.8266C30.7109 60.4655 31.2288 60.9834 31.8677 60.9834Z" fill="#010101"/>
<path d="M31.8672 69.2585L43.3785 64.4395" stroke="#010101" stroke-width="3.25182" stroke-miterlimit="10" stroke-linecap="round"/>
<path d="M69.9395 34.6894C68.2915 34.5535 68.6051 33.0979 67.0654 32.4949C65.5255 31.8919 65.4301 32.1355 63.8902 31.5324C62.35 30.9292 62.2671 31.1408 60.727 30.5376C59.1879 29.9349 59.1514 30.0279 57.6123 29.4251C56.0726 28.8221 56.2775 28.2987 54.7378 27.6957C53.198 27.0927 52.8904 27.8782 51.3506 27.2751C49.8108 26.6721 49.9344 26.3564 48.3946 25.7533C46.8544 25.1501 46.6849 25.5831 45.1447 24.9799C43.6039 24.3765 43.852 23.7431 42.3112 23.1397C40.771 22.5365 40.9252 22.1428 39.385 21.5395C37.8436 20.9359 37.8322 20.965 36.2909 20.3614C34.7496 19.7578 34.3001 20.6799 33.0499 19.5949C31.8266 18.5332 33.4483 18.4771 34.3162 16.6713C34.7164 15.8385 34.768 14.5944 35.4358 13.5668C35.9774 12.7334 36.5127 11.7029 37.2616 10.8125C37.9174 10.0326 39.21 9.73145 40.0449 8.95368C40.7982 8.25184 41.2876 7.12364 42.2013 6.45661C43.0368 5.84661 44.4211 6.00901 45.4018 5.45329C46.3037 4.94219 47.1306 4.27133 48.1639 3.82566C49.117 3.41458 50.1228 3.10575 51.1944 2.76564C52.1843 2.45143 53.0382 1.45377 54.1346 1.21218C55.1503 0.988354 56.2495 0.817305 57.3608 0.665387C58.3932 0.524255 59.4822 0.200023 60.6003 0.128615C61.6419 0.062099 62.7601 -0.000168184 63.8789 3.41304e-07C64.9248 0.000157896 66.0234 0.338664 67.139 0.402153C68.2644 0.466202 69.3486 0.730567 70.393 0.854539C71.5146 0.987665 72.5153 1.60722 73.5471 1.80341C74.6581 2.01468 75.7925 1.89825 76.804 2.17513C77.896 2.47405 78.8143 3.1397 79.7958 3.50564C80.8573 3.90142 82.123 3.72636 83.0625 4.1886C84.0794 4.68893 84.7343 5.76131 85.6173 6.32437C86.5727 6.93363 87.9812 6.88619 88.7912 7.54972C89.6681 8.26803 90.2757 9.29951 90.9968 10.0571C91.7803 10.8803 92.0546 12.0765 92.6727 12.9148C93.3524 13.8368 94.1441 14.6063 94.6484 15.5055C95.22 16.5246 96.3002 17.2639 96.6817 18.1945C97.1486 19.3334 96.949 20.6135 97.1937 21.5152C97.7208 23.4566 99.2983 24.2202 97.8155 24.9043C96.2768 25.6141 96.6604 23.5104 94.7659 22.9391C93.8052 22.6495 92.4785 23.5425 91.2456 23.4547C90.18 23.3788 88.9531 22.1191 87.7848 22.3575C86.7385 22.571 85.5535 23.1389 84.4958 23.7197C83.5122 24.2598 82.5448 25.0366 81.4963 25.6874C80.498 26.3071 80.009 27.762 79.0234 28.4182C78.0052 29.096 76.8438 29.511 75.915 30.1602C74.8442 30.9085 73.3828 30.9513 72.5408 31.5633C70.8074 32.8232 71.7122 34.8355 69.9395 34.6894Z" fill="#010101"/>
<path d="M33.1352 74.9145C33.0176 74.6456 31.214 75.4756 29.7582 76.9413C29.05 77.6544 28.653 78.909 27.7772 79.799C27.0039 80.5848 25.6195 80.8384 24.7873 81.6499C23.9545 82.462 23.3567 83.5021 22.5322 84.2344C21.6012 85.0614 20.7641 85.8621 19.9352 86.4442C19.0144 87.0908 18.2824 87.9763 17.4352 88.7116C16.5865 89.4481 15.962 90.3833 15.1908 91.1997C14.4197 92.016 13.0428 92.321 12.3529 93.2079C11.6637 94.094 11.8492 95.5957 11.2448 96.5431C10.641 97.4896 9.50716 98.1114 8.99179 99.1098C8.47672 100.108 7.98342 101.131 7.56041 102.172C7.13741 103.213 6.95332 104.344 6.62609 105.418C6.29867 106.493 6.41426 107.658 6.18646 108.757C5.95844 109.857 5.22729 110.862 5.10282 111.978C4.97824 113.095 4.4101 114.218 4.39299 115.341C4.37587 116.464 4.45418 117.643 4.54828 118.763C4.64222 119.881 4.99886 120.999 5.20738 122.105C5.32211 123.189 5.34514 124.32 5.62376 125.301C5.91875 126.339 7.0316 127.068 7.49102 127.991C7.96635 128.946 7.95577 130.216 8.58551 131.048C9.22262 131.889 10.4864 132.187 11.2589 132.903C12.0278 133.615 12.8311 134.225 13.7116 134.813C14.5805 135.394 15.4194 135.982 16.3753 136.442C17.3168 136.896 18.1004 137.794 19.1056 138.131C20.0982 138.464 21.2384 138.355 22.2732 138.575C23.3002 138.793 24.3702 138.625 25.4193 138.733C26.4674 138.84 27.4806 138.939 28.5315 138.936C29.589 138.933 30.6196 138.999 31.6603 138.885C32.7155 138.77 33.8936 139.248 34.9111 139.018C35.9787 138.701 36.6995 137.505 37.6624 137.029C38.6489 136.542 40.081 136.783 40.9619 136.147C41.8449 135.51 42.0282 134.026 42.8096 133.257C43.5807 132.498 44.9035 132.225 45.5799 131.354C46.2422 130.503 46.3447 129.242 46.9203 128.299C47.4827 127.379 47.6691 126.285 48.1524 125.294C48.6258 124.322 49.4982 123.547 49.8993 122.521C50.2939 121.512 50.9158 120.573 51.2438 119.525C51.5685 118.488 51.1853 117.26 51.4479 116.197C51.7097 115.138 52.1816 114.147 52.3849 113.076C52.5891 112 53.0385 110.975 53.1869 109.899C53.3374 108.809 54.1008 107.782 54.1973 106.706C54.2962 105.602 54.4126 104.484 54.4584 103.411C54.5058 102.297 54.1157 101.175 54.1099 100.109C54.1039 98.9848 53.49 98.2325 53.4295 97.1799C52.2977 96.0191 52.7457 95.9908 50.8883 95.3176C50.007 94.9983 49.0216 94.6406 47.9279 94.1321C47.0097 93.7052 45.7106 93.8763 44.7284 93.3003C43.8278 92.7722 43.321 91.6045 42.4298 90.9395C41.5804 90.3058 40.195 90.2753 39.4077 89.5075C38.6449 88.7636 37.9101 87.8841 37.2538 87.0055C36.607 85.9969 36.556 84.7618 36.0767 83.9264C35.4581 82.8479 34.3405 82.224 33.9492 81.3879C33.3874 80.1876 33.672 78.9578 33.4316 78.126C33.0509 76.8086 33.2721 75.8081 33.1352 74.9145Z" fill="#010101"/>
</g>
<defs>
<clipPath id="clip0_16011_10683">
<rect width="113.761" height="178" fill="white" transform="translate(0.121094)"/>
</clipPath>
</defs>
</svg>
