<svg width="15" height="15" viewBox="0 0 15 15" fill="none" xmlns="http://www.w3.org/2000/svg">
<mask id="mask0_1734_2" style="mask-type:alpha" maskUnits="userSpaceOnUse" x="0" y="0" width="15" height="15">
<rect width="15" height="15" fill="#D9D9D9"/>
</mask>
<g mask="url(#mask0_1734_2)">
<path d="M3 9.01875H8.86875V7.89375H3V9.01875ZM3 6.58125H12V5.45625H3V6.58125ZM3 4.14375H12V3.01875H3V4.14375ZM0 15V1.125C0 0.825 0.1125 0.5625 0.3375 0.3375C0.5625 0.1125 0.825 0 1.125 0H13.875C14.175 0 14.4375 0.1125 14.6625 0.3375C14.8875 0.5625 15 0.825 15 1.125V10.875C15 11.175 14.8875 11.4375 14.6625 11.6625C14.4375 11.8875 14.175 12 13.875 12H3L0 15ZM2.5125 10.875H13.875V1.125H1.125V12.375L2.5125 10.875Z" fill="white"/>
</g>
</svg>
