<svg width="20" height="20" viewBox="0 0 20 20" fill="none" xmlns="http://www.w3.org/2000/svg">
<mask id="mask0_1740_6" style="mask-type:alpha" maskUnits="userSpaceOnUse" x="0" y="0" width="20" height="20">
<rect width="20" height="20" fill="#D9D9D9"/>
</mask>
<g mask="url(#mask0_1740_6)">
<path d="M3.25 18V12.8958C3.25 11.8681 3.61562 11.0037 4.34687 10.3027C5.07812 9.60174 5.9625 9.25125 7 9.25125H7.75V3.5C7.75 3.0875 7.89715 2.73438 8.19146 2.44063C8.48563 2.14688 8.83931 2 9.2525 2H10.7552C11.1684 2 11.5208 2.14688 11.8125 2.44063C12.1042 2.73438 12.25 3.0875 12.25 3.5V9.25125H13C14.0375 9.25125 14.9219 9.60174 15.6531 10.3027C16.3844 11.0037 16.75 11.8681 16.75 12.8958V18H3.25ZM4.75 16.5H6.25V13.9583C6.25 13.7458 6.32146 13.5677 6.46438 13.424C6.60729 13.2802 6.78438 13.2083 6.99563 13.2083C7.20688 13.2083 7.38542 13.2802 7.53125 13.424C7.67708 13.5677 7.75 13.7458 7.75 13.9583V16.5H9.25V13.9583C9.25 13.7458 9.32146 13.5677 9.46438 13.424C9.60729 13.2802 9.78438 13.2083 9.99563 13.2083C10.2069 13.2083 10.3854 13.2802 10.5312 13.424C10.6771 13.5677 10.75 13.7458 10.75 13.9583V16.5H12.25V13.9583C12.25 13.7458 12.3215 13.5677 12.4644 13.424C12.6073 13.2802 12.7844 13.2083 12.9956 13.2083C13.2069 13.2083 13.3854 13.2802 13.5312 13.424C13.6771 13.5677 13.75 13.7458 13.75 13.9583V16.5H15.25V12.8958C15.25 12.2847 15.0312 11.7743 14.5938 11.3646C14.1562 10.9549 13.625 10.75 13 10.75H7C6.375 10.75 5.84375 10.9549 5.40625 11.3646C4.96875 11.7743 4.75 12.2847 4.75 12.8958V16.5ZM10.75 9.25V3.5H9.25V9.25H10.75Z" fill="white"/>
</g>
</svg>
