<svg width="21" height="20" viewBox="0 0 21 20" fill="none" xmlns="http://www.w3.org/2000/svg">
<mask id="mask0_18614_15674" style="mask-type:alpha" maskUnits="userSpaceOnUse" x="0" y="0" width="21" height="20">
<rect x="0.5" width="20" height="20" fill="#D9D9D9"/>
</mask>
<g mask="url(#mask0_18614_15674)">
<path d="M3.75 18V12.8958C3.75 11.8681 4.11562 11.0037 4.84687 10.3027C5.57812 9.60174 6.4625 9.25125 7.5 9.25125H8.25V3.5C8.25 3.0875 8.39715 2.73438 8.69146 2.44063C8.98563 2.14688 9.33931 2 9.7525 2H11.2552C11.6684 2 12.0208 2.14688 12.3125 2.44063C12.6042 2.73438 12.75 3.0875 12.75 3.5V9.25125H13.5C14.5375 9.25125 15.4219 9.60174 16.1531 10.3027C16.8844 11.0037 17.25 11.8681 17.25 12.8958V18H3.75ZM5.25 16.5H6.75V13.9583C6.75 13.7458 6.82146 13.5677 6.96438 13.424C7.10729 13.2802 7.28438 13.2083 7.49563 13.2083C7.70688 13.2083 7.88542 13.2802 8.03125 13.424C8.17708 13.5677 8.25 13.7458 8.25 13.9583V16.5H9.75V13.9583C9.75 13.7458 9.82146 13.5677 9.96438 13.424C10.1073 13.2802 10.2844 13.2083 10.4956 13.2083C10.7069 13.2083 10.8854 13.2802 11.0312 13.424C11.1771 13.5677 11.25 13.7458 11.25 13.9583V16.5H12.75V13.9583C12.75 13.7458 12.8215 13.5677 12.9644 13.424C13.1073 13.2802 13.2844 13.2083 13.4956 13.2083C13.7069 13.2083 13.8854 13.2802 14.0312 13.424C14.1771 13.5677 14.25 13.7458 14.25 13.9583V16.5H15.75V12.8958C15.75 12.2847 15.5312 11.7743 15.0938 11.3646C14.6562 10.9549 14.125 10.75 13.5 10.75H7.5C6.875 10.75 6.34375 10.9549 5.90625 11.3646C5.46875 11.7743 5.25 12.2847 5.25 12.8958V16.5ZM11.25 9.25V3.5H9.75V9.25H11.25Z" fill="#053749"/>
</g>
</svg>
