<svg width="64" height="64" viewBox="0 0 64 64" fill="none" xmlns="http://www.w3.org/2000/svg">
<mask id="mask0_20977_20829" style="mask-type:alpha" maskUnits="userSpaceOnUse" x="0" y="0" width="64" height="64">
<rect width="64" height="64" fill="#D9D9D9"/>
</mask>
<g mask="url(#mask0_20977_20829)">
<path d="M12.3313 58.6673C11.5757 58.6673 10.9201 58.3895 10.3646 57.834C9.80903 57.2784 9.53125 56.6229 9.53125 55.8673V48.8673C9.53125 44.8673 10.7757 41.334 13.2646 38.2673C15.7535 35.2007 18.9535 33.2451 22.8646 32.4007C21.0868 33.6451 19.709 35.2118 18.7313 37.1007C17.7535 38.9895 17.2646 41.0229 17.2646 43.2006V55.8673C17.2646 56.3562 17.3313 56.8451 17.4646 57.334C17.5979 57.8229 17.8201 58.2673 18.1313 58.6673H12.3313ZM22.1313 58.6673C21.3757 58.6673 20.7201 58.3895 20.1646 57.834C19.609 57.2784 19.3313 56.6229 19.3313 55.8673V43.2006C19.3313 40.0895 20.4313 37.4451 22.6313 35.2673C24.8313 33.0895 27.4868 32.0006 30.5979 32.0006H43.1979C46.309 32.0006 48.9535 33.0895 51.1313 35.2673C53.309 37.4451 54.3979 40.0895 54.3979 43.2006V47.4673C54.3979 50.5784 53.309 53.2229 51.1313 55.4006C48.9535 57.5784 46.309 58.6673 43.1979 58.6673H22.1313ZM31.9979 26.4007C29.0646 26.4007 26.5757 25.3784 24.5312 23.334C22.4868 21.2895 21.4646 18.8007 21.4646 15.8673C21.4646 12.934 22.4868 10.4451 24.5312 8.40065C26.5757 6.35621 29.0646 5.33398 31.9979 5.33398C34.9313 5.33398 37.4201 6.35621 39.4646 8.40065C41.509 10.4451 42.5312 12.934 42.5312 15.8673C42.5312 18.8007 41.509 21.2895 39.4646 23.334C37.4201 25.3784 34.9313 26.4007 31.9979 26.4007Z" fill="#053749"/>
</g>
</svg>
