<svg width="20" height="20" viewBox="0 0 20 20" fill="none" xmlns="http://www.w3.org/2000/svg">
<mask id="mask0_credit_card_dark" style="mask-type:alpha" maskUnits="userSpaceOnUse" x="0" y="0" width="20" height="20">
<rect width="20" height="20" fill="#D9D9D9"/>
</mask>
<g mask="url(#mask0_credit_card_dark)">
<path d="M18.3337 4.72099V15.2764C18.3337 15.6514 18.196 15.9767 17.9205 16.2522C17.645 16.5277 17.3197 16.6654 16.9447 16.6654H3.05595C2.68095 16.6654 2.35567 16.5277 2.08012 16.2522C1.8047 15.9767 1.66699 15.6514 1.66699 15.2764V4.72099C1.66699 4.34599 1.8047 4.02071 2.08012 3.74516C2.35567 3.46974 2.68095 3.33203 3.05595 3.33203H16.9447C17.3197 3.33203 17.645 3.46974 17.9205 3.74516C18.196 4.02071 18.3337 4.34599 18.3337 4.72099ZM3.05595 6.79036H16.9447V4.72099H3.05595V6.79036ZM3.05595 9.69307V15.2764H16.9447V9.69307H3.05595Z" fill="#053749"/>
</g>
</svg>
