<svg width="528" height="300" viewBox="0 0 528 300" fill="none" xmlns="http://www.w3.org/2000/svg">
<g clip-path="url(#clip0_19792_21083)">
<path d="M332.341 284.44L61.7383 297.464C23.879 293.506 -3.59118 259.717 0.382028 221.996C4.35523 184.274 38.2672 156.904 76.1266 160.863L333.326 188.357L332.341 284.44Z" fill="#F7C400"/>
<mask id="mask0_19792_21083" style="mask-type:luminance" maskUnits="userSpaceOnUse" x="0" y="160" width="334" height="138">
<path d="M332.341 284.44L61.7383 297.464C23.879 293.506 -3.59118 259.717 0.382028 221.996C4.35523 184.274 38.2672 156.904 76.1266 160.863L333.326 188.357L332.341 284.44Z" fill="white"/>
</mask>
<g mask="url(#mask0_19792_21083)">
<path d="M346.482 193.779C341.41 193.405 341.264 195.367 336.191 194.993C331.117 194.618 331.274 192.501 326.2 192.127C321.127 191.753 321.094 192.205 316.021 191.83C310.947 191.456 310.971 191.136 305.897 190.761C300.824 190.387 300.789 190.852 295.716 190.478C290.643 190.104 290.531 191.603 285.458 191.228C280.384 190.854 280.536 188.808 275.462 188.434C270.389 188.059 270.257 189.83 265.184 189.456C260.11 189.082 260.119 188.973 255.045 188.598C249.971 188.224 249.957 188.402 244.883 188.028C239.809 187.654 239.823 187.465 234.75 187.09C229.676 186.716 229.713 186.218 224.639 185.844C219.565 185.47 219.523 186.041 214.449 185.667C209.375 185.292 209.54 183.083 204.466 182.709C199.392 182.335 199.35 182.902 194.276 182.527C189.201 182.153 189.16 182.71 184.085 182.336C179.011 181.961 178.937 182.95 173.863 182.576C168.789 182.202 168.801 182.039 163.727 181.664C158.654 181.29 158.766 179.783 153.693 179.409C148.62 179.034 148.609 179.172 143.536 178.797C138.462 178.423 138.467 178.36 133.393 177.985C128.318 177.611 128.181 179.459 123.106 179.084C118.032 178.71 118.163 176.955 113.089 176.581C108.014 176.206 107.886 177.935 102.812 177.56C97.7371 177.186 97.7427 177.11 92.6682 176.736C89.2848 176.486 85.9016 176.234 82.5186 175.979C77.4448 175.605 77.5617 174.032 72.488 173.657C67.4125 173.283 67.3159 174.582 62.2404 174.208C57.1647 173.833 57.2124 173.192 52.1366 172.817C47.0602 172.443 47.1114 171.753 42.035 171.379C36.9585 171.004 36.9514 171.1 31.875 170.725" stroke="#E30518" stroke-width="2" stroke-miterlimit="10" stroke-linecap="round"/>
<path d="M349.296 182.897C344.223 182.523 344.09 184.31 339.017 183.936C333.943 183.562 334.076 181.77 329.002 181.396C323.93 181.022 323.892 181.532 318.819 181.157C313.745 180.783 313.658 181.946 308.584 181.572C303.511 181.198 303.633 179.565 298.56 179.19C293.486 178.816 293.417 179.746 288.343 179.371C283.27 178.997 283.33 178.186 278.256 177.812C274.874 177.562 271.492 177.312 268.11 177.061C263.036 176.687 262.916 178.301 257.842 177.927C252.768 177.553 252.893 175.87 247.819 175.495C242.745 175.121 242.743 175.145 237.67 174.771C232.596 174.397 232.517 175.458 227.443 175.084C222.37 174.71 222.327 175.285 217.253 174.911C212.179 174.536 212.235 173.783 207.162 173.409C202.087 173.034 201.996 174.26 196.922 173.886C191.848 173.511 192.019 171.213 186.944 170.838C181.87 170.464 181.737 172.247 176.663 171.872C171.589 171.498 171.702 169.986 166.628 169.612C161.555 169.237 161.512 169.811 156.439 169.436C151.365 169.062 151.371 168.992 146.297 168.618C141.223 168.243 141.129 169.514 136.055 169.14C130.98 168.765 131.058 167.722 125.983 167.348C120.909 166.973 120.99 165.889 115.916 165.514C110.842 165.14 110.733 166.606 105.658 166.232C100.584 165.857 100.513 166.803 95.4388 166.429C90.3637 166.054 90.3944 165.64 85.3193 165.266C80.2456 164.891 80.2937 164.245 75.2199 163.87C70.1444 163.496 70.209 162.628 65.1335 162.253C60.0577 161.879 60.0379 162.146 54.9621 161.771C49.8857 161.397 49.9091 161.081 44.8327 160.707C39.7562 160.332 39.7249 160.754 34.6484 160.38" stroke="#E30518" stroke-width="2" stroke-miterlimit="10" stroke-linecap="round"/>
<path d="M371.766 207.865C366.611 207.485 366.59 207.764 361.435 207.384C356.279 207.003 356.255 207.318 351.099 206.938C345.943 206.557 345.897 207.186 340.741 206.806C335.585 206.426 335.661 205.401 330.506 205.02C325.349 204.64 325.333 204.857 320.176 204.476C315.021 204.096 314.989 204.525 309.833 204.145C304.676 203.764 304.628 204.413 299.471 204.032C294.315 203.652 294.438 201.996 289.282 201.616C285.844 201.362 282.407 201.104 278.969 200.843C273.813 200.462 273.738 201.472 268.582 201.092C263.426 200.711 263.55 199.038 258.394 198.657C253.237 198.277 253.212 198.61 248.056 198.23C242.899 197.849 242.914 197.654 237.758 197.274C232.601 196.893 232.495 198.323 227.338 197.942C222.181 197.562 222.222 197.01 217.065 196.63C211.908 196.249 211.925 196.018 206.768 195.637C201.612 195.257 201.495 196.829 196.338 196.448C191.181 196.068 191.338 193.958 186.182 193.577C181.025 193.197 180.903 194.839 175.746 194.459C170.589 194.078 170.58 194.205 165.423 193.824C160.265 193.444 160.287 193.154 155.129 192.773C149.972 192.393 149.934 192.905 144.777 192.524C139.62 192.144 139.747 190.438 134.59 190.058C129.433 189.677 129.311 191.321 124.155 190.94C118.999 190.56 119.142 188.634 113.986 188.253C108.829 187.873 108.669 190.022 103.512 189.641C98.3544 189.261 98.3826 188.881 93.2249 188.5C88.0681 188.12 88.0483 188.386 82.8915 188.006C77.7341 187.625 77.8293 186.345 72.6719 185.965C67.5144 185.584 67.541 185.226 62.3835 184.846C57.2254 184.465 57.1885 184.962 52.0304 184.582C46.8737 184.201 46.7881 185.353 41.6314 184.972C36.4729 184.592 36.4793 184.505 31.3208 184.125C26.1621 183.744 26.2758 182.213 21.1171 181.833C15.9577 181.452 15.972 181.259 10.8125 180.879C5.65305 180.498 5.51102 182.409 0.351562 182.028" stroke="#E30518" stroke-width="2" stroke-miterlimit="10" stroke-linecap="round"/>
<path d="M368.893 219.625C363.737 219.244 363.874 217.404 358.719 217.024C353.563 216.643 353.455 218.091 348.299 217.711C343.143 217.33 343.283 215.442 338.128 215.061C332.972 214.681 332.962 214.815 327.806 214.435C322.65 214.054 322.549 215.407 317.393 215.027C312.237 214.646 312.295 213.867 307.139 213.486C301.982 213.106 302.005 212.798 296.848 212.418C291.692 212.037 291.687 212.104 286.532 211.724C281.375 211.344 281.337 211.855 276.18 211.475C271.024 211.094 271.004 211.352 265.848 210.971C260.692 210.591 260.612 211.67 255.455 211.29C250.299 210.909 250.389 209.693 245.232 209.312C240.076 208.932 240.149 207.953 234.993 207.572C229.836 207.192 229.84 207.137 224.683 206.757C221.245 206.503 217.807 206.251 214.368 206.002C209.212 205.621 209.028 208.093 203.871 207.713C198.715 207.332 198.87 205.237 193.714 204.857C188.557 204.476 188.534 204.787 183.377 204.407C178.22 204.026 178.101 205.628 172.945 205.247C167.788 204.867 167.893 203.452 162.736 203.072C157.578 202.691 157.492 203.853 152.334 203.473C147.177 203.092 147.263 201.938 142.106 201.558C136.949 201.177 136.895 201.896 131.739 201.515C126.582 201.135 126.555 201.504 121.399 201.124C116.242 200.743 116.222 201.016 111.066 200.636C105.909 200.255 106.03 198.629 100.873 198.248C95.7151 197.868 95.6251 199.079 90.4674 198.699C85.3105 198.318 85.4299 196.713 80.273 196.332C75.1157 195.952 75.0505 196.828 69.8932 196.448C64.7357 196.067 64.745 195.942 59.5875 195.562C54.4294 195.181 54.3984 195.598 49.2403 195.217C44.0836 194.837 44.1345 194.152 38.9778 193.771C33.8193 193.39 33.7445 194.397 28.586 194.017C23.4273 193.636 23.4635 193.149 18.3047 192.768C13.1453 192.388 13.2106 191.509 8.05114 191.128C2.89169 190.747 2.84695 191.349 -2.3125 190.968" stroke="#E30518" stroke-width="2" stroke-miterlimit="10" stroke-linecap="round"/>
<path d="M371.592 231.264C366.436 230.884 366.456 230.626 361.3 230.245C356.144 229.865 356.073 230.819 350.917 230.438C345.761 230.058 345.838 229.025 340.682 228.645C335.527 228.264 335.599 227.29 330.443 226.91C325.287 226.529 325.267 226.8 320.11 226.419C314.955 226.039 314.914 226.578 309.759 226.198C304.602 225.817 304.669 224.913 299.512 224.532C294.356 224.152 294.227 225.894 289.071 225.513C283.914 225.133 283.989 224.125 278.832 223.745C273.676 223.364 273.629 223.988 268.473 223.608C263.317 223.227 263.259 224.01 258.102 223.629C252.946 223.249 252.977 222.831 247.82 222.45C242.664 222.07 242.783 220.469 237.627 220.088C232.47 219.708 232.45 219.969 227.294 219.589C222.137 219.208 222.048 220.396 216.891 220.016C211.734 219.635 211.745 219.491 206.588 219.111C201.432 218.73 201.481 218.063 196.325 217.683C191.168 217.302 191.128 217.834 185.972 217.453C180.815 217.073 180.882 216.175 175.725 215.795C170.568 215.414 170.46 216.868 165.303 216.487C160.145 216.107 160.126 216.359 154.969 215.978C149.812 215.598 149.996 213.114 144.839 212.734C139.682 212.353 139.66 212.65 134.503 212.269C129.347 211.889 129.346 211.907 124.19 211.527C119.033 211.146 118.945 212.329 113.789 211.949C108.632 211.569 108.688 210.819 103.531 210.438C98.3734 210.057 98.2887 211.197 93.131 210.816C87.9741 210.436 88.018 209.846 82.8611 209.466C77.7038 209.085 77.8102 207.653 72.6529 207.272C67.4954 206.892 67.474 207.18 62.3165 206.799C57.1584 206.418 57.0605 207.735 51.9024 207.354C46.7457 206.974 46.6832 207.816 41.5265 207.435C36.368 207.054 36.547 204.647 31.3885 204.266C26.2297 203.885 26.1444 205.033 20.9857 204.652C15.8262 204.271 15.8614 203.798 10.702 203.417C5.54252 203.036 5.51883 203.355 0.359375 202.974" stroke="#E30518" stroke-width="2" stroke-miterlimit="10" stroke-linecap="round"/>
<path d="M368.65 241.55C363.495 241.17 363.544 240.513 358.388 240.133C353.232 239.752 353.117 241.308 347.96 240.928C342.805 240.547 342.844 240.019 337.688 239.639C332.532 239.258 332.507 239.605 327.351 239.224C322.194 238.844 322.152 239.41 316.996 239.03C311.84 238.649 311.819 238.928 306.664 238.547C301.507 238.167 301.521 237.97 296.364 237.59C291.209 237.209 291.223 237.01 286.068 236.63C280.911 236.249 280.902 236.359 275.746 235.978C270.589 235.598 270.672 234.481 265.516 234.101C260.36 233.72 260.226 235.521 255.07 235.14C249.913 234.76 250.101 232.229 244.944 231.848C239.788 231.468 239.789 231.452 234.633 231.071C229.476 230.691 229.318 232.817 224.162 232.436C219.005 232.056 219.019 231.865 213.861 231.485C208.705 231.104 208.661 231.693 203.504 231.312C198.348 230.932 198.453 229.518 193.296 229.137C188.139 228.757 188.068 229.71 182.912 229.33C177.755 228.949 177.877 227.311 172.72 226.931C167.563 226.55 167.511 227.248 162.354 226.867C157.197 226.487 157.25 225.764 152.093 225.383C146.936 225.003 146.892 225.597 141.734 225.217C136.578 224.836 136.638 224.021 131.481 223.64C126.325 223.26 126.282 223.836 121.126 223.455C115.97 223.075 115.845 224.756 110.688 224.376C105.531 223.995 105.548 223.77 100.391 223.389C95.2336 223.009 95.4039 220.717 90.2462 220.337C85.0894 219.956 85.0223 220.858 79.8655 220.478C74.7081 220.097 74.6364 221.063 69.479 220.683C64.3215 220.302 64.4043 219.189 59.2468 218.808C54.0887 218.428 54.0243 219.294 48.8662 218.913C43.7095 218.533 43.6945 218.735 38.5378 218.354C33.3793 217.974 33.4685 216.774 28.31 216.393C23.1512 216.013 23.0223 217.747 17.8636 217.366C12.7041 216.985 12.7185 216.792 7.55907 216.411C2.39962 216.03 2.42508 215.688 -2.73438 215.307" stroke="#E30518" stroke-width="2" stroke-miterlimit="10" stroke-linecap="round"/>
<path d="M365.692 253.499C360.536 253.119 360.628 251.88 355.473 251.499C350.317 251.119 350.293 251.437 345.137 251.056C339.981 250.676 339.9 251.77 334.744 251.39C329.589 251.009 329.695 249.577 324.539 249.196C319.383 248.816 319.401 248.577 314.244 248.197C309.088 247.816 309.102 247.627 303.947 247.247C298.79 246.866 298.778 247.028 293.621 246.647C288.465 246.267 288.395 247.208 283.239 246.827C278.082 246.447 278.14 245.664 272.983 245.283C267.827 244.903 267.654 247.233 262.498 246.853C257.342 246.472 257.365 246.16 252.208 245.779C247.052 245.399 247.184 243.615 242.028 243.234C236.872 242.854 236.827 243.451 231.671 243.071C226.514 242.69 226.509 242.756 221.353 242.376C216.195 241.995 216.246 241.313 211.089 240.932C205.932 240.552 205.784 242.549 200.627 242.169C195.47 241.788 195.578 240.339 190.421 239.959C186.984 239.705 183.546 239.447 180.109 239.185C174.952 238.804 174.902 239.479 169.745 239.098C164.588 238.718 164.65 237.892 159.493 237.511C154.335 237.131 154.386 236.446 149.228 236.065C144.071 235.685 143.944 237.393 138.787 237.012C133.63 236.632 133.686 235.881 128.529 235.5C123.373 235.12 123.272 236.474 118.116 236.093C112.96 235.713 113.047 234.543 107.891 234.162C102.734 233.782 102.72 233.959 97.5636 233.579C92.4059 233.198 92.3667 233.726 87.209 233.345C82.0521 232.965 82.0237 233.347 76.8669 232.966C71.7096 232.586 71.7791 231.65 66.6218 231.269C61.4643 230.889 61.4105 231.612 56.253 231.232C51.0949 230.851 51.2411 228.883 46.083 228.503C40.9263 228.122 40.8724 228.848 35.7157 228.467C30.5572 228.087 30.5398 228.321 25.3813 227.941C20.2225 227.56 20.2996 226.523 15.1409 226.143C9.98142 225.762 9.84267 227.629 4.68321 227.248C-0.47624 226.867 -0.50461 227.249 -5.66406 226.868" stroke="#E30518" stroke-width="2" stroke-miterlimit="10" stroke-linecap="round"/>
<path d="M363.621 263.297C358.466 262.916 358.514 262.265 353.359 261.885C348.203 261.504 348.06 263.421 342.904 263.04C337.748 262.66 337.916 260.405 332.76 260.025C327.605 259.644 327.509 260.933 322.353 260.553C317.197 260.172 317.225 259.795 312.068 259.415C306.912 259.034 306.964 258.338 301.809 257.957C296.652 257.577 296.535 259.147 291.378 258.766C286.222 258.386 286.172 259.063 281.016 258.683C275.859 258.302 275.866 258.203 270.709 257.822C265.553 257.442 265.684 255.683 260.528 255.303C255.371 254.923 255.373 254.907 250.216 254.526C245.06 254.146 245.108 253.49 239.952 253.109C234.795 252.729 234.685 254.218 229.529 253.837C224.372 253.457 224.383 253.309 219.226 252.928C214.069 252.547 213.997 253.519 208.839 253.139C203.683 252.758 203.822 250.878 198.666 250.498C193.509 250.117 193.478 250.531 188.322 250.15C183.165 249.77 183.195 249.361 178.039 248.981C172.882 248.6 172.749 250.394 167.592 250.014C162.435 249.633 162.579 247.692 157.422 247.311C152.264 246.931 152.101 249.128 146.944 248.747C141.787 248.367 141.891 246.962 136.734 246.582C131.577 246.201 131.641 245.335 126.484 244.954C121.328 244.574 121.209 246.182 116.052 245.802C112.615 245.548 109.177 245.293 105.74 245.036C102.302 244.782 98.8644 244.527 95.4267 244.271C90.269 243.891 90.3587 242.683 85.201 242.303C80.0442 241.922 79.997 242.557 74.8402 242.176C69.6828 241.796 69.6368 242.415 64.4795 242.034C59.322 241.653 59.2713 242.336 54.1138 241.955C48.9557 241.574 49.0291 240.587 43.871 240.207C38.7143 239.826 38.7551 239.277 33.5984 238.896C28.4399 238.516 28.4578 238.275 23.2993 237.894C18.1406 237.513 18.1624 237.22 13.0036 236.839C7.84419 236.459 7.87208 236.083 2.71263 235.703C-2.44682 235.322 -2.62961 237.781 -7.78906 237.4" stroke="#E30518" stroke-width="2" stroke-miterlimit="10" stroke-linecap="round"/>
<path d="M363.149 272.281C357.994 271.901 357.996 271.874 352.841 271.493C347.684 271.113 347.561 272.774 342.405 272.394C337.249 272.013 337.307 271.235 332.151 270.854C326.995 270.474 326.979 270.697 321.823 270.316C316.667 269.936 316.722 269.184 311.566 268.803C306.41 268.423 306.447 267.925 301.292 267.544C296.135 267.164 295.98 269.239 290.823 268.858C285.668 268.478 285.805 266.63 280.649 266.249C275.492 265.869 275.397 267.151 270.24 266.771C265.084 266.39 265.109 266.046 259.953 265.666C254.797 265.285 254.874 264.246 249.718 263.866C244.561 263.485 244.541 263.753 239.384 263.373C234.228 262.992 234.102 264.685 228.946 264.304C223.789 263.924 223.857 263.012 218.701 262.631C213.543 262.251 213.526 262.49 208.368 262.11C203.212 261.729 203.163 262.384 198.006 262.004C192.85 261.623 193.008 259.486 187.852 259.106C182.695 258.725 182.539 260.824 177.382 260.443C172.226 260.063 172.218 260.168 167.061 259.787C161.904 259.407 162.015 257.91 156.858 257.53C151.701 257.149 151.643 257.929 146.485 257.548C141.328 257.168 141.265 258.019 136.108 257.639C130.951 257.258 130.946 257.328 125.789 256.948C120.632 256.567 120.75 254.989 115.594 254.608C110.437 254.228 110.486 253.569 105.33 253.189C100.173 252.808 100.041 254.589 94.8838 254.208C89.7261 253.828 89.807 252.739 84.6493 252.358C79.4925 251.978 79.403 253.182 74.2461 252.802C69.0888 252.421 69.2309 250.51 64.0735 250.129C58.916 249.749 58.7774 251.613 53.6199 251.232C48.4618 250.852 48.4663 250.792 43.3082 250.411C38.1515 250.031 38.1843 249.589 33.0276 249.208C27.8691 248.828 27.9694 247.478 22.811 247.098C17.6522 246.717 17.5019 248.739 12.3432 248.359C7.1837 247.978 7.16613 248.214 2.00668 247.834C-3.15277 247.453 -3.05148 246.09 -8.21094 245.709" stroke="#E30518" stroke-width="2" stroke-miterlimit="10" stroke-linecap="round"/>
<path d="M362.024 283.229C356.869 282.848 356.923 282.116 351.768 281.735C346.612 281.355 346.623 281.201 341.467 280.821C336.311 280.44 336.208 281.829 331.052 281.448C325.896 281.068 325.998 279.705 320.842 279.325C315.685 278.944 315.725 278.412 310.568 278.032C305.413 277.651 305.401 277.814 300.245 277.434C295.088 277.053 294.937 279.087 289.78 278.707C284.624 278.326 284.696 277.355 279.54 276.975C274.383 276.594 274.342 277.155 269.185 276.775C264.029 276.395 264.097 275.469 258.941 275.089C253.785 274.708 253.868 273.592 248.711 273.212C243.555 272.831 243.435 274.448 238.278 274.067C233.122 273.687 233.157 273.217 228 272.837C222.844 272.456 222.786 273.236 217.629 272.855C212.472 272.475 212.469 272.514 207.312 272.134C202.155 271.753 202.164 271.636 197.007 271.255C191.85 270.875 191.823 271.239 186.667 270.858C181.51 270.478 181.548 269.967 176.391 269.587C171.234 269.206 171.239 269.139 166.083 268.758C160.926 268.378 161.036 266.892 155.879 266.511C150.722 266.13 150.652 267.063 145.495 266.682C140.338 266.302 140.372 265.833 135.215 265.453C130.058 265.072 130.105 264.443 124.948 264.063C119.792 263.682 119.778 263.873 114.622 263.492C109.465 263.112 109.417 263.758 104.261 263.377C99.1041 262.997 99.1743 262.053 94.0174 261.672C88.8597 261.292 88.831 261.678 83.6733 261.297C78.5165 260.917 78.5467 260.51 73.3898 260.13C68.2325 259.749 68.2134 260.006 63.056 259.626C57.8985 259.245 57.7742 260.919 52.6167 260.538C47.4586 260.157 47.5741 258.602 42.416 258.222C37.2593 257.841 37.2245 258.31 32.0678 257.93C26.9093 257.549 26.8935 257.762 21.735 257.381C16.5762 257.001 16.6426 256.108 11.4838 255.727C8.0442 255.474 4.60471 255.218 1.16535 254.96C-3.99411 254.58 -4.10617 256.087 -9.26562 255.707" stroke="#E30518" stroke-width="2" stroke-miterlimit="10" stroke-linecap="round"/>
<path d="M364.463 292.316C359.308 291.936 359.271 292.438 354.116 292.057C348.959 291.677 349.073 290.144 343.917 289.763C338.761 289.383 338.826 288.52 333.67 288.14C328.514 287.76 328.483 288.178 323.327 287.798C318.171 287.417 318.065 288.843 312.908 288.462C307.753 288.082 307.768 287.872 302.612 287.492C297.455 287.111 297.415 287.651 292.258 287.27C287.103 286.89 287.259 284.781 282.103 284.401C276.947 284.02 276.865 285.121 271.708 284.741C266.552 284.36 266.637 283.21 261.481 282.829C256.325 282.449 256.137 284.976 250.98 284.596C245.824 284.215 245.93 282.779 240.774 282.398C235.618 282.018 235.565 282.733 230.408 282.352C225.252 281.972 225.24 282.121 220.084 281.741C214.926 281.36 215.039 279.852 209.881 279.471C204.725 279.091 204.735 278.957 199.578 278.576C194.421 278.196 194.299 279.834 189.143 279.454C183.986 279.073 184.069 277.957 178.912 277.577C173.756 277.196 173.72 277.673 168.563 277.293C165.125 277.039 161.688 276.782 158.25 276.52C153.093 276.139 153.004 277.326 147.847 276.945C142.69 276.565 142.784 275.297 137.627 274.917C132.47 274.536 132.48 274.397 127.323 274.016C122.167 273.636 122.229 272.799 117.073 272.419C111.917 272.038 111.794 273.696 106.637 273.316C101.481 272.935 101.611 271.174 96.4546 270.793C91.2969 270.413 91.1157 272.85 85.958 272.47C80.8011 272.089 80.8751 271.094 75.7183 270.714C70.5609 270.333 70.5621 270.317 65.4048 269.937C60.2473 269.556 60.1988 270.208 55.0413 269.828C49.8832 269.447 49.8702 269.622 44.7121 269.242C39.5554 268.861 39.6901 267.048 34.5334 266.668C29.3749 266.287 29.3173 267.062 24.1588 266.682C19.0001 266.301 19.0183 266.057 13.8595 265.676C8.70006 265.295 8.66059 265.826 3.50114 265.445C-1.65831 265.065 -1.58273 264.048 -6.74219 263.667" stroke="#E30518" stroke-width="2" stroke-miterlimit="10" stroke-linecap="round"/>
<path d="M364.556 301.462C359.401 301.082 359.337 301.942 354.182 301.562C349.025 301.181 349.084 300.394 343.928 300.013C338.772 299.633 338.825 298.913 333.67 298.533C328.514 298.152 328.483 298.574 323.327 298.194C318.17 297.813 318.088 298.921 312.932 298.541C307.776 298.16 307.923 296.178 302.768 295.797C297.611 295.417 297.488 297.064 292.331 296.683C287.175 296.303 287.147 296.684 281.991 296.303C276.834 295.923 276.976 294.013 271.819 293.632C266.663 293.252 266.583 294.334 261.427 293.954C256.27 293.573 256.357 292.401 251.201 292.021C246.044 291.64 245.964 292.725 240.807 292.344C235.651 291.964 235.76 290.49 230.604 290.109C225.447 289.729 225.287 291.893 220.13 291.513C214.973 291.132 214.996 290.823 209.838 290.442C204.682 290.062 204.737 289.321 199.58 288.94C194.423 288.56 194.337 289.718 189.181 289.337C184.024 288.957 184.053 288.564 178.896 288.184C173.74 287.803 173.703 288.3 168.546 287.919C163.389 287.539 163.476 286.366 158.319 285.986C153.162 285.605 153.129 286.046 147.971 285.665C142.814 285.285 142.799 285.491 137.642 285.111C132.485 284.73 132.513 284.345 127.356 283.965C122.2 283.584 122.146 284.32 116.989 283.94C111.833 283.559 111.854 283.284 106.697 282.903C101.54 282.523 101.618 281.483 96.4607 281.102C91.303 280.722 91.203 282.068 86.0453 281.687C80.8884 281.307 80.8753 281.483 75.7185 281.102C70.5611 280.722 70.5679 280.632 65.4105 280.251C60.253 279.871 60.3227 278.933 55.1652 278.553C50.0071 278.172 50.0745 277.265 44.9164 276.884C39.7597 276.504 39.6381 278.14 34.4814 277.759C29.3229 277.378 29.351 277.001 24.1925 276.621C19.0337 276.24 19.1061 275.266 13.9474 274.885C8.78793 274.505 8.723 275.378 3.56354 274.997C-1.59591 274.617 -1.61398 274.86 -6.77344 274.479" stroke="#E30518" stroke-width="2" stroke-miterlimit="10" stroke-linecap="round"/>
<path d="M365.413 309.941C360.258 309.56 360.316 308.783 355.16 308.402C350.004 308.022 349.859 309.98 344.702 309.6C339.547 309.219 339.553 309.129 334.398 308.748C329.242 308.368 329.282 307.824 324.127 307.444C318.97 307.063 318.986 306.844 313.83 306.464C308.674 306.083 308.625 306.749 303.469 306.369C298.312 305.988 298.356 305.399 293.199 305.018C288.043 304.638 288.025 304.882 282.869 304.502C277.712 304.121 277.798 302.96 272.642 302.58C267.485 302.199 267.371 303.737 262.215 303.356C257.059 302.976 257.236 300.596 252.079 300.216C246.922 299.835 246.767 301.922 241.611 301.542C236.454 301.161 236.549 299.887 231.393 299.507C226.236 299.126 226.301 298.254 221.144 297.874C215.987 297.493 215.801 299.99 210.644 299.609C205.488 299.229 205.501 299.053 200.344 298.673C195.187 298.292 195.31 296.639 190.153 296.258C184.997 295.878 185.008 295.732 179.851 295.351C174.694 294.971 174.683 295.116 169.527 294.735C164.37 294.355 164.325 294.949 159.168 294.568C154.011 294.188 153.931 295.265 148.773 294.884C143.616 294.503 143.677 293.681 138.52 293.301C133.363 292.92 133.454 291.704 128.297 291.323C123.141 290.943 123.035 292.368 117.878 291.987C112.722 291.607 112.843 289.987 107.686 289.607C102.529 289.226 102.358 291.531 97.2011 291.151C92.0434 290.77 92.2111 288.515 87.0534 288.134C81.8965 287.753 81.841 288.5 76.6842 288.12C71.5268 287.739 71.4094 289.319 66.252 288.939C61.0946 288.558 61.259 286.346 56.1015 285.965C50.9434 285.585 50.9633 285.317 45.8052 284.937C40.6485 284.556 40.5213 286.267 35.3646 285.887C30.2061 285.506 30.1937 285.672 25.0352 285.292C19.8765 284.911 20.0083 283.138 14.8496 282.757C9.69013 282.376 9.59036 283.718 4.43091 283.338C-0.728544 282.957 -0.746797 283.203 -5.90625 282.822" stroke="#E30518" stroke-width="2" stroke-miterlimit="10" stroke-linecap="round"/>
</g>
<path d="M100.231 81.6132L365.374 107.471L357.199 190.691L92.0556 164.833C69.0064 162.586 52.125 142.116 54.3811 119.151C56.6371 96.1853 77.1818 79.3654 100.231 81.6132Z" fill="#ED6FA7"/>
<path d="M100.231 81.6132L365.374 107.471L357.199 190.691L92.0556 164.833C69.0064 162.586 52.125 142.116 54.3811 119.151C56.6371 96.1853 77.1818 79.3654 100.231 81.6132Z" fill="url(#paint0_linear_19792_21083)"/>
<path d="M147.332 8.70103L365.787 0C395.982 2.94467 418.064 29.7202 415.108 59.8049C412.153 89.8896 385.279 111.891 355.085 108.946L143.18 88.2808L147.332 8.70103Z" fill="#F7C400"/>
<mask id="mask1_19792_21083" style="mask-type:luminance" maskUnits="userSpaceOnUse" x="143" y="0" width="273" height="110">
<path d="M147.332 8.70103L365.787 0C395.982 2.94467 418.064 29.7202 415.108 59.8049C412.153 89.8896 385.279 111.891 355.085 108.946L143.18 88.2808L147.332 8.70103Z" fill="white"/>
</mask>
<g mask="url(#mask1_19792_21083)">
<path d="M146.648 21.6719C149.357 21.5887 149.348 21.2995 152.057 21.2163C154.765 21.1331 154.791 21.9686 157.5 21.8854C160.208 21.8021 160.169 20.5441 162.878 20.4608C165.587 20.3776 165.585 20.3143 168.295 20.231C171.004 20.1477 171.053 21.7389 173.762 21.6557C176.47 21.5724 176.421 19.9658 179.129 19.8825C181.838 19.7993 181.833 19.6371 184.542 19.5538C187.251 19.4706 187.27 20.0656 189.979 19.9823C192.688 19.8991 192.732 21.3289 195.441 21.2456C198.15 21.1624 198.129 20.4879 200.838 20.4046C203.547 20.3214 203.519 19.4178 206.229 19.3345C208.937 19.2513 208.975 20.4537 211.683 20.3704C214.393 20.2872 214.332 18.3097 217.041 18.2265C219.75 18.1432 219.797 19.6466 222.506 19.5633C225.215 19.4801 225.172 18.0894 227.881 18.0061C230.59 17.9229 230.634 19.3304 233.343 19.2471C236.052 19.1639 236.086 20.2551 238.795 20.1719C241.505 20.0886 241.505 20.0779 244.215 19.9946C246.924 19.9113 246.917 19.6993 249.626 19.616C252.336 19.5327 252.321 19.0478 255.031 18.9645C257.74 18.8813 257.72 18.2447 260.429 18.1614C263.139 18.0782 263.122 17.5447 265.832 17.4614C268.542 17.3782 268.593 19.0506 271.303 18.9673C274.011 18.8841 273.985 18.0281 276.693 17.9449C279.402 17.8616 279.391 17.5203 282.101 17.437C284.809 17.3538 284.841 18.385 287.549 18.3018C290.258 18.2185 290.264 18.4077 292.973 18.3244C295.682 18.2412 295.615 16.0856 298.324 16.0024C301.033 15.9191 301.061 16.8389 303.77 16.7557C306.479 16.6724 306.442 15.4686 309.151 15.3853C311.861 15.3021 311.887 16.1514 314.597 16.0681C317.306 15.9849 317.344 17.2119 320.053 17.1286C322.763 17.0453 322.744 16.4554 325.454 16.3721C328.165 16.2889 328.169 16.4389 330.879 16.3556C333.589 16.2723 333.61 16.9335 336.32 16.8503C339.029 16.767 338.971 14.8836 341.681 14.8003C344.391 14.717 344.384 14.473 347.094 14.3897C349.804 14.3064 349.881 16.7895 352.592 16.7062C355.302 16.6229 355.23 14.2876 357.94 14.2043C360.65 14.121 360.641 13.829 363.351 13.7457C366.06 13.6624 366.095 14.7735 368.805 14.6902C371.514 14.6069 371.503 14.2531 374.213 14.1699C376.924 14.0866 376.926 14.1495 379.636 14.0662C382.348 13.9828 382.345 13.8892 385.056 13.8059C387.767 13.7226 387.787 14.3671 390.498 14.2838C393.21 14.2005 393.197 13.7719 395.909 13.6886C398.622 13.6052 398.669 15.1364 401.382 15.053" stroke="#0072BA" stroke-width="2" stroke-miterlimit="10"/>
<path d="M145.547 32.6021C148.279 32.5314 148.32 34.0957 151.052 34.0251C153.784 33.9545 153.802 34.6506 156.533 34.58C159.265 34.5094 159.25 33.9666 161.982 33.896C164.713 33.8254 164.696 33.1671 167.428 33.0965C170.16 33.0259 170.163 33.1323 172.895 33.0617C175.627 32.9911 175.615 32.5309 178.346 32.4603C181.078 32.3897 181.054 31.4913 183.786 31.4207C186.518 31.3501 186.555 32.7833 189.287 32.7127C192.019 32.6421 191.992 31.6039 194.724 31.5333C197.455 31.4627 197.511 33.5859 200.242 33.5153C202.974 33.4446 202.914 31.1199 205.646 31.0493C208.378 30.9786 208.422 32.6766 211.154 32.606C213.886 32.5354 213.868 31.8656 216.6 31.795C219.332 31.7243 219.35 32.406 222.082 32.3354C224.814 32.2648 224.789 31.3143 227.521 31.2437C230.253 31.1731 230.263 31.5385 232.995 31.4679C235.727 31.3972 235.7 30.3676 238.433 30.297C241.165 30.2264 241.183 30.9309 243.915 30.8603C246.647 30.7897 246.681 32.064 249.413 31.9934C252.145 31.9227 252.098 30.0948 254.83 30.0242C257.562 29.9536 257.618 32.0857 260.35 32.015C263.083 31.9444 263.027 29.8191 265.759 29.7484C268.492 29.6778 268.491 29.6537 271.223 29.583C273.956 29.5124 273.995 31.0207 276.728 30.9501C279.46 30.8794 279.432 29.8274 282.165 29.7568C284.897 29.6862 284.906 30.0471 287.638 29.9765C290.369 29.9059 290.366 29.788 293.097 29.7174C295.829 29.6468 295.833 29.7947 298.565 29.7241C301.296 29.6534 301.324 30.7233 304.055 30.6527C306.787 30.5821 306.741 28.7851 309.472 28.7145C312.204 28.6439 312.196 28.3356 314.928 28.265C317.661 28.1944 317.668 28.4889 320.401 28.4182C323.133 28.3476 323.172 29.8671 325.904 29.7965C328.637 29.7259 328.645 30.0601 331.378 29.9895C334.111 29.9189 334.091 29.1702 336.825 29.0995C339.557 29.0289 339.517 27.4999 342.25 27.4293C344.983 27.3586 345.042 29.6205 347.774 29.5498C350.507 29.4792 350.449 27.2413 353.182 27.1707C355.915 27.1 355.977 29.4627 358.71 29.392C361.443 29.3214 361.389 27.2143 364.122 27.1436C366.854 27.073 366.901 28.8603 369.633 28.7897C372.366 28.7191 372.308 26.4821 375.04 26.4114C377.773 26.3408 377.826 28.3953 380.559 28.3246C383.292 28.254 383.261 27.0311 385.994 26.9604C388.728 26.8897 388.722 26.6562 391.457 26.5855C394.19 26.5148 394.219 27.6321 396.953 27.5615C399.688 27.4908 399.687 27.4685 402.423 27.3978C405.158 27.3271 405.142 26.7208 407.877 26.6501" stroke="#0072BA" stroke-width="2" stroke-miterlimit="10"/>
<path d="M144.797 48.8546C147.489 48.8053 147.467 47.5923 150.16 47.543C152.853 47.4938 152.851 47.3802 155.543 47.3309C158.237 47.2816 158.267 48.8841 160.961 48.8348C163.654 48.7855 163.611 46.4916 166.305 46.4423C168.997 46.393 169.011 47.1436 171.704 47.0943C174.397 47.0451 174.412 47.8545 177.105 47.8052C179.799 47.756 179.805 48.1104 182.499 48.0612C185.193 48.0119 185.165 46.5324 187.858 46.4832C190.551 46.4339 190.551 46.4191 193.244 46.3698C195.938 46.3206 195.971 48.1525 198.665 48.1032C201.358 48.0539 201.341 47.1206 204.035 47.0713C206.728 47.022 206.735 47.3874 209.428 47.3381C212.121 47.2889 212.106 46.4447 214.799 46.3954C217.493 46.3462 217.493 46.3336 220.186 46.2844C222.879 46.2351 222.888 46.7211 225.582 46.6718C228.275 46.6225 228.286 47.1831 230.979 47.1338C233.673 47.0846 233.656 46.1541 236.349 46.1048C239.043 46.0556 239.067 47.3427 241.76 47.2934C244.454 47.2442 244.417 45.2631 247.111 45.2138C249.805 45.1645 249.806 45.2265 252.499 45.1773C255.194 45.128 255.223 46.7221 257.917 46.6728C260.611 46.6236 260.621 47.1652 263.314 47.1159C266.008 47.0666 265.995 46.3297 268.689 46.2804C271.383 46.2311 271.351 44.5109 274.045 44.4617C276.738 44.4124 276.754 45.2756 279.448 45.2263C282.142 45.177 282.143 45.2201 284.837 45.1709C287.53 45.1216 287.533 45.2883 290.225 45.2391C292.919 45.1898 292.905 44.4226 295.598 44.3733C298.291 44.3241 298.283 43.9021 300.975 43.8528C303.669 43.8035 303.717 46.4047 306.411 46.3555C309.104 46.3062 309.066 44.2702 311.759 44.221C314.453 44.1717 314.447 43.8277 317.14 43.7784C319.833 43.7292 319.847 44.4899 322.541 44.4406C325.235 44.3913 325.251 45.2758 327.945 45.2265C330.639 45.1772 330.614 43.8207 333.307 43.7714C336.002 43.7222 336 43.6472 338.694 43.5979C341.389 43.5486 341.407 44.5128 344.101 44.4635C346.796 44.4143 346.769 42.9439 349.463 42.8946C352.157 42.8453 352.189 44.5706 354.883 44.5213C357.578 44.472 357.583 44.7824 360.278 44.7331C362.973 44.6838 362.976 44.8202 365.671 44.7709C368.365 44.7216 368.338 43.2344 371.032 43.1851C373.726 43.1358 373.761 44.9968 376.455 44.9475C379.149 44.8982 379.133 44.0096 381.827 43.9603C384.521 43.911 384.523 44.0178 387.217 43.9685C389.912 43.9192 389.906 43.5655 392.601 43.5162C395.297 43.4669 395.312 44.3076 398.008 44.2583C400.703 44.209 400.674 42.6175 403.369 42.5682C406.066 42.5189 406.093 44.0091 408.79 43.9598C411.487 43.9105 411.466 42.7499 414.162 42.7005" stroke="#0072BA" stroke-width="2" stroke-miterlimit="10"/>
<path d="M144 61.299C146.726 61.2491 146.703 60.0084 149.43 59.9586C152.157 59.9087 152.199 62.231 154.926 62.1812C157.654 62.1313 157.636 61.1633 160.363 61.1134C163.09 61.0635 163.07 59.9819 165.797 59.932C168.524 59.8821 168.526 59.997 171.252 59.9471C173.979 59.8972 173.973 59.5625 176.7 59.5126C179.427 59.4627 179.459 61.1547 182.186 61.1048C184.913 61.0549 184.919 61.3565 187.646 61.3067C190.372 61.2568 190.348 59.9214 193.075 59.8715C195.802 59.8216 195.807 60.08 198.534 60.0301C201.261 59.9802 201.249 59.2979 203.976 59.248C206.703 59.1981 206.715 59.8573 209.442 59.8074C212.169 59.7575 212.186 60.6891 214.913 60.6392C217.641 60.5893 217.639 60.4641 220.366 60.4142C223.093 60.3643 223.076 59.457 225.803 59.4071C228.531 59.3572 228.527 59.1615 231.255 59.1116C233.982 59.0618 233.999 59.9944 236.726 59.9445C239.454 59.8946 239.451 59.7525 242.178 59.7026C244.906 59.6527 244.916 60.211 247.644 60.1611C250.371 60.1113 250.358 59.3968 253.085 59.3469C255.813 59.297 255.793 58.1992 258.521 58.1493C261.248 58.0994 261.287 60.1942 264.014 60.1444C266.742 60.0945 266.707 58.1883 269.435 58.1384C272.162 58.0885 272.199 60.1021 274.927 60.0522C277.654 60.0023 277.613 57.7496 280.341 57.6997C283.068 57.6498 283.072 57.8598 285.8 57.8099C288.526 57.7601 288.547 58.9107 291.274 58.8608C294.001 58.8109 293.98 57.6323 296.707 57.5824C299.433 57.5325 299.468 59.4213 302.194 59.3714C304.922 59.3215 304.892 57.7108 307.619 57.6609C310.346 57.611 310.339 57.2365 313.066 57.1866C315.793 57.1368 315.8 57.5234 318.528 57.4735C321.255 57.4236 321.253 57.3345 323.98 57.2846C326.708 57.2347 326.71 57.3183 329.438 57.2684C332.165 57.2185 332.196 58.9166 334.923 58.8667C337.651 58.8168 337.652 58.8416 340.38 58.7917C343.108 58.7418 343.088 57.6477 345.817 57.5978C348.545 57.5479 348.557 58.2493 351.285 58.1994C354.014 58.1495 353.987 56.7211 356.715 56.6712C359.444 56.6213 359.47 58.0531 362.198 58.0032C364.927 57.9532 364.929 58.0274 367.657 57.9775C370.386 57.9276 370.376 57.4163 373.105 57.3664C375.833 57.3165 375.826 56.9665 378.554 56.9166C381.282 56.8667 381.274 56.454 384.002 56.4041C386.73 56.3542 386.724 56.0303 389.453 55.9804C392.181 55.9305 392.179 55.793 394.907 55.7431C397.637 55.6932 397.65 56.3918 400.38 56.3419C403.108 56.2919 403.113 56.5578 405.842 56.5079C408.573 56.4579 408.563 55.9173 411.294 55.8673C414.024 55.8174 414.022 55.7052 416.753 55.6553" stroke="#0072BA" stroke-width="2" stroke-miterlimit="10"/>
<path d="M142.766 75.6183C145.492 75.5684 145.516 76.8698 148.242 76.82C150.969 76.7701 150.938 75.0772 153.664 75.0273C156.392 74.9774 156.389 74.8329 159.117 74.783C161.844 74.7331 161.842 74.6319 164.569 74.582C167.295 74.5321 167.326 76.1833 170.052 76.1334C172.779 76.0835 172.762 75.1584 175.489 75.1085C178.217 75.0586 178.2 74.1782 180.928 74.1283C183.655 74.0784 183.691 76.0246 186.418 75.9748C189.145 75.9249 189.142 75.773 191.868 75.7231C194.596 75.6732 194.579 74.7546 197.306 74.7047C200.033 74.6548 200.05 75.5507 202.777 75.5008C205.504 75.4509 205.466 73.412 208.193 73.3621C210.921 73.3122 210.949 74.8325 213.676 74.7827C216.403 74.7328 216.373 73.1162 219.101 73.0663C221.828 73.0164 221.867 75.1168 224.594 75.0669C227.321 75.017 227.313 74.5668 230.04 74.5169C232.768 74.467 232.776 74.9292 235.503 74.8793C238.231 74.8294 238.189 72.5557 240.916 72.5058C243.644 72.4559 243.687 74.7889 246.414 74.739C249.142 74.6892 249.122 73.6047 251.849 73.5548C254.577 73.5049 254.591 74.277 257.319 74.2271C260.046 74.1773 260.013 72.3941 262.741 72.3442C265.469 72.2943 265.471 72.4004 268.198 72.3505C270.926 72.3006 270.929 72.4629 273.656 72.413C276.384 72.3632 276.379 72.1151 279.107 72.0652C281.835 72.0153 281.85 72.8663 284.578 72.8164C287.305 72.7665 287.304 72.7511 290.031 72.7012C292.758 72.6513 292.757 72.613 295.485 72.5632C298.211 72.5133 298.226 73.3124 300.952 73.2625C303.679 73.2127 303.645 71.337 306.372 71.2871C309.099 71.2373 309.147 73.8462 311.874 73.7963C314.601 73.7464 314.582 72.72 317.31 72.6701C320.037 72.6202 320.01 71.1637 322.737 71.1138C325.465 71.0639 325.489 72.3577 328.217 72.3078C330.944 72.2579 330.96 73.1611 333.688 73.1112C336.416 73.0613 336.387 71.4887 339.115 71.4388C341.843 71.3889 341.844 71.4449 344.573 71.395C347.301 71.3451 347.318 72.3055 350.046 72.2556C352.774 72.2057 352.781 72.5706 355.509 72.5207C358.237 72.4708 358.208 70.8854 360.937 70.8355C363.665 70.7855 363.667 70.8506 366.395 70.8007C369.124 70.7508 369.157 72.5546 371.885 72.5047C374.613 72.4548 374.569 70.0393 377.297 69.9894C380.025 69.9395 380.042 70.8683 382.77 70.8184C385.498 70.7685 385.517 71.7937 388.245 71.7438C390.973 71.6939 390.963 71.111 393.691 71.0611C396.421 71.0112 396.416 70.7461 399.146 70.6961C401.875 70.6462 401.858 69.7276 404.587 69.6777C407.317 69.6278 407.343 71.0055 410.073 70.9556C412.804 70.9056 412.796 70.4544 415.526 70.4044" stroke="#0072BA" stroke-width="2" stroke-miterlimit="10"/>
<path d="M142.242 85.0157C144.98 85.0246 144.976 86.4626 147.714 86.4715C150.451 86.4803 150.45 86.6867 153.188 86.6956C155.925 86.7044 155.925 86.5134 158.662 86.5223C161.399 86.5311 161.406 84.4349 164.143 84.4438C166.882 84.4526 166.879 85.3135 169.617 85.3224C172.354 85.3312 172.35 86.7814 175.087 86.7902C177.824 86.7991 177.826 86.225 180.563 86.2339C183.301 86.2427 183.3 86.3514 186.038 86.3603C188.776 86.3691 188.781 84.7351 191.519 84.7439C194.256 84.7528 194.252 86.1369 196.989 86.1458C199.727 86.1546 199.725 86.7688 202.463 86.7777C205.2 86.7865 205.205 85.2302 207.943 85.2391C210.681 85.2479 210.681 85.1909 213.418 85.1998C216.156 85.2086 216.153 86.3499 218.891 86.3587C221.628 86.3676 221.634 84.5775 224.372 84.5863C227.11 84.5952 227.107 85.4955 229.844 85.5044C232.583 85.5132 232.582 85.6947 235.32 85.7036C238.058 85.7124 238.061 84.7714 240.798 84.7803C243.537 84.7891 243.536 85.1775 246.274 85.1864C249.012 85.1952 249.012 85.2415 251.749 85.2503C254.488 85.2592 254.487 85.3896 257.226 85.3984C259.964 85.4073 259.965 84.8026 262.703 84.8115C265.441 84.8203 265.434 87.234 268.172 87.2429C270.91 87.2517 270.911 86.989 273.649 86.9978C276.387 87.0067 276.387 86.8545 279.125 86.8634C281.863 86.8722 281.865 86.2346 284.603 86.2434C287.34 86.2523 287.342 85.6744 290.078 85.6833C292.816 85.6921 292.816 85.7428 295.554 85.7517C298.291 85.7605 298.287 86.8657 301.024 86.8746C303.762 86.8834 303.764 86.2861 306.502 86.295C309.239 86.3038 309.237 87.0525 311.974 87.0613C314.713 87.0701 314.716 85.9456 317.455 85.9545C320.192 85.9633 320.196 84.9272 322.933 84.9361C325.672 84.9449 325.67 85.5137 328.408 85.5226C331.147 85.5314 331.146 85.7234 333.885 85.7322C336.624 85.7411 336.62 86.7796 339.359 86.7884C342.097 86.7973 342.096 87.1952 344.834 87.204C347.573 87.2129 347.577 86.0099 350.316 86.0187C353.055 86.0276 353.055 85.8681 355.795 85.8769C358.533 85.8858 358.528 87.4135 361.267 87.4224C364.006 87.4312 364.005 87.4688 366.744 87.4777C369.482 87.4865 369.484 86.8729 372.223 86.8817C374.961 86.8906 374.965 85.5114 377.704 85.5203C380.443 85.5291 380.439 86.7776 383.178 86.7864C385.918 86.7953 385.919 86.6423 388.659 86.6512C391.398 86.66 391.4 85.9846 394.139 85.9934C396.88 86.0023 396.881 85.9536 399.622 85.9625C402.363 85.9713 402.362 86.2236 405.103 86.2324" stroke="#0072BA" stroke-width="2" stroke-miterlimit="10"/>
</g>
<path d="M387.453 172.264L423.285 142.673L522.924 262.45C530.695 271.791 529.392 285.661 520.017 293.403L518.158 294.938C508.783 302.68 494.863 301.382 487.092 292.041L387.453 172.264Z" fill="#010101"/>
<path d="M387.453 172.264L423.285 142.673L522.924 262.45C530.695 271.791 529.392 285.661 520.017 293.403L518.158 294.938C508.783 302.68 494.863 301.382 487.092 292.041L387.453 172.264Z" fill="url(#paint1_linear_19792_21083)"/>
<path d="M370.836 115.956L422.039 142.805L387.815 171.067L370.836 115.956Z" fill="#F7C400"/>
<path d="M371.995 117.349L420.79 142.936L388.175 169.87L371.995 117.349ZM369.68 114.566L387.456 172.268L423.288 142.677L369.68 114.566Z" fill="#010101"/>
<path d="M374.255 129.436L383.488 121.811L365.219 109.211L374.255 129.436Z" fill="#010101"/>
</g>
<defs>
<linearGradient id="paint0_linear_19792_21083" x1="42.1889" y1="110.284" x2="338.53" y2="151.712" gradientUnits="userSpaceOnUse">
<stop stop-color="#E30518" stop-opacity="0"/>
<stop offset="0.0769552" stop-color="#E30518" stop-opacity="0.0141597"/>
<stop offset="0.263609" stop-color="#E30518" stop-opacity="0.147271"/>
<stop offset="0.443269" stop-color="#E30518" stop-opacity="0.36494"/>
<stop offset="0.611279" stop-color="#E30518" stop-opacity="0.601764"/>
<stop offset="0.764983" stop-color="#E30518" stop-opacity="0.807913"/>
<stop offset="0.899467" stop-color="#E30518" stop-opacity="0.947905"/>
<stop offset="1" stop-color="#E30518"/>
</linearGradient>
<linearGradient id="paint1_linear_19792_21083" x1="404.917" y1="157.664" x2="555.518" y2="337.8" gradientUnits="userSpaceOnUse">
<stop offset="0.33" stop-color="#0176BC" stop-opacity="0"/>
<stop offset="1" stop-color="#0071B9"/>
</linearGradient>
<clipPath id="clip0_19792_21083">
<rect width="528" height="300" fill="white"/>
</clipPath>
</defs>
</svg>
