<svg width="20" height="20" viewBox="0 0 20 20" fill="none" xmlns="http://www.w3.org/2000/svg">
<mask id="mask0_16915_13734" style="mask-type:alpha" maskUnits="userSpaceOnUse" x="0" y="0" width="20" height="20">
<rect width="20" height="20" fill="#D9D9D9"/>
</mask>
<g mask="url(#mask0_16915_13734)">
<path d="M3.33203 17.4997V9.32613L1.66536 10.597L0.832031 9.48572L3.33203 7.58301V5.13863H4.72099V6.52051L9.9987 2.49967L19.1654 9.49968L18.332 10.5899L16.6654 9.32613V17.4997H3.33203ZM4.72099 16.1107H9.30432V12.7774H10.6931V16.1107H15.2764V8.26363L9.9987 4.2428L4.72099 8.26363V16.1107ZM3.33203 4.16634C3.33203 3.50898 3.56349 2.95113 4.02641 2.4928C4.48946 2.03447 5.04502 1.8053 5.69307 1.8053C5.96863 1.8053 6.19953 1.70919 6.38578 1.51697C6.57217 1.32488 6.66536 1.0969 6.66536 0.833008H8.05432C8.05432 1.4812 7.82474 2.03676 7.36557 2.49967C6.90655 2.96259 6.34904 3.19405 5.69307 3.19405C5.42918 3.19405 5.2012 3.28724 5.00911 3.47363C4.81703 3.66002 4.72099 3.89092 4.72099 4.16634H3.33203Z" fill="#053749"/>
</g>
</svg>
