<svg width="15" height="18" viewBox="0 0 15 18" fill="none" xmlns="http://www.w3.org/2000/svg">
<path d="M3.91536 16.0827H11.082V13.4368C11.082 12.4368 10.7348 11.5931 10.0404 10.9056C9.34592 10.2181 8.4987 9.87435 7.4987 9.87435C6.4987 9.87435 5.65148 10.2181 4.95703 10.9056C4.26259 11.5931 3.91536 12.4368 3.91536 13.4368V16.0827ZM7.4987 8.12435C8.4987 8.12435 9.34592 7.77713 10.0404 7.08268C10.7348 6.38824 11.082 5.54102 11.082 4.54102V1.91602H3.91536V4.54102C3.91536 5.54102 4.26259 6.38824 4.95703 7.08268C5.65148 7.77713 6.4987 8.12435 7.4987 8.12435ZM0.832031 17.3327V16.0827H2.66536V13.4368C2.66536 12.4507 2.94314 11.5549 3.4987 10.7493C4.05425 9.94379 4.79036 9.36046 5.70703 8.99935C4.79036 8.62435 4.05425 8.03407 3.4987 7.22852C2.94314 6.42296 2.66536 5.52713 2.66536 4.54102V1.91602H0.832031V0.666016H14.1654V1.91602H12.332V4.54102C12.332 5.52713 12.0543 6.42296 11.4987 7.22852C10.9431 8.03407 10.207 8.62435 9.29037 8.99935C10.207 9.36046 10.9431 9.94379 11.4987 10.7493C12.0543 11.5549 12.332 12.4507 12.332 13.4368V16.0827H14.1654V17.3327H0.832031Z" fill="#EFEFEF"/>
</svg>
