<svg width="13" height="12" viewBox="0 0 13 12" fill="none" xmlns="http://www.w3.org/2000/svg">
<mask id="mask0_17161_13454" style="mask-type:alpha" maskUnits="userSpaceOnUse" x="0" y="0" width="13" height="12">
<rect x="0.5" width="12" height="12" fill="#D9D9D9"/>
</mask>
<g mask="url(#mask0_17161_13454)">
<path d="M6.10838 8.5H6.94163V5.5H6.10838V8.5ZM6.49988 4.55C6.62496 4.55 6.72988 4.50846 6.81463 4.42538C6.89929 4.34238 6.94163 4.23946 6.94163 4.11663C6.94163 3.98913 6.89933 3.88225 6.81475 3.796C6.73008 3.70975 6.62521 3.66663 6.50013 3.66663C6.37504 3.66663 6.27013 3.70975 6.18538 3.796C6.10071 3.88225 6.05838 3.98913 6.05838 4.11663C6.05838 4.23946 6.10067 4.34238 6.18525 4.42538C6.26992 4.50846 6.37479 4.55 6.49988 4.55ZM6.50225 11C5.812 11 5.16338 10.8688 4.55638 10.6063C3.94938 10.3438 3.41946 9.98613 2.96663 9.53338C2.51388 9.08054 2.15625 8.55042 1.89375 7.943C1.63125 7.33558 1.5 6.68654 1.5 5.99588C1.5 5.30521 1.63125 4.65613 1.89375 4.04863C2.15625 3.44121 2.51388 2.9125 2.96663 2.4625C3.41946 2.0125 3.94958 1.65625 4.557 1.39375C5.16442 1.13125 5.81346 1 6.50413 1C7.19479 1 7.84388 1.13125 8.45138 1.39375C9.05879 1.65625 9.5875 2.0125 10.0375 2.4625C10.4875 2.9125 10.8438 3.44167 11.1063 4.05C11.3688 4.65833 11.5 5.30758 11.5 5.99775C11.5 6.688 11.3688 7.33663 11.1063 7.94363C10.8438 8.55063 10.4875 9.08 10.0375 9.53175C9.5875 9.9835 9.05833 10.3412 8.45 10.6048C7.84167 10.8683 7.19242 11 6.50225 11ZM6.50413 10.1666C7.66246 10.1666 8.64579 9.76108 9.45413 8.95C10.2625 8.13892 10.6666 7.15421 10.6666 5.99588C10.6666 4.83754 10.263 3.85421 9.45575 3.04588C8.64842 2.23754 7.66317 1.83337 6.5 1.83337C5.34442 1.83337 4.36108 2.237 3.55 3.04425C2.73892 3.85158 2.33338 4.83683 2.33338 6C2.33338 7.15558 2.73892 8.13892 3.55 8.95C4.36108 9.76108 5.34579 10.1666 6.50413 10.1666Z" fill="#0070B9"/>
</g>
</svg>
