<svg width="16" height="16" viewBox="0 0 16 16" fill="none" xmlns="http://www.w3.org/2000/svg">
<mask id="mask0_21357_17882" style="mask-type:alpha" maskUnits="userSpaceOnUse" x="0" y="0" width="16" height="16">
<rect width="15.3162" height="15.3162" fill="#D9D9D9"/>
</mask>
<g mask="url(#mask0_21357_17882)">
<path d="M7.65704 14.0389C7.36986 14.0389 7.11725 13.9697 6.89921 13.8315C6.68116 13.6932 6.54023 13.5017 6.47642 13.2571H6.25305C5.99778 13.2571 5.77442 13.1614 5.58297 12.9699C5.39152 12.7785 5.29579 12.5551 5.29579 12.2999V10.0184C4.5938 9.56102 4.04072 8.97603 3.63654 8.2634C3.23236 7.55077 3.03027 6.76369 3.03027 5.90215C3.03027 4.61517 3.47965 3.5223 4.37842 2.62353C5.27718 1.72477 6.37005 1.27539 7.65704 1.27539C8.94402 1.27539 10.0369 1.72477 10.9357 2.62353C11.8344 3.5223 12.2838 4.61517 12.2838 5.90215C12.2838 6.76369 12.0817 7.55077 11.6775 8.2634C11.2734 8.97603 10.7203 9.56102 10.0183 10.0184V12.2999C10.0183 12.5551 9.92256 12.7785 9.73111 12.9699C9.53965 13.1614 9.31629 13.2571 9.06102 13.2571H8.83766C8.77384 13.5017 8.63291 13.6932 8.41487 13.8315C8.19683 13.9697 7.94422 14.0389 7.65704 14.0389ZM6.25305 12.2999H9.06102V11.5979H6.25305V12.2999ZM6.25305 10.9597H9.06102V10.3215H6.25305V10.9597ZM6.10947 9.36425H7.29009V7.1785L5.82229 5.7107L6.31687 5.21612L7.65704 6.55628L8.9972 5.21612L9.49179 5.7107L8.02399 7.1785V9.36425H9.20461C9.84279 9.06644 10.356 8.60376 10.7442 7.97622C11.1324 7.34868 11.3265 6.65733 11.3265 5.90215C11.3265 4.87044 10.9729 4.00093 10.2656 3.29362C9.55827 2.58631 8.68875 2.23265 7.65704 2.23265C6.62532 2.23265 5.75581 2.58631 5.0485 3.29362C4.34119 4.00093 3.98754 4.87044 3.98754 5.90215C3.98754 6.65733 4.18165 7.34868 4.56987 7.97622C4.95809 8.60376 5.47129 9.06644 6.10947 9.36425Z" fill="#851D6A"/>
</g>
</svg>
