<svg width="275" height="45" viewBox="0 0 275 45" fill="none" xmlns="http://www.w3.org/2000/svg">
<g clip-path="url(#clip0_1764_2)">
<path d="M38.8175 6.62667L38.9961 22.3525L19.4551 21.9971L19.366 25.995L9.55113 22.2638L0.00366211 21.8196L0.717546 6.005L38.8175 6.62667Z" fill="#FDCB37"/>
<path d="M3.63306 8.4196L35.1335 8.87376L35.1339 8.8321L3.63389 8.37793" fill="white"/>
<path d="M3.64062 10.1081L35.1407 10.5618L35.1415 10.5202L3.64104 10.0664" fill="white"/>
<path d="M3.65234 11.7956L35.1524 12.2493L35.1528 12.2077L3.65276 11.7539" fill="white"/>
<path d="M3.66016 13.484L35.1606 13.9382L35.161 13.8966L3.66099 13.4424" fill="white"/>
<path d="M3.66797 15.1725L35.168 15.6263L35.1688 15.5846L3.66881 15.1309" fill="white"/>
<path d="M3.67969 16.86L35.1797 17.3138L35.1806 17.2721L3.68011 16.8184" fill="white"/>
<path d="M3.6875 18.5475L35.1875 19.0017L35.1879 18.96L3.68792 18.5059" fill="white"/>
</g>
<g clip-path="url(#clip1_1764_2)">
<path d="M72.2887 10.4424H75.3889L73.5917 13.0911H71.3633L72.2887 10.4424Z" fill="white"/>
<path d="M50.7656 19.2797V22.1052H43.5V12.9795H46.6934V19.2797H50.7656Z" fill="white"/>
<path d="M59.6349 19.4295V22.1056H52.1758V10.9072H59.6349V13.5742H55.3144V15.2226H57.8936V17.7527H55.3144V19.4295H59.6349Z" fill="white"/>
<path d="M70.0239 13.6849H66.9156V22.1056H63.7501V13.6849H60.6406V10.9072H70.0228L70.0239 13.6849Z" fill="white"/>
<path d="M74.8594 18.2978H78.0353C78.0353 19.0792 78.6519 19.459 79.3535 19.459C79.998 19.459 80.6145 19.1236 80.6145 18.5259C80.6145 17.8415 79.7439 17.6407 78.6798 17.3852C77.0656 16.9928 75.0027 16.508 75.0027 14.0178C75.0027 11.8641 76.6204 10.6299 79.2556 10.6299C81.9362 10.6299 83.4711 11.9759 83.4711 14.2015H80.3826C80.3826 13.5102 79.8558 13.1851 79.2171 13.1851C78.6682 13.1851 78.1414 13.4132 78.1414 13.9288C78.1414 14.5494 78.984 14.7547 80.0364 15.0137C81.6798 15.4323 83.8336 15.9707 83.8336 18.4677C83.8336 20.8632 81.9583 22.0964 79.364 22.0964C76.6251 22.0964 74.8594 20.6819 74.8594 18.2978Z" fill="white"/>
<path d="M175.753 13.2073H168.825V21.6258H165.659V13.2073H162.551V10.4297H175.753V13.2073Z" fill="white"/>
<path d="M149.108 18.952V21.6258H141.648V10.4297H149.108V13.0967H144.786V14.745H147.026V17.2751H144.786V18.952H149.108Z" fill="white"/>
<path d="M110.416 21.9107C106.739 21.9107 104.113 19.4513 104.113 16.028C104.113 12.6047 106.739 10.1465 110.416 10.1465C114.093 10.1465 116.7 12.5967 116.7 16.028C116.7 19.4593 114.085 21.9107 110.416 21.9107ZM113.418 16.028C113.418 14.2759 112.157 13.0177 110.416 13.0177C108.675 13.0177 107.395 14.285 107.395 16.028C107.395 17.771 108.677 19.0395 110.416 19.0395C112.155 19.0395 113.418 17.7813 113.418 16.028Z" fill="white"/>
<path d="M128.163 10.4297V21.6258H125.552L121.007 15.5492V21.6258H117.953V10.4297H120.712L125.105 16.3044V10.4297H128.163Z" fill="white"/>
<path d="M140.007 7.10547V21.6256H137.401L132.856 15.549V21.6256H129.801V10.4295H132.559L136.953 16.3042V7.10547H140.007Z" fill="white"/>
<path d="M156.239 21.9108C152.755 21.9108 150.156 19.3876 150.156 16.0362C150.156 12.6847 152.758 10.1455 156.239 10.1455C159.238 10.1455 161.56 12.0847 162.026 14.9217H158.832C158.439 13.773 157.451 13.027 156.246 13.027C154.626 13.027 153.438 14.3023 153.438 16.0362C153.438 17.77 154.626 19.0203 156.246 19.0203C157.516 19.0203 158.514 18.2104 158.834 16.967H162.058C161.623 19.9146 159.282 21.9108 156.239 21.9108Z" fill="white"/>
<path d="M97.067 21.9109C93.5857 21.9109 90.9844 19.3876 90.9844 16.0362C90.9844 12.6848 93.5857 10.1456 97.067 10.1456C100.066 10.1456 102.389 12.0848 102.854 14.9217H99.6602C99.2675 13.773 98.2791 13.027 97.074 13.027C95.454 13.027 94.2664 14.3023 94.2664 16.0362C94.2664 17.7701 95.454 19.0203 97.074 19.0203C98.3444 19.0203 99.342 18.2104 99.6626 16.967H102.886C102.452 19.9147 100.115 21.9109 97.067 21.9109Z" fill="white"/>
</g>
<defs>
<clipPath id="clip0_1764_2">
<rect width="39" height="20" fill="white" transform="translate(0 6)"/>
</clipPath>
<clipPath id="clip1_1764_2">
<rect width="212" height="37" fill="white" transform="translate(43 7.5)"/>
</clipPath>
</defs>
</svg>
