<svg width="276" height="45" viewBox="0 0 276 45" fill="none" xmlns="http://www.w3.org/2000/svg">
<g clip-path="url(#clip0_19158_22218)">
<path d="M39.3177 7.02108L39.4964 22.7469L19.9554 22.3915L19.8662 26.3894L10.0514 22.6582L0.503906 22.214L1.21779 6.39941L39.3177 7.02108Z" fill="#FDCB37"/>
<path d="M4.13281 8.81413L35.6333 9.26829L35.6337 9.22663L4.13365 8.77246" fill="#122D4C"/>
<path d="M4.14062 10.5026L35.6407 10.9564L35.6415 10.9147L4.14104 10.4609" fill="#122D4C"/>
<path d="M4.15234 12.1901L35.6524 12.6439L35.6528 12.6022L4.15276 12.1484" fill="#122D4C"/>
<path d="M4.16016 13.8786L35.6606 14.3327L35.661 14.2911L4.16099 13.8369" fill="#122D4C"/>
<path d="M4.16797 15.5671L35.668 16.0208L35.6688 15.9791L4.16881 15.5254" fill="#122D4C"/>
<path d="M4.17969 17.2546L35.6797 17.7083L35.6806 17.6666L4.18011 17.2129" fill="#122D4C"/>
<path d="M4.1875 18.9421L35.6875 19.3962L35.6879 19.3546L4.18792 18.9004" fill="#122D4C"/>
</g>
<g clip-path="url(#clip1_19158_22218)">
<path d="M72.7887 10.8369H75.8889L74.0917 13.4857H71.8633L72.7887 10.8369Z" fill="#122D4C"/>
<path d="M51.2656 19.6742V22.4997H44V13.374H47.1934V19.6742H51.2656Z" fill="#122D4C"/>
<path d="M60.1349 19.824V22.5002H52.6758V11.3018H60.1349V13.9687H55.8144V15.6171H58.3936V18.1472H55.8144V19.824H60.1349Z" fill="#122D4C"/>
<path d="M70.5239 14.0794H67.4156V22.5002H64.2501V14.0794H61.1406V11.3018H70.5228L70.5239 14.0794Z" fill="#122D4C"/>
<path d="M75.3594 18.6923H78.5353C78.5353 19.4737 79.1519 19.8535 79.8535 19.8535C80.498 19.8535 81.1145 19.5182 81.1145 18.9204C81.1145 18.236 80.2439 18.0352 79.1798 17.7797C77.5656 17.3873 75.5027 16.9025 75.5027 14.4123C75.5027 12.2587 77.1204 11.0244 79.7556 11.0244C82.4362 11.0244 83.9711 12.3705 83.9711 14.596H80.8826C80.8826 13.9047 80.3558 13.5796 79.7171 13.5796C79.1682 13.5796 78.6414 13.8078 78.6414 14.3234C78.6414 14.9439 79.484 15.1492 80.5364 15.4082C82.1798 15.8268 84.3336 16.3652 84.3336 18.8623C84.3336 21.2578 82.4583 22.4909 79.864 22.4909C77.1251 22.4909 75.3594 21.0764 75.3594 18.6923Z" fill="#122D4C"/>
<path d="M176.253 13.6019H169.325V22.0203H166.159V13.6019H163.051V10.8242H176.253V13.6019Z" fill="#122D4C"/>
<path d="M149.608 19.3465V22.0203H142.148V10.8242H149.608V13.4912H145.286V15.1395H147.526V17.6697H145.286V19.3465H149.608Z" fill="#122D4C"/>
<path d="M110.916 22.3052C107.239 22.3052 104.613 19.8458 104.613 16.4225C104.613 12.9993 107.239 10.541 110.916 10.541C114.593 10.541 117.2 12.9913 117.2 16.4225C117.2 19.8538 114.585 22.3052 110.916 22.3052ZM113.918 16.4225C113.918 14.6704 112.657 13.4122 110.916 13.4122C109.175 13.4122 107.895 14.6795 107.895 16.4225C107.895 18.1656 109.177 19.434 110.916 19.434C112.655 19.434 113.918 18.1758 113.918 16.4225Z" fill="#122D4C"/>
<path d="M128.663 10.8242V22.0203H126.052L121.507 15.9437V22.0203H118.453V10.8242H121.212L125.605 16.6989V10.8242H128.663Z" fill="#122D4C"/>
<path d="M140.507 7.5V22.0202H137.901L133.356 15.9436V22.0202H130.301V10.824H133.059L137.453 16.6987V7.5H140.507Z" fill="#122D4C"/>
<path d="M156.739 22.3054C153.255 22.3054 150.656 19.7821 150.656 16.4307C150.656 13.0793 153.258 10.54 156.739 10.54C159.738 10.54 162.06 12.4793 162.526 15.3162H159.332C158.939 14.1675 157.951 13.4215 156.746 13.4215C155.126 13.4215 153.938 14.6968 153.938 16.4307C153.938 18.1646 155.126 19.4148 156.746 19.4148C158.016 19.4148 159.014 18.6049 159.334 17.3615H162.558C162.123 20.3091 159.782 22.3054 156.739 22.3054Z" fill="#122D4C"/>
<path d="M97.567 22.3054C94.0857 22.3054 91.4844 19.7821 91.4844 16.4307C91.4844 13.0793 94.0857 10.54 97.567 10.54C100.566 10.54 102.889 12.4793 103.354 15.3162H100.16C99.7675 14.1675 98.7791 13.4215 97.574 13.4215C95.954 13.4215 94.7664 14.6968 94.7664 16.4307C94.7664 18.1646 95.954 19.4148 97.574 19.4148C98.8444 19.4148 99.842 18.6049 100.163 17.3615H103.386C102.952 20.3091 100.615 22.3054 97.567 22.3054Z" fill="#122D4C"/>
</g>
<defs>
<clipPath id="clip0_19158_22218">
<rect width="39" height="20" fill="white" transform="translate(0.5 6.39453)"/>
</clipPath>
<clipPath id="clip1_19158_22218">
<rect width="212" height="37" fill="white" transform="translate(43.5 7.89453)"/>
</clipPath>
</defs>
</svg>
