<svg width="200" height="220" viewBox="0 0 200 220" fill="none" xmlns="http://www.w3.org/2000/svg">
<g clip-path="url(#clip0_1761_2)">
<path d="M3.62184 148.678C-0.0797628 140.438 1.32515 129.551 5.48012 121.126C9.107 113.775 18.64 112.122 25.9062 113.855C34.2037 115.835 38.0099 122.594 39.7885 131.441C42.5709 145.312 38.7597 156.798 24.6184 157.298C17.0557 157.547 7.03699 156.271 3.62184 148.678Z" fill="#C99D67"/>
<path d="M29.5569 111.294L33.6596 112.383L29.4373 121.212L27.3848 120.606L29.5569 111.294Z" fill="#122D4C"/>
<path d="M6.87695 114.801L10.738 112.139L15.3214 118.791L13.1493 120.727L6.87695 114.801Z" fill="#122D4C"/>
<path d="M15.6868 111.294L20.1506 110.69L19.6674 118.308L17.2561 118.43L15.6868 111.294Z" fill="#122D4C"/>
<path d="M23.2848 110.57L26.9042 110.932L24.3709 118.431L22.1987 118.188L23.2848 110.57Z" fill="#122D4C"/>
<path d="M17.9755 124.838L24.0086 124.961L25.2143 140.802L16.8894 140.56L17.9755 124.838Z" fill="#DC3433"/>
<path d="M10.0256 128.217C10.2883 128.217 10.5014 128.004 10.5014 127.74C10.5014 127.477 10.2883 127.263 10.0256 127.263C9.76282 127.263 9.5498 127.477 9.5498 127.74C9.5498 128.004 9.76282 128.217 10.0256 128.217Z" fill="#122D4C"/>
<path d="M31.4895 128.217C31.7522 128.217 31.9652 128.004 31.9652 127.74C31.9652 127.477 31.7522 127.263 31.4895 127.263C31.2267 127.263 31.0137 127.477 31.0137 127.74C31.0137 128.004 31.2267 128.217 31.4895 128.217Z" fill="#122D4C"/>
<path d="M14.1191 145.033L28.2356 144.671C28.2356 144.671 21.7191 156.642 14.1191 145.033Z" fill="white"/>
<path d="M4.06098 137.262H-0.462646V141.797H4.06098V137.262Z" fill="#DC3433"/>
<path d="M41.8642 138.626H37.3406V140.434H41.8642V138.626Z" fill="#122D4C"/>
<path d="M35.4291 151.95H30.9055V156.597H35.4291V151.95Z" fill="#0AAC88"/>
<path d="M43.2267 145.813C40.0706 137.021 42.3947 125.894 47.3567 117.539C51.6886 110.25 59.859 107.181 67.2099 109.549C75.612 112.26 80.7932 121.662 81.9067 130.945C83.6504 145.483 76.4664 159.724 61.8393 159.082C54.0176 158.752 46.1312 153.928 43.2267 145.813Z" fill="#FDCB37"/>
<path d="M57.4578 122.629L58.1652 142.528L65.4912 142.053L66.6719 121.683L57.4578 122.629Z" fill="#DC3433"/>
<path d="M74.0214 123.975C74.3241 123.975 74.5694 123.729 74.5694 123.426C74.5694 123.122 74.3241 122.876 74.0214 122.876C73.7187 122.876 73.4734 123.122 73.4734 123.426C73.4734 123.729 73.7187 123.975 74.0214 123.975Z" fill="#122D4C"/>
<path d="M50.7023 123.975C51.005 123.975 51.2503 123.729 51.2503 123.426C51.2503 123.122 51.005 122.876 50.7023 122.876C50.3996 122.876 50.1543 123.122 50.1543 123.426C50.1543 123.729 50.3996 123.975 50.7023 123.975Z" fill="#122D4C"/>
<path d="M53.1045 147.478L71.7869 147.366C71.7869 147.366 62.1368 160.795 53.1045 147.478Z" fill="#DC3433"/>
<path d="M42.0964 136.634C43.6386 136.634 44.8887 135.38 44.8887 133.835C44.8887 132.289 43.6386 131.035 42.0964 131.035C40.5542 131.035 39.304 132.289 39.304 133.835C39.304 135.38 40.5542 136.634 42.0964 136.634Z" fill="#122D4C"/>
<path d="M77.2845 113.306H72.8157V117.786H77.2845V113.306Z" fill="#122D4C"/>
<path d="M107.781 113.378C107.781 113.378 92.8347 105.712 85.6881 125.664C79.777 142.194 79.6001 156.876 79.6001 156.876H138.499C138.499 156.876 135.393 98.6883 107.781 113.378Z" fill="#122D4C"/>
<path d="M105.771 150.595C110.753 150.98 115.735 148.93 119.188 144.675C122.291 140.852 123.529 136.085 123.646 131.463C123.726 128.337 123.308 125.161 121.835 122.374C120.363 119.588 117.745 117.223 114.402 116.346C112.482 115.847 110.417 115.847 108.392 115.989C105.153 116.207 101.86 116.776 99.0653 118.314C93.6998 121.271 91.296 127.211 90.9945 132.717C90.6657 138.652 92.9873 144.842 98.6543 148.268C100.812 149.591 103.25 150.388 105.771 150.595Z" fill="#C99D67"/>
<path d="M98.5671 127.306C98.8175 127.306 99.0205 127.103 99.0205 126.852C99.0205 126.601 98.8175 126.398 98.5671 126.398C98.3167 126.398 98.1138 126.601 98.1138 126.852C98.1138 127.103 98.3167 127.306 98.5671 127.306Z" fill="#122D4C"/>
<path d="M116.397 127.306C116.647 127.306 116.85 127.103 116.85 126.852C116.85 126.601 116.647 126.398 116.397 126.398C116.147 126.398 115.944 126.601 115.944 126.852C115.944 127.103 116.147 127.306 116.397 127.306Z" fill="#122D4C"/>
<path d="M107.206 124.85L102.75 136.633H111.994L107.206 124.85Z" fill="#DC3433"/>
<path d="M99.9177 139.995L114.313 140.174C114.313 140.174 107.117 150.095 99.9177 139.995Z" fill="white"/>
<path d="M130.433 215.025C130.433 215.025 131.482 174.74 158.559 178.943C161.077 176.061 164.729 174.588 168.547 174.448C195.251 173.507 199.271 215.017 199.271 215.017L130.433 215.025Z" fill="#122D4C"/>
<path d="M168.803 219.604C158.002 221.894 146.918 217.567 144.045 203.948C141.804 193.281 147.035 182.019 157.783 179.55C174.323 175.752 181.505 183.702 183.754 194.369C186.004 205.037 179.604 217.314 168.803 219.604Z" fill="#FDCB37"/>
<path d="M163.357 191.89L159.416 204.852L166.827 205.01L163.357 191.89Z" fill="#0AAC88"/>
<path d="M175.185 204.22C176.578 204.22 177.708 203.088 177.708 201.691C177.708 200.294 176.578 199.161 175.185 199.161C173.791 199.161 172.661 200.294 172.661 201.691C172.661 203.088 173.791 204.22 175.185 204.22Z" fill="#0AAC88"/>
<path d="M150.586 204.22C151.979 204.22 153.109 203.088 153.109 201.691C153.109 200.294 151.979 199.161 150.586 199.161C149.192 199.161 148.062 200.294 148.062 201.691C148.062 203.088 149.192 204.22 150.586 204.22Z" fill="#0AAC88"/>
<path d="M156.265 208.646L171.709 208.014C171.709 208.014 164.463 219.552 156.265 208.646Z" fill="#0AAC88"/>
<path d="M153.114 192.91C153.395 192.91 153.622 192.682 153.622 192.401C153.622 192.12 153.395 191.891 153.114 191.891C152.833 191.891 152.606 192.12 152.606 192.401C152.606 192.682 152.833 192.91 153.114 192.91Z" fill="#122D4C"/>
<path d="M173.103 192.91C173.383 192.91 173.611 192.682 173.611 192.401C173.611 192.12 173.383 191.891 173.103 191.891C172.822 191.891 172.594 192.12 172.594 192.401C172.594 192.682 172.822 192.91 173.103 192.91Z" fill="#122D4C"/>
<path d="M146.606 190.362H142.162V194.816H146.606V190.362Z" fill="#DC3433"/>
<path d="M184.253 186.493H178.29V188.838H184.253V186.493Z" fill="#DC3433"/>
<path d="M58.3002 63.2187C54.7306 54.8637 46.2413 52.981 37.9663 52.7937C35.4927 52.7337 32.9843 52.7462 30.588 53.383C26.007 54.599 22.9107 58.3995 22.2432 63.0614C22.0688 64.2625 21.9193 65.466 21.7773 66.6721L59.5108 66.7919C59.1924 65.5735 58.7879 64.3794 58.3002 63.2187Z" fill="#122D4C"/>
<path d="M59.5109 66.7922L21.7775 66.6723C21.4736 69.2742 21.2394 71.8836 21.0949 74.4954C20.9903 76.3432 20.9355 78.191 20.9305 80.0288C20.9131 86.4362 21.0327 93.4553 23.3219 99.5055C26.062 106.772 33.4104 112.043 41.1574 112.308C48.9043 112.572 56.5865 107.813 59.8198 100.757C63.905 91.8397 62.1962 80.3135 60.45 71.0271C60.1835 69.6113 59.8871 68.1905 59.5109 66.7922Z" fill="#DC3433"/>
<path d="M44.6568 90.1001L43.095 71.5623H37.4031L36.8625 90.7143L44.6568 90.1001Z" fill="white"/>
<path d="M31.4863 95.5121L51.4715 95.2748C51.4715 95.2748 42.1926 111.967 31.4863 95.5121Z" fill="#FDCB37"/>
<path d="M27.8878 77.4839C28.1684 77.4839 28.396 77.2558 28.396 76.9745C28.396 76.6932 28.1684 76.4651 27.8878 76.4651C27.6071 76.4651 27.3796 76.6932 27.3796 76.9745C27.3796 77.2558 27.6071 77.4839 27.8878 77.4839Z" fill="#122D4C"/>
<path d="M53.7103 77.2793C53.991 77.2793 54.2185 77.0512 54.2185 76.7699C54.2185 76.4886 53.991 76.2605 53.7103 76.2605C53.4297 76.2605 53.2021 76.4886 53.2021 76.7699C53.2021 77.0512 53.4297 77.2793 53.7103 77.2793Z" fill="#122D4C"/>
<path d="M25.0495 64.457H20.5283V68.989H25.0495V64.457Z" fill="#FDCB37"/>
<path d="M61.9834 90.8981C63.1486 90.8981 64.0933 89.9512 64.0933 88.7832C64.0933 87.6151 63.1486 86.6682 61.9834 86.6682C60.8182 86.6682 59.8735 87.6151 59.8735 88.7832C59.8735 89.9512 60.8182 90.8981 61.9834 90.8981Z" fill="#0AAC88"/>
<path d="M31.1128 85.0576H26.5369V89.1876H31.1128V85.0576Z" fill="#122D4C"/>
<path d="M69.6708 67.344C64.0486 78.3308 65.9492 100.762 77.0416 108.045C83.9117 112.562 94.2294 112.093 101.149 107.925C104.44 105.945 107.128 103.079 109.28 99.8876C113.405 93.7399 115.378 85.3749 115.186 78.0237C115.012 71.4765 112.673 64.3026 107.267 60.2625C104.109 57.9028 100.088 57.0513 96.1724 56.6293C86.2408 55.5656 74.6602 57.5807 69.6708 67.344Z" fill="#7D4E24"/>
<path d="M104.318 74.3154C105.297 74.3154 105.299 72.7922 104.318 72.7922C103.336 72.7922 103.339 74.3154 104.318 74.3154Z" fill="#122D4C"/>
<path d="M77.8733 74.5082C78.8498 74.5082 78.8523 72.9825 77.8733 72.9825C76.8944 72.9825 76.8919 74.5082 77.8733 74.5082Z" fill="#122D4C"/>
<path d="M86.9159 71.817H94.7301L95.2507 93.2289H85.3516L86.9159 71.817Z" fill="#0AAC88"/>
<path d="M81.1165 97.1889L99.064 97.139C99.064 97.139 90.8562 110.955 81.1165 97.1889Z" fill="white"/>
<path d="M69.8922 78.4861H63.8416V84.5514H69.8922V78.4861Z" fill="#DC3433"/>
<path d="M105.573 80.5922H99.522V86.6574H105.573V80.5922Z" fill="#DC3433"/>
<path d="M114.517 88.0867C116.187 88.0867 117.541 86.7295 117.541 85.0554C117.541 83.3812 116.187 82.024 114.517 82.024C112.847 82.024 111.493 83.3812 111.493 85.0554C111.493 86.7295 112.847 88.0867 114.517 88.0867Z" fill="#FDCB37"/>
<path d="M71.3731 73.137H63.5588V77.4318H71.3731V73.137Z" fill="#0AAC88"/>
<path d="M143.931 173.209C143.744 161.049 143.779 157.848 144.586 145.712C144.89 141.115 145.351 136.473 146.93 132.139C148.509 127.804 151.332 123.781 155.384 121.604C159.437 119.426 164.805 119.441 168.377 122.353C168.377 122.353 179.684 115.394 186.811 126.251C193.937 137.108 193.18 173.209 193.18 173.209H143.931Z" fill="#0071B8"/>
<path d="M151.393 137.039C150.593 141.969 150.439 147.777 151.642 152.653C152.464 156.024 154.382 159.33 157.653 161.413C162.346 164.394 168.817 165.088 174.375 163.64C179.992 162.177 183.22 157.23 184.289 152.653C186.341 143.821 184.675 129.181 172.195 126.282C168.997 125.533 165.589 125.284 162.346 125.868C155.495 127.084 152.285 131.544 151.393 137.039Z" fill="#D4B185"/>
<path d="M164.33 150.671H171.103L169.349 133.132H164.33V150.671Z" fill="#DC3433"/>
<path d="M160.871 155.036H174.925C174.925 155.036 168.184 164.667 160.871 155.036Z" fill="#DC3433"/>
<path d="M157.929 138.25C158.178 138.25 158.38 138.047 158.38 137.798C158.38 137.548 158.178 137.346 157.929 137.346C157.68 137.346 157.479 137.548 157.479 137.798C157.479 138.047 157.68 138.25 157.929 138.25Z" fill="#122D4C"/>
<path d="M176.751 137.798C177 137.798 177.202 137.596 177.202 137.346C177.202 137.096 177 136.894 176.751 136.894C176.502 136.894 176.3 137.096 176.3 137.346C176.3 137.596 176.502 137.798 176.751 137.798Z" fill="#122D4C"/>
<path d="M155.946 148.247C157.174 148.247 158.17 147.248 158.17 146.017C158.17 144.785 157.174 143.787 155.946 143.787C154.717 143.787 153.721 144.785 153.721 146.017C153.721 147.248 154.717 148.247 155.946 148.247Z" fill="white"/>
<path d="M178.607 148.247C179.836 148.247 180.831 147.248 180.831 146.017C180.831 144.785 179.836 143.787 178.607 143.787C177.378 143.787 176.383 144.785 176.383 146.017C176.383 147.248 177.378 148.247 178.607 148.247Z" fill="white"/>
<path d="M111.781 159.937C106.857 158.874 101.606 158.509 96.6086 159.348C86.0717 161.116 81.1246 167.471 79.7521 175.314C79.1299 178.859 78.8075 182.451 78.7881 186.051H131.51C130.974 174.912 125.815 162.974 111.781 159.937Z" fill="#0AAC88"/>
<path d="M78.7885 186.044C78.7736 190.015 79.1621 193.99 80.1162 197.608C81.3816 202.417 84.326 207.139 89.3777 210.111C96.6015 214.356 106.58 215.354 115.142 213.289C123.798 211.199 128.773 204.14 130.417 197.588C131.336 193.813 131.704 189.925 131.51 186.044H78.7885Z" fill="#0071B8"/>
<path d="M99.2136 174.379L99.8912 193.424L106.903 192.972L108.034 173.473L99.2136 174.379Z" fill="#DC3433"/>
<path d="M91.5664 176.927C91.8222 176.927 92.0297 176.719 92.0297 176.463C92.0297 176.206 91.8222 175.998 91.5664 175.998C91.3105 175.998 91.103 176.206 91.103 176.463C91.103 176.719 91.3105 176.927 91.5664 176.927Z" fill="#122D4C"/>
<path d="M117.671 176.632C117.927 176.632 118.135 176.425 118.135 176.168C118.135 175.912 117.927 175.704 117.671 175.704C117.415 175.704 117.208 175.912 117.208 176.168C117.208 176.425 117.415 176.632 117.671 176.632Z" fill="#122D4C"/>
<path d="M93.637 198.022H113.605C113.605 198.022 103.755 211.456 93.637 198.022Z" fill="#FDCB37"/>
<path d="M132.716 183.366H127.801V188.293H132.716V183.366Z" fill="#DC3433"/>
<path d="M79.9899 195.699C81.3491 195.699 82.451 194.594 82.451 193.232C82.451 191.869 81.3491 190.765 79.9899 190.765C78.6307 190.765 77.5288 191.869 77.5288 193.232C77.5288 194.594 78.6307 195.699 79.9899 195.699Z" fill="#FDCB37"/>
<path d="M122.038 83.553C115.245 92.2026 117.539 109.832 130.943 115.567C139.245 119.12 151.7 118.751 160.087 115.472C163.749 114.043 167.09 111.894 169.912 109.152C174.894 104.318 177.283 97.741 177.048 91.9604C176.839 86.8116 174.012 81.1708 167.478 77.9946C163.652 76.1468 158.804 75.4701 154.072 75.148C142.06 74.2916 128.066 75.8772 122.038 83.553Z" fill="#DC3433"/>
<path d="M142.62 96.8343C142.668 97.7948 142.734 98.7537 142.817 99.7108C142.996 101.708 143.766 105.901 146.6 105.427C148.668 105.094 149.176 101.164 149.453 99.606C150.068 96.1476 150.247 92.6019 150.302 89.0936C150.324 87.5679 150.317 86.0422 150.25 84.519C150.197 83.293 150.27 82.0345 149.39 81.0731C148.79 80.4456 148.032 79.9926 147.196 79.7622C145.803 79.3602 144.254 79.6898 143.484 81.0107C143.018 81.8023 143.033 82.7187 142.949 83.6126C142.849 84.683 142.766 85.755 142.7 86.8288C142.493 90.16 142.466 93.5001 142.62 96.8343Z" fill="#122D4C"/>
<path d="M130.736 88.1956C131.059 88.1956 131.321 87.9329 131.321 87.6088C131.321 87.2848 131.059 87.022 130.736 87.022C130.412 87.022 130.15 87.2848 130.15 87.6088C130.15 87.9329 130.412 88.1956 130.736 88.1956Z" fill="#122D4C"/>
<path d="M164.643 89.0601C164.966 89.0601 165.228 88.7974 165.228 88.4733C165.228 88.1493 164.966 87.8865 164.643 87.8865C164.319 87.8865 164.057 88.1493 164.057 88.4733C164.057 88.7974 164.319 89.0601 164.643 89.0601Z" fill="#122D4C"/>
<path d="M136.302 107.805L157.008 107.516C157.008 107.516 146.573 122.623 136.302 107.805Z" fill="#FDCB37"/>
<path d="M123.229 93.1033H117.223V98.2022H123.229V93.1033Z" fill="#122D4C"/>
<path d="M173.055 78.3344H167.049V83.4333H173.055V78.3344Z" fill="#0AAC88"/>
<path d="M168.281 113.649C169.744 113.649 170.931 112.459 170.931 110.992C170.931 109.525 169.744 108.335 168.281 108.335C166.817 108.335 165.63 109.525 165.63 110.992C165.63 112.459 166.817 113.649 168.281 113.649Z" fill="#0AAC88"/>
<path d="M40.6356 160.021C40.6356 160.021 16.8392 150.515 9.49829 197.509L74.807 197.149C74.807 197.149 75.8856 154.103 40.6356 160.021Z" fill="#FDCB37"/>
<path d="M28.4426 187.143C26.3054 181.19 27.8772 173.659 31.24 168.001C34.1719 163.065 39.7094 160.985 44.6913 162.593C50.3807 164.428 53.8881 170.795 54.6553 177.075C55.846 186.919 50.9736 196.552 41.0694 196.127C35.7512 195.9 30.413 192.634 28.4426 187.143Z" fill="#C99D67"/>
<path d="M48.476 172.858C48.6989 172.858 48.8796 172.677 48.8796 172.453C48.8796 172.23 48.6989 172.049 48.476 172.049C48.2532 172.049 48.0725 172.23 48.0725 172.453C48.0725 172.677 48.2532 172.858 48.476 172.858Z" fill="#122D4C"/>
<path d="M33.5913 172.858C33.8142 172.858 33.9948 172.677 33.9948 172.453C33.9948 172.23 33.8142 172.049 33.5913 172.049C33.3684 172.049 33.1877 172.23 33.1877 172.453C33.1877 172.677 33.3684 172.858 33.5913 172.858Z" fill="#122D4C"/>
<path d="M39.2106 172.578L38.3687 184.187L43.2136 184.504L42.7926 172.051L39.2106 172.578Z" fill="white"/>
<path d="M34.9558 187.575L47.209 187.448C47.209 187.448 45.6521 191.52 40.7648 191.236C35.8775 190.951 34.9558 187.575 34.9558 187.575Z" fill="#122D4C"/>
<path d="M33.0043 183.354C34.9041 183.354 36.4443 181.81 36.4443 179.906C36.4443 178.001 34.9041 176.458 33.0043 176.458C31.1044 176.458 29.5642 178.001 29.5642 179.906C29.5642 181.81 31.1044 183.354 33.0043 183.354Z" fill="#DC3433"/>
<path d="M48.3053 183.354C50.2052 183.354 51.7453 181.81 51.7453 179.906C51.7453 178.001 50.2052 176.458 48.3053 176.458C46.4054 176.458 44.8652 178.001 44.8652 179.906C44.8652 181.81 46.4054 183.354 48.3053 183.354Z" fill="#DC3433"/>
<path d="M113.101 42.3259L180.6 0.348633L187.534 3.82947L113.101 42.3259Z" fill="#FDCB37"/>
<path d="M190.332 8.15844L187.534 3.82861L113.101 42.3251L190.332 8.15844Z" fill="#0AAC88"/>
<path d="M190.332 8.15887L192.572 14.6511L113.102 42.3255L190.332 8.15887Z" fill="#DC3433"/>
<path d="M192.81 21.5423L192.571 14.6505L113.101 42.3249L192.81 21.5423Z" fill="#0071B8"/>
<path d="M191.877 29.3589L192.811 21.5433L113.102 42.3259L191.877 29.3589Z" fill="#122D4C"/>
<path d="M109.841 31.641C110.245 26.6694 114.541 21.618 118.43 18.8288C122.764 15.7175 128.269 14.469 133.353 16.4192C134.662 16.936 135.92 17.5747 137.11 18.3269L113.104 42.3257C110.945 39.0421 109.545 35.2791 109.841 31.641Z" fill="#C99D67"/>
<path d="M112.566 46.8401C112.621 45.323 112.801 43.813 113.104 42.3255H147.006C147.346 43.7918 147.587 45.2791 147.728 46.7777C148.643 56.114 146.343 67.6003 140.32 72.1149C135.338 75.8604 127.818 75.4758 122.776 72.0125C120.382 70.372 118.417 67.9923 116.855 65.343C113.854 60.2366 112.414 53.2974 112.556 47.1922C112.561 47.0773 112.561 46.9625 112.566 46.8401Z" fill="#C99D67"/>
<path d="M138.986 66.1569L123.36 65.8773C123.36 65.8773 130.475 75.1112 138.986 66.1569Z" fill="#122D4C"/>
<path d="M147.609 58.5841C149.019 58.5841 150.162 57.4382 150.162 56.0246C150.162 54.6111 149.019 53.4652 147.609 53.4652C146.199 53.4652 145.055 54.6111 145.055 56.0246C145.055 57.4382 146.199 58.5841 147.609 58.5841Z" fill="#122D4C"/>
<path d="M108.916 54.6308H116.823V51.2873H108.916V54.6308Z" fill="#DC3433"/>
<path d="M113.102 23.8567H117.568V19.3795H113.102V23.8567Z" fill="#0071B8"/>
<path d="M140.716 47.0611C141.008 47.0611 141.244 46.824 141.244 46.5317C141.244 46.2393 141.008 46.0023 140.716 46.0023C140.425 46.0023 140.188 46.2393 140.188 46.5317C140.188 46.824 140.425 47.0611 140.716 47.0611Z" fill="#122D4C"/>
<path d="M120.635 47.0611C120.927 47.0611 121.163 46.824 121.163 46.5317C121.163 46.2393 120.927 46.0023 120.635 46.0023C120.343 46.0023 120.107 46.2393 120.107 46.5317C120.107 46.824 120.343 47.0611 120.635 47.0611Z" fill="#122D4C"/>
<path d="M133.613 45.7741L134.714 60.9485L128.382 61.363L128.933 45.0825L133.613 45.7741Z" fill="#122D4C"/>
</g>
<defs>
<clipPath id="clip0_1761_2">
<rect width="200" height="220" fill="white"/>
</clipPath>
</defs>
</svg>
