<svg width="153" height="168" viewBox="0 0 153 168" fill="none" xmlns="http://www.w3.org/2000/svg">
<g clip-path="url(#clip0_19158_22256)">
<path d="M3.12763 113.255C0.31441 107 1.38215 98.7355 4.53992 92.3402C7.29635 86.76 14.5414 85.5052 20.0637 86.8206C26.3698 88.3237 29.2626 93.4547 30.6143 100.17C32.7289 110.7 29.8324 119.419 19.085 119.798C13.3374 119.987 5.72314 119.019 3.12763 113.255Z" fill="#C99D67"/>
<path d="M22.8383 84.877L25.9563 85.7034L22.7475 92.4057L21.1875 91.9451L22.8383 84.877Z" fill="#122D4C"/>
<path d="M5.60156 87.5391L8.53594 85.5186L12.0193 90.5681L10.3685 92.037L5.60156 87.5391Z" fill="#122D4C"/>
<path d="M12.2969 84.8767L15.6894 84.418L15.3221 90.201L13.4896 90.2939L12.2969 84.8767Z" fill="#122D4C"/>
<path d="M18.0715 84.3271L20.8223 84.602L18.8969 90.2941L17.2461 90.1102L18.0715 84.3271Z" fill="#122D4C"/>
<path d="M14.0364 95.1582L18.6216 95.2511L19.5378 107.276L13.2109 107.092L14.0364 95.1582Z" fill="#DC3433"/>
<path d="M7.9944 97.7231C8.19411 97.7231 8.35599 97.561 8.35599 97.3611C8.35599 97.1611 8.19411 96.999 7.9944 96.999C7.7947 96.999 7.63281 97.1611 7.63281 97.3611C7.63281 97.561 7.7947 97.7231 7.9944 97.7231Z" fill="#122D4C"/>
<path d="M24.3069 97.7231C24.5066 97.7231 24.6685 97.561 24.6685 97.3611C24.6685 97.1611 24.5066 96.999 24.3069 96.999C24.1072 96.999 23.9453 97.1611 23.9453 97.3611C23.9453 97.561 24.1072 97.7231 24.3069 97.7231Z" fill="#122D4C"/>
<path d="M11.1055 110.488L21.8339 110.213C21.8339 110.213 16.8815 119.3 11.1055 110.488Z" fill="white"/>
<path d="M3.4614 104.589H0.0234375V108.031H3.4614V104.589Z" fill="#DC3433"/>
<path d="M32.1919 105.624H28.7539V106.996H32.1919V105.624Z" fill="#122D4C"/>
<path d="M27.3012 115.738H23.8633V119.266H27.3012V115.738Z" fill="#0AAC88"/>
<path d="M33.2273 111.08C30.8286 104.406 32.5949 95.9595 36.3661 89.6173C39.6583 84.0845 45.8678 81.7549 51.4545 83.5518C57.8401 85.6103 61.7778 92.7467 62.6241 99.794C63.9493 110.829 58.4894 121.639 47.3729 121.152C41.4284 120.902 35.4347 117.24 33.2273 111.08Z" fill="#FDCB37"/>
<path d="M44.043 93.4811L44.5806 108.586L50.1484 108.226L51.0457 92.7627L44.043 93.4811Z" fill="#DC3433"/>
<path d="M56.6313 94.5029C56.8614 94.5029 57.0478 94.3162 57.0478 94.0859C57.0478 93.8556 56.8614 93.6689 56.6313 93.6689C56.4013 93.6689 56.2148 93.8556 56.2148 94.0859C56.2148 94.3162 56.4013 94.5029 56.6313 94.5029Z" fill="#122D4C"/>
<path d="M38.9087 94.5029C39.1387 94.5029 39.3252 94.3162 39.3252 94.0859C39.3252 93.8556 39.1387 93.6689 38.9087 93.6689C38.6787 93.6689 38.4922 93.8556 38.4922 94.0859C38.4922 94.3162 38.6787 94.5029 38.9087 94.5029Z" fill="#122D4C"/>
<path d="M40.7344 112.344L54.933 112.259C54.933 112.259 47.5989 122.453 40.7344 112.344Z" fill="#DC3433"/>
<path d="M32.3683 104.112C33.5404 104.112 34.4905 103.161 34.4905 101.987C34.4905 100.814 33.5404 99.8623 32.3683 99.8623C31.1962 99.8623 30.2461 100.814 30.2461 101.987C30.2461 103.161 31.1962 104.112 32.3683 104.112Z" fill="#122D4C"/>
<path d="M59.1112 86.4043H55.7148V89.8048H59.1112V86.4043Z" fill="#122D4C"/>
<path d="M82.2883 86.459C82.2883 86.459 70.9294 80.6399 65.498 95.7846C61.0055 108.333 60.8711 119.478 60.8711 119.478H105.635C105.635 119.478 103.274 75.308 82.2883 86.459Z" fill="#122D4C"/>
<path d="M80.7611 114.71C84.5474 115.002 88.3337 113.446 90.9576 110.216C93.3165 107.314 94.2574 103.696 94.3463 100.187C94.4069 97.8141 94.0889 95.4031 92.97 93.2877C91.8512 91.1724 89.8615 89.3774 87.3209 88.7121C85.8612 88.333 84.2918 88.333 82.7527 88.441C80.2916 88.6059 77.7889 89.0381 75.6647 90.2057C71.5869 92.4499 69.76 96.9592 69.5309 101.139C69.281 105.644 71.0455 110.343 75.3524 112.944C76.9925 113.948 78.845 114.553 80.7611 114.71Z" fill="#C99D67"/>
<path d="M75.286 97.0317C75.4763 97.0317 75.6305 96.8773 75.6305 96.6868C75.6305 96.4962 75.4763 96.3418 75.286 96.3418C75.0957 96.3418 74.9414 96.4962 74.9414 96.6868C74.9414 96.8773 75.0957 97.0317 75.286 97.0317Z" fill="#122D4C"/>
<path d="M88.8367 97.0317C89.027 97.0317 89.1813 96.8773 89.1813 96.6868C89.1813 96.4962 89.027 96.3418 88.8367 96.3418C88.6465 96.3418 88.4922 96.4962 88.4922 96.6868C88.4922 96.8773 88.6465 97.0317 88.8367 97.0317Z" fill="#122D4C"/>
<path d="M81.8517 95.167L78.4648 104.112H85.4903L81.8517 95.167Z" fill="#DC3433"/>
<path d="M76.3125 106.663L87.253 106.8C87.253 106.8 81.7837 114.33 76.3125 106.663Z" fill="white"/>
<path d="M99.5039 163.618C99.5039 163.618 100.301 133.038 120.879 136.228C122.793 134.041 125.569 132.923 128.471 132.817C148.766 132.102 151.821 163.612 151.821 163.612L99.5039 163.618Z" fill="#122D4C"/>
<path d="M128.665 167.094C120.457 168.832 112.032 165.547 109.849 155.21C108.146 147.112 112.121 138.564 120.29 136.689C132.861 133.806 138.319 139.841 140.028 147.939C141.738 156.036 136.874 165.356 128.665 167.094Z" fill="#FDCB37"/>
<path d="M124.526 146.057L121.531 155.896L127.163 156.015L124.526 146.057Z" fill="#0AAC88"/>
<path d="M133.515 155.416C134.575 155.416 135.433 154.557 135.433 153.496C135.433 152.436 134.575 151.576 133.515 151.576C132.456 151.576 131.598 152.436 131.598 153.496C131.598 154.557 132.456 155.416 133.515 155.416Z" fill="#0AAC88"/>
<path d="M114.82 155.416C115.879 155.416 116.738 154.557 116.738 153.496C116.738 152.436 115.879 151.576 114.82 151.576C113.761 151.576 112.902 152.436 112.902 153.496C112.902 154.557 113.761 155.416 114.82 155.416Z" fill="#0AAC88"/>
<path d="M119.137 158.775L130.874 158.296C130.874 158.296 125.367 167.055 119.137 158.775Z" fill="#0AAC88"/>
<path d="M116.742 146.831C116.955 146.831 117.128 146.658 117.128 146.444C117.128 146.231 116.955 146.058 116.742 146.058C116.528 146.058 116.355 146.231 116.355 146.444C116.355 146.658 116.528 146.831 116.742 146.831Z" fill="#122D4C"/>
<path d="M131.933 146.831C132.146 146.831 132.319 146.658 132.319 146.444C132.319 146.231 132.146 146.058 131.933 146.058C131.72 146.058 131.547 146.231 131.547 146.444C131.547 146.658 131.72 146.831 131.933 146.831Z" fill="#122D4C"/>
<path d="M111.795 144.896H108.418V148.278H111.795V144.896Z" fill="#DC3433"/>
<path d="M140.407 141.96H135.875V143.74H140.407V141.96Z" fill="#DC3433"/>
<path d="M44.6831 48.3833C41.9703 42.0411 35.5184 40.6119 29.2294 40.4697C27.3495 40.4242 25.4431 40.4337 23.6219 40.9171C20.1404 41.8402 17.7872 44.725 17.2798 48.2639C17.1473 49.1756 17.0337 50.0892 16.9258 51.0047L45.6032 51.0957C45.3613 50.1708 45.0538 49.2644 44.6831 48.3833Z" fill="#122D4C"/>
<path d="M45.6034 51.0959L16.9259 51.0049C16.695 52.98 16.517 54.9607 16.4072 56.9434C16.3277 58.346 16.2861 59.7486 16.2823 61.1437C16.269 66.0074 16.3599 71.3356 18.0997 75.9283C20.1822 81.4441 25.767 85.4454 31.6546 85.6463C37.5423 85.8472 43.3808 82.2345 45.8381 76.8779C48.9429 70.1092 47.6442 61.3598 46.3171 54.3106C46.1145 53.2358 45.8892 52.1573 45.6034 51.0959Z" fill="#DC3433"/>
<path d="M34.3143 68.7887L33.1273 54.7168H28.8014L28.3906 69.255L34.3143 68.7887Z" fill="white"/>
<path d="M24.3047 72.8969L39.4934 72.7168C39.4934 72.7168 32.4414 85.3879 24.3047 72.8969Z" fill="#FDCB37"/>
<path d="M21.5698 59.2118C21.7831 59.2118 21.956 59.0387 21.956 58.8252C21.956 58.6116 21.7831 58.4385 21.5698 58.4385C21.3565 58.4385 21.1836 58.6116 21.1836 58.8252C21.1836 59.0387 21.3565 59.2118 21.5698 59.2118Z" fill="#122D4C"/>
<path d="M41.1948 59.0566C41.4081 59.0566 41.581 58.8834 41.581 58.6699C41.581 58.4563 41.4081 58.2832 41.1948 58.2832C40.9815 58.2832 40.8086 58.4563 40.8086 58.6699C40.8086 58.8834 40.9815 59.0566 41.1948 59.0566Z" fill="#122D4C"/>
<path d="M19.4126 49.3232H15.9766V52.7635H19.4126V49.3232Z" fill="#FDCB37"/>
<path d="M47.4824 69.3945C48.368 69.3945 49.0859 68.6757 49.0859 67.789C49.0859 66.9024 48.368 66.1836 47.4824 66.1836C46.5968 66.1836 45.8789 66.9024 45.8789 67.789C45.8789 68.6757 46.5968 69.3945 47.4824 69.3945Z" fill="#0AAC88"/>
<path d="M24.0207 64.9609H20.543V68.096H24.0207V64.9609Z" fill="#122D4C"/>
<path d="M53.3248 51.5147C49.052 59.8548 50.4964 76.8817 58.9266 82.4107C64.1479 85.8396 71.9894 85.4833 77.2485 82.3198C79.7494 80.8167 81.7921 78.6407 83.4278 76.2183C86.5628 71.5517 88.0622 65.2019 87.9164 59.6216C87.7839 54.6517 86.0062 49.2061 81.8981 46.1392C79.4976 44.348 76.442 43.7017 73.466 43.3813C65.918 42.5739 57.1168 44.1035 53.3248 51.5147Z" fill="#7D4E24"/>
<path d="M79.6564 56.8066C80.4004 56.8066 80.4023 55.6504 79.6564 55.6504C78.9105 55.6504 78.9124 56.8066 79.6564 56.8066Z" fill="#122D4C"/>
<path d="M59.5587 56.9531C60.3008 56.9531 60.3027 55.7949 59.5587 55.7949C58.8147 55.7949 58.8128 56.9531 59.5587 56.9531Z" fill="#122D4C"/>
<path d="M66.4311 54.9102H72.3699L72.7656 71.1637H65.2422L66.4311 54.9102Z" fill="#0AAC88"/>
<path d="M62.0234 74.1697L75.6636 74.1318C75.6636 74.1318 69.4257 84.6194 62.0234 74.1697Z" fill="white"/>
<path d="M53.493 59.9727H48.8945V64.5767H53.493V59.9727Z" fill="#DC3433"/>
<path d="M80.6102 61.5713H76.0117V66.1754H80.6102V61.5713Z" fill="#DC3433"/>
<path d="M87.4077 67.2604C88.677 67.2604 89.7059 66.2301 89.7059 64.9593C89.7059 63.6884 88.677 62.6582 87.4077 62.6582C86.1384 62.6582 85.1094 63.6884 85.1094 64.9593C85.1094 66.2301 86.1384 67.2604 87.4077 67.2604Z" fill="#FDCB37"/>
<path d="M54.6185 55.9121H48.6797V59.1723H54.6185V55.9121Z" fill="#0AAC88"/>
<path d="M109.762 131.876C109.62 122.645 109.647 120.215 110.26 111.003C110.491 107.514 110.842 103.99 112.042 100.7C113.242 97.4092 115.387 94.3556 118.467 92.7028C121.547 91.0499 125.627 91.0613 128.342 93.2714C128.342 93.2714 136.935 87.9887 142.351 96.2302C147.767 104.472 147.192 131.876 147.192 131.876H109.762Z" fill="#0071B8"/>
<path d="M115.433 104.42C114.826 108.162 114.708 112.57 115.623 116.272C116.248 118.831 117.705 121.341 120.191 122.922C123.758 125.185 128.676 125.712 132.9 124.612C137.169 123.502 139.622 119.747 140.434 116.272C141.994 109.568 140.728 98.4549 131.243 96.2543C128.812 95.6857 126.223 95.4961 123.758 95.9397C118.551 96.8627 116.111 100.248 115.433 104.42Z" fill="#D4B185"/>
<path d="M125.266 114.768H130.413L129.08 101.454H125.266V114.768Z" fill="#DC3433"/>
<path d="M122.637 118.081H133.318C133.318 118.081 128.195 125.392 122.637 118.081Z" fill="#DC3433"/>
<path d="M120.401 105.338C120.59 105.338 120.744 105.185 120.744 104.995C120.744 104.806 120.59 104.652 120.401 104.652C120.212 104.652 120.059 104.806 120.059 104.995C120.059 105.185 120.212 105.338 120.401 105.338Z" fill="#122D4C"/>
<path d="M134.706 104.996C134.895 104.996 135.049 104.842 135.049 104.653C135.049 104.463 134.895 104.31 134.706 104.31C134.517 104.31 134.363 104.463 134.363 104.653C134.363 104.842 134.517 104.996 134.706 104.996Z" fill="#122D4C"/>
<path d="M118.894 112.927C119.827 112.927 120.584 112.169 120.584 111.235C120.584 110.3 119.827 109.542 118.894 109.542C117.96 109.542 117.203 110.3 117.203 111.235C117.203 112.169 117.96 112.927 118.894 112.927Z" fill="white"/>
<path d="M136.116 112.927C137.05 112.927 137.807 112.169 137.807 111.235C137.807 110.3 137.05 109.542 136.116 109.542C135.183 109.542 134.426 110.3 134.426 111.235C134.426 112.169 135.183 112.927 136.116 112.927Z" fill="white"/>
<path d="M85.3287 121.802C81.5859 120.994 77.5952 120.717 73.7975 121.354C65.7895 122.696 62.0297 127.52 60.9866 133.474C60.5137 136.165 60.2686 138.892 60.2539 141.624H100.322C99.9154 133.169 95.9947 124.106 85.3287 121.802Z" fill="#0AAC88"/>
<path d="M60.2542 141.619C60.2429 144.633 60.5382 147.65 61.2633 150.397C62.225 154.048 64.4627 157.632 68.302 159.888C73.7921 163.11 81.3761 163.868 87.8828 162.301C94.4615 160.714 98.2422 155.356 99.4916 150.382C100.19 147.517 100.47 144.565 100.323 141.619H60.2542Z" fill="#0071B8"/>
<path d="M75.7773 132.764L76.2923 147.221L81.6215 146.878L82.481 132.076L75.7773 132.764Z" fill="#DC3433"/>
<path d="M69.9654 134.698C70.1599 134.698 70.3175 134.54 70.3175 134.346C70.3175 134.151 70.1599 133.993 69.9654 133.993C69.7709 133.993 69.6133 134.151 69.6133 134.346C69.6133 134.54 69.7709 134.698 69.9654 134.698Z" fill="#122D4C"/>
<path d="M89.8052 134.475C89.9997 134.475 90.1574 134.317 90.1574 134.122C90.1574 133.927 89.9997 133.77 89.8052 133.77C89.6108 133.77 89.4531 133.927 89.4531 134.122C89.4531 134.317 89.6108 134.475 89.8052 134.475Z" fill="#122D4C"/>
<path d="M71.5391 150.711H86.7145C86.7145 150.711 79.229 160.909 71.5391 150.711Z" fill="#FDCB37"/>
<path d="M101.239 139.586H97.5039V143.326H101.239V139.586Z" fill="#DC3433"/>
<path d="M61.1673 148.948C62.2003 148.948 63.0377 148.109 63.0377 147.075C63.0377 146.041 62.2003 145.202 61.1673 145.202C60.1343 145.202 59.2969 146.041 59.2969 147.075C59.2969 148.109 60.1343 148.948 61.1673 148.948Z" fill="#FDCB37"/>
<path d="M93.1235 63.8188C87.9608 70.3847 89.7044 83.7666 99.8915 88.1205C106.201 90.8177 115.667 90.5372 122.041 88.0485C124.824 86.9632 127.363 85.3321 129.508 83.2511C133.294 79.5815 135.11 74.5888 134.932 70.2008C134.773 66.2924 132.624 62.0105 127.658 59.5995C124.75 58.1969 121.066 57.6832 117.469 57.4387C108.341 56.7886 97.7049 57.9922 93.1235 63.8188Z" fill="#DC3433"/>
<path d="M108.766 73.9005C108.803 74.6297 108.853 75.3575 108.916 76.0841C109.052 77.6005 109.637 80.783 111.791 80.4228C113.363 80.1707 113.749 77.1873 113.959 76.0045C114.427 73.3793 114.563 70.6877 114.605 68.0246C114.622 66.8665 114.616 65.7084 114.565 64.5521C114.525 63.6215 114.58 62.6662 113.912 61.9364C113.456 61.46 112.879 61.1161 112.244 60.9413C111.186 60.6361 110.008 60.8863 109.423 61.889C109.069 62.4899 109.08 63.1855 109.016 63.8641C108.94 64.6766 108.877 65.4904 108.827 66.3054C108.669 68.8342 108.649 71.3696 108.766 73.9005Z" fill="#122D4C"/>
<path d="M99.7339 67.343C99.9797 67.343 100.179 67.1436 100.179 66.8976C100.179 66.6516 99.9797 66.4521 99.7339 66.4521C99.4882 66.4521 99.2891 66.6516 99.2891 66.8976C99.2891 67.1436 99.4882 67.343 99.7339 67.343Z" fill="#122D4C"/>
<path d="M125.503 67.9993C125.749 67.9993 125.948 67.7998 125.948 67.5538C125.948 67.3078 125.749 67.1084 125.503 67.1084C125.258 67.1084 125.059 67.3078 125.059 67.5538C125.059 67.7998 125.258 67.9993 125.503 67.9993Z" fill="#122D4C"/>
<path d="M103.965 82.2287L119.701 82.0088C119.701 82.0088 111.77 93.4763 103.965 82.2287Z" fill="#FDCB37"/>
<path d="M94.0292 71.0684H89.4648V74.9389H94.0292V71.0684Z" fill="#122D4C"/>
<path d="M131.896 59.8574H127.332V63.728H131.896V59.8574Z" fill="#0AAC88"/>
<path d="M128.268 86.6644C129.381 86.6644 130.283 85.7615 130.283 84.6476C130.283 83.5338 129.381 82.6309 128.268 82.6309C127.156 82.6309 126.254 83.5338 126.254 84.6476C126.254 85.7615 127.156 86.6644 128.268 86.6644Z" fill="#0AAC88"/>
<path d="M31.2581 121.865C31.2581 121.865 13.1729 114.649 7.59375 150.322L57.2283 150.049C57.2283 150.049 58.0481 117.373 31.2581 121.865Z" fill="#FDCB37"/>
<path d="M21.9914 142.453C20.3671 137.934 21.5617 132.218 24.1175 127.923C26.3457 124.175 30.5542 122.596 34.3405 123.817C38.6644 125.21 41.33 130.044 41.9131 134.811C42.818 142.283 39.115 149.595 31.5878 149.273C27.5459 149.101 23.4889 146.621 21.9914 142.453Z" fill="#C99D67"/>
<path d="M37.2168 131.609C37.3862 131.609 37.5235 131.472 37.5235 131.302C37.5235 131.133 37.3862 130.995 37.2168 130.995C37.0475 130.995 36.9102 131.133 36.9102 131.302C36.9102 131.472 37.0475 131.609 37.2168 131.609Z" fill="#122D4C"/>
<path d="M25.9043 131.609C26.0737 131.609 26.211 131.472 26.211 131.302C26.211 131.133 26.0737 130.995 25.9043 130.995C25.735 130.995 25.5977 131.133 25.5977 131.302C25.5977 131.472 25.735 131.609 25.9043 131.609Z" fill="#122D4C"/>
<path d="M30.175 131.397L29.5352 140.209L33.2173 140.45L32.8974 130.997L30.175 131.397Z" fill="white"/>
<path d="M26.9414 142.781L36.2538 142.685C36.2538 142.685 35.0706 145.776 31.3562 145.56C27.6419 145.344 26.9414 142.781 26.9414 142.781Z" fill="#122D4C"/>
<path d="M25.4582 139.577C26.9021 139.577 28.0726 138.405 28.0726 136.959C28.0726 135.514 26.9021 134.342 25.4582 134.342C24.0143 134.342 22.8438 135.514 22.8438 136.959C22.8438 138.405 24.0143 139.577 25.4582 139.577Z" fill="#DC3433"/>
<path d="M37.0871 139.577C38.531 139.577 39.7015 138.405 39.7015 136.959C39.7015 135.514 38.531 134.342 37.0871 134.342C35.6432 134.342 34.4727 135.514 34.4727 136.959C34.4727 138.405 35.6432 139.577 37.0871 139.577Z" fill="#DC3433"/>
<path d="M86.332 32.5238L137.631 0.65918L142.901 3.30145L86.332 32.5238Z" fill="#FDCB37"/>
<path d="M145.027 6.58751L142.901 3.30078L86.332 32.5231L145.027 6.58751Z" fill="#0AAC88"/>
<path d="M145.027 6.58789L146.729 11.5161L86.332 32.5235L145.027 6.58789Z" fill="#DC3433"/>
<path d="M146.911 16.7471L146.729 11.5156L86.332 32.523L146.911 16.7471Z" fill="#0071B8"/>
<path d="M146.201 22.6808L146.911 16.748L86.332 32.524L146.201 22.6808Z" fill="#122D4C"/>
<path d="M83.8542 24.4129C84.1609 20.6391 87.4266 16.8046 90.3818 14.6873C93.6759 12.3256 97.8598 11.3778 101.724 12.8582C102.718 13.2505 103.674 13.7353 104.579 14.3063L86.3343 32.5236C84.6929 30.0311 83.629 27.1746 83.8542 24.4129Z" fill="#C99D67"/>
<path d="M85.925 35.9504C85.967 34.7988 86.1038 33.6526 86.3339 32.5234H112.1C112.358 33.6365 112.541 34.7655 112.649 35.903C113.343 42.9902 111.596 51.7093 107.018 55.1363C103.232 57.9795 97.5167 57.6876 93.685 55.0586C91.8657 53.8132 90.372 52.0069 89.185 49.9958C86.9038 46.1196 85.8095 40.8521 85.9174 36.2177C85.9212 36.1305 85.9212 36.0433 85.925 35.9504Z" fill="#C99D67"/>
<path d="M106.005 50.6137L94.1289 50.4014C94.1289 50.4014 99.5357 57.4108 106.005 50.6137Z" fill="#122D4C"/>
<path d="M112.558 44.8652C113.629 44.8652 114.498 43.9953 114.498 42.9223C114.498 41.8493 113.629 40.9795 112.558 40.9795C111.486 40.9795 110.617 41.8493 110.617 42.9223C110.617 43.9953 111.486 44.8652 112.558 44.8652Z" fill="#122D4C"/>
<path d="M83.1513 41.8643H89.1602V39.3262H83.1513V41.8643Z" fill="#DC3433"/>
<path d="M86.3321 18.5039H89.7266V15.1053H86.3321V18.5039Z" fill="#0071B8"/>
<path d="M107.319 36.1181C107.541 36.1181 107.721 35.9382 107.721 35.7163C107.721 35.4944 107.541 35.3145 107.319 35.3145C107.098 35.3145 106.918 35.4944 106.918 35.7163C106.918 35.9382 107.098 36.1181 107.319 36.1181Z" fill="#122D4C"/>
<path d="M92.0576 36.1181C92.2793 36.1181 92.4589 35.9382 92.4589 35.7163C92.4589 35.4944 92.2793 35.3145 92.0576 35.3145C91.8359 35.3145 91.6562 35.4944 91.6562 35.7163C91.6562 35.9382 91.8359 36.1181 92.0576 36.1181Z" fill="#122D4C"/>
<path d="M101.921 35.1413L102.758 46.66L97.9453 46.9746L98.3637 34.6162L101.921 35.1413Z" fill="#122D4C"/>
</g>
<defs>
<clipPath id="clip0_19158_22256">
<rect width="152" height="167" fill="white" transform="translate(0.375 0.394531)"/>
</clipPath>
</defs>
</svg>
