<svg width="128" height="38" viewBox="0 0 128 38" fill="none" xmlns="http://www.w3.org/2000/svg">
<g clip-path="url(#clip0_19158_22357)">
<path d="M44.8669 0.394531H49.5115L46.819 4.36285H43.4805L44.8669 0.394531Z" fill="#122D4C"/>
<path d="M12.6196 13.6342V17.8674H1.73438V4.19531H6.51872V13.6342H12.6196Z" fill="#122D4C"/>
<path d="M25.9095 13.8578V17.8672H14.7344V1.08984H25.9095V5.0855H19.4367V7.55502H23.3008V11.3456H19.4367V13.8578H25.9095Z" fill="#122D4C"/>
<path d="M41.472 5.25128H36.8151V17.8672H32.0727V5.25128H27.4141V1.08984H41.4703L41.472 5.25128Z" fill="#122D4C"/>
<path d="M48.7188 12.1627H53.4769C53.4769 13.3334 54.4006 13.9025 55.4518 13.9025C56.4174 13.9025 57.3411 13.4001 57.3411 12.5046C57.3411 11.4791 56.0367 11.1784 54.4425 10.7955C52.0241 10.2076 48.9335 9.48132 48.9335 5.75056C48.9335 2.52395 51.3571 0.674805 55.3051 0.674805C59.3211 0.674805 61.6208 2.69143 61.6208 6.02571H56.9936C56.9936 4.99005 56.2043 4.50298 55.2475 4.50298C54.425 4.50298 53.6358 4.84478 53.6358 5.61725C53.6358 6.54695 54.8982 6.85457 56.475 7.24252C58.937 7.86972 62.1638 8.67637 62.1638 12.4174C62.1638 16.0063 59.3543 17.8537 55.4675 17.8537C51.3641 17.8537 48.7188 15.7346 48.7188 12.1627Z" fill="#122D4C"/>
<path d="M127.874 24.3548H117.493V36.9673H112.751V24.3548H108.094V20.1934H127.874V24.3548Z" fill="#122D4C"/>
<path d="M87.9564 32.9613V36.9673H76.7812V20.1934H87.9564V24.189H81.4818V26.6585H84.8378V30.4491H81.4818V32.9613H87.9564Z" fill="#122D4C"/>
<path d="M29.9899 37.3945C24.4809 37.3945 20.5469 33.7099 20.5469 28.5812C20.5469 23.4524 24.4809 19.7695 29.9899 19.7695C35.4988 19.7695 39.4049 23.4405 39.4049 28.5812C39.4049 33.7219 35.4866 37.3945 29.9899 37.3945ZM34.4878 28.5812C34.4878 25.9561 32.5985 24.0711 29.9899 24.0711C27.3812 24.0711 25.4639 25.9698 25.4639 28.5812C25.4639 31.1925 27.3847 33.0929 29.9899 33.0929C32.5951 33.0929 34.4878 31.2079 34.4878 28.5812Z" fill="#122D4C"/>
<path d="M56.2959 20V36.7739H52.3847L45.5748 27.67V36.7739H41V20H45.1331L51.7141 28.8014V20H56.2959Z" fill="#122D4C"/>
<path d="M74.3181 15.2129V36.9668H70.4137L63.6039 27.863V36.9668H59.0273V20.1929H63.1604L69.7432 28.9943V15.2129H74.3181Z" fill="#122D4C"/>
<path d="M98.6364 37.3943C93.4173 37.3943 89.5234 33.614 89.5234 28.5929C89.5234 23.5718 93.4208 19.7676 98.6364 19.7676C103.129 19.7676 106.609 22.6729 107.306 26.9232H102.521C101.933 25.2022 100.452 24.0845 98.6469 24.0845C96.2198 24.0845 94.4405 25.9952 94.4405 28.5929C94.4405 31.1906 96.2198 33.0637 98.6469 33.0637C100.55 33.0637 102.045 31.8503 102.525 29.9874H107.355C106.703 34.4035 103.195 37.3943 98.6364 37.3943Z" fill="#122D4C"/>
<path d="M9.98796 37.3943C4.77232 37.3943 0.875 33.614 0.875 28.5929C0.875 23.5718 4.77232 19.7676 9.98796 19.7676C14.4807 19.7676 17.9607 22.6729 18.6574 26.9232H13.8731C13.2846 25.2022 11.8039 24.0845 9.99844 24.0845C7.57134 24.0845 5.79205 25.9952 5.79205 28.5929C5.79205 31.1906 7.57134 33.0637 9.99844 33.0637C11.9017 33.0637 13.3964 31.8503 13.8766 29.9874H18.7063C18.055 34.4035 14.554 37.3943 9.98796 37.3943Z" fill="#122D4C"/>
</g>
<defs>
<clipPath id="clip0_19158_22357">
<rect width="127" height="37" fill="white" transform="translate(0.875 0.394531)"/>
</clipPath>
</defs>
</svg>
