<svg width="245" height="80" viewBox="0 0 245 80" fill="none" xmlns="http://www.w3.org/2000/svg">
<g clip-path="url(#clip0_1761_119)">
<path d="M84.8662 0H93.8264L88.6322 8.58014H82.1917L84.8662 0Z" fill="#122D4C"/>
<path d="M22.6571 28.6262V37.7791H1.65796V8.2179H10.8876V28.6262H22.6571Z" fill="#122D4C"/>
<path d="M48.2949 29.1098V37.7786H26.7366V1.50336H48.2949V10.1426H35.8079V15.4821H43.2624V23.678H35.8079V29.1098H48.2949Z" fill="#122D4C"/>
<path d="M78.3172 10.501H69.3334V37.7786H60.1846V10.501H51.1975V1.50336H78.3138L78.3172 10.501Z" fill="#122D4C"/>
<path d="M92.2969 25.4448H101.476C101.476 27.976 103.258 29.2065 105.286 29.2065C107.149 29.2065 108.93 28.1201 108.93 26.1838C108.93 23.9668 106.414 23.3164 103.339 22.4887C98.6734 21.2176 92.7112 19.6471 92.7112 11.5806C92.7112 4.60417 97.3867 0.606018 105.003 0.606018C112.75 0.606018 117.187 4.9663 117.187 12.1755H108.26C108.26 9.93627 106.738 8.88315 104.892 8.88315C103.305 8.88315 101.783 9.62218 101.783 11.2924C101.783 13.3026 104.218 13.9677 107.26 14.8065C112.009 16.1626 118.234 17.9067 118.234 25.9954C118.234 33.7552 112.814 37.7497 105.316 37.7497C97.4001 37.7497 92.2969 33.1677 92.2969 25.4448Z" fill="#122D4C"/>
<path d="M244.998 51.806H224.972V79.0762H215.823V51.806H206.839V42.8083H244.998V51.806Z" fill="#122D4C"/>
<path d="M167.992 70.4148V79.0762H146.433V42.8083H167.992V51.4475H155.501V56.787H161.976V64.9829H155.501V70.4148H167.992Z" fill="#122D4C"/>
<path d="M56.1665 80C45.5389 80 37.9497 72.0332 37.9497 60.9441C37.9497 49.855 45.5389 41.8919 56.1665 41.8919C66.794 41.8919 74.3293 49.8291 74.3293 60.9441C74.3293 72.0591 66.7705 80 56.1665 80ZM64.8437 60.9441C64.8437 55.2683 61.199 51.1926 56.1665 51.1926C51.134 51.1926 47.4354 55.2979 47.4354 60.9441C47.4354 66.5903 51.1407 70.6993 56.1665 70.6993C61.1923 70.6993 64.8437 66.6235 64.8437 60.9441Z" fill="#122D4C"/>
<path d="M106.914 42.3902V78.6581H99.369L86.2319 58.974V78.6581H77.4065V42.3902H85.3797L98.0755 61.4202V42.3902H106.914Z" fill="#122D4C"/>
<path d="M141.681 32.0397V79.0752H134.149L121.012 59.3912V79.0752H112.184V42.8073H120.157L132.856 61.8374V32.0397H141.681Z" fill="#122D4C"/>
<path d="M188.595 79.9995C178.526 79.9995 171.015 71.8258 171.015 60.9694C171.015 50.1131 178.533 41.8877 188.595 41.8877C197.262 41.8877 203.975 48.1694 205.319 57.3593H196.09C194.954 53.6383 192.098 51.2216 188.615 51.2216C183.933 51.2216 180.5 55.3528 180.5 60.9694C180.5 66.5861 183.933 70.636 188.615 70.636C192.287 70.636 195.17 68.0124 196.096 63.9847H205.414C204.157 73.533 197.39 79.9995 188.595 79.9995Z" fill="#122D4C"/>
<path d="M17.5801 79.9995C7.51846 79.9995 0 71.8258 0 60.9694C0 50.1131 7.51846 41.8877 17.5801 41.8877C26.2472 41.8877 32.9606 48.1694 34.3046 57.3593H25.075C23.9398 53.6383 21.0833 51.2216 17.6003 51.2216C12.9181 51.2216 9.48565 55.3528 9.48565 60.9694C9.48565 66.5861 12.9181 70.636 17.6003 70.636C21.272 70.636 24.1554 68.0124 25.0817 63.9847H34.399C33.1425 73.533 26.3887 79.9995 17.5801 79.9995Z" fill="#122D4C"/>
</g>
<defs>
<clipPath id="clip0_1761_119">
<rect width="245" height="80" fill="white"/>
</clipPath>
</defs>
</svg>
