<svg width="113" height="147" viewBox="0 0 113 147" fill="none" xmlns="http://www.w3.org/2000/svg">
<g clip-path="url(#clip0_19161_23236)">
<path d="M40.1719 100.441C40.0231 98.8032 40.088 97.1618 40.0901 95.5217C40.0905 95.1668 40.1322 94.812 40.2066 94.4002C40.7146 94.0227 40.7372 93.8759 40.4102 93.2969C40.3427 93.2912 40.2668 93.2847 40.191 93.2783C40.167 92.5532 40.1599 91.8286 40.3267 91.0578C40.5097 90.9985 40.6292 90.9669 40.6383 90.8198C40.6475 90.6686 40.6304 90.5157 40.6241 90.3463C40.4993 90.3254 40.4057 90.3097 40.312 90.2939C40.2784 89.8058 40.3041 89.3208 40.4464 88.7895C40.7425 88.6554 40.7898 88.5978 40.7626 88.4341C40.7317 88.2482 40.6142 88.1635 40.4358 88.1456C40.4511 87.856 40.4665 87.5665 40.5459 87.229C40.8383 87.1247 40.9181 86.9711 40.8731 86.7535C40.8363 86.5759 40.6804 86.6039 40.5511 86.5933C40.5748 86.2659 40.5985 85.9385 40.6813 85.5639C40.8391 85.5088 40.9476 85.5026 40.9804 85.3903C41.0011 85.3193 41.0079 85.2284 40.9809 85.1629C40.9267 85.0313 40.7917 85.0483 40.6755 85.0414C40.6933 84.8315 40.711 84.6215 40.7865 84.3645C41.0141 84.2802 41.1303 84.1879 41.1145 84.0024C41.0988 83.8181 40.9664 83.7463 40.7964 83.7287C40.8111 83.5316 40.8259 83.3345 40.8583 83.0849C40.876 83.0323 40.8954 83.0099 40.9514 83.0112C42.3375 83.0128 43.6677 83.0142 44.9979 83.0132C47.2215 83.0115 49.4451 83.0082 51.725 83.0078C55.6925 83.0108 59.6037 83.0119 63.5149 83.0119C63.6544 83.0119 63.7939 83.0012 63.9863 83.002C64.2186 83.012 64.398 83.0186 64.5773 83.0186C72.4951 83.0191 80.4128 83.0192 88.3306 83.0181C88.5295 83.0181 88.7285 83.0043 88.9818 83.0059C92.3924 83.0166 95.7487 83.0184 99.1049 83.0187C99.2236 83.0187 99.3423 83.0045 99.5164 83.005C103.284 83.0132 106.997 83.0133 110.709 83.0134C110.785 83.3408 110.861 83.6683 110.897 84.0487C110.825 84.1237 110.779 84.1387 110.764 84.1689C110.64 84.4134 110.987 84.5777 110.883 84.8248C110.878 84.8365 110.93 84.8814 110.962 84.8973C110.997 84.914 111.039 84.9145 111.077 84.922C111.148 85.2501 111.219 85.5782 111.248 85.96C111.031 86.219 111.046 86.2655 111.323 86.3549C111.393 86.7218 111.464 87.0887 111.493 87.5101C111.269 87.767 111.285 87.8158 111.562 87.9068C111.6 88.115 111.639 88.3231 111.637 88.5822C111.559 88.667 111.492 88.701 111.492 88.7348C111.492 88.8639 111.608 88.8441 111.691 88.8619C111.722 88.9938 111.752 89.1257 111.734 89.2996C111.559 89.3532 111.441 89.3818 111.46 89.5438C111.475 89.6657 111.578 89.6862 111.68 89.693C111.72 89.6956 111.759 89.6958 111.799 89.6971C111.835 89.9056 111.871 90.1142 111.861 90.3769C111.604 90.6835 111.629 90.7792 111.933 90.8916C111.963 91.0614 111.994 91.2312 111.976 91.4455C111.832 91.4991 111.717 91.5054 111.707 91.6189C111.699 91.7007 111.732 91.8105 111.788 91.8664C111.847 91.9251 111.955 91.9345 112.042 91.9654C112.078 92.2511 112.115 92.5368 112.106 92.8762C111.942 92.962 111.838 93.0199 111.835 93.1535C111.831 93.2889 111.932 93.3509 112.051 93.3826C112.087 93.3924 112.127 93.3931 112.165 93.398C112.198 93.6838 112.231 93.9697 112.215 94.3107C111.943 94.4397 111.88 94.6023 111.941 94.8103C111.99 94.9774 112.148 94.937 112.274 94.9496C112.374 95.5062 112.398 96.0681 112.342 96.6916C112.093 96.8231 111.909 96.9522 111.937 97.1683C111.969 97.4184 112.063 97.6773 112.397 97.6952C112.568 99.313 112.478 100.935 112.478 102.556C112.478 102.812 112.437 103.068 112.363 103.379C112.034 103.51 111.941 103.746 111.94 103.976C111.94 104.213 112.133 104.347 112.375 104.38C112.407 104.907 112.39 105.433 112.245 106.008C112.125 106.099 112.045 106.123 112 106.176C111.879 106.32 111.877 106.504 111.958 106.653C111.996 106.723 112.15 106.731 112.251 106.768C112.236 107.057 112.22 107.347 112.142 107.683C111.909 107.769 111.794 107.863 111.812 108.049C111.83 108.233 111.964 108.303 112.134 108.319C112.111 108.607 112.088 108.896 112.008 109.23C111.835 109.282 111.705 109.292 111.699 109.435C111.695 109.514 111.748 109.611 111.805 109.673C111.849 109.721 111.938 109.727 112.008 109.752C111.994 109.925 111.981 110.097 111.906 110.313C111.704 110.385 111.58 110.449 111.595 110.612C111.607 110.736 111.713 110.798 111.836 110.819C111.855 110.822 111.874 110.824 111.893 110.826C111.87 111.036 111.848 111.246 111.771 111.503C111.663 111.574 111.598 111.586 111.558 111.624C111.42 111.755 111.452 111.845 111.65 111.895C111.688 111.904 111.729 111.899 111.769 111.901C111.756 112.036 111.743 112.17 111.669 112.346C111.507 112.414 111.441 112.469 111.455 112.583C111.471 112.702 111.565 112.719 111.659 112.736C111.641 112.909 111.622 113.082 111.542 113.298C111.427 113.364 111.362 113.375 111.321 113.412C111.181 113.543 111.213 113.636 111.411 113.685C111.448 113.695 111.49 113.69 111.529 113.691C111.513 113.826 111.497 113.961 111.426 114.136C111.328 114.222 111.285 114.268 111.243 114.313C111.302 114.345 111.36 114.376 111.419 114.407C111.394 114.579 111.369 114.75 111.295 114.967C111.205 115.048 111.165 115.083 111.124 115.118C111.179 115.159 111.234 115.201 111.289 115.243C111.286 115.309 111.282 115.375 111.214 115.468C111.045 115.511 110.968 115.558 110.977 115.68C110.987 115.805 111.087 115.822 111.183 115.84C111.165 115.975 111.147 116.11 111.065 116.287C110.8 116.482 110.803 116.538 111.023 116.702C110.95 117.392 110.805 118.068 110.57 118.787C110.358 118.881 110.312 119.018 110.268 119.143C110.211 119.308 110.29 119.402 110.462 119.421C110.433 119.555 110.404 119.688 110.316 119.867C109.941 119.988 110.031 120.288 109.941 120.488C109.875 120.635 109.839 120.788 109.957 120.93C109.981 120.959 110.02 120.976 110.052 120.999C110.016 121.169 109.98 121.339 109.877 121.545C109.634 121.689 109.634 121.705 109.816 121.834C109.777 122.003 109.738 122.173 109.631 122.378C109.444 122.44 109.336 122.489 109.327 122.622C109.319 122.754 109.44 122.747 109.529 122.767C109.376 123.258 109.222 123.749 109.005 124.284C108.637 124.519 108.626 124.572 108.835 124.811C108.71 125.18 108.598 125.555 108.455 125.918C108.248 126.446 108.019 126.965 107.724 127.515C107.536 127.547 107.411 127.547 107.386 127.69C107.361 127.836 107.468 127.879 107.589 127.896C107.42 128.279 107.251 128.661 107.008 129.073C106.916 129.109 106.888 129.109 106.881 129.122C106.687 129.429 106.489 129.734 106.309 130.049C106.256 130.141 106.326 130.233 106.416 130.29C106.24 130.632 106.065 130.974 105.822 131.342C105.566 131.443 105.563 131.455 105.694 131.602C105.446 132.042 105.21 132.49 104.945 132.921C104.68 133.353 104.385 133.767 104.025 134.214C103.735 134.289 103.779 134.458 103.778 134.605C103.718 134.706 103.659 134.808 103.522 134.926C103.264 134.944 103.17 135.029 103.173 135.212C103.175 135.285 103.175 135.359 103.175 135.432C103.175 135.469 103.161 135.5 103.065 135.538C102.785 135.591 102.82 135.758 102.814 135.904C102.812 135.943 102.797 135.975 102.7 136.014C102.431 136.066 102.46 136.227 102.449 136.367C102.365 136.48 102.281 136.594 102.121 136.726C101.835 136.775 101.861 136.939 101.853 137.084C101.764 137.197 101.675 137.31 101.503 137.437C100.938 137.498 100.925 137.509 100.895 137.927C100.89 138.003 100.893 138.079 100.892 138.154C100.476 138.584 100.06 139.014 99.5577 139.459C99.4334 139.476 99.3951 139.474 99.3572 139.477C98.9145 139.516 98.8866 139.545 98.8633 139.989C98.8613 140.026 98.8672 140.064 98.8695 140.102C98.8094 140.166 98.7494 140.23 98.6087 140.304C98.1676 140.35 98.1676 140.35 98.1541 140.709C98.0921 140.77 98.0301 140.831 97.8887 140.901C97.4534 140.938 97.4534 140.938 97.4267 141.281C97.2936 141.39 97.1606 141.499 96.9465 141.618C96.6837 141.622 96.5839 141.7 96.5926 141.891C96.1345 142.204 95.6892 142.538 95.2158 142.827C93.1796 144.068 90.9967 144.969 88.6883 145.568C88.1301 145.713 87.567 145.838 86.9397 145.942C86.7046 145.818 86.6982 145.821 86.6427 146.041C85.9272 146.182 85.2117 146.323 84.4288 146.429C84.1949 146.292 84.1873 146.295 84.1279 146.514C83.6411 146.591 83.1543 146.668 82.613 146.706C82.5182 146.634 82.478 146.601 82.4378 146.569C82.4024 146.63 82.367 146.69 82.3315 146.751C81.3352 146.898 80.335 146.997 79.2703 146.943C79.1103 146.653 79.0576 146.621 78.8384 146.645C78.6168 146.669 78.624 146.833 78.6186 146.991C78.0964 146.997 77.5742 147.002 76.9914 146.957C76.8719 146.695 76.7238 146.621 76.5207 146.654C76.3291 146.685 76.3523 146.845 76.3431 146.981C75.8697 146.962 75.3955 146.955 74.9231 146.922C74.3907 146.885 73.8598 146.825 73.2743 146.73C73.1844 146.646 73.1485 146.607 73.1127 146.568C73.0719 146.624 73.0311 146.679 72.9903 146.734C72.5027 146.67 72.0151 146.606 71.4759 146.494C71.3894 146.408 71.3546 146.369 71.3197 146.329C71.2778 146.383 71.2359 146.436 71.194 146.489C70.029 146.34 68.884 146.088 67.7475 145.801C65.8739 145.327 64.0403 144.73 62.2328 143.899C62.1116 143.652 62.1004 143.65 61.9601 143.799C61.748 143.716 61.5358 143.633 61.2873 143.483C61.2464 143.266 61.1939 143.113 61.043 143.095C60.7095 143.054 60.4746 142.844 60.2084 142.682C60.0238 142.57 59.8314 142.466 59.6329 142.381C59.4825 142.317 59.3224 142.31 59.2111 142.473C59.0253 142.382 58.8395 142.292 58.6303 142.131C58.5331 141.864 58.5184 141.86 58.368 142.006C58.0296 141.818 57.6912 141.629 57.3257 141.363C57.2901 141.136 57.2276 141.036 57.0641 141.034C56.9713 141.033 56.8784 141.039 56.7856 141.041C56.5377 140.888 56.2898 140.734 56.0116 140.509C55.9717 140.195 55.8403 140.08 55.604 140.077C55.525 140.075 55.4459 140.079 55.3669 140.08C54.8646 139.709 54.3622 139.338 53.8419 138.885C53.7441 138.461 53.7269 138.44 53.4557 138.406C53.3814 138.397 53.3052 138.403 53.2298 138.402C53.0378 138.239 52.8458 138.076 52.6387 137.83C52.6577 137.426 52.5426 137.185 52.2649 137.003C52.1204 136.908 51.9834 136.778 51.8914 136.633C51.6835 136.305 51.395 136.213 51.0335 136.268C50.8564 136.087 50.6793 135.906 50.4884 135.643C50.4295 135.105 50.4241 135.1 49.9767 135.067C49.929 135.019 49.8812 134.971 49.8591 134.869C50.0146 134.68 49.9486 134.572 49.8157 134.514C49.7202 134.472 49.6012 134.484 49.4927 134.472C49.4538 134.462 49.4256 134.439 49.4018 134.328C49.3733 133.923 49.3733 133.923 49.1143 133.908C49.1143 133.908 49.1445 133.895 49.143 133.851C49.0985 133.436 49.0872 133.426 48.6724 133.39C48.5164 133.186 48.3604 132.982 48.1994 132.69C48.1668 132.451 48.1525 132.295 48.1082 132.148C48.0352 131.906 47.8511 131.817 47.6067 131.834C47.404 131.519 47.2013 131.204 46.9963 130.799C46.9835 130.338 46.9835 130.338 46.6594 130.285C46.5209 130.043 46.3823 129.802 46.2725 129.497C46.4291 129.314 46.3856 129.188 46.3234 129.056C46.0964 128.574 45.8772 128.089 45.6457 127.609C45.5428 127.396 45.3665 127.281 45.1186 127.3C45.0223 127.094 44.926 126.888 44.8559 126.619C44.9328 126.386 44.9304 126.383 44.7107 126.35C44.5577 126.014 44.3912 125.684 44.2549 125.341C44.0746 124.888 43.9179 124.425 43.7686 123.878C43.8828 123.627 43.9164 123.458 43.8404 123.277C43.7407 123.039 43.6432 122.801 43.5444 122.563C43.4787 122.404 43.3733 122.296 43.1904 122.287C43.0995 122.001 43.0087 121.714 42.9497 121.36C43.06 121.05 43.0595 121.048 42.8085 120.973C42.654 120.443 42.4944 119.914 42.3474 119.381C42.2845 119.153 42.2479 118.918 42.2422 118.63C42.3332 118.524 42.4243 118.471 42.4224 118.422C42.4138 118.2 42.3408 118.011 42.0725 117.988C42.0407 117.894 42.0089 117.8 42.0172 117.662C42.1971 117.564 42.2068 117.473 42.1116 117.375C42.0638 117.325 41.9912 117.299 41.9299 117.263C41.9299 117.263 41.8982 117.228 41.9368 117.188C42.078 116.979 42.0736 116.971 41.8478 116.915C41.8272 116.833 41.8067 116.751 41.828 116.603C42.022 116.206 42.0063 116.168 41.686 116.094C41.624 115.801 41.562 115.508 41.5436 115.162C41.6891 115.066 41.7395 114.995 41.6985 114.885C41.6564 114.773 41.5536 114.78 41.4583 114.777C41.4358 114.716 41.4133 114.654 41.4343 114.551C41.6562 114.306 41.6403 114.258 41.3634 114.169C41.3299 114.037 41.2963 113.905 41.3087 113.723C41.5635 113.406 41.5312 113.305 41.2119 113.227C41.1913 113.165 41.1708 113.103 41.194 113C41.4168 112.756 41.4018 112.709 41.1288 112.617C41.0933 112.447 41.0579 112.277 41.0684 112.054C41.3227 111.741 41.2938 111.642 40.9837 111.553C40.9557 111.418 40.9277 111.283 40.94 111.101C41.014 111.013 41.0478 110.973 41.0815 110.932C41.0187 110.897 40.9558 110.862 40.8929 110.826C40.8568 110.618 40.8208 110.409 40.8317 110.149C41.0477 110.042 41.1511 109.934 41.1074 109.749C41.0641 109.565 40.9179 109.517 40.7458 109.523C40.7193 109.388 40.6927 109.254 40.7137 109.071C40.8102 108.997 40.8731 108.982 40.9057 108.942C41.0696 108.743 41.0214 108.621 40.762 108.563C40.7261 108.555 40.6873 108.559 40.6498 108.558C40.6125 108.273 40.5751 107.987 40.5888 107.651C40.8101 107.594 40.8959 107.512 40.8829 107.337C40.8717 107.188 40.7763 107.138 40.6431 107.13C40.6034 107.128 40.5635 107.127 40.5238 107.126C40.489 106.84 40.4543 106.554 40.4703 106.218C40.6784 106.163 40.7698 106.092 40.7657 105.925C40.76 105.692 40.6278 105.588 40.4067 105.574C40.3702 105.171 40.3338 104.768 40.3494 104.311C40.4687 104.229 40.5864 104.21 40.5939 104.171C40.6205 104.029 40.6369 103.874 40.606 103.735C40.5739 103.591 40.4283 103.553 40.2876 103.545C40.1744 102.909 40.1747 102.267 40.2249 101.564C40.5476 101.393 40.6657 101.162 40.6198 100.901C40.581 100.679 40.4732 100.446 40.1719 100.441ZM54.2765 96.1829C54.2528 96.169 54.2296 96.1706 54.1139 96.2178C53.4313 96.3705 53.1405 96.7238 53.2163 97.3121C53.2676 97.7104 53.513 97.9511 53.875 98.0813C54.232 98.2097 54.5481 98.1006 54.8055 97.8499C55.0787 97.5838 55.1975 97.2612 55.0651 96.876C54.9365 96.5017 54.6604 96.3021 54.2765 96.1829ZM89.5783 127.166C89.7884 127.117 89.7467 126.95 89.7562 126.749C89.7562 126.749 89.7841 126.702 89.8577 126.688C89.8991 126.633 89.9557 126.584 89.9754 126.523C89.985 126.493 89.9253 126.442 89.8969 126.4C89.8566 126.428 89.809 126.45 89.7787 126.486C89.7579 126.511 89.7612 126.556 89.6642 126.593C89.5751 126.586 89.486 126.579 89.3836 126.493C89.0385 126.163 88.882 126.182 88.5677 126.594C86.6049 126.629 84.6422 126.667 82.6793 126.697C82.1642 126.705 81.6487 126.691 81.1212 126.602C81.0538 126.326 80.7907 126.34 80.5969 126.273C80.4774 126.232 80.3237 126.255 80.1942 126.286C79.9875 126.335 79.9153 126.493 79.8248 126.714C78.536 126.744 77.2473 126.78 75.9583 126.802C74.9068 126.819 73.8549 126.82 72.8032 126.825C72.506 126.827 72.2087 126.815 71.8982 126.731C71.553 126.402 71.3966 126.421 71.0823 126.833C70.2495 126.843 69.4168 126.852 68.584 126.864C67.0583 126.885 65.5326 126.908 63.9925 126.85C63.7541 126.655 63.6975 126.674 63.5768 127.013C63.6948 127.027 63.8052 127.04 63.9742 127.104C64.2273 127.481 64.4805 127.858 64.7292 128.333C64.7564 128.696 64.7564 128.696 65.17 128.764C65.3033 128.947 65.4366 129.131 65.5666 129.412C65.6053 129.88 65.6138 129.889 66.1346 129.951C66.2235 130.064 66.3123 130.177 66.4022 130.386C66.4028 130.445 66.4082 130.505 66.403 130.564C66.3838 130.779 66.5072 130.898 66.6916 130.953C66.8015 130.985 66.9239 130.977 67.1073 131.023C67.3167 131.24 67.5261 131.457 67.7275 131.773C67.7956 132.141 67.8116 132.158 68.1411 132.193C68.1982 132.199 68.2562 132.195 68.382 132.22C68.4848 132.32 68.5875 132.421 68.6849 132.618C68.6781 132.798 68.7498 132.907 68.9447 132.907C69.0203 132.906 69.0959 132.906 69.2229 132.917C69.2571 132.933 69.2793 132.959 69.2919 133.086C69.3359 133.298 69.5046 133.259 69.7291 133.289C70.4874 133.806 71.2799 134.264 72.1225 134.63C73.4518 135.208 74.8347 135.555 76.2936 135.529C76.8296 135.52 77.3649 135.467 77.9118 135.504C77.9458 135.538 77.9798 135.601 78.0138 135.601C78.1376 135.601 78.1224 135.491 78.2196 135.367C78.7731 135.217 79.3353 135.092 79.8785 134.911C81.4163 134.398 82.7987 133.59 84.1013 132.639C84.2604 132.522 84.4283 132.418 84.6892 132.312C85.1568 132.274 85.1646 132.267 85.2321 131.751C85.3471 131.661 85.462 131.572 85.6715 131.479C86.0192 131.436 86.0192 131.436 86.0684 131.014C86.4861 130.607 86.9038 130.2 87.4183 129.8C87.6896 129.742 87.6905 129.742 87.7187 129.509C87.7253 129.454 87.7233 129.399 87.7522 129.273C87.8919 129.129 88.0316 128.985 88.2675 128.846C88.4417 128.852 88.5531 128.786 88.5547 128.595C88.5554 128.522 88.5574 128.448 88.5776 128.31C88.6394 128.248 88.7013 128.186 88.8526 128.122C89.0616 128.083 89.029 127.918 89.0611 127.701C89.2034 127.524 89.3456 127.348 89.5783 127.166ZM84.0707 118.504C84.0567 118.292 84.0427 118.081 84.1131 117.867C84.2078 117.858 84.3231 117.852 84.3337 117.739C84.3413 117.658 84.3096 117.548 84.2537 117.492C84.1951 117.433 84.0869 117.423 83.9735 117.303C83.9522 117.054 83.9309 116.805 83.9913 116.545C84.1594 116.491 84.2627 116.385 84.224 116.201C84.1856 116.018 84.0403 115.967 83.834 115.877C83.8196 115.666 83.8052 115.455 83.879 115.24C84.0484 115.233 84.1305 115.149 84.1176 114.977C84.1066 114.83 84.0135 114.778 83.8811 114.771C83.8417 114.768 83.8023 114.767 83.7358 114.675C83.7123 114.387 83.6889 114.099 83.7506 113.809C83.8459 113.8 83.9627 113.795 83.9737 113.681C83.9816 113.599 83.949 113.488 83.8925 113.432C83.833 113.373 83.7237 113.364 83.6089 113.247C83.5905 113.037 83.5722 112.827 83.6357 112.604C83.6847 112.578 83.7476 112.564 83.7803 112.524C83.9449 112.326 83.8971 112.202 83.6382 112.144C83.6023 112.136 83.5635 112.141 83.5032 112.047C83.4781 111.759 83.453 111.472 83.5157 111.182C83.6762 111.177 83.7665 111.103 83.7605 110.934C83.7522 110.696 83.6113 110.599 83.3506 110.506C83.3368 110.294 83.323 110.083 83.3938 109.869C83.4886 109.86 83.6043 109.854 83.6149 109.741C83.6226 109.659 83.5906 109.549 83.5346 109.493C83.4758 109.434 83.3672 109.425 83.2532 109.305C83.2322 109.056 83.2113 108.807 83.2722 108.546C83.4407 108.493 83.5442 108.387 83.5053 108.202C83.4667 108.02 83.3208 107.968 83.1141 107.879C83.1 107.668 83.086 107.457 83.1601 107.242C83.3298 107.235 83.412 107.151 83.399 106.979C83.3878 106.831 83.2942 106.78 83.1618 106.772C83.1223 106.77 83.0828 106.769 83.0167 106.679C82.9955 106.43 82.9742 106.181 83.0372 105.919C83.262 105.842 83.3257 105.678 83.258 105.468C83.2046 105.303 83.0434 105.348 82.8785 105.253C82.8636 105.041 82.8488 104.83 82.9161 104.606C82.9653 104.58 83.0284 104.566 83.0613 104.526C83.2266 104.328 83.1783 104.204 82.9185 104.146C82.8825 104.138 82.8436 104.143 82.7834 104.049C82.7582 103.761 82.7331 103.474 82.7969 103.183C82.9673 103.177 83.0529 103.095 83.0394 102.92C83.028 102.77 82.9319 102.721 82.7988 102.713C82.759 102.711 82.7192 102.71 82.6522 102.623C82.6336 102.412 82.615 102.202 82.6774 101.98C82.8433 101.925 82.9448 101.82 82.9071 101.638C82.8698 101.458 82.7272 101.404 82.533 101.307C82.5123 101.058 82.4916 100.809 82.5586 100.557C82.719 100.552 82.8084 100.478 82.8025 100.31C82.7941 100.072 82.6539 99.9744 82.3938 99.8811C82.3798 99.6698 82.3658 99.4584 82.4364 99.2448C82.531 99.2358 82.6464 99.2299 82.657 99.1167C82.6646 99.0352 82.6329 98.9253 82.5771 98.8693C82.5185 98.8105 82.4103 98.8007 82.2969 98.6805C82.2755 98.4315 82.2542 98.1825 82.3147 97.922C82.4828 97.868 82.586 97.7621 82.5473 97.5781C82.509 97.3959 82.3636 97.3443 82.1572 97.2548C82.1431 97.0435 82.1289 96.8321 82.2028 96.6176C82.3722 96.6107 82.4538 96.5261 82.441 96.3543C82.4299 96.207 82.3369 96.1557 82.2046 96.1481C82.1652 96.1459 82.1258 96.1449 82.0594 96.0524C82.0358 95.7644 82.0121 95.4763 82.0737 95.1862C82.1691 95.1773 82.286 95.1725 82.297 95.0583C82.3049 94.9763 82.2724 94.8652 82.2159 94.8092C82.1564 94.7503 82.047 94.7413 81.9322 94.6241C81.9139 94.4141 81.8956 94.2041 81.9592 93.9817C82.0081 93.9556 82.071 93.941 82.1037 93.9015C82.2682 93.7029 82.2204 93.5797 81.9615 93.5214C81.9257 93.5133 81.8868 93.5182 81.8265 93.4243C81.8015 93.1369 81.7765 92.8495 81.8393 92.5592C82.0013 92.5542 82.0907 92.4786 82.0838 92.3094C82.0741 92.069 81.9296 91.9747 81.641 91.9128C81.5456 91.9085 81.4481 91.8892 81.3552 91.9022C80.4423 92.0297 79.5303 92.1627 78.6055 92.2278C78.5646 92.1966 78.5236 92.1653 78.4827 92.1341C78.4482 92.1956 78.4137 92.2571 78.2839 92.3439C77.3174 92.4865 76.3509 92.6291 75.3719 92.7055C75.331 92.6742 75.2901 92.6429 75.2492 92.6116C75.2147 92.6731 75.1801 92.7346 75.0503 92.8213C74.8546 92.8562 74.6593 92.8944 74.463 92.9254C73.6578 93.0528 72.8523 93.178 72.0048 93.242C71.8528 93.228 71.7919 93.2687 71.811 93.3688C71.8324 93.481 71.9203 93.5 72.0261 93.6169C71.9922 93.9417 71.9582 94.2664 71.8376 94.5995C71.6671 94.6388 71.5521 94.7333 71.5716 94.9196C71.591 95.1044 71.7264 95.1727 71.9106 95.292C71.873 95.6952 71.8354 96.0983 71.704 96.504C71.4494 96.5991 71.422 96.6411 71.4367 96.8643C71.4514 97.0867 71.6082 97.0952 71.7867 97.1987C71.7527 97.5233 71.7187 97.8478 71.5981 98.1808C71.4276 98.2201 71.3126 98.3146 71.3321 98.5008C71.3515 98.6857 71.4869 98.7539 71.671 98.8733C71.6334 99.2764 71.5958 99.6796 71.4645 100.085C71.2098 100.18 71.1825 100.222 71.1972 100.446C71.2119 100.668 71.3687 100.676 71.5472 100.78C71.5132 101.105 71.4792 101.429 71.3585 101.762C71.188 101.801 71.073 101.896 71.0926 102.082C71.112 102.267 71.2474 102.335 71.4315 102.455C71.3939 102.858 71.3563 103.261 71.225 103.666C70.9703 103.762 70.943 103.804 70.9577 104.027C70.9724 104.249 71.1291 104.258 71.3077 104.361C71.2737 104.686 71.2397 105.01 71.119 105.343C70.9485 105.383 70.8335 105.477 70.8531 105.663C70.8724 105.848 71.0078 105.916 71.192 106.036C71.1544 106.439 71.1168 106.842 70.9855 107.248C70.7308 107.343 70.7034 107.385 70.7182 107.608C70.7328 107.83 70.8896 107.839 71.0682 107.942C71.0342 108.267 71.0002 108.592 70.8795 108.925C70.709 108.964 70.594 109.058 70.6135 109.245C70.6329 109.429 70.7683 109.498 70.9525 109.617C70.9149 110.02 70.8773 110.423 70.7459 110.829C70.4912 110.924 70.4639 110.966 70.4786 111.189C70.4933 111.412 70.6501 111.42 70.8286 111.524C70.7946 111.848 70.7606 112.173 70.6399 112.506C70.4694 112.545 70.3545 112.64 70.374 112.826C70.3934 113.011 70.5288 113.079 70.7129 113.198C70.6753 113.601 70.6377 114.005 70.5064 114.41C70.2517 114.505 70.2244 114.547 70.2391 114.771C70.2538 114.993 70.4105 115.002 70.5891 115.105C70.5551 115.43 70.5211 115.754 70.4004 116.087C70.2299 116.126 70.1149 116.221 70.1345 116.407C70.1539 116.592 70.2893 116.66 70.4734 116.78C70.4358 117.183 70.3982 117.586 70.2669 117.991C70.0122 118.087 69.9849 118.129 69.9996 118.352C70.0143 118.574 70.171 118.583 70.3496 118.689C70.329 118.963 70.3086 119.237 70.2878 119.512C70.2792 119.627 70.2428 119.747 70.3982 119.873C70.8252 119.888 71.2958 119.864 71.7669 119.852C72.6935 119.828 73.6203 119.812 74.5602 119.87C74.7485 120.066 74.8027 120.053 75.0161 119.77C75.4896 119.757 75.963 119.743 76.4366 119.732C77.2838 119.713 78.131 119.696 78.9914 119.765C79.0832 120.039 79.3028 120.04 79.5277 120C79.7154 119.966 79.6855 119.801 79.8064 119.649C80.2405 119.636 80.6746 119.622 81.1088 119.612C82.0354 119.591 82.962 119.573 83.9001 119.625C83.9351 119.659 83.9721 119.724 84.005 119.722C84.1325 119.715 84.1088 119.604 84.1243 119.435C84.1321 119.351 84.14 119.267 84.2356 119.18C84.396 119.175 84.4851 119.1 84.4792 118.932C84.4708 118.695 84.3307 118.597 84.0707 118.504ZM100.551 96.4042C100.347 96.3779 100.154 96.4122 99.9714 96.5071C99.5855 96.7073 99.3817 97.1374 99.4736 97.5619C99.5591 97.9573 99.9077 98.2628 100.314 98.2987C100.764 98.3384 101.147 98.1032 101.307 97.6894C101.456 97.305 101.343 96.8779 101.008 96.6208C100.899 96.5374 100.764 96.4874 100.551 96.4042Z" fill="#C89D68"/>
<path d="M88.9269 82.9975C88.728 83.005 88.529 83.0188 88.33 83.0188C80.4123 83.0199 72.4945 83.0198 64.5768 83.0193C64.3974 83.0193 64.2181 83.0126 63.9844 82.9498C63.9422 82.2937 63.9599 81.6969 63.9657 81.1001C64.004 77.1215 64.0394 73.1429 64.0766 69.1643C64.1161 64.9469 64.1565 60.7296 64.1965 56.5123C64.2364 52.2949 64.2762 48.0776 64.3162 43.8603C64.356 39.6628 64.3962 35.4654 64.4361 31.268C64.476 27.0705 64.5154 22.8731 64.5557 18.6757C64.5984 14.2197 64.6427 9.76367 64.685 5.30763C64.7227 1.32899 64.7581 -2.64967 64.7954 -6.62832C64.8348 -10.8257 64.8753 -15.0232 64.9152 -19.2206C64.9551 -23.418 64.9943 -27.6155 65.0347 -31.8129C65.0801 -36.5275 65.1284 -41.2422 65.1718 -45.9569C65.194 -48.3641 65.2083 -50.7713 65.2262 -53.1786C65.3453 -53.1864 65.4645 -53.2012 65.5836 -53.2012C70.5695 -53.2008 75.5554 -53.1991 80.597 -53.1332C80.6619 -52.7509 80.6294 -52.4245 80.6922 -52.1174C80.753 -51.8203 80.764 -51.528 80.7714 -51.2309C80.78 -50.893 80.7447 -50.5464 80.8101 -50.2198C80.8737 -49.9026 80.8842 -49.5904 80.8909 -49.2736C80.8967 -48.9951 80.8533 -48.7067 80.9118 -48.4401C81.0416 -47.8487 80.9946 -47.2536 81.0182 -46.6598C81.0238 -46.521 81.032 -46.3821 81.0451 -46.2439C81.0713 -45.9686 81.1121 -45.6943 81.1279 -45.4186C81.1483 -45.0615 81.1076 -44.6954 81.173 -44.3481C81.229 -44.0506 81.243 -43.7583 81.2495 -43.4614C81.2569 -43.1233 81.2058 -42.7737 81.2755 -42.4495C81.3945 -41.8958 81.354 -41.342 81.3774 -40.788C81.3824 -40.6689 81.3637 -40.5409 81.4011 -40.4325C81.5082 -40.1221 81.4834 -39.8041 81.4898 -39.4872C81.4954 -39.2087 81.4527 -38.9205 81.5106 -38.6537C81.643 -38.0425 81.5947 -37.4274 81.6177 -36.8138C81.6222 -36.6948 81.6315 -36.5759 81.6432 -36.4574C81.6703 -36.1822 81.7113 -35.9079 81.7261 -35.6322C81.7432 -35.3146 81.6856 -34.984 81.7541 -34.6801C81.8789 -34.1267 81.8305 -33.5724 81.8558 -33.0186C81.8631 -32.8598 81.837 -32.6904 81.884 -32.5444C81.9846 -32.2317 81.9602 -31.9151 81.9696 -31.5985C81.979 -31.2805 81.9409 -30.9527 82.0071 -30.6472C82.0802 -30.3101 82.0808 -29.9776 82.0893 -29.6412C82.0958 -29.3826 82.0537 -29.1145 82.1088 -28.8673C82.2448 -28.2566 82.1931 -27.6411 82.2167 -27.0274C82.2213 -26.9085 82.23 -26.7895 82.2417 -26.671C82.2689 -26.3958 82.3098 -26.1216 82.3255 -25.8458C82.346 -25.4888 82.305 -25.1227 82.37 -24.7753C82.4257 -24.4779 82.4396 -24.1856 82.4479 -23.8887C82.4573 -23.5509 82.4215 -23.2041 82.4873 -22.8777C82.5513 -22.5604 82.5594 -22.2482 82.5677 -21.9314C82.577 -21.5737 82.5388 -21.2069 82.6065 -20.8606C82.6725 -20.5234 82.6787 -20.1913 82.6882 -19.8548C82.6967 -19.5567 82.6582 -19.2484 82.7226 -18.963C82.803 -18.6067 82.7994 -18.2538 82.8083 -17.8975C82.8148 -17.639 82.7698 -17.3689 82.8301 -17.1242C82.9614 -16.5921 82.9087 -16.0565 82.933 -15.5225C82.9411 -15.3439 82.9127 -15.1544 82.9635 -14.9889C83.0537 -14.6947 83.039 -14.3994 83.047 -14.1024C83.0561 -13.7645 83.0202 -13.4178 83.0859 -13.0913C83.1498 -12.7741 83.1591 -12.4619 83.1663 -12.1451C83.174 -11.8071 83.1253 -11.4574 83.1965 -11.1336C83.301 -10.6583 83.2706 -10.185 83.292 -9.71043C83.3009 -9.5121 83.3055 -9.31337 83.322 -9.11565C83.345 -8.84011 83.3882 -8.56591 83.4029 -8.29009C83.4197 -7.97248 83.3624 -7.64192 83.4311 -7.33806C83.5517 -6.80436 83.5084 -6.27025 83.5318 -5.73618C83.5397 -5.55753 83.5118 -5.36823 83.5622 -5.20251C83.6516 -4.90836 83.6379 -4.61307 83.6457 -4.31605C83.6546 -3.97818 83.619 -3.63147 83.6847 -3.30498C83.7485 -2.98775 83.7585 -2.67553 83.7655 -2.35873C83.7717 -2.0803 83.7278 -1.79185 83.7863 -1.52531C83.916 -0.933846 83.8693 -0.338776 83.8927 0.254978C83.8982 0.393749 83.9068 0.532593 83.9199 0.670841C83.946 0.946129 83.9866 1.22046 84.0024 1.49625C84.0227 1.85332 83.9821 2.21937 84.0475 2.56668C84.1034 2.86417 84.1173 3.15645 84.1239 3.45337C84.1306 3.75169 84.083 4.06137 84.1477 4.3461C84.2778 4.91857 84.2259 5.49341 84.2512 6.06713C84.2573 6.20608 84.2345 6.35478 84.2766 6.482C84.3798 6.79361 84.3572 7.11079 84.3643 7.42765C84.3709 7.72593 84.3252 8.03574 84.3911 8.32008C84.5101 8.83364 84.4668 9.34816 84.4898 9.86239C84.4986 10.0607 84.5023 10.2596 84.5189 10.4573C84.5419 10.7328 84.5853 11.0069 84.6011 11.2827C84.6215 11.6398 84.5805 12.0059 84.646 12.3532C84.7022 12.6506 84.7149 12.9429 84.7236 13.2398C84.7335 13.5776 84.6972 13.9244 84.7632 14.2508C84.8274 14.5681 84.8352 14.8804 84.8428 15.197C84.8508 15.5351 84.8024 15.8847 84.8736 16.2085C84.9781 16.6838 84.9471 17.1571 84.9688 17.6317C84.9778 17.83 84.9832 18.0287 85.0002 18.2263C85.0221 18.482 85.0659 18.7364 85.0787 18.9924C85.0956 19.3299 85.0377 19.6803 85.1087 20.004C85.2258 20.5382 85.1845 21.0719 85.2085 21.606C85.2166 21.7846 85.1884 21.9742 85.2394 22.1396C85.33 22.4338 85.314 22.7292 85.3223 23.0261C85.3317 23.364 85.2961 23.7107 85.3619 24.0372C85.4258 24.3545 85.4348 24.6667 85.4419 24.9834C85.4481 25.2619 85.4034 25.5508 85.4633 25.8167C85.5965 26.4083 85.5435 27.0036 85.5693 27.5972C85.5754 27.7359 85.5842 27.8747 85.5979 28.0128C85.6231 28.2683 85.665 28.5227 85.6778 28.7787C85.6947 29.1163 85.6364 29.4666 85.7073 29.7904C85.8244 30.3246 85.7834 30.8583 85.8075 31.3923C85.8155 31.571 85.7874 31.7604 85.8381 31.926C85.9282 32.2202 85.9132 32.5155 85.9214 32.8125C85.9307 33.1503 85.8949 33.4971 85.9606 33.8235C86.0245 34.1408 86.0324 34.4531 86.0411 34.7698C86.0499 35.0878 86.0124 35.4154 86.0777 35.7213C86.1496 36.0581 86.1524 36.3905 86.1609 36.7271C86.1695 37.065 86.13 37.4124 86.1967 37.7383C86.2698 38.0951 86.2729 38.4473 86.2814 38.8037C86.2875 39.0622 86.243 39.3324 86.3035 39.5771C86.4349 40.1091 86.3826 40.6446 86.4062 41.1787C86.4142 41.3573 86.3863 41.5467 86.4369 41.7123C86.5266 42.0065 86.5136 42.3018 86.5199 42.5988C86.5262 42.8972 86.4799 43.2063 86.5431 43.4917C86.6654 44.0443 86.6254 44.5987 86.6472 45.1529C86.6526 45.2915 86.6637 45.4301 86.6773 45.5683C86.7024 45.8238 86.7424 46.0784 86.7557 46.3345C86.7743 46.6917 86.7254 47.0598 86.795 47.4052C86.8709 47.7821 86.869 48.1544 86.8802 48.5303C86.889 48.8285 86.8462 49.1377 86.9122 49.4223C87.0039 49.818 86.9881 50.2113 87.0013 50.607C87.0092 50.8455 86.9698 51.095 87.0276 51.3203C87.1338 51.7338 87.1081 52.1487 87.1209 52.5642C87.1289 52.8226 87.0856 53.0927 87.1469 53.3372C87.2654 53.8104 87.2218 54.2857 87.2441 54.7602C87.2534 54.9584 87.2594 55.157 87.2765 55.3546C87.2985 55.6104 87.3414 55.8648 87.3547 56.1209C87.3733 56.4781 87.3241 56.8462 87.3936 57.1917C87.4695 57.5685 87.4689 57.9407 87.4788 58.3167C87.4862 58.5951 87.439 58.8852 87.5019 59.1497C87.6286 59.6823 87.5819 60.2172 87.6045 60.7514C87.6104 60.8903 87.5884 61.0391 87.631 61.1661C87.7356 61.4778 87.7095 61.7952 87.7173 62.1119C87.7257 62.4499 87.6772 62.7994 87.7482 63.1233C87.8524 63.5986 87.8217 64.072 87.8432 64.5466C87.8521 64.7448 87.8578 64.9435 87.8748 65.1411C87.8968 65.3968 87.9405 65.6512 87.9533 65.9072C87.9702 66.2447 87.9124 66.595 87.9833 66.9188C88.1004 67.453 88.0587 67.9868 88.0828 68.5208C88.0909 68.6995 88.063 68.889 88.1141 69.0544C88.2051 69.3486 88.1896 69.644 88.1963 69.941C88.203 70.2393 88.1563 70.5485 88.2199 70.8337C88.3431 71.3864 88.301 71.9409 88.3238 72.495C88.3294 72.6336 88.3418 72.772 88.3552 72.9101C88.3802 73.1657 88.4205 73.4205 88.432 73.6766C88.449 74.054 88.3919 74.4431 88.4653 74.8075C88.5652 75.3029 88.5407 75.7957 88.5618 76.2901C88.5695 76.4687 88.5731 76.6477 88.5887 76.8256C88.6129 77.101 88.6565 77.3751 88.6723 77.6508C88.6929 78.0079 88.652 78.3738 88.7166 78.7214C88.7719 79.0186 88.7873 79.3109 88.7949 79.6079C88.8046 79.9855 88.7695 80.371 88.8358 80.7384C88.893 81.0557 88.9099 81.3678 88.9148 81.6846C88.9217 82.1222 88.9232 82.5599 88.9269 82.9975Z" fill="#0070B8"/>
<path d="M40.866 83.0449C40.7776 83.0478 40.6972 83.0255 40.6196 83.0326C39.9851 83.0912 39.3516 83.1604 38.7169 83.2163C38.1412 83.2669 37.5646 83.3069 36.9882 83.3482C34.8573 83.501 32.7225 83.5497 30.5894 83.4582C29.4372 83.4089 28.2853 83.31 27.137 83.1629C25.5535 82.96 23.9857 82.686 22.4422 82.2865C19.3521 81.4867 16.4293 80.2902 13.7538 78.5365C11.7768 77.2407 10.0043 75.7095 8.4467 73.9275C6.13938 71.2877 4.43635 68.2961 3.16207 65.0479C2.33215 62.9325 1.71679 60.7545 1.28622 58.5266C1.04892 57.2988 0.888438 56.0583 0.746141 54.8142C0.451344 52.2367 0.464949 49.6532 0.562647 47.0708C0.621884 45.505 0.802641 43.9463 1.0914 42.3989C1.64276 39.4442 2.61759 36.6406 4.00644 33.9791C5.07787 31.926 6.36175 30.0097 7.86566 28.2456C8.51101 27.4886 9.17345 26.7435 9.86605 26.0295C12.0943 23.7325 14.5903 21.7574 17.26 19.9957C20.1782 18.0701 23.2535 16.4343 26.4619 15.045C26.7318 14.9282 26.9848 14.7581 27.3226 14.7324C27.3723 14.8866 27.4355 15.0316 27.4653 15.1831C28.0762 18.2806 28.68 21.3794 29.2921 24.4767C29.8696 27.3985 30.4567 30.3184 31.0364 33.2398C31.5195 35.6744 31.998 38.1098 32.4786 40.5448C32.9553 42.9604 33.4322 45.3759 33.9089 47.7914C34.3895 50.2265 34.8701 52.6616 35.3507 55.0966C35.8313 57.5317 36.3119 59.9668 36.7925 62.4019C37.2693 64.8175 37.7462 67.2329 38.223 69.6485C38.7036 72.0836 39.1857 74.5183 39.6641 76.9539C40.0046 78.688 40.3396 80.4231 40.6789 82.1575C40.6901 82.2148 40.7203 82.2684 40.775 82.4001C40.8372 82.6547 40.8659 82.8328 40.8947 83.0109C40.8947 83.0109 40.8753 83.0333 40.866 83.0449Z" fill="#C89D68"/>
<path d="M65.1693 -53.1909C65.208 -50.7714 65.1936 -48.3641 65.1714 -45.9569C65.128 -41.2422 65.0798 -36.5276 65.0344 -31.8129C64.994 -27.6155 64.9548 -23.418 64.9149 -19.2206C64.875 -15.0232 64.8345 -10.8258 64.7951 -6.62834C64.7577 -2.64969 64.7224 1.32898 64.6846 5.30762C64.6424 9.76365 64.5981 14.2197 64.5553 18.6757C64.515 22.8731 64.4756 27.0705 64.4357 31.268C64.3958 35.4654 64.3557 39.6628 64.3158 43.8602C64.2758 48.0776 64.2361 52.2949 64.1961 56.5123C64.1562 60.7296 64.1157 64.9469 64.0763 69.1643C64.0391 73.1429 64.0037 77.1215 63.9653 81.1001C63.9595 81.6969 63.9418 82.2937 63.9311 82.9433C63.793 83.0019 63.6535 83.0125 63.5141 83.0125C59.6028 83.0126 55.6916 83.0115 51.723 82.9532C51.6658 82.0205 51.6579 81.1452 51.6676 80.27C51.718 75.7168 51.6428 71.1634 51.7523 66.6098C51.8301 63.3692 51.763 60.1254 51.7901 56.8832C51.8282 52.33 51.7696 47.7767 51.8704 43.223C51.9528 39.5049 51.8895 35.7838 51.9133 32.0642C51.9405 27.8292 51.9025 23.5942 51.992 19.3588C52.0668 15.8196 52.0111 12.2777 52.0327 8.73709C52.059 4.42248 51.9951 0.107433 52.119 -4.20686C52.163 -5.73735 52.1331 -7.26996 52.1365 -8.80161C52.1433 -11.8251 52.1345 -14.8488 52.1608 -17.8721C52.1871 -20.8937 52.162 -23.9151 52.2272 -26.9375C52.3103 -30.7948 52.2481 -34.6551 52.276 -38.5139C52.304 -42.3909 52.2126 -46.2686 52.359 -50.1451C52.3973 -51.1582 52.3676 -52.1738 52.3691 -53.1883C52.5082 -53.1953 52.6474 -53.2084 52.7865 -53.2084C56.8355 -53.2093 60.8844 -53.209 64.9334 -53.2085C64.9932 -53.2085 65.053 -53.205 65.1693 -53.1909Z" fill="#DC3433"/>
<path d="M110.715 82.959C106.995 83.0145 103.282 83.0145 99.5122 82.9534C99.4196 82.4375 99.3763 81.983 99.3515 81.5275C99.317 80.8933 99.3102 80.2596 99.2466 79.6246C99.1517 78.6772 99.1413 77.7215 99.0938 76.7694C99.0492 75.8769 99.0032 74.9845 98.9578 74.092C98.9568 74.0721 98.9567 74.0521 98.9543 74.0324C98.8219 72.9475 98.8124 71.8544 98.7398 70.7655C98.679 69.8541 98.6456 68.941 98.5998 68.0286C98.5979 67.9889 98.5944 67.9493 98.5915 67.9096C98.5236 66.9798 98.445 66.0505 98.3908 65.1199C98.3295 64.069 98.2903 63.0169 98.2414 61.9653C98.2396 61.9256 98.2397 61.8855 98.2343 61.8462C98.0954 60.8216 98.1072 59.7869 98.0277 58.758C97.9527 57.7882 97.9277 56.8145 97.8808 55.8425C97.8798 55.8226 97.8794 55.8027 97.8779 55.7828C97.8095 54.8929 97.7328 54.0035 97.6753 53.1128C97.6344 52.479 97.632 51.8449 97.5695 51.2099C97.4743 50.2426 97.4634 49.2671 97.415 48.2952C97.3715 47.4225 97.3257 46.55 97.2808 45.6774C97.2798 45.6575 97.2796 45.6375 97.2769 45.6179C97.1352 44.5735 97.15 43.5187 97.0681 42.47C96.9939 41.5201 96.9691 40.5662 96.9224 39.6141C96.9204 39.5744 96.9165 39.5348 96.9136 39.4951C96.846 38.5653 96.7676 37.636 96.7135 36.7054C96.6523 35.6545 96.613 34.6024 96.5641 33.5508C96.5623 33.511 96.5624 33.4709 96.5567 33.4317C96.4108 32.4275 96.4373 31.4118 96.3537 30.403C96.2716 29.4139 96.2511 28.4198 96.2034 27.4279C96.2015 27.3882 96.1968 27.3487 96.194 27.309C96.126 26.3593 96.0482 25.4101 95.9928 24.4596C95.9327 23.4286 95.8935 22.3963 95.8451 21.3646C95.8432 21.3249 95.8429 21.2848 95.837 21.2456C95.6847 20.2419 95.7304 19.2253 95.6359 18.2167C95.5471 17.2685 95.5336 16.3133 95.4869 15.3612C95.4859 15.3413 95.4869 15.3211 95.4838 15.3016C95.3174 14.2789 95.3855 13.2414 95.2814 12.2128C95.1795 11.2064 95.174 10.1903 95.126 9.17851C95.1241 9.1388 95.1206 9.09916 95.1176 9.05951C95.0506 8.16944 94.9711 7.28009 94.9197 6.38913C94.8568 5.29854 94.8174 4.20661 94.7678 3.11526C94.766 3.07552 94.7659 3.03548 94.7606 2.99617C94.6225 1.97152 94.6329 0.936871 94.5536 -0.0920105C94.4789 -1.0619 94.4538 -2.03558 94.4066 -3.00759C94.4047 -3.04729 94.4004 -3.08688 94.3975 -3.12654C94.33 -4.0564 94.252 -4.98565 94.1979 -5.91628C94.137 -6.96716 94.0976 -8.01929 94.0487 -9.07088C94.0469 -9.1106 94.0463 -9.15061 94.0409 -9.18991C93.9053 -10.1748 93.913 -11.1696 93.8374 -12.1588C93.7633 -13.1288 93.7374 -14.1025 93.6901 -15.0745C93.6882 -15.1142 93.6839 -15.1538 93.681 -15.1934C93.6136 -16.1233 93.5355 -17.0526 93.4815 -17.9833C93.4204 -19.0342 93.3808 -20.0863 93.3318 -21.1379C93.33 -21.1776 93.3275 -21.2173 93.3245 -21.257C93.2568 -22.1669 93.182 -23.0765 93.1234 -23.987C93.0827 -24.6207 93.0853 -25.2549 93.0179 -25.8899C92.9238 -26.7772 92.9139 -27.6735 92.8694 -28.566C92.822 -29.5181 92.7762 -30.4702 92.7297 -31.4224C92.7288 -31.4422 92.7283 -31.4622 92.7268 -31.482C92.6585 -32.3719 92.5817 -33.2614 92.5248 -34.152C92.4844 -34.7858 92.4819 -35.4199 92.4181 -36.0548C92.3249 -36.9824 92.3145 -37.9181 92.2674 -38.8503C92.2234 -39.723 92.1778 -40.5955 92.1328 -41.4681C92.1318 -41.4879 92.1307 -41.5078 92.1293 -41.5276C92.0595 -42.4972 91.9798 -43.4661 91.9227 -44.4364C91.862 -45.4674 91.8228 -46.4996 91.7743 -47.5313C91.7734 -47.5512 91.7734 -47.5711 91.7718 -47.591C91.7033 -48.4809 91.6249 -49.3703 91.5688 -50.261C91.5077 -51.232 91.4674 -52.2044 91.418 -53.1762C91.5767 -53.1858 91.7354 -53.2038 91.8941 -53.2038C95.9645 -53.2054 100.035 -53.205 104.105 -53.205C104.244 -53.205 104.382 -53.205 104.552 -53.205C104.576 -53.0763 104.611 -52.9666 104.616 -52.8556C104.701 -51.0281 104.78 -49.2004 104.864 -47.3729C104.963 -45.2475 105.066 -43.1223 105.166 -40.9969C105.211 -40.0435 105.254 -39.0899 105.295 -38.1363C105.393 -35.8515 105.488 -33.5666 105.588 -31.282C105.708 -28.5603 105.832 -25.8388 105.954 -23.1173C106.071 -20.515 106.188 -17.9126 106.305 -15.3103C106.428 -12.5888 106.55 -9.8672 106.672 -7.14567C106.79 -4.52345 106.909 -1.90127 107.027 0.72094C107.148 3.42262 107.269 6.12432 107.391 8.826C107.509 11.4482 107.627 14.0704 107.745 16.6926C107.867 19.3942 107.988 22.096 108.109 24.7976C108.227 27.4 108.345 30.0022 108.462 32.6046C108.584 35.3261 108.706 38.0477 108.828 40.7692C108.946 43.3914 109.065 46.0136 109.183 48.6358C109.304 51.3375 109.425 54.0392 109.547 56.7409C109.664 59.3432 109.781 61.9455 109.898 64.5478C110.021 67.2694 110.143 69.9909 110.265 72.7125C110.383 75.3347 110.502 77.9569 110.62 80.5791C110.654 81.3538 110.688 82.1286 110.715 82.959Z" fill="#132F4C"/>
<path d="M52.3163 -53.1974C52.3684 -52.1742 52.3981 -51.1585 52.3598 -50.1454C52.2135 -46.269 52.3048 -42.3913 52.2768 -38.5143C52.2489 -34.6554 52.3111 -30.7952 52.228 -26.9378C52.1628 -23.9155 52.188 -20.8941 52.1617 -17.8725C52.1353 -14.8491 52.1442 -11.8255 52.1374 -8.80197C52.1339 -7.27032 52.1638 -5.73772 52.1198 -4.20723C51.9959 0.107071 52.0598 4.42212 52.0335 8.73672C52.0119 12.2773 52.0676 15.8192 51.9928 19.3585C51.9034 23.5939 51.9413 27.8288 51.9142 32.0639C51.8903 35.7835 51.9536 39.5045 51.8713 43.2226C51.7704 47.7764 51.8291 52.3296 51.791 56.8829C51.7638 60.125 51.831 63.3688 51.7531 66.6094C51.6437 71.1631 51.7188 75.7164 51.6684 80.2696C51.6587 81.1448 51.6666 82.0202 51.6675 82.9507C49.445 83.0085 47.2214 83.0118 44.9978 83.0135C43.6676 83.0146 42.3374 83.0132 40.9513 83.0115C40.8666 82.8321 40.8379 82.6541 40.8042 82.4446C40.7903 79.5694 40.783 76.7254 40.7719 73.8815C40.764 71.833 40.7548 69.7845 40.7399 67.736C40.7019 62.5261 40.6606 57.3162 40.6204 52.1062C40.5807 46.9759 40.5407 41.8455 40.5007 36.7152C40.4609 31.6246 40.4209 26.534 40.3811 21.4434C40.3411 16.313 40.3011 11.1826 40.2612 6.05228C40.2212 0.902039 40.1815 -4.2482 40.1413 -9.39843C40.1017 -14.4691 40.0613 -19.5398 40.0219 -24.6105C39.9815 -29.8006 39.9432 -34.9906 39.9014 -40.1806C39.8688 -44.2172 39.8323 -48.2538 39.798 -52.2904C39.7957 -52.5661 39.7977 -52.8419 39.7977 -53.144C39.9464 -53.1693 40.0585 -53.2032 40.1711 -53.2048C40.6299 -53.2114 41.0889 -53.2083 41.5478 -53.2082C45.1195 -53.2076 48.6911 -53.2069 52.3163 -53.1974Z" fill="#FDCB38"/>
<path d="M91.366 -53.188C91.4691 -52.205 91.5095 -51.2327 91.5706 -50.2616C91.6266 -49.3709 91.7051 -48.4816 91.7736 -47.5916C91.7751 -47.5718 91.7751 -47.5518 91.776 -47.532C91.8246 -46.5003 91.8638 -45.468 91.9244 -44.437C91.9815 -43.4667 92.0613 -42.4978 92.131 -41.5282C92.1324 -41.5084 92.1335 -41.4885 92.1346 -41.4687C92.1795 -40.5961 92.2252 -39.7236 92.2692 -38.851C92.3162 -37.9188 92.3267 -36.983 92.4199 -36.0554C92.4837 -35.4206 92.4861 -34.7864 92.5266 -34.1527C92.5834 -33.262 92.6603 -32.3726 92.7285 -31.4826C92.73 -31.4628 92.7305 -31.4429 92.7315 -31.423C92.778 -30.4709 92.8237 -29.5187 92.8712 -28.5666C92.9157 -27.6741 92.9255 -26.7779 93.0197 -25.8905C93.0871 -25.2555 93.0844 -24.6214 93.1252 -23.9876C93.1837 -23.0771 93.2585 -22.1676 93.3263 -21.2576C93.3292 -21.218 93.3317 -21.1783 93.3336 -21.1385C93.3826 -20.0869 93.4221 -19.0348 93.4832 -17.9839C93.5373 -17.0532 93.6153 -16.124 93.6828 -15.1941C93.6857 -15.1544 93.6899 -15.1148 93.6918 -15.0751C93.7391 -14.1031 93.765 -13.1295 93.8391 -12.1595C93.9147 -11.1702 93.9071 -10.1754 94.0426 -9.19054C94.0481 -9.15124 94.0486 -9.11122 94.0505 -9.0715C94.0994 -8.01992 94.1387 -6.96778 94.1997 -5.9169C94.2537 -4.98627 94.3318 -4.05702 94.3992 -3.12717C94.4021 -3.08751 94.4064 -3.04792 94.4083 -3.00821C94.4555 -2.03621 94.4807 -1.06252 94.5554 -0.0926361C94.6346 0.936245 94.6242 1.97089 94.7624 2.99555C94.7677 3.03485 94.7677 3.0749 94.7695 3.11463C94.8192 4.20598 94.8585 5.29792 94.9215 6.3885C94.9729 7.27947 95.0524 8.16882 95.1194 9.05888C95.1224 9.09853 95.1258 9.13818 95.1277 9.17789C95.1757 10.1897 95.1813 11.2058 95.2831 12.2122C95.3872 13.2408 95.3192 14.2783 95.4855 15.301C95.4887 15.3205 95.4877 15.3407 95.4887 15.3606C95.5353 16.3127 95.5488 17.2679 95.6377 18.2161C95.7322 19.2247 95.6865 20.2413 95.8388 21.245C95.8447 21.2842 95.845 21.3243 95.8468 21.364C95.8952 22.3957 95.9344 23.4279 95.9945 24.459C96.0499 25.4094 96.1277 26.3586 96.1957 27.3084C96.1985 27.348 96.2032 27.3876 96.2051 27.4273C96.2529 28.4192 96.2734 29.4133 96.3554 30.4024C96.4391 31.4112 96.4125 32.4269 96.5585 33.4311C96.5642 33.4703 96.564 33.5104 96.5658 33.5501C96.6147 34.6017 96.6541 35.6539 96.7152 36.7048C96.7694 37.6354 96.8477 38.5646 96.9154 39.4945C96.9183 39.5342 96.9222 39.5738 96.9241 39.6135C96.9709 40.5656 96.9957 41.5194 97.0699 42.4694C97.1518 43.5181 97.137 44.5729 97.2787 45.6172C97.2813 45.6369 97.2815 45.6569 97.2825 45.6768C97.3274 46.5494 97.3733 47.4219 97.4168 48.2945C97.4652 49.2665 97.476 50.242 97.5712 51.2093C97.6337 51.8443 97.6361 52.4784 97.6771 53.1122C97.7346 54.0028 97.8113 54.8923 97.8796 55.7822C97.8812 55.802 97.8816 55.822 97.8825 55.8418C97.9295 56.8138 97.9545 57.7875 98.0294 58.7574C98.109 59.7863 98.0971 60.821 98.2361 61.8456C98.2414 61.8849 98.2413 61.9249 98.2432 61.9647C98.2921 63.0162 98.3313 64.0684 98.3925 65.1193C98.4467 66.0499 98.5254 66.9791 98.5932 67.909C98.5961 67.9487 98.5996 67.9883 98.6016 68.028C98.6473 68.9404 98.6807 69.8535 98.7415 70.7649C98.8141 71.8538 98.8237 72.9469 98.956 74.0318C98.9584 74.0515 98.9585 74.0715 98.9595 74.0913C99.0049 74.9838 99.051 75.8763 99.0955 76.7688C99.143 77.7209 99.1535 78.6766 99.2484 79.6239C99.312 80.2589 99.3187 80.8927 99.3532 81.5269C99.378 81.9823 99.4213 82.4368 99.4586 82.9446C99.3421 83.0051 99.2235 83.0193 99.1048 83.0193C95.7485 83.019 92.3923 83.0172 88.9817 83.0065C88.9235 82.5598 88.922 82.1221 88.9152 81.6845C88.9103 81.3677 88.8934 81.0556 88.8362 80.7383C88.7699 80.371 88.805 79.9854 88.7953 79.6078C88.7877 79.3108 88.7723 79.0186 88.717 78.7213C88.6524 78.3737 88.6932 78.0078 88.6727 77.6507C88.6569 77.375 88.6132 77.1009 88.5891 76.8255C88.5734 76.6476 88.5698 76.4686 88.5622 76.2901C88.5411 75.7956 88.5655 75.3028 88.4657 74.8074C88.3923 74.443 88.4494 74.0539 88.4324 73.6765C88.4209 73.4204 88.3806 73.1656 88.3556 72.91C88.3421 72.7719 88.3298 72.6335 88.3241 72.4949C88.3013 71.9408 88.3435 71.3863 88.2203 70.8337C88.1567 70.5484 88.2034 70.2392 88.1967 69.9409C88.19 69.6439 88.2055 69.3485 88.1145 69.0543C88.0634 68.8889 88.0913 68.6994 88.0832 68.5207C88.0591 67.9867 88.1008 67.4529 87.9837 66.9187C87.9128 66.5949 87.9706 66.2446 87.9537 65.9071C87.9408 65.6511 87.8972 65.3967 87.8752 65.141C87.8582 64.9434 87.8525 64.7447 87.8435 64.5465C87.8221 64.0719 87.8527 63.5985 87.7486 63.1233C87.6776 62.7993 87.7261 62.4498 87.7177 62.1118C87.7098 61.7951 87.736 61.4777 87.6314 61.166C87.5888 61.039 87.6108 60.8902 87.6049 60.7513C87.5823 60.2171 87.629 59.6822 87.5023 59.1496C87.4393 58.8851 87.4866 58.595 87.4792 58.3166C87.4693 57.9406 87.4699 57.5684 87.394 57.1916C87.3245 56.8461 87.3737 56.4781 87.3551 56.1208C87.3418 55.8647 87.2989 55.6103 87.2768 55.3545C87.2598 55.1569 87.2538 54.9583 87.2445 54.7601C87.2222 54.2856 87.2658 53.8103 87.1473 53.3371C87.086 53.0926 87.1293 52.8225 87.1213 52.5641C87.1085 52.1486 87.1342 51.7337 87.028 51.3202C86.9702 51.0949 87.0096 50.8454 87.0017 50.6069C86.9885 50.2112 87.0043 49.8179 86.9126 49.4222C86.8466 49.1376 86.8894 48.8284 86.8805 48.5303C86.8694 48.1543 86.8713 47.782 86.7954 47.4051C86.7258 47.0597 86.7747 46.6917 86.7561 46.3344C86.7428 46.0783 86.7027 45.8237 86.6777 45.5682C86.6641 45.43 86.653 45.2914 86.6476 45.1528C86.6258 44.5986 86.6658 44.0442 86.5435 43.4916C86.4803 43.2062 86.5266 42.8971 86.5203 42.5987C86.514 42.3017 86.527 42.0064 86.4372 41.7122C86.3867 41.5466 86.4146 41.3572 86.4066 41.1786C86.3829 40.6445 86.4353 40.109 86.3039 39.577C86.2434 39.3323 86.2879 39.0621 86.2817 38.8036C86.2733 38.4473 86.2702 38.095 86.1971 37.7382C86.1304 37.4123 86.1699 37.0649 86.1613 36.727C86.1528 36.3904 86.1499 36.058 86.078 35.7212C86.0128 35.4153 86.0503 35.0877 86.0415 34.7697C86.0328 34.453 86.0249 34.1407 85.961 33.8234C85.8953 33.497 85.9311 33.1502 85.9218 32.8124C85.9136 32.5154 85.9286 32.2201 85.8385 31.9259C85.7878 31.7603 85.8159 31.5709 85.8078 31.3922C85.7838 30.8582 85.8248 30.3245 85.7077 29.7903C85.6368 29.4665 85.6951 29.1162 85.6782 28.7786C85.6654 28.5227 85.6235 28.2682 85.5983 28.0127C85.5846 27.8746 85.5758 27.7358 85.5697 27.5971C85.5439 27.0035 85.5969 26.4082 85.4637 25.8166C85.4038 25.5507 85.4484 25.2618 85.4422 24.9833C85.4352 24.6666 85.4262 24.3544 85.3623 24.0371C85.2965 23.7106 85.3321 23.3639 85.3227 23.026C85.3144 22.7291 85.3304 22.4337 85.2398 22.1395C85.1888 21.9741 85.2169 21.7845 85.2089 21.6059C85.1848 21.0718 85.2261 20.5381 85.109 20.0039C85.0381 19.6802 85.096 19.3298 85.0791 18.9923C85.0663 18.7363 85.0225 18.4819 85.0005 18.2262C84.9836 18.0286 84.9782 17.8299 84.9692 17.6316C84.9475 17.157 84.9785 16.6837 84.874 16.2084C84.8028 15.8846 84.8511 15.535 84.8431 15.1969C84.8356 14.8803 84.8277 14.568 84.7636 14.2507C84.6976 13.9243 84.7339 13.5775 84.724 13.2397C84.7153 12.9428 84.7026 12.6505 84.6464 12.3531C84.5809 12.0058 84.6218 11.6397 84.6014 11.2826C84.5857 11.0068 84.5423 10.7327 84.5192 10.4572C84.5027 10.2595 84.499 10.0607 84.4902 9.86229C84.4672 9.34806 84.5105 8.83355 84.3914 8.31998C84.3255 8.03564 84.3713 7.72584 84.3646 7.42755C84.3576 7.11069 84.3802 6.79351 84.277 6.4819C84.2349 6.35468 84.2577 6.20598 84.2516 6.06704C84.2262 5.49331 84.2782 4.91847 84.1481 4.346C84.0834 4.06128 84.131 3.75159 84.1243 3.45327C84.1177 3.15635 84.1038 2.86407 84.0478 2.56658C83.9825 2.21927 84.0231 1.85322 84.0027 1.49615C83.987 1.22036 83.9464 0.94603 83.9203 0.670742C83.9071 0.532494 83.8986 0.39365 83.8931 0.254879C83.8697 -0.338875 83.9164 -0.933945 83.7867 -1.52541C83.7282 -1.79195 83.7721 -2.0804 83.7659 -2.35883C83.7588 -2.67563 83.7489 -2.98785 83.6851 -3.30508C83.6194 -3.63157 83.655 -3.97828 83.6461 -4.31615C83.6383 -4.61317 83.652 -4.90846 83.5625 -5.20261C83.5122 -5.36832 83.5401 -5.55762 83.5322 -5.73628C83.5088 -6.27035 83.5521 -6.80445 83.4314 -7.33816C83.3627 -7.64202 83.4201 -7.97258 83.4033 -8.29019C83.3886 -8.56601 83.3454 -8.84021 83.3224 -9.11575C83.3059 -9.31347 83.3013 -9.5122 83.2923 -9.71053C83.271 -10.1851 83.3014 -10.6584 83.1969 -11.1337C83.1257 -11.4575 83.1744 -11.8072 83.1667 -12.1452C83.1595 -12.462 83.1502 -12.7742 83.0863 -13.0914C83.0206 -13.4179 83.0564 -13.7646 83.0474 -14.1025C83.0394 -14.3995 83.054 -14.6948 82.9638 -14.989C82.9131 -15.1545 82.9414 -15.344 82.9333 -15.5226C82.9091 -16.0566 82.9617 -16.5922 82.8305 -17.1243C82.7702 -17.369 82.8152 -17.6391 82.8087 -17.8976C82.7998 -18.254 82.8034 -18.6068 82.723 -18.9631C82.6586 -19.2485 82.6971 -19.5568 82.6886 -19.8549C82.679 -20.1914 82.6729 -20.5235 82.6069 -20.8607C82.5391 -21.207 82.5774 -21.5738 82.5681 -21.9315C82.5598 -22.2483 82.5517 -22.5605 82.4877 -22.8778C82.4218 -23.2042 82.4577 -23.551 82.4483 -23.8888C82.4399 -24.1857 82.4261 -24.478 82.3704 -24.7754C82.3054 -25.1228 82.3464 -25.4889 82.3259 -25.846C82.3101 -26.1217 82.2693 -26.396 82.2421 -26.6711C82.2304 -26.7896 82.2217 -26.9086 82.2171 -27.0275C82.1935 -27.6412 82.2451 -28.2567 82.1092 -28.8674C82.0541 -29.1146 82.0961 -29.3827 82.0896 -29.6413C82.0812 -29.9777 82.0805 -30.3102 82.0075 -30.6473C81.9413 -30.9528 81.9793 -31.2806 81.97 -31.5986C81.9606 -31.9152 81.9849 -32.2318 81.8844 -32.5445C81.8374 -32.6905 81.8635 -32.8599 81.8562 -33.0187C81.8309 -33.5725 81.8793 -34.1268 81.7545 -34.6802C81.686 -34.9841 81.7436 -35.3147 81.7265 -35.6323C81.7117 -35.908 81.6707 -36.1823 81.6435 -36.4575C81.6319 -36.576 81.6226 -36.6949 81.6181 -36.8139C81.5951 -37.4275 81.6434 -38.0426 81.5109 -38.6538C81.4531 -38.9206 81.4958 -39.2088 81.4902 -39.4873C81.4837 -39.8042 81.5086 -40.1222 81.4015 -40.4326C81.3641 -40.541 81.3828 -40.669 81.3777 -40.7881C81.3544 -41.3421 81.3949 -41.8959 81.2759 -42.4496C81.2062 -42.7738 81.2573 -43.1234 81.2499 -43.4615C81.2434 -43.7584 81.2294 -44.0507 81.1733 -44.3482C81.108 -44.6955 81.1486 -45.0616 81.1282 -45.4187C81.1125 -45.6944 81.0717 -45.9687 81.0455 -46.244C81.0323 -46.3822 81.0241 -46.5211 81.0186 -46.6599C80.995 -47.2537 81.042 -47.8488 80.9121 -48.4402C80.8537 -48.7068 80.8971 -48.9952 80.8912 -49.2737C80.8846 -49.5905 80.8741 -49.9027 80.8105 -50.2199C80.7451 -50.5465 80.7803 -50.8931 80.7718 -51.231C80.7644 -51.5281 80.7534 -51.8204 80.6926 -52.1176C80.6298 -52.4246 80.6623 -52.751 80.6523 -53.1223C80.7898 -53.1845 80.928 -53.2011 81.0663 -53.2011C84.4816 -53.2015 87.8969 -53.2002 91.366 -53.188Z" fill="#0BAD88"/>
<path d="M51.0508 136.304C51.3926 136.213 51.6811 136.305 51.889 136.633C51.9809 136.778 52.118 136.908 52.2624 137.003C52.5401 137.185 52.6552 137.426 52.6168 137.798C52.0208 137.424 51.5439 136.884 51.0508 136.304Z" fill="#C89D68"/>
<path d="M45.125 127.34C45.3661 127.281 45.5424 127.396 45.6453 127.609C45.8768 128.089 46.096 128.574 46.323 129.056C46.3853 129.188 46.4287 129.314 46.2598 129.456C45.8564 128.779 45.4941 128.08 45.125 127.34Z" fill="#C89D68"/>
<path d="M59.2383 142.506C59.3233 142.311 59.4835 142.318 59.6339 142.382C59.8324 142.468 60.0248 142.571 60.2094 142.683C60.4755 142.846 60.7104 143.055 61.0439 143.096C61.1948 143.115 61.2473 143.267 61.2531 143.46C60.5911 143.181 59.9278 142.859 59.2383 142.506Z" fill="#C89D68"/>
<path d="M43.1914 122.332C43.3741 122.297 43.4794 122.405 43.5452 122.563C43.6439 122.801 43.7415 123.04 43.8412 123.278C43.9172 123.459 43.8836 123.627 43.7675 123.834C43.4685 123.412 43.377 122.877 43.1914 122.332Z" fill="#C89D68"/>
<path d="M40.1809 93.3314C40.2667 93.2848 40.3425 93.2912 40.41 93.2969C40.737 93.876 40.7144 94.0228 40.2151 94.348C40.1716 94.0299 40.1712 93.7071 40.1809 93.3314Z" fill="#C89D68"/>
<path d="M40.1641 100.495C40.4729 100.446 40.5807 100.68 40.6195 100.901C40.6654 101.163 40.5473 101.393 40.2327 101.51C40.1798 101.193 40.1682 100.871 40.1641 100.495Z" fill="#C89D68"/>
<path d="M112.404 97.6438C112.063 97.6787 111.968 97.4197 111.936 97.1696C111.909 96.9535 112.092 96.8244 112.333 96.7471C112.387 97.0249 112.399 97.308 112.404 97.6438Z" fill="#C89D68"/>
<path d="M112.382 104.329C112.13 104.348 111.937 104.214 111.938 103.977C111.938 103.747 112.031 103.511 112.351 103.431C112.393 103.71 112.393 103.993 112.382 104.329Z" fill="#C89D68"/>
<path d="M110.074 120.963C110.019 120.976 109.981 120.959 109.956 120.93C109.838 120.788 109.874 120.635 109.941 120.488C110.03 120.288 109.94 119.988 110.3 119.905C110.261 120.242 110.179 120.585 110.074 120.963Z" fill="#C89D68"/>
<path d="M106.445 130.264C106.324 130.233 106.254 130.142 106.307 130.049C106.487 129.734 106.685 129.429 106.879 129.122C106.886 129.11 106.914 129.11 106.976 129.101C106.838 129.478 106.657 129.858 106.445 130.264Z" fill="#C89D68"/>
<path d="M40.2992 90.3455C40.4034 90.3109 40.497 90.3266 40.6218 90.3476C40.6281 90.517 40.6452 90.6698 40.636 90.8211C40.6269 90.9681 40.5074 90.9998 40.3346 91.01C40.2874 90.8062 40.2881 90.601 40.2992 90.3455Z" fill="#C89D68"/>
<path d="M100.925 138.139C100.89 138.079 100.887 138.003 100.893 137.928C100.922 137.509 100.935 137.499 101.469 137.455C101.333 137.68 101.146 137.901 100.925 138.139Z" fill="#C89D68"/>
<path d="M98.9058 140.085C98.8675 140.065 98.8616 140.027 98.8636 139.989C98.8869 139.546 98.9148 139.517 99.3575 139.478C99.3954 139.474 99.4338 139.477 99.521 139.476C99.3607 139.672 99.1513 139.87 98.9058 140.085Z" fill="#C89D68"/>
<path d="M47.6172 131.874C47.8515 131.817 48.0357 131.906 48.1087 132.149C48.1529 132.296 48.1672 132.451 48.1917 132.652C48.0014 132.439 47.8143 132.176 47.6172 131.874Z" fill="#C89D68"/>
<path d="M112.262 106.718C112.149 106.732 111.996 106.724 111.958 106.654C111.877 106.505 111.879 106.321 112 106.177C112.045 106.124 112.125 106.1 112.234 106.058C112.277 106.258 112.275 106.463 112.262 106.718Z" fill="#C89D68"/>
<path d="M40.2812 103.597C40.4285 103.554 40.5741 103.592 40.6063 103.736C40.6371 103.875 40.6208 104.03 40.5941 104.172C40.5867 104.211 40.4689 104.23 40.3569 104.26C40.2996 104.057 40.2872 103.852 40.2812 103.597Z" fill="#C89D68"/>
<path d="M78.6693 146.999C78.6251 146.833 78.6179 146.669 78.8395 146.645C79.0587 146.621 79.1114 146.653 79.2169 146.936C79.052 146.989 78.8855 146.998 78.6693 146.999Z" fill="#C89D68"/>
<path d="M112.279 94.9008C112.147 94.9378 111.988 94.9782 111.939 94.8111C111.878 94.6031 111.942 94.4406 112.206 94.3604C112.261 94.5197 112.274 94.6854 112.279 94.9008Z" fill="#C89D68"/>
<path d="M40.4023 105.624C40.6294 105.588 40.7616 105.692 40.7673 105.925C40.7714 106.092 40.68 106.163 40.479 106.17C40.4223 106.005 40.4094 105.84 40.4023 105.624Z" fill="#C89D68"/>
<path d="M40.4247 88.1947C40.6141 88.1638 40.7316 88.2485 40.7625 88.4344C40.7897 88.5981 40.7424 88.6557 40.4568 88.7413C40.4124 88.5761 40.4131 88.4098 40.4247 88.1947Z" fill="#C89D68"/>
<path d="M40.5407 86.6427C40.6811 86.6045 40.837 86.5765 40.8738 86.7542C40.9189 86.9717 40.8391 87.1253 40.5657 87.1864C40.5236 87.0246 40.5265 86.8581 40.5407 86.6427Z" fill="#C89D68"/>
<path d="M111.078 84.8755C111.036 84.9158 110.994 84.9153 110.96 84.8986C110.927 84.8827 110.875 84.8378 110.88 84.8261C110.985 84.579 110.638 84.4147 110.761 84.1702C110.777 84.14 110.822 84.125 110.892 84.0957C110.98 84.3349 111.03 84.5813 111.078 84.8755Z" fill="#C89D68"/>
<path d="M76.3907 146.992C76.3508 146.845 76.3275 146.686 76.5191 146.655C76.7222 146.622 76.8704 146.696 76.9347 146.949C76.7735 146.995 76.6067 146.998 76.3907 146.992Z" fill="#C89D68"/>
<path d="M42.0703 118.034C42.3398 118.011 42.4128 118.2 42.4214 118.422C42.4233 118.471 42.3322 118.524 42.2423 118.582C42.1568 118.419 42.1129 118.249 42.0703 118.034Z" fill="#C89D68"/>
<path d="M40.7827 83.7785C40.9646 83.7475 41.097 83.8193 41.1127 84.0035C41.1286 84.1891 41.0123 84.2814 40.7986 84.3227C40.7601 84.1601 40.7654 83.9936 40.7827 83.7785Z" fill="#C89D68"/>
<path d="M40.7422 109.572C40.916 109.517 41.0622 109.566 41.1055 109.749C41.1492 109.934 41.0458 110.042 40.836 110.104C40.777 109.947 40.7587 109.784 40.7422 109.572Z" fill="#C89D68"/>
<path d="M112.144 108.272C111.962 108.304 111.828 108.234 111.81 108.05C111.792 107.864 111.908 107.77 112.122 107.728C112.162 107.89 112.159 108.056 112.144 108.272Z" fill="#C89D68"/>
<path d="M49.9922 135.104C50.4244 135.101 50.4299 135.106 50.4752 135.608C50.3195 135.483 50.1634 135.312 49.9922 135.104Z" fill="#C89D68"/>
<path d="M110.482 119.382C110.29 119.402 110.211 119.308 110.268 119.143C110.312 119.018 110.358 118.881 110.553 118.831C110.564 118.997 110.533 119.17 110.482 119.382Z" fill="#C89D68"/>
<path d="M40.5156 107.174C40.5608 107.128 40.6006 107.128 40.6403 107.131C40.7736 107.138 40.8689 107.188 40.8801 107.337C40.8932 107.512 40.8073 107.595 40.5928 107.602C40.5356 107.476 40.5229 107.349 40.5156 107.174Z" fill="#C89D68"/>
<path d="M53.2461 138.438C53.3042 138.404 53.3804 138.398 53.4547 138.407C53.7259 138.441 53.7431 138.462 53.8214 138.851C53.6343 138.757 53.4488 138.614 53.2461 138.438Z" fill="#C89D68"/>
<path d="M40.6639 85.0885C40.7917 85.0485 40.9266 85.0316 40.9809 85.1631C41.0079 85.2287 41.0011 85.3196 40.9804 85.3906C40.9476 85.5029 40.8391 85.5091 40.6946 85.5181C40.65 85.3912 40.6512 85.2632 40.6639 85.0885Z" fill="#C89D68"/>
<path d="M48.6836 133.429C49.0862 133.427 49.0975 133.437 49.1259 133.856C48.8744 133.851 48.8213 133.625 48.6836 133.429Z" fill="#C89D68"/>
<path d="M40.6445 108.607C40.6877 108.561 40.7265 108.556 40.7624 108.564C41.0218 108.622 41.07 108.745 40.9061 108.943C40.8735 108.983 40.8106 108.998 40.7208 109.03C40.6663 108.909 40.6526 108.782 40.6445 108.607Z" fill="#C89D68"/>
<path d="M112.049 91.9179C111.957 91.9349 111.848 91.9255 111.789 91.8668C111.733 91.8109 111.701 91.7011 111.708 91.6194C111.718 91.5058 111.833 91.4995 111.97 91.4893C112.026 91.6154 112.04 91.7427 112.049 91.9179Z" fill="#C89D68"/>
<path d="M55.3867 140.114C55.445 140.079 55.5241 140.076 55.603 140.077C55.8394 140.081 55.9708 140.196 55.9815 140.481C55.7909 140.399 55.5992 140.273 55.3867 140.114Z" fill="#C89D68"/>
<path d="M112.021 109.706C111.939 109.728 111.85 109.722 111.806 109.674C111.749 109.612 111.696 109.515 111.699 109.436C111.706 109.293 111.836 109.283 111.995 109.276C112.037 109.404 112.035 109.532 112.021 109.706Z" fill="#C89D68"/>
<path d="M112.168 93.3507C112.124 93.3937 112.085 93.393 112.048 93.3832C111.929 93.3515 111.828 93.2895 111.832 93.1541C111.836 93.0205 111.939 92.9626 112.097 92.9258C112.148 93.0484 112.161 93.1756 112.168 93.3507Z" fill="#C89D68"/>
<path d="M111.905 110.78C111.874 110.824 111.855 110.822 111.836 110.819C111.713 110.799 111.607 110.736 111.595 110.612C111.579 110.45 111.703 110.386 111.887 110.353C111.924 110.477 111.921 110.605 111.905 110.78Z" fill="#C89D68"/>
<path d="M111.807 89.6526C111.762 89.6963 111.723 89.6961 111.683 89.6935C111.581 89.6867 111.478 89.6663 111.463 89.5444C111.444 89.3824 111.562 89.3537 111.73 89.3408C111.786 89.4288 111.799 89.5182 111.807 89.6526Z" fill="#C89D68"/>
<path d="M98.1917 140.696C98.1684 140.351 98.1684 140.351 98.5779 140.315C98.4939 140.438 98.3612 140.56 98.1917 140.696Z" fill="#C89D68"/>
<path d="M49.5078 134.506C49.6027 134.484 49.7216 134.473 49.8171 134.514C49.9501 134.572 50.016 134.681 49.8466 134.838C49.7118 134.754 49.6166 134.648 49.5078 134.506Z" fill="#C89D68"/>
<path d="M108.86 124.783C108.624 124.573 108.635 124.52 108.98 124.322C108.976 124.463 108.931 124.609 108.86 124.783Z" fill="#C89D68"/>
<path d="M111.937 90.8438C111.628 90.7795 111.603 90.6838 111.855 90.4229C111.911 90.5415 111.926 90.6686 111.937 90.8438Z" fill="#C89D68"/>
<path d="M111.542 113.648C111.489 113.69 111.448 113.695 111.41 113.685C111.212 113.636 111.18 113.543 111.321 113.413C111.361 113.375 111.427 113.364 111.522 113.337C111.56 113.424 111.558 113.514 111.542 113.648Z" fill="#C89D68"/>
<path d="M41.2109 113.274C41.5297 113.305 41.5622 113.406 41.3117 113.682C41.2515 113.568 41.232 113.444 41.2109 113.274Z" fill="#C89D68"/>
<path d="M46.668 130.322C46.9839 130.337 46.9839 130.337 46.9902 130.76C46.8825 130.66 46.7793 130.51 46.668 130.322Z" fill="#C89D68"/>
<path d="M107.609 127.866C107.465 127.88 107.357 127.837 107.383 127.691C107.407 127.548 107.532 127.548 107.69 127.545C107.701 127.642 107.666 127.739 107.609 127.866Z" fill="#C89D68"/>
<path d="M103.207 135.413C103.173 135.36 103.173 135.286 103.172 135.213C103.168 135.03 103.262 134.945 103.489 134.944C103.437 135.094 103.339 135.244 103.207 135.413Z" fill="#C89D68"/>
<path d="M41.6875 116.137C42.006 116.169 42.0218 116.207 41.826 116.562C41.752 116.45 41.7213 116.315 41.6875 116.137Z" fill="#C89D68"/>
<path d="M111.78 111.857C111.728 111.899 111.687 111.904 111.649 111.895C111.451 111.846 111.419 111.755 111.557 111.624C111.597 111.586 111.662 111.574 111.756 111.547C111.795 111.633 111.794 111.724 111.78 111.857Z" fill="#C89D68"/>
<path d="M40.9844 111.601C41.2966 111.643 41.3256 111.742 41.076 112.011C41.018 111.896 41.0007 111.772 40.9844 111.601Z" fill="#C89D68"/>
<path d="M56.8086 141.073C56.8778 141.039 56.9707 141.033 57.0635 141.034C57.227 141.036 57.2895 141.136 57.3006 141.331C57.1462 141.287 56.9892 141.196 56.8086 141.073Z" fill="#C89D68"/>
<path d="M109.554 122.739C109.438 122.748 109.316 122.755 109.325 122.622C109.333 122.489 109.442 122.44 109.6 122.411C109.621 122.509 109.601 122.61 109.554 122.739Z" fill="#C89D68"/>
<path d="M97.4633 141.269C97.4537 140.939 97.4537 140.939 97.8572 140.911C97.7698 141.026 97.6348 141.141 97.4633 141.269Z" fill="#C89D68"/>
<path d="M49.1133 133.947C49.3727 133.924 49.3727 133.924 49.3945 134.302C49.3003 134.227 49.2066 134.106 49.1133 133.947Z" fill="#C89D68"/>
<path d="M111.039 116.668C110.801 116.539 110.797 116.483 111.042 116.324C111.076 116.423 111.067 116.528 111.039 116.668Z" fill="#C89D68"/>
<path d="M111.672 112.693C111.566 112.721 111.47 112.703 111.455 112.585C111.44 112.47 111.507 112.415 111.65 112.384C111.689 112.469 111.686 112.559 111.672 112.693Z" fill="#C89D68"/>
<path d="M111.565 87.8623C111.283 87.8165 111.267 87.7677 111.487 87.5576C111.54 87.6389 111.554 87.728 111.565 87.8623Z" fill="#C89D68"/>
<path d="M41.125 112.663C41.4037 112.71 41.4189 112.757 41.2014 112.967C41.1491 112.886 41.1347 112.797 41.125 112.663Z" fill="#C89D68"/>
<path d="M111.326 86.311C111.045 86.2668 111.03 86.2204 111.244 86.0068C111.298 86.0876 111.314 86.1766 111.326 86.311Z" fill="#C89D68"/>
<path d="M111.197 115.799C111.087 115.823 110.987 115.806 110.977 115.681C110.968 115.559 111.045 115.513 111.195 115.497C111.229 115.584 111.219 115.671 111.197 115.799Z" fill="#C89D68"/>
<path d="M42.8086 121.014C43.0627 121.048 43.0632 121.051 42.9518 121.315C42.8816 121.243 42.844 121.148 42.8086 121.014Z" fill="#C89D68"/>
<path d="M41.4609 114.821C41.556 114.78 41.6591 114.773 41.7013 114.886C41.7425 114.995 41.692 115.067 41.5498 115.116C41.4938 115.038 41.4777 114.952 41.4609 114.821Z" fill="#C89D68"/>
<path d="M41.3594 114.215C41.6409 114.259 41.6568 114.307 41.4401 114.519C41.3867 114.438 41.3712 114.349 41.3594 114.215Z" fill="#C89D68"/>
<path d="M41.9297 117.311C41.9924 117.3 42.0653 117.326 42.1132 117.376C42.2088 117.475 42.199 117.566 42.0219 117.626C41.9662 117.54 41.9474 117.449 41.9297 117.311Z" fill="#C89D68"/>
<path d="M103.809 134.585C103.778 134.458 103.734 134.29 103.993 134.237C103.973 134.345 103.907 134.454 103.809 134.585Z" fill="#C89D68"/>
<path d="M96.632 141.882C96.5862 141.701 96.686 141.623 96.913 141.63C96.8618 141.711 96.7654 141.792 96.632 141.882Z" fill="#C89D68"/>
<path d="M102.847 135.886C102.82 135.759 102.784 135.592 103.042 135.552C103.019 135.657 102.95 135.762 102.847 135.886Z" fill="#C89D68"/>
<path d="M102.483 136.351C102.461 136.228 102.432 136.067 102.677 136.027C102.653 136.128 102.585 136.231 102.483 136.351Z" fill="#C89D68"/>
<path d="M101.887 137.068C101.861 136.94 101.835 136.776 102.092 136.746C102.065 136.848 101.993 136.95 101.887 137.068Z" fill="#C89D68"/>
<path d="M71.2305 146.503C71.2339 146.437 71.2759 146.383 71.318 146.33C71.353 146.369 71.388 146.409 71.4272 146.482C71.3773 146.516 71.3232 146.516 71.2305 146.503Z" fill="#C89D68"/>
<path d="M86.6758 146.045C86.6965 145.822 86.7029 145.818 86.8897 145.948C86.8417 146.005 86.7762 146.027 86.6758 146.045Z" fill="#C89D68"/>
<path d="M84.1602 146.519C84.1853 146.296 84.1929 146.292 84.3763 146.432C84.3266 146.487 84.2607 146.506 84.1602 146.519Z" fill="#C89D68"/>
<path d="M61.9844 143.826C62.1021 143.651 62.1133 143.652 62.2063 143.87C62.1416 143.889 62.0745 143.87 61.9844 143.826Z" fill="#C89D68"/>
<path d="M73.0312 146.747C73.0332 146.68 73.0741 146.625 73.115 146.569C73.1511 146.608 73.1871 146.647 73.2275 146.72C73.178 146.755 73.1241 146.757 73.0312 146.747Z" fill="#C89D68"/>
<path d="M82.3676 146.758C82.3629 146.692 82.3985 146.631 82.4341 146.57C82.4744 146.603 82.5148 146.635 82.561 146.701C82.5139 146.744 82.4609 146.754 82.3676 146.758Z" fill="#C89D68"/>
<path d="M105.721 131.583C105.561 131.456 105.564 131.444 105.79 131.369C105.802 131.433 105.776 131.498 105.721 131.583Z" fill="#C89D68"/>
<path d="M58.3867 142.035C58.5164 141.861 58.5311 141.865 58.6041 142.102C58.538 142.115 58.473 142.089 58.3867 142.035Z" fill="#C89D68"/>
<path d="M40.8867 110.868C40.9549 110.863 41.018 110.898 41.0811 110.933C41.0472 110.974 41.0134 111.014 40.9451 111.06C40.901 111.013 40.8913 110.96 40.8867 110.868Z" fill="#C89D68"/>
<path d="M111.695 88.8216C111.608 88.8441 111.493 88.864 111.492 88.7348C111.492 88.701 111.56 88.667 111.633 88.6279C111.679 88.6756 111.689 88.7284 111.695 88.8216Z" fill="#C89D68"/>
<path d="M111.431 114.369C111.36 114.376 111.301 114.345 111.242 114.314C111.285 114.268 111.328 114.222 111.407 114.173C111.443 114.223 111.443 114.276 111.431 114.369Z" fill="#C89D68"/>
<path d="M44.7109 126.386C44.9291 126.384 44.9315 126.386 44.8489 126.578C44.7825 126.539 44.7479 126.48 44.7109 126.386Z" fill="#C89D68"/>
<path d="M109.834 121.806C109.632 121.706 109.631 121.69 109.846 121.578C109.875 121.642 109.865 121.71 109.834 121.806Z" fill="#C89D68"/>
<path d="M111.303 115.204C111.236 115.201 111.18 115.159 111.125 115.118C111.166 115.083 111.206 115.048 111.282 115.009C111.317 115.058 111.316 115.112 111.303 115.204Z" fill="#C89D68"/>
<path d="M41.8438 116.95C42.0742 116.972 42.0786 116.98 41.9378 117.165C41.88 117.116 41.86 117.05 41.8438 116.95Z" fill="#C89D68"/>
<path d="M83.888 119.555C82.9614 119.574 82.0348 119.592 81.1082 119.613C80.674 119.623 80.2399 119.637 79.6999 119.651C79.3886 119.661 79.1831 119.67 78.9776 119.679C78.1304 119.697 77.2832 119.714 76.436 119.733C75.9624 119.744 75.489 119.758 74.9157 119.772C74.7261 119.779 74.6363 119.786 74.5465 119.793C73.6197 119.813 72.6929 119.829 71.7663 119.853C71.2952 119.864 70.8246 119.888 70.3976 119.874C70.2422 119.748 70.2785 119.627 70.2872 119.513C70.308 119.238 70.3284 118.964 70.3525 118.59C70.3573 118.323 70.3587 118.156 70.36 117.99C70.3976 117.587 70.4352 117.184 70.4767 116.68C70.4825 116.412 70.4845 116.246 70.4865 116.08C70.5205 115.755 70.5545 115.431 70.592 115.007C70.5969 114.741 70.5982 114.575 70.5995 114.409C70.6371 114.006 70.6747 113.602 70.7162 113.098C70.722 112.831 70.724 112.665 70.726 112.498C70.76 112.174 70.794 111.849 70.8315 111.426C70.8364 111.16 70.8377 110.994 70.8391 110.827C70.8767 110.424 70.9143 110.021 70.9557 109.517C70.9615 109.25 70.9635 109.083 70.9655 108.917C70.9996 108.593 71.0336 108.268 71.0711 107.844C71.0759 107.579 71.0772 107.413 71.0786 107.246C71.1162 106.843 71.1538 106.44 71.1952 105.936C71.2011 105.669 71.2031 105.502 71.2051 105.336C71.2391 105.011 71.2731 104.687 71.3106 104.263C71.3154 103.998 71.3168 103.831 71.3181 103.665C71.3557 103.262 71.3933 102.859 71.4348 102.355C71.4406 102.087 71.4426 101.921 71.4446 101.755C71.4786 101.43 71.5126 101.105 71.5501 100.682C71.555 100.416 71.5563 100.25 71.5576 100.084C71.5952 99.6805 71.6328 99.2774 71.6743 98.7734C71.6801 98.5061 71.6821 98.3397 71.6841 98.1733C71.7181 97.8488 71.7521 97.5242 71.7896 97.1006C71.7945 96.8351 71.7958 96.6687 71.7972 96.5024C71.8348 96.0993 71.8724 95.6961 71.9138 95.1921C71.9197 94.9249 71.9217 94.7585 71.9237 94.5921C71.9576 94.2674 71.9916 93.9426 72.0287 93.5331C72.0367 93.4006 72.0415 93.3527 72.0463 93.3049C72.8517 93.1789 73.6572 93.0537 74.4624 92.9264C74.6587 92.8953 74.854 92.8571 75.1377 92.8142C75.2784 92.7951 75.3311 92.7839 75.3837 92.7727C76.3503 92.6301 77.3168 92.4875 78.3713 92.3368C78.512 92.3175 78.5647 92.3063 78.6173 92.2951C79.5296 92.1636 80.4417 92.0307 81.3546 91.9031C81.4475 91.8901 81.545 91.9094 81.6715 91.9898C81.7187 92.2316 81.7348 92.3973 81.7508 92.563C81.7759 92.8504 81.8009 93.1378 81.8314 93.5194C81.8502 93.7408 81.8634 93.8679 81.8767 93.9951C81.895 94.2051 81.9133 94.4151 81.9404 94.7162C81.9621 94.9346 81.975 95.0619 81.9879 95.1893C82.0115 95.4773 82.0352 95.7653 82.0667 96.1467C82.0878 96.3672 82.101 96.4945 82.1142 96.6218C82.1283 96.8331 82.1425 97.0444 82.1716 97.3466C82.2018 97.6031 82.2171 97.7688 82.2323 97.9345C82.2536 98.1835 82.2749 98.4325 82.3043 98.7738C82.3253 98.9935 82.3383 99.1207 82.3513 99.248C82.3652 99.4594 82.3792 99.6707 82.4084 99.9729C82.4392 100.23 82.4548 100.395 82.4703 100.561C82.491 100.81 82.5117 101.059 82.5413 101.402C82.5654 101.662 82.5806 101.828 82.5958 101.993C82.6144 102.203 82.633 102.413 82.6602 102.715C82.6816 102.933 82.6945 103.06 82.7074 103.187C82.7325 103.475 82.7576 103.762 82.7884 104.144C82.8071 104.365 82.8202 104.492 82.8333 104.62C82.8482 104.831 82.863 105.042 82.8922 105.345C82.9218 105.601 82.9371 105.767 82.9524 105.933C82.9736 106.182 82.9948 106.431 83.0239 106.772C83.045 106.992 83.0582 107.119 83.0714 107.246C83.0854 107.458 83.0994 107.669 83.1286 107.971C83.159 108.228 83.1744 108.393 83.1897 108.559C83.2107 108.808 83.2316 109.057 83.261 109.398C83.2824 109.618 83.2955 109.745 83.3085 109.872C83.3224 110.084 83.3362 110.295 83.3653 110.597C83.3961 110.854 83.4117 111.02 83.4272 111.186C83.4524 111.473 83.4775 111.76 83.5081 112.142C83.5268 112.363 83.54 112.49 83.5532 112.618C83.5716 112.828 83.5899 113.038 83.617 113.339C83.6387 113.557 83.6517 113.684 83.6648 113.812C83.6883 114.1 83.7117 114.388 83.7432 114.769C83.7642 114.99 83.7772 115.117 83.7903 115.244C83.8046 115.456 83.819 115.667 83.8483 115.969C83.8785 116.226 83.8938 116.391 83.909 116.557C83.9303 116.806 83.9516 117.055 83.9809 117.396C84.002 117.616 84.015 117.743 84.028 117.871C84.0421 118.082 84.0561 118.293 84.0852 118.595C84.116 118.852 84.1317 119.018 84.1473 119.184C84.1394 119.268 84.1315 119.352 84.0827 119.482C83.9904 119.537 83.9392 119.546 83.888 119.555Z" fill="#FFFFFE"/>
<path d="M85.5766 131.483C85.4616 131.572 85.3467 131.662 85.1781 131.8C84.9469 132.002 84.7693 132.156 84.5916 132.309C84.4278 132.419 84.2599 132.523 84.1009 132.639C82.7983 133.591 81.4159 134.398 79.8781 134.911C79.3349 135.093 78.7727 135.217 78.1388 135.386C78.0057 135.415 77.9529 135.425 77.9001 135.435C77.3645 135.468 76.8292 135.521 76.2932 135.53C74.8343 135.555 73.4514 135.209 72.1221 134.631C71.2795 134.264 70.487 133.807 69.6701 133.244C69.504 133.131 69.3966 133.063 69.2891 132.996C69.2789 132.96 69.2566 132.934 69.1771 132.879C68.9845 132.733 68.8372 132.627 68.6899 132.522C68.5871 132.421 68.4844 132.321 68.3307 132.174C68.0982 131.977 67.9167 131.826 67.7351 131.675C67.5257 131.458 67.3163 131.241 67.0536 130.97C66.8005 130.708 66.6007 130.499 66.4008 130.29C66.3119 130.177 66.223 130.065 66.0856 129.898C65.8812 129.669 65.7253 129.492 65.5695 129.316C65.4362 129.132 65.3029 128.948 65.1227 128.709C64.9616 128.514 64.8474 128.375 64.7332 128.236C64.48 127.859 64.2269 127.482 63.9531 127.055C63.9551 126.977 63.9797 126.953 64.0065 126.93C65.5322 126.908 67.0579 126.886 68.5836 126.865C69.4163 126.853 70.2491 126.844 71.1884 126.833C71.5003 126.826 71.7057 126.818 71.9111 126.811C72.2083 126.816 72.5056 126.827 72.8028 126.826C73.8545 126.821 74.9063 126.82 75.9579 126.802C77.2469 126.781 78.5356 126.745 79.9339 126.714C80.4066 126.705 80.7698 126.696 81.133 126.687C81.6483 126.691 82.1638 126.706 82.6789 126.698C84.6417 126.668 86.6045 126.63 88.6738 126.595C88.9857 126.587 89.1911 126.58 89.3965 126.572C89.4856 126.58 89.5747 126.587 89.7152 126.621C89.7667 126.648 89.7836 126.703 89.7836 126.703C89.7836 126.703 89.7558 126.75 89.7198 126.798C89.6184 126.954 89.5529 127.063 89.4875 127.171C89.3452 127.348 89.203 127.525 89.0151 127.757C88.9006 127.915 88.8317 128.02 88.7627 128.124C88.7009 128.186 88.639 128.249 88.5338 128.361C88.3839 128.554 88.2774 128.698 88.1709 128.842C88.0312 128.986 87.8915 129.13 87.7038 129.325C87.5443 129.515 87.4326 129.654 87.321 129.793C86.9033 130.201 86.4857 130.608 86.0141 131.067C85.8324 131.24 85.7045 131.362 85.5766 131.483Z" fill="#FFFEFE"/>
<path d="M54.2927 96.2021C54.6589 96.303 54.935 96.5027 55.0636 96.8769C55.1959 97.2621 55.0772 97.5847 54.804 97.8508C54.5466 98.1015 54.2305 98.2106 53.8735 98.0822C53.5114 97.952 53.2661 97.7113 53.2148 97.313C53.139 96.7247 53.4297 96.3714 54.1793 96.216C54.2463 96.2133 54.2927 96.2021 54.2927 96.2021Z" fill="#1A324D"/>
<path d="M100.598 96.414C100.766 96.4882 100.9 96.5382 101.009 96.6216C101.344 96.8787 101.458 97.3057 101.309 97.6902C101.148 98.104 100.765 98.3391 100.316 98.2994C99.9092 98.2635 99.5606 97.958 99.475 97.5627C99.3831 97.1382 99.5869 96.708 99.9729 96.5079C100.156 96.413 100.349 96.3787 100.598 96.414Z" fill="#1A324D"/>
<path d="M81.127 126.645C80.7699 126.696 80.4067 126.705 79.9896 126.706C79.9149 126.494 79.9872 126.336 80.1939 126.287C80.3234 126.256 80.4771 126.233 80.5966 126.274C80.7903 126.341 81.0535 126.327 81.127 126.645Z" fill="#C89D68"/>
<path d="M78.9844 119.723C79.1833 119.67 79.3887 119.661 79.6451 119.66C79.685 119.802 79.7149 119.967 79.5272 120.001C79.3024 120.041 79.0828 120.04 78.9844 119.723Z" fill="#C89D68"/>
<path d="M66.3991 130.339C66.5985 130.499 66.7984 130.708 67.0182 130.952C66.9213 130.978 66.799 130.986 66.689 130.954C66.5046 130.899 66.3812 130.781 66.4004 130.565C66.4056 130.506 66.4002 130.446 66.3991 130.339Z" fill="#C89D68"/>
<path d="M71.5087 100.085C71.5542 100.25 71.5529 100.416 71.5409 100.632C71.3659 100.678 71.2092 100.669 71.1945 100.447C71.1798 100.223 71.2071 100.181 71.5087 100.085Z" fill="#C89D68"/>
<path d="M71.2743 103.666C71.3198 103.831 71.3185 103.997 71.3065 104.213C71.1316 104.259 70.9748 104.25 70.9601 104.028C70.9454 103.804 70.9727 103.762 71.2743 103.666Z" fill="#C89D68"/>
<path d="M71.0321 107.247C71.0776 107.412 71.0763 107.579 71.0643 107.794C70.8894 107.84 70.7326 107.831 70.7179 107.609C70.7032 107.386 70.7305 107.344 71.0321 107.247Z" fill="#C89D68"/>
<path d="M70.7938 110.828C70.8394 110.993 70.838 111.16 70.826 111.375C70.6511 111.421 70.4943 111.412 70.4797 111.19C70.4649 110.967 70.4923 110.925 70.7938 110.828Z" fill="#C89D68"/>
<path d="M70.5516 114.41C70.5972 114.575 70.5958 114.742 70.5839 114.957C70.4089 115.003 70.2521 114.994 70.2375 114.772C70.2228 114.549 70.2501 114.507 70.5516 114.41Z" fill="#C89D68"/>
<path d="M70.3134 117.991C70.3589 118.156 70.3575 118.323 70.3456 118.538C70.1706 118.584 70.0139 118.575 69.9992 118.353C69.9845 118.13 70.0118 118.088 70.3134 117.991Z" fill="#C89D68"/>
<path d="M71.7469 96.5039C71.7925 96.669 71.7911 96.8353 71.7792 97.0506C71.6042 97.0965 71.4475 97.0879 71.4328 96.8655C71.4181 96.6423 71.4454 96.6003 71.7469 96.5039Z" fill="#C89D68"/>
<path d="M82.5162 100.559C82.4568 100.395 82.4412 100.229 82.4297 100.013C82.6553 99.9746 82.7955 100.072 82.8039 100.31C82.8098 100.478 82.7204 100.552 82.5162 100.559Z" fill="#C89D68"/>
<path d="M83.4732 111.184C83.4138 111.02 83.3982 110.854 83.3867 110.638C83.6128 110.599 83.7537 110.697 83.762 110.935C83.7679 111.104 83.6777 111.178 83.4732 111.184Z" fill="#C89D68"/>
<path d="M82.9974 105.926C82.94 105.767 82.9247 105.602 82.9141 105.386C83.0457 105.35 83.2069 105.304 83.2603 105.47C83.328 105.679 83.2643 105.844 82.9974 105.926Z" fill="#C89D68"/>
<path d="M84.1921 119.182C84.1326 119.018 84.117 118.852 84.1055 118.636C84.3311 118.598 84.4711 118.695 84.4795 118.933C84.4855 119.101 84.3963 119.175 84.1921 119.182Z" fill="#C89D68"/>
<path d="M81.797 92.5615C81.7371 92.3972 81.721 92.2315 81.707 92.0158C81.9313 91.9756 82.0758 92.0699 82.0855 92.3103C82.0924 92.4795 82.0029 92.5551 81.797 92.5615Z" fill="#C89D68"/>
<path d="M89.3909 126.533C89.1922 126.58 88.9868 126.587 88.7305 126.586C88.8827 126.183 89.0392 126.164 89.3909 126.533Z" fill="#C89D68"/>
<path d="M71.9065 126.771C71.7078 126.818 71.5024 126.825 71.2461 126.825C71.3983 126.421 71.5547 126.403 71.9065 126.771Z" fill="#C89D68"/>
<path d="M70.4442 116.083C70.4856 116.245 70.4836 116.412 70.4708 116.627C70.2897 116.66 70.1544 116.592 70.135 116.407C70.1154 116.221 70.2304 116.127 70.4442 116.083Z" fill="#C89D68"/>
<path d="M83.9495 116.551C83.8934 116.391 83.8781 116.226 83.8672 116.01C84.0393 115.968 84.1846 116.019 84.223 116.201C84.2617 116.385 84.1584 116.491 83.9495 116.551Z" fill="#C89D68"/>
<path d="M70.6825 112.502C70.7239 112.664 70.7219 112.831 70.7091 113.046C70.528 113.079 70.3926 113.011 70.3732 112.826C70.3537 112.64 70.4687 112.545 70.6825 112.502Z" fill="#C89D68"/>
<path d="M70.9208 108.922C70.9621 109.084 70.9601 109.25 70.9473 109.466C70.7663 109.499 70.6309 109.431 70.6115 109.246C70.592 109.06 70.707 108.965 70.9208 108.922Z" fill="#C89D68"/>
<path d="M71.6395 98.1768C71.6809 98.3389 71.6789 98.5053 71.6661 98.7206C71.485 98.7541 71.3497 98.6858 71.3303 98.501C71.3107 98.3147 71.4257 98.2203 71.6395 98.1768Z" fill="#C89D68"/>
<path d="M83.2311 108.553C83.1748 108.393 83.1595 108.228 83.1484 108.012C83.3207 107.97 83.4666 108.021 83.5051 108.203C83.5441 108.388 83.4406 108.494 83.2311 108.553Z" fill="#C89D68"/>
<path d="M82.2698 97.9291C82.2136 97.7692 82.1984 97.6035 82.1875 97.3879C82.3596 97.3456 82.505 97.3973 82.5433 97.5794C82.582 97.7634 82.4787 97.8694 82.2698 97.9291Z" fill="#C89D68"/>
<path d="M71.1591 105.34C71.2004 105.502 71.1984 105.668 71.1856 105.884C71.0046 105.917 70.8692 105.849 70.8498 105.664C70.8303 105.478 70.9452 105.383 71.1591 105.34Z" fill="#C89D68"/>
<path d="M71.8817 94.5957C71.9231 94.7579 71.9211 94.9243 71.9083 95.1395C71.7272 95.173 71.5918 95.1048 71.5725 94.9199C71.5529 94.7337 71.6679 94.6392 71.8817 94.5957Z" fill="#C89D68"/>
<path d="M82.6359 101.987C82.5802 101.827 82.565 101.661 82.5547 101.446C82.7262 101.404 82.8688 101.458 82.9061 101.638C82.9438 101.82 82.8423 101.926 82.6359 101.987Z" fill="#C89D68"/>
<path d="M71.4013 101.759C71.4426 101.921 71.4406 102.087 71.4278 102.303C71.2468 102.336 71.1114 102.268 71.092 102.083C71.0724 101.897 71.1874 101.802 71.4013 101.759Z" fill="#C89D68"/>
<path d="M83.8315 115.242C83.7744 115.117 83.7614 114.99 83.7539 114.814C83.7988 114.768 83.8383 114.769 83.8777 114.771C84.0101 114.779 84.1032 114.83 84.1142 114.978C84.1271 115.15 84.0449 115.234 83.8315 115.242Z" fill="#C89D68"/>
<path d="M82.1561 96.6194C82.0989 96.4937 82.0857 96.3664 82.0781 96.1913C82.1231 96.1451 82.1625 96.146 82.2019 96.1483C82.3342 96.1558 82.4273 96.2072 82.4383 96.3545C82.4512 96.5263 82.3695 96.6109 82.1561 96.6194Z" fill="#C89D68"/>
<path d="M82.7539 103.186C82.6965 103.06 82.6837 102.933 82.6758 102.758C82.7206 102.712 82.7604 102.713 82.8002 102.715C82.9333 102.722 83.0294 102.771 83.0409 102.921C83.0543 103.096 82.9687 103.178 82.7539 103.186Z" fill="#C89D68"/>
<path d="M65.5664 129.364C65.7239 129.492 65.8798 129.668 66.0522 129.881C65.612 129.889 65.6035 129.881 65.5664 129.364Z" fill="#C89D68"/>
<path d="M67.7305 131.725C67.916 131.826 68.0976 131.977 68.2959 132.162C68.2552 132.196 68.1971 132.2 68.1401 132.194C67.8106 132.159 67.7945 132.142 67.7305 131.725Z" fill="#C89D68"/>
<path d="M84.6406 132.311C84.7697 132.155 84.9473 132.002 85.1613 131.832C85.1646 132.267 85.1568 132.275 84.6406 132.311Z" fill="#C89D68"/>
<path d="M83.1133 107.244C83.056 107.119 83.0429 106.992 83.0352 106.816C83.0801 106.77 83.1196 106.771 83.159 106.773C83.2915 106.781 83.3851 106.832 83.3963 106.979C83.4093 107.152 83.327 107.236 83.1133 107.244Z" fill="#C89D68"/>
<path d="M82.8755 104.612C82.8213 104.491 82.8082 104.364 82.8008 104.189C82.8441 104.143 82.883 104.138 82.919 104.146C83.1788 104.204 83.2271 104.328 83.0618 104.526C83.0289 104.566 82.9657 104.58 82.8755 104.612Z" fill="#C89D68"/>
<path d="M84.072 117.869C84.0168 117.743 84.0037 117.616 83.9961 117.441C84.0881 117.424 84.1963 117.434 84.2549 117.493C84.3107 117.549 84.3424 117.659 84.3348 117.74C84.3243 117.853 84.2089 117.859 84.072 117.869Z" fill="#C89D68"/>
<path d="M82.3922 99.2464C82.337 99.1202 82.324 98.9929 82.3164 98.8178C82.4084 98.8012 82.5166 98.8109 82.5752 98.8697C82.631 98.9257 82.6627 99.0356 82.655 99.1171C82.6444 99.2303 82.5291 99.2362 82.3922 99.2464Z" fill="#C89D68"/>
<path d="M82.0297 95.1885C81.9741 95.0623 81.9612 94.9349 81.9531 94.7597C82.0456 94.7426 82.155 94.7515 82.2144 94.8105C82.2709 94.8665 82.3035 94.9776 82.2956 95.0595C82.2845 95.1738 82.1676 95.1785 82.0297 95.1885Z" fill="#C89D68"/>
<path d="M83.5942 112.611C83.54 112.49 83.5268 112.363 83.5195 112.188C83.5629 112.142 83.6017 112.137 83.6376 112.145C83.8965 112.203 83.9444 112.326 83.7797 112.525C83.747 112.564 83.6841 112.579 83.5942 112.611Z" fill="#C89D68"/>
<path d="M83.7096 113.81C83.654 113.683 83.6409 113.556 83.6328 113.381C83.7253 113.364 83.8347 113.373 83.8942 113.432C83.9506 113.488 83.9832 113.599 83.9753 113.681C83.9644 113.795 83.8475 113.8 83.7096 113.81Z" fill="#C89D68"/>
<path d="M83.3536 109.871C83.2982 109.744 83.2852 109.617 83.2773 109.442C83.3694 109.425 83.4779 109.435 83.5368 109.494C83.5928 109.549 83.6247 109.66 83.6171 109.741C83.6065 109.855 83.4908 109.86 83.3536 109.871Z" fill="#C89D68"/>
<path d="M81.9185 93.9883C81.8643 93.8673 81.8511 93.7401 81.8438 93.5652C81.8871 93.5185 81.926 93.5137 81.9618 93.5217C82.2207 93.5801 82.2685 93.7032 82.104 93.9019C82.0713 93.9413 82.0084 93.956 81.9185 93.9883Z" fill="#C89D68"/>
<path d="M64.0011 126.89C63.9815 126.953 63.9568 126.977 63.9256 127.028C63.8066 127.04 63.6962 127.027 63.5781 127.014C63.6988 126.674 63.7554 126.656 64.0011 126.89Z" fill="#C89D68"/>
<path d="M85.6211 131.482C85.7017 131.362 85.8296 131.24 85.992 131.101C86.0161 131.437 86.0161 131.437 85.6211 131.482Z" fill="#C89D68"/>
<path d="M87.3672 129.797C87.4304 129.654 87.5421 129.515 87.6881 129.36C87.7206 129.4 87.7226 129.455 87.7161 129.51C87.6879 129.743 87.687 129.743 87.3672 129.797Z" fill="#C89D68"/>
<path d="M68.6883 132.57C68.8383 132.627 68.9856 132.733 69.1526 132.873C69.0966 132.907 69.021 132.907 68.9454 132.907C68.7505 132.908 68.6789 132.799 68.6883 132.57Z" fill="#C89D68"/>
<path d="M88.2188 128.845C88.2771 128.698 88.3836 128.554 88.5241 128.393C88.5567 128.449 88.5547 128.522 88.554 128.596C88.5524 128.787 88.441 128.853 88.2188 128.845Z" fill="#C89D68"/>
<path d="M64.7305 128.285C64.8469 128.375 64.9611 128.515 65.0893 128.69C64.7554 128.697 64.7554 128.697 64.7305 128.285Z" fill="#C89D68"/>
<path d="M72.0237 93.2741C72.04 93.3529 72.0352 93.4007 72.0198 93.4831C71.9178 93.5011 71.8296 93.4821 71.8081 93.3699C71.7889 93.2698 71.8501 93.2291 72.0237 93.2741Z" fill="#C89D68"/>
<path d="M89.8224 126.695C89.7854 126.703 89.7684 126.648 89.7617 126.62C89.7625 126.556 89.7592 126.512 89.78 126.487C89.8105 126.45 89.8583 126.428 89.8987 126.4C89.9271 126.442 89.987 126.494 89.9775 126.523C89.9576 126.584 89.9009 126.634 89.8224 126.695Z" fill="#C89D68"/>
<path d="M74.5547 119.831C74.6379 119.786 74.7277 119.779 74.8621 119.779C74.8037 120.053 74.7495 120.066 74.5547 119.831Z" fill="#C89D68"/>
<path d="M88.8086 128.122C88.8329 128.019 88.9021 127.915 89.0047 127.792C89.0305 127.918 89.0633 128.083 88.8086 128.122Z" fill="#C89D68"/>
<path d="M89.5312 127.169C89.5516 127.062 89.6173 126.954 89.7156 126.824C89.7457 126.95 89.7875 127.117 89.5312 127.169Z" fill="#C89D68"/>
<path d="M69.2891 133.041C69.3953 133.063 69.5028 133.131 69.6303 133.231C69.5029 133.26 69.3342 133.299 69.2891 133.041Z" fill="#C89D68"/>
<path d="M77.9062 135.471C77.9536 135.426 78.0066 135.415 78.1002 135.408C78.1233 135.493 78.1386 135.603 78.0143 135.603C77.9802 135.603 77.9461 135.539 77.9062 135.471Z" fill="#C89D68"/>
<path d="M78.6115 92.2626C78.5649 92.3069 78.512 92.3181 78.4186 92.3248C78.4127 92.2587 78.4473 92.1972 78.4819 92.1357C78.523 92.167 78.5641 92.1982 78.6115 92.2626Z" fill="#C89D68"/>
<path d="M75.3771 92.7393C75.3305 92.7836 75.2776 92.7948 75.1842 92.8013C75.1784 92.7352 75.213 92.6738 75.2477 92.6123C75.2887 92.6436 75.3298 92.6749 75.3771 92.7393Z" fill="#C89D68"/>
<path d="M83.8945 119.59C83.9402 119.545 83.9916 119.536 84.0822 119.523C84.1098 119.604 84.1336 119.715 84.0056 119.723C83.9726 119.725 83.9355 119.66 83.8945 119.59Z" fill="#C89D68"/>
<path d="M54.2848 96.1926C54.2936 96.2018 54.247 96.2129 54.2266 96.2006C54.2288 96.1712 54.252 96.1696 54.2848 96.1926Z" fill="#C39A67"/>
</g>
<defs>
<clipPath id="clip0_19161_23236">
<rect width="112" height="147" fill="white" transform="translate(0.5)"/>
</clipPath>
</defs>
</svg>
