<svg width="21" height="20" viewBox="0 0 21 20" fill="none" xmlns="http://www.w3.org/2000/svg">
<mask id="mask0_16070_14719" style="mask-type:alpha" maskUnits="userSpaceOnUse" x="0" y="0" width="21" height="20">
<rect x="0.5" width="20" height="20" fill="#D9D9D9"/>
</mask>
<g mask="url(#mask0_16070_14719)">
<path d="M10.5006 9.79297C10.9021 9.79297 11.2452 9.64998 11.5299 9.36401C11.8147 9.07804 11.957 8.73429 11.957 8.33276C11.957 7.93123 11.814 7.58811 11.5281 7.30339C11.2421 7.01866 10.8984 6.8763 10.4968 6.8763C10.0953 6.8763 9.75217 7.01929 9.46745 7.30526C9.18273 7.59123 9.04036 7.93498 9.04036 8.33651C9.04036 8.73804 9.18335 9.08116 9.46932 9.36589C9.75529 9.65061 10.099 9.79297 10.5006 9.79297ZM10.4987 16.6888C12.3459 15.0082 13.7105 13.4839 14.5924 12.1159C15.4744 10.7478 15.9154 9.54297 15.9154 8.5013C15.9154 6.86533 15.3925 5.52575 14.3468 4.48255C13.3011 3.4395 12.0184 2.91797 10.4987 2.91797C8.97898 2.91797 7.69627 3.4395 6.65057 4.48255C5.60488 5.52575 5.08203 6.86533 5.08203 8.5013C5.08203 9.54297 5.53342 10.7478 6.4362 12.1159C7.33898 13.4839 8.69314 15.0082 10.4987 16.6888ZM10.4987 18.3346C8.26259 16.4319 6.59245 14.6645 5.48828 13.0326C4.38411 11.4006 3.83203 9.89019 3.83203 8.5013C3.83203 6.41797 4.50217 4.75825 5.84245 3.52214C7.18273 2.28602 8.73481 1.66797 10.4987 1.66797C12.2626 1.66797 13.8147 2.28602 15.1549 3.52214C16.4952 4.75825 17.1654 6.41797 17.1654 8.5013C17.1654 9.89019 16.6133 11.4006 15.5091 13.0326C14.4049 14.6645 12.7348 16.4319 10.4987 18.3346Z" fill="#EFEFEF"/>
</g>
</svg>
