<svg width="63" height="112" viewBox="0 0 63 112" fill="none" xmlns="http://www.w3.org/2000/svg">
<g clip-path="url(#clip0_21433_32863)">
<path d="M49.4596 111.498L16.114 107.293C9.8849 107.293 4.83519 101.68 4.83519 94.7544L0.662109 13.5801C1.50938 0.96294 9.8849 0 16.114 0H51.721C57.9502 0 62.9999 5.61391 62.9999 12.539V94.7544C62.9999 101.68 62.9999 110.503 49.4596 111.498Z" fill="#ED6FA7"/>
<path d="M45.5581 4.47656H13.0656C5.9764 4.47656 0.229492 10.2009 0.229492 17.2623V98.9842C0.229492 106.046 5.9764 111.77 13.0656 111.77H45.5581C52.6473 111.77 58.3942 106.046 58.3942 98.9842V17.2623C58.3942 10.2009 52.6473 4.47656 45.5581 4.47656Z" fill="white"/>
<path d="M45.8063 112H12.8181C5.75022 112 0 106.272 0 99.2317V17.0164C0 9.97573 5.75022 4.24805 12.8181 4.24805H45.8063C52.8746 4.24805 58.6248 9.97573 58.6248 17.0164V99.2317C58.6248 106.272 52.8746 112 45.8063 112ZM12.8181 4.70644C6.00414 4.70644 0.460197 10.2286 0.460197 17.0164V99.2317C0.460197 106.019 6.00414 111.542 12.8181 111.542H45.8063C52.6207 111.542 58.1646 106.019 58.1646 99.2317V17.0164C58.1646 10.2286 52.6207 4.70644 45.8063 4.70644H12.8181Z" fill="#00384A"/>
<path d="M29.3125 106.637C31.7767 106.637 33.7744 104.647 33.7744 102.192C33.7744 99.7379 31.7767 97.748 29.3125 97.748C26.8483 97.748 24.8506 99.7379 24.8506 102.192C24.8506 104.647 26.8483 106.637 29.3125 106.637Z" fill="white"/>
<path d="M29.3124 106.866C26.7252 106.866 24.6201 104.77 24.6201 102.193C24.6201 99.6159 26.7252 97.5195 29.3124 97.5195C31.8997 97.5195 34.0043 99.6159 34.0043 102.193C34.0043 104.77 31.8997 106.866 29.3124 106.866ZM29.3124 97.9779C26.9786 97.9779 25.0803 99.8688 25.0803 102.193C25.0803 104.517 26.9786 106.408 29.3124 106.408C31.6458 106.408 33.5441 104.517 33.5441 102.193C33.5441 99.8688 31.6458 97.9779 29.3124 97.9779Z" fill="#00384A"/>
<path d="M53.9406 39.5039L53.9458 40.3796C53.1063 40.3846 52.4273 40.5385 51.9064 40.8407C51.3855 41.1437 50.8901 41.7068 50.4202 42.5293C50.1067 43.0832 49.6158 44.4034 48.9475 46.4885L40.1243 72.3979L39.174 72.4035L31.7139 51.9372L24.5445 72.4899L23.6901 72.495L13.9605 45.915C13.2357 43.9321 12.7779 42.76 12.5856 42.3978C12.2652 41.8007 11.8312 41.358 11.2836 41.0696C10.7352 40.7811 9.99446 40.6393 9.0599 40.6448L9.05469 39.7691L20.9771 39.6987L20.9823 40.5744L20.4124 40.5777C19.573 40.5827 18.9331 40.776 18.492 41.1568C18.051 41.5375 17.832 41.9968 17.8352 42.5324C17.8385 43.0851 18.1943 44.3519 18.9025 46.3349L25.351 64.3L30.6036 48.963L29.6373 46.2714L28.8644 44.1232C28.5272 43.3368 28.1509 42.6453 27.7362 42.0487C27.5285 41.7501 27.2731 41.4995 26.9716 41.2961C26.5738 41.0143 26.1764 40.8122 25.7803 40.6878C25.4787 40.5948 25.0036 40.5506 24.3544 40.5545L24.3491 39.6788L36.8886 39.6047L36.8938 40.4804L36.0394 40.4854C35.152 40.4907 34.5046 40.6839 34.095 41.0646C33.6854 41.4452 33.4833 41.9596 33.4871 42.6055C33.4919 43.4104 33.856 44.8121 34.5808 46.8106L40.8589 64.2083L46.8814 46.5007C47.5662 44.5416 47.9064 43.1827 47.9019 42.4264C47.8997 42.0631 47.7831 41.7251 47.5513 41.411C47.3203 41.0968 47.0299 40.8777 46.681 40.7537C46.0776 40.5365 45.2929 40.4307 44.3276 40.4364L44.3224 39.5607L53.9406 39.5039Z" fill="#00384A" stroke="white" stroke-miterlimit="10"/>
</g>
<defs>
<clipPath id="clip0_21433_32863">
<rect width="63" height="112" fill="white"/>
</clipPath>
</defs>
</svg>
