<svg width="152" height="153" viewBox="0 0 152 153" fill="none" xmlns="http://www.w3.org/2000/svg">
<g clip-path="url(#clip0_16915_13074)">
<path d="M135.041 71.4001L145.998 46.5442C146.994 44.2843 146.165 41.6348 144.058 40.3501L132.411 33.2461C128.432 30.975 126.615 32.0424 125.12 32.9103C124.223 33.4311 125.744 34.5259 125.312 35.574L109.876 73.065C109.033 75.1117 109.657 77.4701 111.402 78.8291L118.777 84.5735L121.871 81.3266L135.041 71.4001Z" fill="#ED6FA7"/>
<path d="M132.198 71.4001L143.154 46.5442C144.151 44.2843 143.321 41.6348 141.215 40.3501L129.568 33.2462C126.99 31.6738 123.619 32.779 122.469 35.574L107.032 73.065C106.189 75.1117 106.814 77.4701 108.558 78.8291L115.933 84.5735L119.027 81.3266L132.198 71.4001Z" fill="white" stroke="#003649" stroke-miterlimit="10"/>
<path d="M85.7943 220.644V142.657H29.2852V220.74L85.7943 220.644Z" fill="#F7C400"/>
<path d="M78.4348 66.8781V63.0468C78.4348 63.0468 40.5583 49.9248 40.5583 49.9248L38.7252 52.3836C29.0281 65.3912 21.705 80.0152 17.0946 95.5792L0 153.288L85.962 153.288C85.962 153.288 85.962 139.324 85.962 139.324L78.4348 66.8781Z" fill="#E40524"/>
<path d="M78.4348 66.8781V63.0468C78.4348 63.0468 40.5583 49.9248 40.5583 49.9248L38.7252 52.3836C29.0281 65.3912 21.705 80.0152 17.0946 95.5792L0 153.288L85.962 153.288C85.962 153.288 85.962 139.324 85.962 139.324L78.4348 66.8781Z" fill="url(#paint0_radial_16915_13074)"/>
<path d="M77.6207 12.8161C80.5989 12.6372 83.8267 12.5256 86.2864 14.2173C88.3684 15.6493 89.4943 18.145 89.9588 20.6319C90.4233 23.1187 90.3245 25.672 90.5008 28.1958C90.5768 29.2845 90.7282 30.4312 91.3968 31.2929C92.1862 32.3103 93.5178 32.7114 94.5553 33.4731C95.9197 34.4747 96.7537 36.1629 96.721 37.8571C96.6884 39.5513 95.7901 41.206 94.3882 42.1542C93.738 42.594 92.9437 42.9387 92.6191 43.6542C92.3446 44.2592 92.4886 44.9595 92.5683 45.6192C92.9559 48.8308 91.6768 51.999 90.2152 54.8836C89.372 56.5477 88.4422 58.1987 87.1318 59.5251C84.1173 62.5765 79.4463 63.4818 75.2002 62.9015C70.9541 62.3212 67.0068 60.4519 63.1375 58.6066C63.2823 54.0099 62.9537 49.3717 60.1323 45.7438C59.0659 44.3725 57.6617 43.3056 56.496 42.0179C54.4559 39.7641 53.0517 37.0194 52.8067 33.9868C52.5321 30.5886 53.5083 26.8981 55.9268 24.4994C58.3452 22.1008 62.3838 20.9899 65.5649 22.2014C65.9261 22.3389 66.3024 22.5061 66.6836 22.4427C67.1252 22.3693 67.4541 22.0081 67.7488 21.6705C70.5936 18.4122 74.3232 15.6136 77.6207 12.8161Z" fill="#F7C400"/>
<path d="M63.2693 26.3496C61.1003 26.5185 58.7769 27.3434 57.7136 29.2448C56.634 31.1755 56.9805 34.903 58.1398 36.7868C59.2992 38.6706 64.431 43.2729 65.0957 44.7361" stroke="#E30518" stroke-miterlimit="10" stroke-linecap="round"/>
<path d="M92.5088 45.1819L87.5273 42.0781" stroke="#E30518" stroke-miterlimit="10" stroke-linecap="round"/>
<path d="M92.1263 41.0078C92.4765 41.0078 92.7604 40.7234 92.7604 40.3725C92.7604 40.0217 92.4765 39.7373 92.1263 39.7373C91.7761 39.7373 91.4922 40.0217 91.4922 40.3725C91.4922 40.7234 91.7761 41.0078 92.1263 41.0078Z" fill="#E40524"/>
<path d="M94.2005 40.372C94.5507 40.372 94.8346 40.0876 94.8346 39.7368C94.8346 39.386 94.5507 39.1016 94.2005 39.1016C93.8503 39.1016 93.5664 39.386 93.5664 39.7368C93.5664 40.0876 93.8503 40.372 94.2005 40.372Z" fill="#E40524"/>
<path d="M85.5359 13.3641C85.6689 13.6479 85.317 13.6115 85.2445 14.002C85.2121 14.1763 85.3042 14.4089 85.249 14.6414C85.2048 14.8277 85.0873 15.0131 85.0255 15.2297C84.9716 15.4189 85.0613 15.6667 84.992 15.8746C84.9288 16.0644 84.6353 16.1805 84.5579 16.3825C84.4857 16.5713 84.6662 16.8717 84.5805 17.0686C84.4993 17.2552 84.2711 17.3834 84.1768 17.5751C84.0865 17.7586 83.9593 17.9269 83.8562 18.1131C83.7569 18.2926 83.6826 18.4905 83.5706 18.6708C83.4621 18.8455 83.3053 18.991 83.1842 19.1649C83.0665 19.334 83.1242 19.6412 82.9939 19.808C82.867 19.9706 82.7262 20.1384 82.5868 20.2976C82.4508 20.4528 82.3025 20.6145 82.1542 20.7652C82.0094 20.9123 81.7942 21.0013 81.6371 21.1429C81.4838 21.2811 81.2557 21.3389 81.0903 21.4708C80.9289 21.5994 80.7225 21.6676 80.5492 21.7892C80.3804 21.9076 80.3293 22.2152 80.1487 22.3261C79.9731 22.4339 79.7132 22.4094 79.5261 22.5092C79.3445 22.6061 79.1221 22.6218 78.9293 22.7104C78.7425 22.7963 78.6169 23.0354 78.4193 23.1128C78.228 23.1877 77.9516 23.0296 77.7499 23.0959C77.5548 23.16 77.36 23.2071 77.1549 23.2625C76.9571 23.316 76.8364 23.7046 76.629 23.7495C76.4288 23.7929 76.1694 23.5568 75.9601 23.5917C75.758 23.6255 75.5843 23.8899 75.3736 23.9153C75.1701 23.9398 74.9481 23.8488 74.7364 23.8651C74.532 23.8809 74.324 23.9279 74.1118 23.9358C73.9068 23.9434 73.6959 24.0047 73.4834 24.0046C73.2781 24.0044 73.065 24.0069 72.8526 23.9993C72.6472 23.992 72.4352 23.9703 72.2231 23.9557C72.0178 23.9416 71.8174 23.8082 71.6058 23.7871C71.4013 23.7666 71.1762 23.8792 70.9657 23.852C70.7618 23.8256 70.5475 23.8212 70.3379 23.7883C70.1347 23.7565 69.9558 23.5503 69.7471 23.5121C69.5445 23.475 69.3313 23.4745 69.1235 23.4313C68.9215 23.3893 68.7484 23.2056 68.5415 23.1578C68.3406 23.1113 68.1361 23.0769 67.9305 23.0247C67.7301 22.9739 67.5175 22.9642 67.3125 22.9078C67.113 22.8529 66.8816 22.9052 66.6778 22.8449C66.4617 22.7921 66.2633 22.7356 66.0781 22.6864C65.8592 22.6282 65.7118 22.3944 65.5323 22.3415C65.3076 22.2754 65.0443 22.4314 64.8745 22.3738C64.6342 22.2923 64.4082 22.2878 64.2598 22.2244C63.7983 22.0273 63.4595 21.8635 63.6767 21.6423C63.8911 21.4239 63.9865 21.4935 64.2405 21.3231C64.4946 21.1526 64.6383 21.3676 64.8924 21.1971C65.1467 21.0265 65.0619 20.8996 65.3162 20.7289C65.5709 20.5581 65.4954 20.445 65.75 20.2742C66.005 20.1031 66.181 20.3663 66.4359 20.1952C66.6905 20.0244 66.6423 19.9524 66.8969 19.7816C67.1514 19.6109 67.0488 19.4575 67.3032 19.2868C67.5578 19.116 67.5687 19.1323 67.8233 18.9615C68.0782 18.7905 68.0668 18.7735 68.3218 18.6024C68.5767 18.4314 68.5647 18.4134 68.8196 18.2423C69.0743 18.0715 69.2287 18.3025 69.4834 18.1316C69.7383 17.9606 69.7187 17.9312 69.9735 17.7602C70.2287 17.5891 70.1784 17.5138 70.4336 17.3426C70.6885 17.1716 70.6383 17.0965 70.8931 16.9255C71.1483 16.7543 71.125 16.7194 71.3801 16.5482C71.6352 16.3771 71.6438 16.3901 71.8989 16.219C72.1541 16.0477 72.2443 16.1826 72.4996 16.0113C72.7541 15.8406 72.6516 15.6872 72.9061 15.5164C73.1607 15.3456 73.2205 15.435 73.475 15.2642C73.7304 15.0929 73.7247 15.0843 73.9801 14.9129C74.2351 14.7419 74.2195 14.7186 74.4745 14.5475C74.7298 14.3762 74.7886 14.4642 75.0439 14.2929C75.2995 14.1214 75.3093 14.136 75.5649 13.9645C75.8202 13.7932 75.7803 13.7337 76.0356 13.5624C76.2914 13.3908 76.2429 13.3182 76.4987 13.1465C76.755 12.9746 76.8743 13.1531 77.1306 12.9812C77.3868 12.8092 77.379 12.7975 77.6352 12.6256C77.6352 12.6256 77.8116 12.6041 78.1988 12.549C78.3739 12.5241 78.5686 12.4187 78.8033 12.3946C78.9934 12.3751 79.2038 12.4285 79.4258 12.4141C79.6223 12.4012 79.8252 12.3795 80.0419 12.3736C80.2423 12.3681 80.4455 12.4042 80.6594 12.407C80.8619 12.4096 81.0668 12.3541 81.2784 12.3659C81.4821 12.3773 81.6844 12.4013 81.8938 12.423C82.0977 12.4441 82.2855 12.5556 82.4923 12.5881C82.6958 12.6201 82.9526 12.367 83.1565 12.4114C83.3586 12.4555 83.5268 12.6498 83.7269 12.7075C83.9261 12.765 84.1641 12.7134 84.359 12.7858C84.5535 12.8581 84.6399 13.1806 84.8279 13.2692C85.0155 13.3577 85.3571 13.2579 85.5359 13.3641Z" fill="#010101"/>
<path d="M32.4542 40.2825C32.2565 40.3591 32.0266 40.3535 31.827 40.4286C31.6288 40.5033 31.496 40.7558 31.2965 40.8298C31.0976 40.9037 30.8885 40.9511 30.689 41.0251C30.4898 41.099 30.2417 41.0415 30.0425 41.1164C29.8433 41.1912 29.6365 41.2464 29.438 41.3229C29.2392 41.3995 29.0302 41.4511 28.8328 41.5301C28.635 41.6094 28.5232 41.8959 28.3274 41.9783C28.1309 42.0611 27.9366 42.1389 27.7427 42.2257C27.5481 42.3128 27.2494 42.1716 27.0581 42.2635C26.8659 42.3559 26.7583 42.6167 26.5702 42.7147C26.381 42.8133 26.0906 42.7255 25.9062 42.8306C25.721 42.9362 25.5294 43.0411 25.3497 43.1541C25.1693 43.2675 24.9808 43.3802 24.8067 43.5019C24.6323 43.6239 24.6266 43.9747 24.4592 44.1058C24.2918 44.2368 24.0132 44.2296 23.8536 44.3706C23.6945 44.5111 23.5176 44.639 23.3669 44.7902C23.2174 44.9402 23.2529 45.2603 23.1124 45.4217C22.9805 45.5731 22.5859 45.5093 22.4647 45.6683C22.3431 45.8278 22.399 46.1196 22.2879 46.286C22.1766 46.4527 21.9473 46.5477 21.8463 46.7207C21.7453 46.8936 21.579 47.0402 21.488 47.2188C21.397 47.3971 21.3748 47.6172 21.2934 47.8006C21.2122 47.9835 21.0679 48.1484 20.996 48.3357C20.9242 48.5225 20.8647 48.7228 20.8018 48.9133C20.739 49.1033 20.7314 49.3172 20.6772 49.5103C20.623 49.7031 20.8433 49.966 20.7973 50.1612C20.7514 50.3562 20.4119 50.4876 20.3738 50.6844C20.3357 50.8812 20.2744 51.0799 20.2438 51.2779C20.2133 51.4762 20.5068 51.7184 20.4835 51.9173C20.4602 52.1167 20.2323 52.2935 20.216 52.4929C20.1994 52.6967 20.2393 52.9052 20.2297 53.1099C20.2201 53.3143 20.1143 53.5177 20.112 53.7225C20.1098 53.9272 20.0302 54.1376 20.0354 54.3423C20.0406 54.547 20.3256 54.7407 20.3386 54.945C20.3515 55.1494 20.2493 55.3619 20.2703 55.5655C20.2913 55.7693 20.3263 55.9719 20.3555 56.1744C20.3847 56.3772 20.5496 56.5549 20.5873 56.7559C20.6251 56.9573 20.371 57.2216 20.4176 57.4207C20.4642 57.6203 20.7867 57.7501 20.8423 57.947C20.8981 58.1441 20.7371 58.4091 20.8021 58.6031C20.8672 58.7972 21.0729 58.9433 21.1476 59.1338C21.2222 59.3243 21.1847 59.5654 21.2691 59.7519C21.3535 59.9382 21.6038 60.0455 21.6982 60.2273C21.7923 60.4087 21.9214 60.566 22.0257 60.7424C22.1297 60.9181 22.1497 61.1443 22.2645 61.3139C22.3789 61.483 22.3807 61.7402 22.5053 61.9024C22.6298 62.0644 22.8382 62.1662 22.9723 62.3206C23.1064 62.4749 23.3691 62.508 23.5122 62.6539C23.6554 62.7999 23.6079 63.148 23.7595 63.2849C23.9113 63.4219 24.1215 63.5028 24.2812 63.6299C24.4413 63.7573 24.6556 63.8177 24.823 63.9343C24.9909 64.0513 25.2471 64.0237 25.4218 64.1291C25.5969 64.2348 25.6189 64.618 25.8003 64.7113C25.9822 64.8049 26.2676 64.6881 26.4552 64.7685C26.6431 64.849 26.7972 65.0176 26.9902 65.0841C27.1833 65.1506 27.428 65.0364 27.6257 65.0881C27.823 65.1398 28.0031 65.2353 28.2044 65.2714C28.4049 65.3074 28.5831 65.522 28.787 65.5418C28.9863 65.5611 29.2023 65.356 29.4049 65.3633C29.6054 65.3706 29.8036 65.3875 30.0058 65.3881C30.2073 65.3888 30.4082 65.3048 30.6098 65.3039C30.8119 65.303 31.016 65.3605 31.2168 65.3632C31.4196 65.3658 31.6136 65.5933 31.8135 65.6048C32.0161 65.6164 32.2102 65.6239 32.4083 65.65C32.6094 65.6765 32.7851 65.761 32.9798 65.808C33.1758 65.8554 33.4012 65.7735 33.589 65.8475C33.7744 65.9205 33.9452 66.0234 34.1209 66.128C34.3012 66.2354 34.4902 66.3266 34.6497 66.4598C34.8093 66.593 34.8385 66.8562 34.9835 67.0075C35.1268 67.1571 35.4754 67.1219 35.6104 67.2815C35.7447 67.4403 35.8443 67.6311 35.9761 67.7923C36.1083 67.954 36.108 68.2272 36.2437 68.3839C36.3815 68.5429 36.4725 68.754 36.6183 68.9048C36.7644 69.056 37.1326 68.9803 37.2864 69.1231C37.4403 69.2661 37.6108 69.3774 37.7719 69.512C37.933 69.6466 37.9593 69.9466 38.1272 70.0728C38.2949 70.199 38.4804 70.3032 38.6544 70.4208C38.8282 70.5383 38.9811 70.6931 39.1606 70.802C39.34 70.9109 39.4934 71.0752 39.678 71.1754C39.8623 71.2756 40.143 71.191 40.3321 71.2825C40.5209 71.3739 40.6751 71.5391 40.8682 71.6218C41.061 71.7044 41.3024 71.6605 41.499 71.7344C41.6953 71.8083 41.857 71.9733 42.0567 72.0384C42.2561 72.1035 42.4962 72.0212 42.6985 72.0775C42.9006 72.1338 43.0764 72.2739 43.2809 72.3214C43.4853 72.369 43.6681 72.5172 43.8744 72.5559C44.0806 72.5946 44.29 72.625 44.4977 72.6548C44.7055 72.6846 44.9358 72.5051 45.1445 72.526C45.3534 72.5469 45.5443 72.7584 45.7537 72.7702C45.9634 72.7821 46.1747 72.7523 46.3844 72.7551C46.5945 72.7579 46.7998 72.6005 47.0095 72.5948C47.2195 72.5891 47.4412 72.8588 47.6505 72.8448C47.8601 72.8308 48.0666 72.7465 48.2753 72.7243C48.4841 72.7022 48.6952 72.6834 48.903 72.6534C49.1108 72.6233 49.3113 72.5414 49.5178 72.5037C49.7243 72.466 49.9266 72.4073 50.1317 72.3622C50.3366 72.317 50.5658 72.3672 50.7692 72.3149C50.9724 72.2626 51.1167 71.9975 51.3182 71.9382C51.5195 71.8789 51.7119 71.8055 51.9113 71.7394C52.1105 71.6735 52.3716 71.7888 52.5687 71.7163C52.7658 71.6439 52.9706 71.5857 53.1653 71.5069C53.3599 71.4282 53.5834 71.4089 53.7756 71.3241C53.9677 71.2393 54.0235 70.8582 54.213 70.7675C54.4024 70.6769 54.6977 70.8038 54.8844 70.7075C55.071 70.6112 55.1605 70.3347 55.3442 70.2329C55.528 70.1311 55.7475 70.0974 55.9281 69.9903C56.1089 69.8832 56.3755 69.9154 56.553 69.8032C56.7307 69.6909 56.7661 69.3609 56.9403 69.2437C57.1096 69.1298 57.4028 69.2015 57.5704 69.0879C57.7394 68.9734 57.7851 68.6795 57.952 68.5649C58.1202 68.4494 58.3509 68.4272 58.5167 68.3112C58.6838 68.1942 58.898 68.145 59.0622 68.027C59.2279 67.908 59.4534 67.8701 59.6158 67.7496C59.7796 67.628 59.8083 67.3275 59.9684 67.2039C60.1299 67.0793 60.3899 67.0806 60.5471 66.9534C60.7058 66.8252 60.7364 66.5435 60.8903 66.4123C61.0455 66.28 61.2173 66.1717 61.3673 66.0358C61.5183 65.8989 61.8169 65.9189 61.9623 65.7779C62.1084 65.6361 62.0415 65.2828 62.1814 65.1363C62.3219 64.9892 62.5808 64.9548 62.7146 64.8024C62.8486 64.6497 63.0544 64.5533 63.1812 64.3947C63.308 64.2363 63.3756 64.0275 63.4948 63.8628C63.6134 63.6987 63.6667 63.4885 63.7774 63.3175C63.8872 63.1478 63.9883 62.9737 64.0899 62.7967C64.1904 62.6216 64.3487 62.4762 64.4407 62.2934C64.5312 62.1136 64.6959 61.9621 64.7778 61.7744C64.8583 61.5899 64.8998 61.3814 64.9716 61.1888C65.0417 61.0004 65.1757 60.8249 65.2372 60.6284C65.2989 60.4311 65.1956 60.1841 65.2487 59.9868C65.3023 59.7873 65.2107 59.5568 65.2555 59.3574C65.3008 59.156 65.4904 58.9885 65.5267 58.7874C65.5632 58.5843 65.7363 58.4009 65.7637 58.1982C65.7912 57.9938 65.6314 57.7673 65.6495 57.5635C65.6679 57.3582 65.6336 57.1535 65.6423 56.949C65.6512 56.7432 65.6116 56.5426 65.6107 56.3378C65.6099 56.1319 65.7834 55.924 65.7728 55.7193C65.7621 55.5139 65.7009 55.3118 65.6804 55.1077C65.6598 54.9032 65.6645 54.6953 65.634 54.4923C65.6036 54.2893 65.7037 54.0586 65.6633 53.8572C65.623 53.656 65.3115 53.5149 65.2612 53.3156C65.2111 53.1168 65.3599 52.8623 65.3 52.6656C65.2403 52.4697 64.9543 52.3494 64.8848 52.1556C64.8157 51.9631 64.8126 51.7492 64.7338 51.5589C64.6556 51.37 64.7213 51.1152 64.6335 50.9287C64.5465 50.7437 64.4944 50.5335 64.398 50.3511C64.3026 50.1707 64.2188 49.974 64.1142 49.7962C64.0106 49.6202 63.7274 49.5505 63.6148 49.3773C63.5036 49.2062 63.4506 48.9932 63.3306 48.8249C63.1955 48.6356 63.0144 48.5028 62.8946 48.3443C62.7531 48.1572 62.7498 47.8847 62.6247 47.7327C62.4752 47.5511 62.158 47.5452 62.0236 47.4005C61.8675 47.2324 61.827 46.9776 61.6783 46.8383C61.5207 46.6905 61.407 46.4972 61.2415 46.3555C61.0881 46.2241 60.8757 46.1502 60.7017 46.0015C60.5518 45.8734 60.4253 45.699 60.251 45.5432C60.1041 45.412 59.8333 45.3935 59.6634 45.2336C59.5186 45.0973 59.4846 44.8246 59.3196 44.6618C59.1726 44.5168 59.0228 44.3741 58.8753 44.2305C58.7274 44.0866 58.4732 44.0529 58.3255 43.9095C58.1776 43.7659 57.9811 43.6721 57.8341 43.5282C57.6871 43.3841 57.6521 43.1259 57.5067 42.9804C57.3612 42.8349 57.2926 42.6156 57.1494 42.4677C57.0064 42.32 56.7054 42.3233 56.5654 42.1722C56.4258 42.0215 56.3111 41.8456 56.1752 41.6907C56.0399 41.5364 56.0501 41.2597 55.9192 41.1002C55.7891 40.9418 55.5129 40.9006 55.3879 40.7362C55.264 40.5733 55.061 40.4619 54.9427 40.2921C54.8258 40.1244 54.809 39.8838 54.6983 39.7085C54.5892 39.5359 54.3817 39.4157 54.2793 39.235C54.1789 39.0577 54.192 38.8127 54.0985 38.6269C54.0072 38.4453 53.7754 38.3225 53.6913 38.132C53.6094 37.9464 53.8249 37.6341 53.7503 37.4394C53.6778 37.25 53.5183 37.0934 53.4531 36.8948C53.39 36.7021 53.4189 36.4827 53.3632 36.2807C53.3093 36.0858 53.1081 35.9274 53.0615 35.7232C53.0165 35.5255 52.8926 35.3378 52.8548 35.131C52.8183 34.9316 52.9151 34.5877 52.8855 34.3794C52.781 34.5541 52.5907 34.8094 52.4692 34.9714C52.3473 35.1338 52.2106 35.2756 52.0732 35.4248C51.9358 35.5739 51.7864 35.7005 51.6352 35.836C51.4843 35.971 51.4466 36.2475 51.2835 36.3686C51.121 36.4893 50.9165 36.5609 50.7434 36.6674C50.571 36.7734 50.2903 36.6755 50.1089 36.7671C49.9282 36.8583 49.8572 37.1856 49.6691 37.2621C49.4815 37.3383 49.3023 37.4694 49.1088 37.5305C48.9156 37.5916 48.6655 37.4648 48.468 37.5105C48.2704 37.5562 48.058 37.4896 47.8577 37.5195C47.6569 37.5495 47.4812 37.7947 47.2793 37.8084C47.0767 37.8222 46.8659 37.8768 46.6636 37.8739C46.4605 37.871 46.2686 37.6345 46.0674 37.6144C45.8527 37.5929 45.6109 37.7589 45.4005 37.7196C45.1887 37.6801 44.9735 37.6184 44.7667 37.562C44.5591 37.5054 44.3641 37.3898 44.1621 37.3174C43.9596 37.2448 43.7091 37.271 43.5129 37.1838C43.3164 37.0965 43.194 36.8437 43.0043 36.7429C42.8144 36.642 42.7013 36.4171 42.5188 36.3039C42.3359 36.1905 42.0556 36.2299 41.8807 36.1054C41.7052 35.9804 41.614 35.7468 41.4472 35.6119C41.2795 35.4763 41.0189 35.4512 40.8606 35.3069C40.7009 35.1613 40.4644 35.0866 40.3149 34.9333C40.1639 34.7785 40.1955 34.4525 40.0555 34.2913C39.9135 34.1276 39.7221 34.0224 39.5921 33.8535C39.4076 33.981 39.1184 34.0149 38.9863 34.1884C38.8561 34.3594 38.8215 34.6236 38.7231 34.8249C38.629 35.0174 38.6886 35.2832 38.6066 35.4905C38.5269 35.6923 38.2899 35.8338 38.2061 36.0379C38.1229 36.2405 38.1217 36.4788 38.0195 36.6724C37.9173 36.8659 37.804 37.0562 37.6677 37.2292C37.5351 37.3977 37.3291 37.49 37.1502 37.6284C36.9914 37.7512 36.8494 37.8925 36.6852 38.0078C36.5211 38.1231 36.4215 38.3368 36.2525 38.445C36.0837 38.5532 35.8621 38.5781 35.689 38.6797C35.5161 38.7812 35.3864 38.9625 35.2099 39.0579C35.0335 39.1533 34.8369 39.2144 34.6575 39.3042C34.4781 39.3939 34.3419 39.5801 34.1601 39.6647C33.9781 39.7494 33.7827 39.8127 33.5989 39.8927C33.4148 39.9728 33.1879 39.9552 33.0025 40.0311C32.8166 40.1072 32.6408 40.2102 32.4542 40.2825Z" fill="#010101"/>
<path d="M52.9695 34.9215C50.9168 36.9648 48.4866 38.9968 45.5945 39.0969C42.8549 39.1917 40.2544 37.3976 38.9645 34.9744C37.6746 32.5512 37.574 29.6174 38.2413 26.9538C38.7225 25.0329 39.6003 23.1877 40.9453 21.7363C42.0332 20.5624 43.3909 19.6774 44.7591 18.8485C50.0214 15.6604 55.8586 12.9505 59.5459 8.02001C61.3304 5.63381 63.3107 4.39882 65.8446 2.83484C68.3785 1.27085 71.3047 0.225707 74.2797 0.312662C77.2547 0.399616 80.2657 1.72748 81.9941 4.15475C82.777 5.25411 83.462 6.78738 82.7851 7.95519C80.6762 11.5932 69.8856 18.2421 63.8133 21.9349C63.8133 21.9349 57.6499 21.3283 54.7152 25.987C51.7805 30.6457 52.9695 34.9215 52.9695 34.9215Z" fill="#ED6FA7"/>
<path d="M52.9695 34.9215C50.9168 36.9648 48.4866 38.9968 45.5945 39.0969C42.8549 39.1917 40.2544 37.3976 38.9645 34.9744C37.6746 32.5512 37.574 29.6174 38.2413 26.9538C38.7225 25.0329 39.6003 23.1877 40.9453 21.7363C42.0332 20.5624 43.3909 19.6774 44.7591 18.8485C50.0214 15.6604 55.8586 12.9505 59.5459 8.02001C61.3304 5.63381 63.3107 4.39882 65.8446 2.83484C68.3785 1.27085 71.3047 0.225707 74.2797 0.312662C77.2547 0.399616 80.2657 1.72748 81.9941 4.15475C82.777 5.25411 83.462 6.78738 82.7851 7.95519C80.6762 11.5932 69.8856 18.2421 63.8133 21.9349C63.8133 21.9349 57.6499 21.3283 54.7152 25.987C51.7805 30.6457 52.9695 34.9215 52.9695 34.9215Z" fill="url(#paint1_linear_16915_13074)"/>
<path d="M55.6506 4.99881C55.6012 3.86396 55.5967 2.68066 56.0814 1.65372C56.566 0.626777 57.6819 -0.188888 58.7929 0.0382592C59.8164 0.24751 60.5144 1.27296 60.6687 2.30792C60.823 3.34288 60.5462 4.38917 60.2519 5.39322C59.8243 6.85204 59.3542 8.29835 58.8424 9.7297C58.6363 10.3063 57.6697 13.7908 57.0943 13.7918C55.9035 13.7939 55.6954 6.02544 55.6506 4.99881Z" fill="#ED6FA7"/>
<path d="M58.4888 4.2936C59.4643 4.2936 60.255 3.50143 60.255 2.52424C60.255 1.54705 59.4643 0.754883 58.4888 0.754883C57.5134 0.754883 56.7227 1.54705 56.7227 2.52424C56.7227 3.50143 57.5134 4.2936 58.4888 4.2936Z" stroke="#E30518" stroke-miterlimit="10" stroke-linecap="round"/>
<path d="M62.1763 16.9265C61.9756 16.3419 61.6754 15.7876 61.2643 15.3265C60.4823 14.4492 59.363 13.9657 58.2812 13.5084C59.209 13.4528 60.3491 13.3624 61.273 13.4639C62.1969 13.5653 63.12 13.8326 63.8786 14.3705" stroke="#E30518" stroke-miterlimit="10" stroke-linecap="round"/>
<path d="M151.983 78.9594C151.93 77.9899 151.766 77.0682 151.421 76.3341C150.322 73.9912 147.807 73.6818 147.001 73.6436C147.078 71.8703 146.848 69.9063 145.686 68.8834C144.405 67.7557 142.912 67.6871 141.827 67.8531C142.345 63.6454 139.192 62.3804 139.192 62.3804L135.954 69.7526C135.182 71.9498 133.703 71.6125 132.652 71.3069L132.63 71.3005C132.07 71.1377 131.647 70.6764 131.533 70.1034C131.085 67.8607 130.624 65.562 130.275 63.8504C129.303 59.0899 124.217 59.3313 123.138 62.4016C122.569 64.0205 123.079 66.4811 123.007 70.3359C122.915 75.2805 120.323 79.4698 116.261 83.0954L87.6137 108.241C85.56 110.113 82.2944 108.389 82.6734 105.634L85.3154 86.4296C86.1533 80.339 83.5719 74.2101 78.4865 70.7683C75.9039 69.0204 72.7906 67.9998 69.4393 67.9998C60.5025 67.9998 53.2578 75.2575 53.2578 84.2103V133.733C53.2578 142.686 60.5025 149.943 69.4393 149.943C73.9256 149.943 77.9846 148.114 80.9156 145.159C80.9156 145.159 137.307 99.4219 140.464 96.7761L148.566 88.1245C150.883 85.6503 152.169 82.3467 151.983 78.9594Z" fill="#F7C400"/>
<path d="M126.078 67.7857C127.298 67.7857 128.288 66.5323 128.288 64.9861C128.288 63.4399 127.298 62.1865 126.078 62.1865C124.857 62.1865 123.867 63.4399 123.867 64.9861C123.867 66.5323 124.857 67.7857 126.078 67.7857Z" stroke="#E30518" stroke-miterlimit="10" stroke-linecap="round"/>
<path d="M141.83 67.8545L141.105 78.0118" stroke="#E30518" stroke-miterlimit="10" stroke-linecap="round"/>
<path d="M147.016 73.6406V81.6141" stroke="#E30518" stroke-miterlimit="10" stroke-linecap="round"/>
<path d="M67.2969 153.288V220.645" stroke="#E30518" stroke-miterlimit="10" stroke-linecap="round"/>
<path d="M114.347 80.1095C115.432 80.1095 116.311 79.2285 116.311 78.1417C116.311 77.0549 115.432 76.1738 114.347 76.1738C113.262 76.1738 112.383 77.0549 112.383 78.1417C112.383 79.2285 113.262 80.1095 114.347 80.1095Z" stroke="#003649" stroke-miterlimit="10"/>
</g>
<defs>
<radialGradient id="paint0_radial_16915_13074" cx="0" cy="0" r="1" gradientUnits="userSpaceOnUse" gradientTransform="translate(42.981 101.606) scale(102.499 102.683)">
<stop stop-color="#ED6FA7"/>
<stop offset="0.284916" stop-color="#ED6FA7"/>
<stop offset="0.691679" stop-color="#ED6FA7" stop-opacity="0"/>
</radialGradient>
<linearGradient id="paint1_linear_16915_13074" x1="37.8359" y1="19.7041" x2="83.0612" y2="19.7041" gradientUnits="userSpaceOnUse">
<stop stop-color="#E30518"/>
<stop offset="0.072666" stop-color="#E30518" stop-opacity="0.580644"/>
<stop offset="0.152639" stop-color="#E30518" stop-opacity="0.283409"/>
<stop offset="0.231323" stop-color="#E30518" stop-opacity="0.116485"/>
<stop offset="0.306908" stop-color="#E30518" stop-opacity="0.0371232"/>
<stop offset="0.378556" stop-color="#E30518" stop-opacity="0.01"/>
<stop offset="0.444685" stop-color="#E30518" stop-opacity="0.01"/>
<stop offset="0.5" stop-color="#E30518" stop-opacity="0"/>
<stop offset="0.553046" stop-color="#E30518" stop-opacity="0.01"/>
<stop offset="0.619424" stop-color="#E30518" stop-opacity="0.01"/>
<stop offset="0.692923" stop-color="#E30518" stop-opacity="0.0417005"/>
<stop offset="0.771577" stop-color="#E30518" stop-opacity="0.130501"/>
<stop offset="0.854363" stop-color="#E30518" stop-opacity="0.317065"/>
<stop offset="0.939219" stop-color="#E30518" stop-opacity="0.648937"/>
<stop offset="1" stop-color="#E30518"/>
</linearGradient>
<clipPath id="clip0_16915_13074">
<rect width="152" height="153" fill="white"/>
</clipPath>
</defs>
</svg>
