<svg width="378" height="378" xmlns="http://www.w3.org/2000/svg" xmlns:xlink="http://www.w3.org/1999/xlink" overflow="hidden"><g><rect x="0" y="0" width="378" height="378" fill="#FFFFFF"/><path d="M122.5 103.5 156.63 46.5001 222.37 46.5001 256.5 103.5 222.37 160.5 156.63 160.5Z" stroke="#000000" stroke-width="6.66667" stroke-miterlimit="8" fill="none" fill-rule="evenodd"/><path d="M0 0 66.9795 1.44871" stroke="#000000" stroke-width="6.66667" stroke-miterlimit="8" fill="none" fill-rule="evenodd" transform="matrix(1 0 0 -1 189.5 104.949)"/><path d="M156.5 46.5001 189.082 105.395" stroke="#000000" stroke-width="6.66667" stroke-miterlimit="8" fill="none" fill-rule="evenodd"/><path d="M0 0 32.5818 55.9975" stroke="#000000" stroke-width="6.66667" stroke-miterlimit="8" fill="none" fill-rule="evenodd" transform="matrix(1 0 0 -1 156.5 160.498)"/><path d="M222.5 274 256.93 216.5 322.07 216.5 356.5 274 322.07 331.5 256.93 331.5Z" stroke="#000000" stroke-width="6.66667" stroke-miterlimit="8" fill="none" fill-rule="evenodd"/><path d="M0 0 66.9795 1.44871" stroke="#000000" stroke-width="6.66667" stroke-miterlimit="8" fill="none" fill-rule="evenodd" transform="matrix(1 0 0 -1 289.5 275.949)"/><path d="M257.5 216.5 290.082 275.395" stroke="#000000" stroke-width="6.66667" stroke-miterlimit="8" fill="none" fill-rule="evenodd"/><path d="M0 0 32.5818 55.9975" stroke="#000000" stroke-width="6.66667" stroke-miterlimit="8" fill="none" fill-rule="evenodd" transform="matrix(1 0 0 -1 257.5 331.498)"/><path d="M23.5001 274 57.9299 216.5 123.07 216.5 157.5 274 123.07 331.5 57.9299 331.5Z" stroke="#000000" stroke-width="6.66667" stroke-miterlimit="8" fill="none" fill-rule="evenodd"/><path d="M0 0 66.9795 1.44871" stroke="#000000" stroke-width="6.66667" stroke-miterlimit="8" fill="none" fill-rule="evenodd" transform="matrix(1 0 0 -1 90.5001 275.949)"/><path d="M58.5001 216.5 91.0819 275.395" stroke="#000000" stroke-width="6.66667" stroke-miterlimit="8" fill="none" fill-rule="evenodd"/><path d="M0 0 32.5818 55.9975" stroke="#000000" stroke-width="6.66667" stroke-miterlimit="8" fill="none" fill-rule="evenodd" transform="matrix(1 0 0 -1 58.5001 331.498)"/><path d="M0 0 49.8887 84.4743" stroke="#000000" stroke-width="13.3333" stroke-linecap="round" stroke-miterlimit="8" fill="none" fill-rule="evenodd" transform="matrix(1 0 0 -1 107.5 244.974)"/><path d="M205.5 133.5 257.097 217.127" stroke="#000000" stroke-width="13.3333" stroke-linecap="round" stroke-miterlimit="8" fill="none" fill-rule="evenodd"/><path d="M157.5 274.5 257.169 275.949" stroke="#000000" stroke-width="13.3333" stroke-linecap="round" stroke-miterlimit="8" fill="none" fill-rule="evenodd"/></g></svg>