<svg width="13" height="4" viewBox="0 0 13 4" fill="none" xmlns="http://www.w3.org/2000/svg">
<svg width="13" height="4" viewBox="0 0 13 4" fill="none" xmlns="http://www.w3.org/2000/svg">
<path d="M1.98 3.5C1.56625 3.5 1.21354 3.35271 0.921875 3.05813C0.630208 2.76354 0.484375 2.40938 0.484375 1.99563C0.484375 1.58188 0.631667 1.22917 0.92625 0.9375C1.22083 0.645833 1.575 0.5 1.98875 0.5C2.4025 0.5 2.75521 0.647292 3.04688 0.941875C3.33854 1.23646 3.48438 1.59062 3.48438 2.00437C3.48438 2.41812 3.33708 2.77083 3.0425 3.0625C2.74792 3.35417 2.39375 3.5 1.98 3.5ZM6.48 3.5C6.06625 3.5 5.71354 3.35271 5.42188 3.05813C5.13021 2.76354 4.98438 2.40938 4.98438 1.99563C4.98438 1.58188 5.13167 1.22917 5.42625 0.9375C5.72083 0.645833 6.075 0.5 6.48875 0.5C6.9025 0.5 7.25521 0.647292 7.54688 0.941875C7.83854 1.23646 7.98438 1.59062 7.98438 2.00437C7.98438 2.41812 7.83708 2.77083 7.5425 3.0625C7.24792 3.35417 6.89375 3.5 6.48 3.5ZM10.98 3.5C10.5662 3.5 10.2135 3.35271 9.92188 3.05813C9.63021 2.76354 9.48438 2.40938 9.48438 1.99563C9.48438 1.58188 9.63167 1.22917 9.92625 0.9375C10.2208 0.645833 10.575 0.5 10.9888 0.5C11.4025 0.5 11.7552 0.647292 12.0469 0.941875C12.3385 1.23646 12.4844 1.59062 12.4844 2.00437C12.4844 2.41812 12.3371 2.77083 12.0425 3.0625C11.7479 3.35417 11.3937 3.5 10.98 3.5Z" fill="#053749"/>
</svg>
