<svg width="101" height="101" viewBox="0 0 101 101" fill="none" xmlns="http://www.w3.org/2000/svg">
<path d="M50.485 50.485C43.5433 50.485 37.6008 48.0133 32.6575 43.07C27.7142 38.1267 25.2425 32.1842 25.2425 25.2425C25.2425 18.3008 27.7142 12.3583 32.6575 7.41498C37.6008 2.47166 43.5433 0 50.485 0C57.4267 0 63.3692 2.47166 68.3125 7.41498C73.2558 12.3583 75.7275 18.3008 75.7275 25.2425C75.7275 32.1842 73.2558 38.1267 68.3125 43.07C63.3692 48.0133 57.4267 50.485 50.485 50.485ZM0 100.97V83.3002C0 79.7242 0.920299 76.4374 2.7609 73.4399C4.6015 70.4424 7.04686 68.1548 10.097 66.5771C16.618 63.3166 23.2441 60.8712 29.9755 59.241C36.7068 57.6107 43.5433 56.7956 50.485 56.7956C57.4267 56.7956 64.2632 57.6107 70.9945 59.241C77.7259 60.8712 84.352 63.3166 90.873 66.5771C93.9231 68.1548 96.3685 70.4424 98.2091 73.4399C100.05 76.4374 100.97 79.7242 100.97 83.3002V100.97H0Z" fill="#053749" fill-opacity="0.3"/>
</svg>
