<svg width="230" height="271" viewBox="0 0 230 271" fill="none" xmlns="http://www.w3.org/2000/svg">
<path d="M102.323 48.9774L108.029 55.9079C109.1 57.2081 108.921 59.1386 107.629 60.2163L49.8812 108.395C46.6894 111.057 41.9504 110.611 39.3049 107.398C36.6594 104.186 37.1029 99.4153 40.2947 96.7525L98.0424 48.5742C99.3341 47.4965 101.252 47.6772 102.323 48.9774Z" fill="#851E6A"/>
<path d="M126.676 69.0059C145.607 69.0059 160.954 53.5583 160.954 34.5028C160.954 15.4473 145.607 -0.000244141 126.676 -0.000244141C107.745 -0.000244141 92.3984 15.4473 92.3984 34.5028C92.3984 53.5583 107.745 69.0059 126.676 69.0059Z" fill="#851E6A"/>
<path d="M126.679 59.8029C140.561 59.8029 151.815 48.4753 151.815 34.502C151.815 20.5287 140.561 9.20105 126.679 9.20105C112.797 9.20105 101.543 20.5287 101.543 34.502C101.543 48.4753 112.797 59.8029 126.679 59.8029Z" fill="white"/>
<path d="M137.161 182.984C136.847 182.884 136.836 183.098 136.507 183.105C136.178 183.112 136.179 183.174 135.85 183.181C135.521 183.188 135.515 182.869 135.186 182.876C134.857 182.883 134.864 183.233 134.535 183.24C134.207 183.247 134.204 183.108 133.875 183.115C133.546 183.122 133.544 183 133.215 183.007C132.886 183.013 132.887 183.025 132.558 183.032C132.229 183.039 132.228 182.994 131.9 183.001C131.571 183.008 131.568 182.893 131.24 182.899C130.911 182.906 130.918 183.239 130.589 183.246C130.26 183.253 130.261 183.28 129.932 183.287C129.603 183.294 129.598 183.056 129.269 183.063C128.94 183.07 128.939 183.02 128.61 183.027C128.28 183.034 128.283 183.155 127.953 183.162C127.624 183.169 127.625 183.232 127.296 183.239C126.966 183.246 126.964 183.138 126.634 183.144C126.304 183.151 126.308 183.332 125.978 183.339C125.649 183.346 125.645 183.152 125.315 183.158C124.986 183.165 124.984 183.063 124.655 183.07C124.325 183.077 124.333 183.431 124.003 183.437C123.674 183.444 123.666 183.047 123.337 183.053C123.008 183.06 123.016 183.464 122.687 183.471C122.358 183.477 122.351 183.132 122.022 183.138C121.803 183.143 121.583 183.147 121.364 183.152C121.035 183.159 121.035 183.182 120.706 183.189C120.377 183.196 120.38 183.338 120.05 183.345C119.721 183.352 119.716 183.117 119.387 183.124C119.057 183.131 119.066 183.564 118.737 183.571C118.407 183.578 118.401 183.278 118.071 183.285C117.741 183.291 117.74 183.26 117.411 183.267C117.081 183.273 117.084 183.442 116.755 183.449C116.425 183.456 116.426 183.501 116.097 183.508C115.767 183.515 115.769 183.576 115.439 183.583C115.11 183.589 115.104 183.314 114.775 183.321C114.446 183.328 114.452 183.615 114.122 183.622C113.793 183.629 113.789 183.45 113.46 183.457C113.13 183.464 113.126 183.271 112.797 183.277C112.467 183.284 112.471 183.465 112.141 183.472C111.811 183.479 111.811 183.461 111.481 183.468C111.151 183.475 111.153 183.561 110.823 183.568C110.493 183.575 110.495 183.67 110.166 183.677C109.836 183.684 109.832 183.463 109.502 183.47C109.173 183.476 109.178 183.725 108.848 183.732C108.519 183.739 108.512 183.404 108.182 183.411C107.853 183.417 107.857 183.632 107.527 183.639C107.197 183.646 107.195 183.544 106.865 183.551C106.535 183.558 106.538 183.703 106.208 183.71C105.879 183.717 105.873 183.433 105.543 183.44C105.213 183.447 105.215 183.534 104.886 183.541C104.556 183.548 104.558 183.634 104.228 183.641C103.898 183.647 103.895 183.47 103.565 183.477C103.236 183.484 103.24 183.662 102.911 183.669C102.583 183.676 102.584 183.733 102.256 183.74C101.927 183.747 101.924 183.599 101.595 183.606C101.266 183.613 101.268 183.742 100.939 183.749C100.61 183.756 100.606 183.599 100.277 183.606C99.9464 183.613 99.9466 183.621 99.6163 183.628C99.2865 183.634 99.2869 183.652 98.9572 183.659C98.6278 183.665 98.6256 183.558 98.2962 183.565C97.967 183.572 97.9671 183.576 97.6379 183.583C97.3087 183.59 97.3143 183.866 96.9851 183.873C96.6556 183.879 96.653 183.752 96.3235 183.759C95.9935 183.765 95.9991 184.041 95.6691 184.048C95.3388 184.054 95.3311 183.68 95.0007 183.687C94.6709 183.693 94.6786 184.07 94.3488 184.077C94.0191 184.084 94.0149 183.881 93.6853 183.888C93.3554 183.895 93.3507 183.664 93.0209 183.671C92.6905 183.678 92.6991 184.098 92.3688 184.105C92.0385 184.112 92.0362 184.001 91.7059 184.008C91.3759 184.015 91.3765 184.043 91.0465 184.05C90.7163 184.057 90.7132 183.906 90.3829 183.913C90.0523 183.92 90.0544 184.023 89.7238 184.03C89.3936 184.036 89.3895 183.837 89.0592 183.844C88.7286 183.851 88.7317 184.001 88.4011 184.008C88.0707 184.015 88.075 184.228 87.7446 184.235C87.4138 184.242 87.4058 183.851 87.0751 183.858C86.7452 183.865 86.7524 184.212 86.4225 184.219C86.0927 184.226 86.0867 183.931 85.7568 183.938C85.4259 183.945 85.425 183.899 85.094 183.906C84.7637 183.913 84.7678 184.115 84.4375 184.122C84.1066 184.129 84.1094 184.264 83.7786 184.271C83.4474 184.278 83.4447 184.147 83.1135 184.154C82.7828 184.161 82.7778 183.919 82.4471 183.926C82.1156 183.933 82.118 184.047 81.7865 184.054C81.4544 184.06 81.4534 184.008 81.1213 184.015C80.7893 184.022 80.792 184.151 80.46 184.16C80.13 184.169 80.2452 184.373 79.815 184.403C79.6316 184.416 79.4064 184.341 79.1518 184.362C78.9532 184.378 78.7226 184.263 78.483 184.284C78.2783 184.303 78.0663 184.401 77.8331 184.423C77.6259 184.444 77.4132 184.516 77.1844 184.54C76.9751 184.562 76.743 184.452 76.5164 184.477C76.3056 184.5 76.0918 184.564 75.8666 184.591C75.6548 184.616 75.4633 184.859 75.2391 184.887C75.0266 184.913 74.7811 184.716 74.5578 184.745C74.3446 184.773 74.1222 184.769 73.8996 184.799C73.686 184.828 73.4948 185.05 73.2729 185.082C73.0589 185.112 72.8353 185.098 72.6139 185.13C72.3997 185.162 72.162 185.058 71.941 185.092C71.7267 185.125 71.5242 185.256 71.3037 185.291C71.0892 185.325 70.8569 185.266 70.6368 185.302C70.4222 185.338 70.2072 185.387 69.9875 185.425C69.7729 185.461 69.5725 185.595 69.3532 185.634C69.1386 185.671 68.9173 185.682 68.6983 185.722C68.4838 185.761 68.2311 185.605 68.0125 185.646C67.798 185.687 67.5937 185.795 67.3755 185.838C67.1611 185.879 66.9373 185.885 66.7194 185.928C66.5051 185.971 66.304 186.091 66.0864 186.136C65.8722 186.18 65.6943 186.407 65.4771 186.453C65.2641 186.498 65.0031 186.322 64.7873 186.369C64.5744 186.415 64.3388 186.368 64.1233 186.416C63.9105 186.463 63.7793 186.882 63.5641 186.932C63.3513 186.981 63.1411 187.041 62.9262 187.091C62.7136 187.141 62.4911 187.15 62.2764 187.202C62.0639 187.253 61.8295 187.215 61.6151 187.268C61.4029 187.321 61.1737 187.309 60.9596 187.363C60.7475 187.417 60.5545 187.549 60.3407 187.605C60.1288 187.66 59.8465 187.449 59.633 187.506C59.4214 187.563 59.2635 187.826 59.0504 187.884C58.839 187.942 58.663 188.131 58.4503 188.191C58.2391 188.25 58.034 188.329 57.8216 188.39C57.6107 188.451 57.2913 188.136 57.0793 188.198C56.8687 188.26 56.6962 188.458 56.4846 188.521C56.2743 188.585 56.0651 188.655 55.8538 188.72C55.6439 188.785 55.3857 188.698 55.1749 188.764C54.9654 188.831 54.77 188.948 54.5596 189.016C54.3504 189.083 54.2387 189.455 54.0288 189.525C53.82 189.594 53.6337 189.729 53.4243 189.799C53.2159 189.87 52.9272 189.702 52.7183 189.774C52.5103 189.846 52.2396 189.74 52.0312 189.814C51.8237 189.887 51.6693 190.116 51.4614 190.191C51.2544 190.266 51.0417 190.328 50.8344 190.404C50.6279 190.481 50.5197 190.823 50.3129 190.902C50.1069 190.979 49.8112 190.819 49.605 190.899C49.3995 190.979 49.1933 191.058 48.9877 191.139C48.7828 191.221 48.6012 191.362 48.3963 191.445C48.192 191.528 48.0422 191.744 47.8379 191.829C47.6342 191.913 47.4098 191.945 47.2062 192.032C47.0031 192.118 46.6897 191.944 46.4868 192.032C46.2844 192.119 46.1224 192.304 45.9203 192.393C45.7186 192.483 45.6 192.76 45.3986 192.851C45.1977 192.942 44.9207 192.865 44.7201 192.958C44.5201 193.051 44.3688 193.249 44.1692 193.344C43.9699 193.438 43.8328 193.662 43.634 193.758C43.4356 193.854 43.0527 193.57 42.8548 193.669C42.6572 193.767 42.5327 194.016 42.3357 194.116C42.1389 194.215 42.027 194.482 41.8309 194.584C41.635 194.686 41.3526 194.62 41.1574 194.724C40.9625 194.828 40.7896 194.974 40.5954 195.079C40.4014 195.185 40.1254 195.141 39.9322 195.249C39.7393 195.356 39.6498 195.651 39.4577 195.761C39.2658 195.87 39.045 195.929 38.854 196.04C38.6632 196.152 38.5465 196.389 38.3567 196.503C38.167 196.616 37.816 196.46 37.6274 196.576C37.439 196.691 37.3724 197.008 37.185 197.125C36.9978 197.243 36.755 197.272 36.569 197.391C36.383 197.511 36.3273 197.832 36.1426 197.954C35.9579 198.075 35.6373 197.989 35.454 198.113C35.2707 198.237 35.1111 198.397 34.9292 198.523C34.7474 198.649 34.7148 198.988 34.5343 199.116C34.354 199.244 34.1241 199.299 33.9452 199.429C33.7664 199.559 33.5022 199.57 33.3249 199.703C33.1477 199.835 32.9589 199.953 32.7833 200.087C32.6077 200.222 32.5731 200.538 32.3992 200.675C32.2253 200.812 31.9179 200.777 31.7457 200.916C31.5736 201.055 31.5035 201.319 31.3332 201.461C31.1629 201.602 30.9457 201.685 30.7772 201.828C30.6088 201.972 30.2914 201.942 30.1249 202.088C29.9584 202.233 29.8754 202.477 29.7109 202.625C29.5464 202.773 29.4688 203.017 29.3064 203.167C29.144 203.318 28.8922 203.371 28.7319 203.524C28.5717 203.677 28.4488 203.869 28.2908 204.024C28.1327 204.179 28.066 204.426 27.9101 204.583C27.7544 204.74 27.5595 204.857 27.406 205.017C27.2526 205.176 27.0758 205.312 26.9248 205.474C26.7738 205.636 26.4698 205.658 26.3211 205.822C26.1726 205.986 26.21 206.319 26.0639 206.486C25.9165 206.654 25.6203 206.69 25.4752 206.857C25.3288 207.026 25.349 207.339 25.2049 207.508C25.0596 207.678 24.8143 207.76 24.6712 207.929C24.5269 208.1 24.4431 208.321 24.3011 208.491C24.1578 208.662 23.8142 208.665 23.6732 208.836C23.531 209.009 23.7189 209.454 23.579 209.626C23.4378 209.799 22.9971 209.725 22.8584 209.898C22.7183 210.072 22.6456 210.301 22.5079 210.474C22.369 210.65 22.1819 210.786 22.0454 210.961C21.9076 211.137 21.8632 211.386 21.7279 211.561C21.5913 211.738 21.3497 211.833 21.2156 212.009C21.0802 212.187 21.0427 212.44 20.9098 212.617C20.7756 212.796 20.7148 213.029 20.5832 213.207C20.4502 213.386 20.335 213.578 20.2046 213.756C20.073 213.937 19.8511 214.05 19.722 214.23C19.5917 214.412 19.3626 214.522 19.2349 214.703C19.1058 214.885 19.0111 215.092 18.8847 215.274C18.757 215.457 18.7778 215.744 18.6528 215.926C18.5265 216.111 18.3987 216.293 18.2752 216.476C18.1503 216.662 18.1095 216.902 17.9874 217.086C17.864 217.273 17.6018 217.365 17.4812 217.55C17.3592 217.738 17.1982 217.898 17.0791 218.085C16.9586 218.273 17.0645 218.605 16.9468 218.792C16.828 218.982 16.4441 219.002 16.3281 219.19C16.2107 219.381 16.0902 219.569 15.9758 219.758C15.8601 219.95 15.7893 220.168 15.6764 220.358C15.5623 220.55 15.6477 220.86 15.5365 221.051C15.4241 221.244 15.186 221.362 15.0765 221.555C14.9658 221.749 15.0416 222.047 14.9339 222.241C14.8249 222.436 14.6506 222.592 14.5447 222.786C14.4375 222.982 14.3546 223.189 14.2504 223.384C14.1446 223.583 13.9793 223.746 13.8767 223.943C13.7728 224.142 13.6213 224.314 13.5206 224.512C13.4187 224.712 13.1482 224.826 13.0494 225.024C12.9495 225.225 12.9939 225.498 12.8972 225.697C12.7994 225.899 12.8054 226.15 12.7107 226.35C12.6149 226.553 12.5827 226.783 12.4902 226.985C12.3965 227.189 12.1889 227.337 12.0986 227.54C12.007 227.745 11.7645 227.881 11.6763 228.084C11.587 228.29 11.7958 228.623 11.7099 228.827C11.6228 229.034 11.4834 229.215 11.3997 229.42C11.315 229.628 11.0015 229.741 10.9202 229.947C10.8379 230.156 10.9399 230.435 10.861 230.642C10.781 230.852 10.6433 231.037 10.5668 231.244C10.4893 231.455 10.3642 231.646 10.2903 231.855C10.2152 232.066 10.2526 232.315 10.1812 232.524C10.1087 232.737 10.1177 232.973 10.0489 233.183C9.97905 233.396 9.85687 233.588 9.79066 233.799C9.72348 234.013 9.48902 234.173 9.42551 234.385C9.36105 234.599 9.25788 234.802 9.19712 235.014C9.13544 235.23 9.30713 235.509 9.24917 235.722C9.19032 235.938 9.01862 236.121 8.96353 236.335C8.90757 236.552 8.89258 236.777 8.8404 236.992C8.78736 237.21 8.61622 237.397 8.56699 237.612C8.51693 237.831 8.38082 238.03 8.3346 238.246C8.28758 238.465 8.53972 238.745 8.49658 238.962C8.45267 239.182 8.19799 239.358 8.15798 239.575C8.11725 239.796 8.16308 240.031 8.12627 240.249C8.08878 240.47 8.01689 240.684 7.98333 240.902C7.94915 241.124 7.82672 241.332 7.79649 241.55C7.76556 241.774 7.90126 242.018 7.87433 242.237C7.84688 242.461 7.53205 242.651 7.50861 242.871C7.4847 243.095 7.56995 243.331 7.55006 243.551C7.52975 243.775 7.43183 243.993 7.41554 244.214C7.39889 244.438 7.62837 244.678 7.61572 244.898C7.6028 245.123 7.44023 245.339 7.4313 245.559C7.42217 245.784 7.64856 246.014 7.6434 246.234C7.63811 246.459 7.44072 246.678 7.43939 246.898C7.43803 247.123 7.43889 247.347 7.44145 247.566C7.44407 247.792 7.48596 248.014 7.49246 248.233C7.49916 248.458 7.36114 248.688 7.37167 248.907C7.38253 249.133 7.52331 249.35 7.53793 249.568C7.55305 249.794 7.70197 250.005 7.72077 250.223C7.74023 250.449 7.48712 250.699 7.51016 250.916C7.53409 251.142 7.74294 251.343 7.7703 251.56C7.79879 251.785 7.66638 252.03 7.69812 252.245C7.7313 252.47 7.75028 252.696 7.78646 252.91C7.82446 253.135 8.22748 253.287 8.26816 253.499C8.31122 253.723 7.98764 254.017 8.03298 254.227C8.08136 254.452 8.23886 254.647 8.28893 254.855C8.34315 255.081 8.36536 255.308 8.42042 255.514C8.48071 255.74 8.60263 255.939 8.66246 256.141C8.72958 256.368 8.81155 256.576 8.87603 256.773C8.95134 257.003 9.25413 257.128 9.32261 257.316C9.41051 257.558 9.21791 257.869 9.28803 258.04C9.45168 258.438 9.3171 258.503 9.63903 258.571C9.96132 258.638 9.97225 258.788 10.3006 258.765C10.6289 258.742 10.6 258.32 10.9283 258.297C11.2565 258.274 11.2791 258.605 11.6073 258.583C11.9355 258.56 11.9384 258.602 12.2665 258.579C12.5946 258.557 12.5698 258.194 12.8979 258.172C13.226 258.149 13.2522 258.531 13.5802 258.509C13.9083 258.486 13.8943 258.28 14.2224 258.257C14.5505 258.235 14.5412 258.098 14.8693 258.076C15.1975 258.053 15.2177 258.349 15.5459 258.326C15.8742 258.304 15.8529 257.992 16.1812 257.97C16.5096 257.947 16.521 258.114 16.8494 258.092C17.178 258.069 17.1766 258.048 17.5051 258.025C17.8338 258.003 17.8314 257.968 18.1601 257.945C18.489 257.922 18.4959 258.023 18.8248 258C19.1539 257.977 19.1514 257.939 19.4805 257.917C19.8096 257.894 19.8216 258.07 20.1507 258.048C20.4795 258.025 20.4629 257.781 20.7917 257.759C21.1205 257.736 21.1296 257.87 21.4584 257.847C21.7869 257.825 21.7887 257.85 22.1173 257.828C22.4458 257.805 22.454 257.926 22.7825 257.903C23.111 257.88 23.1116 257.889 23.44 257.866C23.7685 257.843 23.7583 257.694 24.0867 257.671C24.4152 257.649 24.4233 257.767 24.7518 257.745C25.0803 257.722 25.0756 257.653 25.4041 257.63C25.7327 257.607 25.7338 257.624 26.0625 257.601C26.3913 257.578 26.3845 257.479 26.7133 257.456C27.0423 257.434 27.0559 257.633 27.3849 257.61C27.7141 257.587 27.7115 257.549 28.0407 257.527C28.3699 257.504 28.359 257.344 28.6881 257.321C29.0171 257.299 29.0045 257.114 29.3335 257.092C29.6623 257.069 29.6626 257.073 29.9914 257.05C30.3202 257.027 30.3265 257.119 30.6552 257.096C30.9839 257.074 30.9909 257.176 31.3196 257.153C31.6483 257.13 31.6463 257.102 31.975 257.079C32.3038 257.056 32.2875 256.818 32.6163 256.795C32.9452 256.772 32.9572 256.947 33.2861 256.924C33.6152 256.901 33.603 256.723 33.9321 256.7C34.2614 256.677 34.2713 256.821 34.6007 256.799C34.9299 256.776 34.9467 257.022 35.2759 256.999C35.6049 256.977 35.5809 256.624 35.9099 256.602C36.2388 256.579 36.2523 256.777 36.5812 256.754C36.9101 256.731 36.9112 256.747 37.2401 256.724C37.569 256.701 37.5635 256.621 37.8924 256.598C38.2215 256.575 38.2404 256.851 38.5695 256.828C38.8988 256.805 38.8734 256.434 39.2027 256.411C39.532 256.389 39.5366 256.455 39.8659 256.432C40.195 256.409 40.2153 256.705 40.5444 256.682C40.8735 256.659 40.8634 256.513 41.1925 256.49C41.5215 256.467 41.5122 256.331 41.8412 256.308C42.1704 256.285 42.1654 256.212 42.4946 256.19C42.8224 256.167 42.8369 256.378 43.1647 256.356C43.4927 256.333 43.4767 256.099 43.8046 256.076C44.1328 256.053 44.1519 256.333 44.4801 256.31C44.8086 256.287 44.8088 256.29 45.1374 256.267C45.4664 256.245 45.4535 256.056 45.7826 256.033C46.1123 256.011 46.1085 255.955 46.4382 255.932C46.7673 255.909 46.7794 256.087 47.1086 256.064C47.4373 256.041 47.4197 255.784 47.7484 255.761C48.077 255.738 48.0781 255.754 48.4067 255.732C48.7353 255.709 48.7631 256.116 49.0918 256.093C49.4207 256.07 49.4159 256 49.7448 255.977C50.0741 255.955 50.0576 255.713 50.387 255.69C50.7168 255.668 50.7364 255.954 51.0661 255.931C51.3954 255.909 51.3951 255.905 51.7244 255.882C52.0534 255.859 52.0294 255.508 52.3584 255.486C52.6877 255.463 52.705 255.716 53.0342 255.693C53.3639 255.67 53.3522 255.499 53.682 255.476C54.0116 255.453 54.0101 255.43 54.3397 255.408C54.6691 255.385 54.6727 255.437 55.0021 255.414C55.3317 255.392 55.3435 255.564 55.6731 255.541C56.0031 255.518 56.0017 255.498 56.3317 255.475C56.6613 255.452 56.6522 255.319 56.9818 255.296C57.3119 255.273 57.3151 255.32 57.6451 255.297C57.9749 255.275 57.986 255.437 58.3158 255.414C58.646 255.391 58.6459 255.389 58.976 255.366C59.3052 255.344 59.2798 254.972 59.609 254.949C59.9382 254.927 59.9594 255.236 60.2886 255.214C60.6189 255.191 60.6136 255.112 60.9439 255.09C61.2736 255.067 61.2839 255.217 61.6136 255.194C61.9438 255.171 61.9267 254.92 62.2569 254.897C62.5874 254.874 62.5882 254.885 62.9188 254.863C63.2489 254.84 63.2435 254.762 63.5736 254.739C63.9045 254.716 63.9153 254.874 64.2462 254.851C64.5776 254.828 64.5739 254.774 64.9053 254.751C65.2367 254.728 65.301 254.951 65.6055 254.818C65.9045 254.687 65.5788 254.5 65.5408 254.08C65.5242 253.896 65.4949 253.678 65.4746 253.426C65.4586 253.227 65.4766 253.006 65.4595 252.768C65.4447 252.563 65.3878 252.347 65.373 252.116C65.3596 251.907 65.1583 251.7 65.1456 251.472C65.1337 251.261 65.3929 251.028 65.3819 250.802C65.3716 250.59 65.3622 250.372 65.3531 250.147C65.3444 249.933 65.3271 249.715 65.3198 249.492C65.3128 249.277 65.0942 249.064 65.0887 248.841C65.0834 248.625 65.1696 248.403 65.166 248.181C65.1625 247.964 65.1878 247.745 65.1862 247.524C65.1846 247.307 65.0214 247.087 65.0218 246.866C65.0222 246.649 65.1089 246.429 65.1114 246.208C65.1138 245.99 65.1818 245.771 65.1865 245.55C65.1911 245.332 65.0644 245.108 65.0715 244.887C65.0785 244.668 65.398 244.461 65.4075 244.241C65.417 244.022 65.1328 243.788 65.145 243.568C65.1571 243.349 65.3182 243.138 65.3332 242.919C65.3482 242.699 65.472 242.489 65.4901 242.27C65.5082 242.051 65.4208 241.823 65.4422 241.604C65.4637 241.385 65.4662 241.164 65.4912 240.946C65.5164 240.726 65.6082 240.516 65.6371 240.299C65.6664 240.08 65.8352 239.885 65.8684 239.669C65.902 239.45 65.8677 239.226 65.9056 239.011C65.9442 238.793 65.7742 238.537 65.8174 238.324C65.8616 238.106 66.022 237.916 66.0713 237.704C66.1217 237.488 66.1584 237.271 66.2143 237.061C66.2718 236.847 66.1426 236.577 66.2062 236.371C66.2719 236.157 66.4904 235.994 66.5629 235.791C66.6378 235.58 66.8261 235.421 66.9086 235.222C66.9945 235.016 66.937 234.749 67.0314 234.557C67.1329 234.351 67.253 234.146 67.3773 233.954C67.5013 233.762 67.8068 233.708 67.9523 233.53C68.0961 233.354 68.0714 233.025 68.2349 232.862C68.3952 232.702 68.5301 232.492 68.7082 232.345C68.882 232.201 69.2761 232.346 69.4657 232.213C69.65 232.084 69.7646 231.857 69.9629 231.738C70.1558 231.622 70.3356 231.482 70.5408 231.375C70.7408 231.271 70.9722 231.234 71.1829 231.138C71.3884 231.045 71.5276 230.787 71.7426 230.702C71.9523 230.619 72.147 230.473 72.3649 230.396C72.5785 230.322 72.8791 230.505 73.0998 230.437C73.3163 230.37 73.5301 230.299 73.7528 230.239C73.9651 230.181 74.1363 229.965 74.3491 229.914C74.5631 229.863 74.7555 229.7 74.9697 229.655C75.1852 229.611 75.416 229.627 75.6315 229.589C75.8481 229.552 76.0806 229.604 76.2973 229.573C76.5149 229.542 76.7531 229.696 76.9706 229.672C77.1891 229.648 77.3757 229.277 77.5939 229.26C77.8129 229.243 78.0434 229.346 78.2621 229.336C78.4815 229.326 78.707 229.568 78.9258 229.565C79.1454 229.561 79.3622 229.398 79.5812 229.402C79.8007 229.405 80.0167 229.479 80.2354 229.489C80.4547 229.5 80.6838 229.354 80.9021 229.371C81.1209 229.389 81.3365 229.46 81.5542 229.484C81.7724 229.508 81.9694 229.691 82.1864 229.721C82.4036 229.752 82.6065 229.845 82.8224 229.883C83.0387 229.92 83.2642 229.884 83.4789 229.928C83.6938 229.972 83.8949 230.062 84.1082 230.112C84.3217 230.163 84.5786 230.034 84.7902 230.091C85.0021 230.149 85.2038 230.244 85.4137 230.308C85.6236 230.371 85.851 230.383 86.0589 230.453C86.2669 230.523 86.3759 230.87 86.5816 230.946C86.7873 231.022 86.9867 231.097 87.19 231.179C87.3934 231.262 87.6729 231.153 87.8738 231.241C88.0745 231.33 88.2182 231.539 88.4163 231.633C88.6144 231.728 88.9591 231.524 89.1544 231.625C89.3496 231.725 89.4912 231.936 89.6835 232.042C89.8755 232.148 90.0792 232.239 90.2682 232.351C90.4571 232.463 90.6483 232.577 90.8339 232.695C91.0194 232.812 91.253 232.863 91.4351 232.986C91.6171 233.109 91.6949 233.388 91.8734 233.516C92.0517 233.645 92.1977 233.816 92.3724 233.949C92.5468 234.083 92.7938 234.124 92.9645 234.263C93.1348 234.401 93.3189 234.527 93.4855 234.671C93.6517 234.814 93.6507 235.147 93.813 235.296C93.975 235.444 94.2124 235.508 94.3703 235.661C94.5278 235.814 94.7401 235.912 94.8934 236.07C95.0464 236.228 95.0158 236.558 95.1645 236.72C95.3128 236.882 95.638 236.882 95.7819 237.049C95.9254 237.216 96.2032 237.273 96.3422 237.444C96.4808 237.615 96.4359 237.936 96.5698 238.111C96.7033 238.286 96.8416 238.457 96.9704 238.636C97.0987 238.814 97.1874 239.02 97.3109 239.202C97.434 239.385 97.6122 239.53 97.7304 239.716C97.8481 239.902 97.9437 240.102 98.0564 240.292C98.1687 240.481 98.1089 240.767 98.2161 240.96C98.3228 241.152 98.4684 241.318 98.57 241.515C98.6709 241.709 98.7224 241.935 98.8272 242.133C98.9301 242.326 99.1996 242.433 99.3064 242.63C99.4115 242.823 99.3728 243.099 99.4816 243.294C99.5888 243.486 99.9049 243.561 100.016 243.755C100.125 243.946 100.086 244.226 100.198 244.419C100.31 244.608 100.426 244.798 100.541 244.989C100.654 245.178 101.047 245.196 101.164 245.385C101.279 245.573 101.203 245.882 101.322 246.07C101.439 246.257 101.739 246.325 101.86 246.512C101.979 246.697 101.831 247.061 101.953 247.247C102.075 247.43 102.204 247.612 102.329 247.796C102.453 247.978 102.658 248.107 102.785 248.289C102.911 248.47 103.031 248.656 103.16 248.838C103.288 249.017 103.464 249.163 103.595 249.343C103.725 249.521 103.808 249.735 103.941 249.913C104.073 250.09 104.143 250.316 104.278 250.492C104.412 250.667 104.682 250.737 104.819 250.912C104.955 251.086 105.176 251.191 105.315 251.364C105.453 251.536 105.308 251.943 105.449 252.114C105.589 252.284 105.804 252.395 105.947 252.565C106.089 252.733 106.463 252.7 106.608 252.868C106.752 253.034 106.693 253.381 106.84 253.547C106.986 253.712 107.291 253.732 107.44 253.896C107.588 254.059 107.653 254.299 107.804 254.461C107.954 254.622 108.199 254.692 108.352 254.852C108.504 255.011 108.671 255.155 108.826 255.313C108.98 255.47 108.96 255.803 109.118 255.959C109.274 256.114 109.561 256.135 109.72 256.289C109.878 256.442 109.843 256.803 110.004 256.955C110.164 257.106 110.336 257.248 110.5 257.398C110.662 257.547 110.926 257.585 111.091 257.733C111.255 257.88 111.309 258.156 111.476 258.302C111.642 258.447 111.913 258.471 112.082 258.615C112.25 258.757 112.362 258.969 112.533 259.11C112.703 259.25 112.903 259.357 113.075 259.496C113.247 259.634 113.493 259.679 113.667 259.815C113.841 259.951 113.96 260.159 114.137 260.293C114.312 260.426 114.616 260.385 114.794 260.517C114.971 260.648 114.955 261.05 115.135 261.179C115.314 261.307 115.519 261.404 115.701 261.53C115.881 261.656 116.204 261.574 116.387 261.698C116.57 261.821 116.708 262.013 116.893 262.134C117.077 262.255 117.19 262.489 117.377 262.608C117.563 262.726 117.774 262.807 117.963 262.923C118.15 263.039 118.273 263.268 118.463 263.381C118.652 263.494 118.897 263.518 119.088 263.628C119.279 263.739 119.508 263.783 119.702 263.891C119.894 263.999 120.118 264.049 120.313 264.154C120.507 264.259 120.626 264.508 120.822 264.611C121.017 264.713 121.238 264.768 121.436 264.868C121.633 264.967 121.836 265.057 122.035 265.154C122.233 265.251 122.437 265.337 122.638 265.431C122.837 265.525 122.984 265.737 123.186 265.829C123.387 265.92 123.605 265.976 123.808 266.065C124.01 266.153 124.287 266.065 124.49 266.151C124.693 266.236 124.863 266.401 125.068 266.484C125.272 266.566 125.413 266.814 125.619 266.894C125.824 266.973 126.096 266.88 126.303 266.958C126.509 267.034 126.743 267.033 126.952 267.108C127.158 267.182 127.404 267.142 127.613 267.213C127.821 267.284 127.938 267.631 128.149 267.7C128.357 267.769 128.544 267.917 128.755 267.982C128.965 268.048 129.188 268.083 129.4 268.146C129.61 268.209 129.853 268.171 130.066 268.231C130.277 268.291 130.554 268.113 130.767 268.171C130.98 268.228 131.144 268.472 131.358 268.527C131.571 268.581 131.841 268.403 132.056 268.455C132.27 268.507 132.481 268.564 132.697 268.613C132.911 268.662 133.112 268.766 133.329 268.812C133.544 268.858 133.709 269.151 133.926 269.194C134.142 269.238 134.39 269.121 134.608 269.162C134.823 269.203 135.057 269.139 135.275 269.177C135.491 269.215 135.707 269.246 135.925 269.281C136.142 269.317 136.339 269.476 136.558 269.509C136.775 269.542 136.985 269.626 137.205 269.656C137.422 269.686 137.626 269.838 137.846 269.866C138.064 269.894 138.298 269.803 138.518 269.828C138.737 269.853 138.955 269.887 139.176 269.91C139.395 269.933 139.602 270.098 139.823 270.118C140.042 270.138 140.281 269.931 140.502 269.949C140.721 269.966 140.945 269.914 141.166 269.929C141.385 269.945 141.592 270.163 141.814 270.176C142.034 270.189 142.265 269.996 142.487 270.007C142.706 270.017 142.929 269.923 143.151 269.931C143.371 269.939 143.578 270.402 143.8 270.408C144.02 270.413 144.248 270.146 144.47 270.149C144.692 270.153 144.915 270.026 145.139 270.027C145.359 270.028 145.578 269.971 145.797 269.97C146.018 269.969 146.236 270.012 146.455 270.009C146.676 270.007 146.9 270.266 147.119 270.261C147.34 270.256 147.562 270.279 147.781 270.272C148.001 270.265 148.208 269.919 148.427 269.91C148.648 269.901 148.881 270.209 149.1 270.197C149.321 270.186 149.529 269.978 149.748 269.965C149.968 269.951 150.183 269.878 150.401 269.862C150.621 269.847 150.847 269.93 151.066 269.912C151.285 269.894 151.502 269.852 151.72 269.832C151.94 269.812 152.166 269.872 152.384 269.85C152.603 269.828 152.846 270.029 153.064 270.005C153.284 269.981 153.452 269.521 153.67 269.494C153.889 269.468 154.126 269.605 154.344 269.577C154.562 269.548 154.792 269.612 155.01 269.581C155.228 269.55 155.473 269.702 155.69 269.669C155.908 269.636 156.107 269.473 156.323 269.437C156.541 269.402 156.712 269.094 156.928 269.057C157.145 269.019 157.416 269.289 157.632 269.249C157.848 269.209 158.065 269.164 158.28 269.122C158.496 269.08 158.683 268.886 158.898 268.842C159.114 268.798 159.329 268.755 159.543 268.709C159.759 268.662 159.98 268.646 160.194 268.597C160.409 268.548 160.575 268.294 160.788 268.243C161.003 268.192 161.248 268.277 161.461 268.224C161.674 268.171 161.923 268.256 162.135 268.201C162.348 268.145 162.55 268.046 162.762 267.988C162.974 267.93 163.216 267.977 163.427 267.917C163.639 267.857 163.854 267.805 164.065 267.742C164.277 267.68 164.417 267.378 164.627 267.313C164.838 267.249 165.021 267.098 165.23 267.031C165.44 266.964 165.732 267.154 165.941 267.084C166.151 267.015 166.364 266.955 166.572 266.883C166.781 266.812 166.982 266.717 167.189 266.643C167.397 266.569 167.622 266.542 167.829 266.466C168.036 266.39 168.263 266.364 168.468 266.286C168.674 266.207 168.886 266.137 169.09 266.057C169.296 265.977 169.368 265.558 169.572 265.476C169.777 265.393 170.009 265.383 170.211 265.298C170.415 265.213 170.582 265.045 170.784 264.959C170.987 264.871 171.176 264.759 171.377 264.67C171.579 264.581 171.796 264.532 171.996 264.441C172.197 264.35 172.49 264.464 172.689 264.37C172.889 264.277 173.075 264.152 173.273 264.057C173.471 263.961 173.617 263.756 173.814 263.659C174.012 263.561 174.154 263.355 174.349 263.255C174.546 263.155 174.909 263.384 175.104 263.282C175.3 263.18 175.485 263.056 175.679 262.952C175.874 262.848 175.964 262.551 176.157 262.445C176.35 262.339 176.682 262.483 176.873 262.375C177.065 262.267 177.076 261.836 177.266 261.726C177.457 261.616 177.667 261.542 177.856 261.43C178.046 261.317 178.239 261.214 178.427 261.1C178.616 260.986 178.878 260.994 179.065 260.878C179.252 260.762 179.316 260.447 179.501 260.329C179.687 260.211 179.912 260.158 180.097 260.038C180.282 259.918 180.604 260.01 180.787 259.888C180.971 259.766 181.041 259.472 181.223 259.349C181.405 259.225 181.551 259.049 181.731 258.924C181.912 258.798 182.183 258.803 182.363 258.676C182.543 258.548 182.629 258.29 182.807 258.161C182.985 258.031 183.26 258.035 183.436 257.904C183.614 257.773 183.78 257.627 183.956 257.495C184.131 257.362 184.157 257.031 184.331 256.897C184.505 256.762 184.81 256.798 184.982 256.662C185.156 256.525 185.232 256.268 185.403 256.13C185.575 255.991 185.919 256.068 186.089 255.929C186.26 255.789 186.273 255.457 186.441 255.316C186.61 255.174 186.773 255.028 186.94 254.885C187.108 254.742 187.354 254.692 187.52 254.547C187.686 254.402 187.883 254.293 188.047 254.147C188.212 254 188.275 253.74 188.438 253.592C188.601 253.444 188.862 253.403 189.023 253.254C189.185 253.104 189.203 252.8 189.363 252.649C189.523 252.498 189.849 252.523 190.007 252.37C190.166 252.217 190.146 251.879 190.303 251.725C190.461 251.571 190.644 251.445 190.8 251.29C190.956 251.134 191.345 251.212 191.499 251.055C191.654 250.898 191.731 250.663 191.883 250.505C192.037 250.345 192.151 250.149 192.302 249.989C192.453 249.828 192.637 249.699 192.787 249.537C192.937 249.375 193.147 249.267 193.295 249.104C193.444 248.941 193.519 248.708 193.665 248.544C193.813 248.379 194.032 248.278 194.177 248.112C194.323 247.946 194.25 247.587 194.394 247.42C194.538 247.253 194.865 247.243 195.007 247.075C195.15 246.906 195.294 246.737 195.434 246.568C195.576 246.397 195.509 246.055 195.648 245.884C195.787 245.712 196.168 245.738 196.305 245.566C196.443 245.393 196.589 245.225 196.725 245.052C196.861 244.877 197.014 244.714 197.148 244.54C197.283 244.364 197.357 244.141 197.489 243.965C197.622 243.788 197.662 243.541 197.792 243.364C197.924 243.186 198.034 242.993 198.163 242.815C198.293 242.635 198.373 242.422 198.501 242.242C198.629 242.062 198.852 241.951 198.978 241.77C199.105 241.588 199.296 241.452 199.42 241.27C199.545 241.088 199.516 240.8 199.638 240.618C199.761 240.434 200.09 240.388 200.211 240.205C200.332 240.019 200.15 239.636 200.269 239.451C200.389 239.265 200.607 239.144 200.724 238.959C200.842 238.771 201.161 238.711 201.276 238.524C201.392 238.335 201.37 238.061 201.483 237.873C201.598 237.684 201.721 237.501 201.833 237.312C201.946 237.121 201.992 236.893 202.102 236.703C202.213 236.511 202.541 236.445 202.649 236.255C202.758 236.062 202.691 235.77 202.797 235.578C202.904 235.384 203.129 235.256 203.234 235.063C203.339 234.868 203.535 234.721 203.637 234.527C203.74 234.331 203.593 234.003 203.693 233.808C203.795 233.61 203.747 233.34 203.845 233.144C203.945 232.944 204.215 232.834 204.312 232.636C204.41 232.436 204.695 232.328 204.789 232.13C204.885 231.929 204.658 231.576 204.75 231.377C204.843 231.175 205.138 231.068 205.228 230.868C205.319 230.665 205.312 230.42 205.399 230.219C205.488 230.015 205.522 229.791 205.607 229.589C205.693 229.384 205.835 229.206 205.918 229.003C206.002 228.797 206.266 228.666 206.346 228.462C206.427 228.255 206.58 228.076 206.657 227.872C206.736 227.663 206.488 227.334 206.562 227.129C206.638 226.919 206.617 226.679 206.688 226.473C206.761 226.262 206.957 226.099 207.026 225.892C207.096 225.679 207.283 225.508 207.348 225.3C207.415 225.087 207.258 224.809 207.319 224.6C207.382 224.386 207.495 224.192 207.553 223.983C207.612 223.767 207.95 223.629 208.004 223.419C208.06 223.202 207.888 222.931 207.937 222.72C207.988 222.502 208.136 222.31 208.181 222.098C208.227 221.878 208.142 221.637 208.182 221.425C208.222 221.204 208.512 221.031 208.545 220.818C208.58 220.596 208.524 220.17 208.55 219.958C208.235 219.853 208.157 219.916 207.826 219.916C207.494 219.916 207.494 220.254 207.162 220.254C206.83 220.254 206.83 220.166 206.498 220.166C206.166 220.166 206.166 220.14 205.834 220.14C205.502 220.14 205.502 220.085 205.17 220.085C204.838 220.085 204.838 220.092 204.506 220.092C204.174 220.092 204.174 220.088 203.841 220.088C203.509 220.088 203.509 219.915 203.176 219.915C202.843 219.915 202.843 220.185 202.511 220.185C202.178 220.185 202.178 219.978 201.846 219.978C201.514 219.978 201.514 219.931 201.182 219.931C200.849 219.931 200.849 220.209 200.517 220.209C200.185 220.209 200.185 220.323 199.853 220.323C199.521 220.323 199.521 220.063 199.189 220.063C198.857 220.063 198.857 220.291 198.525 220.291C198.192 220.291 198.192 219.916 197.86 219.916C197.528 219.916 197.527 219.995 197.195 219.995C196.862 219.995 196.862 220.336 196.529 220.336C196.197 220.336 196.197 220.004 195.864 220.004C195.532 220.004 195.532 220.038 195.199 220.038C194.867 220.038 194.867 220.071 194.535 220.071C194.203 220.071 194.203 220.291 193.87 220.291C193.538 220.291 193.538 220.027 193.206 220.027C192.873 220.027 192.873 220.088 192.541 220.088C192.208 220.088 192.208 219.985 191.875 219.985C191.543 219.985 191.543 220.263 191.21 220.263C190.877 220.263 190.877 220.035 190.545 220.035C190.212 220.035 190.212 220.344 189.88 220.344C189.547 220.344 189.547 219.959 189.215 219.959C188.882 219.959 188.882 220.135 188.55 220.135C188.219 220.135 188.219 219.949 187.887 219.949C187.556 219.949 187.556 220.196 187.225 220.196C186.893 220.196 186.893 220.302 186.562 220.302C186.23 220.302 186.23 220.095 185.898 220.095C185.565 220.095 185.565 219.98 185.233 219.98C184.9 219.98 184.9 220.181 184.567 220.181C184.234 220.181 184.234 220.224 183.902 220.224C183.569 220.224 183.569 220.056 183.237 220.056C182.905 220.056 182.905 220.336 182.573 220.336C182.241 220.336 182.241 220.248 181.909 220.248C181.577 220.248 181.577 220.229 181.245 220.229C180.912 220.229 180.912 220.121 180.579 220.121C180.246 220.121 180.246 220.145 179.913 220.145C179.58 220.145 179.58 220.013 179.248 220.013C178.915 220.013 178.915 220.356 178.583 220.356C178.25 220.356 178.25 220.082 177.918 220.082C177.584 220.082 177.584 220.015 177.251 220.015C176.918 220.015 176.918 220.012 176.585 220.012C176.252 220.012 176.252 220.176 175.92 220.176C175.586 220.176 175.586 220.344 175.253 220.344C174.92 220.344 174.92 220.365 174.587 220.365C174.254 220.365 174.254 219.994 173.921 219.994C173.587 219.994 173.587 220.207 173.254 220.207C172.921 220.207 172.921 219.945 172.587 219.945C172.254 219.945 172.254 219.955 171.92 219.955C171.588 219.955 171.588 220.214 171.255 220.214C170.922 220.214 170.922 220.041 170.59 220.041C170.256 220.041 170.256 220.073 169.922 220.073C169.589 220.073 169.589 220.163 169.256 220.163C168.922 220.163 168.922 219.912 168.589 219.912C168.255 219.912 168.255 220.22 167.921 220.22C167.587 220.22 167.587 219.972 167.254 219.972C166.92 219.972 166.92 219.995 166.585 219.995C166.25 219.995 166.25 220.318 165.916 220.318C165.581 220.318 165.581 219.929 165.246 219.929C165.246 219.929 165.223 220.121 165.223 220.121C165.078 220.278 165.092 220.615 164.926 220.771C164.77 220.918 164.596 221.074 164.422 221.219C164.257 221.357 164.056 221.475 163.875 221.61C163.702 221.74 163.308 221.564 163.122 221.691C162.943 221.813 162.916 222.173 162.726 222.292C162.542 222.408 162.377 222.571 162.184 222.683C161.995 222.792 161.666 222.652 161.469 222.758C161.277 222.861 161.145 223.084 160.946 223.183C160.751 223.28 160.533 223.334 160.331 223.428C160.133 223.52 159.902 223.536 159.698 223.624C159.497 223.71 159.402 224.062 159.196 224.144C158.992 224.226 158.726 224.153 158.518 224.229C158.312 224.305 158.126 224.444 157.917 224.515C157.708 224.585 157.41 224.37 157.199 224.436C156.989 224.501 156.799 224.621 156.587 224.681C156.375 224.74 156.207 224.964 155.994 225.018C155.78 225.072 155.531 224.968 155.316 225.016C155.101 225.064 154.928 225.314 154.712 225.355C154.495 225.397 154.276 225.436 154.059 225.471C153.841 225.507 153.629 225.606 153.411 225.634C153.192 225.663 152.936 225.351 152.717 225.373C152.497 225.394 152.3 225.67 152.081 225.684C151.86 225.698 151.632 225.467 151.413 225.472C151.191 225.478 150.975 225.718 150.756 225.715C150.534 225.713 150.313 225.679 150.094 225.667C149.873 225.655 149.676 225.393 149.458 225.371C149.237 225.349 148.974 225.691 148.758 225.658C148.539 225.625 148.342 225.446 148.128 225.401C147.911 225.356 147.72 225.215 147.509 225.158C147.294 225.1 147.121 224.941 146.914 224.871C146.704 224.799 146.488 224.778 146.286 224.693C146.082 224.606 145.875 224.549 145.679 224.448C145.483 224.347 145.202 224.398 145.015 224.282C144.827 224.165 144.749 223.888 144.572 223.756C144.396 223.624 144.108 223.628 143.944 223.48C143.78 223.333 143.644 223.148 143.492 222.985C143.344 222.824 143.105 222.724 142.969 222.547C142.836 222.374 142.781 222.128 142.661 221.939C142.544 221.755 142.333 221.61 142.229 221.41C142.128 221.218 142.214 220.925 142.126 220.718C142.041 220.518 141.791 220.371 141.719 220.157C141.649 219.952 141.925 219.637 141.867 219.418C141.812 219.209 141.596 219.039 141.553 218.817C141.51 218.604 141.248 218.418 141.217 218.193C141.187 217.977 141.244 217.738 141.224 217.512C141.205 217.301 141.48 217.053 141.458 216.822C141.438 216.609 141.031 216.425 141.009 216.196C140.988 215.981 141.066 215.751 141.043 215.523C141.021 215.308 141.093 215.077 141.07 214.85C141.047 214.634 141.269 214.386 141.245 214.16C141.222 213.943 140.912 213.753 140.888 213.527C140.864 213.31 140.819 213.091 140.794 212.866C140.77 212.648 140.83 212.417 140.805 212.193C140.78 211.974 140.73 211.756 140.705 211.532C140.681 211.313 140.82 211.072 140.794 210.849C140.77 210.629 140.497 210.437 140.471 210.213C140.446 209.994 140.356 209.78 140.33 209.557C140.305 209.338 140.429 209.1 140.403 208.877C140.377 208.658 140.351 208.437 140.325 208.215C140.299 207.996 140.46 207.752 140.433 207.53C140.407 207.31 140.055 207.129 140.028 206.907C140.002 206.687 140.177 206.441 140.151 206.219C140.124 205.999 139.922 205.799 139.895 205.577C139.869 205.356 139.932 205.124 139.906 204.902C139.879 204.682 140.107 204.43 140.08 204.209C140.053 203.988 139.785 203.797 139.758 203.576C139.731 203.355 139.526 203.156 139.499 202.934C139.472 202.713 139.697 202.46 139.67 202.239C139.643 202.017 139.796 201.773 139.769 201.551C139.741 201.329 139.516 201.132 139.488 200.911C139.461 200.689 139.544 200.452 139.517 200.231C139.489 200.008 139.303 199.806 139.276 199.584C139.248 199.362 139.054 199.16 139.027 198.939C138.999 198.716 139.166 198.469 139.138 198.247C139.11 198.024 138.928 197.821 138.9 197.6C138.872 197.377 138.996 197.136 138.968 196.916C138.94 196.693 138.834 196.482 138.806 196.262C138.778 196.039 139.002 195.786 138.974 195.566C138.946 195.343 138.6 195.162 138.572 194.942C138.544 194.719 138.53 194.496 138.502 194.277C138.473 194.053 138.449 193.831 138.421 193.612C138.392 193.388 138.711 193.122 138.683 192.902C138.655 192.679 138.553 192.467 138.525 192.247C138.496 192.023 138.493 191.798 138.464 191.58C138.436 191.355 138.315 191.146 138.286 190.927C138.257 190.702 138.071 190.501 138.043 190.283C138.014 190.058 137.855 189.854 137.826 189.636C137.797 189.411 138.164 189.138 138.136 188.921C138.107 188.695 138.054 188.477 138.026 188.261C137.996 188.034 137.779 187.837 137.751 187.622C137.721 187.393 137.901 187.144 137.873 186.929C137.843 186.699 137.789 186.48 137.761 186.267C137.731 186.035 137.451 185.847 137.423 185.637C137.392 185.402 137.286 185.191 137.259 184.984C137.227 184.744 137.153 184.529 137.127 184.329C137.094 184.074 137.455 183.8 137.431 183.615C137.374 183.188 137.477 183.084 137.161 182.984Z" fill="#E40524"/>
<path d="M61.9604 254.037C61.9604 254.037 71.4972 271.165 60.7174 270.931C49.9377 270.696 0.00675451 270.999 0.00675451 270.999C0.00675451 270.999 -0.790233 263.253 14.9303 263.426C33.0899 263.627 35.5228 254.762 35.5228 254.762L61.9604 254.037Z" fill="#ED6FA7"/>
<path d="M167.813 219.997C167.813 219.997 158.245 204.822 169.027 204.774C179.809 204.725 229.747 202.152 229.747 202.152C229.747 202.152 233.152 210.855 214.993 211.074C196.833 211.294 193.748 219.997 193.748 219.997H167.813Z" fill="#ED6FA7"/>
<path d="M11.1743 262.612C11.1684 262.84 11.3302 263.072 11.2935 263.291C11.2558 263.515 11.2673 263.759 11.1996 263.97C11.1308 264.186 10.8373 264.307 10.7398 264.507C10.6413 264.71 10.5508 264.897 10.4256 265.082C10.2996 265.268 10.342 265.589 10.1917 265.754C10.0411 265.92 9.75432 265.949 9.58194 266.091C9.4099 266.234 9.20669 266.313 9.01558 266.43C8.82563 266.546 8.66868 266.706 8.46248 266.794C8.25859 266.881 8.06552 266.998 7.84826 267.056C7.63466 267.113 7.40665 267.084 7.18254 267.111C6.96384 267.136 6.74441 267.379 6.51794 267.373C6.29144 267.367 6.05444 267.294 5.83733 267.257C5.61486 267.219 5.47249 266.879 5.26212 266.811C5.04803 266.741 4.79883 266.803 4.59964 266.705C4.3983 266.606 4.15947 266.568 3.97579 266.442C3.79099 266.315 3.7185 266.05 3.55407 265.899C3.38934 265.747 3.27002 265.575 3.12824 265.401C2.98674 265.228 2.59745 265.226 2.48132 265.034C2.3659 264.843 2.59468 264.472 2.50679 264.265C2.41988 264.06 2.21463 263.911 2.15704 263.692C2.10042 263.477 2.12845 263.255 2.10245 263.029C2.07707 262.809 2.16737 262.604 2.17327 262.376C2.17918 262.148 2.06384 261.931 2.10058 261.713C2.13823 261.489 1.91388 261.192 1.98156 260.981C2.05044 260.765 2.24615 260.578 2.34364 260.377C2.44218 260.175 2.49056 259.919 2.61575 259.734C2.74171 259.548 2.94767 259.398 3.09798 259.233C3.24857 259.067 3.552 259.059 3.72438 258.916C3.89642 258.774 4.08038 258.671 4.27149 258.554C4.46144 258.437 4.63886 258.325 4.84506 258.236C5.04896 258.149 5.25927 258.125 5.47653 258.067C5.69013 258.01 5.85023 257.626 6.07435 257.6C6.29304 257.574 6.54019 257.764 6.76666 257.77C6.99316 257.776 7.21782 257.79 7.43493 257.827C7.6574 257.864 7.8749 257.924 8.08528 257.992C8.29936 258.061 8.47339 258.217 8.67259 258.315C8.87393 258.414 9.12828 258.419 9.31197 258.546C9.49677 258.672 9.49208 259.022 9.65651 259.173C9.82124 259.325 10.2642 259.208 10.406 259.381C10.5475 259.555 10.454 259.905 10.5701 260.097C10.6855 260.288 10.7314 260.497 10.8193 260.705C10.9062 260.91 10.9871 261.098 11.0447 261.317C11.1013 261.532 11.4182 261.701 11.4442 261.926C11.4696 262.147 11.1802 262.384 11.1743 262.612Z" fill="#E40524"/>
<path d="M225.95 212.783C225.95 213.011 225.552 213.212 225.521 213.432C225.489 213.657 225.584 213.894 225.522 214.108C225.459 214.325 225.347 214.517 225.255 214.72C225.162 214.926 225.223 215.223 225.103 215.411C224.982 215.6 224.684 215.664 224.538 215.834C224.392 216.003 224.313 216.241 224.145 216.389C223.976 216.536 223.729 216.577 223.541 216.699C223.354 216.82 223.1 216.779 222.896 216.872C222.695 216.965 222.544 217.131 222.328 217.195C222.116 217.257 221.921 217.347 221.698 217.379C221.48 217.41 221.268 217.717 221.041 217.717C220.815 217.717 220.601 217.423 220.383 217.392C220.159 217.36 219.946 217.327 219.733 217.265C219.518 217.201 219.281 217.198 219.08 217.105C218.876 217.011 218.629 216.974 218.442 216.853C218.254 216.731 218.252 216.366 218.083 216.219C217.915 216.072 217.786 215.919 217.64 215.749C217.494 215.58 217.328 215.452 217.207 215.263C217.087 215.075 217.049 214.866 216.956 214.661C216.864 214.458 216.416 214.386 216.353 214.169C216.291 213.955 216.556 213.662 216.524 213.437C216.493 213.218 216.454 213.011 216.454 212.783C216.454 212.555 216.202 212.307 216.233 212.087C216.265 211.862 216.545 211.686 216.607 211.472C216.671 211.255 216.696 211.031 216.788 210.828C216.881 210.622 216.817 210.316 216.938 210.128C217.059 209.939 217.466 209.961 217.612 209.792C217.758 209.622 217.762 209.316 217.93 209.169C218.099 209.022 218.417 209.088 218.605 208.966C218.792 208.845 218.826 208.444 219.03 208.35C219.232 208.257 219.442 208.103 219.657 208.039C219.869 207.977 220.167 208.264 220.391 208.232C220.609 208.201 220.815 207.944 221.041 207.944C221.268 207.944 221.471 208.217 221.689 208.248C221.913 208.28 222.1 208.365 222.312 208.428C222.528 208.491 222.792 208.387 222.994 208.48C223.198 208.574 223.434 208.622 223.621 208.744C223.809 208.865 223.939 209.075 224.107 209.222C224.275 209.369 224.54 209.434 224.686 209.604C224.832 209.773 224.828 210.066 224.949 210.256C225.069 210.444 225.296 210.579 225.389 210.784C225.481 210.987 225.38 211.265 225.443 211.482C225.506 211.695 225.682 211.882 225.714 212.107C225.745 212.326 225.95 212.555 225.95 212.783Z" fill="#E40524"/>
<path d="M106.258 100.578L98.1453 97.5897L71.3047 136.551L75.8282 188.613H137.879L128.406 111.088L106.258 100.578Z" fill="#ED6FA7"/>
<path d="M114.906 112.706H32.274C30.6513 112.706 30.3241 111.087 30.9018 109.561C31.4564 108.095 32.9402 106.649 32.8923 104.77C32.7704 99.9848 28.1105 102.241 28.1105 102.241C28.1105 102.241 26.4928 94.6972 25.7748 90.6996C25.2654 87.8632 19.4716 88.7301 20.7034 92.8688C20.7034 92.8688 19.8182 90.0781 17.0148 90.5689C14.2114 91.0597 14.609 95.568 14.609 95.568C14.609 95.568 13.2052 92.843 11.0889 94.8824C9.98006 95.9509 10.5867 103 10.5867 103C10.5867 103 7.53947 101.457 6.93002 105.26C6.32058 109.064 2.78581 131.884 12.2931 132.252C19.5559 132.533 83.8952 137.508 113.869 139.841C121.965 140.471 128.774 133.816 128.39 125.652C128.05 118.405 122.114 112.706 114.906 112.706Z" fill="#F7C400"/>
<path d="M11.0898 103.764L12.0212 117.357" stroke="#E30518" stroke-miterlimit="10" stroke-linecap="round"/>
<path d="M11.0884 107.711C10.099 107.711 9.29688 106.904 9.29688 105.908C9.29688 104.912 10.099 104.105 11.0884 104.105" stroke="#E30518" stroke-miterlimit="10" stroke-linecap="round"/>
<path d="M14.5547 95.4437L16.6746 111.088" stroke="#E30518" stroke-miterlimit="10" stroke-linecap="round"/>
<path d="M15.0922 99.3912C13.3381 99.6117 12.7656 98.5838 12.7656 97.5879C12.7656 96.592 13.5677 95.7846 14.5571 95.7846" stroke="#E30518" stroke-miterlimit="10" stroke-linecap="round"/>
<path d="M20.6758 92.627L22.5388 108.53" stroke="#E30518" stroke-miterlimit="10" stroke-linecap="round"/>
<path d="M21.097 96.7237C19.9731 96.934 18.8926 96.1874 18.6837 95.0562C18.4747 93.9249 19.2164 92.8373 20.3403 92.627" stroke="#E30518" stroke-miterlimit="10" stroke-linecap="round"/>
<path d="M25.6177 90.9376C24.4938 91.1479 23.7521 92.2355 23.961 93.3668C24.17 94.4981 25.2505 95.2446 26.3744 95.0343" stroke="#E30518" stroke-miterlimit="10" stroke-linecap="round"/>
<path d="M31.949 107.374C30.8619 107.157 30.1553 106.094 30.3707 105C30.5861 103.906 31.6419 103.195 32.7289 103.411" stroke="#E30518" stroke-miterlimit="10" stroke-linecap="round"/>
<path d="M28.1074 102.241L26.9414 107.713" stroke="#E30518" stroke-miterlimit="10" stroke-linecap="round"/>
<path d="M68.2871 74.0605C67.9196 74.308 67.5354 74.6201 67.1363 75.0092C67.1363 75.0092 65.1609 73.3231 63.2479 75.0092C62.2549 76.1058 62.004 76.5268 62.004 76.5268C62.004 76.5268 60.0802 75.2639 58.6582 76.5268C57.2363 77.7897 53.3129 87.5278 52.9704 89.0716C52.4686 91.3338 55.9816 93.3655 57.8218 89.5768C57.8218 89.5768 57.0487 91.6704 58.9572 92.3802C60.34 92.8945 61.915 92.3295 62.7365 91.0973C63.0781 90.5848 63.2479 90.1429 63.2479 90.1429C63.2479 90.1429 64.2071 91.8172 66.5029 90.9373C68.5403 90.1564 70.9574 81.6079 72.2764 76.9689C72.9499 74.5999 70.3218 72.6904 68.2871 74.0605Z" fill="#F7C400"/>
<path d="M61.417 78.0242L57.8203 89.5743" stroke="#E30518" stroke-miterlimit="10" stroke-linecap="round"/>
<path d="M66.8311 78.0242L63.2344 89.5743" stroke="#E30518" stroke-miterlimit="10" stroke-linecap="round"/>
<path d="M65.3633 89.5767C66.1745 89.5767 66.8321 88.9148 66.8321 88.0982C66.8321 87.2817 66.1745 86.6198 65.3633 86.6198C64.5521 86.6198 63.8945 87.2817 63.8945 88.0982C63.8945 88.9148 64.5521 89.5767 65.3633 89.5767Z" stroke="#E30518" stroke-miterlimit="10" stroke-linecap="round"/>
<path d="M59.7266 90.8093C60.5378 90.8093 61.1954 90.1474 61.1954 89.3309C61.1954 88.5143 60.5378 87.8524 59.7266 87.8524C58.9154 87.8524 58.2578 88.5143 58.2578 89.3309C58.2578 90.1474 58.9154 90.8093 59.7266 90.8093Z" stroke="#E30518" stroke-miterlimit="10" stroke-linecap="round"/>
<path d="M54.7696 90.0189C55.5807 90.0189 56.2383 89.357 56.2383 88.5405C56.2383 87.724 55.5807 87.0621 54.7696 87.0621C53.9584 87.0621 53.3008 87.724 53.3008 88.5405C53.3008 89.357 53.9584 90.0189 54.7696 90.0189Z" stroke="#E30518" stroke-miterlimit="10" stroke-linecap="round"/>
<path d="M80.7708 90.3469C81.7524 86.2171 79.6558 81.9719 75.7936 80.2637C74.9907 79.9085 74.3078 79.5292 73.7961 79.3729C69.8888 78.1798 66.856 83.3449 71.302 87.8535L55.1445 101.893V122.706H82.905L99.6046 97.6048C99.6046 97.6048 96.5683 94.6067 90.821 96.7589C85.0737 98.9111 76.7239 107.373 76.7239 107.373L80.7708 90.3469Z" fill="#F7C400"/>
<path d="M73.4063 85.5426C74.7438 85.5426 75.8282 84.4512 75.8282 83.1048C75.8282 81.7584 74.7438 80.667 73.4063 80.667C72.0687 80.667 70.9844 81.7584 70.9844 83.1048C70.9844 84.4512 72.0687 85.5426 73.4063 85.5426Z" stroke="#E30518" stroke-miterlimit="10" stroke-linecap="round"/>
<path d="M71.3047 87.8524L73.4063 90.3978" stroke="#E30518" stroke-miterlimit="10" stroke-linecap="round"/>
<path d="M55.1445 112.693H89.3016" stroke="#E30518" stroke-miterlimit="10" stroke-linecap="round"/>
<path d="M135.802 76.5541C135.378 76.2065 135.381 76.2212 134.908 75.9432C134.436 75.6651 134.45 75.6405 133.978 75.3623C133.504 75.0837 133.48 75.1252 133.007 74.8466C132.534 74.568 132.579 74.4904 132.106 74.2118C131.633 73.9335 131.694 73.8276 131.221 73.5493C130.748 73.2708 130.773 73.2284 130.3 72.9499C129.826 72.6711 129.733 72.8305 129.26 72.5517C128.787 72.2732 128.724 72.3807 128.251 72.1022C127.777 71.8233 127.872 71.6601 127.398 71.3813C126.925 71.1026 126.852 71.2276 126.379 70.9489C125.905 70.67 125.853 70.7601 125.379 70.4812C124.905 70.2024 124.89 70.2287 124.416 69.9499C123.942 69.671 123.931 69.6901 123.457 69.4112C122.984 69.1323 123.067 68.9882 122.593 68.7093C122.278 68.5236 121.963 68.338 121.647 68.1525C121.174 67.8737 121.182 67.8587 120.708 67.5799C120.234 67.3008 120.19 67.3769 119.716 67.0977C119.242 66.8186 119.382 66.577 118.908 66.2979C118.433 66.0186 118.324 66.2057 117.85 65.9264C117.375 65.6467 117.344 65.7003 116.869 65.4206C116.393 65.1409 116.42 65.1122 116.073 64.6824C115.725 64.2522 116.122 64.3401 116.627 63.853C116.85 63.6377 117.189 63.4538 117.528 63.1997C117.795 63 118.22 62.9937 118.565 62.7891C118.859 62.6143 119.14 62.3947 119.494 62.2276C119.808 62.0799 120.156 62.0006 120.52 61.8666C120.848 61.7456 121.16 61.5578 121.53 61.4536C121.869 61.3584 122.174 61.0672 122.549 60.9902C122.895 60.9192 123.302 61.1498 123.68 61.0976C124.03 61.0493 124.382 61.01 124.761 60.9804C125.115 60.9527 125.459 60.5103 125.839 60.5011C126.195 60.4925 126.572 60.494 126.951 60.5034C127.307 60.5122 127.676 60.6296 128.053 60.6559C128.409 60.6806 128.767 60.8217 129.142 60.8632C129.498 60.9026 129.866 60.9198 130.239 60.9752C130.593 61.0277 130.948 61.1298 131.318 61.1977C131.67 61.2625 132.076 61.1189 132.444 61.1985C132.795 61.2745 133.143 61.4242 133.509 61.5144C133.857 61.6007 134.127 62.0215 134.489 62.1212C134.837 62.2172 135.198 62.2783 135.558 62.3873C135.904 62.4921 136.243 62.6327 136.6 62.75C136.953 62.866 137.306 62.9396 137.641 63.066C137.989 63.1972 138.437 63.0607 138.766 63.2025C139.107 63.3497 139.402 63.5941 139.724 63.752C140.057 63.916 140.467 63.9341 140.78 64.109C141.104 64.2904 141.276 64.7266 141.578 64.9191C141.891 65.1185 142.16 65.3633 142.45 65.5738C142.75 65.7916 143.213 65.7906 143.489 66.0193C143.775 66.2557 144.002 66.5643 144.263 66.8113C144.532 67.066 144.782 67.3406 145.026 67.6055C145.277 67.8779 145.557 68.1284 145.782 68.4102C146.013 68.6992 145.968 69.1872 146.172 69.4848C146.381 69.7892 146.633 70.0482 146.816 70.3602C147.003 70.6784 147.311 70.923 147.472 71.2476C147.636 71.5781 147.596 71.9936 147.734 72.3292C147.874 72.6701 148.379 72.8729 148.494 73.2175C148.611 73.567 148.602 73.9639 148.695 74.3154C148.788 74.6718 148.931 75.0235 149.001 75.38C149.073 75.7419 149.056 76.124 149.105 76.4842C149.154 76.8501 148.964 77.2372 148.991 77.5992C149.019 77.9679 149.389 78.3194 149.395 78.682C149.402 79.0521 149.074 79.4183 149.06 79.7799C149.046 80.1511 148.983 80.5074 148.95 80.8671C148.916 81.2378 149.035 81.6177 148.982 81.9736C148.928 82.3434 148.856 82.7037 148.784 83.0545C148.708 83.4225 148.697 83.7996 148.605 84.1434C148.507 84.5089 148.49 84.8962 148.376 85.2302C148.253 85.5929 148.064 85.9258 147.927 86.2462C147.774 86.6038 147.527 86.8991 147.362 87.197C147.167 87.5475 146.775 87.7073 146.574 87.9641C146.311 88.2982 146.158 88.5256 145.839 88.608C145.508 88.6936 145.218 88.6464 144.842 88.5047C144.538 88.3902 144.113 88.4136 143.789 88.1775C143.517 87.9793 143.213 87.7476 142.933 87.4793C142.683 87.241 142.379 87.0107 142.126 86.7277C141.892 86.4657 141.93 85.9525 141.696 85.6605C141.474 85.3827 140.968 85.3136 140.748 85.0157C140.535 84.7265 140.647 84.1956 140.438 83.8938C140.232 83.5953 139.836 83.4258 139.637 83.1211C139.436 82.8147 139.315 82.4576 139.124 82.151C138.928 81.8377 138.781 81.5003 138.596 81.1932C138.404 80.8734 138.117 80.6209 137.939 80.3151C137.749 79.9865 137.616 79.641 137.446 79.3375C137.255 78.9978 137.004 78.7184 136.844 78.4224C136.648 78.0602 136.478 77.7337 136.334 77.4587C136.017 76.8539 136.223 76.8986 135.802 76.5541Z" fill="#010101"/>
<path d="M115.974 64.7587C115.974 64.7587 111.889 68.2163 110.969 70.5572C110.542 71.6457 109.765 72.6404 108.736 73.1859C107.522 73.8299 106.05 73.6315 104.707 73.9157C102.94 74.2894 101.386 75.5691 100.673 77.2389C99.9601 78.9086 100.106 80.9235 101.052 82.4714C101.491 83.1894 102.112 83.8783 102.113 84.7213C102.114 85.4341 101.666 86.0545 101.299 86.6637C99.5098 89.6297 98.0835 94.1204 98.1424 97.5897C98.2055 101.307 100.471 102.66 100.471 102.66L125.098 110.667C125.098 110.667 128.446 103.459 132.784 101.165C134.424 100.298 136.259 99.8786 137.958 99.1372C140.933 97.8397 143.462 95.5306 145.033 92.6763C146.794 89.4779 147.316 85.5123 146.019 82.0966C144.721 78.6808 141.478 75.9821 137.852 75.7554C137.441 75.7297 137.001 75.7262 136.658 75.4953L115.974 64.7587Z" fill="#F7C400"/>
<path d="M138.397 79.7933C138.397 79.7933 144.29 83.0488 143.148 88.1751C141.685 94.7408 134.641 96.8359 134.641 96.8359" stroke="#E30518" stroke-miterlimit="10" stroke-linecap="round"/>
<path d="M104.125 82.4406C104.458 82.4406 104.727 82.1693 104.727 81.8348C104.727 81.5002 104.458 81.2289 104.125 81.2289C103.793 81.2289 103.523 81.5002 103.523 81.8348C103.523 82.1693 103.793 82.4406 104.125 82.4406Z" fill="#E40524"/>
<path d="M102.492 81.904C102.825 81.904 103.094 81.6328 103.094 81.2982C103.094 80.9636 102.825 80.6924 102.492 80.6924C102.16 80.6924 101.891 80.9636 101.891 81.2982C101.891 81.6328 102.16 81.904 102.492 81.904Z" fill="#E40524"/>
<path d="M108.895 86.6024L100.789 86.5796" stroke="#E30518" stroke-miterlimit="10" stroke-linecap="round"/>
<path d="M141.985 96.3418C142.534 96.2458 142.207 96.879 142.721 97.3789C142.947 97.5981 143.313 97.7586 143.612 98.0666C143.85 98.3107 144.088 98.6004 144.363 98.8977C144.601 99.1554 144.833 99.4488 145.095 99.745C145.332 100.013 145.473 100.382 145.724 100.68C145.957 100.956 146.263 101.184 146.506 101.485C146.734 101.768 146.982 102.047 147.216 102.351C147.439 102.64 147.573 103.003 147.799 103.311C148.016 103.606 148.52 103.701 148.738 104.013C148.949 104.314 148.856 104.832 149.067 105.148C149.271 105.455 149.842 105.528 150.044 105.848C150.241 106.161 150.333 106.549 150.527 106.874C150.717 107.192 150.771 107.595 150.956 107.925C151.138 108.248 151.262 108.605 151.439 108.939C151.612 109.267 151.992 109.493 152.159 109.831C152.323 110.165 152.492 110.504 152.649 110.847C152.804 111.185 152.837 111.583 152.983 111.931C153.128 112.274 153.45 112.551 153.586 112.902C153.72 113.25 153.805 113.624 153.93 113.98C154.053 114.332 154.202 114.683 154.314 115.042C154.425 115.399 154.436 115.791 154.536 116.154C154.635 116.514 154.883 116.842 154.97 117.209C155.056 117.572 154.795 118.016 154.868 118.385C154.941 118.751 155.205 119.084 155.265 119.456C155.323 119.825 155.365 120.201 155.41 120.575C155.454 120.946 155.206 121.345 155.235 121.721C155.264 122.093 155.345 122.456 155.359 122.833C155.372 123.206 155.71 123.576 155.708 123.954C155.706 124.327 155.348 124.693 155.33 125.069C155.313 125.442 155.672 125.843 155.638 126.22C155.605 126.591 155.227 126.928 155.177 127.303C155.128 127.672 155.278 128.074 155.212 128.447C155.147 128.814 155.069 129.184 154.987 129.554C154.907 129.917 154.877 130.301 154.78 130.667C154.685 131.027 154.467 131.351 154.361 131.699C154.252 132.055 154.107 132.395 153.987 132.738C153.864 133.089 153.884 133.493 153.75 133.831C153.613 134.177 153.169 134.387 153.021 134.719C152.869 135.058 152.829 135.441 152.665 135.766C152.498 136.098 152.21 136.353 152.031 136.67C151.849 136.994 151.755 137.359 151.561 137.666C151.364 137.98 151.326 138.399 151.117 138.696C150.903 138.999 150.611 139.243 150.386 139.529C150.158 139.82 149.842 140.033 149.603 140.306C149.359 140.584 149.026 140.764 148.772 141.024C148.513 141.288 148.289 141.569 148.02 141.814C147.748 142.063 147.68 142.551 147.397 142.78C147.111 143.012 146.588 142.924 146.292 143.136C145.993 143.35 145.736 143.606 145.427 143.8C145.116 143.995 144.847 144.247 144.527 144.423C144.205 144.599 143.925 144.855 143.595 145.01C143.264 145.167 142.927 145.315 142.588 145.45C142.248 145.586 141.905 145.72 141.559 145.835C141.211 145.95 140.789 145.79 140.436 145.884C140.083 145.978 139.761 146.163 139.403 146.236C139.045 146.309 138.739 146.702 138.378 146.754C138.016 146.806 137.625 146.65 137.26 146.681C136.897 146.712 136.537 146.908 136.171 146.918C135.806 146.928 135.431 146.91 135.065 146.9C134.701 146.889 134.348 146.617 133.983 146.586C133.62 146.556 133.264 146.498 132.901 146.447C132.54 146.397 132.207 146.226 131.847 146.157C131.489 146.087 131.052 146.384 130.696 146.296C130.343 146.208 130.068 145.822 129.717 145.715C129.369 145.61 128.932 145.768 128.586 145.644C128.244 145.52 127.949 145.257 127.61 145.115C127.275 144.976 126.957 144.791 126.625 144.633C126.296 144.477 126.001 144.256 125.676 144.083C125.356 143.911 125.001 143.801 124.685 143.612C124.372 143.426 123.966 143.379 123.659 143.176C123.355 142.976 123.219 142.524 122.921 142.308C122.627 142.094 122.154 142.113 121.866 141.883C121.581 141.657 121.541 141.129 121.263 140.887C120.988 140.649 120.6 140.539 120.332 140.286C120.068 140.036 119.757 139.83 119.499 139.566C119.245 139.305 118.914 139.107 118.667 138.832C118.423 138.562 118.445 138.056 118.208 137.771C117.966 137.48 117.772 137.181 117.561 136.883C117.343 136.574 116.925 136.413 116.739 136.098C116.547 135.773 116.371 135.441 116.212 135.11C116.049 134.771 116.016 134.382 115.886 134.037C115.754 133.687 115.732 133.314 115.632 132.957C115.531 132.598 115.114 132.315 115.045 131.95C114.975 131.584 115.053 131.187 115.014 130.817C114.974 130.447 115.194 130.066 115.183 129.693C115.172 129.322 114.848 128.951 114.864 128.578C114.879 128.207 115.061 127.845 115.101 127.473C115.141 127.105 115.13 126.728 115.192 126.359C115.253 125.993 115.377 125.639 115.459 125.273C115.54 124.912 115.485 124.511 115.585 124.151C115.684 123.794 115.778 123.427 115.894 123.071C116.009 122.719 116.17 122.376 116.3 122.025C116.43 121.678 116.588 121.337 116.731 120.992C116.874 120.649 117.288 120.428 117.443 120.088C117.597 119.751 117.616 119.352 117.781 119.018C117.946 118.684 117.992 118.289 118.166 117.96C118.341 117.631 118.439 117.256 118.622 116.933C118.805 116.608 119.004 116.289 119.195 115.97C119.386 115.65 119.792 115.464 119.99 115.15C120.189 114.834 120.447 114.561 120.651 114.252C120.857 113.94 120.935 113.544 121.145 113.24C121.357 112.932 121.503 112.577 121.718 112.277C121.937 111.973 122.404 111.857 122.624 111.562C122.849 111.261 122.774 110.734 122.998 110.444C123.228 110.146 123.573 109.943 123.801 109.657C124.037 109.362 124.185 109 124.417 108.719C124.658 108.426 124.957 108.19 125.193 107.912C125.44 107.622 125.614 107.279 125.853 107.007C126.105 106.719 126.369 106.453 126.61 106.187C126.869 105.899 127.191 105.689 127.433 105.429C127.701 105.141 128.128 105.036 128.37 104.784C128.648 104.494 128.834 104.158 129.072 103.918C129.372 103.615 129.426 103.137 129.65 102.918C130.158 102.422 130.563 102.25 130.563 102.25C131.039 102.009 131.009 101.948 131.484 101.707C131.96 101.467 131.913 101.371 132.389 101.13C132.865 100.89 132.97 101.1 133.446 100.859C133.922 100.618 133.839 100.452 134.315 100.211C134.791 99.9701 134.942 100.273 135.418 100.032C135.893 99.7918 135.721 99.4457 136.196 99.2053C136.672 98.9644 136.836 99.2929 137.312 99.0521C137.788 98.811 137.818 98.8703 138.294 98.6292C138.771 98.3881 138.591 98.0288 139.068 97.7877C139.544 97.5465 139.723 97.9041 140.2 97.6629C140.677 97.4213 140.717 97.4238 141.143 97.0986C141.601 96.7479 141.458 96.4338 141.985 96.3418Z" fill="#010101"/>
</svg>
