<svg width="20" height="20" viewBox="0 0 20 20" fill="none" xmlns="http://www.w3.org/2000/svg">
<mask id="mask0_1758_5" style="mask-type:alpha" maskUnits="userSpaceOnUse" x="0" y="0" width="20" height="20">
<rect width="20" height="20" fill="#D9D9D9"/>
</mask>
<g mask="url(#mask0_1758_5)">
<path d="M1.66675 16.6667V14.3333C1.66675 13.875 1.7848 13.4444 2.02091 13.0417C2.25703 12.6389 2.58341 12.3333 3.00008 12.125C3.70841 11.7639 4.50703 11.4583 5.39591 11.2083C6.2848 10.9583 7.26397 10.8333 8.33341 10.8333C8.75008 10.8333 9.15633 10.8542 9.55217 10.8958C9.948 10.9375 10.3334 11 10.7084 11.0833L9.25008 12.5417C9.0973 12.5139 8.948 12.5 8.80216 12.5H8.33341C7.3473 12.5 6.46189 12.618 5.67716 12.8542C4.89244 13.0903 4.25008 13.3472 3.75008 13.625C3.62508 13.6944 3.52439 13.7917 3.448 13.9167C3.37161 14.0417 3.33341 14.1805 3.33341 14.3333V15H8.54175L10.2084 16.6667H1.66675ZM12.9584 17L10.0834 14.125L11.2501 12.9583L12.9584 14.6667L17.1667 10.4583L18.3334 11.625L12.9584 17ZM8.33341 9.99999C7.41675 9.99999 6.63203 9.67361 5.97925 9.02083C5.32647 8.36805 5.00008 7.58333 5.00008 6.66666C5.00008 5.74999 5.32647 4.96527 5.97925 4.31249C6.63203 3.65972 7.41675 3.33333 8.33341 3.33333C9.25008 3.33333 10.0348 3.65972 10.6876 4.31249C11.3404 4.96527 11.6667 5.74999 11.6667 6.66666C11.6667 7.58333 11.3404 8.36805 10.6876 9.02083C10.0348 9.67361 9.25008 9.99999 8.33341 9.99999ZM8.33341 8.33333C8.79175 8.33333 9.18411 8.17013 9.5105 7.84374C9.83689 7.51736 10.0001 7.12499 10.0001 6.66666C10.0001 6.20833 9.83689 5.81597 9.5105 5.48958C9.18411 5.16319 8.79175 4.99999 8.33341 4.99999C7.87508 4.99999 7.48272 5.16319 7.15633 5.48958C6.82994 5.81597 6.66675 6.20833 6.66675 6.66666C6.66675 7.12499 6.82994 7.51736 7.15633 7.84374C7.48272 8.17013 7.87508 8.33333 8.33341 8.33333Z" fill="#053749"/>
</g>
</svg>
