<svg width="21" height="21" viewBox="0 0 21 21" fill="none" xmlns="http://www.w3.org/2000/svg">
<mask id="mask0_18265_23308" style="mask-type:alpha" maskUnits="userSpaceOnUse" x="0" y="0" width="21" height="21">
<rect x="0.984375" y="0.394531" width="20" height="20" fill="#D9D9D9"/>
</mask>
<g mask="url(#mask0_18265_23308)">
<path d="M2.65234 17.0609V14.7275C2.65234 14.2692 2.7704 13.8386 3.00651 13.4359C3.24262 13.0331 3.56901 12.7275 3.98568 12.5192C4.69401 12.1581 5.49262 11.8525 6.38151 11.6025C7.2704 11.3525 8.24957 11.2275 9.31901 11.2275C9.73568 11.2275 10.1419 11.2484 10.5378 11.29C10.9336 11.3317 11.319 11.3942 11.694 11.4775L10.2357 12.9359C10.0829 12.9081 9.93359 12.8942 9.78776 12.8942H9.31901C8.3329 12.8942 7.44748 13.0123 6.66276 13.2484C5.87804 13.4845 5.23568 13.7414 4.73568 14.0192C4.61068 14.0886 4.50998 14.1859 4.43359 14.3109C4.3572 14.4359 4.31901 14.5748 4.31901 14.7275V15.3942H9.52734L11.194 17.0609H2.65234ZM13.944 17.3942L11.069 14.5192L12.2357 13.3525L13.944 15.0609L18.1523 10.8525L19.319 12.0192L13.944 17.3942ZM9.31901 10.3942C8.40234 10.3942 7.61762 10.0678 6.96484 9.41504C6.31207 8.76226 5.98568 7.97754 5.98568 7.06087C5.98568 6.14421 6.31207 5.35948 6.96484 4.70671C7.61762 4.05393 8.40234 3.72754 9.31901 3.72754C10.2357 3.72754 11.0204 4.05393 11.6732 4.70671C12.326 5.35948 12.6523 6.14421 12.6523 7.06087C12.6523 7.97754 12.326 8.76226 11.6732 9.41504C11.0204 10.0678 10.2357 10.3942 9.31901 10.3942ZM9.31901 8.72754C9.77734 8.72754 10.1697 8.56434 10.4961 8.23796C10.8225 7.91157 10.9857 7.51921 10.9857 7.06087C10.9857 6.60254 10.8225 6.21018 10.4961 5.88379C10.1697 5.5574 9.77734 5.39421 9.31901 5.39421C8.86068 5.39421 8.46832 5.5574 8.14193 5.88379C7.81554 6.21018 7.65234 6.60254 7.65234 7.06087C7.65234 7.51921 7.81554 7.91157 8.14193 8.23796C8.46832 8.56434 8.86068 8.72754 9.31901 8.72754Z" fill="white"/>
</g>
</svg>
